/* XPM */
static char *result[] = {
/* columns rows colors chars-per-pixel */
"60 60 125 2 ",
"   c #0E010B",
".  c #0D0415",
"X  c #0F0A13",
"o  c #0E0618",
"O  c #0F081C",
"+  c #120516",
"@  c #1A0617",
"#  c #100E12",
"$  c #180B14",
"%  c #110619",
"&  c #1D0719",
"*  c #14091D",
"=  c #1A0E19",
"-  c #111111",
";  c #1C1113",
":  c #151119",
">  c #1A121D",
",  c #101C1D",
"<  c #220716",
"1  c #230D17",
"2  c #2B0B15",
"3  c #22061B",
"4  c #250A1A",
"5  c #2A0C1A",
"6  c #310815",
"7  c #340D1D",
"8  c #3A0D1E",
"9  c #221214",
"0  c #2B1215",
"q  c #341314",
"w  c #3D1416",
"e  c #341814",
"r  c #3A1916",
"t  c #351618",
"y  c #3C111B",
"u  c #170B20",
"i  c #1B0D24",
"p  c #1E0F28",
"a  c #0B1225",
"s  c #1D1124",
"d  c #111F27",
"f  c #1F1028",
"g  c #0A1E33",
"h  c #1F1F38",
"j  c #220E27",
"k  c #330A20",
"l  c #3B0D20",
"z  c #22122B",
"x  c #2B1A2A",
"c  c #0F2426",
"v  c #0F2B2E",
"b  c #0A2F3D",
"n  c #4E0014",
"m  c #490A16",
"M  c #4B061D",
"N  c #470E1E",
"B  c #510E1E",
"V  c #4F1517",
"C  c #44101C",
"Z  c #4C111C",
"A  c #511517",
"S  c #5D1617",
"D  c #54121D",
"F  c #5C141B",
"G  c #5A1B19",
"H  c #620A0B",
"J  c #621619",
"K  c #651818",
"L  c #422115",
"P  c #5F2719",
"I  c #542D1A",
"U  c #652019",
"Y  c #6B2518",
"T  c #612A18",
"R  c #7A2C1A",
"E  c #6D3218",
"W  c #6E381E",
"Q  c #460C24",
"!  c #4B0E22",
"~  c #510F20",
"^  c #4E1021",
"/  c #521020",
"(  c #5A1620",
")  c #611C21",
"_  c #713B20",
"`  c #182842",
"'  c #0C3D4B",
"]  c #08465D",
"[  c #10475C",
"{  c #06506C",
"}  c #065473",
"|  c #085F75",
" . c #055D7B",
".. c #0A7276",
"X. c #862F1B",
"o. c #8C3B1E",
"O. c #963D1D",
"+. c #983F1D",
"@. c #83492B",
"#. c #B35E30",
"$. c #056281",
"%. c #006788",
"&. c #006A89",
"*. c #097882",
"=. c #07748B",
"-. c #05798C",
";. c #097D8B",
":. c #017C9E",
">. c #05839F",
",. c #078C9B",
"<. c #0380A1",
"1. c #018DB2",
"2. c #0496B3",
"3. c #059CB1",
"4. c #0093B9",
"5. c #03A5BD",
"6. c #0A9EC6",
"7. c #00A5C0",
"8. c #02A4CA",
"9. c #03B4C9",
"0. c #02B1D4",
"q. c #05BDD0",
"w. c #01D4E8",
"e. c #00C9F0",
"r. c #00ECFF",
/* pixels */
"- - - - - - - - - - - - - - - - - - - - - - - - - - - - - - - - - - - - - - - - - - - - - - - - - - - - - - - - - - - - ",
"- - - - - - - - - - - - - - - - - - - - - - - - - - - - - - - - - - - - - - - - - - - - - - - - - - - - - - - - - - - - ",
"- - - - - - - - - - - - - - - - - - - - - - - - - - - - - - - - - - - - - - - - - - - - - - - - - - - - - - - - - - - - ",
"- - - - - - - - - - - - - - - - - - - - - - - - - - - - - - - - - - - - - - - - - - - - - - - - - - - - - - - - - - - - ",
"- - - - - - - - - - - - - - - - - - - - - - - - - - - - - - - - - - - - - - - - - - - - - - - - - - - - - - - - - - - - ",
"- - - - - - - - - - - - - - - - - - - - - - - - - - - - - - - - - - - - - - - - - - - - - - - - - - - - - - - - - - - - ",
"- - - - - - - - - - - - - - - - - - - - - - - - - - - - - - - - - - - - - - - - - - - - - - - - - - - - - - - - - - - - ",
"- - - - - - - - - - - - - - - - - - - - - - - - - - - - - - - - - - - - - - - - - - - - - - - - - - - - - - - - - - - - ",
"- - - - - - - - - - - - - - - - - - - - - - - - - - - - - - - - - - - - - - - - - - - - - - - - - - - - - - - - - - - - ",
"- - - - - - - - - - - - - - - - - - - - - - - - - - - - - - - - - - - - - - - - - - - - - - - - - - - - - - - - - - - - ",
"- - - - - - - - - - - - - - - - - - - - - - - - - - - - - - - - - - - - - - - - - - - - - - - - - - - - - - - - - - - - ",
"- - - - - - - - - - - - - - - - - - - - - - - - - - - - - - - - - - - - - - - - - - - - - - - - - - - - - - - - - - - - ",
"- - - - - - - - - - - - - - - - - - - - - - - - - - - - - - - - - - - - - - - - - - - - - - - - - - - - - - - - - - - - ",
"- - - - - - - - - - - - - - - - - - - - - - - - - - - - - - - - - - - - - - - - - - - - - - - - - - - - - - - - - - - - ",
"- - - - - - - - - - - - - - - - - - - - - - - - - - - - - - - - - - - - - - - - - - - - - - - - - - - - - - - - - - - - ",
"- - - - - - - - - - - - - - - - - - - - - - - - - - - - - - - - - - - - - - - - - - - - - - - - - - - - - - - - - - - - ",
"- - - - - - - - - - - - - - - - - - - - - - - - - - - - - - - - - - - - - - - - - - - - - - - - - - - - - - - - - - - - ",
"- - - - - - - - - - - - - - - - - - - - - - - - - - - - - - - - - - - - - - - - - - - - - - - - - - - - - - - - - - - - ",
"- - - - - - - - - - - - - - - - - - - - - - - - - - - - - - - - - - - - - - - - - - - - - - - - - - - - - - - - - - - - ",
"- - - - - - - - - - - - - - - - - - - - - - - - - - - - - - - - - - - - - - - - - - - - - - - - - - - - - - - - - - - - ",
"- - - - - - - - - - - - - L - - - - - - - - - - - - - - - - - - : v - - - - - - - - - - - - - - - - - - - 5 - - - - - - ",
"- - - - - - - - - - - - - +.; - - - - - - - - - - - - - - - - - , ,.c - - - - - - - v - - - - - - - - - 9 Z - - - - - - ",
"- - - - - - - - - - - - q O.r - - - - - - - - - - - - - - - - - - ,.;.- - - - - - [ ..- - 0 ; # - 1 t l ^ Z - - - - - - ",
"- - - - - - - - - - - 1 N Y ! l 1 ; - - - - - - - - - - - - - - - =.3.' | 2.*.b - -...- - V w 7 l ! ! ! / ^ ; - - - - - ",
"- - - - - - - - - - 5 Q ! ) ! / Q Q Q 8 1 = # E 0 - - - - - 0 U = <.e.8.%.9.r.7.1.&.;.> 0 ! / ! ! F J ! ! Q l - - - - - ",
"- - - - - - - - - 7 ! ^ ^ Q ~ J F F ! ! ! ! ! R ; - - - - 0 X.U O  .$.:. .>.w.q.d [ x Q Q Q ! J K D F Q ! ( Q - - - - - ",
"- - - - - - - - l Q F J / Q ( J J J / J F ~ ( ~ 8 - - - 1 J G * .     g 8.} 5.| 2 8 M F F ! ! J J F / ! F S ! 5 - - - - ",
"- - - - - - - 7 / F J J F ! F J J F J J J / ! / ^ Q ; ; D ~ @ . % o . a g 0.4.6.n B F F F ! ! J J F ! F K F ! Q - - - - ",
"- - - - - - l ^ F J J J F Q F J J J J F F ! ! J J Q ^ / F & . p j o . . { ] 8.6.H J J F S D ! J J D Q K J F / ! ; - - - ",
"- - - - - 5 / J F / J J J Q F J S J J J ! ! J J F D ^ Q 7 . f z . @ . . a } ` h 9 ; - 0 V S Q J F ! D J J J J ! 5 - - - ",
"- - - - ; ! K J J J J J K Q F J J J J F Q S A r ; ; ; 0 = i z i . 5 3 . 3 m 5 j * i : - - ; 1 ; ; t ; 9 q w A F 8 - - - ",
"- - - > ! J J S A A D J K Q C 0 ; 0 S ! y ; - - - - - # u f f O < 3 4 8 k N 7 f i o s - - - - - - o._ - - - - 0 8 - - - ",
"- - - l V V 0 ; - - - ; ; 7 5 - - - q 7 - - - - - - - s i f s . 7 4 l F @ 5 + z z p + > - - - - q G @.e - - - - - - - - ",
"- - ; 5 - - - - - - - - - - ; - - - ; - - - - - - - - z s z u . 3 3 Q 3 8 D < j p p * * s - - - - P Y ; - - - - - - - - ",
"- - - - - - - - - - - - - - - - - - - - - - - - - - s u z z % . . . & + k ! 4 u . . % . * - - - X - - - - - - - - - - - ",
"- - - - - - - - - - - - - - - - - - - - - - - - - - s i z z % . . % o + 4 3 . o . . o - # - - - X X - - - - - - - - - - ",
"- - - - - - - - - - - - - - - - - - - I W ; - - - - s i z z % o . u p . . . . u s . . - - - - - X X - - - - - - - - - - ",
"- - - - - - - - - - - - - - - - - - ; #.W q - - - - s u z z % . . i z * . . . u z p % - - - - - X - - - - - - - - - - - ",
"- - - - - - - - - - - - - - - - - - ; G 6 $ - - - - s u z z p o . p z i . . . u * + * + # X # o - - - - - - - - - - - - ",
"- - - - - - - - - - - - - - - - - - - T ; . - - - - s u p * i + . p z z o . . % . o o % . # - # - - - - - - - - - - - - ",
"- - - - - - - - - - - - - - - - - - - - - X - - - - > * o . . . . p j * + . . . . . o p . + - - - - - - - - - - - - - - ",
"- - - - - - - - - - - - - - - - - - - - - X - - - - - . o . . . . j . . . . . . . . * z u . - - - - - - - - - - - - - - ",
"- - - - - - - - - - - - - - - - - - - - - X - - - - # . . . . . . u . . . . . . . . u z f + X - - - - - - - - - - - - - ",
"- - - - - - - - - - - - - - - - - - - - - X - - - - o . . . . . . % . . . . . . . . p j s s . X - - - - - - - - - - - - ",
"- - - - - - - - - - - - - - - - - - - - - X X X # X o o . . . . . . . . . . . . . . z * o u % o - - - - - - - - - - - - ",
"- - - - - - - - - - - - - - - - - - - - - - - # # X . . . . . . . . . . . . . . . . p . . . % . - - - - - - - - - - - - ",
"- - - - - - - - - - - - - - - - - - - - - - - - - - - . . . . . . . . . . . . . . . * . . . . o - - - - - - - - - - - - ",
"- - - - - - - - - - - - - - - - - - - - - - - - - - - . . . . . . . . . . . . . . . o . . . X # - - - - - - - - - - - - ",
"- - - - - - - - - - - - - - - - - - - - - - - - - - - - # X . . . . . . . . . . . . . . . - - - - - - - - - - - - - - - ",
"- - - - - - - - - - - - - - - - - - - - - - - - - - - - - - . . . . . . . . . . . . . . . - - - - - - - - - - - - - - - ",
"- - - - - - - - - - - - - - - - - - - - - - - - - - - - - - X . . X # X . . o # - X .   - - - - - - - - - - - - - - - - ",
"- - - - - - - - - - - - - - - - - - - - - - - - - - - - - - X X + X - # o . # - - - - # - - - - - - - - - - - - - - - - ",
"- - - - - - - - - - - - - - - - - - - - - - - - - - - - - - - - - - - - - - - - - - - - - - - - - - - - - - - - - - - - ",
"- - - - - - - - - - - - - - - - - - - - - - - - - - - - - - - - - - - - - - - - - - - - - - - - - - - - - - - - - - - - ",
"- - - - - - - - - - - - - - - - - - - - - - - - - - - - - - - - - - - - - - - - - - - - - - - - - - - - - - - - - - - - ",
"- - - - - - - - - - - - - - - - - - - - - - - - - - - - - - - - - - - - - - - - - - - - - - - - - - - - - - - - - - - - ",
"- - - - - - - - - - - - - - - - - - - - - - - - - - - - - - - - - - - - - - - - - - - - - - - - - - - - - - - - - - - - ",
"- - - - - - - - - - - - - - - - - - - - - - - - - - - - - - - - - - - - - - - - - - - - - - - - - - - - - - - - - - - - ",
"- - - - - - - - - - - - - - - - - - - - - - - - - - - - - - - - - - - - - - - - - - - - - - - - - - - - - - - - - - - - ",
"- - - - - - - - - - - - - - - - - - - - - - - - - - - - - - - - - - - - - - - - - - - - - - - - - - - - - - - - - - - - "
};
