/* XPM */
static char *result[] = {
/* columns rows colors chars-per-pixel */
"60 60 121 2 ",
"   c #0E010F",
".  c #1C000F",
"X  c #0D0415",
"o  c #0F0A13",
"O  c #0E0718",
"+  c #0F0C1D",
"@  c #110516",
"#  c #100E12",
"$  c #1D0D12",
"%  c #110619",
"&  c #1F0619",
"*  c #14091C",
"=  c #1B0A1D",
"-  c #111111",
";  c #1B1114",
":  c #161119",
">  c #19111E",
",  c #220D17",
"<  c #290B16",
"1  c #22071C",
"2  c #250E18",
"3  c #2C0B1B",
"4  c #350D1D",
"5  c #3A0C1E",
"6  c #221214",
"7  c #2A1313",
"8  c #2D1B13",
"9  c #341315",
"0  c #3B1315",
"q  c #341E15",
"w  c #3C101C",
"e  c #170B20",
"r  c #1B0D24",
"t  c #1D1224",
"y  c #1F1028",
"u  c #0C1B30",
"i  c #240B24",
"p  c #2D0F26",
"a  c #200F28",
"s  c #3C0B21",
"d  c #330E28",
"f  c #2A1524",
"g  c #21112A",
"h  c #371322",
"j  c #0F2429",
"k  c #0F2B2D",
"l  c #102123",
"z  c #0F2D33",
"x  c #09283C",
"c  c #450B11",
"v  c #4A0E1C",
"b  c #570413",
"n  c #590613",
"m  c #461416",
"M  c #4D1517",
"N  c #43121B",
"B  c #49111D",
"V  c #4A1A1A",
"C  c #521517",
"Z  c #561E17",
"A  c #55121E",
"S  c #5C141C",
"D  c #6C0302",
"F  c #65050B",
"G  c #6A0D0D",
"H  c #651315",
"J  c #621619",
"K  c #621C1D",
"L  c #462015",
"P  c #46201C",
"I  c #542018",
"U  c #582E1C",
"Y  c #68291B",
"T  c #73261A",
"R  c #732A1C",
"E  c #450C24",
"W  c #4C0E22",
"Q  c #4F1021",
"!  c #531220",
"~  c #5C1821",
"^  c #601E20",
"/  c #5E2325",
"(  c #0A2E43",
")  c #073A54",
"_  c #093F57",
"`  c #323544",
"'  c #0C434A",
"]  c #12495F",
"[  c #3E4F5D",
"{  c #0F516C",
"}  c #0A586B",
"|  c #015877",
" . c #822D1B",
".. c #813D20",
"X. c #88482A",
"o. c #C7743B",
"O. c #056686",
"+. c #057787",
"@. c #04779B",
"#. c #05789C",
"$. c #296F84",
"%. c #078A97",
"&. c #2D8390",
"*. c #0082A5",
"=. c #0294AC",
"-. c #0192B8",
";. c #2994A1",
":. c #229DAB",
">. c #05A4B4",
",. c #009CC1",
"<. c #00A3CF",
"1. c #17B0C2",
"2. c #01AED3",
"3. c #0CBBD2",
"4. c #01C5DA",
"5. c #01CDE3",
"6. c #00C5EB",
"7. c #00CCEE",
"8. c #09D3E7",
"9. c #00D4F6",
"0. c #00ECFE",
/* pixels */
"- - - - - - - - - - - - - - - - - - - - - - - - - - - - - - - - - - - - - - - - - - - - - - - - - - - - - - - - - - - - ",
"- - - - - - - - - - - - - - - - - - - - - - - - - - - - - - - - - - - - - - - - - - - - - - - - - - - - - - - - - - - - ",
"- - - - - - - - - - - - - - - - - - - - - - - - - - - - - - - - - - - - - - - - - - - - - - - - - - - - - - - - - - - - ",
"- - - - - - - - - - - - - - - - - - - - - - - - - - - - - - - - - - - - - - - - - - - - - - - - - - - - - - - - - - - - ",
"- - - - - - - - - - - - - - - - - - - - - - - - - - - - - - - - - - - - - - - - - - - - - - - - - - - - - - - - - - - - ",
"- - - - - - - - - - - - - - - - - - - - - - - - - - - - - - - - - - - - - - - - - - - - - - - - - - - - - - - - - - - - ",
"- - - - - - - - - - - - - - - - - - - - - - - - - - - - - - - - - - - - - - - - - - - - - - - - - - - - - - - - - - - - ",
"- - - - - - - - - - - - - - - - - - - - - - - - - - - - - - - - - - - - - - - - - - - - - - - - - - - - - - - - - - - - ",
"- - - - - - - - - - - - - - - - - - - - - - - - - - - - - - - - - - - - - - - - - - - - - - - - - - - - - - - - - - - - ",
"- - - - - - - - - - - - - - 0 - - - - - - - - - - - - - - - - - - - - - - - - - - - - - - - - - - - - - - - - - - - - - ",
"- - - - - - - - - - - - - - T ; - - - - - - - - - - - - - - - - - - - - - - - - - - - - - - - - - - - - - - - - - - - - ",
"- - - - - - - - - - - - - #  .7 - - - - - - - - - - - - - - - - - - - - - - - - - - ; ; - - - - - - - - - - - - - - - - ",
"- - - - - - - - - - - - - -  .7 - - - - - - - - - - - - - - - - - - - - - - - - - - 2 N - - - - - - - - - - - - - - - - ",
"- - - - - - - - - - - - - s ~ ~ $ - - - - - - - - - - - - - - - - - - - - - - - - - w C - - - - - - - - - - - - - - - - ",
"- - - - - - - - - - - $ h ~ ^ J E ; - - - - - - - - - - - - - - - - - - - - - - : $ ! ! - - - - - - - - - - - - - - - - ",
"- - - - - - - - - - ; E E E S A W A : - - - - - - - - - - - - - - - - - - - - - - E W W s - - - - - - - - - - - - - - - ",
"- - - - - - - - # 4 E Q J W S J J S K ; - - - - - - - - - - - - - - - - - - - - , E E ! E ; - - - - - - - - - - - - - - ",
"- - - - - - - ; s E ~ J J E W J J S S W ; - - - - - - - - - - - - - - - - - - - E J E S A 4 - - - - - - - - - - - - - - ",
"- - - - - - , E A Q J J J E S J J J J ! W ; - - - - - - - - - - - - - - - - - 4 A J W S J W ; : - - - - - - - - - - - - ",
"- - - - - 2 Q S J S S J S E S J J J ! J S E ; - - - - - - - - - - - - - - - 2 E J J W S S A E $ - - - - - - - - - - - - ",
"- - - - 2 A J J J J S J A W S J J J A J J J E # - q - - - - : - - - - - - - s ! A J W S S J S 4 - - - - - - - - - - - - ",
"- - - 2 4 m J J J J J J A A J J J J J J J J S E V Z - - - - %.l - - - - - 2 W G ! J W S J J J ! - - - - - - - - - - - - ",
"- - - 2 - - 7 C J J J J Q J J J J J J J J J J ~ S - - - - - ' >.- - - - c 5 S &./ J ! S J J J J Q - - - - - - - - - - - ",
"- - - - - - - o 9 J J J W J J J J J J S S S Q W ~ - - - - - k 4.z j } z ` b [ ;.F J W S J J J J 9 3 - - - - - - - - - - ",
"- - - - - - - - - 6 S J B J J J J J J J J Q Q S W 2 - , N $ ' 0.4.=.-.6.7.1.3.0.D J Q S J J M ; # : - - - - - - - - - - ",
"- - - - - - - - - - 6 J S J J J J J J J A E S J A 4 $ T ^ . +.5.=.=.O.7.9.:.8.$.G J A A J 0 - - - - - - - - - - - - - - ",
"- - - - - - - - - - - w S J J J J J J A E S J J S E N S i * * O x *.#._ ,.D ^ n S S S Q 0 - - - - - - - - - - - - - - - ",
"- - - - - - - - - - - 3 - ; m J J J ! W S J J S A E S d r e X X X ) 2.@.<.D H J Q J S N - - - - - - - - - - - - - - - - ",
"- - - - - - - - - - - , - - - 0 J S W J J J S S J E E g r O r X X ( ( 6.6.- 7 0 B A ; 3 - - - - - - - - - - - - - - - - ",
"- - - - - - - - - - - - - - - - S W J J J J C C C s p t + y X X X u | { ] - - - - 7 - - - - - - - - - - - - - - - - - - ",
"- - - - - - - - - - - - - - - 6 E 9 9 - ; ; - - - - g X a r & < @   f h 1 - - - - - - - - 8 q ; - - - - - - - - - - - - ",
"- - - - - - - - - - - - - - - 2 : - - - - - - - - : y e g = 1 < 1 1 v v = g : - - - - - - T X.U - - - - - - - - - - - - ",
"- - - - - - - - - - - - - - - - - - - - - - - - - > > g y = 4 3 K 5 3 1 X r a t : : - - - K I 6 - - - - - - - - - - - - ",
"- - - - - - - - - - - - - - - - - - - - - - - - - g * y r 4 < 5 4 5 c < X @ g a g y > - - ; L 6 - - - - - - - - - - - - ",
"- - - - - - - - - - - - - - - - - - - - - - - - : t * g y X X 1 1 1 A W X X % a % % * : - # # - - - - - - - - - - - - - ",
"- - - - - - - - - - - - - - - - - ; 6 - - - - - > * t g y % X O X 1 s @ X X X X X o # - - o # - - - - - - - - - - - - - ",
"- - - - - - - - - - - - - - - - ; ..o.L - - - - t * r g g r X i % @ X X % e X X o - - - - o - - - - - - - - - - - - - - ",
"- - - - - - - - - - - - - - - - - Y P 0 - - - - t r r g g g * r g % X X * g % O : : - - o o - - - - - - - - - - - - - - ",
"- - - - - - - - - - - - - - - - ; R M # - - - - g g r g g g t e a g r @ X a a a t r o o o # - - - - - - - - - - - - - - ",
"- - - - - - - - - - - - - - - - - ; - X - - - > g g * g g r g * g g g g r % y r X X % - - - - - - - - - - - - - - - - - ",
"- - - - - - - - - - - - - - - - - - - o - - - : g g * g y r r * y y r r r % r X X % X # - - - - - - - - - - - - - - - - ",
"- - - - - - - - - - - - - - - - - - - o - - - - * g * y * * * * % g X X X @ X X X a * X - - - - - - - - - - - - - - - - ",
"- - - - - - - - - - - - - - - - - - - # o - - - o O * O X X X X X r r X X X X X X * g r - - - - - - - - - - - - - - - - ",
"- - - - - - - - - - - - - - - - - - - # X - - - # X O X X X X X X X y X X X X X X X g g t - - - - - - - - - - - - - - - ",
"- - - - - - - - - - - - - - - - - - - - o o # - - X X X X X X X X X % X X X X X X X g r r : - - - - - - - - - - - - - - ",
"- - - - - - - - - - - - - - - - - - - - # o o # o X X X X X X X X X X X X X X X X X g @ X # - - - - - - - - - - - - - - ",
"- - - - - - - - - - - - - - - - - - - - - - - # # X X X X X X X X X X X X X X X X X t X X - - - - - - - - - - - - - - - ",
"- - - - - - - - - - - - - - - - - - - - - - - - - # X X X X X X X X X X X X X X X X % o - - - - - - - - - - - - - - - - ",
"- - - - - - - - - - - - - - - - - - - - - - - - - - - # # X X X X X X X X X X X X o o - - - - - - - - - - - - - - - - - ",
"- - - - - - - - - - - - - - - - - - - - - - - - - - - - - X X X X X X X X X o - - o - - - - - - - - - - - - - - - - - - ",
"- - - - - - - - - - - - - - - - - - - - - - - - - - - - - X X X X o X X X X - - - - - - - - - - - - - - - - - - - - - - ",
"- - - - - - - - - - - - - - - - - - - - - - - - - - - - - # o o # : o o o - - - - - - - - - - - - - - - - - - - - - - - ",
"- - - - - - - - - - - - - - - - - - - - - - - - - - - - - - - - - - - - - - - - - - - - - - - - - - - - - - - - - - - - ",
"- - - - - - - - - - - - - - - - - - - - - - - - - - - - - - - - - - - - - - - - - - - - - - - - - - - - - - - - - - - - ",
"- - - - - - - - - - - - - - - - - - - - - - - - - - - - - - - - - - - - - - - - - - - - - - - - - - - - - - - - - - - - ",
"- - - - - - - - - - - - - - - - - - - - - - - - - - - - - - - - - - - - - - - - - - - - - - - - - - - - - - - - - - - - ",
"- - - - - - - - - - - - - - - - - - - - - - - - - - - - - - - - - - - - - - - - - - - - - - - - - - - - - - - - - - - - ",
"- - - - - - - - - - - - - - - - - - - - - - - - - - - - - - - - - - - - - - - - - - - - - - - - - - - - - - - - - - - - ",
"- - - - - - - - - - - - - - - - - - - - - - - - - - - - - - - - - - - - - - - - - - - - - - - - - - - - - - - - - - - - ",
"- - - - - - - - - - - - - - - - - - - - - - - - - - - - - - - - - - - - - - - - - - - - - - - - - - - - - - - - - - - - "
};
