/* XPM */
static char *result[] = {
/* columns rows colors chars-per-pixel */
"60 60 112 2 ",
"   c #0E000E",
".  c #040114",
"X  c #0D0415",
"o  c #0E0A13",
"O  c #0D0B1D",
"+  c #1B0413",
"@  c #100D12",
"#  c #110619",
"$  c #1C0619",
"%  c #15091D",
"&  c #1B091A",
"*  c #111111",
"=  c #1B1114",
"-  c #101719",
";  c #18111C",
":  c #101A1C",
">  c #230D17",
",  c #24061C",
"<  c #2B061B",
"1  c #2D0A1B",
"2  c #390E17",
"3  c #340E1D",
"4  c #3C0C1C",
"5  c #211114",
"6  c #2B1215",
"7  c #2B1A14",
"8  c #351415",
"9  c #37101A",
"0  c #3E121B",
"q  c #160C21",
"w  c #1C0D24",
"e  c #1D1027",
"r  c #1F122B",
"t  c #1D1E2A",
"y  c #0A1D31",
"u  c #270D23",
"i  c #2E0F22",
"p  c #280F29",
"a  c #340921",
"s  c #3B0D21",
"d  c #3B0D28",
"f  c #2E1227",
"g  c #22122C",
"h  c #2A1128",
"j  c #361324",
"k  c #3A1025",
"l  c #0F2326",
"z  c #0F2C2F",
"x  c #0C2233",
"c  c #0D2B33",
"v  c #11263F",
"b  c #0E323B",
"n  c #430D1C",
"m  c #431516",
"M  c #4F1517",
"N  c #46121A",
"B  c #4C131B",
"V  c #441C18",
"C  c #521417",
"Z  c #56121E",
"A  c #5B141C",
"S  c #501B1C",
"D  c #661817",
"F  c #621619",
"G  c #641A1C",
"H  c #6A1D1B",
"J  c #71231D",
"K  c #762C1A",
"L  c #7A2A1E",
"P  c #450C24",
"I  c #4C0E22",
"U  c #520F22",
"Y  c #4C1020",
"T  c #451A28",
"R  c #531120",
"E  c #601C22",
"W  c #692020",
"Q  c #083049",
"!  c #193845",
"~  c #383048",
"^  c #0D454A",
"/  c #0C4A50",
"(  c #0B4F5F",
")  c #0C545C",
"_  c #034C67",
"`  c #095170",
"'  c #045E76",
"]  c #0B6269",
"[  c #216478",
"{  c #8A351E",
"}  c #8E4727",
"|  c #066E89",
" . c #047592",
".. c #057F96",
"X. c #007598",
"o. c #297B8E",
"O. c #04869B",
"+. c #038CA3",
"@. c #0189AE",
"#. c #0292B7",
"$. c #019DC5",
"%. c #03ACC0",
"&. c #01A4CB",
"*. c #02B3CA",
"=. c #01AFDA",
"-. c #00B1DB",
";. c #01C3D9",
":. c #03C9DC",
">. c #00D6EC",
",. c #00D9EF",
"<. c #00E1F7",
"1. c #00EAFF",
/* pixels */
"* * * * * * * * * * * * * * * * * * * * * * * * * * * * * * * * * * * * * * * * * * * * * * * * * * * * * * * * * * * * ",
"* * * * * * * * * * * * * * * * * * * * * * * * * * * * * * * * * * * * * * * * * * * * * * * * * * * * * * * * * * * * ",
"* * * * * * * * * * * * * * * * * * * * * * * * * * * * * * * * * * * * * * * * * * * * * * * * * * * * * * * * * * * * ",
"* * * * * * * * * * * * * * * * * * * * * * * * * * * * * * * * * * * * * * * * * * * * * * * * * * * * * * * * * * * * ",
"* * * * * * * * * * * * * * * * * * * * * * * * * * * * * * * * * * * * * * * * * * * * * * * * * * * * * * * * * * * * ",
"* * * * * * * * * * * * * * * * * * * * * * * * * * * * * * * * * * * * * * * * * * * * * * * * * * * * * * * * * * * * ",
"* * * * * * * * * * * * * * * * * * * * * * * * * * * * * * * * * * * * * * * * * * * * * * * * * * * * * * * * * * * * ",
"* * * * * * * * * * * * * * * * * * * * * * * * * * * * * * * * * * * * * * * * * * * * * * * * * * * * * * * * * * * * ",
"* * * * * * * * * * * * * * * * * * * * * * * * * * * * * * * * * * * * * * * * * * * * * * * * * * * * * * * * * * * * ",
"* * * * * * * * * * * * * * * * * * * * * * * * * * * * * * * * * * * * * * * * * * * * * * * * * * * * * * * * * * * * ",
"* * * * * * * * * * * * * * * * * * * * * * * * * * * * * * * * * * * * * * * * * * * * * * * * * * * * * * * * * * * * ",
"* * * * * * * * * * * * * * * * * * * * * * * * * * * * * * * * * * * * * * * * * * * * * * * * * * * * * * * * * * * * ",
"* * * * * * * * * * * * * * * * * * * * * * * * * * * * * * * * * * * * * * * * * * * * * * * * * * * * * * * * * * * * ",
"* * * * * * * * * * * * * * * * * * * * * * * * * * * * * * * * * * * * * * * * * * * * * * * * * * * * * * * * * * * * ",
"* * * * * * * * * * * * * * * * * * * * * * * * * * * * * * * * * * * * * * * * * * * * * * * * * * * * * * * * * * * * ",
"* * * * * * * * * * * * * * * * * * * * * * * * * * * * * * * * * * * * * * * * * * * * * * * * * * * * * * * * * * * * ",
"* * * * * * * * * * * * * * * * * * * * * * * * * * * * * * * * * * * * * * * * * * * * * * * * * * * * * * * * * * * * ",
"* * * * * * * * * * * * * * * * * * * * * * * * * * * * * * * * * * * * * * * * * * * * * * * * * * * * * * * * * * * * ",
"* * * * * * * * * * * * * * * * * * * * * * * * * * * * * * * * * * * * * * * * * * * * * * * * * * * * * * * * * * * * ",
"* * * * * * * * * * * * * * * * * * * * * * * * * * * * * * * * * * - * * * * * * * * * * * * * * * * * * * * * * * * * ",
"* * * * * * * * * * * * * * * * * * * * * * * * * * * * * * * * * * ) / * * * * * * * * - * * * * * * * * * * * * * * * ",
"* * * * * * * * * * * * * * * * * * * * * * * * * * * * * * * * * * * &.b * * * * * @ ) ^ * * * * * * * * * * * * * * * ",
"* * * * * * * * * * * * * * * * * * * * * * * * * * * * * * * * * * * =.( - ] ] z : * ..l * * * * * * * * * * * * * * * ",
"* * * * * * * * * * * * * * * * * * * * * * * * * * * * * * * * = B t =.-.#.+.,.>...| X.z * * * * * * * * * * * * * * * ",
"* * * * * * * * * * * * * * * * * * * * * * * * * * * * * * * * S A v $.@.&._ ;.<.O.'  .t * * * * * * * * * * * * * * * ",
"* * * * * * * * * * * * * * * * * * * * * * * * * * * * * * @ m G $ o O O _ :.x 1.c * * @ * * * * * * * * * * * * * * * ",
"* * * * * * * * * * * * * * * * * * * * * * * * * * * * * * 4 A , X X X X y +.%.;.! * * * * * * * * * * * * * * * * * * ",
"* * * * * * * * * * * * * * * * * * * * * * * * * * * * * M I s X # # X X y Q *.*.o.= * * * * * * * * * * * * * * * * * ",
"* * * * * * * * * * * * * * * * * * * * @ * * * * = 6 m A A I u X e X X X   _ ` [ ~ P 3 = @ * * * * * * * * * * * * * * ",
"* * * * * * * * * * * * * * * * * * * * = s 3 B A F F F F Y P X # q X $ X X + q , u d Z I 3 = * * * * * * * * * * * * * ",
"* * * * * * * * * * * * * * * * * * * * * Z U P B L J J Z R d . % & $ & $ . P < r # g j F R P 6 M * * * * * * * * * * * ",
"* * * * * * * * * * * * * * * 3 = * * = m F D A A I R R E H T . % % $ $ P N % 1 % # # r f A Z Z A * * 7 7 * * * * * * * ",
"* * * * * * * * * * * * * * * 3 P 3 m A F F F F F D F I G H { V % w $ $ 1 s < 4 q w X w r p R P U 3 > K } 8 * * * * * * ",
"* * * * * * * * * * * * * * * C R I R F F D F F Z D R P I p f 6 X g X X # X n U u g X # g r p I I P 3 H V = * * * * * = ",
"* * * * * * * * * * * * = 8 A D D Z I H Z R D F A G R P h r g . % w X X X X < $ # w X % u # i F R U 4 n V * * * * * * * ",
"* * * * * * * = 5 * = m A F F F F D Z W G D F D Z W 0 = g w q # g # X X X X X X X q X X X o > F A F 4 1 = * * * * * * * ",
"* * * * * * * * s s Y F F F D Z G F D Z R Z G R P s * * g X X # g X % X # % X X % g # X X % * = D R a 3 P = * * * * * * ",
"* * * * * * * * * 5 s P N U B I R A Z A I P I P 3 * * * % X X % w X g X # g X X w w w X X # % o N I 4 3 I 4 * * * * * * ",
"* * * * * * * * * * * * = > > a a s P P P P G A * * * * * X X g % % g # X % w X e X o # X X e o $ $ 2 C R I 3 * * * * * ",
"* * * * * * * * * * * * * * * @ * * * > 9 Y M { 5 * * * * # X e X w g # X X % # q X X X # X X * * @ = 8 R I P = * * * * ",
"* * * * * * * * * * * * * * * * * * * * * * * 8 K * * * o X X # X g w X X X # % % X X X % X X % * * * * 6 A B k * * * * ",
"* * * * * * * * * * * * * * * * * * * * * * o o * * * o X X X X % % X X X X X X X X X X w X X w ; * * * * = A Y * * * * ",
"* * * * * * * * * * * * * * * * * * * * * * @ @ * * * * X X X X # % X X X X # X X X X % g X X # g & * * * * = P * * * * ",
"* * * * * * * * * * * * * * * * * * * * * * @ @ * * * * o X X X X # X X X X X X X X X w g X X X w g * * * * * 3 * * * * ",
"* * * * * * * * * * * * * * * * * * * * * * @ o * * * * @ X X X X X X X X X X X X X X % g X X X % & * * * * * * * * * * ",
"* * * * * * * * * * * * * * * * * * * * * * * o @ @ o o @ X X X X X X X X X X X X X X X % X X X X X * * * * * * * * * * ",
"* * * * * * * * * * * * * * * * * * * * * * * * @ * @ @ * X X X X X X X X X X X X X X X X X X X X X * * * * * * * * * * ",
"* * * * * * * * * * * * * * * * * * * * * * * * * * * * * X X X X X X X X X X X X X X X X X X X X o * * * * * * * * * * ",
"* * * * * * * * * * * * * * * * * * * * * * * * * * * * * . X X X # X X X X X X X X X X X o * X o * * * * * * * * * * * ",
"* * * * * * * * * * * * * * * * * * * * * * * * * * * * * * @ * * X X X X X @ @ X X X X @ * * * * * * * * * * * * * * * ",
"* * * * * * * * * * * * * * * * * * * * * * * * * * * * * * * * * * @ X X * @ @ @ X X X * * * * * * * * * * * * * * * * ",
"* * * * * * * * * * * * * * * * * * * * * * * * * * * * * * * * * * * * * * * * * * * * * * * * * * * * * * * * * * * * ",
"* * * * * * * * * * * * * * * * * * * * * * * * * * * * * * * * * * * * * * * * * * * * * * * * * * * * * * * * * * * * ",
"* * * * * * * * * * * * * * * * * * * * * * * * * * * * * * * * * * * * * * * * * * * * * * * * * * * * * * * * * * * * ",
"* * * * * * * * * * * * * * * * * * * * * * * * * * * * * * * * * * * * * * * * * * * * * * * * * * * * * * * * * * * * ",
"* * * * * * * * * * * * * * * * * * * * * * * * * * * * * * * * * * * * * * * * * * * * * * * * * * * * * * * * * * * * ",
"* * * * * * * * * * * * * * * * * * * * * * * * * * * * * * * * * * * * * * * * * * * * * * * * * * * * * * * * * * * * ",
"* * * * * * * * * * * * * * * * * * * * * * * * * * * * * * * * * * * * * * * * * * * * * * * * * * * * * * * * * * * * ",
"* * * * * * * * * * * * * * * * * * * * * * * * * * * * * * * * * * * * * * * * * * * * * * * * * * * * * * * * * * * * ",
"* * * * * * * * * * * * * * * * * * * * * * * * * * * * * * * * * * * * * * * * * * * * * * * * * * * * * * * * * * * * "
};
