/* XPM */
static char *result[] = {
/* columns rows colors chars-per-pixel */
"60 60 119 2 ",
"   c #0D010D",
".  c #0D0415",
"X  c #0E0B13",
"o  c #120516",
"O  c #110E12",
"+  c #1B0B15",
"@  c #120619",
"#  c #1B0619",
"$  c #14091D",
"%  c #1F091D",
"&  c #111111",
"*  c #1C1114",
"=  c #101718",
"-  c #1B111A",
";  c #101A1B",
":  c #280A17",
">  c #21061A",
",  c #29041E",
"<  c #230E18",
"1  c #2C0C1B",
"2  c #350111",
"3  c #350D16",
"4  c #32061A",
"5  c #320D1D",
"6  c #3B0D19",
"7  c #221212",
"8  c #2C1215",
"9  c #291913",
"0  c #27101E",
"q  c #2D1018",
"w  c #311314",
"e  c #3F1217",
"r  c #3B1C15",
"t  c #170B20",
"y  c #1A0D23",
"u  c #0D1B2F",
"i  c #1C1027",
"p  c #101F21",
"a  c #1E112A",
"s  c #11182E",
"d  c #2C0E26",
"f  c #370A20",
"g  c #3D0C23",
"h  c #22112A",
"j  c #2A1129",
"k  c #301229",
"l  c #0F2327",
"z  c #0E242A",
"x  c #102022",
"c  c #1F2029",
"v  c #0A253B",
"b  c #0E3337",
"n  c #4A041C",
"m  c #450E1E",
"M  c #431116",
"N  c #4C1617",
"B  c #4A1916",
"V  c #4B1319",
"C  c #55121D",
"Z  c #5B141C",
"A  c #591A1E",
"S  c #651817",
"D  c #621619",
"F  c #6B1E1B",
"G  c #532517",
"H  c #572C1A",
"J  c #6A2B1A",
"K  c #71211A",
"L  c #7A301B",
"P  c #440C24",
"I  c #4B0D23",
"U  c #520F21",
"Y  c #401223",
"T  c #521120",
"R  c #591521",
"E  c #641D21",
"W  c #6D2421",
"Q  c #7D4025",
"!  c #0A2E44",
"~  c #0D3B47",
"^  c #073B53",
"/  c #0A4455",
"(  c #084C5F",
")  c #074B66",
"_  c #094E64",
"`  c #095162",
"'  c #095D72",
"]  c #08677C",
"[  c #872C1E",
"{  c #86321C",
"}  c #8D341D",
"|  c #823D1F",
" . c #994422",
".. c #904F2A",
"X. c #A66135",
"o. c #046A81",
"O. c #067685",
"+. c #007597",
"@. c #067A96",
"#. c #007E9E",
"$. c #0D7E99",
"%. c #0593A7",
"&. c #0391B4",
"*. c #039BBB",
"=. c #11A7BD",
"-. c #01ACC5",
";. c #00A5CD",
":. c #00B1CF",
">. c #03BDCD",
",. c #01AAD4",
"<. c #01BBDF",
"1. c #00B6E3",
"2. c #00C3DA",
"3. c #02C9DD",
"4. c #00CDED",
"5. c #01D6E9",
"6. c #00C3F1",
"7. c #00E1FE",
"8. c #00F6FF",
/* pixels */
"& & & & & & & & & & & & & & & & & & & & & & & & & & & & & & & & & & & & & & & & & & & & & & & & & & & & & & & & & & & & ",
"& & & & & & & & & & & & & & & & & & & & & & & & & & & & & & & & & & & & & & & & & & & & & & & & & & & & & & & & & & & & ",
"& & & & & & & & & & & & & & & & & & & & & & & & & & & & & & & & & & & & & & & & & & & & & & & & & & & & & & & & & & & & ",
"& & & & & & & & & & & & & & & & & & & & & & & & & & & & & & & & & & & & & & & & & & & & & & & & & & & & & & & & & & & & ",
"& & & & & & & & & & & & & & & & & & & & & & & & & & & & & & & & & & & & & & & & & & & & & & & & & & & & & & & & & & & & ",
"& & & & & & & & & & & & & & & & & & & & & & & & & & & & & & & & & & & & & & & & & & & & & & & & & & & & & & & & & & & & ",
"& & & & & & & & & & & & & & & & & & & & & & & & & & & & & & & & & & & & & & & & & & & & & & & & & & & & & & & & & & & & ",
"& & & & & & & & & & & & & & & & & & & & & & & & & & & & & & & & & & & & & & & & & & & & & & & & & & & & & & & & & & & & ",
"& & & & & & & & & & & & & & & & & & & & & & & & & & & & & & & & & & & & & & & & & & & & & & & & & & & & & & & & & & & & ",
"& & & & & & & & & & & & & & & & & & & & & & & & & & & & & & & & & & & & & & & & & & & & & & & & & & & & & & & & & & & & ",
"& & & & & & & & & & & & & & & & & & & & & & & & & & & & & & & & & & & & & & & & & & & & & & & & & & & & & & & & & & & & ",
"& & & & & & & & & & & & & & & & & & & & & & & & & & & & & & & & & & & & & & & & & & & & & & & & & & & & & & & & & & & & ",
"& & & & & & & & & & & & & & & & & & & & & & & & & & & & & & & & & & & & & & & & & & & & & & & & & & & & & & & & & & & & ",
"& & & & & & & & & & & & & & & & & & & & & & & & & & & & & & & & & & & & & & & & & & & & & & & & & & & & & & & & & & & & ",
"& & & & & & & & & & & & & & & & & & & & & & & & & & & & & & & & & & & & & & & & & & & & & & & & & & & & & & & & & & & & ",
"& & & & & & & & & & & & & & & & & & & & & & & & & & & & & & & & & & & & & & & & & & & & & & & & & & & & & & & & & & & & ",
"& & & & & & & & & & & & & & & & & & & & & & & & & & & & & & & & & & & & & & & & & & & & & & & & & & & & & & & & & & & & ",
"& & & & & & & & & & & & & & & & & & & & & & & & & & & & & & & & & & & & & & & & & & & & & & & & & & & & & & & & & & & & ",
"& & & & & & & & & & & & & & & & & & & & & & & & & & & & & & & & O & & & & & & & & & & & & & & & & & & & & & & & & & & & ",
"& & & & & & & & & & & & & & & & & & & & & & & & & & & & & & & ' ; & & & & & & & & & & & & & & & & & & & & & & & & & & & ",
"& & & & & & & & & & & & & & & & & & & & & & & & & & & & & & & ~ @.; & & & & & & / l & & & & & & & & & & & & & & & & & & ",
"& & & & & & & & & & & & & & & & & & & & & & & & & & & & & & & & ,.p & b x & & z @.& & & & & & & & & & & & & & & & & & & ",
"& & & & & & & & & & & & & & & & & & & & & & & & & & & & & : O = 1.*.O.2.3.>.] ( ;.& & & & & & & & & & & & & & & & & & & ",
"& & & & & & & & & & & & & & & & & & & & & & & & & & & & : K 2 _ 6.&.:.o.7.4.-.+.&.& & & & & & & & & & & & & & & & & & & ",
"& & & & & & & & & & & & & & & & & & & & & & & & & & & * A F % u ! ^ #.%.) <.= l ; & & & & & & & & & & & & & & & & & & & ",
"& & & & & & & & & & & & & & & & & & & & & & & & & & & * D f y .     _ 5.` 3.& & & & & & & & & & & & & & & & & & & & & & ",
"& & & & & & & & & & & & & & & & & & & & & & & & & & & Y U d . t . . ! ^ 8.2.= & & & & & & & & & & & & & & & & & & & & & ",
"& & & & & & & & & & & & & & & & & & & & & & & & & & 7 I P @ y t . . u ) $.=.c & & & & & & & & & & & & & & & & & & & & & ",
"& & & & & & & & & & & & & & & & & & & & & & & & & & 5 P I t a % @ . . v s , n 1 & & & & & & & & & & & & & & & & & & & & ",
"& & & & & & & & & & & & & & & & & & & & & & & & & w Z Z I P y . > . o 4   t j P 5 & & & & & & & & & & & & & & & & & & & ",
"& & & & & & & & & & & & & & & & & & & & & & & & 8 D D D R I P # . 5 @ 1 # . i j g - 8 * & & & & & & & & & & & & & & & & ",
"& & & & & & & & & & & & & & & & & & & & & & & w D D D Z Z S Z T L [ 1 # # . @ h h h k - & & & & & 9 & & & & & & & & & & ",
"& & & & & & & & & & & & & & & & & & & & & & * D D D D S D C E E F 6 # P f . . . a t $ t = & & & N  .H & & & & & & & & & ",
"& & & & & & & & & & & & & & & & & & & & & 7 D D Z Z C R I I U R m o o 4 # . . . t . @ O O O & & F J Q & & & & & & & & & ",
"& & & & & & & & & & & & & & & & & & & & * C C T I U C Z D D D Z P @ . o . @ . . . o I 7 & & & O 1 B & & & & & & & & & & ",
"& & & & & & & & & & & & & & & & & & & 6 P U C Z D D S D D D D D g h . . . t . . . > C g & & & O O & & & & & & & & & & * ",
"& & & & & & & & & & & & & & & & 9 ..r * M S D D D D D D D D Z D g h h $ . t o . . $ h y 1 & & & X O & & & & & & & & & * ",
"& & & & & & & & & & & & & & & & | X.N * 7 D D D D D D S D D Z U P h h h y y . . . @ h i > X & O O & & & & & & & & & & & ",
"& & & & & & & & & & & & & & & & G M 3 O w S S D D D D Z D D D D g h h a h $ . . . . $ . $ @ X . O & & & & & & & & & & & ",
"& & & & & & & & & & & & & & & & O V + 1 I U Z Z Z S S C Z D D Z g $ h @ @ . . . . . @ . # g + & & & & & & & & & & & & & ",
"& & & & & & & & & & & & & & & & & & X & e C C U I T I U Z D D U g . y t . . @ . . . $ y # I g 8 8 & & & & & & & & & & & ",
"& & & & & & & & & & & & & & & & & & X X 7 S S S D Z Z I P I I W R + . a . . . . . . . h h Y R Z V & & & & & & & & & & & ",
"& & & & & & & & & & & & & & & & & & & X & Z S Z S D D D Z U I W } { e $ . . . . . . . t h a 0 & & & & & & & & & & & & & ",
"& & & & & & & & & & & & & & & & & & X X & N S S D D D D D D I R m 1 # . . . . . . . . y $ . $ & & & & & & & & & & & & & ",
"& & & & & & & & & & & & & & & & & & & & X e D D D D Z S D U P > . . . . . . . . . . . t . . O & & & & & & & & & & & & & ",
"& & & & & & & & & & & & & & & & & & & & X e D D D D Z U I 5 @ . . . . . . . . . . . . @ X O & & & & & & & & & & & & & & ",
"& & & & & & & & & & & & & & & & & & & & X V D D D D T P < X . . . . . . . . . . . . . X X & & & & & & & & & & & & & & & ",
"& & & & & & & & & & & & & & & & & & & & * C D D D T g & & & . . . . . . . . . : m 1 O & & & & & & & & & & & & & & & & & ",
"& & & & & & & & & & & & & & & & & & & & & N S Z P g & & & & . . . . X . . . . f 1 & & & & & & & & & & & & & & & & & & & ",
"& & & & & & & & & & & & & & & & & & & & 7 S C I g + & & & & O . X O O X . o 1 1 & & & & & & & & & & & & & & & & & & & & ",
"& & & & & & & & & & & & & & & & & & & & q C P : & & & & & & & & & & & & O 6 1 & & & & & & & & & & & & & & & & & & & & & ",
"& & & & & & & & & & & & & & & & & & & & 7 : & & & & & & & & & & & & & & O & & & & & & & & & & & & & & & & & & & & & & & ",
"& & & & & & & & & & & & & & & & & & & & & & & & & & & & & & & & & & & & = & & & & & & & & & & & & & & & & & & & & & & & ",
"& & & & & & & & & & & & & & & & & & & & & & & & & & & & & & & & & & & & & & & & & & & & & & & & & & & & & & & & & & & & ",
"& & & & & & & & & & & & & & & & & & & & & & & & & & & & & & & & & & & & & & & & & & & & & & & & & & & & & & & & & & & & ",
"& & & & & & & & & & & & & & & & & & & & & & & & & & & & & & & & & & & & & & & & & & & & & & & & & & & & & & & & & & & & ",
"& & & & & & & & & & & & & & & & & & & & & & & & & & & & & & & & & & & & & & & & & & & & & & & & & & & & & & & & & & & & ",
"& & & & & & & & & & & & & & & & & & & & & & & & & & & & & & & & & & & & & & & & & & & & & & & & & & & & & & & & & & & & ",
"& & & & & & & & & & & & & & & & & & & & & & & & & & & & & & & & & & & & & & & & & & & & & & & & & & & & & & & & & & & & ",
"& & & & & & & & & & & & & & & & & & & & & & & & & & & & & & & & & & & & & & & & & & & & & & & & & & & & & & & & & & & & "
};
