/* XPM */
static char *result[] = {
/* columns rows colors chars-per-pixel */
"60 60 118 2 ",
"   c #0E010A",
".  c #070414",
"X  c #0D0415",
"o  c #0F0A13",
"O  c #0F0618",
"+  c #0C091B",
"@  c #130516",
"#  c #190515",
"$  c #110E12",
"%  c #110719",
"&  c #1C061A",
"*  c #15091D",
"=  c #0F1B1F",
"-  c #111111",
";  c #1A1113",
":  c #17111A",
">  c #18111D",
",  c #10191B",
"<  c #220F16",
"1  c #21071B",
"2  c #2A0418",
"3  c #250E19",
"4  c #2B0B1B",
"5  c #320C1D",
"6  c #3C0D1E",
"7  c #241214",
"8  c #2D1515",
"9  c #231119",
"0  c #2C1019",
"q  c #351414",
"w  c #3C1416",
"e  c #301B14",
"r  c #351218",
"t  c #3C111A",
"y  c #3D2015",
"u  c #1B0D24",
"i  c #1F0F28",
"p  c #0A1528",
"a  c #0B1A2E",
"s  c #131020",
"d  c #1E1125",
"f  c #131D24",
"g  c #1F1129",
"h  c #360D23",
"j  c #3C0D21",
"k  c #221224",
"l  c #2F1524",
"z  c #22122B",
"x  c #082036",
"c  c #0C2C35",
"v  c #4B051C",
"b  c #430E1E",
"n  c #4B0A1D",
"m  c #500E1F",
"M  c #421716",
"N  c #4D1517",
"B  c #4D121C",
"V  c #501517",
"C  c #531A17",
"Z  c #54121C",
"A  c #5C141C",
"S  c #5C1F19",
"D  c #621115",
"F  c #621619",
"G  c #661818",
"H  c #681A19",
"J  c #432316",
"K  c #4C2315",
"L  c #56211A",
"P  c #6D231B",
"I  c #6C3118",
"U  c #773119",
"Y  c #450C24",
"T  c #4B0D23",
"R  c #500F20",
"E  c #511020",
"W  c #5C1420",
"Q  c #5F1B21",
"!  c #76422A",
"~  c #0A2C43",
"^  c #0A344C",
"/  c #1D3852",
"(  c #0D4147",
")  c #0E4B50",
"_  c #0C535C",
"`  c #064965",
"'  c #09596C",
"]  c #055673",
"[  c #005E7D",
"{  c #05637C",
"}  c #156C7A",
"|  c #822A1A",
" . c #82331B",
".. c #88381C",
"X. c #953D1D",
"o. c #93512A",
"O. c #A3572C",
"+. c #086B83",
"@. c #06728B",
"#. c #0C7693",
"$. c #04789B",
"%. c #1F7C9B",
"&. c #058497",
"*. c #0587A6",
"=. c #069AA7",
"-. c #008EB3",
";. c #009AB5",
":. c #0095BB",
">. c #0299BF",
",. c #03A5C3",
"<. c #02A1C9",
"1. c #01AFDA",
"2. c #00B3DC",
"3. c #01C9DA",
"4. c #00CDE5",
"5. c #00CBEC",
"6. c #01D4E9",
"7. c #00E0F5",
/* pixels */
"- - - - - - - - - - - - - - - - - - - - - - - - - - - - - - - - - - - - - - - - - - - - - - - - - - - - - - - - - - - - ",
"- - - - - - - - - - - - - - - - - - - - - - - - - - - - - - - - - - - - - - - - - - - - - - - - - - - - - - - - - - - - ",
"- - - - - - - - - - - - - - - - - - - - - - - - - - - - - - - - - - - - - - - - - - - - - - - - - - - - - - - - - - - - ",
"- - - - - - - - - - - - - - - - - - - - - - - - - - - - - - - - - - - - - - - - - - - - - - - - - - - - - - - - - - - - ",
"- - - - - - - - - - - - - - - - - - - - - - - - - - - - - - - - - - - - - - - - - - - - - - - - - - - - - - - - - - - - ",
"- - - - - - - - - - - - - - - - - - - - - - - - - - - - - - - - - - - - - - - - - - - - - - - - - - - - - - - - - - - - ",
"- - - - - - - - - - - - - - - - - - - - - - - - - - - - - - - - - - - - - - - - - - - - - - - - - - - - - - - - - - - - ",
"- - - - - - - - - - - - - - - - - - - - - - - - - - - - - - - - - - - - - - - - - - - - - - - - - - - - - - - - - - - - ",
"- - - - - - - - - - - - - - - - - - - - - - - - - - - - - - - - - - - - - - - - - - - - - - - - - - - - - - - - - - - - ",
"- - - - - - - - - - - - - - - - - - - - - - - - - - - - - - - - - - - - - - - - - - - - - - - - - - - - - - - - - - - - ",
"- - - - - - - - - - - - - - - - - - - - - - - - - - - - - - - - - - - - - - - - - - - - - - - - - - - - - - - - - - - - ",
"- - - - - - - - - - - - - - - - - - - - - - - - - - - - - - - - - - - - - - - - - - - - - - - - - - - - - - - - - - - - ",
"- - - - - - - - - - - - - - - - - - - - - - - - - - - - - - - - - - - - - - - - - - - - - - - - - - - - - - - - - - - - ",
"- - - - - - - - - - - - - - - - - - - - - - - - - - - - - - - - - - - - - - - - - - - - - - - - - - - - - - - - - - - - ",
"- - - - - - - - - - - - - - - - - - - - - - - - - - - - - - - - - - - - - - - - - - - - - - - - - - - - - - - - - - - - ",
"- - - - - - - - - - - - - - - - - - - - - - - - - - - - - - - - - - - - - - - - - - - - - - - - - - - - - - - - - - - - ",
"- - - - - - - - - - - - - - - - - - - - - - - - - - - - - - - - - - - - - - - - - - - - - - - - - - - - - - - - - - - - ",
"- - - - - - - - - - - - - - - - - - - - - - - - - - - - - - - - - - - - - - - - - - - - - - - - - - - - - - - - - - - - ",
"- - - - - - - - - - - - - - - - - - - - - - - - - - - - - - - - - - - - - - - - - - - - - - - - - - - - - - - - - - - - ",
"- - - - - - - - - - - - - - - - - - - - - - - - - - - - - - - - - - - - - - - - - - - - - - - - - - - - - - - - - - - - ",
"- - - - - - - - - - - - - y - - - - - - - - - - - - - - - - - - f , - - - - - - - - - - - - - - - - - - - r - - - - - - ",
"- - - - - - - - - - - - - X.; - - - - - - - - - - - - - - - - - c +., - - - - - - - = - - - - - - - - - 0 V - - - - - - ",
"- - - - - - - - - - - - M X.7 - - - - - - - - - - - - - - - - - - >.` - - - - - - c c - - w - - - 9 5 j E Z - - - - - - ",
"- - - - - - - - - - - 3 m P Y j 3 $ ; - - - - - - - - - - - - - - ,.=.( @.*.' _ - ' ( - - A t h j T T T R T 9 - - - - - ",
"- - - - - - - - $ ; 4 Y R Q R T Y Y Y j 3 ; ; I - - - - - - q S f 3.7.6.[ <.2.5.6.4.) < 4 E T T E A F Y Y Y Y ; - - - - ",
"- - - - - - - - $ Y Y E Y Y W F A A Y T Y Y E P ; - - - - 7 | S p &.@.;.] $.1.#.) } l Y Y Y E F F A A Y R W Y 3 - - - - ",
"- - - - - - - - j Y A G E T A F G A Z F A T Q R 5 - - - ; F B % X     ~ 1.^ 1./ 9 Y T F F Y R F F F T T F G T 6 - - - - ",
"- - - - - - ; 6 R F F F A Y F F F A F G G T T E T b ; ; B E & X * X X a ~ 2.-.%.v m F A A Y R F F A Y F F A T Y - - - - ",
"- - - - - - Y B F F F F Z T A F F F F A A Y E G F Y B Z A h + * * X X + ] { :.%.D F F A G B T G H B n F F A A Y 3 - - - ",
"- - - - - 5 Z F Z Z F F G T A F F F F A T T F F W E R Y j g % i @ @ X   x ` a * $ ; ; q N F T F Z Y A F F F G T r - - - ",
"- - - - 9 T F F G F F F G Y F F F F G A Y F N q ; ; ; 3 k i u u X 4 & X 2 n # X . : - - - ; 9 ; 7 q ; 7 q w N F n - - - ",
"- - - ; R F G A V V V F G Y t 7 7 q A Y q ; - - - - - - d i u X 4 # 4 5 5 Y 5 . . d : - - - - - ..O.e - - - - 7 n - - - ",
"- - - j V N 7 ; - - - 7 ; 5 ; - - - t 4 - - - - - - - : z z u X 4 2 Y Q X 4 @ X X u z > ; - - - H ! ; - - - - - ; - - - ",
"- - - 4 - - - - - - - - - ; ; - - - ; - - - - - - - - g z z u X 2 1 Y 1 6 Z @ X X % z z s - - - q  .- $ - - - - - - - - ",
"- - - ; - - - - - - - - - - - - - - - - - - - - - - : z z z * X X X & X j Y & . X % z z g ; - - . ; - - - - - - - - - - ",
"- - - - - - - - - - - - - - - - - - - - - - - - - - g z u z * X % X X @ 2 & X u X % * - : - - - o - - - - - - - - - - - ",
"- - - - - - - - - - - - - - - - - - - K o.J - - - - d % X % * X i X O X X . * u X o X - - - - - o - - - - - - - - - - - ",
"- - - - - - - - - - - - - - - - - - - U ! L - - - - g X X % u % z % * * X X u z % X   d - $ o o o o - - - - - - - - - - ",
"- - - - - - - - - - - - - - - - - - ; L C # o - - - $ X . z X d z % % u X X u z * X . u u % o $ - - - - - - - - - - - - ",
"- - - - - - - - - - - - - - - - - - ; 8 8 - o - - - X X u % X z z * X u X X u X O X X % g - - - - - - - - - - - - - - - ",
"- - - - - - - - - - - - - - - - - - - - - - o - - - $ X u X % z z * X * X * @ X X X * X X * - - - - - - - - - - - - - - ",
"- - - - - - - - - - - - - - - - - - - - - o o - - - $ X * X % g u X X X i X X X X O z X X i - - - - - - - - - - - - - - ",
"- - - - - - - - - - - - - - - - - - - - - - o o - - - X X X % @ X X X X O X X X X u z X X z g - - - - - - - - - - - - - ",
"- - - - - - - - - - - - - - - - - - - - - - - o - - o X X X X X X X X X X X X X % z z X X i z : - - - - - - - - - - - - ",
"- - - - - - - - - - - - - - - - - - - - - - - X $ o o X X X X X X X X X X X X X z z u X X * z z - - - - - - - - - - - - ",
"- - - - - - - - - - - - - - - - - - - - - - - $ o o o X X X X X X X X X X X X % i z u X X % % u - - - - - - - - - - - - ",
"- - - - - - - - - - - - - - - - - - - - - - - - - - - X X X X X X X X X X X X X X * u X X X X X - - - - - - - - - - - - ",
"- - - - - - - - - - - - - - - - - - - - - - - - - - - X X X X X X X X X X X @ X X X X X X X X X - - - - - - - - - - - - ",
"- - - - - - - - - - - - - - - - - - - - - - - - - - - . . X X X X X X X X X X X X X X o o o o - - - - - - - - - - - - - ",
"- - - - - - - - - - - - - - - - - - - - - - - - - - - - o o $ o X X X X o X X X X X X o - - - - - - - - - - - - - - - - ",
"- - - - - - - - - - - - - - - - - - - - - - - - - - - - - - - - X X X $ - - $ X X o $ - - - - - - - - - - - - - - - - - ",
"- - - - - - - - - - - - - - - - - - - - - - - - - - - - - - - - $ o - - - - - $ o - - - - - - - - - - - - - - - - - - - ",
"- - - - - - - - - - - - - - - - - - - - - - - - - - - - - - - - - - - - - - - - - - - - - - - - - - - - - - - - - - - - ",
"- - - - - - - - - - - - - - - - - - - - - - - - - - - - - - - - - - - - - - - - - - - - - - - - - - - - - - - - - - - - ",
"- - - - - - - - - - - - - - - - - - - - - - - - - - - - - - - - - - - - - - - - - - - - - - - - - - - - - - - - - - - - ",
"- - - - - - - - - - - - - - - - - - - - - - - - - - - - - - - - - - - - - - - - - - - - - - - - - - - - - - - - - - - - ",
"- - - - - - - - - - - - - - - - - - - - - - - - - - - - - - - - - - - - - - - - - - - - - - - - - - - - - - - - - - - - ",
"- - - - - - - - - - - - - - - - - - - - - - - - - - - - - - - - - - - - - - - - - - - - - - - - - - - - - - - - - - - - ",
"- - - - - - - - - - - - - - - - - - - - - - - - - - - - - - - - - - - - - - - - - - - - - - - - - - - - - - - - - - - - ",
"- - - - - - - - - - - - - - - - - - - - - - - - - - - - - - - - - - - - - - - - - - - - - - - - - - - - - - - - - - - - "
};
