/* XPM */
static char *_ec05cd6ba26442c9f0d246ea87be58cUahc66nktRGz6End[] = {
/* columns rows colors chars-per-pixel */
"48 48 139 2 ",
"   c None",
".  c #100E0E",
"X  c #161614",
"o  c #1F1B15",
"O  c #1C1C1A",
"+  c #221F17",
"@  c #241F1C",
"#  c #24221D",
"$  c #29251F",
"%  c #2B281F",
"&  c #201A20",
"*  c #262422",
"=  c #2D2721",
"-  c #2E2A25",
";  c #322C25",
":  c #3B2B24",
">  c #342E29",
",  c #343126",
"<  c #383026",
"1  c #35312A",
"2  c #3C352C",
"3  c #3C392D",
"4  c #3D3730",
"5  c #3E3A31",
"6  c #412F29",
"7  c #423127",
"8  c #4A3327",
"9  c #43352B",
"0  c #4B352B",
"q  c #44392D",
"w  c #4B3A2E",
"e  c #53352C",
"r  c #52382E",
"t  c #453C32",
"y  c #4A3D32",
"u  c #523D33",
"i  c #583F34",
"p  c #54412E",
"a  c #474135",
"s  c #4C4234",
"d  c #474038",
"f  c #4D443A",
"g  c #4C4839",
"h  c #544335",
"j  c #5B4336",
"k  c #564C37",
"l  c #5F4A37",
"z  c #53453A",
"x  c #5C453A",
"c  c #554A3D",
"v  c #5C4B3C",
"b  c #5C523E",
"n  c #664936",
"m  c #634C3C",
"M  c #62523E",
"N  c #6A523D",
"B  c #62583D",
"V  c #6A593E",
"C  c #514741",
"Z  c #504840",
"A  c #5C4E43",
"S  c #5D5243",
"D  c #5F554C",
"F  c #634E42",
"G  c #604E48",
"H  c #635444",
"J  c #6A5444",
"K  c #645945",
"L  c #6A5A45",
"P  c #64544B",
"I  c #685648",
"U  c #6A564B",
"Y  c #63594B",
"T  c #645B4B",
"R  c #67584D",
"E  c #675A4E",
"W  c #65594B",
"Q  c #6C5B4B",
"!  c #685C49",
"~  c #695D49",
"^  c #685F4C",
"/  c #6F5D4D",
"(  c #6A5C4B",
")  c #725345",
"_  c #705845",
"`  c #755D44",
"'  c #785B43",
"]  c #735848",
"[  c #735949",
"{  c #705B49",
"}  c #715C49",
"|  c #725D49",
" . c #715F48",
".. c #765F4B",
"X. c #715C4C",
"o. c #735C4A",
"O. c #785E49",
"+. c #6C5D52",
"@. c #775D53",
"#. c #735D50",
"$. c #6E6244",
"%. c #6D604D",
"&. c #6F604D",
"*. c #756347",
"=. c #71614D",
"-. c #70644F",
";. c #74624E",
":. c #79624E",
">. c #6E6057",
",. c #6D6450",
"<. c #766252",
"1. c #726755",
"2. c #716051",
"3. c #7C6651",
"4. c #786655",
"5. c #756957",
"6. c #766958",
"7. c #756A58",
"8. c #746A5F",
"9. c #7D685D",
"0. c #7E6E5C",
"q. c #7A6A5D",
"w. c #7E7157",
"e. c #7E6A61",
"r. c #7E7165",
"t. c #80694F",
"y. c #806452",
"u. c #836554",
"i. c #846653",
"p. c #806854",
"a. c #806959",
"s. c #866C5C",
"d. c #806D5C",
"f. c #896B5B",
"g. c #837255",
"h. c #867462",
"j. c #8A7665",
"k. c #8F7E6A",
"l. c #9B8573",
/* pixels */
"                                                                                                ",
"                                                                                                ",
"                                                X.                                              ",
"                                    y z k Q R <._ L L R L S H c                                 ",
"                              c c y q s t ; = - @ $ ; 9 s P A ^ S c                             ",
"                          y q V t ;                           : s s y 9                         ",
"                        S c t y u                                   q t y 9                     ",
"                    c +.S >   A 9 0                                   ; t z q                   ",
"                  k -.H       H u f h                                     f k f                 ",
"                D R y         F 2 q k m                                     9 3 A               ",
"              H 7.h           m 7   g H N                               u 3 0 w R S             ",
"              1.I             m q     q F ]                         J z j t ; @ t S Y           ",
"            T ~                 g       5 @.}                   ..c v ;   F h     s w.          ",
"          c H %                 L P       t M j             4.h J q     *.s -       K S         ",
"          H t                   u.m         3 j 0       m k H 1         ] P         = &.z       ",
"        I =.                    O.n           > x : i ; u >           t.H             z c       ",
"        7.c                     9.y             h c u 2               } L             t A       ",
"      K 5.X                     G t         y.s h 1 J h             s.P                 r.S     ",
"      >.3.                        9     a.S e.4     > J v           / ]                 H ~     ",
"      0.v                         y j y m 2           ; J y       } w                     S     ",
"      M u                       h i 0 >                 - F 9     s 6                     J t   ",
"      f                   z m 3 h u :                       u 3 M q                       g.b   ",
"      y                 J s u ,   h 8                         j 9 q                       ,.^   ",
"      Z             l.I m ,       h w                         m e y                       l.&.  ",
"      C       P l s ] *             z                         9 2 ) t                     h./   ",
"      h   h A t z 1                 P                       u.u     J S                   v b   ",
"      t c C v 2                     A 7                     M f       ..K                 A z   ",
"      9 y z u f t y v i.] H         x 7                   s.I           p.~ J             ;.f   ",
"      s y     t t y H ..f.R I y q 7 r 7                   y ;             X.D h           H     ",
"      f z                 O 4 c s q 9 8 t t S :.L j w   u y                 #.a h       f h     ",
"      2 y                           q 9 ; ; s K H i 7 : 2 t z J ' y.          N q w     z 3     ",
"        A K                           z               u y h v F H L @.b h v x l x q p   q       ",
"        t v                           #.P           x :           O 2 c I X.v h u g 0 h t       ",
"          I M                         } v           R z                         d 3 c ` #       ",
"          3 S                         J 7         :.z                               y f         ",
"            d.U                       j.z         H k                             A y o         ",
"            & } B                     H z       i.h                             I v +           ",
"              ; ~ g                     g       S w                           / v q             ",
"                < v b                   v s   N v                           Y ~ s               ",
"                  q M =.                m y   y t                         H $.t                 ",
"                    = k.2.H             F 0 x 9                         J R 1                   ",
"                      . L / y           x : 1 >                     q.T P O                     ",
"                          = ..S c s     s 9 y                 v L S ^ 3                         ",
"                              2 v c d c 9 9 f         z c E I 8.S ;                             ",
"                                  # < 9 t s g b S c s c h E 4 O                                 ",
"                                            = ; ; $ @                                           ",
"                                                                                                ",
"                                                                                                "
};
