/* XPM */
static char *_b238a6b3c1c4e31a50777cf097a62ba[] = {
/* columns rows colors chars-per-pixel */
"48 48 99 2 ",
"   c None",
".  c #211A17",
"X  c #201B17",
"o  c #221C17",
"O  c #211B18",
"+  c #27201D",
"@  c #27211E",
"#  c #28211E",
"$  c #28221E",
"%  c #29221F",
"&  c #302925",
"*  c #332C28",
"=  c #342C29",
"-  c #38302C",
";  c #39312D",
":  c #403734",
">  c #403834",
",  c #413935",
"<  c #433A36",
"1  c #433A37",
"2  c #453C38",
"3  c #473D38",
"4  c #473E3A",
"5  c #4A3F3A",
"6  c #4C423E",
"7  c #4D433F",
"8  c #4C443F",
"9  c #4F443E",
"0  c #4F4541",
"q  c #514743",
"w  c #534945",
"e  c #544944",
"r  c #544A46",
"t  c #554B47",
"y  c #594D47",
"u  c #574D49",
"i  c #584E4A",
"p  c #594F4A",
"a  c #594F4B",
"s  c #5C514D",
"d  c #5E534F",
"f  c #5F5450",
"g  c #615652",
"h  c #635854",
"j  c #665A56",
"k  c #665B57",
"l  c #685C58",
"z  c #6C5F5A",
"x  c #6C605C",
"c  c #6E625D",
"v  c #71615A",
"b  c #74655E",
"n  c #726561",
"m  c #726661",
"M  c #736661",
"N  c #736762",
"B  c #766964",
"V  c #776964",
"C  c #7A6A62",
"Z  c #786B66",
"A  c #796C67",
"S  c #7D6C64",
"D  c #7D6F6B",
"F  c #7F716C",
"G  c #7F726C",
"H  c #7F726D",
"J  c #807069",
"K  c #80726D",
"L  c #81746F",
"P  c #89776F",
"I  c #827470",
"U  c #847671",
"Y  c #857772",
"T  c #857773",
"R  c #867772",
"E  c #867872",
"W  c #877873",
"Q  c #867974",
"!  c #8C7A71",
"~  c #8D7D76",
"^  c #927F76",
"/  c #907F78",
"(  c #918079",
")  c #92817A",
"_  c #97857D",
"`  c #99877E",
"'  c #9B877E",
"]  c #9A877F",
"[  c #9C8981",
"{  c #9D8A81",
"}  c #9E8A81",
"|  c #9F8B82",
" . c #A18D83",
".. c #A38E83",
"X. c #A38E84",
"o. c #A38F84",
"O. c #A38E85",
"+. c #A38F85",
"@. c #A48F84",
/* pixels */
"                                                                                                ",
"                                                                                                ",
"                                                                                                ",
"                                                                                                ",
"                                                                                                ",
"                                                                                                ",
"                                                                                                ",
"                                                                                                ",
"                                                                                                ",
"                                                                                                ",
"                                                                                                ",
"                                      @.X.X.X.X.X.X.X.X.@.                                      ",
"                                    ' } } } } } ..X.X.X.X.X.                                    ",
"                                  Q ~ ) ) ) ) _ } X.X.X.X...X.                                  ",
"                                W R R W W W W / ' X.X.X.X.X.X.X.                                ",
"                                R R R R H N l z b S ! ' ' ! S C                                 ",
"                                R R R R Z d 2 > 2 9 v ^ ^ v 9 5                                 ",
"                                R R R R N 7 @ O O % y P P y % o                                 ",
"                                R R R R N 7 @ O O % e J J e % o                                 ",
"                                R R R R N 7 @ O O % 0 V V 0 % o                                 ",
"                                R R R R N 7 @ O O @ 7 N N 7 @ o                                 ",
"                                R R R R N 7 @ O O @ 7 N N 7 @ o                                 ",
"                                R R R R N 7 @ O O @ 7 N N 7 @ o                                 ",
"                                j l N H Z d 2 > > > q f f q > :                                 ",
"                                : 2 d Z H N l j j h e 2 2 e h j                                 ",
"                                X @ 7 x K I R R R H d ; ; i A H                                 ",
"                                  @ > w g N I R R L x u 0 e i i                                 ",
"                                    & * > g K R R R D V j 0 ; =                                 ",
"                                      O = i H R R R R R N 9 @ X                                 ",
"                                                                                                ",
"                                                                                                ",
"                                                                                                ",
"                                                                                                ",
"                                                                                                ",
"                                                                                                ",
"                                                                                                ",
"                                                                                                ",
"                                                                                                ",
"                                                                                                ",
"                                                                                                ",
"                                                                                                ",
"                                                                                                ",
"                                                                                                ",
"                                                                                                ",
"                                                                                                ",
"                                                                                                ",
"                                                                                                ",
"                                                                                                "
};
