/* XPM */
static char *result[] = {
/* columns rows colors chars-per-pixel */
"60 60 113 2 ",
"   c #0E010A",
".  c #070414",
"X  c #0D0415",
"o  c #0F0A13",
"O  c #0F0618",
"+  c #130516",
"@  c #190515",
"#  c #110E12",
"$  c #110719",
"%  c #1C061A",
"&  c #15091D",
"*  c #0F1B1F",
"=  c #111111",
"-  c #1A1113",
";  c #17111A",
":  c #18111D",
">  c #220F16",
",  c #21071B",
"<  c #2A0418",
"1  c #250E19",
"2  c #2B0B1B",
"3  c #320C1D",
"4  c #3C0D1E",
"5  c #241214",
"6  c #2D1515",
"7  c #231119",
"8  c #2C1019",
"9  c #351414",
"0  c #3C1416",
"q  c #301B14",
"w  c #351218",
"e  c #3C111A",
"r  c #3D2015",
"t  c #1B0D24",
"y  c #1F0F28",
"u  c #0A1528",
"i  c #0B1A2E",
"p  c #131020",
"a  c #1E1125",
"s  c #131D24",
"d  c #1F1129",
"f  c #360D23",
"g  c #3C0D21",
"h  c #221224",
"j  c #2F1524",
"k  c #22122B",
"l  c #082036",
"z  c #0C2C35",
"x  c #07273E",
"c  c #4B051C",
"v  c #430E1E",
"b  c #4B0A1D",
"n  c #421716",
"m  c #4D1517",
"M  c #4D121C",
"N  c #501517",
"B  c #531A17",
"V  c #54121C",
"C  c #5C141C",
"Z  c #5C1F19",
"A  c #621115",
"S  c #621619",
"D  c #661818",
"F  c #681A19",
"G  c #432316",
"H  c #4C2315",
"J  c #56211A",
"K  c #6D231B",
"L  c #6C3118",
"P  c #773119",
"I  c #450C24",
"U  c #4B0D23",
"Y  c #500F20",
"T  c #4D1020",
"R  c #511020",
"E  c #5C1420",
"W  c #76422A",
"Q  c #0A2C43",
"!  c #0A344C",
"~  c #1D3852",
"^  c #0D4147",
"/  c #0E4B50",
"(  c #0C535C",
")  c #064965",
"_  c #03566E",
"`  c #09596C",
"'  c #055673",
"]  c #05637C",
"[  c #156C7A",
"{  c #822A1A",
"}  c #88381C",
"|  c #953D1D",
" . c #93512A",
".. c #A3572C",
"X. c #086B83",
"o. c #06728B",
"O. c #0C7693",
"+. c #04789B",
"@. c #1F7C9B",
"#. c #058497",
"$. c #0587A6",
"%. c #069AA7",
"&. c #008EB3",
"*. c #009AB5",
"=. c #0095BB",
"-. c #03A5C3",
";. c #02A1C9",
":. c #00B3DC",
">. c #01C9DA",
",. c #00CDE5",
"<. c #00CBEC",
"1. c #01D4E9",
"2. c #00E0F5",
/* pixels */
"= = = = = = = = = = = = = = = = = = = = = = = = = = = = = = = = = = = = = = = = = = = = = = = = = = = = = = = = = = = = ",
"= = = = = = = = = = = = = = = = = = = = = = = = = = = = = = = = = = = = = = = = = = = = = = = = = = = = = = = = = = = = ",
"= = = = = = = = = = = = = = = = = = = = = = = = = = = = = = = = = = = = = = = = = = = = = = = = = = = = = = = = = = = = ",
"= = = = = = = = = = = = = = = = = = = = = = = = = = = = = = = = = = = = = = = = = = = = = = = = = = = = = = = = = = = = ",
"= = = = = = = = = = = = = = = = = = = = = = = = = = = = = = = = = = = = = = = = = = = = = = = = = = = = = = = = = = = = ",
"= = = = = = = = = = = = = = = = = = = = = = = = = = = = = = = = = = = = = = = = = = = = = = = = = = = = = = = = = = = = ",
"= = = = = = = = = = = = = = = = = = = = = = = = = = = = = = = = = = = = = = = = = = = = = = = = = = = = = = = = = = = = ",
"= = = = = = = = = = = = = = = = = = = = = = = = = = = = = = = = = = = = = = = = = = = = = = = = = = = = = = = = = = = = ",
"= = = = = = = = = = = = = = = = = = = = = = = = = = = = = = = = = = = = = = = = = = = = = = = = = = = = = = = = = = = = ",
"= = = = = = = = = = = = = = = = = = = = = = = = = = = = = = = = = = = = = = = = = = = = = = = = = = = = = = = = = = = = ",
"= = = = = = = = = = = = = = = = = = = = = = = = = = = = = = = = = = = = = = = = = = = = = = = = = = = = = = = = = = = = ",
"= = = = = = = = = = = = = = = = = = = = = = = = = = = = = = = = = = = = = = = = = = = = = = = = = = = = = = = = = = = = ",
"= = = = = = = = = = = = = = = = = = = = = = = = = = = = = = = = = = = = = = = = = = = = = = = = = = = = = = = = = = = = ",
"= = = = = = = = = = = = = = = = = = = = = = = = = = = = = = = = = = = = = = = = = = = = = = = = = = = = = = = = = = = = ",
"= = = = = = = = = = = = = = = = = = = = = = = = = = = = = = = = = = = = = = = = = = = = = = = = = = = = = = = = = = = = ",
"= = = = = = = = = = = = = = = = = = = = = = = = = = = = = = = = = = = = = = = = = = = = = = = = = = = = = = = = = = = = ",
"= = = = = = = = = = = = = = = = = = = = = = = = = = = = = = = = = = = = = = = = = = = = = = = = = = = = = = = = = = = = ",
"= = = = = = = = = = = = = = = = = = = = = = = = = = = = = = = = = = = = = = = = = = = = = = = = = = = = = = = = = = = = ",
"= = = = = = = = = = = = = = = = = = = = = = = = = = = = = = = = = = = = = = = = = = = = = = = = = = = = = = = = = = = = ",
"= = = = = = = = = = = = = = = = = = = = = = = = = = = = = = = = = = = = = = = = = = = = = = = = = = = = = = = = = = = = ",
"= = = = = = = w = = = = = = = = = = = = = = = = = = = * * = = = = = = = = = = = = = = = = = = r = = = = = = = = = = = = ",
"= = = = = = = N 8 = = = = = = - = = * = = = = = = = = X.z = = = = = = = = = = = = = = = = = - | = = = = = = = = = = = = ",
"= = = = = = - M V 4 3 7 = = - e = = z z = = = = = = ( -.= = = = = = = = = = = = = = = = = = 5 | n = = = = = = = = = = = ",
"= = = = = = 7 U U U U U g f e C = = ! _ = ( ` $.o.^ %.-.= = = = = = = = = - = = = = = ; 2 4 v K M 1 = = = = = = = = = = ",
"= = = = = = I U I U S C R U U R 2 > / ,.1.<.:.;.] 1.2.>.s Z 9 = = = = = = L - - > g I I I T R S b U 2 - = = = = = = = = ",
"= = = = = 1 I C Y I C C S D Y I I I j [ ( O.:.+.' *.o.#.u S { 7 = = = = - K R U I U I V S S C I I R I g ; = = = = = = = ",
"= = = = = 4 U S S U U S S S Y I C S b I 1 ~ :.! :.x     X + m S - = = = 3 R E R C S E C S S C U R D C U g = = = = = = = ",
"= = = = = I U S S S I C S S Y I C C S Y c @.&.:.Q i X X $ . & E M - - I I V T U S S S E S S C I C S S S R g - = = = = = ",
"= = = = 7 I C C S D U b S S R b C C S D A @.=.] ' O X X & $ O f C C M I C D R I C C S S S C C U V S S S S U I = = = = = ",
"= = = = 3 T D S S S C I C S T S m 9 - = # p i ) l X X + + y O d g U U V C S S T U C S S S S S I S S S C V S V 3 = = = = ",
"= = = = U C m 0 9 5 - q 5 - 7 - = = = ; .   @ b < . % 2 X t t d h 7 - - - 9 m C I C S S S S S I F S S S S S D U 1 = = = ",
"= = = = M 7 = = = # q ..} = = = = = ; y X X < I 3 3 3 + < O t d d = = = = = = - w U C 9 5 5 v I S S N N N S S D R - = = ",
"= = = = - = = = = = # W F = = = = a k t X X $ < $ E v , 2 X t y k ; = = = = = = = 8 g = = = - f = - = = = - 5 m N 4 = = ",
"= = = = = = = = = = - P 0 = = = : k k $ X X @ M e 2 I , 2 X t y k y = = = = = = = = - = = = - - = = = = = = = = = 3 = = ",
"= = = = = = = = = = = -   = = = a h k $ X X % U g + % X X X & k k k p = = = = = = = = = = = = = = = = = = = = = = = = = ",
"- = = = = = = = = = = = o = = = ; = & $ X & X % < + . X $ X & d y k k = = = = = = = = = = = = = = = = = = = = = = = = = ",
"= = = = = = = = = = = = o = = = = = X + X t % . X X $ O y X & $ . & a = = = = G  .H = = = = = = = = = = = = = = = = = = ",
"= = = = = = = = = = = = o o o o # a . X $ k t X X & & $ k $ t $ X   a = = = = J W P = = = = = = = = = = = = = = = = = = ",
"= = = = = = = = = = = = = o o $ t t X X & y y . X t O $ k k X y X X O = = = o @ B J - = = = = = = = = = = = = = = = = = ",
"= = = = = = = = = = = = = = = ; y $ X X O X t X X t X O k k X & t X X = = = o = 6 q = = = = = = = = = = = = = = = = = = ",
"= = = = = = = = = = = = = = = ; X X & X X X + $ O & X $ k k $ X y X o = = = o = = = = = = = = = = = = = = = = = = = = = ",
"= = = = = = = = = = = = = = = a X X k X X X X X y X X X t y $ X $ X = = = = o o = = = = = = = = = = = = = = = = = = = = ",
"= = = = = = = = = = = = = = a k . X k t X X X X O X X X . + & X X X = = = o o = = = = = = = = = = = = = = = = = = = = = ",
"= = = = = = = = = = = = = ; k a X + k k $ X X X X X X X X X X X X X o = = o = = = = = = = = = = = = = = = = = = = = = = ",
"= = = = = = = = = = = = = y k t X X t k y X X X X X X X X X X X X X o o = X = = = = = = = = = = = = = = = = = = = = = = ",
"= = = = = = = = = = = = = t & $ X X t k y $ + X X X X X X X X X X X X o o # = = = = = = = = = = = = = = = = = = = = = = ",
"= = = = = = = = = = = = = X X X X X t t X X X X X X X X X X X X X X = = = = = = = = = = = = = = = = = = = = = = = = = = ",
"= = = = = = = = = = = = = X X X X X . X X X X X X X X X X X X X X X = = = = = = = = = = = = = = = = = = = = = = = = = = ",
"= = = = = = = = = = = = = o o o o X X X X X X X X X X X X X X X X # = = = = = = = = = = = = = = = = = = = = = = = = = = ",
"= = = = = = = = = = = = = = = = = = X X X X X o o o X X X o # o # = = = = = = = = = = = = = = = = = = = = = = = = = = = ",
"= = = = = = = = = = = = = = = = = = = o X X o = = o X X X = = = # = = = = = = = = = = = = = = = = = = = = = = = = = = = ",
"= = = = = = = = = = = = = = = = = = = = o o = = = = = o = = = = = = = = = = = = = = = = = = = = = = = = = = = = = = = = ",
"= = = = = = = = = = = = = = = = = = = = = = = = = = = = = = = = = = = = = = = = = = = = = = = = = = = = = = = = = = = = ",
"= = = = = = = = = = = = = = = = = = = = = = = = = = = = = = = = = = = = = = = = = = = = = = = = = = = = = = = = = = = = ",
"= = = = = = = = = = = = = = = = = = = = = = = = = = = = = = = = = = = = = = = = = = = = = = = = = = = = = = = = = = = = ",
"= = = = = = = = = = = = = = = = = = = = = = = = = = = = = = = = = = = = = = = = = = = = = = = = = = = = = = = = = = = = ",
"= = = = = = = = = = = = = = = = = = = = = = = = = = = = = = = = = = = = = = = = = = = = = = = = = = = = = = = = = = = = ",
"= = = = = = = = = = = = = = = = = = = = = = = = = = = = = = = = = = = = = = = = = = = = = = = = = = = = = = = = = = = = ",
"= = = = = = = = = = = = = = = = = = = = = = = = = = = = = = = = = = = = = = = = = = = = = = = = = = = = = = = = = = = = ",
"= = = = = = = = = = = = = = = = = = = = = = = = = = = = = = = = = = = = = = = = = = = = = = = = = = = = = = = = = = = = "
};
