/* XPM */
static char *result[] = {
/* columns rows colors chars-per-pixel */
"60 60 123 2 ",
"   c #0E010B",
".  c #0D0415",
"X  c #0F0A13",
"o  c #0E0618",
"O  c #0F081C",
"+  c #120516",
"@  c #1A0617",
"#  c #100E12",
"$  c #180B14",
"%  c #110619",
"&  c #1D0719",
"*  c #14091D",
"=  c #1A0E19",
"-  c #111111",
";  c #1C1113",
":  c #151119",
">  c #1A121D",
",  c #101C1D",
"<  c #220716",
"1  c #230D17",
"2  c #2B0B15",
"3  c #22061B",
"4  c #250A1A",
"5  c #2A0C1A",
"6  c #310815",
"7  c #340D1D",
"8  c #3A0D1E",
"9  c #221214",
"0  c #2B1215",
"q  c #341314",
"w  c #3D1416",
"e  c #341814",
"r  c #3A1916",
"t  c #351618",
"y  c #3C111B",
"u  c #170B20",
"i  c #1B0D24",
"p  c #1E0F28",
"a  c #0B1225",
"s  c #1D1124",
"d  c #111F27",
"f  c #1F1028",
"g  c #0A1E33",
"h  c #1F1F38",
"j  c #220E27",
"k  c #330A20",
"l  c #3B0D20",
"z  c #22122B",
"x  c #2B1A2A",
"c  c #0F2426",
"v  c #0F2B2E",
"b  c #0A2F3D",
"n  c #4E0014",
"m  c #490A16",
"M  c #4B061D",
"N  c #470E1E",
"B  c #510E1E",
"V  c #4F1517",
"C  c #4C111C",
"Z  c #511517",
"A  c #5D1617",
"S  c #54121D",
"D  c #5C141B",
"F  c #5A1B19",
"G  c #620A0B",
"H  c #621717",
"J  c #621619",
"K  c #651818",
"L  c #422115",
"P  c #5F2719",
"I  c #542D1A",
"U  c #6B2518",
"Y  c #612A18",
"T  c #70211C",
"R  c #7A2C1A",
"E  c #6D3218",
"W  c #6E381E",
"Q  c #460C24",
"!  c #4B0E22",
"~  c #510F20",
"^  c #4E1021",
"/  c #521020",
"(  c #5A1620",
")  c #611C21",
"_  c #6B1F20",
"`  c #6E3723",
"'  c #713B20",
"]  c #182842",
"[  c #08465D",
"{  c #10475C",
"}  c #06506C",
"|  c #065473",
" . c #085F75",
".. c #055D7B",
"X. c #0E6079",
"o. c #0A7276",
"O. c #09747F",
"+. c #862F1B",
"@. c #8C3B1E",
"#. c #963D1D",
"$. c #983F1D",
"%. c #83492B",
"&. c #B35E30",
"*. c #006788",
"=. c #006A89",
"-. c #05798C",
";. c #097D8B",
":. c #017C9E",
">. c #05839F",
",. c #078C9B",
"<. c #018DB2",
"1. c #059CB1",
"2. c #0093B9",
"3. c #03A5BD",
"4. c #0A9EC6",
"5. c #00A5C0",
"6. c #02A4CA",
"7. c #03B4C9",
"8. c #02B1D4",
"9. c #05BDD0",
"0. c #01D4E8",
"q. c #00C9F0",
"w. c #00ECFF",
/* pixels */
"- - - - - - - - - - - - - - - - - - - - - - - - - - - - - - - - - - - - - - - - - - - - - - - - - - - - - - - - - - - - ",
"- - - - - - - - - - - - - - - - - - - - - - - - - - - - - - - - - - - - - - - - - - - - - - - - - - - - - - - - - - - - ",
"- - - - - - - - - - - - - - - - - - - - - - - - - - - - - - - - - - - - - - - - - - - - - - - - - - - - - - - - - - - - ",
"- - - - - - - - - - - - - - - - - - - - - - - - - - - - - - - - - - - - - - - - - - - - - - - - - - - - - - - - - - - - ",
"- - - - - - - - - - - - - - - - - - - - - - - - - - - - - - - - - - - - - - - - - - - - - - - - - - - - - - - - - - - - ",
"- - - - - - - - - - - - - - - - - - - - - - - - - - - - - - - - - - - - - - - - - - - - - - - - - - - - - - - - - - - - ",
"- - - - - - - - - - - - - - - - - - - - - - - - - - - - - - - - - - - - - - - - - - - - - - - - - - - - - - - - - - - - ",
"- - - - - - - - - - - - - - - - - - - - - - - - - - - - - - - - - - - - - - - - - - - - - - - - - - - - - - - - - - - - ",
"- - - - - - - - - - - - - - - - - - - - - - - - - - - - - - - - - - - - - - - - - - - - - - - - - - - - - - - - - - - - ",
"- - - - - - - - - - - - - - - - - - - - - - - - - - - - - - - - - - - - - - - - - - - - - - - - - - - - - - - - - - - - ",
"- - - - - - - - - - - - - - - - - - - - - - - - - - - - - - - - - - - - - - - - - - - - - - - - - - - - - - - - - - - - ",
"- - - - - - - - - - - - - - - - - - - - - - - - - - - - - - - - - - - - - - - - - - - - - - - - - - - - - - - - - - - - ",
"- - - - - - - - - - - - - - - - - - - - - - - - - - - - - - - - - - - - - - - - - - - - - - - - - - - - - - - - - - - - ",
"- - - - - - - - - - - - - - - - - - - - - - - - - - - - - - - - - - - - - - - - - - - - - - - - - - - - - - - - - - - - ",
"- - - - - - - - - - - - - - - - - - - - - - - - - - - - - - - - - - - - - - - - - - - - - - - - - - - - - - - - - - - - ",
"- - - - - - - - - - - - - - - - - - - - - - - - - - - - - - - - - - - - - - - - - - - - - - - - - - - - - - - - - - - - ",
"- - - - - - - - - - - - - - - - - - - - - - - - - - - - - - - - - - - - - - - - - - - - - - - - - - - - - - - - - - - - ",
"- - - - - - - - - - - - - - - - - - - - - - - - - - - - - - - - - - - - - - - - - - - - - - - - - - - - - - - - - - - - ",
"- - - - - - - - - - - - - - - - - - - - - - - - - - - - - - - - - - - - - - - - - - - - - - - - - - - - - - - - - - - - ",
"- - - - - - - - - - - - - - - - - - - - - - - - - - - - - - - - - - - - - - - - - - - - - - - - - - - - - - - - - - - - ",
"- - - - - - - 0 - - - - - - - - - - - - - - - - - - - , - - - - - - - - - - - - - - - - - - - L - - - - - - - - - - - - ",
"- - - - - - - C 9 - - - - - - - - - c - - - - - - - , ,., - - - - - - - - - - - - - - - - - ; $.- - - - - - - - - - - - ",
"- - - - - - - C ^ l 7 9 - - ; 6 - - O.[ - - - - - - ,.,.- - - - - - - - - - - - - - - - - - r #.q - - - - - - - - - - - ",
"- - - - - - ; ^ ! ! ! ! l y y C - - o.-.- b O.1. .[ 1.-.- - - - - - - - - - - - - - ; ; 5 l ! T N ; - - - - - - - - - - ",
"- - - - - - l ! Q ! K D ! ! ! ! 5 > ;.=.<.5.w.7.O.4.q.:.= K 0 - - - - - 9 E - ; 1 l Q Q Q ~ ! ) ! Q 5 : - - - - - - - - ",
"- - - - - - Q S ! Q J ( J K ! Q Q Q x { d 9.0.>...:.*...O _ +.0 - - - - 9 R ! Q Q ! ! / J K ~ Q ! ^ Q k - - - - - - - - ",
"- - - - - 5 ! J J Q ~ D J K ! ! A D M 7 2 X.3.| 4.v     . % F J 1 - - - y B ( / D J ~ J J J D Q D J D ! k - - - - - - - ",
"- - - - - Q Q D K D Q A J J ! ! D D J ~ n 4.2.8.g O . . * o & ^ S ; ; Q ^ / ! / K J J D J J D Q D J J D / y - - - - - - ",
"- - - - ; Q ( D J K Q S J K Q D D D J H G 4.6.[ } o . . p p o & D / / Q J J ! Q D D J J J J D Q D J J K D ^ l - - - - - ",
"- - - - 5 ! J J H H S ! D J Q A Z 0 - ; 1 h ] | a . . @ o z p . 7 Q ~ S ( J J ! ! K J J J J D Q J J K / D J ^ 5 - - - - ",
"- - - - l D Z w q 9 ; t ; ; 1 - - - : f u j 3 m & . 3 5 . i z u = 9 ; ; ; w Z D ! D J J J J D Q K J J D K K K ! ; - - - ",
"- - - - l 0 - - - - W @.- - - - - - s o i j 8 N k 7 5 < < o z z u - - - - - - ; y ! A 0 ; 0 N Q K J V Z Z D K D ! ; - - ",
"- - - - ; - - - - e %.F q - - - - : + i z z + 5 @ A 8 5 7 . i z i i - - - - - - - t 7 - - - 5 7 - ; - - - ; 0 V Z 8 - - ",
"- - - - - - - - - ; U P - - - - s i * f j z < C 8 3 Q 3 4 . u z u z - - - - - - - # ; - - - ; - - - - - - - - - - 2 ; - ",
"- - - - - - - - - - - # # - - - * . % . . u 5 ! k + @ . . . * z f i s - - - - - - - - - - - - - - - - - - - - - - - - - ",
"- - - - - - - - - - - X # - - - - - . . . o . 3 3 + O . . . * z z i s - - - - - - - - - - - - - - - - - - - - - - - - - ",
"- - - - - - - - - - - X # - - - - - X . p u . . . . f i . . * z z u s - - - - ; ' I - - - - - - - - - - - - - - - - - - ",
"- - - - - - - - - - - # + # - - - X % i z u . . . * z i . . * z z u s - - - - t ` &.; - - - - - - - - - - - - - - - - - ",
"- - - - - - - - - - - - - X X X X + u . u u . . . i z p . . i z z u s - - - - $ 2 F ; - - - - - - - - - - - - - - - - - ",
"- - - - - - - - - - - - - - - X . * . . . * . . + j z p . o i * i u s - - - - o ; Y - - - - - - - - - - - - - - - - - - ",
"- - - - - - - - - - - - - - - X . i . . . . . . % * j i . . . . * * > - - - - X - - - - - - - - - - - - - - - - - - - - ",
"- - - - - - - - - - - - - - - . i z u . . . . . . . o p . . . . * . # - - - - X - - - - - - - - - - - - - - - - - - - - ",
"- - - - - - - - - - - - - - X o j z u . . . . . . . . u + . . . . . # - - - - X - - - - - - - - - - - - - - - - - - - - ",
"- - - - - - - - - - - - - # . i j z p . . . . . . . . . . . . . . . . - - - - X - - - - - - - - - - - - - - - - - - - - ",
"- - - - - - - - - - - - - . % u . * z . . . . . . . . . . . . . . . + X # X X # - - - - - - - - - - - - - - - - - - - - ",
"- - - - - - - - - - - - - . * . . . p . . . . . . . . . . . . . . . . X # # # - - - - - - - - - - - - - - - - - - - - - ",
"- - - - - - - - - - - - - . . . . . u . . . . . . . . . . . . . . . - - - - - - - - - - - - - - - - - - - - - - - - - - ",
"- - - - - - - - - - - - - # # . . . . . . . . . . . . . . . . . . . - - - - - - - - - - - - - - - - - - - - - - - - - - ",
"- - - - - - - - - - - - - - - X . . . . . . . . . . . . . . . X - - - - - - - - - - - - - - - - - - - - - - - - - - - - ",
"- - - - - - - - - - - - - - - - X . . . . . . . . . . . . . . - - - - - - - - - - - - - - - - - - - - - - - - - - - - - ",
"- - - - - - - - - - - - - - - - - . . X - - . . . X # . . . X - - - - - - - - - - - - - - - - - - - - - - - - - - - - - ",
"- - - - - - - - - - - - - - - - - - - - - - X . . # - - X . # - - - - - - - - - - - - - - - - - - - - - - - - - - - - - ",
"- - - - - - - - - - - - - - - - - - - - - - - - - - - - - - - - - - - - - - - - - - - - - - - - - - - - - - - - - - - - ",
"- - - - - - - - - - - - - - - - - - - - - - - - - - - - - - - - - - - - - - - - - - - - - - - - - - - - - - - - - - - - ",
"- - - - - - - - - - - - - - - - - - - - - - - - - - - - - - - - - - - - - - - - - - - - - - - - - - - - - - - - - - - - ",
"- - - - - - - - - - - - - - - - - - - - - - - - - - - - - - - - - - - - - - - - - - - - - - - - - - - - - - - - - - - - ",
"- - - - - - - - - - - - - - - - - - - - - - - - - - - - - - - - - - - - - - - - - - - - - - - - - - - - - - - - - - - - ",
"- - - - - - - - - - - - - - - - - - - - - - - - - - - - - - - - - - - - - - - - - - - - - - - - - - - - - - - - - - - - ",
"- - - - - - - - - - - - - - - - - - - - - - - - - - - - - - - - - - - - - - - - - - - - - - - - - - - - - - - - - - - - ",
"- - - - - - - - - - - - - - - - - - - - - - - - - - - - - - - - - - - - - - - - - - - - - - - - - - - - - - - - - - - - "
};
