/* XPM */
static char *result[] = {
/* columns rows colors chars-per-pixel */
"60 60 110 2 ",
"   c #0E000E",
".  c #040114",
"X  c #0D0415",
"o  c #0E0A13",
"O  c #0D0B1D",
"+  c #1B0413",
"@  c #100D12",
"#  c #110619",
"$  c #1C0619",
"%  c #15091D",
"&  c #1B091A",
"*  c #111111",
"=  c #1B1114",
"-  c #101719",
";  c #18111C",
":  c #101A1C",
">  c #230D17",
",  c #24061C",
"<  c #2B061B",
"1  c #230C1C",
"2  c #2D0A1B",
"3  c #390E17",
"4  c #340E1D",
"5  c #3C0C1C",
"6  c #211114",
"7  c #2B1215",
"8  c #2B1A14",
"9  c #351415",
"0  c #37101A",
"q  c #3E121B",
"w  c #3A2116",
"e  c #160C21",
"r  c #1C0D24",
"t  c #1D1027",
"y  c #1F122B",
"u  c #1D1E2A",
"i  c #0A1D31",
"p  c #270D23",
"a  c #280F29",
"s  c #340921",
"d  c #3B0D21",
"f  c #2E1227",
"g  c #22122C",
"h  c #361324",
"j  c #3A1025",
"k  c #0F2326",
"l  c #0F2C2F",
"z  c #0C2233",
"x  c #0D2B33",
"c  c #11263F",
"v  c #0E323B",
"b  c #430D1C",
"n  c #431516",
"m  c #4F1517",
"M  c #421917",
"N  c #46121A",
"B  c #4C131B",
"V  c #441C18",
"C  c #521417",
"Z  c #56121E",
"A  c #5B141C",
"S  c #501B1C",
"D  c #661817",
"F  c #621619",
"G  c #641A1C",
"H  c #6A1D1B",
"J  c #71231D",
"K  c #762C1A",
"L  c #7A2A1E",
"P  c #450C24",
"I  c #4C0E22",
"U  c #520F22",
"Y  c #4C1020",
"T  c #451A28",
"R  c #531120",
"E  c #601C22",
"W  c #692020",
"Q  c #083049",
"!  c #383048",
"~  c #0D454A",
"^  c #0C4A50",
"/  c #0B4F5F",
"(  c #0C545C",
")  c #034C67",
"_  c #054E6A",
"`  c #095170",
"'  c #045E76",
"]  c #0B6269",
"[  c #216478",
"{  c #8A351E",
"}  c #8E4727",
"|  c #066E89",
" . c #047592",
".. c #007598",
"X. c #04869B",
"o. c #038CA3",
"O. c #0189AE",
"+. c #0292B7",
"@. c #019DC5",
"#. c #03ACC0",
"$. c #01A4CB",
"%. c #02B3CA",
"&. c #01AFDA",
"*. c #00B1DB",
"=. c #01C3D9",
"-. c #03C9DC",
";. c #00D6EC",
":. c #00D9EF",
">. c #00E1F7",
",. c #00EAFF",
/* pixels */
"* * * * * * * * * * * * * * * * * * * * * * * * * * * * * * * * * * * * * * * * * * * * * * * * * * * * * * * * * * * * ",
"* * * * * * * * * * * * * * * * * * * * * * * * * * * * * * * * * * * * * * * * * * * * * * * * * * * * * * * * * * * * ",
"* * * * * * * * * * * * * * * * * * * * * * * * * * * * * * * * * * * * * * * * * * * * * * * * * * * * * * * * * * * * ",
"* * * * * * * * * * * * * * * * * * * * * * * * * * * * * * * * * * * * * * * * * * * * * * * * * * * * * * * * * * * * ",
"* * * * * * * * * * * * * * * * * * * * * * * * * * * * * * * * * * * * * * * * * * * * * * * * * * * * * * * * * * * * ",
"* * * * * * * * * * * * * * * * * * * * * * * * * * * * * * * * * * * * * * * * * * * * * * * * * * * * * * * * * * * * ",
"* * * * * * * * * * * * * * * * * * * * * * * * * * * * * * * * * * * * * * * * * * * * * * * * * * * * * * * * * * * * ",
"* * * * * * * * * * * * * * * * * * * * * * * * * * * * * * * * * * * * * * * * * * * * * * * * * * * * * * * * * * * * ",
"* * * * * * * * * * * * * * * * * * * * * * * * * * * * * * * * * * * * * * * * * * * * * * * * * * * * * * * * * * * * ",
"* * * * * * * * * * * * * * * * * * * * * * * * * * * * * * * * * * * * * * * * * * * * * * * * * * * * * * * * * * * * ",
"* * * * * * * * * * * * * * * * * * * * * * * * * * * * * * * * * * * * * * * * * * * * * * * * * * * * * * * * * * * * ",
"* * * * * * * * * * * * * * * * * * * * * * * * * * * * * * * * * * * * * * * * * * * * * * * * * * * * * * * * * * * * ",
"* * * * * * * * * * * * * * * * * * * * * * * * * * * * * * * * * * * * * * * * * * * * * * * * * * * * * * * * * * * * ",
"* * * * * * * * * * * * * * * * * * * * * * * * * * * * * * * * * * * * * * * * * * * * * * * * * * * * * * * * * * * * ",
"* * * * * * * * * * * * * * * * * * * * * * * * * * * * * * * * * * * * * * * * * * * * * * * * * * * * * * * * * * * * ",
"* * * * * * * * * * * * * * * * * * * * * * * * * * * * * * * * * * * * * * * * * * * * * * * * * * * * * * * * * * * * ",
"* * * * * * * * * * * * * * * * * * * * * * * * * * * * * * * * * * * * * * * * * * * * * * * * * * * * * * * * * * * * ",
"* * * * * * * * * * * * * * * * * * * * * * * * * * * * * * * * * * * * * * * * * * * * * * * * * * * * * * * * * * * * ",
"* * * * * * * * * * * * * * * * * * * * * * * * * * * * * * * * * * * * * * * * * * * * * * * * * * * * * * * * * * * * ",
"* * * * * * * * * * * * * * * * * * * * * * * * * - * * * * * * * * * * * * * * * * * * * * * * * * * * * * * * * * * * ",
"* * * * * * * * * * * * * * * - * * * * * * * * ^ ( * * * * * * * * * * * * * * * * * * * * * * * * * * * * * * * * * * ",
"* * * * * * * * * * * * * * * ~ ^ * * o * * * v $.* * * * * * * * * * * * * * * * * * * * * * * * * * * * * * * * * * * ",
"* * * * * * * * * * * * * * * k X.* - l ] ] - / &.* * * * * * * * * * * * * * * * * * * * * * * * * * * * * * * * * * * ",
"* * * * * * * * * * * * * * * x ..| X.;.:.o.+.*.*.u m @ * * * * * * * * * * * * * * * * * * * * * * * * * * * * * * * * ",
"* * * * * * * * * * * * * * * :  .' X.>.=.) $.O.@.c G S @ * * * * * * * * * * * * * * * * * * * * * * * * * * * * * * * ",
"* * * * * * * * * * * * * * * * * * l ,.z -.) O O X $ G N * * * * * * * * * * * * * * * * * * * * * * * * * * * * * * * ",
"* * * * * * * * * * * * * * * * * * ! =.#.o.i   X X X , A P * * * * * * * * * * * * * * * * * * * * * * * * * * * * * * ",
"* * * * * * * * * * * * * * * * * = X.%.%.Q i X X # # X d I m = * * * * * * * * * * * * * * * * * * * * * * * * * * * * ",
"* * * * * * * * * * * * * * * = 0 I ! [ ` _   X X X r . 1 P R A n 7 = * * * * * * * * * * * * * * * * * * * * * * * * * ",
"* * * * * * * * * * * * * = s I R j p , e + X X , . r % X I Y F F F F C C 4 P * * * * * * * * * * * * * * * * * * * * * ",
"* * * * * * * * * * * Z 7 P Z A h y % r < P . $ $ $ % % X P R A J J L I P U Z * * * * * * * * * * * * * * * * * * * * * ",
"* * * * * * * 8 8 * * A R R F f y % # e < $ N b $ $ e % . T E E R R U A A F G n = * * * 2 * * * * * * * * * * * * * * * ",
"* * * * * * w } K > d I P Z a y e X r e 5 , d 2 , $ r # V { G G I F F F F F F F F n 5 P 4 * * * * * * * * * * * * * * * ",
"= * * * * * = M H 4 P I I a g g % X g p U b . $ . # a X 0 f f I I Z F A F F F D F U P R C * * * * * * * * * * * * * * * ",
"* * * * * * * V b 5 I A F 2 # r % X r % , < . X X X r e . g g g d R F A F F R A G I A F F A 9 = * * * * * * * * * * * * ",
"* * * * * * * = 2 3 F A G > @ X X X % X . X o # X # o g # e e g ; q W A F F F E J A F F F F G A n = * 6 = * * * * * * * ",
"* * * * * * = P 4 s R D = * % X X # g % X X % # X % X g # X X r = * s P R G R R Z F F F A F F F A B 5 d * * * * * * * * ",
"* * * * * * d I 4 b P N o % % X X r t r X X g # X g . p e X X & * * * 0 I I I I A A A R B I B I P 4 6 * * * * * * * * * ",
"* * * * * 4 P Z C 3 & & o r X X X # X r . p e X # g % e g X # * * * * * A G P P P P d 4 4 > , = * * * * * * * * * * * * ",
"* * * * = P I Z 9 = @ @ * # X o X X X e # % X X X g p . g . X * * * * 6 { S N 0 1 @ * * * * * * * * * * * * * * * * * * ",
"* * * * 5 Z C 7 @ @ * * % X X % X X X % % # X X # r g X % X X o * * * K 9 * * * * * * * * * * * * * * * * * * * * * * * ",
"* * * * I A = * * * * ; t X . t X X X X X X X X X . % % X X X X o * * = o @ * * * * * * * * * * * * * * * * * * * * * * ",
"* * * * P = * * * * ; g o X X g % X X X X X X X X X % % X X X X * * * * o * * * * * * * * * * * * * * * * * * * * * * * ",
"* * * * 0 * * * * * r p X X X g r X X X X X X X X X X X X X X o * * * * @ o * * * * * * * * * * * * * * * * * * * * * * ",
"* * * * = * * * * @ e # o X X g $ X X X X X # X X X X X X X X @ * * * * o o * * * * * * * * * * * * * * * * * * * * * * ",
"* * * * * * * * * @ # X X X X % X X X X X X X X X X X X X X X @ o o o o @ * * * * * * * * * * * * * * * * * * * * * * * ",
"* * * * * * * * * * X X X X X X X X X X X X X X X X X X X X X * * * * o * * * * * * * * * * * * * * * * * * * * * * * * ",
"* * * * * * * * * * o X X X X X X X X X X X X X X X X X X X X * * * * * * * * * * * * * * * * * * * * * * * * * * * * * ",
"* * * * * * * * * * * o o * o X X X X X X X X X X X X X X X X * * * * * * * * * * * * * * * * * * * * * * * * * * * * * ",
"* * * * * * * * * * * * * * * o X X X X * o X X X X o * * o * * * * * * * * * * * * * * * * * * * * * * * * * * * * * * ",
"* * * * * * * * * * * * * * * * X X X o * * * o X o * * * * * * * * * * * * * * * * * * * * * * * * * * * * * * * * * * ",
"* * * * * * * * * * * * * * * * * o * * * * * * * * * * * * * * * * * * * * * * * * * * * * * * * * * * * * * * * * * * ",
"* * * * * * * * * * * * * * * * * * * * * * * * * * * * * * * * * * * * * * * * * * * * * * * * * * * * * * * * * * * * ",
"* * * * * * * * * * * * * * * * * * * * * * * * * * * * * * * * * * * * * * * * * * * * * * * * * * * * * * * * * * * * ",
"* * * * * * * * * * * * * * * * * * * * * * * * * * * * * * * * * * * * * * * * * * * * * * * * * * * * * * * * * * * * ",
"* * * * * * * * * * * * * * * * * * * * * * * * * * * * * * * * * * * * * * * * * * * * * * * * * * * * * * * * * * * * ",
"* * * * * * * * * * * * * * * * * * * * * * * * * * * * * * * * * * * * * * * * * * * * * * * * * * * * * * * * * * * * ",
"* * * * * * * * * * * * * * * * * * * * * * * * * * * * * * * * * * * * * * * * * * * * * * * * * * * * * * * * * * * * ",
"* * * * * * * * * * * * * * * * * * * * * * * * * * * * * * * * * * * * * * * * * * * * * * * * * * * * * * * * * * * * ",
"* * * * * * * * * * * * * * * * * * * * * * * * * * * * * * * * * * * * * * * * * * * * * * * * * * * * * * * * * * * * "
};
