/* XPM */
static char *result[] = {
/* columns rows colors chars-per-pixel */
"60 60 119 2 ",
"   c #0D010D",
".  c #0D0415",
"X  c #0E0B13",
"o  c #120516",
"O  c #110E12",
"+  c #1B0B15",
"@  c #120619",
"#  c #1B0619",
"$  c #14091D",
"%  c #1F091D",
"&  c #111111",
"*  c #1C1114",
"=  c #101718",
"-  c #1B111A",
";  c #230F17",
":  c #280A17",
">  c #21061A",
",  c #29041E",
"<  c #230E18",
"1  c #2C0C1B",
"2  c #350111",
"3  c #350D16",
"4  c #32061A",
"5  c #320D1D",
"6  c #3B0D19",
"7  c #221212",
"8  c #2C1215",
"9  c #291913",
"0  c #27101E",
"q  c #2D1018",
"w  c #311314",
"e  c #3F1217",
"r  c #3B1C15",
"t  c #3D131C",
"y  c #170B20",
"u  c #1A0D23",
"i  c #0D1B2F",
"p  c #1C1027",
"a  c #101F21",
"s  c #1E112A",
"d  c #2C0E26",
"f  c #370A20",
"g  c #3D0C23",
"h  c #22112A",
"j  c #2A1129",
"k  c #0F2327",
"l  c #0E242A",
"z  c #102022",
"x  c #1F2029",
"c  c #0A253B",
"v  c #0E3337",
"b  c #4A041C",
"n  c #450E1E",
"m  c #431116",
"M  c #4C1617",
"N  c #4A1916",
"B  c #4B1319",
"V  c #55121D",
"C  c #5B141C",
"Z  c #591A1E",
"A  c #651817",
"S  c #621619",
"D  c #6B1E1B",
"F  c #532517",
"G  c #572C1A",
"H  c #6A2B1A",
"J  c #71211A",
"K  c #7A301B",
"L  c #440C24",
"P  c #4B0D23",
"I  c #520F21",
"U  c #521120",
"Y  c #591521",
"T  c #641D21",
"R  c #6D2421",
"E  c #7D4025",
"W  c #0A2E44",
"Q  c #0D3B47",
"!  c #073B53",
"~  c #0A4455",
"^  c #084C5F",
"/  c #074B66",
"(  c #044C6A",
")  c #095162",
"_  c #055068",
"`  c #095D72",
"'  c #08677C",
"]  c #872C1E",
"[  c #86321C",
"{  c #8D341D",
"}  c #823D1F",
"|  c #994422",
" . c #904F2A",
".. c #A66135",
"X. c #046A81",
"o. c #067685",
"O. c #007597",
"+. c #067A96",
"@. c #007E9E",
"#. c #0D7E99",
"$. c #0593A7",
"%. c #008EB6",
"&. c #0391B4",
"*. c #039BBB",
"=. c #11A7BD",
"-. c #01ACC5",
";. c #00A5CD",
":. c #00B1CF",
">. c #03BDCD",
",. c #01AAD4",
"<. c #01BBDF",
"1. c #00B6E3",
"2. c #00C3DA",
"3. c #02C9DD",
"4. c #00CDED",
"5. c #01D6E9",
"6. c #00C3F1",
"7. c #00E1FE",
"8. c #00F6FF",
/* pixels */
"& & & & & & & & & & & & & & & & & & & & & & & & & & & & & & & & & & & & & & & & & & & & & & & & & & & & & & & & & & & & ",
"& & & & & & & & & & & & & & & & & & & & & & & & & & & & & & & & & & & & & & & & & & & & & & & & & & & & & & & & & & & & ",
"& & & & & & & & & & & & & & & & & & & & & & & & & & & & & & & & & & & & & & & & & & & & & & & & & & & & & & & & & & & & ",
"& & & & & & & & & & & & & & & & & & & & & & & & & & & & & & & & & & & & & & & & & & & & & & & & & & & & & & & & & & & & ",
"& & & & & & & & & & & & & & & & & & & & & & & & & & & & & & & & & & & & & & & & & & & & & & & & & & & & & & & & & & & & ",
"& & & & & & & & & & & & & & & & & & & & & & & & & & & & & & & & & & & & & & & & & & & & & & & & & & & & & & & & & & & & ",
"& & & & & & & & & & & & & & & & & & & & & & & & & & & & & & & & & & & & & & & & & & & & & & & & & & & & & & & & & & & & ",
"& & & & & & & & & & & & & & & & & & & & & & & & & & & & & & & & & & & & & & & & & & & & & & & & & & & & & & & & & & & & ",
"& & & & & & & & & & & & & & & & & & & & & & & & & & & & & & & & & & & & & & & & & & & & & & & & & & & & & & & & & & & & ",
"& & & & & & & & & & & & & & & & & & & & & & & & & & & & & & & & & & & & & & & & & & & & & & & & & & & & & & & & & & & & ",
"& & & & & & & & & & & & & & & & & & & & & & & & & & & & & & & & & & & & & & & & & & & & & & & & & & & & & & & & & & & & ",
"& & & & & & & & & & & & & & & & & & & & & & & & & & & & & & & & & & & & & & & & & & & & & & & & & & & & & & & & & & & & ",
"& & & & & & & & & & & & & & & & & & & & & & & & & & & & & & & & & & & & & & & & & & & & & & & & & & & & & & & & & & & & ",
"& & & & & & & & & & & & & & & & & & & & & & & & & & & & & & & & & & & & & & & & & & & & & & & & & & & & & & & & & & & & ",
"& & & & & & & & & & & & & & & & & & & & & & & & & & & & & & & & & & & & & & & & & & & & & & & & & & & & & & & & & & & & ",
"& & & & & & & & & & & & & & & & & & & & & & & & & & & & & & & & & & & & & & & & & & & & & & & & & & & & & & & & & & & & ",
"& & & & & & & & & & & & & & & & & & & & & & & & & & & & & & & & & & & & & & & & & & & & & & & & & & & & & & & & & & & & ",
"& & & & & & & & & & & & & & & & & & & & & & & & & & & & & & & & & & & & & & & & & & & & & & & & & & & & & & & & & & & & ",
"& & & & & & & & & & & & & & & & & & & & & & & & & & & & & & & & & & & & & & & & & & & & & & & & & & & & & & & & & & & & ",
"& & & & & & & & & & & & & & & & & & & & & & & & & & & = ` & & & & & & & & & & & & & & & & & & & & & & & & & & & & & & & ",
"& & & & & & & & & & & & & & & & & & k ~ & & & & & & = +.Q & & & & & & & & & & & & & & & & & & & & & & & & & & & & & & & ",
"& & & & & & & & & & & & & & & & & & & +.k & & a v & z ,.& & & & & & & & & & & & & & & & & & & & & & & & & & & & & & & & ",
"& & & & & & & & & & & & & & & & & & & ;.^ ' >.3.2.o.*.1.= + 8 & & & & & & & & & & & & & & & & & & & & & & & & & & & & & ",
"& & & & & & & & & & & & & & & & & & & &.O.-.4.7.X.:.%.6.) 2 J 1 & & & & & & & & & & & & & & & & & & & & & & & & & & & & ",
"& & & & & & & & & & & & & & & & & & & = l = <./ $.@.! W i > D Z - & & & & & & & & & & & & & & & & & & & & & & & & & & & ",
"& & & & & & & & & & & & & & & & & & & & O & 3.) 5._     . u f S 7 & & & & & & & & & & & & & & & & & & & & & & & & & & & ",
"& & & & & & & & & & & & & & & & & & & & & = 2.8.~ c . . u . d I 6 & & & & & & & & & & & & & & & & & & & & & & & & & & & ",
"& & & & & & & & & & & & & & & & & & & & & x =.#.( i . . y u @ L P ; & & & & & & & & & & & & & & & & & & & & & & & & & & ",
"& & & & & & & & & & & & & & & & & & & & 1 b , i c . . @ # h u L n 3 & & & & & & & & & & & & & & & & & & & & & & & & & & ",
"& & & & & & & & & & & & & & & & & & & 5 P j u   4 @ . > . u L P C C 8 & & & & & & & & & & & & & & & & & & & & & & & & & ",
"& & & & & & & & & & & & & & & & * 5 - g j p . # 4 o 5 . # L P V C A C w & & & & & & & & & & & & & & & & & & & & & & & & ",
"& & & & & & & & & & 9 * & & & & - j h h h . . # # 1 ] K V Y A C C A A C 7 & & & & & & & & & & & & & & & & & & & & & & & ",
"& & & & & & & & & G | N & & & & u $ y h @ . . f L @ 6 D T T C S A S S S S * & & & & & & & & & & & & & & & & & & & & & & ",
"& & & & & & & & & E H D & & & & O o . @ . . . $ f . . b Y I P P I C C C S C 7 & & & & & & & & & & & & & & & & & & & & & ",
"& & & & & & & & & & N 9 X & & & ; n o . . . @ . . . @ L C S S C C I I P I Y C + & & & & & & & & & & & & & & & & & & & & ",
"* & & & & & & & & & & X X & & - g U 1 . . . u . . @ h g S A S S A A A S C C B L 5 * & & & & & & & & & & & & & & & & & & ",
"* & & & & & & & & & & X & & & q u h y . . . y . $ h h L S Y S S S S S S S S S B 7 r  .9 & & & & & & & & & & & & & & & & ",
"& & & & & & & & & & & X X & X % u s @ . . o y u h h h g I C S S S S S S S S S 7 * M ..} & & & & & & & & & & & & & & & & ",
"& & & & & & & & & & & X X X @ @ . y o . . . $ h p p h g S S S A C S S S S S A 1 * 3 m F & & & & & & & & & & & & & & & & ",
"& & & & & & & & & & & & & + g # . @ . . . . . @ $ h # g C S S C V A S S S I I P : O M & & & & & & & & & & & & & & & & & ",
"& & & & & & & & & & & 8 8 t P # u y . . o . . . u u . g I S S Y I P I n U V V e & X & & & & & & & & & & & & & & & & & & ",
"& & & & & & & & & & * B C U g h p . . . . . . . h . # Z R P P P P C C S S A A 7 & o & & & & & & & & & & & & & & & & & & ",
"& & & & & & & & & & & & * 0 s h y . . . . . . . $ t [ { R P U C S S S S S S C * X X & & & & & & & & & & & & & & & & & & ",
"& & & & & & & & & & & & & $ . u y . . . . . . . . + : n Y P S A S S S S S S M & X X & & & & & & & & & & & & & & & & & & ",
"& & & & & & & & & & & & & & . . u . . . . . . . . . . . # L I C S C S S S S m X X & & & & & & & & & & & & & & & & & & & ",
"& & & & & & & & & & & & & & X . . . . . . . . . . . . . . o f P V C S S S S e X & & & & & & & & & & & & & & & & & & & & ",
"& & & & & & & & & & & & & & & & X . . . . . . . . . . . . . X < L U A A S S N & & & & & & & & & & & & & & & & & & & & & ",
"& & & & & & & & & & & & & & & & & @ 1 n : . . . . . . . . . & & & L P S S S M * & & & & & & & & & & & & & & & & & & & & ",
"& & & & & & & & & & & & & & & & & & & q f . . . . X . . . . & & & & g P C S V * & & & & & & & & & & & & & & & & & & & & ",
"& & & & & & & & & & & & & & & & & & & & 1 1 . . X & X X . X & & & & + 6 P Y A 7 & & & & & & & & & & & & & & & & & & & & ",
"& & & & & & & & & & & & & & & & & & & & & 1 q & & & & & & & & & & & & & 1 L V 8 & & & & & & & & & & & & & & & & & & & & ",
"& & & & & & & & & & & & & & & & & & & & & & - & & & & & & & & & & & & & & & < ; & & & & & & & & & & & & & & & & & & & & ",
"& & & & & & & & & & & & & & & & & & & & & & & & & & & & & & & & & & & & & & & & & & & & & & & & & & & & & & & & & & & & ",
"& & & & & & & & & & & & & & & & & & & & & & & & & & & & & & & & & & & & & & & & & & & & & & & & & & & & & & & & & & & & ",
"& & & & & & & & & & & & & & & & & & & & & & & & & & & & & & & & & & & & & & & & & & & & & & & & & & & & & & & & & & & & ",
"& & & & & & & & & & & & & & & & & & & & & & & & & & & & & & & & & & & & & & & & & & & & & & & & & & & & & & & & & & & & ",
"& & & & & & & & & & & & & & & & & & & & & & & & & & & & & & & & & & & & & & & & & & & & & & & & & & & & & & & & & & & & ",
"& & & & & & & & & & & & & & & & & & & & & & & & & & & & & & & & & & & & & & & & & & & & & & & & & & & & & & & & & & & & ",
"& & & & & & & & & & & & & & & & & & & & & & & & & & & & & & & & & & & & & & & & & & & & & & & & & & & & & & & & & & & & ",
"& & & & & & & & & & & & & & & & & & & & & & & & & & & & & & & & & & & & & & & & & & & & & & & & & & & & & & & & & & & & "
};
