/* XPM */
static char *_5bf81f9ebc44f5bcdd12c1714eb1c13ECWJ8ISoar1g6sHY[] = {
/* columns rows colors chars-per-pixel */
"48 48 210 2 ",
"   c None",
".  c black",
"X  c #010001",
"o  c #010101",
"O  c #000002",
"+  c #010102",
"@  c #020202",
"#  c #020203",
"$  c #020204",
"%  c #030205",
"&  c #030206",
"*  c #030306",
"=  c #0C0307",
"-  c #090507",
";  c #0C0407",
":  c #040408",
">  c #050408",
",  c #07040B",
"<  c #06050B",
"1  c #07050C",
"2  c #090708",
"3  c #0A070A",
"4  c #0D0508",
"5  c #0C0509",
"6  c #0D060A",
"7  c #08060E",
"8  c #06080B",
"9  c #0F0909",
"0  c #0E090B",
"q  c #0D0A0B",
"w  c #0E0B0C",
"e  c #0E0C0C",
"r  c #120B0B",
"t  c #170D08",
"y  c #100D0E",
"u  c #100E0E",
"i  c #120F0F",
"p  c #160D0C",
"a  c #180E09",
"s  c #190E0A",
"d  c #1B0F0C",
"f  c #1B100B",
"g  c #1B100F",
"h  c #0A0711",
"j  c #0A0812",
"k  c #0B0813",
"l  c #0C0915",
"z  c #0D0A17",
"x  c #0E0D18",
"c  c #0E0D19",
"v  c #100F1D",
"b  c #0F121B",
"n  c #181313",
"m  c #191313",
"M  c #1A1212",
"N  c #1A1114",
"B  c #11141D",
"V  c #11141E",
"C  c #1B1619",
"Z  c #1B161A",
"A  c #1D1819",
"S  c #210811",
"D  c #270A14",
"F  c #230C15",
"G  c #220E17",
"H  c #280B15",
"J  c #370D1B",
"K  c #340F1A",
"L  c #3D0F1D",
"P  c #231413",
"I  c #271711",
"U  c #241412",
"Y  c #2B1916",
"T  c #2A111C",
"R  c #25191C",
"E  c #271A1D",
"W  c #2C1B18",
"Q  c #2C1B19",
"!  c #341F14",
"~  c #38101D",
"^  c #38211B",
"/  c #3C221E",
"(  c #121120",
")  c #131221",
"_  c #121520",
"`  c #141624",
"'  c #151626",
"]  c #171928",
"[  c #181D29",
"{  c #181D2A",
"}  c #191C2B",
"|  c #191E2B",
" . c #191D2C",
".. c #281923",
"X. c #2D1D21",
"o. c #301F23",
"O. c #3E1927",
"+. c #1C2130",
"@. c #1C2131",
"#. c #1C2231",
"$. c #1E2334",
"%. c #1F2537",
"&. c #2A2324",
"*. c #2F2525",
"=. c #2F2626",
"-. c #2F2627",
";. c #342226",
":. c #3C2F2E",
">. c #202739",
",. c #21283A",
"<. c #272C3D",
"1. c #3B3030",
"2. c #492A1D",
"3. c #4E2D1D",
"4. c #4E2E1D",
"5. c #421020",
"6. c #431121",
"7. c #451627",
"8. c #451728",
"9. c #421B2B",
"0. c #471A2B",
"q. c #471B2C",
"w. c #471E2F",
"e. c #481C2D",
"r. c #481D2E",
"t. c #491F30",
"y. c #452223",
"u. c #402522",
"i. c #482924",
"p. c #5C3623",
"a. c #54302A",
"s. c #57322D",
"d. c #5C352C",
"f. c #423230",
"g. c #423231",
"h. c #433636",
"j. c #4F3232",
"k. c #4A3632",
"l. c #493735",
"z. c #493736",
"x. c #463939",
"c. c #4E3F3F",
"v. c #5D3638",
"b. c #5E373A",
"n. c #60372D",
"m. c #62382E",
"M. c #6C3E30",
"N. c #683B36",
"B. c #56413F",
"V. c #6F4129",
"C. c #6E402A",
"Z. c #6F412A",
"A. c #75442B",
"S. c #78462E",
"D. c #794632",
"F. c #7F4A34",
"G. c #79453F",
"H. c #4E3F40",
"J. c #45404C",
"K. c #534140",
"L. c #504142",
"P. c #554444",
"I. c #554646",
"U. c #594747",
"Y. c #5D4C4C",
"T. c #5E4D4D",
"R. c #614F4F",
"E. c #645150",
"W. c #665251",
"Q. c #6E5350",
"!. c #6A5453",
"~. c #6D5655",
"^. c #755956",
"/. c #765A57",
"(. c #7D5B53",
"). c #735A58",
"_. c #775D5B",
"`. c #7A5C58",
"'. c #7A5C59",
"]. c #7E5F5B",
"[. c #7C605E",
"{. c #864E32",
"}. c #8A5036",
"|. c #8F5335",
" X c #905437",
".X c #925538",
"XX c #965739",
"oX c #9A5A3A",
"OX c #9C5B3A",
"+X c #94544C",
"@X c #935550",
"#X c #81625F",
"$X c #AC6259",
"%X c #AE645C",
"&X c #826361",
"*X c #856562",
"=X c #896865",
"-X c #8B6966",
";X c #8D6B67",
":X c #8E6B67",
">X c #906D69",
",X c #926E6A",
"<X c #B86F64",
"1X c #A07B78",
"2X c #C97368",
"3X c #B4857D",
"4X c #D09889",
"5X c #E1A191",
"6X c #E5A796",
"7X c #FAB6A4",
/* pixels */
"                                                6 6 ; =                                         ",
"                                              G t.q.8.L G 6                                     ",
"                                            G w.t.t.t.0.5.O.o                                   ",
"                                            T t.t.t.e.K r K o                                   ",
"                                          ; 8.t.t.q.H G.N.K o                                   ",
"                                          ; 8.t.t.8.; u.N.K o                                   ",
"                                          ; 5.e.e.S 4X7X(.K o                                   ",
"                                          ; 5.7.9.y.5X6Xj.S                                     ",
"                                        V.V.D 5.~ r <X4XS ;                                     ",
"                                      2. X.Xp.f t s.P = K =                                     ",
"                                    o p Y ^ D.XX|.4.a o o                                       ",
"                                  o `.`.P.h.9 a m.F.{.V.                                        ",
"                                o `.,X,X=X&XR.W.y W S.S.o                                       ",
"                                o `.,X*XR.1.*X,X_.K.=.U o                                       ",
"                                f.;X=XR.A U.,X,X,X;X=X`.f.                                      ",
"                                k.`.Y.=.c.,X,X,X,X,X,X,XB.                                      ",
"                              f A.4.=.=.P.,X,X,X,X,X,X,X,XM                                     ",
"                              f OXM./ =.Y.~.,X,X,X,X,X,X,XM                                     ",
"                            o OXXXn.M P.Y.Y.).=X=X).Y.W.#XM                                     ",
"                            o XXD.d.i.=.Y.Y.Y.)._._._._.:.                                      ",
"                            o oXXX.Xa.W K.Y.).,X,X,X,X,Xz.                                      ",
"                              d |.OX.Xd.g P.z./.=X;X,X,XB.                                      ",
"                                ! |.OX}.d.9 Q.[.).!._._.*XM                                     ",
"                                  d M.OXU ].,X,X,X=X=X&XR.y                                     ",
"                                    M W /.,X,X,X,X,X,X,X,X,Xo                                   ",
"                                  o P.x.Y.[.,X,X,X,X,X,X,X[.o                                   ",
"                                  o Y.Y.Y.Y.W.=X,X,X,X,X[.Y.o                                   ",
"                                    o &.c.H.P.Y.W.=X=XY.P.w                                     ",
"                                    8 | B b C =.=.=.=.=.C *                                     ",
"                                    8 ,.,.+.1  .+.+.x * l *                                     ",
"                                    8 ,.,.,._ h $.` : l l *                                     ",
"                                    8 ,.,.,.] 7 1 1 l l l *                                     ",
"                                    8 ,.,.,.] l * l l l l *                                     ",
"                                    =.1X<.>.` *   1 l l l *                                     ",
"                                  o J.7X1X$.k *   1 l l k *                                     ",
"                                  o <.1X7X3X1     1 l l 1                                       ",
"                                  o ,.,.,.k o     1 l l 1                                       ",
"                                  o ,.,.| :       1 l b.:                                       ",
"                                  | ,.,.v o     * l @X$Xo                                       ",
"                                o +.( $.x o     * b.2X+X                                        ",
"                                o +.%.( *       * l %Xo                                         ",
"                                o +.,.] *       * l ..o                                         ",
"                                  | ,.B         * l l o                                         ",
"                                  o ,.B           1 l o                                         ",
"                                  o ,.B           1 l o                                         ",
"                                  o y 3           : 3 X.-                                       ",
"                                  o Y.x.e         9 o.;.R -                                     ",
"                                  o Y.Y.K.o       N ;.;.;.X.R                                   "
};
