/* XPM */
static char *result[] = {
/* columns rows colors chars-per-pixel */
"60 60 120 2 ",
"   c #0E010F",
".  c #1C000F",
"X  c #0D0415",
"o  c #0F0A13",
"O  c #0E0718",
"+  c #0F0C1D",
"@  c #110516",
"#  c #100E12",
"$  c #1D0D12",
"%  c #110619",
"&  c #1F0619",
"*  c #14091C",
"=  c #1B0A1D",
"-  c #111111",
";  c #1B1114",
":  c #161119",
">  c #19111E",
",  c #220D17",
"<  c #290B16",
"1  c #22071C",
"2  c #250E18",
"3  c #2C0B1B",
"4  c #350D1D",
"5  c #3A0C1E",
"6  c #221214",
"7  c #2A1313",
"8  c #2D1B13",
"9  c #341315",
"0  c #3B1315",
"q  c #341E15",
"w  c #170B20",
"e  c #1B0D24",
"r  c #1D1224",
"t  c #1F1028",
"y  c #0C1B30",
"u  c #240B24",
"i  c #2D0F26",
"p  c #200F28",
"a  c #3C0B21",
"s  c #330E28",
"d  c #2A1524",
"f  c #21112A",
"g  c #371322",
"h  c #0F2429",
"j  c #0F2B2D",
"k  c #102123",
"l  c #0F2D33",
"z  c #09283C",
"x  c #450B11",
"c  c #4A0E1C",
"v  c #570413",
"b  c #590613",
"n  c #461416",
"m  c #4D1517",
"M  c #43121B",
"N  c #49111D",
"B  c #4A1A1A",
"V  c #521517",
"C  c #561E17",
"Z  c #55121E",
"A  c #5C141C",
"S  c #6C0302",
"D  c #65050B",
"F  c #6A0D0D",
"G  c #651315",
"H  c #621619",
"J  c #621C1D",
"K  c #462015",
"L  c #542018",
"P  c #582E1C",
"I  c #6F231C",
"U  c #68291B",
"Y  c #73261A",
"T  c #732A1C",
"R  c #450C24",
"E  c #4C0E22",
"W  c #4F1021",
"Q  c #531220",
"!  c #5C1821",
"~  c #601E20",
"^  c #5E2325",
"/  c #0A2E43",
"(  c #073A54",
")  c #323544",
"_  c #0C434A",
"`  c #12495F",
"'  c #3E4F5D",
"]  c #0F516C",
"[  c #0A586B",
"{  c #015877",
"}  c #822D1B",
"|  c #813D20",
" . c #88482A",
".. c #C7743B",
"X. c #056686",
"o. c #057787",
"O. c #05789C",
"+. c #296F84",
"@. c #078A97",
"#. c #2D8390",
"$. c #0082A5",
"%. c #0294AC",
"&. c #0195B0",
"*. c #0192B8",
"=. c #2994A1",
"-. c #229DAB",
";. c #05A4B4",
":. c #009CC1",
">. c #00A3CF",
",. c #17B0C2",
"<. c #01AED3",
"1. c #0CBBD2",
"2. c #00BEEA",
"3. c #01C5DA",
"4. c #01CDE3",
"5. c #00C5EB",
"6. c #00CCEE",
"7. c #09D3E7",
"8. c #00D4F6",
"9. c #00ECFE",
/* pixels */
"- - - - - - - - - - - - - - - - - - - - - - - - - - - - - - - - - - - - - - - - - - - - - - - - - - - - - - - - - - - - ",
"- - - - - - - - - - - - - - - - - - - - - - - - - - - - - - - - - - - - - - - - - - - - - - - - - - - - - - - - - - - - ",
"- - - - - - - - - - - - - - - - - - - - - - - - - - - - - - - - - - - - - - - - - - - - - - - - - - - - - - - - - - - - ",
"- - - - - - - - - - - - - - - - - - - - - - - - - - - - - - - - - - - - - - - - - - - - - - - - - - - - - - - - - - - - ",
"- - - - - - - - - - - - - - - - - - - - - - - - - - - - - - - - - - - - - - - - - - - - - - - - - - - - - - - - - - - - ",
"- - - - - - - - - - - - - - - - - - - - - - - - - - - - - - - - - - - - - - - - - - - - - - - - - - - - - - - - - - - - ",
"- - - - - - - - - - - - - - - - - - - - - - - - - - - - - - - - - - - - - - - - - - - - - - - - - - - - - - - - - - - - ",
"- - - - - - - - - - - - - - - - - - - - - - - - - - - - - - - - - - - - - - - - - - - - - - - - - - - - - - - - - - - - ",
"- - - - - - - - - - - - - - - - - - - - - - - - - - - - - - - - - - - - - - - - - - - - - - - - - - - - - - - - - - - - ",
"- - - - - - - - - - - - - - - - - - - - - - - - - - - - - - - - - - - - - - - - - - - - - 9 - - - - - - - - - - - - - - ",
"- - - - - - - - - - - - - - - - - - - - - - - - - - - - - - - - - - - - - - - - - - - - ; Y - - - - - - - - - - - - - - ",
"- - - - - - - - - - - - - - - - ; # - - - - - - - - - - - - - - - - - - - - - - - - - - 7 } - - - - - - - - - - - - - - ",
"- - - - - - - - - - - - - - - - M 2 - - - - - - - - - - - - - - - - - - - - - - - - - - 4 } # # - - - - - - - - - - - - ",
"- - - - - - - - - - - - - - - - V M - - - - - - - - - - - - - - - - - - - - - - - - - $ A ~ M # - - - - - - - - - - - - ",
"- - - - - - - - - - - - - - - - Q Q ; - - - - - - - - - - - - - - - - - - - - - - - ; R ~ ~ Z a ; - - - - - - - - - - - ",
"- - - - - - - - - - - - - - - 4 E E R - - - - - - - - - - - - - - - - - - - - - - ; Z E Z Z R R R $ - - - - - - - - - - ",
"- - - - - - - - - - - - - - $ R E R E 2 - - - - - - - - - - - - - - - - - - - - ; ~ ! H H A E A W R 3 - - - - - - - - - ",
"- - - - - - - - - - - - - - i A A R A R - - - - - - - - - - - - - - - - - - - $ R ~ H G H E E H H A R a $ - - - - - - - ",
"- - - - - - - - - - - - - 6 E H A E H Z 4 - - - - - - - - - - - - - - - - - 6 E W H H H H A R H H H Q Z R 2 - - - - - - ",
"- - - - - - - - - - - - $ R A A A W H H R < - - - - - - - - - - - - - - - ; R A G W H H H A R A H A A H A E , - - - - - ",
"- - - - - - - - - - - - 4 A H A A W H Q Z a - - - - - - - - - - - - q - - R A H H Z H H H Z E Z H A H H H H Z 7 - - - - ",
"- - - - - - - - - - - ; Z H H H A W H Q G E 2 # - - - - k @.- - - - C B R A H H H H H H H H ! Z H H H H H H n 4 , - - - ",
"- - - - - - - - - - - R H H H H A W G ^ #.A 5 x - - - - ;._ - - - - - ! ! H H H H H H H H H H E H H H A V 7 - - , - - - ",
"- - - - - - - - - - 3 4 H H H H A E H D =.' v ) l [ h j 3.j - - - - - Q E Q A A ! G H H H H H E H H H 9 - - - - - - - - ",
"- - - - - - - - - - ; - ; m H H A E H S 9.1.,.6.5.*.%.3.9._ $ N 2 - 2 E A R W H H H H H H H H N H A 6 - - - - - - - - - ",
"- - - - - - - - - - - - - - 0 C A Z H F +.7.-.8.6.X.&.&.4.o.. J I $ 4 Q H A E Z H H H H H H H Z H 6 - - - - - - - - - - ",
"- - - - - - - - - - - - - - - 0 E A H A b J S :._ O.$.z O + * u ! M R A H H A R A H H H H H A A 0 - - - - - - - - - - - ",
"- - - - - - - - - - - - - - - - M A H E H H S >.O.<.( X X X w e s A E Q A H H A E Q H H H n ; ; 3 - - - - - - - - - - - ",
"- - - - - - - - - - - - - - - - 3 6 Z N 0 7 - 2.5./ / X X w O e f R E H A H H H H W A H 0 - - - 2 - - - - - - - - - - - ",
"- - - - - - - - - - - - - - - - - - 2 - - - - ` ] { y X X X p % e i a m m V H H H A E A - - - - - - - - - - - - - - - - ",
"- - - - - - - - - - - - ; q 8 - - - - - - - - 1 g d   X < 1 e t % r - - - - ; ; - 9 9 R ; - - - - - - - - - - - - - - - ",
"- - - - - - - - - - - - P  .I ; - - - - - : f w c c 3 1 < 1 e f w r : - - - - - - - - : 2 - - - - - - - - - - - - - - - ",
"- - - - - - - - - - - - 6 L U - - - - > > f e @ 1 3 5 Y 3 4 & t t w r # - - - - - - - - - - - - - - - - - - - - - - - - ",
"- - - - - - - - - - - - ; K $ - - > f f f t O X 1 M 5 < a 3 4 w t * f - - - - - - - - - - - - - - - - - - - - - - - - - ",
"- - - - - - - - - - - - - o o - - = % % f % X X c Z 1 1 1 @ X t f * e : - - - - - - - - - - - - - - - - - - - - - - - - ",
"- - - - - - - - - - - - - o o - - o o X O X X X @ a 3 X X X % f f e * > - - - - - 6 ; - - - - - - - - - - - - - - - - - ",
"- - - - - - - - - - - - - - o - - - - o X X w % X X X % t X t f f e w r - - - - K ..| ; - - - - - - - - - - - - - - - - ",
"- - - - - - - - - - - - - - o o - - : : X % p * X X w f e * f f f e w r - - - - q K U - - - - - - - - - - - - - - - - - ",
"- - - - - - - - - - - - - - - o o % e p p t t X X e f f w e f p f e f p - - - - # V T ; - - - - - - - - - - - - - - - - ",
"- - - - - - - - - - - - - - - - # * X X e t % e p p p f * p p f f * f f > - - - o - ; - - - - - - - - - - - - - - - - - ",
"- - - - - - - - - - - - - - - - # O % % X e % e e t e t * e e f f * f f : - - - o - - - - - - - - - - - - - - - - - - - ",
"- - - - - - - - - - - - - - - - X % f X X X X X X % f % e * * % f * f * - - - - o - - - - - - - - - - - - - - - - - - - ",
"- - - - - - - - - - - - - - - - w f w X X X X X X e w X X X X X O * o o - - - o o - - - - - - - - - - - - - - - - - - - ",
"- - - - - - - - - - - - - - - > f t X X X X X X X t X X X X X X X X X # - - - X - - - - - - - - - - - - - - - - - - - - ",
"- - - - - - - - - - - - - - - t t f X X X X X X X % X X X X X X X X X - - - o o - - - - - - - - - - - - - - - - - - - - ",
"- - - - - - - - - - - - - - # X % p X X X X X X X X X X X X O X X X o % o o o - - - - - - - - - - - - - - - - - - - - - ",
"- - - - - - - - - - - - - - - X X e X X X X X X X X X X X X X X X X X # o - - - - - - - - - - - - - - - - - - - - - - - ",
"- - - - - - - - - - - - - - - - O % X X X X X X X X X X X X X X X o o - - - - - - - - - - - - - - - - - - - - - - - - - ",
"- - - - - - - - - - - - - - - - - o X o X o X X X X X X X X X - # # - - - - - - - - - - - - - - - - - - - - - - - - - - ",
"- - - - - - - - - - - - - - - - - - - - - o X X X X X X X X X - - - - - - - - - - - - - - - - - - - - - - - - - - - - - ",
"- - - - - - - - - - - - - - - - - - - - - - X X X X o X X X X - - - - - - - - - - - - - - - - - - - - - - - - - - - - - ",
"- - - - - - - - - - - - - - - - - - - - - - - X o o - - o o o - - - - - - - - - - - - - - - - - - - - - - - - - - - - - ",
"- - - - - - - - - - - - - - - - - - - - - - - - - - - - - - - - - - - - - - - - - - - - - - - - - - - - - - - - - - - - ",
"- - - - - - - - - - - - - - - - - - - - - - - - - - - - - - - - - - - - - - - - - - - - - - - - - - - - - - - - - - - - ",
"- - - - - - - - - - - - - - - - - - - - - - - - - - - - - - - - - - - - - - - - - - - - - - - - - - - - - - - - - - - - ",
"- - - - - - - - - - - - - - - - - - - - - - - - - - - - - - - - - - - - - - - - - - - - - - - - - - - - - - - - - - - - ",
"- - - - - - - - - - - - - - - - - - - - - - - - - - - - - - - - - - - - - - - - - - - - - - - - - - - - - - - - - - - - ",
"- - - - - - - - - - - - - - - - - - - - - - - - - - - - - - - - - - - - - - - - - - - - - - - - - - - - - - - - - - - - ",
"- - - - - - - - - - - - - - - - - - - - - - - - - - - - - - - - - - - - - - - - - - - - - - - - - - - - - - - - - - - - ",
"- - - - - - - - - - - - - - - - - - - - - - - - - - - - - - - - - - - - - - - - - - - - - - - - - - - - - - - - - - - - "
};
