/* XPM */
static char *result[] = {
/* columns rows colors chars-per-pixel */
"60 60 88 1 ",
"  c #040405",
". c #070708",
"X c #070808",
"o c #0B0B0C",
"O c #0E0F10",
"+ c #0F1011",
"@ c #121314",
"# c #151619",
"$ c #17181A",
"% c #1A1B1D",
"& c #1D1E21",
"* c #1F2124",
"= c #212226",
"- c #242529",
"; c #27292C",
": c #292A2E",
"> c #2B2D32",
", c #2F3136",
"< c #2F3238",
"1 c #303237",
"2 c #32343A",
"3 c #36393E",
"4 c #383A3F",
"5 c #3A3D43",
"6 c #3E4047",
"7 c #3F4249",
"8 c #42454C",
"9 c #45484F",
"0 c #464951",
"q c #4A4D55",
"w c #4D4F58",
"e c #4D5057",
"r c #4E515A",
"t c #52555E",
"y c #535760",
"u c #565A63",
"i c #595D66",
"p c #5B5F69",
"a c #5E626B",
"s c #61656E",
"d c #626670",
"f c #656A74",
"g c #696D77",
"h c #6A6F79",
"j c #6D727E",
"k c #70747F",
"l c #727682",
"z c #767A86",
"x c #797C86",
"c c #767B88",
"v c #7A7E89",
"b c #7D828D",
"n c #7F8390",
"m c #82848D",
"M c #818691",
"N c #868A95",
"B c #898C94",
"V c #8A8E99",
"C c #8D919C",
"Z c #91949F",
"A c #9296A0",
"S c #969AA3",
"D c #989CA5",
"F c #9B9FA8",
"G c #9DA1AA",
"H c #A1A5AD",
"J c #A5A9B1",
"K c #A9ACB4",
"L c #AEB1B8",
"P c #B3B5BC",
"I c #B6B8BF",
"U c #B7BAC1",
"Y c #BBBDC3",
"T c #BEC1C7",
"R c #C1C4C9",
"E c #C8CACF",
"W c #CCCED3",
"Q c #CFD1D6",
"! c #D4D5D9",
"~ c #D7D8DC",
"^ c #D9DBDE",
"/ c #DDDFE1",
"( c #DFE0E3",
") c #E1E2E5",
"_ c #E5E6E8",
"` c #E7E8EA",
"' c #EBECEE",
"] c None",
/* pixels */
"]]]]]]]]]]]]]]]]]]]]]]]]]rhzzBBzlhr]]]]]]]]]]]]]]]]]]]]]]]]]",
"]]]]]]]]]]]]]]]]]]]]]]]]]q!jMPPbc!q]]]]]]]]]]]]]]]]]]]]]]]]]",
"]]]]]]]]]]]]]]]]]]]]]]]]]7yffUUdcy6]]]]]]]]]]]]]]]]]]]]]]]]]",
"]]]]]]]]]]]]]]]]]]]]]]tzz2h7dvvf0h2zvt]]]]]]]]]]]]]]]]]]]]]]",
"]]]]]]]]]]]]]]]]]]]]qCiAA3zt-kk-tl4ADuVq]]]]]]]]]]]]]]]]]]]]",
"]]]]]]]]]]]]]]]]]]]hDPfIW8mi>rr>uM8WYfPDg7]]]]]]]]]]]]]]]]]]",
"]]]]]]]]]]]]]]]]]9bYI_FlK>Cit89tsC,KcF_UYD9]]]]]]]]]]]]]]]]]",
"]]]]]]]]]]]]]]5]uAJT_^N;5&KusghpyK%5-N^_RKAu]5]]]]]]]]]]]]]]",
"]]]]]]]]]]]]]9QqmAY_Cu;@@=520ff055=@@;uC_WZmqQt]]]]]]]]]]]]]",
"]]]]]]]]]]]]r'Sk5TIh7%#;&#+  . . O#&;#%7jGR5kS`t]]]]]]]]]]]]",
"]]]]]]]]]]]w^Hlxf5u>@&-%@ ]]]]]]]] @%-%@:r5fxlK^w]]]]]]]]]]]",
"]]]]]]]]]]]DxPBuV%oo*%$O]]]]]]]]]]]]o%&*o$%VuNRzD]]]]]]]]]]]",
"]]]]]]]]]]lBissugy %@o ]]]]]]]]]]]]]] o#%otgisapBl]]]]]]]]]]",
"]]]]]]]]]]>gtqqaj &o#]]]]]]]]]]]]]]]]]]#o@ kpq8yf:]]]]]]]]]]",
"]]]]]]]]]]u5jjtzo#+ ]]]]]]]]]]]]]]]]]]]] o$ozthj6d]]]]]]]]]]",
"]]]]]]]]]]HPutm%#o ]]]]]]]]]]]]]]]]]]]]]]]o#%mauPH8]]]]]]]]]",
"]]]]]]]]]aHWY=o%+ ]]]]]]]]]]]]]]]]]]]]]]]] O#o&YWHa]]]]]]]]]",
"]]]]]]]]]CG!b-#o@]]]]]]]]]]]]]]]]]]]]]]]]]]@o#=b~GS]]]]]]]]]",
"]]]]]]]]]DJ'u## ]]]]]]]]]]]]]]]]]]]]]]]]]]]] @#i'JDi]]]]]]]]",
"]]]]]]]]uN(P2Oo ]]]]]]]]]]]]]]]]]]]]]]]]]]]] O+2L(Ci]]]]]]]]",
"]]]]]]]]dBVl%%o%]]]]]]]]]]]]]]]]]]]]]]]]]]]]&o#%lVGd]]]]]]]]",
"]]]]]]]]dRb>.o.-]]]]]]]]]]]]]]]]]]]]]]]]]]]]-.Oo>bWs]]]]]]]]",
"]]]]]]80nZi-ooX;]]]]]]]]]]]]]]]]]]]]]]]]]]]];ooo-iCMq7]]]]]]",
"]]]]]]UY_)Cp8&o;]]]]]]]]]]]]]]]]]]]]]]]]]]]]-o#5aC)_YU]]]]]]",
"]]]]]]dMHZsr=+o:]]]]]]]]]]]]]]]]]]]]]]]]]]]];oo=raVHms]]]]]]",
"]]]]]]&fxbmr:O>8]]]]]]]]]]]]]]]]]]]]]]]]]]]]8>@>tbmbs@]]]]]]",
"]]]]]]%ubUz01 o2]]]]]]]]]]]]]]]]]]]]]]]]]]]]2+ 80zUb9%]]]]]]",
"]]]]]]%ieZg51 oq]]]]]]]]]]]]]]]]]]]]]]]]]]]]q+ q5gZe0*]]]]]]",
"]]]]]]%ati8;> +5]]]]]]]]]]]]]]]]]]]]]]]]]]]]4@ q>8pt9*]]]]]]",
"]]]]]]%f-n;f2 o2]]]]]]]]]]]]]]]]]]]]]]]]]]]]2+ qf;b-a=]]]]]]",
"]]]]]]q60098y o;]]]]]]]]]]]]]]]]]]]]]]]]]]]];o 28ufsr8]]]]]]",
"]]]]]]NHW)Gh82*3]]]]]]]]]]]]]]]]]]]]]]]]]]]]3*>8gG/WHV]]]]]]",
"]]]]]]8uvbi9=%X=]]]]]]]]]]]]]]]]]]]]]]]]]]]]=o#=9ixbu6]]]]]]",
"]]]]]]]&9q>o oo;]]]]]]]]]]]]]]]]]]]]]]]]]]]];o Xo>00&]]]]]]]",
"]]]]]]]5DIz2.Xo;]]]]]]]]]]]]]]]]]]]]]]]]]]]];oX 2zID5]]]]]]]",
"]]]]]]]6SEm1X o=]]]]]]]]]]]]]]]]]]]]]]]]]]]]*o o1bQS6]]]]]]]",
"]]]]]]]7S!v2X.o>]]]]]]]]]]]]]]]]]]]]]]]]]]]]>oXX,v~S7]]]]]]]",
"]]]]]]]5APz<ooo;]]]]]]]]]]]]]]]]]]]]]]]]]]]];ooo2zTZ5]]]]]]]",
"]]]]]]]5ZSf>ooo;]]]]]]]]]]]]]]]]]]]]]]]]]]]]>ooo>fGC5]]]]]]]",
"]]]]]]]5CZa>oOX-]]]]]]]]]]]]]]]]]]]]]]]]]]]]-Xoo,aNC5]]]]]]]",
"]]]]]]]5CSf2ooo*]]]]]]]]]]]]]]]]]]]]]]]]]]]]=ooo2fDZ5]]]]]]]",
"]]]]]]]5CLf2oX -]]]]]]]]]]]]]]]]]]]]]]]]]]]]= oo2fLV5]]]]]]]",
"]]]]]]]>MTf,o  $]]]]]]]]]]]]]]]]]]]]]]]]]]]]#  o,fYM>]]]]]]]",
"]]]]]]]>MTf> #28]]]]]]]]]]]]]]]]]]]]]]]]]]]]82%.>gRM>]]]]]]]",
"]]]]]]]>MYd;.+=;]]]]]]]]]]]]]]]]]]]]]]]]]]]];-# ;dUn>]]]]]]]",
"]]]]]]];zUs=  &i]]]]]]]]]]]]]]]]]]]]]]]]]]]]i%  -aIc;]]]]]]]",
"]]]]]]];jJt%  %8]]]]]]]]]]]]]]]]]]]]]]]]]]]]8%  %tHj-]]]]]]]",
"]]]]]]]=fH9#  *5]]]]]]]]]]]]]]]]]]]]]]]]]]]]5*  #9Jg=]]]]]]]",
"]]]]]]]zAHi-o %3]]]]]]]]]]]]]]]]]]]]]]]]]]]]3% o=uHAz]]]]]]]",
"]]]]]]]2NLa=o.$,]]]]]]]]]]]]]]]]]]]]]]]]]]]]>%oo=sLM2]]]]]]]",
"]]]]]]u-7f2#o#;2]]]]]]]]]]]]]]]]]]]]]]]]]]]]2;#o#2f7;u]]]]]]",
"]]]]]]VKCbZbV,&+]]]]]]]]]]]]]]]]]]]]]]]]]]]]@&>VbAvCJV]]]]]]",
"]]]]]]DGCDCli7#@]]]]]]]]]]]]]]]]]]]]]]]]]]]]@#3ilCGZHD]]]]]]",
"]]]]]]MlAViwy7$@]]]]]]]]]]]]]]]]]]]]]]]]]]]]+%5yruVAlM]]]]]]",
"]]]]]]blKAj00>#O]]]]]]]]]]]]]]]]]]]]]]]]]]]]O#;90lNKlb]]]]]]",
"]]]]]]bjMni55-OO]]]]]]]]]]]]]]]]]]]]]]]]]]]]oO*55ibMhb]]]]]]",
"]]]]]]ghlsw2,$.o]]]]]]]]]]]]]]]]]]]]]]]]]]]]oo@>2wslhf]]]]]]",
"]]]]]]9yyy5;%  O]]]]]]]]]]]]]]]]]]]]]]]]]]]]O .%:6ryu9]]]]]]",
"]]]]]]q2,:%#&>&]]]]]]]]]]]]]]]]]]]]]]]]]]]]]]&>&#$;,2q]]]]]]",
"]]]]]]>q5r,5;]]]]]]]]]]]]]]]]]]]]]]]]]]]]]]]]]];5<t5q>]]]]]]"
};
