/* XPM */
static char *_67976f215b74c2fb49ea60ca2e866ef[] = {
/* columns rows colors chars-per-pixel */
"60 60 124 2 ",
"   c None",
".  c #040405",
"X  c #070708",
"o  c #070808",
"O  c #0B0B0C",
"+  c #0E0F10",
"@  c #0F1011",
"#  c #121314",
"$  c #151619",
"%  c #17181A",
"&  c #1A1B1D",
"*  c #1D1E21",
"=  c #1F2124",
"-  c #212226",
";  c #242529",
":  c #27292C",
">  c #292A2E",
",  c #2B2D32",
"<  c #2F3136",
"1  c #2F3238",
"2  c #303237",
"3  c #32343A",
"4  c #36393E",
"5  c #383A3F",
"6  c #3A3D43",
"7  c #3E4047",
"8  c #3F4249",
"9  c #42454C",
"0  c #45484F",
"q  c #464951",
"w  c #4A4D55",
"e  c #4D4F58",
"r  c #4D5057",
"t  c #4E515A",
"y  c #52555E",
"u  c #535760",
"i  c #565A63",
"p  c #595D66",
"a  c #5B5F69",
"s  c #5E626B",
"d  c #61656E",
"f  c #626670",
"g  c #656A74",
"h  c #696D77",
"j  c #6A6F79",
"k  c #6D727E",
"l  c #70747F",
"z  c #727682",
"x  c #767A86",
"c  c #797C86",
"v  c #767B88",
"b  c #7A7E89",
"n  c #7D828D",
"m  c #7F8390",
"M  c #82848D",
"N  c #818691",
"B  c #868A95",
"V  c #898C94",
"C  c #8A8E99",
"Z  c #8D919C",
"A  c #91949F",
"S  c #9296A0",
"D  c #969AA3",
"F  c #989CA5",
"G  c #9B9FA8",
"H  c #9DA1AA",
"J  c #A1A5AD",
"K  c #A4A8B0",
"L  c #A6A9B1",
"P  c #A6A9B1",
"I  c #A8AAB3",
"U  c #A8ABB3",
"Y  c #A8ACB4",
"T  c #ABADB5",
"R  c #A9ACB4",
"E  c #AEB1B8",
"W  c #AEB1B9",
"Q  c #B1B4BA",
"!  c #B1B4BB",
"~  c #B3B5BD",
"^  c #B4B7BD",
"/  c #B5B7BF",
"(  c #B3B6BD",
")  c #B6B8BF",
"_  c #B7BAC1",
"`  c #B7BAC1",
"'  c #B8BBC1",
"]  c #BABCC3",
"[  c #BABDC3",
"{  c #BCBEC4",
"}  c #BCBFC5",
"|  c #BBBEC4",
" . c #BDC0C6",
".. c #BFC1C7",
"X. c #BEC1C7",
"o. c #C0C2C8",
"O. c #C1C4C9",
"+. c #C4C6CB",
"@. c #C1C4CA",
"#. c #C8CACF",
"$. c #CACCD2",
"%. c #CBCDD2",
"&. c #CCCDD2",
"*. c #CDCFD3",
"=. c #CCCED3",
"-. c #CFD1D6",
";. c #CFD1D5",
":. c #D2D4D8",
">. c #D5D7DB",
",. c #D4D5D9",
"<. c #D7D8DC",
"1. c #D8DADD",
"2. c #DADBDF",
"3. c #DDDFE1",
"4. c #DFE0E3",
"5. c #E0E1E4",
"6. c #E2E2E5",
"7. c #E2E3E6",
"8. c #E5E6E8",
"9. c #E6E7E9",
"0. c #E7E8EA",
"q. c #E9EAEC",
"w. c #ECECEE",
"e. c #ECEDEF",
/* pixels */
"                                                  t j x c B B c z j t                                                   ",
"                                                  w :.k N ! ! N b :.w                                                   ",
"                                                  7 u g g _ _ g b u 7                                                   ",
"                                            y c x 3 j 7 g b b g 9 j 3 x b y                                             ",
"                                        w Z p S S 5 x y ; l l ; y x 5 S D p Z w                                         ",
"                                      h F ! g ^ %.9 N p > t t > i N 9 %.] g ! F h 7                                     ",
"                                  9 n } ^ 8.H z T , Z p y 9 9 y d Z , T v H 8.^ } D 9                                   ",
"                            6   i S K o.8.1.B : 6 % U i s j j s i U % 6 ; B 1.8.o.T S i   6                             ",
"                          0 -.w M S  .8.C i > # # ; 5 3 q g g q 6 5 ; # # > i C 8.%.S M w -.y                           ",
"                        t e.D k 6  .~ k 7 * $ : * $ + . . . . . . + $ * : $ * 7 k H  .6 k D q.t                         ",
"                      e 1.J z b g 5 i , # * ; % # .                 . # % ; * # , t 5 g b z U 1.e                       ",
"                      F x ^ B i C * O O - % % +                         + % % - O $ * C i B @.x F                       ",
"                    z V a d d p h y . & # O .                             . O # & O y h p d s a V z                     ",
"                    , h i w w s k . & O $                                     $ O # . k s w 9 i h ,                     ",
"                    i 6 k j y x + $ + .                                         . O $ + x y h k 6 f                     ",
"                    J ! i y M % # O .                                               O # % M s i ! J 9                   ",
"                  s J &.} - O $ # .                                                 . # $ O * } &.J s                   ",
"                  C H >.n ; # O #                                                     # O # - n >.H D                   ",
"                  F K e.i $ # .                                                         . # # i e.K D p                 ",
"                i B 4.E 3 + + .                                                         . + # 3 E 4.Z a                 ",
"                f N C z & % O &                                                         & O $ & z C H f                 ",
"                d +.n , X + O ;                                                         ; O @ X , n &.d                 ",
"            9 q n A a ; O O . >                                                         > . O O ; a A n q 9             ",
"            ' ] 0.6.Z s 7 * O ;                                                         ; O % 7 s Z 6.0.] '             ",
"            f N J S d t - # O >                                                         > O O - t d C J N f             ",
"            * g c n n t , O , 9                                                         9 , # , t n M M d +             ",
"            % p n _ x q < . O 3                                                         3 O . 0 w x _ n q %             ",
"            % p r S h 6 1 . + q                                                         q + . w 6 h S r q =             ",
"            % s y a 9 : < . # 6                                                         6 # . e , 9 a y q =             ",
"            % g ; n : g 3 . + 3                                                         3 + . e g : n ; s -             ",
"            r 7 q q 9 9 u . O :                                                         : O . 3 7 i g d y 9             ",
"            B J &.6.J g 0 3 = 5                                                         5 = , 0 g J 3.&.J B             ",
"            7 i b n p 9 - & O -                                                         - O $ - 9 p c b i 7             ",
"              * q w , + o o O :                                                         : O . o + , w q *               ",
"              6 F ) x 3 . . O :                                                         : O . . 3 x ) F 6               ",
"              6 D #.N 2 o . O -                                                         - O . o 2 N -.D 6               ",
"              7 D >.b 3 o o O ,                                                         , O o o 3 b <.D 7               ",
"              6 S ^ x 3 O O O >                                                         > O O O 3 x  .S 6               ",
"              6 A D g , O O O >                                                         > O O O , g G A 6               ",
"              6 C A s , O O O ;                                                         ; O O O , s V C 6               ",
"              6 Z F g 3 O O O -                                                         - O O O 3 g F Z 6               ",
"              6 Z T g 3 O O . -                                                         - . O O 3 g E Z 6               ",
"              , N } g < O . . %                                                         % . . O < g | N ,               ",
"              , N  .g , o $ 3 9                                                         9 3 % o , g @.N ,               ",
"              , m } g : . # ; :                                                         : ; # . : g ] m ,               ",
"              > x ) s ; . . * p                                                         p * . . ; s ~ x >               ",
"              ; k K y % . . & 9                                                         9 & . . % y J k ;               ",
"              - h J 9 % . . * 6                                                         6 * . . % 9 K h -               ",
"              x S J i - O . % 5                                                         5 % . O - i J S x               ",
"              3 N ! d - O O % ,                                                         , % O O - d E N 3               ",
"            i ; 9 g 3 $ O $ : 3                                                         3 : $ O $ 3 g 9 ; i             ",
"            C U Z n S n C < * #                                                         # * < C n S b Z U C             ",
"            D J Z D Z z p 7 $ #                                                         # $ 5 p z Z H Z J D             ",
"            N z A C p t u 9 % #                                                         # % 6 u t p C A z N             ",
"            n z U D k q 0 , $ @                                                         @ $ > 0 q k B U z n             ",
"            n k N n a 6 5 ; + O                                                         O + = 5 6 a n N k n             ",
"            g j z d w 3 , $ X O                                                         O X $ , 3 w f z j g             ",
"            9 i i y 6 : % . . O                                                         O . . % : 6 y i i 9             ",
"            w 3 < > % $ & > *                                                             * , & $ % ; < 3 w             ",
"            , w 6 y < 5 >                                                                     > 5 < y 6 w ,             "
};
