/* XPM */
static char *_b668b326d6746ed9000d807578c0a48[] = {
/* columns rows colors chars-per-pixel */
"60 60 141 2 ",
"   c None",
".  c #040404",
"X  c #070708",
"o  c #070808",
"O  c #0B0B0C",
"+  c #0E0F10",
"@  c #0F1012",
"#  c #121314",
"$  c #161719",
"%  c #17181A",
"&  c #191A1D",
"*  c #251F1C",
"=  c #1D1E21",
"-  c #1F2024",
";  c #212226",
":  c #2C2826",
">  c #24252A",
",  c #27292D",
"<  c #292A2E",
"1  c #2C2D32",
"2  c #2F3136",
"3  c #2F3238",
"4  c #303237",
"5  c #33353A",
"6  c #37393F",
"7  c #383A3F",
"8  c #413B3A",
"9  c #373940",
"0  c #3A3C43",
"q  c #3E4047",
"w  c #3F4249",
"e  c #464243",
"r  c #42454C",
"t  c #45484F",
"y  c #494A4D",
"u  c #5A4F4C",
"i  c #464951",
"p  c #4A4C54",
"a  c #4D4F58",
"s  c #4D5057",
"d  c #4E515A",
"f  c #555255",
"g  c #5B5556",
"h  c #52555E",
"j  c #585A5D",
"k  c #625654",
"l  c #535760",
"z  c #565963",
"x  c #595D66",
"c  c #5B5F69",
"v  c #5D616B",
"b  c #61646E",
"n  c #66686F",
"m  c #726D6E",
"M  c #626670",
"N  c #656A74",
"B  c #696D77",
"V  c #6A6E79",
"C  c #6D727E",
"Z  c #70737E",
"A  c #6F7481",
"S  c #727682",
"D  c #767A86",
"F  c #797C86",
"G  c #767B88",
"H  c #7A7E89",
"J  c #7D828D",
"K  c #7F8390",
"L  c #82848D",
"P  c #828691",
"I  c #868A95",
"U  c #898C94",
"Y  c #8A8E99",
"T  c #8D919C",
"R  c #91959F",
"E  c #9296A0",
"W  c #9599A3",
"Q  c #999CA6",
"!  c #9B9FA8",
"~  c #9DA1AA",
"^  c #9FA3AB",
"/  c #A1A5AE",
"(  c #A2A6AE",
")  c #A4A7AF",
"_  c #A1A4AD",
"`  c #A4A7B0",
"'  c #A1A6B3",
"]  c #A6A9B1",
"[  c #A7AAB2",
"{  c #A4A8B0",
"}  c #A6A9B2",
"|  c #A8ABB3",
" . c #ABADB5",
".. c #A8ACB4",
"X. c #AAACB4",
"o. c #AEB1B8",
"O. c #ADB1B9",
"+. c #B1B4BA",
"@. c #B1B4BB",
"#. c #B3B5BD",
"$. c #B4B7BD",
"%. c #B5B7BF",
"&. c #B3B6BD",
"*. c #B6B8BF",
"=. c #B7BAC1",
"-. c #B7BAC1",
";. c #BABDC3",
":. c #BCBEC4",
">. c #BCBFC5",
",. c #BABDC3",
"<. c #BDC0C6",
"1. c #BFC1C7",
"2. c #BEC1C7",
"3. c #BEC1CC",
"4. c #C0C2C8",
"5. c #C1C4C9",
"6. c #C3C5CB",
"7. c #C8CACF",
"8. c #C2C6D1",
"9. c #CBCDD2",
"0. c #CACCD2",
"q. c #CDCFD3",
"w. c #CCCED3",
"e. c #CFD1D6",
"r. c #CFD1D5",
"t. c #D2D4D8",
"y. c #D5D7DB",
"u. c #D4D5D9",
"i. c #D7D8DC",
"p. c #D8DADD",
"a. c #DADBDF",
"s. c #DBDDE1",
"d. c #DFE0E3",
"f. c #E1E2E5",
"g. c #E5E6E8",
"h. c #E6E7E9",
"j. c #E7E8EA",
"k. c #E9EAEC",
"l. c #ECECEE",
"z. c #ECEDEF",
"x. c #ECEEF1",
/* pixels */
"                                                  d V D F I I F S V d                                                   ",
"                                                  p t.C P @.@.P H t.p                                                   ",
"                                                  q l N N =.=.N H l q                                                   ",
"                                            h F D 5 V w N H H N r V 5 D H h                                             ",
"                                        p T x E E 7 D h > Z Z > h D 7 E W x T p                                         ",
"                                      B Q @.N $.9.r P x < d d < z P r 9.;.N @.Q B w                                     ",
"                                  r J >.$.g.~ S  .1 T x h r r h b T 1  .G ~ g.$.>.W r                                   ",
"                            0   z E { 4.g.p.I , 0 % | z v V V v z | % 0 > I p.g.4. .E z   0                             ",
"                          t e.p L E <.g.Y z < # # > 7 5 i N N i 0 7 > # # < z Y g.9.E L p e.h                           ",
"                        d z.W C 0 <.#.C w = $ , = $ + . . . . . . + $ = , $ = w C ~ <.0 C W k.d                         ",
"                      a p.( S H N 7 z 1 # = > % # .                 # # % > = # 1 d 7 N H S | p.a                       ",
"                      Q D $.I z Y = O O ; % % +                         # % % ; O $ = Y z I 5.D Q                       ",
"                    S U c b b x B h . & # O .                             # + # & O h B x b v c U S                     ",
"                    1 B z p p v C . & O % p                                 S ; O # . C v p r z B 1                     ",
"                    z 0 C V h D + $ + O v x                                 ! V O O $ + D h B C 0 M                     ",
"                    ) @.z h L % # O . i - v                                 ` , h 5 O # % L v z @.) r                   ",
"                  v ( q.>.; O $ # O z % < b                                 { 2 5 d O # $ O = >.q.( v                   ",
"                  Y ~ y.J > # O # H i = 0 v                                 ~ r ; x I # O # ; J y.~ W                   ",
"                  Q { z.z $ # . z p = < z v                                 R c 1 ; p h . # # z z.{ W x                 ",
"                z I d.o.5 + + . c = 5 , v x                                 I M 5 h > J . + # 5 o.d.T c                 ",
"                M P Y S & % O - C h i p N z                                 S H h w v ( - O $ & S Y ~ M                 ",
"                b 6.J 1 X + O r V 5 > 2 r x                                 D d 5 r 5 Q r O @ X 1 J q.b                 ",
"            r i J R c > O O . r C > 1 7 d z                                 V z q M w { r . O O > c R J i r             ",
"            -.;.j.f.T v q = + r v % < z 5 z                                 N 5 b A 5 T 0 = % q v T f.j.;.-.            ",
"            M P ( E b d ; # @ 1 t % % 0 v d                                 z v c z 5 N 7 = O ; d b Y ( P M             ",
"            = N H J J d 1 O 1 r 1 % & x x                               P 3.B 1 P d 5 d z h # 1 d J L L b +             ",
"            % x J =.D i 2 . O 5 % $ ; p q                             j x.s.n q r 2 5 r t 5 . t p D =.J i %             ",
"            % x s E B 0 3 . + i - $ r H                               D ' o.3.x h 0 5 p z 0 . p 0 B E s i -             ",
"            % v h c r , 2 . # 0 = O & w                               x.V F z x l 7 = r i 5 . a 1 r c h i -             ",
"            % N > J , N 5 . + 5 & w % 5                             5 W C r y > i 5 V 0 r 5 . a N , J > v ;             ",
"            s q i i r r l . O , $ 0 -                                 8.x f  .z 1 5 V 5 0 > . 5 w z N b h r             ",
"            I _ q.f.( N t 5 - 7 % $ $                               4 ' i = r D 0 0 t 5 d l 1 t N ( s.q._ I             ",
"            q z H J x r ; & O ; - O ;                               8.I a M S 5 # 5 ; q , & $ ; r x F H z q             ",
"              = i p 1 + o o O , , + 0                               Z p T r < , p q > p < # . o + 1 p i =               ",
"              0 Q *.D 5 . . O , < O p                               g m p V t h = 1 , d 1 # O . 5 D *.Q 0               ",
"              0 W 7.P 4 o . O ; , 1 ,                               g u g x % l > 5 q p 1 # O o 4 P e.W 0               ",
"              w W y.H 5 o o O 1 5 4 O ;                             > e 8 e N i > 5 x z 1 $ + o 5 H i.W w               ",
"              0 E $.D 5 O O O < 1 # > 5                               k g t O z 5 q 2 h 1 $ # O 5 D <.E 0               ",
"              0 R W N 1 O O O < 5 O % 5 =                             : * ; % + d % - h 4 % # O 1 N ! R 0               ",
"              0 Y R v 1 O O O > 1 O O # r ,                             M z = 2 1 ; = h 1 % $ O 1 v U Y 0               ",
"              0 T Q N 5 O O O ; > + 5 1 1 2                                 7 z d B > i 1 % $ O 5 N Q T 0               ",
"              0 T  .N 5 O O . ; - . 1 > = ,                                 1 < i < O w 1 $ # O 5 N o.T 0               ",
"              1 P >.N 2 O . . % = . . @ h 1                                 2 S 2 @ $ w ; # O O 2 N :.P 1               ",
"              1 P <.N 1 o $ 5 r = 0 d ; = 1                                 2 0 5 i x r & @ % o 1 N 5.P 1               ",
"              1 K >.N , . # > , O $ , % % >                                 < 5 5 d 1 ; d r > . , N ;.K 1               ",
"              < D *.v > . . = x # 5 @ = = 1                                 1 0 q r h 0 R 7 . . > v #.D <               ",
"              > C { h % . . & r # O O 5 ; 5                                 0 r h i > 5 S 5 . . % h ( C >               ",
"              ; B ( r % . . = 0 @ = = X 0 <                                 2 x % $ 0 5 b 5 X . % r { B ;               ",
"              D E ( z ; O . % 7 + . . 4 a 1                                 4 N z + # 2 z 1 . O ; z ( E D               ",
"              5 P @.b ; O O % 1 $ 1 9 = h ;                                 > C 0 z z 0 z 7 % O ; b o.P 5               ",
"            z > r N 5 $ O $ , 5 % 5 = v 7 2                                 5 z W N h w 5 ; % O $ 5 N r > z             ",
"            Y | T J E J Y 2 = # , h N < , >                                 , i p v T p % < 2 Y J E H T | Y             ",
"            W _ T W T S x w $ # h < ; > 7 =                                 > z i h i J ; $ 7 x S T ~ T _ W             ",
"            P S R Y x d l r % # 5 5 > % % #                                 = 5 5 t v x ; % 0 l d x Y R S P             ",
"            J S | W C i t 1 $ @ - 1 % % O                                     , 5 - r t $ $ < t i C I | S J             ",
"            J C P J c 0 7 > + O - # @                                           $ 7 1 5 # + - 7 0 c J P C J             ",
"            N V S b p 5 1 $ X O %                                                   O 0 O X $ 1 5 p M S V N             ",
"            r z z h 0 , % . . O                                                       O O . . % , 0 h z z r             ",
"            p 5 2 < % $ & < =                                                             = 1 & $ % > 2 5 p             ",
"            1 p 0 h 2 7 <                                                                     < 7 2 h 0 p 1             "
};
