/* XPM */
static char *_b6a0a64af134f32a60f2bf1eadcd660[] = {
/* columns rows colors chars-per-pixel */
"60 60 166 2 ",
"   c None",
".  c #040405",
"X  c #070708",
"o  c #070808",
"O  c #0B0B0C",
"+  c #0E0F10",
"@  c #0F1011",
"#  c #121214",
"$  c #181617",
"%  c #161719",
"&  c #17181A",
"*  c #191A1D",
"=  c #371B1D",
"-  c #1D1E21",
";  c #371E22",
":  c #1F2023",
">  c #212226",
",  c #24262A",
"<  c #27282D",
"1  c #292A2E",
"2  c #2A2726",
"3  c #3C272C",
"4  c #3A322E",
"5  c #2B2D32",
"6  c #2F3136",
"7  c #2F3238",
"8  c #313237",
"9  c #3C3634",
"0  c #32343A",
"q  c #36393E",
"w  c #3A3A3F",
"e  c #581214",
"r  c #681618",
"t  c #452A2E",
"y  c #413E3E",
"u  c #49383D",
"i  c #53383C",
"p  c #7B2D31",
"a  c #68383D",
"s  c #6A3034",
"d  c #713539",
"f  c #373A40",
"g  c #3A3D43",
"h  c #4B3E43",
"j  c #523E42",
"k  c #3E4047",
"l  c #3F4249",
"z  c #4C4647",
"x  c #42454C",
"c  c #45484F",
"v  c #4C494C",
"b  c #4D4249",
"n  c #534D4C",
"m  c #464951",
"M  c #4A4D54",
"N  c #4D4F58",
"B  c #564D54",
"V  c #4D5057",
"C  c #4E5159",
"Z  c #5C5254",
"A  c #52555E",
"S  c #57595C",
"D  c #5B5758",
"F  c #6A4D54",
"G  c #685258",
"H  c #535760",
"J  c #565A63",
"K  c #595C66",
"L  c #5B5F69",
"P  c #7C5A62",
"I  c #5E626B",
"U  c #61646E",
"Y  c #66696F",
"T  c #686568",
"R  c #626670",
"E  c #6A6771",
"W  c #656A74",
"Q  c #696C76",
"!  c #6A6E79",
"~  c #766971",
"^  c #6E7077",
"/  c #6D717C",
"(  c #757375",
")  c #72757F",
"_  c #891B1D",
"`  c #9D1818",
"'  c #961E20",
"]  c #842123",
"[  c #8B2E30",
"{  c #A32B2D",
"}  c #874C51",
"|  c #8E565D",
" . c #9B5358",
".. c #BD5C59",
"X. c #886D76",
"o. c #906F78",
"O. c #966871",
"+. c #8C747D",
"@. c #727682",
"#. c #787580",
"$. c #767A85",
"%. c #797C86",
"&. c #797E89",
"*. c #767B88",
"=. c #8A7A84",
"-. c #947B84",
";. c #A67F86",
":. c #C87D80",
">. c #7D828D",
",. c #7F8390",
"<. c #81848E",
"1. c #8B8688",
"2. c #818691",
"3. c #868A95",
"4. c #898C95",
"5. c #8A8E99",
"6. c #998A96",
"7. c #8D919C",
"8. c #91949F",
"9. c #AD8D97",
"0. c #A1919B",
"q. c #9296A0",
"w. c #969AA3",
"e. c #999CA6",
"r. c #9C9FA8",
"t. c #B896A0",
"y. c #9EA1AA",
"u. c #A2A6AE",
"i. c #A4A7AF",
"p. c #A1A4AD",
"a. c #A6A9B2",
"s. c #A5A9B1",
"d. c #A8ABB3",
"f. c #ABADB5",
"g. c #A9ACB4",
"h. c #A4A7B0",
"j. c #B5AFBB",
"k. c #AFB2BA",
"l. c #AEB1B9",
"z. c #B1B4BB",
"x. c #B5B7BE",
"c. c #B2B5BC",
"v. c #B6B8BF",
"b. c #E49E9F",
"n. c #D69EA6",
"m. c #B7BAC1",
"M. c #BCBFC5",
"N. c #BABDC3",
"B. c #BEC1C7",
"V. c #BFC1C7",
"C. c #C2C4CA",
"Z. c #C8CACF",
"A. c #CBCDD2",
"S. c #CDCFD3",
"D. c #CCCED3",
"F. c #CFD1D6",
"G. c #D4D5D9",
"H. c #D9DBDE",
"J. c #D7D8DC",
"K. c #DDDFE1",
"L. c #DFE0E3",
"P. c #E1E2E5",
"I. c #E5E6E8",
"U. c #E6E7E9",
"Y. c #E7E8EA",
"T. c #EBEBED",
/* pixels */
"                                                  C ! $.%.3.3.%.@.! C                                                   ",
"                                                  M G./ 2.z.z.2.&.G.M                                                   ",
"                                                  k H Q Q m.m.Q &.H k                                                   ",
"                                            A %.$.0 ! l W &.&.W x ! 0 $.&.A                                             ",
"                                        M 7.K q.q.q $.A , ) ) , A $.q q.w.K 7.M                                         ",
"                                      Q e.z.W x.A.x 2.K 1 C C 1 J 2.x A.N.W z.e.Q l                                     ",
"                                  x >.M.x.I.y.@.f.5 7.K A x x A U 7.5 f.*.y.I.x.M.e.x                                   ",
"                            g   J q.s.C.I.H.3.< g & d.J I ! ! I J d.& g , 3.H.I.C.f.q.J   g                             ",
"                          c F.M <.q.B.I.5.J 1 # # > q 0 m Q Q m g q > # # 1 J 5.I.A.q.<.M F.A                           ",
"                        C T.w./ g B.c./ l - % < - % + X X X X O + + % - < % - l / y.B.g / w.T.C                         ",
"                      N H.i.@.&.W w J 5 # - > & # q %.s.r.m m r.y.U > # & > - # 5 C w W &.@.d.H.N                       ",
"                      e.$.x.3.J 5.- o O > & & > @.7.y.v.f.I I f.f.y.3.! > & & > O % - 5.J 3.C.$.e.                      ",
"                    @.4.L U U K Q A X * # # c $.8.y.z.P.<.2.2.<.I.z.y.8.&.J - # * o A Q K U I L 4.@.                    ",
"                    5 Q J M M I / X * O g >.8.i.z.e.^ U 7.3.3.7.Q ^ e.z.h.8.>.k O # X / I M x J Q 5                     ",
"                    J g / ! A $.+ % @ M 5.y.s.r.c @.e.I k.2.2.k.I e.@.c r.s.y.5.M O % + $.A Q / g R                     ",
"                    i.z.J A <.& # O x 5.8.3.^ 7.0 > * / M.i.i.M.! * > 0 7.^ 3.8.4.J o # & <.I J z.i.x                   ",
"                  I i.D.M.> O % # g 3.7.&.A / , 0 q g &.k.i.i.k.Q g q 0 > / A &.7.3.6 # % O - M.D.i.I                   ",
"                  5.y.J.>., % O - <.2.5.k Q # 5 k g W ! k.5.5.k./ W g k 5 # Q k 5.3.<.> O % > >.J.y.w.                  ",
"                  e.s.T.J % % X ^ 2.5.l g > 5 x 8 M &.$.B.q.q.B.e.&.M 8 x 5 > g l 5.2.I X % # J T.s.w.K                 ",
"                J 3.L.k.0 + + O / r.3.5 1 C A - ,.&.$.x.f.7.7.f.f.$.&.,.& A C 1 5 0 r./ O + # 0 k.L.7.L                 ",
"                R 3.5.@.* & o q 2.k.C / ! K Y 3.8 $.m.m i.>.>.i.c m.$.8 3.Y K ! / J k.<.g o % * @.5.y.R                 ",
"                U C.>.5 X + o K 3.m 3.A < 5 1 x Q C.x C r.2.2.r.C x C.Q x 1 5 < A U m 3.I o @ X 5 >.D.U                 ",
"            x m >.8.L > o o O / e.x m x x A 8 C C Q &.M f.>.>.f.H &.Q C A 8 A x x 5 x e.@.O o O > L 8.>.m x             ",
"            m.N.Y.P.7.I k - & &.w.m # 8 q m m Q ! g Q 7.c.&.&.c.>.Q g ! Q m m q 8 * m w.&.& & k I 7.P.Y.N.m.            ",
"            R 2.i.q.U C > # & J m 8 & 0 8 @.f.3.m l m &.i./ / i.&.m l m 2.f.@.8 0 5 8 m J & O > C U 5.i.2.R             ",
"            - W %.>.>.C 5 O 5 - g 6 : 0 8 x c I Q / m.m.$.M M $.f.m./ Q I c x 8 0 5 6 g - 5 # 5 C >.<.<.U +             ",
"            & K >.m.$.m 6 . > - 8 - > 5 g > &.I 7.w.L M J W x x m J q.7.K &.> g 5 0 - 8 * > . c M $.m.>.m &             ",
"            & K V q.Q g 7 . & > 5 * > q g g & ) s.A x 5.Q K c I q 0 g s.%.& g g q 5 * 5 > & . M g Q q.V m :             ",
"            & I A L x < 6 . & & 6 & > - 4.< L C.W Q #.b C 0 M M B <.5 J C.L < 4.- < & 6 & & . N 5 x L A m :             ",
"            & Q > >.< Q 0 . & % 8 % 5 $.6 g H c w ~ X.0.Z M U 4.-.P t q c H g 6 $.5 % 8 % & . N Q < >.> I >             ",
"            V k m m x x H . # # 6 & M J 5 0 H 6 E s  .] F E h a _ [ e E 5 H 0 5 J @.& 6 # # . 0 l J W U A x             ",
"            3.p.D.P.i.Q c 0 > % 5 C ! - 0 ^ M 6 u } b.n.d T.r.p ..:.r 3 6 M ^ 0 - @.C 5 % > 5 c Q i.K.D.p.3.            ",
"            k J &.>.K x > * O 8 6 J L > q A k 1 T ;.{ ' +.e.E d ` ` o.; < k A q > x J 6 8 O % > x K %.&.J k             ",
"              - m M 5 + o o O M 8 g q > ) $.5 % B 6.t.9.C.Q ) =.| O.G A : 5 $.) > o g 8 M O X o + 5 M m -               ",
"              g e.v.$.0 X X # J 0 l O > 7.@.5 1 5 u =.j.E q c j F i = 0 : , @.7.> & l 0 J # X X 0 $.v.e.g               ",
"              g w.Z.2.8 o X # J g g @ & %.I l 1 > U U v E S ( ( z w W , * k I %.& - g g J # X o 8 2.F.w.g               ",
"              l w.J.&.8 o o % J , 6 & @.R m J > * c g 1.1.T 2 y T X x * * J m R @.5 6 , J % X o 8 &.J.w.l               ",
"              g q.x.$.8 o o * R x : I < q 0 J 6 - 8 <.9 9 2 O X 9 A , * 5 J 0 q < I : x R * o o 8 $.B.q.g               ",
"              g q.e.W 5 o O : ! 0 k M , O : K J % : C 5 $ % > n y N & % J K : O , g k 0 ! : O o 5 W r.8.g               ",
"              g 5.8.I 5 o O : R g g 5 + K % M K A % > q.D Z 4 n S 6 & A K M % K + & g g R : O o 5 I 4.5.g               ",
"              g 7.e.W 0 O O % I c x O g - - # c J g & x S z v * C & g J M # - - g O x c I % O O 0 W e.7.g               ",
"              g 7.f.Q 8 o o & K 0 6 o q k > - O A J J 8 M , 1 c 6 J J A O - > k q & 6 0 K & o o 8 Q k.7.g               ",
"              5 2.M.Q 6 o X # J , 8 + # J M I Q , & / 7.>.0 0 >.3./ & , W I M J # o 8 , J # X o 6 Q M.2.5               ",
"              5 2.B.Q 5 o - g < , N & O O - > q c m # 1 $.g g $.m # m c g > - O O @ N , < g - o 5 Q C.2.5               ",
"              5 ,.M.Q < X # > # - q M I R % o * x R U - A x x A > U R x - o % R I M q - # > # X < Q N.,.5               ",
"              1 $.v.I > X . 5 , - > > 6 I Q 6 x , 1 2.>.A M M A K 2.1 , l 6 Q I 6 , > - , 5 X X > I c.$.1               ",
"              , / s.A & X . 1 - * 0 - C , x 0 & A 8 - 1 K M M K 5 - 8 A % 0 x , C q 0 * - 1 X X & A i./ ,               ",
"              > Q i.x & X . 5 & & f x - 8 A x , 8 > > 0 H f f H 6 > > 8 > x A 8 - g f & & 5 X X & x s.Q >               ",
"              $.q.i.J > o . > % : x - * # M k A 5 5 < g q 3.3.q 0 < 5 5 J k M # * 0 x : % > X o > J i.q.$.              ",
"              0 2.z.U > O # , % : M o < 5 O O < 5 : A l 8.A A 8.g A : 5 1 O O 5 < + M : % , # O > U k.2.0               ",
"            J , x W 8 % O & > + , I < - % O % 1 > g J R ) 4.4.) 3.J g > 5 % O % - > I , + > % O % 8 W x , J             ",
"            5.d.7.>.q.>.5.6 & & 0 Q &.2./ x W I A K A 5.g y.y.g $.A K A I W x / 2.&.Q 0 & & 6 5.>.q.&.7.d.5.            ",
"            e.p.7.e.7.@.K l % 5 N C m J M M x C M K e.c M 7.7.M c e.K M C x M M J m C N 5 % q K @.7.y.7.p.e.            ",
"            2.@.8.5.K C H x & g ! @.! / $./ / ! U Q l W x U U x Q l Q U ! / / $./ / @.! g & g H C K 5.8.@.2.            ",
"            >.@.d.w./ m c 5 % 1 M k M A c c K C g C x C $.R R $.L x C g C K c c A x k M 1 % 1 c m / 3.d.@.>.            ",
"            >./ 2.>.L g w > + 5 k g g C x x m g c H C m A C C A g C H c g m x x C 0 g k 5 + : w g L >.2./ >.            ",
"            Q ! @.U M 0 5 % X & - & : > 5 < < > > , U , q g g q 8 U , > > < < 5 > & & - & X % 5 0 M R @.! Q             ",
"            x J J A g < & X X * : - - > < , , , , > > > > : : > > > > , , , , < > - - : * X X & < g A J J x             ",
"            M 0 6 1 & % * 1 -                                                             - 5 * % & , 6 0 M             ",
"            5 M g A 6 q 1                                                                     1 q 6 A g M 5             "
};
