/* XPM */
static char *_5f772fd5bb946c598933c2fffea19e1[] = {
/* columns rows colors chars-per-pixel */
"60 60 110 2 ",
"   c None",
".  c #040404",
"X  c gray2",
"o  c #060606",
"O  c #070707",
"+  c gray3",
"@  c #090909",
"#  c gray4",
"$  c #0B0B0B",
"%  c #0C0C0C",
"&  c gray5",
"*  c #0E0E0E",
"=  c gray6",
"-  c #101010",
";  c #111111",
":  c gray7",
">  c #131313",
",  c gray8",
"<  c #151515",
"1  c #161616",
"2  c gray9",
"3  c #181818",
"4  c #191919",
"5  c gray10",
"6  c #1B1B1B",
"7  c gray11",
"8  c #1D1D1D",
"9  c #1E1E1E",
"0  c gray12",
"q  c #202020",
"w  c gray13",
"e  c #222222",
"r  c #232323",
"t  c gray14",
"y  c #252525",
"u  c gray15",
"i  c #272727",
"p  c #282828",
"a  c gray16",
"s  c #2A2A2A",
"d  c gray17",
"f  c #2C2C2C",
"g  c #2D2D2D",
"h  c gray18",
"j  c #2F2F2F",
"k  c gray19",
"l  c #313131",
"z  c #323232",
"x  c gray20",
"c  c #343434",
"v  c #353535",
"b  c gray21",
"n  c #373737",
"m  c gray22",
"M  c #393939",
"N  c #3A3A3A",
"B  c gray23",
"V  c #3C3C3C",
"C  c gray24",
"Z  c #3E3E3E",
"A  c #3F3F3F",
"S  c gray25",
"D  c #414141",
"F  c gray26",
"G  c #434343",
"H  c #444444",
"J  c gray27",
"K  c #464646",
"L  c gray28",
"P  c #484848",
"I  c #494949",
"U  c gray29",
"Y  c #4B4B4B",
"T  c #4C4C4C",
"R  c gray30",
"E  c #4E4E4E",
"W  c gray31",
"Q  c #505050",
"!  c #515151",
"~  c gray32",
"^  c #535353",
"/  c gray33",
"(  c #555555",
")  c #565656",
"_  c gray34",
"`  c #585858",
"'  c gray35",
"]  c #5A5A5A",
"[  c #5B5B5B",
"{  c gray36",
"}  c #5D5D5D",
"|  c gray37",
" . c #5F5F5F",
".. c #606060",
"X. c gray38",
"o. c #626262",
"O. c gray39",
"+. c #646464",
"@. c #656565",
"#. c gray40",
"$. c #676767",
"%. c #686868",
"&. c DimGray",
"*. c #6A6A6A",
"=. c gray42",
"-. c #6C6C6C",
";. c #6D6D6D",
":. c gray43",
">. c #6F6F6F",
",. c gray44",
/* pixels */
"                                                                                                                        ",
"                                                                                                                        ",
"                                                                                                                        ",
"                                                                                                                        ",
"                                                -.-.-.-.,.,.,.-.-.-.-.                                                  ",
"                                            +.%.%.%.%.%.-.-.-.-.-.-.%.%.%.%.                                            ",
"                                          o.o.+.+.+.+.+.%.%.%.%.%.%.+.+.+.+.o.                                          ",
"                                      [ } } o.o.o.o.+.+.+.+.+.+.+.+.+.o.o.o.o.}                                         ",
"                                    ( [ [ [ } } } o.} o.o.o.o.o.o.o.o.} } } } [ [                                       ",
"                                  ~ ~ ( ( [ [ [ } } } } } } } } } } } } [ [ [ [ ( (                                     ",
"                                P W ~ ~ ~ ( ( ( [ [ [ [ [ [ [ [ [ [ [ [ ( ( ( ( ~ ~ ~                                   ",
"                                P P W W W ~ ~ ~ ( ( ( ( ( ( ( ( ( ( ( ( ( ~ ~ ~ ~ W W P                                 ",
"                              D L L P P W W W W ~ ~ ~ ~ ~ ~ ~ ~ ~ ~ ~ ~ ~ ~ W W P P P L                                 ",
"                            C D D L L L P P P W W W W W W W ~ ~ W W W W W W P P P L L D D                               ",
"                            B C C D D L L L L P P P P P P P W W P P P P P P L L L D D D C C                             ",
"                          v v B B C C D D D L L L L L P P P P P P L L L L L D D D D C C B B                             ",
"                          x v v B B C C C C D D D D D L L L L L L D D D D D D C C C C B v v                             ",
"                        h h x x v v B B B B C C C C D D D D D D D D C C C C C C B B v v v x x                           ",
"                        d d h h x x v v B B B B B B C C C C C C C C C C B B B B v v v x x x h                           ",
"                        t d d d h x x x x v v v B B B B B B B B B B B B v v v v v x x h h h d                           ",
"                      r r t t d d h h h x x x x v v v v v v v v v v v v x x x x x h h h d d t t                         ",
"                      0 r r r t d d d d h h h x x x x x x x x x x x x x x h h h h d d d t t t r                         ",
"                      6 0 0 r r r t t t d d d h h h h h h h h h h h h h h h h d d d t t t r r r                         ",
"                      2 6 0 0 0 r r r t t t d d d d d d h h h d d d d d d d d t t t r r r r 0 0 6                       ",
"                      2 2 6 6 0 0 0 r r r r t t t t t t d d t t d d t t t t t r r r r 0 0 0 6 6 6                       ",
"                      : 2 2 2 6 6 0 0 0 0 0 r r r t t t t t t t t t r r r r r r 0 0 0 6 6 6 6 2 2                       ",
"                    * * : : 2 2 2 2 6 6 0 0 0 0 0 r r r r r r r r r r 0 0 0 0 0 6 6 6 6 6 2 2 2 :                       ",
"                    * * * : : : : 2 2 2 6 6 6 6 6 0 0 0 0 0 0 0 0 0 6 6 6 6 6 6 6 6 2 2 2 : : : :                       ",
"                    $ * * * * : : : : : 2 2 2 6 6 6 6 6 6 6 6 6 6 6 6 6 6 6 6 2 2 2 2 : : : : * *                       ",
"                    $ $ $ * * * * * : : : : : : 2 2 2 2 2 2 2 2 2 2 2 2 2 2 2 2 : : : : : * * * *                       ",
"                    $ $ $ * * * * : : : : : 2 2 2 2 2 2 2 2 2 2 2 2 2 2 2 2 2 2 : : : : : : * * *                       ",
"                    $ $ $ $ * * * * : : : : : : 2 2 2 2 2 2 2 2 2 2 2 2 : 2 2 : : : : : : * * * *                       ",
"                    X X $ $ $ $ * * * * * : : : : : : : : : : : : : : : : : : : : * * * * * $ $ $                       ",
"                    X X X $ $ $ $ $ * * * * * * * : : : : : : : : : : : : : * * * * * * $ $ $ $ $                       ",
"                    X X X X X $ $ $ $ $ $ * * * * * * * * * * * * * * * * * * * * * $ $ $ $ $ X X                       ",
"                    X X X X X X X X $ $ $ $ $ $ $ $ * * * * * * * * * * * $ $ $ $ $ $ $ $ X X X X                       ",
"                    X X X X X X X X X X $ $ $ $ $ $ $ $ $ $ $ $ $ $ $ $ $ $ $ $ $ $ $ X X X X X X                       ",
"                    X X X X X X X X X X X X X X X $ $ $ $ $ $ $ $ $ $ $ $ X X X X X X X X X X X X                       ",
"                    X X X X X X X X X X X X X X X X X X X X X X X X X X X X X X X X X X X X X X X                       ",
"                    X X X X X X X X X X X X X X X X X X X X X X X X X X X X X X X X X X X X X X X                       ",
"                    X X X X X X X X X X X X X X X X X X X X X X X X X X X X X X X X X X X X X X X                       ",
"                    X X X X X X X X X X X X X X X X X X X X X X X X X X X X X X X X X X X X X X X                       ",
"                    X X X X X X X X X X X X X X X X X X X X X X X X X X X X X X X X X X X X X X X                       ",
"                    $ $ $ $ $ $ $ $ $ $ $ $ $ $ $ $ $ $ $ $ $ $ $ $ $ $ $ $ $ $ $ $ $ $ $ $ $ $ $                       ",
"                    $ $ $ $ $ $ $ $ $ $ $ $ $ $ $ $ $ $ $ $ $ $ $ $ $ $ $ $ $ $ $ $ $ $ $ $ $ $ $                       ",
"                    $ $ $ $ $ $ $ $ $ $ $ $ $ $ $ $ $ $ $ $ $ $ $ $ $ $ $ $ $ $ $ $ $ $ $ $ $ $ $                       ",
"                    $ $ $ $ $ $ $ $ $ $ $ $ $ $ $ $ $ $ $ $ $ $ $ $ $ $ $ $ $ $ $ $ $ $ $ $ $ $ $                       ",
"                    $ $ $ $ $ $ $ $ $ $ $ $ $ $ $ $ $ $ $ $ $ $ $ $ $ $ $ $ $ $ $ $ $ $ $ $ $ $ $                       ",
"                    $ $ $ $ $ $ $ $ $ $ $ $ $ $ $ $ $ $ $ $ $ $ $ $ $ $ $ $ $ $ $ $ $ $ $ $ $ $ $                       ",
"                    $ $ $ $ $ $ $ $ $ $ $ $ $ $ $ $ $ $ $ $ $ $ $ $ $ $ $ $ $ $ $ $ $ $ $ $ $ $ $                       ",
"                    $ $ $ $ $ $ $ $ $ $ $ $ $ $ $ $ $ $ $ $ $ $ $ $ $ $ $ $ $ $ $ $ $ $ $ $ $ $ $                       ",
"                    $ $ $ $ $ $ $ $ $ $ $ $ $ $ $ $ $ $ $ $ $ $ $ $ $ $ $ $ $ $ $ $ $ $ $ $ $ $ $                       ",
"                    $ $ $ $ $ $ $ $ $ $ $ $ $ $ $ $ $ $ $ $ $ $ $ $ $ $ $ $ $ $ $ $ $ $ $ $ $ $ $                       ",
"                    $ $ $ $ $ $ $ $ $ $ $ $ $ $ $ $ $ $ $ $ $ $ $ $ $ $ $ $ $ $ $ $ $ $ $ $ $ $ $                       ",
"                    $ $ $ $ $ $ $ $ $ $ $ $ $ $ $ $ $ $ $ $ $ $ $ $ $ $ $ $ $ $ $ $ $ $ $ $ $ $ $                       ",
"                    $ $ $ $ $ $ $ $ $ $ $ $ $ $ $ $ $ $ $ $ $ $ $ $ $ $ $ $ $ $ $ $ $ $ $ $ $ $ $                       ",
"                                                                                                                        ",
"                                                                                                                        ",
"                                                                                                                        ",
"                                                                                                                        "
};
