/* XPM */
static char *f22edca0cd57466d848fc92fcd2b0649[] = {
/* columns rows colors chars-per-pixel */
"60 60 152 2 ",
"   c None",
".  c #040405",
"X  c #070708",
"o  c #070808",
"O  c #0A0B0C",
"+  c #0E0F10",
"@  c #0F1011",
"#  c #121315",
"$  c #151619",
"%  c #17181A",
"&  c #191A1D",
"*  c #1D1E21",
"=  c #1F2023",
"-  c #212226",
";  c #242629",
":  c #27292D",
">  c #282A2E",
",  c #332A28",
"<  c #2B2D32",
"1  c #2F3136",
"2  c #2F3238",
"3  c #313237",
"4  c #33353B",
"5  c #36393E",
"6  c #383A3E",
"7  c #403633",
"8  c #4A403C",
"9  c #373A40",
"0  c #3B3D43",
"q  c #3E4047",
"w  c #3F4249",
"e  c #42454C",
"r  c #45484F",
"t  c #4D494B",
"y  c #514644",
"u  c #554B47",
"i  c #554D4B",
"p  c #5C514F",
"a  c #464951",
"s  c #4A4D55",
"d  c #4D4F58",
"f  c #504F53",
"g  c #4D5057",
"h  c #4E5159",
"j  c #555456",
"k  c #5D5757",
"l  c #51555D",
"z  c #605B5C",
"x  c #6C5E58",
"c  c #6A605E",
"v  c #535760",
"b  c #565A63",
"n  c #595D66",
"m  c #5B5F69",
"M  c #5F6063",
"N  c #5E626B",
"B  c #6C6465",
"V  c #61656E",
"C  c #7A6E6D",
"Z  c #626671",
"A  c #656A74",
"S  c #696D77",
"D  c #6A6E79",
"F  c #6D727D",
"G  c #737277",
"H  c #71747E",
"J  c #6E7380",
"K  c #727681",
"L  c #767A85",
"P  c #797C86",
"I  c #767B88",
"U  c #7A7E89",
"Y  c #7D828D",
"T  c #7F8391",
"R  c #82858D",
"E  c #828691",
"W  c #868A94",
"Q  c #898C95",
"!  c #8A8E99",
"~  c #8D919C",
"^  c #91949E",
"/  c #9296A1",
"(  c #979BA5",
")  c #9599A3",
"_  c #989CA5",
"`  c #999CA6",
"'  c #9B9EA7",
"]  c #989CA5",
"[  c #969CAA",
"{  c #9B9FA8",
"}  c #9B9FA8",
"|  c #9DA0A9",
" . c #9FA3AB",
".. c #9EA1AA",
"X. c #A2A6AE",
"o. c #A4A7AF",
"O. c #A1A4AD",
"+. c #A4A8B0",
"@. c #A6A9B1",
"#. c #A8ABB3",
"$. c #ABADB5",
"%. c #A8ACB4",
"&. c #A9ACB4",
"*. c #AEB1B9",
"=. c #B1B2B7",
"-. c #B1B4BB",
";. c #B1B4BA",
":. c #B3B5BD",
">. c #B4B7BD",
",. c #B5B7BF",
"<. c #B2B5BC",
"1. c #B6B8BF",
"2. c #B2B6C0",
"3. c #B7BAC1",
"4. c #B7BAC1",
"5. c #B9BBC2",
"6. c #BABDC3",
"7. c #BCBFC5",
"8. c #BABDC3",
"9. c #BFC1C7",
"0. c #BDC0C6",
"q. c #BEC1C6",
"w. c #C0C2C8",
"e. c #C1C4C9",
"r. c #C3C5CB",
"t. c #C8CACF",
"y. c #C6CAD4",
"u. c #CBCDD2",
"i. c #CACCD2",
"p. c #CDCFD3",
"a. c #CCCED3",
"s. c #C9CCD8",
"d. c #CFD1D6",
"f. c #CFD1D5",
"g. c #D2D4D8",
"h. c #D5D7DB",
"j. c #D4D6DB",
"k. c #D7D8DC",
"l. c #D8DADD",
"z. c #DADBDF",
"x. c #D8D9DB",
"c. c #D4D8E2",
"v. c #DDDFE1",
"b. c #DFE0E3",
"n. c #E1E2E5",
"m. c #E5E6E8",
"M. c #E6E7E9",
"N. c #E1E5ED",
"B. c #E7E8EA",
"V. c #E9EAEC",
"C. c #ECEDEF",
"Z. c #ECECEE",
/* pixels */
"                                                  h D L P W W P K D h                                                   ",
"                                                  s g.F E -.-.E U g.s                                                   ",
"                                                  q v A A 3.3.A U v q                                                   ",
"                                            l P L 4 D w A U U A e D 4 L U l                                             ",
"                                        s ~ n / / 6 L l ; H H ; l L 6 / ) n ~ s                                         ",
"                                      S _ -.A >.u.e E n > h h > b E e u.6.A -._ S w                                     ",
"                                  e Y 7.>.m.| L $.< ~ n l e e l V ~ < $.I | m.>.7.( e                                   ",
"                            0   b / +.w.m.l.W : 0 % #.b N D D N b #.% 0 ; W l.m.w.$./ b   0                             ",
"                          r d.s R / 0.m.! b > # # - 6 4 a A A a 0 6 - # # > b ! m.u./ R s d.l                           ",
"                        h C.) F 0 0.:.F w * $ : * $ @ X X X X X X + $ * : $ * w F | 0.0 F ) V.h                         ",
"                      d l.X.K U A 6 b < # * - % # ; N             M 6 # % - * # < h 6 A U K #.l.d                       ",
"                      _ L >.W b ! * O O - % % $ l A A             n ) W * % % - O $ * ! b W e.L _                       ",
"                    K Q m V V n S l X & # # e N A F b             N 5._ ~ n # # & O l S n V N m Q K                     ",
"                    < S b s s N F X & O ; A A A Z Z h             S W ( W ^ ! % O # X F N s e b S <                     ",
"                    b 0 F D l L + $ + O K F A 0 a n D             R V ! l Z ( ) < O $ + L l S F 0 Z                     ",
"                    o.-.b l R % # O . V F N d ; O < K             Q H $ * h Z } _ $ O # % R N b -.o.e                   ",
"                  N X.p.7.- O $ # X h A N r - # % 3 F             W F 4 < * F m ) ^ O # $ O * 7.p.X.N                   ",
"                  ! | h.Y ; # O # n D D 1 1 % - * s D             R L b 4 6 % F S ) ~ X O # - Y h.| )                   ",
"                  ] +.C.b $ # X 0 D Z r - % $ % 0 0 K             R | K ; 3 4 % 9 V | G X # # b C.+.) n                 ",
"                b W b.*.4 + + . w b A $ > s ; w 0 A D             L ! F I b E L r 1 0.) X + # 4 *.b.~ m                 ",
"                Z W ! K & % O X 0 b b r s < q ; D 4 Z             H V | F N S n / E >.*.- O $ & K ! | Z                 ",
"                V r.Y < X + O 1 s l * - % & $ 3 h > F             P A r n D ; l > s d $.d O @ X < Y p.V                 ",
"            e a Y ^ m - O O . 0 m V ; $ * 0 < 4 0 h S             P F D 0 V l N e - h ;.F O O O - m ^ Y a e             ",
"            5.6.B.n.~ N q * . q N 4 & % % r d d # e S             H E e m ~ E D e q N 3.K $ % q N ~ n.B.6.5.            ",
"            Z E X./ V h - # X ; 9 h O $ % 3 6 < 1 N n             m E b F N =.a w < l U V $ O - h V ! X.E Z             ",
"            * A P Y Y h < O - s % < O % % < l 0 D l 4       r F ~ n e K *.P F q q 0 a D q D % < h Y R R V +             ",
"            % n Y 3.L a 1 . # s X > X % * O # N w           -.N./ U 0 < ( | 6 r e 0 e N < A O r s L 3.Y a %             ",
"            % n g / S 0 2 . O a O 1 X $ ; # m A           R W 2.! n 4 0 : 7.4 S 4 0 0 N < Z O s 0 S / g a =             ",
"            % N l m e : 1 . + q O 3 X O e % N             y.e Z A j.[ K 4 0 W < Z < 4 V > b O d < e m l a =             ",
"            % A - Y : A 4 . + 9 X 1 . e # ; 6           - b b D ) A 3 : : < Z w A V 4 S : h O d A : Y - N -             ",
"            g q a a e e v . O : X < O 0 % e *           * x.N U F < Q ; 1 4 A e > K 4 N ; 6 X 4 w b A V l e             ",
"            W O.p.n.X.A r 4 % q O ; a % # b             % f s.U v 4 x 6 V > V 0 1 F l n 4 D < r A X.v.p.O.W             ",
"            q b U Y n e - & X * < % ; X 3 e             $ c.y.s l < 6 U b ; a 0 0 % N F 4 % $ - e n P U b q             ",
"              * a s < + o o X = e = > O s l             $ J = s [ T m 4 O - 0 r < & e Y e % O o + < s a *               ",
"              0 ] 1.L 4 X X X = s & : # l a             $ 0 i k j n 6 0 : # h m < 3 l E V $ O X 4 L 1.] 0               ",
"              0 ) t.E 3 o X X % a $ $ % 9 4 *             z z c C G ; 6 O & Z 4 l < l U P $ O o 3 E d.) 0               ",
"              w ) h.U 3 o o X * s ; O 0 < < 1             j 8 , 7 p 0 b # * A % w Y e K H $ O o 3 U k.) w               ",
"              0 / >.L 3 O O O - r - $ # X $ 4 &           : B u t t b = $ > D - 4 s 6 Y L # O O 3 L 0./ 0               ",
"              0 ^ ( A < O O O ; a 4 - O 0 X 4 4             m y 7 b # % * A s s - ; a L K $ @ O < A } ^ 0               ",
"              0 ! ^ N < O O O - e 1 - O $ O # 1 3 -         3 < e 4 & 1 N V % - n # h K K $ # O < N ! ! 0               ",
"              0 ~ _ A 4 O O O = e % # # - O X O < h e           * % Z W b - ; 1 m < s A D # # O 4 A _ ~ 0               ",
"              0 ~ $.A 3 O O X * 0 % O . 6 : r a o O s             0 r.% > Y L s e # w D F # O O 3 A *.~ 0               ",
"              < E 7.A 1 O X . % 0 % * . . O O = 0 - 1             e s b D s - - O # N S H O O O 1 A 7.E <               ",
"              < E 0.A < o * 4 A % * ; 4 a . # - < N 3             s h :.l s & 1 ~ m r Z 3 # % o < A e.E <               ",
"              < Y 7.A : X # % 0 . o * - 0 3 - O O - 4             a s 3 4 : e ~ n s 0 l > r $ X : A 6.T <               ",
"              > L 1.N - X . # A . O % = % - * > # < > 9           q e < : s h 4 m 0 4 h r b O X - N :.L >               ",
"              ; F +.l % X . # h . + ; # % > < # # 4 < e           N 0 6 * 4 h 0 0 0 0 a 0 h O X % l X.F ;               ",
"              - S X.e % X . # d . $ - % O # % > O 3 b -           e L S 6 h > 0 > r r e 6 h O X % e +.S -               ",
"              L / X.b - O . # e . & < # # . . . - 3 1 4           W ^ V 1 $ % # 3 < v r 4 e O O - b X./ L               ",
"              4 E -.V - O # $ 4 O - < X + . q 9 4 m < 4           E l K N A N % 6 ; V s e l % O - V *.E 4               ",
"            b ; e A 3 $ O % $ ; O < n s > w % - a 6 - 4           V b ^ N l e F N E ! b : * $ O $ 3 A e ; b             ",
"            ! #.~ Y / Y ! 1 $ $ & 3 * : w l l a 1 ; e 4           Y ~ l D E X.O.P b s l < $ 1 ! Y / U ~ #.!             ",
"            ( O.~ ( ~ K n w $ $ < b b e 3 ; 1 - < ; 1 4           h d e N s N h Z R | K w $ 6 n K ~ | ~ O.(             ",
"            E K ^ ! n h v e % # : < % 3 : * ; 3 < 6 - 4           q h F m v v a ! N a b s % 0 v h n ! ^ K E             ",
"            Y K #.) F a r < $ # % = ; < ; % # O O # % O           - 0 a ; < 4 e l s v V e $ > r a F W #.K Y             ",
"            Y F E Y m 0 6 - + O - * + O @ % & * @                     % 4 0 w 6 1 < 1 s 3 + = 6 0 m Y E F Y             ",
"            A D K V s 4 < $ X O O # * = $ O                                 O ; e w e < % X $ < 4 s Z K D A             ",
"            e b b l 0 : % X X # - + # O                                         O O $ 4 - X X % : 0 l b b e             ",
"            s 4 1 > % $ & > $ O                                                         O $ < & $ % ; 1 4 s             ",
"            < s 0 l 1 6 >                                                                     > 6 1 l 0 s <             "
};
