/* XPM */
static char *result[] = {
/* columns rows colors chars-per-pixel */
"60 60 111 2 ",
"   c #040405",
".  c #070708",
"X  c #070808",
"o  c #0B0B0C",
"O  c #0E0F10",
"+  c #0F1011",
"@  c #121214",
"#  c #161719",
"$  c #17181A",
"%  c #191A1D",
"&  c #1D1E21",
"*  c #211F20",
"=  c #1F2023",
"-  c #212226",
";  c #24262A",
":  c #27282D",
">  c #292A2E",
",  c #2B2D32",
"<  c #2E3136",
"1  c #2F3238",
"2  c #313237",
"3  c #3C3634",
"4  c #32343A",
"5  c #383738",
"6  c #36393E",
"7  c #383A3F",
"8  c #433D3C",
"9  c #373A40",
"0  c #3A3D43",
"q  c #3E4047",
"w  c #3F4249",
"e  c #454446",
"r  c #4F4846",
"t  c #42454C",
"y  c #45484F",
"u  c #48494F",
"i  c #464951",
"p  c #4A4D54",
"a  c #4D4F58",
"s  c #4D5057",
"d  c #4E5159",
"f  c #5E5756",
"g  c #52555E",
"h  c #57585A",
"j  c #535760",
"k  c #565A63",
"l  c #595D66",
"z  c #5B5F69",
"x  c #5E626B",
"c  c #626063",
"v  c #6B6463",
"b  c #61656E",
"n  c #66696F",
"m  c #6C6C6F",
"M  c #626671",
"N  c #656A74",
"B  c #686C76",
"V  c #6A6E79",
"C  c #6E7077",
"Z  c #6D717C",
"A  c #757375",
"S  c #7C7370",
"D  c #71757F",
"F  c #727682",
"G  c #767A86",
"H  c #797C86",
"J  c #767B88",
"K  c #797E89",
"L  c #7D828D",
"P  c #7F8390",
"I  c #898283",
"U  c #81848E",
"Y  c #8D8A8C",
"T  c #828691",
"R  c #868A95",
"E  c #888C95",
"W  c #8A8E99",
"Q  c #8D919C",
"!  c #91949F",
"~  c #9D9A9E",
"^  c #9296A0",
"/  c #9699A3",
"(  c #999CA6",
")  c #969BA8",
"_  c #9C9FA9",
"`  c #9EA1AA",
"'  c #A2A5AE",
"]  c #A4A7B0",
"[  c #A6A9B1",
"{  c #A9ACB4",
"}  c #AEB1B9",
"|  c #B2B5BC",
" . c #B6B8BF",
".. c #B7BAC1",
"X. c #BABDC3",
"o. c #BABFC8",
"O. c #BEC1C7",
"+. c #C2C4CA",
"@. c #CAC9CC",
"#. c #CCCED3",
"$. c #CFD1D6",
"%. c #D4D5D9",
"&. c #D7D8DC",
"*. c #D9DBDE",
"=. c #DDDFE1",
"-. c #DFE0E3",
";. c #E1E2E5",
":. c #E5E6E8",
">. c #E7E8EA",
",. c #EBECEE",
"<. c None",
/* pixels */
"<.<.<.<.<.<.<.<.<.<.<.<.<.<.<.<.<.<.<.<.<.<.<.<.<.d V J G R R H F B d <.<.<.<.<.<.<.<.<.<.<.<.<.<.<.<.<.<.<.<.<.<.<.<.<.",
"<.<.<.<.<.<.<.<.<.<.<.<.<.<.<.<.<.<.<.<.<.<.<.<.<.p %.V T | | T J %.p <.<.<.<.<.<.<.<.<.<.<.<.<.<.<.<.<.<.<.<.<.<.<.<.<.",
"<.<.<.<.<.<.<.<.<.<.<.<.<.<.<.<.<.<.<.<.<.<.<.<.<.0 j B N ....M K j q <.<.<.<.<.<.<.<.<.<.<.<.<.<.<.<.<.<.<.<.<.<.<.<.<.",
"<.<.<.<.<.<.<.<.<.<.<.<.<.<.<.<.<.<.<.<.<.<.g G G 6 V w M K K N y V 4 G K j <.<.<.<.<.<.<.<.<.<.<.<.<.<.<.<.<.<.<.<.<.<.",
"<.<.<.<.<.<.<.<.<.<.<.<.<.<.<.<.<.<.<.<.p Q l ^ ^ 9 F g ; D Z : g G 6 ^ ( l W p <.<.<.<.<.<.<.<.<.<.<.<.<.<.<.<.<.<.<.<.",
"<.<.<.<.<.<.<.<.<.<.<.<.<.<.<.<.<.<.<.B ( | N  .#.t T z , d d > k L t #...N | ( B w <.<.<.<.<.<.<.<.<.<.<.<.<.<.<.<.<.<.",
"<.<.<.<.<.<.<.<.<.<.<.<.<.<.<.<.<.t P X. .:.` F { , W z j y t j b Q 1 { J ( >. .X.( t <.<.<.<.<.<.<.<.<.<.<.<.<.<.<.<.<.",
"<.<.<.<.<.<.<.<.<.<.<.<.<.<.0 <.k ^ ] +.:.*.R : 9 & { k x C B x k { % 0 ; R *.:.+.{ ^ k <.9 <.<.<.<.<.<.<.<.<.<.<.<.<.<.",
"<.<.<.<.<.<.<.<.<.<.<.<.<.y $.p P ^ O.:.Q k , + @ - 6 6 i M N i 0 6 - @ @ > k W :.#.! U p $.g <.<.<.<.<.<.<.<.<.<.<.<.<.",
"<.<.<.<.<.<.<.<.<.<.<.<.g ,./ Z 0 O.| Z w & @ ; & $ O . . . . o + + $ & : @ & w C ` +.0 Z / ,.d <.<.<.<.<.<.<.<.<.<.<.<.",
"<.<.<.<.<.<.<.<.<.<.<.a *.' F K N 9 k , + & - & @ 7 H ] _ i i _ ` b = + % - & @ , d 0 N K F { *.d <.<.<.<.<.<.<.<.<.<.<.",
"<.<.<.<.<.<.<.<.<.<.<.( G  .R k W & X o = & % = F W '  .{ x x { { ' R Z - % % - o $ % W k R +.G ( <.<.<.<.<.<.<.<.<.<.<.",
"<.<.<.<.<.<.<.<.<.<.F E z b b l N g   % @ @ i G ! ` | ;.T T T L >.| ` ^ K l & @ & o j N l b x l E F <.<.<.<.<.<.<.<.<.<.",
"<.<.<.<.<.<.<.<.<.<., B k i i x F . % o 0 P ! ] } ( C M Q R R Q B C ( } ] ^ L q o + . F x i t k N , <.<.<.<.<.<.<.<.<.<.",
"<.<.<.<.<.<.<.<.<.<.k 0 Z C j G o # @ i Q ` ] ` i F ( x } T T } x ( F y _ ] ` W p o @ O G j N F 0 M <.<.<.<.<.<.<.<.<.<.",
"<.<.<.<.<.<.<.<.<.<.' | k g U % # o t W ! R C Q 4 - & Z X.' ] X.B % - 6 Q C R ^ R k o @ % T x k | ' t <.<.<.<.<.<.<.<.<.",
"<.<.<.<.<.<.<.<.<.z ' #.X.- o $ @ 0 T Q L d Z : 4 6 0 G } ' ` } V 9 6 1 - Z d L Q R 1 + $ o & X.#.' x <.<.<.<.<.<.<.<.<.",
"<.<.<.<.<.<.<.<.<.W _ &.L ; @ o % U T Q w N @ , q 9 N B } Q Q } Z M 0 q 1 @ N q Q R L = o @ - L &.` / <.<.<.<.<.<.<.<.<.",
"<.<.<.<.<.<.<.<.t ( [ ,.k $ # . C U W q 0 - , w 1 p J G O.! ! O.( K p 2 t > - q w Q T x . @ @ k ,.] / l <.<.<.<.<.<.<.<.",
"<.<.<.<.<.<.<.<.k E =.} 6 O O o Z ` R > > s g & P K G  .{ Q Q { { G H L % g s > , 4 ` Z o O @ 6 } -.Q z <.<.<.<.<.<.<.<.",
"<.<.<.<.<.<.<.<.M R W F & $ o 6 R } d Z Z l n T 1 G ..i ' L L ` i ..G 1 T n k Z Z k } P 0 o $ % F Q ` M <.<.<.<.<.<.<.<.",
"<.<.<.<.<.<.<.<.b +.L , . O . k R i R j : , , t N +.w s ` T T ( d w +.N t , , : j x p R x X + X > L #.x <.<.<.<.<.<.<.<.",
"<.<.<.<.<.<.t u T ^ z - o o o Z ) w i w w g 4 d d N L s { L L { j L V d g 4 g w w , w / F + o o - z ^ P i t <.<.<.<.<.<.",
"<.<.<.<.<.<.....:.;.Q z 0 & % K / i + 4 9 i i N B 0 N Q | K L | L B 9 N N i i 6 4 & y / J % $ 0 x Q -.>.X.X.<.<.<.<.<.<.",
"<.<.<.<.<.<.M T ' ! b s - + % k i 1 % 6 2 Z { R y w i L ' Z Z ' L i w i T { F 1 9 , 2 i j & o - d x Q ' U N <.<.<.<.<.<.",
"<.<.<.<.<.<.& N H L L g , o , & 0 1 = 4 4 t y x N Z ..X.J p p G } X.Z N x t t 4 4 , 2 0 & , + , g L U L b o <.<.<.<.<.<.",
"<.<.<.<.<.<.% l L ..G i 2   = % 2 = - , q - H x Q / x s l n t e i k / ! z G - 0 , 2 & 2 & -   t i G ..L i % <.<.<.<.<.<.",
"<.<.<.<.<.<.$ l d ^ B 9 2   $ - , % = 5 q q % D ] g e R B l t x 5 4 0 ' H % q q 9 , & , & %   i 0 B ^ s y = <.<.<.<.<.<.",
"<.<.<.<.<.<.% x d x t : ,   % % 1 $ ; % R : x +.n B D e s 4 u p p U , l +.z > E & : $ 1 % %   a , t z g i = <.<.<.<.<.<.",
"<.<.<.<.<.<.% N - P : B 4   % @ 1 # , H 1 0 g y 6 B Z ! g p b E U l > 7 i j 9 2 J , $ 2 @ %   p N > L - x - <.<.<.<.<.<.",
"<.<.<.<.<.<.a q i i y t j   @ + 1 $ i k , 4 g < M 2 l ; p n q 7 - 2 @ N , g 4 , k F $ , @ +   4 t k N M g t <.<.<.<.<.<.",
"<.<.<.<.<.<.R ' #.:.` N y 2 - @ < d Z = 2 C p 1 5 g @.O.7 ,.` 2 S ~ $ ; 2 a V 4 & F g , @ - > y V ` =.#.' R <.<.<.<.<.<.",
"<.<.<.<.<.<.q k K L l w - % O 4 < k z - 9 g 0 , b R 5 ; G ) N 4 % * D & : w g 6 - t k 1 2 o $ - w z G K k q <.<.<.<.<.<.",
"<.<.<.<.<.<.<.& i p , O X X o p 1 9 9 = F F , # i W ' / +.B D H l D g g * , G D - o 9 2 p o . o O , p i & <.<.<.<.<.<.<.",
"<.<.<.<.<.<.<.w (  .G 4 . X @ j 4 w O & Q F , , > 7 K | n 5 u 8 s 7 $ 4 - - F Q = % q 4 g +   . 4 G ..( q <.<.<.<.<.<.<.",
"<.<.<.<.<.<.<.0 / @.P 2 X X @ k 9 9 O & H x w > ; b b u m h A S e 7 n ; % w b H % & 9 0 l @   . 1 P #./ 0 <.<.<.<.<.<.<.",
"<.<.<.<.<.<.<.t ^ &.K 1 X . @ k : < & F b p l - % u 8 Y I c > 8 v . e % & k i M F , , : k $ . X 2 K *./ w <.<.<.<.<.<.<.",
"<.<.<.<.<.<.<.0 !  .G 1 o o & M t = z ; 9 4 k , * 2 U 5 3 > + * 3 g : % , k 4 9 : x = t M % X o 2 G O.! 0 <.<.<.<.<.<.<.",
"<.<.<.<.<.<.<.0 ! / N < o o = V 9 0 p ; O & k k $ & g p e , > f e p % # k z = o - 0 w 4 N = o o 1 M ( ! 0 <.<.<.<.<.<.<.",
"<.<.<.<.<.<.<.0 W ! x , o o = M 0 0 , O k $ p z g @ - U c v r 8 h , % g z i $ k O % q 0 M = o o , x W Q 0 <.<.<.<.<.<.<.",
"<.<.<.<.<.<.<.9 Q ( N 4 o o $ x y t O 0 & & @ y k 0 % 2 b 2 ; 6 9 % 0 k p @ & = 0 o y y z @ O o 4 M ( W 0 <.<.<.<.<.<.<.",
"<.<.<.<.<.<.<.9 Q { N 2 o o & k 9 , o 9 0 & & O g k l 4 > b l > 6 k l d O & - 0 9 % , 6 l & . o 1 B } ! 0 <.<.<.<.<.<.<.",
"<.<.<.<.<.<.<., T O.N 1 o   O k : 4 O @ l p z N ; % C Q U 4 6 K R V & ; M x p j + o 1 ; l O   X 1 N X.T , <.<.<.<.<.<.<.",
"<.<.<.<.<.<.<., T +.N , . & 0 : - a $ o O & = 9 y u @ : H 0 0 G i @ i y 9 - & o o O a ; : 0 & . , V O.P , <.<.<.<.<.<.<.",
"<.<.<.<.<.<.<., P O.N : . O = + & 9 p x M # o & t M x & j t t j - M M t & O # M b p 4 & + = #   : N X.P , <.<.<.<.<.<.<.",
"<.<.<.<.<.<.<.> G ..x -     , ; & = - 1 z B < 0 ; , T L g p i j k R , ; 0 < N z < : = & ; ,     - b ..J : <.<.<.<.<.<.<.",
"<.<.<.<.<.<.<.: Z ] d %     : = % 2 & a : w 2 & g 2 & > k p p k , & , j $ 4 w ; a 9 1 & & :   . % d ` Z : <.<.<.<.<.<.<.",
"<.<.<.<.<.<.<.- B ' t $     , % & 9 t & < j t : 2 - - 6 j 9 9 j < - - 2 - y j 1 & 9 9 & & ,   . % t { B - <.<.<.<.<.<.<.",
"<.<.<.<.<.<.<.G ^ ] k - o   ; $ = t & % @ p w j , , : 0 9 E R 9 4 : , < k 0 a @ % 4 w = $ - X o - k ` ^ G <.<.<.<.<.<.<.",
"<.<.<.<.<.<.<.4 R } x - o + - $ = p X : 1 o o : , & j w ^ j g ! 0 j * , , o O , : + s = $ ; + o = M } R 1 <.<.<.<.<.<.<.",
"<.<.<.<.<.<.k ; w N 1 $ O % = + : x : & $ o @ , - 0 k M F E E F R j 9 - , $ o $ & - x : + = % + $ 1 N w - k <.<.<.<.<.<.",
"<.<.<.<.<.<.W { Q L ^ L R 1 % % 4 N K T Z w M x g l j W 9 _ ` 0 F j k j z M t V P L N 4 % % , R P ! L Q { Q <.<.<.<.<.<.",
"<.<.<.<.<.<.( ` Q ( Q F z w @ , s s i j p s t d a k ( y a Q ! a y ( k p d y p p j i d p , $ 6 z F Q ` Q ` ) <.<.<.<.<.<.",
"<.<.<.<.<.<.T F ^ W k d j t % 9 Z F V Z G Z Z Z x B w N w b M w N t B b V Z Z J Z Z F Z 9 % 9 g s z R ! F R <.<.<.<.<.<.",
"<.<.<.<.<.<.L F { ^ Z i i , @ , p q a g y i k d 9 d w d J M M J z w g 9 a k y y j y w p > $ > y i F E { F L <.<.<.<.<.<.",
"<.<.<.<.<.<.L Z T L x q 9 - O , q 9 0 d w w p 0 y k d p d s d d 0 d j y 0 y t t d 4 9 0 , O - 9 0 z L T Z L <.<.<.<.<.<.",
"<.<.<.<.<.<.N V F b a 4 1 $ . $ = $ = = , : : = ; ; M ; 9 0 0 9 < M : - - : : , - % $ & $ . # , 9 a M F B N <.<.<.<.<.<.",
"<.<.<.<.<.<.t k k j 0 : % .   % = & & = : : : ; ; ; = ; ; = & ; - - ; ; : : ; : * & & & % . . % ; 0 d k k t <.<.<.<.<.<.",
"<.<.<.<.<.<.a 4 , : % $ & : & <.<.<.<.<.<.<.<.<.<.<.<.<.<.<.<.<.<.<.<.<.<.<.<.<.<.<.<.<.<.& , & @ % ; 1 2 a <.<.<.<.<.<.",
"<.<.<.<.<.<., p 0 j 1 6 , <.<.<.<.<.<.<.<.<.<.<.<.<.<.<.<.<.<.<.<.<.<.<.<.<.<.<.<.<.<.<.<.<.<., 9 1 j 0 a , <.<.<.<.<.<."
};
