/* XPM */
static char *result[] = {
/* columns rows colors chars-per-pixel */
"60 60 114 2 ",
"   c #040405",
".  c #070708",
"X  c #070808",
"o  c #0A0B0C",
"O  c #0E0F10",
"+  c #0F1011",
"@  c #121315",
"#  c #151619",
"$  c #17181A",
"%  c #191A1D",
"&  c #1D1E21",
"*  c #1F2023",
"=  c #212226",
"-  c #242629",
";  c #27292D",
":  c #282A2E",
">  c #332A28",
",  c #2B2D32",
"<  c #2F3136",
"1  c #2F3238",
"2  c #313237",
"3  c #33353B",
"4  c #36393E",
"5  c #383A3E",
"6  c #403633",
"7  c #4A403C",
"8  c #373A40",
"9  c #3B3D43",
"0  c #3E4047",
"q  c #3F4249",
"w  c #42454C",
"e  c #45484F",
"r  c #4D494B",
"t  c #514644",
"y  c #554B47",
"u  c #554D4B",
"i  c #5C514F",
"p  c #464951",
"a  c #4A4D55",
"s  c #4D4F58",
"d  c #504F53",
"f  c #4D5057",
"g  c #4E5159",
"h  c #555456",
"j  c #5D5757",
"k  c #51555D",
"l  c #605B5C",
"z  c #6C5E58",
"x  c #6A605E",
"c  c #535760",
"v  c #565A63",
"b  c #595D66",
"n  c #5B5F69",
"m  c #5F6063",
"M  c #5E626B",
"N  c #6C6465",
"B  c #61656E",
"V  c #7A6E6D",
"C  c #626671",
"Z  c #656A74",
"A  c #696D77",
"S  c #6A6E79",
"D  c #6D727D",
"F  c #737277",
"G  c #71747E",
"H  c #6E7380",
"J  c #727681",
"K  c #767A85",
"L  c #797C86",
"P  c #767B88",
"I  c #7A7E89",
"U  c #7D828D",
"Y  c #7F8391",
"T  c #82858D",
"R  c #828691",
"E  c #868A94",
"W  c #898C95",
"Q  c #8A8E99",
"!  c #8D919C",
"~  c #91949E",
"^  c #9296A1",
"/  c #9699A3",
"(  c #999CA6",
")  c #969CAA",
"_  c #9B9FA8",
"`  c #9EA1AA",
"'  c #A1A5AD",
"]  c #A5A9B1",
"[  c #A9ACB4",
"{  c #AEB1B9",
"}  c #B1B2B7",
"|  c #B2B5BC",
" . c #B6B8BF",
".. c #B2B6C0",
"X. c #B7BAC1",
"o. c #BBBDC3",
"O. c #BEC1C7",
"+. c #C2C4CA",
"@. c #C8CACF",
"#. c #C6CAD4",
"$. c #CCCED3",
"%. c #C9CCD8",
"&. c #CFD1D6",
"*. c #D4D6DA",
"=. c #D7D8DC",
"-. c #D9DADD",
";. c #D4D8E2",
":. c #DDDFE1",
">. c #DFE0E3",
",. c #E1E2E5",
"<. c #E5E6E9",
"1. c #E7E8EA",
"2. c #EBECEE",
"3. c None",
/* pixels */
"3.3.3.3.3.3.3.3.3.3.3.3.3.3.3.3.3.3.3.3.3.3.3.3.3.g S P L E E L J S s 3.3.3.3.3.3.3.3.3.3.3.3.3.3.3.3.3.3.3.3.3.3.3.3.3.",
"3.3.3.3.3.3.3.3.3.3.3.3.3.3.3.3.3.3.3.3.3.3.3.3.3.a *.S R } | R P *.a 3.3.3.3.3.3.3.3.3.3.3.3.3.3.3.3.3.3.3.3.3.3.3.3.3.",
"3.3.3.3.3.3.3.3.3.3.3.3.3.3.3.3.3.3.3.3.3.3.3.3.3.0 c A Z X.X.Z L c 9 3.3.3.3.3.3.3.3.3.3.3.3.3.3.3.3.3.3.3.3.3.3.3.3.3.",
"3.3.3.3.3.3.3.3.3.3.3.3.3.3.3.3.3.3.3.3.3.3.k K P 3 S 0 Z I I C e S 8 P I c 3.3.3.3.3.3.3.3.3.3.3.3.3.3.3.3.3.3.3.3.3.3.",
"3.3.3.3.3.3.3.3.3.3.3.3.3.3.3.3.3.3.3.3.a ! b ^ ^ 5 K k - H D - k K 3 ^ ^ n Q a 3.3.3.3.3.3.3.3.3.3.3.3.3.3.3.3.3.3.3.3.",
"3.3.3.3.3.3.3.3.3.3.3.3.3.3.3.3.3.3.3.A ( } Z  .$.w U b , s g , v T w $.o.Z | ( S 0 3.3.3.3.3.3.3.3.3.3.3.3.3.3.3.3.3.3.",
"3.3.3.3.3.3.3.3.3.3.3.3.3.3.3.3.3.w Y O...1.` J [ < ! b k w w k B ~ < [ L _ 1. .o.( w 3.3.3.3.3.3.3.3.3.3.3.3.3.3.3.3.3.",
"3.3.3.3.3.3.3.3.3.3.3.3.3.3.9 3.v ^ ] O.<.-.W ; 8 % [ v B D S M c [ % 8 - W -.<.+.[ ^ v 3.8 3.3.3.3.3.3.3.3.3.3.3.3.3.3.",
"3.3.3.3.3.3.3.3.3.3.3.3.3.e &.a T ^ o.<.Q v : @ @ - 5 3 p Z Z p 5 5 - @ @ : v Q <.$./ U a &.k 3.3.3.3.3.3.3.3.3.3.3.3.3.",
"3.3.3.3.3.3.3.3.3.3.3.3.g 2./ G 9 +...D 0 & # ; & # O . . . . .   o # & ; # % w D ` O.9 D / 2.g 3.3.3.3.3.3.3.3.3.3.3.3.",
"3.3.3.3.3.3.3.3.3.3.3.s -.' J L Z 5 v , @ & - $ @ - M 3.3.3.3.3.3.B 5 + % - % @ , g 5 Z I J [ -.g 3.3.3.3.3.3.3.3.3.3.3.",
"3.3.3.3.3.3.3.3.3.3.3.( L  .E v Q & X o * & $ # k Z Z 3.3.3.3.3.3.n / W % % % = X # & Q v E +.P ( 3.3.3.3.3.3.3.3.3.3.3.",
"3.3.3.3.3.3.3.3.3.3.J W n B B b Z c   % @ @ w n Z H v 3.3.3.3.3.3.B X._ ~ v @ # & X v A n B m n W J 3.3.3.3.3.3.3.3.3.3.",
"3.3.3.3.3.3.3.3.3.3., A v p p M D . & o - Z Z Z C C k 3.3.3.3.3.3.A E / E ~ W % o @ . G M p w v Z , 3.3.3.3.3.3.3.3.3.3.",
"3.3.3.3.3.3.3.3.3.3.v 9 D D k K O # O X J D Z 9 p b S 3.3.3.3.3.3.T B W k C / / < o # o K c S H 9 C 3.3.3.3.3.3.3.3.3.3.",
"3.3.3.3.3.3.3.3.3.3.' | v k T % @ X   B D M s - X , J 3.3.3.3.3.3.W G # & g Z _ ( # o @ % T M v | ' w 3.3.3.3.3.3.3.3.3.",
"3.3.3.3.3.3.3.3.3.M ' $.o.- O # @ . s Z M e = @ % < D 3.3.3.3.3.3.E D 2 , * D n / ~ X + # o & o.$.' B 3.3.3.3.3.3.3.3.3.",
"3.3.3.3.3.3.3.3.3.Q ` =.U - @ o @ b S S < 2 % = & p S 3.3.3.3.3.3.T J b 2 5 % D A / !   o @ = U =._ / 3.3.3.3.3.3.3.3.3.",
"3.3.3.3.3.3.3.3.3.( ] 2.b @ @ . 8 S C e = % # # 9 9 J 3.3.3.3.3.3.T ` D - 2 3 % 5 B ` F . @ @ b 2.] ^ n 3.3.3.3.3.3.3.3.",
"3.3.3.3.3.3.3.3.v E >.} 3 O o   w c Z # : a - 0 9 A S 3.3.3.3.3.3.J W F L v E J w < O.~ . O + 3 { ,.! n 3.3.3.3.3.3.3.3.",
"3.3.3.3.3.3.3.3.C E Q J & $ X   9 b v e p , w - A 3 C 3.3.3.3.3.3.G B ' D M A b / T | { - o # & J Q ` C 3.3.3.3.3.3.3.3.",
"3.3.3.3.3.3.3.3.C +.U , X + X 3 p k & = % & # 2 g , D 3.3.3.3.3.3.U Z e b A ; k , a a { g X + . : U $.B 3.3.3.3.3.3.3.3.",
"3.3.3.3.3.3.w p Y ^ n = o o   9 n C ; # & 8 , 3 9 g Z 3.3.3.3.3.3.L D A 5 B k M q - g { D o X o = n ~ Y p w 3.3.3.3.3.3.",
"3.3.3.3.3.3.X.o.<.,.! n 9 %   0 M 3 % % % e s s @ w S 3.3.3.3.3.3.D T w M ! U D w 0 M X.G @ % 0 M ! ,.<.o.X.3.3.3.3.3.3.",
"3.3.3.3.3.3.C R ' ~ B g = O . - 8 g X # $ 2 8 , , M n 3.3.3.3.3.3.M R v D M { e w , c L C # O = g B Q ' T C 3.3.3.3.3.3.",
"3.3.3.3.3.3.& Z L U T h , o = a $ , o $ % < k 5 S c 8 3.3.3.w D Q b w J { I D 0 0 9 p S 0 S % , g U T T C O 3.3.3.3.3.3.",
"3.3.3.3.3.3.$ b U X.K p 3   @ p X : . $ & o @ M 0 3.3.3.3.3.| <.^ U 8 < / ` 5 e w 9 w B , Z o w p K X.U p % 3.3.3.3.3.3.",
"3.3.3.3.3.3.% b f ^ S 8 <   o p X < . # ; # b Z 3.3.3.3.3.R R ..W b 4 9 ; o.3 A 3 8 8 M , B X a 9 A ~ f e * 3.3.3.3.3.3.",
"3.3.3.3.3.3.% M g n w : ,   O 9 X 2 . o w # M 3.3.3.3.3.3.#.w B Z *.) J 3 5 R , Z , 5 M ; v X s , w M g p * 3.3.3.3.3.3.",
"3.3.3.3.3.3.% Z - Y ; Z 3   O 8 X 3   w @ - 5 3.3.3.3.3.= v c S / C 1 ; ; < Z w Z B 3 S ; f X g Z ; U - M * 3.3.3.3.3.3.",
"3.3.3.3.3.3.a 0 p p e w c   o ; . , . 9 % w = 3.3.3.3.3.% =.M I F < W - < 4 A 0 , H 3 M - 5 . 3 0 v Z C g w 3.3.3.3.3.3.",
"3.3.3.3.3.3.E ' $.<.` Z w 3 & 9 o - p % @ v 3.3.3.3.3.3.% s %.U j 3 z 5 B ; C 8 < D g n 3 D : w S ' >.$.' Q 3.3.3.3.3.3.",
"3.3.3.3.3.3.0 v I U b w = % . & , $ - X 3 w 3.3.3.3.3.3.# =.#.a k , 3 I v - p 8 9 $ B H 3 $ # - w b L I v 0 3.3.3.3.3.3.",
"3.3.3.3.3.3.3.& p a , o X X   = w = : X a k 3.3.3.3.3.3.# G & s ) Y n 3 o - 9 w , & 0 U w $ X X O : a p & 3.3.3.3.3.3.3.",
"3.3.3.3.3.3.3.0 (  .K 3 . .   & p % ; @ g p 3.3.3.3.3.3.# 0 y l h n 5 9 ; @ s n , < c Y C @ X . 3 K  .( 9 3.3.3.3.3.3.3.",
"3.3.3.3.3.3.3.9 / @.R 2 . . . % p # # % 8 3 & 3.3.3.3.3.3.l l N V F - 5 o & C 3 k < k I L # o X 3 U &.^ 0 3.3.3.3.3.3.3.",
"3.3.3.3.3.3.3.w / *.I 2 . X . * p ; X 8 , , < 3.3.3.3.3.3.h 6 > 2 i 5 v @ & Z $ 0 U w J H # X X 3 I *./ 0 3.3.3.3.3.3.3.",
"3.3.3.3.3.3.3.9 ~  .L 2 X X X = p = % @ . # 3 % 3.3.3.3.3.: N y t r v = # : S = 3 a 3 U J @ O o 1 K O.^ 9 3.3.3.3.3.3.3.",
"3.3.3.3.3.3.3.9 ! ( Z , o o o - p 3 = o 9 . 3 3 3.3.3.3.3.3.n t 6 v @ $ & Z a a - ; p K J # + X < Z ( ~ 9 3.3.3.3.3.3.3.",
"3.3.3.3.3.3.3.9 ! ! M < o + o - w 2 = X # X @ 1 3 = 3.3.3.3.3 , e 3 % < M C $ - v @ f J G # @ o , M Q ! 9 3.3.3.3.3.3.3.",
"3.3.3.3.3.3.3.8 ! ( Z 3 o O o & w % @ @ = X   . , g w 3.3.3.3.3.& $ Z R v = - < n , s Z S + + O 3 C ( ~ 9 3.3.3.3.3.3.3.",
"3.3.3.3.3.3.3.8 ! [ Z 1 o X . & 9 $ o   3 ; p p X o a 3.3.3.3.3.3.9 +.& : U K a w @ 0 S D + o o 3 A { Q 8 3.3.3.3.3.3.3.",
"3.3.3.3.3.3.3., R O.A < o     # 9 & &     . o * 8 = < 3.3.3.3.3.3.w a v S s = = O @ M A J O . o 1 Z o.R , 3.3.3.3.3.3.3.",
"3.3.3.3.3.3.3., R O.A , X & 3 Z $ % - 3 p   # * , B 3 3.3.3.3.3.3.a g | g s % 1 ! n p C < @ $ . , Z +.R , 3.3.3.3.3.3.3.",
"3.3.3.3.3.3.3.: Y o.Z ; . O % 9   . % - 9 1 = X X = 3 3.3.3.3.3.3.p p 3 3 : w ! n a 9 k , w $ . ; Z X.R , 3.3.3.3.3.3.3.",
"3.3.3.3.3.3.3.: P X.M -     @ A   o % * % = & ; @ , : 8 3.3.3.3.3.0 w , ; s s 3 n 9 3 s w b X . - M | P ; 3.3.3.3.3.3.3.",
"3.3.3.3.3.3.3.; D ] k $     + g   o - O % : , @ @ 3 , 0 3.3.3.3.3.M 9 5 & 3 g 8 9 9 9 p 9 s X . % k ' D ; 3.3.3.3.3.3.3.",
"3.3.3.3.3.3.3.* S ' w # .   + s   # - % o @ % : o 2 v - 3.3.3.3.3.e J A 3 g , 9 ; e e w 5 g X . % w ] Z = 3.3.3.3.3.3.3.",
"3.3.3.3.3.3.3.K / ] b - o   + q   & : @ +       = 3 , 3 3.3.3.3.3.E ~ B < # # # 2 , c p 3 w o o - v ` / P 3.3.3.3.3.3.3.",
"3.3.3.3.3.3.3.3 R { M * o + @ 3 o - , X +   0 3 3 M , 3 3.3.3.3.3.T k G M Z M $ 5 - B a w k $ o = M { R 3 3.3.3.3.3.3.3.",
"3.3.3.3.3.3.v - q Z 3 $ o $ @ ; o , b a , 0 % = p 3 - 3 3.3.3.3.3.B v ~ M k w D M T Q c ; & # o # 3 Z q - v 3.3.3.3.3.3.",
"3.3.3.3.3.3.Q [ ! Y ! U ! < $ # & 1 & ; 0 k k p 2 - e 3 3.3.3.3.3.U ~ k S T ' ' L v a k , # < Q U ^ I ! [ Q 3.3.3.3.3.3.",
"3.3.3.3.3.3.( ` ! ( ! H n 0 @ # , v v w 1 - 1 = , - < 3 3.3.3.3.3.g a w M p M g C T ' J 0 # 8 b H ! ` ~ ` ( 3.3.3.3.3.3.",
"3.3.3.3.3.3.R J ~ Q b f c w % @ ; , % 2 ; & - 3 , 5 - 3 3.3.3.3.3.0 g D n c c a Q M p c a % 9 k g b Q ~ J R 3.3.3.3.3.3.",
"3.3.3.3.3.3.U J ] / D p e , # + % * - , - % + o o @ % X 3.3.3.3.3.- 8 p ; , 3 e c s c B w @ : e p D E [ J I 3.3.3.3.3.3.",
"3.3.3.3.3.3.Y D R Y M 9 5 - + o - & @ o O % % & @ 3.3.3.3.3.3.3.3.3.3.% 3 9 0 8 < , , a 3 O = 8 9 M U R H Y 3.3.3.3.3.3.",
"3.3.3.3.3.3.Z S J C s 3 < # . o X @ & * # X 3.3.3.3.3.3.3.3.3.3.3.3.3.3.3.3.X - e w w , % . @ , 3 s B H S Z 3.3.3.3.3.3.",
"3.3.3.3.3.3.w v v k 9 ; % X . @ = + @ X 3.3.3.3.3.3.3.3.3.3.3.3.3.3.3.3.3.3.3.3.X X # 3 = . . % : 0 g v v w 3.3.3.3.3.3.",
"3.3.3.3.3.3.a 3 < ; % # & : $ o 3.3.3.3.3.3.3.3.3.3.3.3.3.3.3.3.3.3.3.3.3.3.3.3.3.3.3.3.o $ , % # $ ; < 3 a 3.3.3.3.3.3.",
"3.3.3.3.3.3., a 9 k 1 5 : 3.3.3.3.3.3.3.3.3.3.3.3.3.3.3.3.3.3.3.3.3.3.3.3.3.3.3.3.3.3.3.3.3.3.: 3 1 c 9 s , 3.3.3.3.3.3."
};
