/* XPM */
static char *_2dfbf774a2e45db84e2675c5ffab429[] = {
/* columns rows colors chars-per-pixel */
"48 48 4 1 ",
"  c None",
". c #161313",
"X c #191A1F",
"o c #262C2F",
/* pixels */
"        .XXXXXXXXXXXXXXXXXXXXXXXXXXXXXX.        ",
"        .XXXXXXXXXXXXXXXXXXXXXXXXXXXXXX.        ",
"        .XX...X....X....X...X....X...XX.        ",
"        .XX..XX....X....X...X....X...XX.        ",
"        .XX..XXX...X....X...X....XX..XX.        ",
"        .XX..XXX...X....X...X.....X..XX.        ",
"        .XX..XXX...X....X...X.....X..XX.        ",
"        .XX..Xo....X....X...X.....X..XX.        ",
"        .XX..Xo....X....X...X.....X..XX.        ",
"        .XX..Xo....X....X...X.....X..XX.        ",
"        .XX..Xo....X....X...X.....X..XX.        ",
"        .XXXXXo....X....X...X.....X..XX.        ",
"        .XX..XoXXXXX....X...X.....X..XX.        ",
"        .XX..Xo....XXXXXXXooX.....X..XX.        ",
"        .XX..XX....X....X.XXXXXXXXX..XX.        ",
"        .XX..X.....X....X...X....XXXXXX.        ",
"        .XX..X.....X....X...X.....X..XX.        ",
"        .XX..X.....X....X...X.....X..XX.        ",
"        .XX..X....XX....X...o.....X..XX.        ",
"        .XX..X....X.....X...o.....X..XX.        ",
"        .XX..X....X.....X...o.....X..XX.        ",
"        .XX..X....X.....X...o.....X..XX.        ",
"        .XX..X....X.....X...o.....X..XX.        ",
"        .XX..X....X.....X...o.....X..XX.        ",
"        .XX..X....X.....X...o.....X..XX.        ",
"        .XX..X....X.....X...o...XXX..XX.        ",
"        .XX..X....X.....X...o...XoX..XX.        ",
"        .XX..X...Xo.....X...o...XXX.XXX.        ",
"        .XX..X...Xo.....X...XX.ooXXXXXX.        ",
"        .XX..X...Xo.....X..XXXoX..X..XX.        ",
"        .XX..X...Xo...XXXXXX.X....X..XX.        ",
"        .XX..X....XXXXX.X....X....X..XX.        ",
"        .XX..XXXXXX.....X....X....X..XX.        ",
"        .XX.XXX...X.....X....X....X..XX.        ",
"        .XXX.X....X.....X....X....X..XX.        ",
"        .XX..X....X.....X....X....X..XX.        ",
"        .XX..X....X.....X....X....X..XX.        ",
"        .XX..X....X.....X....o....X..XX.        ",
"        .XX..X...Xo.....X....o....X..XX.        ",
"        .XX..X...Xo.....X....o...oX..XX.        ",
"        .XX..X...Xo.....X....o...oX..XX.        ",
"        .XX..X...Xo.....X....o...oX..XX.        ",
"        .XX..X...Xo.....X....o...oX..XX.        ",
"        .XX..X...Xo.....X....o...XX..XX.        ",
"        .XX..X...XX.....X....X...XX..XX.        ",
"        .XX..X....X.....X....X...XX..XX.        ",
"        .XX..X....X.....X....X...XX..XX.        ",
"        .XX..X....X.....X....X...XX..XX.        "
};
