/* XPM */
static char *result[] = {
/* columns rows colors chars-per-pixel */
"60 60 159 2 ",
"   c #040405",
".  c #070708",
"X  c #070808",
"o  c #0B0B0C",
"O  c #0E0F10",
"+  c #0F1011",
"@  c #121214",
"#  c #161719",
"$  c #17181A",
"%  c #191A1D",
"&  c #1D1E21",
"*  c #1F2023",
"=  c #212226",
"-  c #24262A",
";  c #27282D",
":  c #292A2E",
">  c #292626",
",  c #302D2C",
"<  c #2B2D32",
"1  c #322D31",
"2  c #2E3136",
"3  c #2F3238",
"4  c #313237",
"5  c #3C3534",
"6  c #32343A",
"7  c #36393E",
"8  c #3A393D",
"9  c #471A1C",
"0  c #771213",
"q  c #461D21",
"w  c #4B272C",
"e  c #55292D",
"r  c #413B3E",
"t  c #55383D",
"y  c #65363B",
"u  c #373A40",
"i  c #3A3D43",
"p  c #5B3D42",
"a  c #3E4047",
"s  c #3F4249",
"d  c #42454C",
"f  c #45484F",
"g  c #4D4A4C",
"h  c #544347",
"j  c #464951",
"k  c #4A4D54",
"l  c #4D4F58",
"z  c #5F4A51",
"x  c #4D5057",
"c  c #4E515A",
"v  c #52555E",
"b  c #57585A",
"n  c #5D5A5D",
"m  c #5B5458",
"M  c #684F56",
"N  c #604D54",
"B  c #794D54",
"V  c #535760",
"C  c #565A63",
"Z  c #595C66",
"A  c #5B5F69",
"S  c #5E616B",
"D  c #61656E",
"F  c #66696F",
"G  c #676566",
"H  c #73646D",
"J  c #76686F",
"K  c #626670",
"L  c #6D6670",
"P  c #656A74",
"I  c #696C76",
"U  c #6A6E79",
"Y  c #6E7077",
"T  c #6D717C",
"R  c #757274",
"E  c #71757F",
"W  c #7E727D",
"Q  c #8A1416",
"!  c #AF1718",
"~  c #A81D1F",
"^  c #BD181A",
"/  c #9B282D",
"(  c #882C30",
")  c #912F33",
"_  c #893439",
"`  c #AE272A",
"'  c #C41213",
"]  c #C82223",
"[  c #81494F",
"{  c #90555E",
"}  c #A3454B",
"|  c #BA484D",
" . c #A94E55",
".. c #AE5F68",
"X. c #82666F",
"o. c #9E6E77",
"O. c #9B6770",
"+. c #99737E",
"@. c #A46972",
"#. c #A4757D",
"$. c #B9767D",
"%. c #D94946",
"&. c #DE6568",
"*. c #F07D7D",
"=. c #727682",
"-. c #767A85",
";. c #797C86",
":. c #797E89",
">. c #767B88",
",. c #957881",
"<. c #7D828D",
"1. c #7F8390",
"2. c #81848E",
"3. c #8A8489",
"4. c #95868F",
"5. c #818691",
"6. c #868A95",
"7. c #888C95",
"8. c #8A8E99",
"9. c #8D919C",
"0. c #91949F",
"q. c #A5848F",
"w. c #BC848D",
"e. c #AE8A94",
"r. c #9296A0",
"t. c #969AA3",
"y. c #999CA6",
"u. c #9C9FA8",
"i. c #A09AA5",
"p. c #9EA1AA",
"a. c #A2A5AE",
"s. c #A4A7B0",
"d. c #A6A9B1",
"f. c #A9ACB4",
"g. c #B9ABB7",
"h. c #AEB1B9",
"j. c #B2B5BC",
"k. c #B6B8BF",
"l. c #C88A92",
"z. c #E58389",
"x. c #B7BAC1",
"c. c #BABDC3",
"v. c #CABBC5",
"b. c #BEC1C7",
"n. c #C2C4CA",
"m. c #C8CACF",
"M. c #CCCED3",
"N. c #CFD1D6",
"B. c #D4D5D9",
"V. c #D7D8DC",
"C. c #D9DBDE",
"Z. c #DDDFE1",
"A. c #DFE0E3",
"S. c #E1E2E5",
"D. c #E5E6E8",
"F. c #E7E8EA",
"G. c #EBECEE",
"H. c #EDE7E9",
"J. c None",
/* pixels */
"J.J.J.J.J.J.J.J.J.J.J.J.J.J.J.J.J.J.J.J.J.J.J.J.J.c U >.>.6.6.>.=.T c J.J.J.J.J.J.J.J.J.J.J.J.J.J.J.J.J.J.J.J.J.J.J.J.J.",
"J.J.J.J.J.J.J.J.J.J.J.J.J.J.J.J.J.J.J.J.J.J.J.J.J.k B.U 5.j.j.2.>.B.j J.J.J.J.J.J.J.J.J.J.J.J.J.J.J.J.J.J.J.J.J.J.J.J.J.",
"J.J.J.J.J.J.J.J.J.J.J.J.J.J.J.J.J.J.J.J.J.J.J.J.J.s V I P x.k.P >.V s J.J.J.J.J.J.J.J.J.J.J.J.J.J.J.J.J.J.J.J.J.J.J.J.J.",
"J.J.J.J.J.J.J.J.J.J.J.J.J.J.J.J.J.J.J.J.J.J.v -.>.6 I s K :.:.P d U 7 >.:.v J.J.J.J.J.J.J.J.J.J.J.J.J.J.J.J.J.J.J.J.J.J.",
"J.J.J.J.J.J.J.J.J.J.J.J.J.J.J.J.J.J.J.J.k 9.Z r.r.7 -.v - E T - c -.u r.r.Z 9.k J.J.J.J.J.J.J.J.J.J.J.J.J.J.J.J.J.J.J.J.",
"J.J.J.J.J.J.J.J.J.J.J.J.J.J.J.J.J.J.J.I y.j.P k.M.d 2.Z : v c : Z 5.s M.c.P j.y.I s J.J.J.J.J.J.J.J.J.J.J.J.J.J.J.J.J.J.",
"J.J.J.J.J.J.J.J.J.J.J.J.J.J.J.J.J.d 1.c.k.D.p.=.f.< 9.Z v f f v S 9.2 f.>.p.F.j.c.t.d J.J.J.J.J.J.J.J.J.J.J.J.J.J.J.J.J.",
"J.J.J.J.J.J.J.J.J.J.J.J.J.J.i J.C r.s.n.D.C.6.; i & d.C D U U S C f.% i = 7.V.D.n.f.r.Z J.i J.J.J.J.J.J.J.J.J.J.J.J.J.J.",
"J.J.J.J.J.J.J.J.J.J.J.J.J.f N.k 5.r.c.D.8.C : @ @ = 7 6 j P P j i 7 = @ + : Z 9.F.M.r.<.j N.v J.J.J.J.J.J.J.J.J.J.J.J.J.",
"J.J.J.J.J.J.J.J.J.J.J.J.c G.t.E i b.j.T s & # ; & # O . X . . o + O $ * : @ & s T p.n.i =.t.G.c J.J.J.J.J.J.J.J.J.J.J.J.",
"J.J.J.J.J.J.J.J.J.J.J.l C.a.=.:.P 8 Z < @ & = % @ 8 ;.s.u.j j u.p.S = + % = * @ < c 8 P <.E s.C.l J.J.J.J.J.J.J.J.J.J.J.",
"J.J.J.J.J.J.J.J.J.J.J.y.-.k.6.C 8.& X o * % % = =.8.a.k.f.S S f.h.p.7.Y * % % * o # % 8.C 6.n.-.y.J.J.J.J.J.J.J.J.J.J.J.",
"J.J.J.J.J.J.J.J.J.J.=.7.A D D Z I V   % @ @ j -.0.p.j.S.5.5.5.<.F.j.p.0.:.C & @ % o v U Z D S A 7.E J.J.J.J.J.J.J.J.J.J.",
"J.J.J.J.J.J.J.J.J.J.< I C j j S T . & o i <.r.a.h.u.Y K 9.6.6.9.P T y.h.s.r.<.a o @ . T S j d C P < J.J.J.J.J.J.J.J.J.J.",
"J.J.J.J.J.J.J.J.J.J.C i T Y V -.o # + j 8.p.s.u.j =.y.S h.5.5.h.S y.=.f p.s.p.9.j O # o >.V U T i K J.J.J.J.J.J.J.J.J.J.",
"J.J.J.J.J.J.J.J.J.J.a.j.C v 2.% @ o d 8.0.6.T 9.7 * % T c.s.s.c.U % = 7 9.Y 7.9.8.C o @ $ 2.S Z j.s.d J.J.J.J.J.J.J.J.J.",
"J.J.J.J.J.J.J.J.J.A s.M.c.= O # @ u 6.9.<.c T - 6 7 u >.h.p.a.h.P i 7 3 = T c <.9.5.2 + # o & c.M.a.S J.J.J.J.J.J.J.J.J.",
"J.J.J.J.J.J.J.J.J.8.p.V.<.; @ o & 2.5.8.s P @ 2 a 7 P U h.9.9.h.T P i a 2 @ P a 9.6.<.= o # * 1.V.p.t.J.J.J.J.J.J.J.J.J.",
"J.J.J.J.J.J.J.J.J.y.s.G.Z @ @ . T 2.8.s i = : d 4 j :.;.b.0.r.b.y.>.j 6 d : = a a 9.5.S . @ @ V G.s.t.Z J.J.J.J.J.J.J.J.",
"J.J.J.J.J.J.J.J.Z 7.Z.j.6 O O O T p.5.< : x v % 1.:.;.j.f.9.9.f.f.;.:.1.% v c : : 7 p.T o + + 7 h.A.9.A J.J.J.J.J.J.J.J.",
"J.J.J.J.J.J.J.J.K 6.8.=.& $ o 6 5.h.c T U Z P 6.3 -.x.j p.<.<.p.j x.-.2 5.F A I T C h.1.i o # & =.8.p.K J.J.J.J.J.J.J.J.",
"J.J.J.J.J.J.J.J.S n.1.< . O . Z 7.j 7.V ; < < s P n.s x p.5.1.p.c d b.P d < < ; C S j 7.S X + . < <.M.D J.J.J.J.J.J.J.J.",
"J.J.J.J.J.J.d j <.r.A = o o o T p.s j s s c 7 c c P <.x f.<.<.f.V :.U c v 4 v s s : s y.=.+ X o = A 9.5.j d J.J.J.J.J.J.",
"J.J.J.J.J.J.x.c.D.S.9.A i & % ;.t.f + 6 u j j P I i P 9.j.>.<.j.<.U u I P j j 7 6 & j t.>.% $ s S 9.S.F.c.x.J.J.J.J.J.J.",
"J.J.J.J.J.J.K 5.a.0.D x = + % C j 4 % 6 4 E f.5.j s f <.a.Y Y s.:.j d j 5.d.=.4 6 < 4 k V & o = c S 9.a.2.K J.J.J.J.J.J.",
"J.J.J.J.J.J.& P ;.<.<.v < o < & i 4 * 6 4 d f S P T k.x.-.j j -.f.x.T P D f d 4 6 < 3 i & < + < c <.2.<.D O J.J.J.J.J.J.",
"J.J.J.J.J.J.% C <.x.>.j 4   * % 6 & = < i - ;.D 9.t.Z k Z F d d j Z r.9.Z >.= i < 6 & 4 & =   d j -.x.<.j % J.J.J.J.J.J.",
"J.J.J.J.J.J.% Z l 0.U u 4   $ = < % = 8 a i % =.d.v d 8.I Z f S 7 6 i s.;.% a a i < % < * %   j i I r.c f * J.J.J.J.J.J.",
"J.J.J.J.J.J.% S V A s ; <   % $ 4 % = & 7.; A n.K I W h x 7 g k N 3.1 Z n.A ; 8.& ; % < $ %   l < d S v j * J.J.J.J.J.J.",
"J.J.J.J.J.J.% P = 1.: I 7   $ # 4 # < -.2 i V f r X.O.e.M k F 4.#.{ e u j v i < -.< # 4 # $   k P ; <.= S = J.J.J.J.J.J.",
"J.J.J.J.J.J.k a j j d d c   + @ 2 % j Z < 6 V 4 H ( | ~ [ L p _ ! ` 0 L < V 7 < C =.% 2 + @   6 s C P K v d J.J.J.J.J.J.",
"J.J.J.J.J.J.6.a.M.S.a.I j 4 = # < c U & 6 U k < t } *.z.) H.y./ %.&.Q w 4 j Y 4 & =.v < @ = < j P a.A.M.p.7.J.J.J.J.J.J.",
"J.J.J.J.J.J.s C :.<.Z d = % + 6 3 C S * u v s : L $.] ^ o.y.J ) ' ' @.9 ; a v 7 = d Z 2 3 o $ = d Z ;.<.C a J.J.J.J.J.J.",
"J.J.J.J.J.J.J.& j k < o X X o j 3 u u * T >.: $ z q.l.w.v.Y W +. ...B b = : -.E = X 8 2 j O . X O < j j & J.J.J.J.J.J.J.",
"J.J.J.J.J.J.J.s y.k.>.6 . . @ C 3 s O & 9.=.: : < p ,.g.J 5 g p B y 9 6 = - =.9.= % a 6 v + . . 6 -.x.t.i J.J.J.J.J.J.J.",
"J.J.J.J.J.J.J.i r.m.2.4 . . @ Z u u O & ;.S s : = G F g F b R R h 8 P - % a S -.% * 8 i Z @   . 4 1.N.t.a J.J.J.J.J.J.J.",
"J.J.J.J.J.J.J.d t.B.:.4 . X % C - 3 & =.P s Z * & f i 3.3.n > r G   d % % Z j P =.< 3 = C $   X 3 :.V.r.s J.J.J.J.J.J.J.",
"J.J.J.J.J.J.J.i r.j.;.4 X X % K s * A - u u C 2 & 2 2.5 r > o   5 m - % : C 6 7 ; S * s P % X X 3 -.b.r.i J.J.J.J.J.J.J.",
"J.J.J.J.J.J.J.i 0.t.P < o o = I u a j * O * S V # * v   . X o r   k % # Z Z * o = i a 7 U * o o 2 P u.0.i J.J.J.J.J.J.J.",
"J.J.J.J.J.J.J.i 8.0.S 2 o o * K i a 2 O Z $ j S v @ = A g 5 , m g < % v A g $ Z O % i a K * o o < S 7.9.i J.J.J.J.J.J.J.",
"J.J.J.J.J.J.J.u 9.y.P 6 o o # S s s O i * * + s C i % P n R n 5 v % i V j @ & & i o d f S # o o 6 P y.9.i J.J.J.J.J.J.J.",
"J.J.J.J.J.J.J.i 9.h.P 3 o X & Z u 2 o u a * & O v C C 4 F < % f 6 Z Z v O & * i u $ 3 6 Z & . o 4 P h.9.i J.J.J.J.J.J.J.",
"J.J.J.J.J.J.J.< 1.b.P 2 X   O Z - u O @ V j S U - % Y 8.F l j F 7.T $ ; P S j Z @ o 3 ; Z +   . 3 P c.5.< J.J.J.J.J.J.J.",
"J.J.J.J.J.J.J.< 5.b.U < . & i ; * l $ o o * * u f j @ : -.i i -.j @ j j u = & o o + l = ; i & . < I n.5.< J.J.J.J.J.J.J.",
"J.J.J.J.J.J.J.: 5.c.P ; . O * + & u s K K @ o $ d K K & V d d v = D K d & o @ D S k u & + * @ . : P x.5.< J.J.J.J.J.J.J.",
"J.J.J.J.J.J.J.: >.x.S = .   < - * * - 3 S P 3 p - : 5.<.v k j V Z 5.< - s < U S 3 - * & - < . . = S j.>.; J.J.J.J.J.J.J.",
"J.J.J.J.J.J.J.; T s.v %     ; & & 3 * l - s 4 & v 4 & : Z j j Z < & 3 v $ 7 d = c u 3 & & ;     % v a.T - J.J.J.J.J.J.J.",
"J.J.J.J.J.J.J.* U s.d #     < $ & u s * 3 V f ; 4 = = 6 V u u V < = = 4 = d V 3 & i u & $ : . . % f s.P = J.J.J.J.J.J.J.",
"J.J.J.J.J.J.J.-.r.s.Z = o   = $ * d * % @ l a v < < : i u 6.7.7 6 < < 2 V i l @ & 3 d * # = X o * Z p.r.-.J.J.J.J.J.J.J.",
"J.J.J.J.J.J.J.6 6.h.S = o + = # * x X ; 2 o o ; < & V s 0.V v 0.i V * : : o o 2 ; + x * $ = + o = S h.6.3 J.J.J.J.J.J.J.",
"J.J.J.J.J.J.C - s P 6 # o $ * + ; S ; & $ o @ : = i Z K T 8.6.E 5.V i - < @ o $ & * S ; + * $ o $ 3 P s - C J.J.J.J.J.J.",
"J.J.J.J.J.J.8.d.9.<.0.<.8.2 & % 3 U ;.1.T s P S v Z v 8.i p.p.i =.v Z v S K d E 1.<.P 3 % % 2 9.1.0.<.9.f.9.J.J.J.J.J.J.",
"J.J.J.J.J.J.y.a.9.t.9.=.A s # < x x j V k x s c k A u.f l 0.9.l f u.Z k c f l k V j x x < # u Z =.9.p.9.p.t.J.J.J.J.J.J.",
"J.J.J.J.J.J.5.=.r.8.Z c V d $ i U =.U T >.T T T S U s K s S K s I i I D I T T -.T T -.U i $ i V c Z 8.r.=.6.J.J.J.J.J.J.",
"J.J.J.J.J.J.:.-.s.t.=.j d < # ; l a k V j j Z c u c s c >.P K -.A i c i l Z f d V d a l ; # < f j =.8.d.=.<.J.J.J.J.J.J.",
"J.J.J.J.J.J.1.U 5.1.A i i = O < a u i c s s k i d Z c j c x c v i V V f i j d d c 7 u i < O * 8 i Z :.6.U <.J.J.J.J.J.J.",
"J.J.J.J.J.J.U U =.K l 7 < $ X $ * $ * * < ; ; = = ; S : i i u u 3 K ; = = ; ; < = % # & % . @ < u l S =.U P J.J.J.J.J.J.",
"J.J.J.J.J.J.d Z V c i ; % X . % * * * * ; ; ; = ; = = - = * * = = = - - - ; - ; * & & * % . . % ; i c Z Z d J.J.J.J.J.J.",
"J.J.J.J.J.J.k 6 2 ; $ # & : & J.J.J.J.J.J.J.J.J.J.J.J.J.J.J.J.J.J.J.J.J.J.J.J.J.J.J.J.J.J.& < & # $ - 3 7 k J.J.J.J.J.J.",
"J.J.J.J.J.J.< k i v 3 u : J.J.J.J.J.J.J.J.J.J.J.J.J.J.J.J.J.J.J.J.J.J.J.J.J.J.J.J.J.J.J.J.J.J.< u 3 V i k < J.J.J.J.J.J."
};
