/* XPM */
static char *_3525326359f4e90837042a829420f2b[] = {
/* columns rows colors chars-per-pixel */
"60 60 159 2 ",
"   c None",
".  c #040405",
"X  c #070708",
"o  c #070808",
"O  c #0B0B0C",
"+  c #0E0F10",
"@  c #0F1011",
"#  c #121214",
"$  c #161719",
"%  c #17181A",
"&  c #191A1D",
"*  c #281B1D",
"=  c #381315",
"-  c #1D1E21",
";  c #211F20",
":  c #281F22",
">  c #1F2023",
",  c #212226",
"<  c #24262A",
"1  c #27282D",
"2  c #292A2E",
"3  c #352B2E",
"4  c #2B2D32",
"5  c #2F3136",
"6  c #2F3238",
"7  c #313237",
"8  c #3C3634",
"9  c #32343A",
"0  c #36393E",
"q  c #383A3F",
"w  c #3C373C",
"e  c #421719",
"r  c #67191A",
"t  c #681E1F",
"y  c #5A1E20",
"u  c #582427",
"i  c #423C3C",
"p  c #4E3A3F",
"a  c #4A3236",
"s  c #513639",
"d  c #51393E",
"f  c #543034",
"g  c #632225",
"h  c #603235",
"j  c #713334",
"k  c #373A40",
"l  c #3A3C43",
"z  c #433E42",
"x  c #3E4047",
"c  c #3F4249",
"v  c #464546",
"b  c #484447",
"n  c #4F4846",
"m  c #42454C",
"M  c #45484F",
"N  c #4A494F",
"B  c #464951",
"V  c #4A4D54",
"C  c #4D4F58",
"Z  c #504F56",
"A  c #5A4E54",
"S  c #4D5057",
"D  c #4E515A",
"F  c #5B5457",
"G  c #52555E",
"H  c #57585A",
"J  c #5A5459",
"K  c #685056",
"L  c #535760",
"P  c #565A63",
"I  c #595D66",
"U  c #5B5F69",
"Y  c #685C65",
"T  c #795B60",
"R  c #715B62",
"E  c #5E626B",
"W  c #626063",
"Q  c #6B6463",
"!  c #61656E",
"~  c #66696F",
"^  c #6C6C6F",
"/  c #626671",
"(  c #656A74",
")  c #696C76",
"_  c #6A6E79",
"`  c #7F6E77",
"'  c #6E7077",
"]  c #6D717C",
"[  c #757375",
"{  c #72757F",
"}  c #7B727C",
"|  c #9A6A68",
" . c #727682",
".. c #7E7782",
"X. c #767A85",
"o. c #7A7C86",
"O. c #767B88",
"+. c #797E89",
"@. c #847F89",
"#. c #7D828D",
"$. c #7F8390",
"%. c #81848E",
"&. c #8B8688",
"*. c #93858D",
"=. c #828691",
"-. c #868A95",
";. c #898C95",
":. c #8A8E99",
">. c #908E9A",
",. c #8D919C",
"<. c #91949F",
"1. c #9B949F",
"2. c #B08F94",
"3. c #9296A0",
"4. c #969AA3",
"5. c #999CA6",
"6. c #9C9FA8",
"7. c #A99FA9",
"8. c #9EA1AA",
"9. c #A2A6AE",
"0. c #A4A7AF",
"q. c #A1A4AD",
"w. c #A4A7B0",
"e. c #A6A9B2",
"r. c #A5A9B1",
"t. c #A8ABB3",
"y. c #ABADB5",
"u. c #A9ACB4",
"i. c #AFB2BA",
"p. c #AEB1B9",
"a. c #B0B3BA",
"s. c #B1B4BB",
"d. c #B5B7BE",
"f. c #B3B5BD",
"g. c #B6B8BF",
"h. c #C6B4BC",
"j. c #D6B9B9",
"k. c #B7BAC1",
"l. c #BBBEC4",
"z. c #BCBFC5",
"x. c #BABCC3",
"c. c #BEC1C7",
"v. c #BFC1C7",
"b. c #C2C4CA",
"n. c #C8CACF",
"m. c #CBCDD2",
"M. c #CDCFD3",
"N. c #CCCED3",
"B. c #CFD1D6",
"V. c #D4D5D9",
"C. c #D7D8DC",
"Z. c #D9DBDE",
"A. c #DDDFE1",
"S. c #DFE0E3",
"D. c #E1E2E5",
"F. c #E5E6E8",
"G. c #E6E7E9",
"H. c #E7E8EA",
"J. c #EBECEE",
/* pixels */
"                                                  D _ X.o.-.-.o. ._ D                                                   ",
"                                                  V V.] =.s.s.=.+.V.V                                                   ",
"                                                  x L ) ) k.k.) +.L x                                                   ",
"                                            G o.X.9 _ c ( +.+.( m _ 9 X.+.G                                             ",
"                                        V ,.I 3.3.q X.G < { { < G X.q 3.4.I ,.V                                         ",
"                                      ) 5.s.( d.m.m =.I 2 D D 2 P =.m m.x.( s.5.) c                                     ",
"                                  m #.z.d.F.8. .y.4 ,.I G m m G ! ,.4 y.O.8.F.d.z.5.m                                   ",
"                            l   P 3.r.b.F.Z.-.1 l % t.P E _ _ E P t.% l < -.Z.F.b.y.3.P   l                             ",
"                          M B.V %.3.c.F.:.P 2 # # , q 9 B ) ) B l q , # # 2 P :.F.m.3.%.V B.G                           ",
"                        D J.4.] l c.f.] c - $ 1 - $ + X X X X O + + $ - 1 $ - c ] 8.c.l ] 4.H.D                         ",
"                      C Z.0. .+.( q P 4 # - , % # q o.r.6.B B 6.8.! , # % , - # 4 D q ( +. .t.Z.C                       ",
"                      5.X.d.-.P :.- o O , % % ,  .,.8.g.y.E E y.y.8.-._ , % % , O $ - :.P -.b.X.5.                      ",
"                     .;.U ! ! I ) G X & # # M X.<.8.s.D.%.=.=.%.F.s.8.<.+.P - # & o G ) I ! E U ;. .                    ",
"                    4 ) P V V E ] X & O l #.<.0.a.5.' ! ,.-.-.,.) ' 5.a.w.<.#.x O # X ] E V m P ) 4                     ",
"                    P l ] _ G X.+ $ @ V :.8.r.6.M  .5.E i.=.=.i.E 5. .M 6.r.8.:.V O $ + X.G ) ] l /                     ",
"                    0.s.P G %.% # O m :.<.-.' ,.9 , & ] l.0.0.l._ & , 9 ,.' -.<.;.P o # % %.E P s.0.m                   ",
"                  E 0.N.z., O $ # l -.,.+.G ] < 9 q l +.i.0.0.i.) l q 9 , ] G +.,.-.5 # $ O - z.N.0.E                   ",
"                  :.8.C.#.< $ O - %.=.:.x ) # 4 x l ( _ i.:.:.i.] ( l x 4 # ) x :.-.%., O $ , #.C.8.4.                  ",
"                  5.r.J.P $ $ X ' =.:.c l , 4 m 7 V +.X.c.3.3.c.5.+.V 7 m 4 , l c :.=.E X $ # P J.r.4.I                 ",
"                P -.S.i.9 + + O ] 6.-.4 2 D G - $.+.X.d.y.,.,.y.y.X.+.$.% G D 2 4 9 6.] O + # 9 i.S.,.U                 ",
"                / -.:. .& % o q =.i.D ] _ I ~ -.7 X.k.B 0.#.#.0.M k.X.7 -.~ I _ ] P i.%.l o $ &  .:.8./                 ",
"                ! b.#.4 X + o I -.B -.G 1 4 2 m ) b.m D 6.=.=.6.D m b.) m 2 4 1 G ! B -.E o @ X 4 #.N.!                 ",
"            m B #.<.U , o o O ] 5.m B m m G 7 D D ) +.V y.#.#.y.L +.) D G 7 G m m 4 m 5. .O o O , U <.#.B m             ",
"            k.x.H.D.,.E x - % +.4.B # 7 q B B ) _ l ) ,.f.+.+.f.#.) l _ ) B B q 7 & B 4.+.% % x E ,.D.H.x.k.            ",
"            / =.0.3.! D , # % P B 7 % 9 7  .y.-.B c B +.0.] ] 0.+.B c B =.y. .7 9 4 7 B P % O , D ! :.0.=./             ",
"            - ( o.#.#.D 4 O 4 - l 5 > 9 7 m M E ) ] k.k.X.V V X.y.k.] ) E M m 7 9 4 5 l - 4 # 4 D #.%.%.! +             ",
"            % I #.k.X.B 5 . , - 7 - , 4 l , +.E ,.4.U V P ( m m B P 3.,.I +., l 4 9 - 7 & , . M V X.k.#.B %             ",
"            % I S 3.) l 6 . % , 4 & , q l l % { r.G m :.) I M E q 9 l r.o.% l l q 4 & 4 , % . V l ) 3.S B >             ",
"            % E G U m 1 5 . % % 5 % , - ;.1 U b.( )  .m D 9 V V Z %.4 P b.U 1 ;.- 1 % 5 % % . C 4 m U G B >             ",
"            % ) , #.1 ) 9 . % $ 7 $ 4 X.5 l L M q ) } 1.G V ! ;.@.Y 3 q M L l 5 X.4 $ 7 $ % . C ) 1 #., E ,             ",
"            S x B B m m L . # # 5 % V P 4 9 L 5 / a T u A ( z p y h = ( 4 L 9 4 P  .% 5 # # . 9 c P ( ! G m             ",
"            -.q.N.D.0.) M 9 , $ 4 D _ - 9 ' V 5 w K j.h.d J.5.f | 2.e 2 5 V ' 9 -  .D 4 $ , 4 M ) 0.A.N.q.-.            ",
"            x P +.#.I m , & O 7 5 P U , q G x 2 ! *.j g ..5.) s r t } : 1 x G q , m P 5 7 O $ , m I o.+.P x             ",
"              - B V 4 + o o O V 7 l q , { X.4 $ V >.7.1.b.) { ..R ` J G > 4 X.{ , o l 7 V O X o + 4 V B -               ",
"              l 5.g.X.9 X X # P 9 c O , ,. .4 2 4 z @.f.) 0 M z F i * 9 > <  .,., % c 9 P # X X 9 X.g.5.l               ",
"              l 4.n.=.7 o X # P l l @ % o.E c 2 , ! ! N ^ H [ [ b q ( < & x E o.% - l l P # X o 7 =.B.4.l               ",
"              c 4.C.+.7 o o $ P < 5 %  ./ B P , & M l &.&.W 2 i Q X m & - P B /  .4 5 < P $ X o 7 +.C.4.c               ",
"              l 3.d.X.7 o o & / m > E 1 q 9 P 5 - 7 %.8 8 2 + ; 8 G < & 4 P 9 q 1 E > m / & o o 7 X.c.3.l               ",
"              l 3.5.( 4 o O > _ 9 x V < O > I P $ > D V v 2 2 F v C % $ P I > O < l x 9 _ > O o 4 ( 6.<.l               ",
"              l :.<.E 4 o O > / l l 4 + I $ V I G $ , =.W Q n i G 5 % G I V $ I + % l l / > O o 4 E ;.:.l               ",
"              l ,.5.( 9 O O $ E M m O l - - # M P l % 9 ! 4 < q l % l P V # - - l O m M E $ O O 9 ( 5.,.l               ",
"              l ,.y.) 7 o o % I 9 5 o q x , - O G P P 7 4 ! U 2 5 P P G O - , x q % 5 9 I % o o 7 ) i.,.l               ",
"              4 =.z.) 5 o X # P < 7 + # P V E ) < % ] ,.#.4 4 #.-.] % < ( E V P # o 7 < P # X o 5 ) l.=.4               ",
"              4 =.c.) 4 o - l 1 < C % O O - , q M B # 2 X.l l X.B # B M l , - O O @ C < 1 l - o 4 ) b.=.4               ",
"              4 $.z.) 1 X # , # - q V E / $ o & m / ! - G m m G , ! / m - o $ / E V q - # , # X 1 ) x.$.4               ",
"              2 X.g.E , X . 4 < - , , 5 E ) 5 m < 2 =.#.G V V G I =.2 < c 5 ) E 5 < , - < 4 X X , E f.X.2               ",
"              < ] r.G % X . 2 - & 9 - D < m 9 % G 7 - 2 I V V I 4 - 7 G $ 9 m < D q 9 & - 2 X X % G 0.] <               ",
"              , ) 0.m % X . 4 % % k m - 7 G m < 7 , , 9 L k k L 5 , , 7 , m G 7 - l k % % 4 X X % m r.) ,               ",
"              X.3.0.P , o . , $ > m - & # V x G 4 4 1 l q -.-.q 9 1 4 4 P x V # & 9 m > $ , X o , P 0.3.X.              ",
"              9 =.s.! , O # < $ > V o 1 4 O O 1 4 > G c <.G G <.l G > 4 2 O O 4 1 + V > $ < # O , ! i.=.9               ",
"            P < m ( 7 $ O % , + < E 1 - $ O $ 2 , l P / { ;.;.{ -.P l , 4 $ O $ - , E < + , $ O $ 7 ( m < P             ",
"            :.t.,.#.3.#.:.5 % % 9 ) +.=.] m ( E G I G :.l 8.8.l X.G I G E ( m ] =.+.) 9 % % 5 :.#.3.+.,.t.:.            ",
"            5.q.,.5.,. .I c $ 4 C D B P V V m D V I 5.M V ,.,.V M 5.I V D m V V P B D C 4 $ q I  .,.8.,.q.5.            ",
"            =. .<.:.I D L m % l _  ._ ] X.] ] _ ! ) c ( m ! ! m ) c ) ! _ ] ] X.] ]  ._ l % l L D I :.<. .=.            ",
"            #. .t.4.] B M 4 $ 2 V x V G M M I D l D m D X./ / X.U m D l D I M M G m x V 2 $ 2 M B ] -.t. .#.            ",
"            #.] =.#.U l q , + 4 x l l D m m B l M L D B G D D G l D L M l B m m D 9 l x 4 + > q l U #.=.] #.            ",
"            ) _  .! V 9 4 $ X % - % > , 4 1 1 , , < ! < q l l q 7 ! < , , 1 1 4 , % % - % X $ 4 9 V /  ._ )             ",
"            m P P G l 1 % X X & > - - , 1 < < < < , , , , > > , , , , < < < < 1 , - - > & X X % 1 l G P P m             ",
"            V 9 5 2 % $ & 2 -                                                             - 4 & $ % < 5 9 V             ",
"            4 V l G 5 q 2                                                                     2 q 5 G l V 4             "
};
