/* XPM */
static char *result[] = {
/* columns rows colors chars-per-pixel */
"60 60 145 2 ",
"   c #040405",
".  c #070708",
"X  c #070808",
"o  c #0B0B0C",
"O  c #0E0F10",
"+  c #0F1011",
"@  c #121214",
"#  c #161719",
"$  c #17181A",
"%  c #191A1D",
"&  c #281B1D",
"*  c #381315",
"=  c #1D1E21",
"-  c #211F20",
";  c #281F22",
":  c #1F2023",
">  c #212226",
",  c #24262A",
"<  c #27282D",
"1  c #292A2E",
"2  c #352B2E",
"3  c #2B2D32",
"4  c #2F3136",
"5  c #2F3238",
"6  c #313237",
"7  c #3C3634",
"8  c #32343A",
"9  c #3C373C",
"0  c #36393E",
"q  c #383A3F",
"w  c #421719",
"e  c #67191A",
"r  c #681E1F",
"t  c #5A1E20",
"y  c #582427",
"u  c #4A3236",
"i  c #423C3C",
"p  c #4E3A3F",
"a  c #543034",
"s  c #513639",
"d  c #51393E",
"f  c #632225",
"g  c #603235",
"h  c #713334",
"j  c #373A40",
"k  c #3A3C43",
"l  c #433E42",
"z  c #3E4047",
"x  c #3F4249",
"c  c #464546",
"v  c #484447",
"b  c #4F4846",
"n  c #42454C",
"m  c #45484F",
"M  c #4A494F",
"N  c #464951",
"B  c #4A4D54",
"V  c #4D4F58",
"C  c #504F56",
"Z  c #5A4E54",
"A  c #4D5057",
"S  c #4E515A",
"D  c #5B5457",
"F  c #52555E",
"G  c #5A5459",
"H  c #57585A",
"J  c #685056",
"K  c #535760",
"L  c #565A63",
"P  c #595D66",
"I  c #5B5F69",
"U  c #685C65",
"Y  c #715B62",
"T  c #795B60",
"R  c #5E626B",
"E  c #626063",
"W  c #6B6463",
"Q  c #61656E",
"!  c #66696F",
"~  c #6C6C6F",
"^  c #626671",
"/  c #656A74",
"(  c #696C76",
")  c #6A6E79",
"_  c #7F6E77",
"`  c #6E7077",
"'  c #6D717C",
"]  c #757375",
"[  c #72757F",
"{  c #7B727C",
"}  c #9A6A68",
"|  c #727682",
" . c #7E7782",
".. c #767A85",
"X. c #7A7C86",
"o. c #767B88",
"O. c #797E89",
"+. c #847F89",
"@. c #7D828D",
"#. c #7F8390",
"$. c #898283",
"%. c #81848E",
"&. c #8D8A8C",
"*. c #93858D",
"=. c #828691",
"-. c #868A95",
";. c #898C95",
":. c #8A8E99",
">. c #908E9A",
",. c #8D919C",
"<. c #91949F",
"1. c #9B949F",
"2. c #B08F94",
"3. c #9296A0",
"4. c #969AA3",
"5. c #999CA6",
"6. c #9C9FA8",
"7. c #A99FA9",
"8. c #9EA1AA",
"9. c #A2A5AE",
"0. c #A4A7B0",
"q. c #A6A9B1",
"w. c #A9ACB4",
"e. c #AEB1B9",
"r. c #B2B5BC",
"t. c #B6B8BF",
"y. c #C6B4BC",
"u. c #D6B9B9",
"i. c #B7BAC1",
"p. c #BABDC3",
"a. c #BEC1C7",
"s. c #C2C4CA",
"d. c #C8CACF",
"f. c #CCCED3",
"g. c #CFD1D6",
"h. c #D4D5D9",
"j. c #D7D8DC",
"k. c #D9DBDE",
"l. c #DDDFE1",
"z. c #DFE0E3",
"x. c #E1E2E5",
"c. c #E5E6E8",
"v. c #E7E8EA",
"b. c #EBECEE",
"n. c None",
/* pixels */
"n.n.n.n.n.n.n.n.n.n.n.n.n.n.n.n.n.n.n.n.n.n.n.n.n.S ) o...-.-.X.| ) S n.n.n.n.n.n.n.n.n.n.n.n.n.n.n.n.n.n.n.n.n.n.n.n.n.",
"n.n.n.n.n.n.n.n.n.n.n.n.n.n.n.n.n.n.n.n.n.n.n.n.n.B h.) =.r.r.=.o.h.B n.n.n.n.n.n.n.n.n.n.n.n.n.n.n.n.n.n.n.n.n.n.n.n.n.",
"n.n.n.n.n.n.n.n.n.n.n.n.n.n.n.n.n.n.n.n.n.n.n.n.n.k K ( / i.i.^ o.K k n.n.n.n.n.n.n.n.n.n.n.n.n.n.n.n.n.n.n.n.n.n.n.n.n.",
"n.n.n.n.n.n.n.n.n.n.n.n.n.n.n.n.n.n.n.n.n.n.F O...0 ) x ^ O.O./ m ) 0 o.O.F n.n.n.n.n.n.n.n.n.n.n.n.n.n.n.n.n.n.n.n.n.n.",
"n.n.n.n.n.n.n.n.n.n.n.n.n.n.n.n.n.n.n.n.B ,.P 3.3.0 ..F , ' | , F | j 3.4.P :.N n.n.n.n.n.n.n.n.n.n.n.n.n.n.n.n.n.n.n.n.",
"n.n.n.n.n.n.n.n.n.n.n.n.n.n.n.n.n.n.n.( 5.r./ t.f.m @.P 3 S S 1 L =.m f.p./ r.5.( x n.n.n.n.n.n.n.n.n.n.n.n.n.n.n.n.n.n.",
"n.n.n.n.n.n.n.n.n.n.n.n.n.n.n.n.n.m @.a.t.c.6.| w.3 ,.P F m m F R ,.3 w.o.6.c.i.p.5.m n.n.n.n.n.n.n.n.n.n.n.n.n.n.n.n.n.",
"n.n.n.n.n.n.n.n.n.n.n.n.n.n.k n.L 3.0.a.c.k.-.< k % w.L R ) ) R L w.= j , -.l.c.s.w.3.K n.j n.n.n.n.n.n.n.n.n.n.n.n.n.n.",
"n.n.n.n.n.n.n.n.n.n.n.n.n.m g.B @.3.a.c.,.K 3 + @ , 0 0 N ^ / N j j , @ + 1 L ,.c.f.3.%.B g.F n.n.n.n.n.n.n.n.n.n.n.n.n.",
"n.n.n.n.n.n.n.n.n.n.n.n.S b.4.[ k a.r.' x = # < = # + . . . . o + + # = < # = x ' 8.a.k [ 4.v.S n.n.n.n.n.n.n.n.n.n.n.n.",
"n.n.n.n.n.n.n.n.n.n.n.V k.9.| O./ j L 3 + = , % @ 0 X.q.6.N N 6.8.R : + % , = + 3 S 0 / O.| w.k.S n.n.n.n.n.n.n.n.n.n.n.",
"n.n.n.n.n.n.n.n.n.n.n.5...t.-.L :.= X o : = % : [ ,.8.t.w.R R w.e.8.:.` : % % : o # = :.L -.s...5.n.n.n.n.n.n.n.n.n.n.n.",
"n.n.n.n.n.n.n.n.n.n.| ;.I Q Q P ( K   % @ + N o.<.8.r.x.%.=.#.=.c.e.8.3.O.L = @ % o K ( P R R I ;.| n.n.n.n.n.n.n.n.n.n.",
"n.n.n.n.n.n.n.n.n.n.3 ( L N N R ' . = o k #.<.0.e.5.` ^ ,.-.=.,.( ` 6.e.q.3.@.z o @ X ' R N m K ( 1 n.n.n.n.n.n.n.n.n.n.",
"n.n.n.n.n.n.n.n.n.n.L k ' ` K ..+ @ + N :.8.q.6.N | 5.R e.=.=.e.R 5.| m 6.q.8.:.N o # O ..K ( | k ^ n.n.n.n.n.n.n.n.n.n.",
"n.n.n.n.n.n.n.n.n.n.9.r.L F %.% @ o m :.<.-.` ,.0 : = ' p.0.q.p.) % > 0 ,.` ;.<.:.L o @ % =.R L r.0.n n.n.n.n.n.n.n.n.n.",
"n.n.n.n.n.n.n.n.n.R 9.f.p.> o # @ k =.,.@.S ' , 5 0 j o.e.8.9.e.( j j 5 , ' S @.,.=.5 @ # o = p.f.9.Q n.n.n.n.n.n.n.n.n.",
"n.n.n.n.n.n.n.n.n.:.6.j.@., # o = @.=.,.z ( @ 4 z k / ` e.,.,.e.` / j x 5 + ( z ,.=.=.: o # : @.j.8.3.n.n.n.n.n.n.n.n.n.",
"n.n.n.n.n.n.n.n.n.5.q.b.P # @ . ' @.:.z k > 3 x 5 B o...a.<.<.a.8.O.B 6 m 3 > k x ,.=.R . @ @ L b.q.3.I n.n.n.n.n.n.n.n.",
"n.n.n.n.n.n.n.n.L ;.z.e.0 o O o [ 8.-.1 < S F = @.O...t.w.,.,.w.w.| O.#.$ S S 1 3 8 8.' o + + 0 e.z.,.I n.n.n.n.n.n.n.n.",
"n.n.n.n.n.n.n.n.^ =.:.| % $ o 0 =.e.S ' ` P / =.5 ..i.m 9.@.@.8.m i.| 6 =.! P ) ' L e.#.k o # % | ,.8.^ n.n.n.n.n.n.n.n.",
"n.n.n.n.n.n.n.n.^ s.%.3 o O . P ;.m ;.K < 3 3 x / s.x A 8.#.#.8.S m s./ n 3 3 < K R N -.R X O . 1 @.f.R n.n.n.n.n.n.n.n.",
"n.n.n.n.n.n.n N #.3.I > o o o ' 5.x N x x F 5 S S ( @.A q.@.@.w.K O./ S F 6 F x x 3 x 6.| + o o , I 3.#.N n n.n.n.n.n.n.",
"n.n.n.n.n.n.i.p.c.x.,.I k = % ..4.N + 8 j N N ( ` j ( ,.e.@.@.r.@.) j ) / N N 0 8 = m 3.o.% $ z I ,.z.v.p.p.n.n.n.n.n.n.",
"n.n.n.n.n.n.^ =.9.3.Q S > @ % L N 5 % j 5 | w.=.N x N @.9.' ' 9.@.N n N =.w.| 5 j 3 6 N K % o : S R :.9.%.^ n.n.n.n.n.n.",
"n.n.n.n.n.n.= / X.@.%.S 1 o 3 = k 5 : 8 8 x N R / ' t.i.| N M ..w.i.` / R m n 8 0 3 6 k = 3 @ 3 F @.%.@.Q + n.n.n.n.n.n.",
"n.n.n.n.n.n.$ P @.i.o.N 6   : = 8 = : 3 k , X.U ,.5.R B H Q n n m L 3.,.P o., k 3 6 = 6 = >   n N ..i.@.N % n.n.n.n.n.n.",
"n.n.n.n.n.n.$ P B 3.) j 8   $ : 3 % : j x k % | 0.S z :.` R m R 0 0 k 9.X.% k z 0 3 % 3 > %   B k ( 3.A m : n.n.n.n.n.n.",
"n.n.n.n.n.n.% R F I x < 3   % % 5 $ , = ;.< I s.^ / | c S 0 N N C %.2 P s.I < :.= < # 5 % %   B 3 n R S N : n.n.n.n.n.n.",
"n.n.n.n.n.n.% / , #.< ( 8   % @ 6 # 1 ..4 j K N j ~ { 1.H N Q :.+.U 2 0 N K j 3 ..3 # 6 # %   B / < @., R > n.n.n.n.n.n.",
"n.n.n.n.n.n.A z N N x m K   + + 5 % B L 3 8 K 4 / u T y Z ! c p t g * / 3 L 0 3 L | $ 5 + +   8 x L / Q S n n.n.n.n.n.n.",
"n.n.n.n.n.n.-.9.f.z.9.( m 6 , @ 3 S ' = 8 ` B 3 i J u.y.d b.5.a } 2.w 1 6 N ` 8 = | S 3 @ , < N ( 9.z.f.9.:.n.n.n.n.n.n.",
"n.n.n.n.n.n.x L O.@.I n > % o 8 3 P I > 0 F k 3 ! *.h f  .5./ s e r { > < x F 0 > m L 5 6 + # > n P X.@.K x n.n.n.n.n.n.",
"n.n.n.n.n.n.n.= N B 1 O . X o B 5 j j > | | 3 # B >.7.1.s.~ [  .Y _ D H = 3 ..[ > . j 6 N o . o O 3 N N = n.n.n.n.n.n.n.",
"n.n.n.n.n.n.n.z 5.t.X.6 . . @ L 8 x O : ,.| 3 1 3 i +.e.~ q c c Z i & 0 - , | ,.: % x 8 F @   . 8 ..i.5.z n.n.n.n.n.n.n.",
"n.n.n.n.n.n.n.k 3.d.=.5 . . @ L k j O $ X.R x 1 , Q Q M ~ H ] ] v 0 ! , = k Q X.% = j k L @   . 5 #.f.3.k n.n.n.n.n.n.n.",
"n.n.n.n.n.n.n.n 3.h.X.5 X . @ P < 4 = | ^ B L > % M k &.$.E 1 i W . n % % P N ^ | 3 5 , L $ . X 6 O.k.5.x n.n.n.n.n.n.n.",
"n.n.n.n.n.n.n.k 3.t...5 o o % ^ n > I , j 8 L 3 - 4 %.7 u 1 + - 7 F < % 3 L 8 0 < I : m ^ % X o 5 ..p.3.k n.n.n.n.n.n.n.",
"n.n.n.n.n.n.n.k <.5./ 4 o o : ( j k N < o : P L # = V B c 1 1 J c V % # L I > o , j x 8 ( : o o 3 / 6.<.k n.n.n.n.n.n.n.",
"n.n.n.n.n.n.n.k ,.,.R 3 o + : ^ k k 3 O P # B P F # > =.E W b i H 3 % S P N # P O % k k ^ : o o 3 R :.,.k n.n.n.n.n.n.n.",
"n.n.n.n.n.n.n.j ,.5./ 5 o O # R m m O j = = @ m K x % 8 ! 1 , 0 j = k L N @ = = j o n m R # o o 8 / 6.<.j n.n.n.n.n.n.n.",
"n.n.n.n.n.n.n.j ,.w.( 5 o X = P j 3 o 0 x : = O F L L 6 1 ! P 3 3 L P S O = : x j % 3 0 P = . X 6 / e.:.k n.n.n.n.n.n.n.",
"n.n.n.n.n.n.n.3 =.a.( 5 X   O L , 6 O @ L B I / , % ` :.@.4 3 @.;.| = , / R N L @ o 6 < P O   o 5 / p.=.3 n.n.n.n.n.n.n.",
"n.n.n.n.n.n.n.3 =.a./ 3 X = k < , V # o o = > j m N @ 1 X.k k X.m O N m j > = o o O V > < k = . 3 ) s.=.3 n.n.n.n.n.n.n.",
"n.n.n.n.n.n.n.3 #.p./ < . O : + = j B ^ ^ # o = n ^ ^ = K m n F > ^ ^ n = o @ Q Q N j = + : @ X < / p.#.3 n.n.n.n.n.n.n.",
"n.n.n.n.n.n.n.1 o.i.R > .   3 , = > > 3 I ) 3 k , < =.@.K N N F P =.1 , x 4 ( R 5 , : = , 3 . . > R r.o.< n.n.n.n.n.n.n.",
"n.n.n.n.n.n.n., ' q.S %     < = % 8 = V < n 6 = F 5 = 1 P N N P 3 = 4 K $ 6 x < V j 5 = = <     % F 8.| < n.n.n.n.n.n.n.",
"n.n.n.n.n.n.n.> ) 9.m #     3 % % j n = 5 F n < 6 > > 0 K j j K 4 , - 6 : m K 5 = k j = % < . . # m q./ > n.n.n.n.n.n.n.",
"n.n.n.n.n.n.n...4.0.P , o   , # = x : % @ B z F 3 3 < k j -.;.0 8 < 3 3 L k V @ % 8 x : $ , X X , P 8.4.o.n.n.n.n.n.n.n.",
"n.n.n.n.n.n.n.8 =.e.R : X + , # : A X < 5 o o < 3 = K x <.K F <.j K = 3 3 o O 3 < + A : @ , + o : R e.=.5 n.n.n.n.n.n.n.",
"n.n.n.n.n.n.L , x / 8 # O % : + , R < : # o @ 3 , k K ^ | :.;.| =.K k > 3 @ o # = > R , + : % o $ 5 ( x , L n.n.n.n.n.n.",
"n.n.n.n.n.n.:.w.,.#.<.@.:.5 % % 8 ( o.#.' x / R F L K :.j 8.8.j ..K P K R / x ' #.@.( 5 % % 4 :.#.<.@.:.w.,.n.n.n.n.n.n.",
"n.n.n.n.n.n.5.8.,.5.,.| P x # 3 A S N K N B m A V P 6.m V <.,.B m 5.P B S n B N K N S A 3 @ j P | ,.8.<.8.5.n.n.n.n.n.n.",
"n.n.n.n.n.n.=.| 3.:.L A K n % j ' | ( | o.| ' ' R / x / x R ^ m / x ( ^ ) | | o.' ' | ' k % k K A L :.<.| =.n.n.n.n.n.n.",
"n.n.n.n.n.n.@.| w.3.| N m 3 @ 3 B x N K N N P A j S m S o.^ ^ ..I n V j V P m n K m x B 3 @ 1 m N | -.w.| @.n.n.n.n.n.n.",
"n.n.n.n.n.n.@.' =.@.I k 0 , + 1 x j k S x x N k m K S N S A S S k V L m k N n x S 8 j z 3 O > j k P @.=.' @.n.n.n.n.n.n.",
"n.n.n.n.n.n./ ) | ^ V 8 4 # . $ = # : : 3 < < : , , ^ , j j k j 6 ^ < > > < < 3 > % $ = % . @ 3 j V ^ | ) / n.n.n.n.n.n.",
"n.n.n.n.n.n.m L K F k < % . . % : : : : < < < , , , : , , : : , > > , , , < , < : = = : % . . % < k S L L x n.n.n.n.n.n.",
"n.n.n.n.n.n.V 8 5 < % # % 3 = n.n.n.n.n.n.n.n.n.n.n.n.n.n.n.n.n.n.n.n.n.n.n.n.n.n.n.n.n.n.= < = # % , 5 5 V n.n.n.n.n.n.",
"n.n.n.n.n.n.3 B k F 5 j 1 n.n.n.n.n.n.n.n.n.n.n.n.n.n.n.n.n.n.n.n.n.n.n.n.n.n.n.n.n.n.n.n.n.n.3 8 5 F k V 4 n.n.n.n.n.n."
};
