/* XPM */
static char *result[] = {
/* columns rows colors chars-per-pixel */
"60 60 106 2 ",
"   c #040404",
".  c #070708",
"X  c #070808",
"o  c #0B0B0C",
"O  c #0E0F10",
"+  c #0F1012",
"@  c #121314",
"#  c #161719",
"$  c #17181A",
"%  c #191A1D",
"&  c #251F1C",
"*  c #1D1E21",
"=  c #1F2024",
"-  c #212226",
";  c #2C2826",
":  c #24252A",
">  c #27292D",
",  c #292A2E",
"<  c #2C2D32",
"1  c #2F3136",
"2  c #2F3238",
"3  c #303237",
"4  c #33353A",
"5  c #37393F",
"6  c #383A3F",
"7  c #413B3A",
"8  c #373940",
"9  c #3A3C43",
"0  c #3E4047",
"q  c #3F4249",
"w  c #464243",
"e  c #42454C",
"r  c #45484F",
"t  c #494A4D",
"y  c #5A4F4C",
"u  c #464951",
"i  c #4A4C54",
"p  c #4D4F58",
"a  c #4D5057",
"s  c #4E515A",
"d  c #555255",
"f  c #5B5556",
"g  c #52555E",
"h  c #585A5D",
"j  c #625654",
"k  c #535760",
"l  c #565963",
"z  c #595D66",
"x  c #5B5F69",
"c  c #5D616B",
"v  c #61646E",
"b  c #66686F",
"n  c #726D6E",
"m  c #626670",
"M  c #656A74",
"N  c #696D77",
"B  c #6A6E79",
"V  c #6D727E",
"C  c #70737E",
"Z  c #6F7481",
"A  c #727682",
"S  c #767A86",
"D  c #797C86",
"F  c #767B88",
"G  c #7A7E89",
"H  c #7D828D",
"J  c #7F8390",
"K  c #82848D",
"L  c #828691",
"P  c #868A95",
"I  c #898C94",
"U  c #8A8E99",
"Y  c #8D919C",
"T  c #91959F",
"R  c #9296A0",
"E  c #9599A3",
"W  c #999CA6",
"Q  c #9B9FA8",
"!  c #9DA1AA",
"~  c #A1A5AD",
"^  c #A2A6B2",
"/  c #A6A9B1",
"(  c #A9ACB4",
")  c #ADB1B8",
"_  c #B3B5BC",
"`  c #B6B8BF",
"'  c #B7BAC1",
"]  c #BBBDC3",
"[  c #BEC1C7",
"{  c #BEC1CC",
"}  c #C1C4C9",
"|  c #C8CACF",
" . c #C2C6D1",
".. c #CCCED3",
"X. c #CFD1D6",
"o. c #D4D5D9",
"O. c #D7D8DC",
"+. c #D9DBDE",
"@. c #DBDDE1",
"#. c #DFE0E3",
"$. c #E1E2E5",
"%. c #E5E6E8",
"&. c #E7E8EA",
"*. c #EBECEE",
"=. c #ECEEF1",
"-. c None",
/* pixels */
"-.-.-.-.-.-.-.-.-.-.-.-.-.-.-.-.-.-.-.-.-.-.-.-.-.s B F F P P S A B s -.-.-.-.-.-.-.-.-.-.-.-.-.-.-.-.-.-.-.-.-.-.-.-.-.",
"-.-.-.-.-.-.-.-.-.-.-.-.-.-.-.-.-.-.-.-.-.-.-.-.-.i o.V K _ _ K F o.i -.-.-.-.-.-.-.-.-.-.-.-.-.-.-.-.-.-.-.-.-.-.-.-.-.",
"-.-.-.-.-.-.-.-.-.-.-.-.-.-.-.-.-.-.-.-.-.-.-.-.-.0 k M M ' ` M G k 9 -.-.-.-.-.-.-.-.-.-.-.-.-.-.-.-.-.-.-.-.-.-.-.-.-.",
"-.-.-.-.-.-.-.-.-.-.-.-.-.-.-.-.-.-.-.-.-.-.g F F 4 B q m G G M r B 4 F G g -.-.-.-.-.-.-.-.-.-.-.-.-.-.-.-.-.-.-.-.-.-.",
"-.-.-.-.-.-.-.-.-.-.-.-.-.-.-.-.-.-.-.-.i Y z R R 5 F g : C A : g S 5 R R z U i -.-.-.-.-.-.-.-.-.-.-.-.-.-.-.-.-.-.-.-.",
"-.-.-.-.-.-.-.-.-.-.-.-.-.-.-.-.-.-.-.B W _ M ` ..e K z , s s , l L e ..] M _ W B q -.-.-.-.-.-.-.-.-.-.-.-.-.-.-.-.-.-.",
"-.-.-.-.-.-.-.-.-.-.-.-.-.-.-.-.-.r H ] ` %.Q A ( < Y z g r e g v Y 1 ( F ! %.' ] W e -.-.-.-.-.-.-.-.-.-.-.-.-.-.-.-.-.",
"-.-.-.-.-.-.-.-.-.-.-.-.-.-.9 -.l R / [ %.+.I > 9 % / z c N B v l ( % 8 : I +.%.} ( R l -.8 -.-.-.-.-.-.-.-.-.-.-.-.-.-.",
"-.-.-.-.-.-.-.-.-.-.-.-.-.r X.i K R ] %.Y l > @ @ : 5 4 u M M u 9 8 : @ @ , z U %...E K i X.g -.-.-.-.-.-.-.-.-.-.-.-.-.",
"-.-.-.-.-.-.-.-.-.-.-.-.g *.E V 9 [ ` V q * @ > * # @   .   . .   O # * , @ % q V ! [ 9 C E *.g -.-.-.-.-.-.-.-.-.-.-.-.",
"-.-.-.-.-.-.-.-.-.-.-.p O.~ A G M 5 l < @ * : % @   -.-.-.-.-.-.-.-.@ @ % - * @ < p 6 M G A / +.s -.-.-.-.-.-.-.-.-.-.-.",
"-.-.-.-.-.-.-.-.-.-.-.W G _ P l U * . o - % $ O -.-.-.-.-.-.-.-.-.-.-.-.@ # % - o # % U l P } S W -.-.-.-.-.-.-.-.-.-.-.",
"-.-.-.-.-.-.-.-.-.-.A I x v v z M k   * @ o   -.-.-.-.-.-.-.-.-.-.-.-.-.-.+ + @ % o g N z v c x I A -.-.-.-.-.-.-.-.-.-.",
"-.-.-.-.-.-.-.-.-.-.< N l u u c C   % o $ i -.-.-.-.-.-.-.-.-.-.-.-.-.-.-.-.S - o @   V c u r g M < -.-.-.-.-.-.-.-.-.-.",
"-.-.-.-.-.-.-.-.-.-.l 9 V V g D O # @ o c z -.-.-.-.-.-.-.-.-.-.-.-.-.-.-.-.Q B o o $ O F g B Z 9 m -.-.-.-.-.-.-.-.-.-.",
"-.-.-.-.-.-.-.-.-.-.~ _ l g K $ @ o   u = c -.-.-.-.-.-.-.-.-.-.-.-.-.-.-.-.~ , g 4 o @ % K c l _ ~ e -.-.-.-.-.-.-.-.-.",
"-.-.-.-.-.-.-.-.-.c ~ ..] : o $ + o l % > c -.-.-.-.-.-.-.-.-.-.-.-.-.-.-.-./ 3 4 p o @ # O * ] ..~ v -.-.-.-.-.-.-.-.-.",
"-.-.-.-.-.-.-.-.-.Y ! O.H : # o @ G u * 9 c -.-.-.-.-.-.-.-.-.-.-.-.-.-.-.-.! e : z P @ o @ = H O.! R -.-.-.-.-.-.-.-.-.",
"-.-.-.-.-.-.-.-.-.W / *.z @ @   z u * < l c -.-.-.-.-.-.-.-.-.-.-.-.-.-.-.-.T x < - i g   @ @ z *./ E z -.-.-.-.-.-.-.-.",
"-.-.-.-.-.-.-.-.l P @._ 5 o o   x * 4 > c z -.-.-.-.-.-.-.-.-.-.-.-.-.-.-.-.P m 4 g : H   O @ 4 ) $.Y x -.-.-.-.-.-.-.-.",
"-.-.-.-.-.-.-.-.m P U A * $ o = V g u i M k -.-.-.-.-.-.-.-.-.-.-.-.-.-.-.-.C G g q c ~ * o # * A U ! m -.-.-.-.-.-.-.-.",
"-.-.-.-.-.-.-.-.m } H <   O o q B 3 > 1 q x -.-.-.-.-.-.-.-.-.-.-.-.-.-.-.-.S g 4 q 4 Q e o + . , H ..v -.-.-.-.-.-.-.-.",
"-.-.-.-.-.-.e r H T x - o o   e Z - < 8 s z -.-.-.-.-.-.-.-.-.-.-.-.-.-.-.-.B l q m q / e . o o : x T J u e -.-.-.-.-.-.",
"-.-.-.-.-.-.' ] &.$.Y c 0 % + e x % , l 4 l -.-.-.-.-.-.-.-.-.-.-.-.-.-.-.-.M 4 v Z 4 Y 9 * # 9 x Y $.%.] ' -.-.-.-.-.-.",
"-.-.-.-.-.-.m L ~ T v s = @ + , r % % 5 c s -.-.-.-.-.-.-.-.-.-.-.-.-.-.-.-.k c x k 4 m 6 % o - s v U ~ K m -.-.-.-.-.-.",
"-.-.-.-.-.-.* M D H K d < o < e < % % z z -.-.-.-.-.-.-.-.-.-.-.-.-.-.-.L [ B < L g 4 g l g @ < s H K K b o -.-.-.-.-.-.",
"-.-.-.-.-.-.$ z H ' F u 2   o 5 % $ - i 0 -.-.-.-.-.-.-.-.-.-.-.-.-.-.h =.@.m q r < 3 e r 4   e u F ` H u % -.-.-.-.-.-.",
"-.-.-.-.-.-.$ z a T N 5 2   o u = $ e G -.-.-.-.-.-.-.-.-.-.-.-.-.-.-.S ^ ) { x g 8 4 i l 8   i 9 N T a u = -.-.-.-.-.-.",
"-.-.-.-.-.-.% c g x e > <   @ 6 * o % e -.-.-.-.-.-.-.-.-.-.-.-.-.-.-.=.B S l z h 4 - e u 5   i , e x g u = -.-.-.-.-.-.",
"-.-.-.-.-.-.% M : J > M 4   o 4 % e $ 3 -.-.-.-.-.-.-.-.-.-.-.-.-.-.4 W V e t : u 4 B 9 e 4   i N , H : c : -.-.-.-.-.-.",
"-.-.-.-.-.-.i 0 u u r e k   o > # 9 - -.-.-.-.-.-.-.-.-.-.-.-.-.-.-.-. .z d ( z < 4 B 4 9 :   4 e l M v g e -.-.-.-.-.-.",
"-.-.-.-.-.-.P ~ ..$.~ M e 4 - 5 % # # -.-.-.-.-.-.-.-.-.-.-.-.-.-.-.3 ^ u % r F 8 8 r 4 s l , r M ! @...~ P -.-.-.-.-.-.",
"-.-.-.-.-.-.q l G H z e - % o - = o - -.-.-.-.-.-.-.-.-.-.-.-.-.-.-. .I p M A 4 # 4 - 9 < * # - e z G H l 0 -.-.-.-.-.-.",
"-.-.-.-.-.-.-.* r i < o . X o > > O 8 -.-.-.-.-.-.-.-.-.-.-.-.-.-.-.C i U e < : i 9 : i < @   . O , u u * -.-.-.-.-.-.-.",
"-.-.-.-.-.-.-.q W ` S 4   X o > , O i -.-.-.-.-.-.-.-.-.-.-.-.-.-.-.f n u B e k * 1 > s < @ O   4 F ` W 9 -.-.-.-.-.-.-.",
"-.-.-.-.-.-.-.9 E | K 4 o   o = > , > -.-.-.-.-.-.-.-.-.-.-.-.-.-.-.d y f z * k : 4 9 i < @ O . 3 H X.E 0 -.-.-.-.-.-.-.",
"-.-.-.-.-.-.-.e E o.G 2 X   o < 4 2 o - -.-.-.-.-.-.-.-.-.-.-.-.-.-.: w 7 w M u , 4 z k < # O . 3 G O.E q -.-.-.-.-.-.-.",
"-.-.-.-.-.-.-.9 Y ` D 2 o o o > < @ - 4 -.-.-.-.-.-.-.-.-.-.-.-.-.-.-.j f t . k 4 9 2 g < % + o 3 F ] R 9 -.-.-.-.-.-.-.",
"-.-.-.-.-.-.-.9 T W m 1 o o o > 4 o % 4 = -.-.-.-.-.-.-.-.-.-.-.-.-.-.; & - % O s % * g 4 # @ o < M Q R 9 -.-.-.-.-.-.-.",
"-.-.-.-.-.-.-.9 Y Y c 1 o o o : < O o @ e : -.-.-.-.-.-.-.-.-.-.-.-.-.-.m k * 4 < - * g < % # o 2 c P Y 9 -.-.-.-.-.-.-.",
"-.-.-.-.-.-.-.8 Y W M 4 o o X = - + 4 < , 2 -.-.-.-.-.-.-.-.-.-.-.-.-.-.-.-.6 l p N - i < $ @ o 4 M W Y 9 -.-.-.-.-.-.-.",
"-.-.-.-.-.-.-.8 Y ) M 3 o o   - *   < : % > -.-.-.-.-.-.-.-.-.-.-.-.-.-.-.-.< , r , o q < # + o 4 M ) U 9 -.-.-.-.-.-.-.",
"-.-.-.-.-.-.-.< L [ M 2 o     $ *     + g , -.-.-.-.-.-.-.-.-.-.-.-.-.-.-.-.2 A 2 + # q - @ O . 1 M ] L < -.-.-.-.-.-.-.",
"-.-.-.-.-.-.-.< L [ M < . $ 4 e * 6 a - = < -.-.-.-.-.-.-.-.-.-.-.-.-.-.-.-.3 8 4 r z e * O % . < N } L < -.-.-.-.-.-.-.",
"-.-.-.-.-.-.-., J [ m >   @ - > o $ > # $ - -.-.-.-.-.-.-.-.-.-.-.-.-.-.-.-., 4 4 s < - i e : . > M ' H < -.-.-.-.-.-.-.",
"-.-.-.-.-.-.-., F ' c :     * z @ 3 + = = 1 -.-.-.-.-.-.-.-.-.-.-.-.-.-.-.-.< 9 9 e l 9 R 5     : c ` F > -.-.-.-.-.-.-.",
"-.-.-.-.-.-.-.: V / g %     % r @ o o 4 - 4 -.-.-.-.-.-.-.-.-.-.-.-.-.-.-.-.8 e g r : 5 C 4 .   % g ~ V : -.-.-.-.-.-.-.",
"-.-.-.-.-.-.-.- N ~ e #     * 9 O = * X 9 , -.-.-.-.-.-.-.-.-.-.-.-.-.-.-.-.2 z $ # 9 4 v 4 . . # r / M - -.-.-.-.-.-.-.",
"-.-.-.-.-.-.-.F R ~ z : o   % 5 +     2 i < -.-.-.-.-.-.-.-.-.-.-.-.-.-.-.-.3 M l + @ 2 l ,   o - z ! R D -.-.-.-.-.-.-.",
"-.-.-.-.-.-.-.4 P ) c - o   $ < @ < 8 * g - -.-.-.-.-.-.-.-.-.-.-.-.-.-.-.-.: C 0 l z 9 l 6 % o - v ) L 4 -.-.-.-.-.-.-.",
"-.-.-.-.-.-.l : e M 4 # o @ > 4 % 4 = c 4 2 -.-.-.-.-.-.-.-.-.-.-.-.-.-.-.-.4 l R M g q 4 : $ o @ 4 M e : l -.-.-.-.-.-.",
"-.-.-.-.-.-.U ( Y H Y H Y 2 = @ > g M , > : -.-.-.-.-.-.-.-.-.-.-.-.-.-.-.-.> u u c Y i % , 2 U H R H U ( U -.-.-.-.-.-.",
"-.-.-.-.-.-.W ! Y W Y A z q @ @ g , = : 5 = -.-.-.-.-.-.-.-.-.-.-.-.-.-.-.-.: l u g u H - @ 5 z A Y ! Y ! W -.-.-.-.-.-.",
"-.-.-.-.-.-.L A T U z p g e % @ 3 4 : $ $ @ -.-.-.-.-.-.-.-.-.-.-.-.-.-.-.-.* 4 4 u c z - % 9 g s z U R A P -.-.-.-.-.-.",
"-.-.-.-.-.-.H A ( E V u u < @ @ = , $ % o -.-.-.-.-.-.-.-.-.-.-.-.-.-.-.-.-.-.> 4 = e e $ # , r u V P ( A H -.-.-.-.-.-.",
"-.-.-.-.-.-.H V L H c 9 5 : O @ = @ @ -.-.-.-.-.-.-.-.-.-.-.-.-.-.-.-.-.-.-.-.-.# 8 < 4 @ O - 6 9 x H L B H -.-.-.-.-.-.",
"-.-.-.-.-.-.N B Z v i 4 2 # X o % -.-.-.-.-.-.-.-.-.-.-.-.-.-.-.-.-.-.-.-.-.-.-.-.-.O 8 o o @ < 8 s m Z V M -.-.-.-.-.-.",
"-.-.-.-.-.-.e l l k 9 , %     o -.-.-.-.-.-.-.-.-.-.-.-.-.-.-.-.-.-.-.-.-.-.-.-.-.-.-.o o   o % > 9 s l l e -.-.-.-.-.-.",
"-.-.-.-.-.-.i 4 2 > % # * , * -.-.-.-.-.-.-.-.-.-.-.-.-.-.-.-.-.-.-.-.-.-.-.-.-.-.-.-.-.-.* < * # % > < 4 i -.-.-.-.-.-.",
"-.-.-.-.-.-.< i 9 k 1 8 , -.-.-.-.-.-.-.-.-.-.-.-.-.-.-.-.-.-.-.-.-.-.-.-.-.-.-.-.-.-.-.-.-.-., 5 1 k 9 i < -.-.-.-.-.-."
};
