/* XPM */
static char *bcf382d9d0504b7b88c8649f9cdeb0a0[] = {
/* columns rows colors chars-per-pixel */
"60 60 148 2 ",
"   c None",
".  c #040405",
"X  c #070708",
"o  c #070808",
"O  c #0B0B0C",
"+  c #0E0F10",
"@  c #0F1011",
"#  c #121214",
"$  c #161719",
"%  c #17181A",
"&  c #191A1D",
"*  c #1D1E21",
"=  c #211F20",
"-  c #1F2023",
";  c #212226",
":  c #24262A",
">  c #27282D",
",  c #292A2E",
"<  c #2B2D32",
"1  c #2E3136",
"2  c #2F3238",
"3  c #313237",
"4  c #3C3634",
"5  c #32343A",
"6  c #383738",
"7  c #36393E",
"8  c #383A3F",
"9  c #433D3C",
"0  c #373A40",
"q  c #3A3D43",
"w  c #3E4047",
"e  c #3F4249",
"r  c #454446",
"t  c #4F4846",
"y  c #42454C",
"u  c #45484F",
"i  c #48494F",
"p  c #464951",
"a  c #4A4D54",
"s  c #4D4F58",
"d  c #4D5057",
"f  c #4E5159",
"g  c #5E5756",
"h  c #52555E",
"j  c #57585A",
"k  c #535760",
"l  c #565A63",
"z  c #595D66",
"x  c #5B5F69",
"c  c #5E626B",
"v  c #626063",
"b  c #6B6463",
"n  c #61656E",
"m  c #66696F",
"M  c #6C6C6F",
"N  c #626671",
"B  c #656A74",
"V  c #686C76",
"C  c #6A6E79",
"Z  c #6E7077",
"A  c #6D717C",
"S  c #757375",
"D  c #7C7370",
"F  c #71757F",
"G  c #727682",
"H  c #767A86",
"J  c #797C86",
"K  c #767B88",
"L  c #797E89",
"P  c #7D828D",
"I  c #7F8390",
"U  c #898283",
"Y  c #81848E",
"T  c #8D8A8C",
"R  c #828691",
"E  c #868A95",
"W  c #888C95",
"Q  c #8A8E99",
"!  c #8D919C",
"~  c #91949F",
"^  c #9D9A9E",
"/  c #9296A0",
"(  c #9699A3",
")  c #999CA6",
"_  c #969BA8",
"`  c #9C9FA9",
"'  c #9EA1AA",
"]  c #A2A6AE",
"[  c #A4A7AF",
"{  c #A1A4AD",
"}  c #A4A7B0",
"|  c #A6A9B2",
" . c #A7AAB2",
".. c #A4A8B0",
"X. c #A6A9B1",
"o. c #A8ABB3",
"O. c #ABADB5",
"+. c #ABAEB6",
"@. c #A8ACB4",
"#. c #A9ACB4",
"$. c #AFB2BA",
"%. c #AEB1B9",
"&. c #B0B3BA",
"*. c #B1B4BB",
"=. c #B1B4BA",
"-. c #B3B5BD",
";. c #B4B7BD",
":. c #B5B7BF",
">. c #B2B5BD",
",. c #B5B8BF",
"<. c #B6B8BF",
"1. c #B7BAC1",
"2. c #B7BAC1",
"3. c #BABDC3",
"4. c #BBBEC4",
"5. c #BCBEC4",
"6. c #BCBFC5",
"7. c #BABCC3",
"8. c #BABFC8",
"9. c #BDC0C6",
"0. c #BFC1C7",
"q. c #BFC1C7",
"w. c #C0C2C8",
"e. c #C1C4C9",
"r. c #C2C5CB",
"t. c #CAC9CC",
"y. c #CBCDD2",
"u. c #CACCD2",
"i. c #CDCFD3",
"p. c #CCCED3",
"a. c #CFD1D6",
"s. c #CFD1D5",
"d. c #D2D4D8",
"f. c #D5D6DA",
"g. c #D7D8DC",
"h. c #D8DADD",
"j. c #DADBDF",
"k. c #DDDFE1",
"l. c #DFE0E3",
"z. c #E1E2E5",
"x. c #E1E2E5",
"c. c #E5E6E8",
"v. c #E5E6E9",
"b. c #E6E7E9",
"n. c #E7E8EA",
"m. c #E9EAEC",
"M. c #ECEDEF",
"N. c #ECECEE",
/* pixels */
"                                                  f C H J E E J G C f                                                   ",
"                                                  a d.A R *.*.R L d.a                                                   ",
"                                                  w k V V 1.1.V L k w                                                   ",
"                                            h J H 5 C e B L L B y C 5 H L h                                             ",
"                                        a ! z / / 8 H h : F F : h H 8 / ( z ! a                                         ",
"                                      V ) *.B ;.y.y R z , f f , l R y y.3.B *.) V e                                     ",
"                                  y P 6.;.c.' G O.< ! z h y y h n ! < O.K ' c.;.6.) y                                   ",
"                            q   l / ..w.c.h.E > q % o.l c C C c l o.% q : E h.c.w.O./ l   q                             ",
"                          u a.a Y / 9.c.Q l , # # ; 8 5 p V V p q 8 ; # # , l Q c.y./ Y a a.h                           ",
"                        f M.( A q 9.-.A e * $ > * $ + X X X X O + + $ * > $ * e A ' 9.q A ( m.f                         ",
"                      s h.[ G L B 8 l < # * ; % # 8 J ..` p p ` ' n ; # % ; * # < f 8 B L G o.h.s                       ",
"                      ) H ;.E l Q * o O ; % % ; G ! ' ,.O.c c O.O.' E C ; % % ; O $ * Q l E r.H )                       ",
"                    G W x n n z V h X & # # u H ~ ' *.z.Y R R Y c.*.' ~ L l * # & o h V z n c x W G                     ",
"                    < V l a a c A X & O q P ~ [ &.) Z n ! E E ! V Z ) &.} ~ P w O # X A c a y l V <                     ",
"                    l q A C h H + $ @ a Q ' ..` u G ) c $.R R $.c ) G u ` ..' Q a O $ + H h V A q N                     ",
"                    [ *.l h Y % # O y Q ~ E Z ! 5 ; & A 4.[ [ 4.C & ; 5 ! Z E ~ W l o # % Y c l *.[ y                   ",
"                  c [ i.6.; O $ # q E ! L h A : 5 8 q L $.[ [ $.V q 8 5 ; A h L ! E 1 # $ O * 6.i.[ c                   ",
"                  Q ' f.P : $ O * Y R Q w V # < w q B C $.Q Q $.A B q w < # V w Q E Y ; O $ ; P f.' (                   ",
"                y ) ..M.l $ $ X Z R Q e q ; < y 3 a L H 9./ / 9.) L a 3 y < ; q e Q R c X $ # l M...( z                 ",
"                l E l.$.5 + + O A ` E < , f h * I L H ;.O.! ! O.O.H L I % h f , < 5 ` A O + # 5 $.l.! x                 ",
"                N E Q G & % o 8 R $.f A C z m E 3 H 1.p [ P P [ u 1.H 3 E m z C A l $.Y q o $ & G Q ' N                 ",
"                n r.P < X + o z E p E h > < , y V w.y f ` R R ` f y w.V y , < > h n p E c o @ X < P i.n                 ",
"            y p P ~ x ; o o O A ) y p y y h 3 f f V L a O.P P O.k L V f h 3 h y y < y ) G O o O ; x ~ P p y             ",
"            2.3.n.z.! c w * % L ( p # 3 8 p p V C q V ! -.L L -.P V q C V p p 8 3 & p ( L % % w c ! z.n.3.2.            ",
"            N R [ / n f ; # % l p 3 % 5 3 G O.E p e p L [ A A [ L p e p R O.G 3 5 < 3 p l % O ; f n Q [ R N             ",
"            * B J P P f < O < * q 1 - 5 3 y u c V A 2.4.L a a H &.2.A V c u y 3 5 < 1 q * < # < f P Y Y n +             ",
"            % z P 1.H p 1 . ; * 3 * ; < q ; L c ! ( x a l B y y p l ( ! z L ; q < 5 * 3 & ; . u a H 1.P p %             ",
"            % z d / V q 2 . % ; < & ; 8 q q % F ..h y Q V z u c 8 5 q ..J % q q 8 < & < ; % . a q V / d p -             ",
"            % c h x y > 1 . % % 1 % ; * W > x r.B B G y f 5 a a s Y < l r.x > W * > % 1 % % . s < y x h p -             ",
"            % V ; P > V 5 . % $ 3 $ < H 1 q k u 8 V A / f a n W P z , 8 u k q 1 H < $ 3 $ % . s V > P ; c ;             ",
"            d w p p y y k . # # 1 % a l < 5 k 1 N 3 z : s B q q - 5 $ B < k 5 < l G % 1 # # . 5 e l B n h y             ",
"            E { i.z.[ V u 5 ; $ < f C * 5 Z a 1 5 h t.8.8 M.` 3 D ^ % > 1 a Z 5 * G f < $ ; < u V [ k.i.{ E             ",
"            w l L P z y ; & O 3 1 l x ; 8 h w , n E 6 : H _ B 5 & ; F * > w h 8 ; y l 1 3 O $ ; y z J L l w             ",
"              * p a < + o o O a 3 q 8 ; F H < $ a ! ' ( r.V F J z Z h h - < H F ; o q 3 a O X o + < a p *               ",
"              q ) ,.H 5 X X # l 5 e O ; ! G < , < q P >.B 6 u q d 8 % 5 - : G ! ; % e 5 l # X X 5 H ,.) q               ",
"              q ( t.R 3 o X # l q q @ % J c e , ; n n i M j S S r 8 B : & w c J % * q q l # X o 3 R a.( q               ",
"              e ( f.L 3 o o $ l : 1 % G N p l ; & u q T U v , 9 b X y & * l p N G < 1 : l $ X o 3 L g.( e               ",
"              q / ;.H 3 o o & N y - c > 8 5 l 1 * 3 Y 6 4 , + = 4 h : & < l 5 8 > c - y N & o o 3 H 9./ q               ",
"              q / ) B < o O - C 5 w a : O - z l $ - f a r , , g r s % $ l z - O : q w 5 C - O o < B ` ~ q               ",
"              q Q ~ c < o O - N q q < + z $ a z h $ ; R v b t 9 h 1 % h z a $ z + % q q N - O o < c W Q q               ",
"              q ! ) B 5 O O $ c u y O q * * # u l q % 5 n < : 8 q % q l a # * * q O y u c $ O O 5 B ) ! q               ",
"              q ! +.V 3 o o % z 5 1 o 8 w ; * O h l l 5 < n z , 5 l l h O * ; w 8 % 1 5 z % o o 3 V $.! q               ",
"              < R 6.V 1 o X # l : 3 + # l a c V : % A ! P 5 5 P E A % : B c a l # o 3 : l # X o 1 V 4.R <               ",
"              < R 9.V < o * q > : s % O O * ; 8 u p # , H q q H p # p u q ; * O O @ s : > q * o < V r.R <               ",
"              < I 6.V > X # ; # * 8 a c N $ o & y N n * h y y h ; n N y * o $ N c a 8 * # ; # X > V 3.I <               ",
"              , H ,.c ; X . < : * ; ; 1 c V 1 y : , R P h a a h z R , : e 1 V c 1 : ; * : < X X ; c -.H ,               ",
"              : A ..h % X . , * & 5 * f : y 5 % h 3 * , z a a z < * 3 h $ 5 y : f 8 5 & * , X X % h [ A :               ",
"              ; V [ y % X . < % % 0 y * 3 h y : 3 ; ; 5 k 0 0 k 1 ; ; 3 ; y h 3 * q 0 % % < X X % y ..V ;               ",
"              H / [ l ; o . ; $ - y * & # a w h < < > q 8 E E 8 5 > < < l w a # & 5 y - $ ; X o ; l [ / H               ",
"              5 R *.n ; O # : $ - a o > < O O > < - h e ~ h h ~ q h - < , O O < > + a - $ : # O ; n $.R 5               ",
"            l : y B 3 $ O % ; + : c > * $ O $ , ; q l N F W W F E l q ; < $ O $ * ; c : + ; $ O $ 3 B y : l             ",
"            Q o.! P / P Q 1 % % 5 V L R A y B c h z h Q q ' ' q H h z h c B y A R L V 5 % % 1 Q P / L ! o.Q             ",
"            ) { ! ) ! G z e $ < s f p l a a y f a z ) u a ! ! a u ) z a f y a a l p f s < $ 8 z G ! ' ! { )             ",
"            R G ~ Q z f k y % q C G C A H A A C n V e B y n n y V e V n C A A H A A G C q % q k f z Q ~ G R             ",
"            P G o.( A p u < $ , a w a h u u z f q f y f H N N H x y f q f z u u h y w a , $ , u p A E o.G P             ",
"            P A R P x q 8 ; + < w q q f y y p q u k f p h f f h q f k u q p y y f 5 q w < + - 8 q x P R A P             ",
"            V C G n a 5 < $ X % * % - ; < > > ; ; : n : 8 q q 8 3 n : ; ; > > < ; % % * % X $ < 5 a N G C V             ",
"            y l l h q > % X X & - * * ; > : : : : ; ; ; ; - - ; ; ; ; : : : : > ; * * - & X X % > q h l l y             ",
"            a 5 1 , % $ & , *                                                             * < & $ % : 1 5 a             ",
"            < a q h 1 8 ,                                                                     , 8 1 h q a <             "
};
