/* XPM */
static char *_28b5ceaf44949a9ab537719d95b64c8[] = {
/* columns rows colors chars-per-pixel */
"60 60 164 2 ",
"   c None",
".  c #040405",
"X  c #070708",
"o  c #070808",
"O  c #0B0B0C",
"+  c #0E0F10",
"@  c #0F1011",
"#  c #121214",
"$  c #161719",
"%  c #17181A",
"&  c #191A1D",
"*  c #1D1E21",
"=  c #1F2023",
"-  c #212226",
";  c #24262A",
":  c #27282D",
">  c #292A2E",
",  c #292626",
"<  c #302D2C",
"1  c #2B2D32",
"2  c #322D31",
"3  c #2E3136",
"4  c #2F3238",
"5  c #313237",
"6  c #3C3534",
"7  c #32343A",
"8  c #36393E",
"9  c #3A393D",
"0  c #471A1C",
"q  c #771213",
"w  c #461D21",
"e  c #4B272C",
"r  c #55292D",
"t  c #413B3E",
"y  c #55383D",
"u  c #65363B",
"i  c #373A40",
"p  c #3A3D43",
"a  c #5B3D42",
"s  c #3E4047",
"d  c #3F4249",
"f  c #42454C",
"g  c #45484F",
"h  c #4D4A4C",
"j  c #544347",
"k  c #464951",
"l  c #4A4D54",
"z  c #4D4F58",
"x  c #5F4A51",
"c  c #4D5057",
"v  c #4E515A",
"b  c #52555E",
"n  c #5D5A5D",
"m  c #595558",
"M  c #644E55",
"N  c #794D54",
"B  c #535760",
"V  c #565A63",
"C  c #595C66",
"Z  c #5B5F69",
"A  c #5E616B",
"S  c #61656E",
"D  c #66696F",
"F  c #676566",
"G  c #73646D",
"H  c #76686F",
"J  c #626670",
"K  c #6D6670",
"L  c #656A74",
"P  c #696C76",
"I  c #6A6E79",
"U  c #6E7077",
"Y  c #6D717C",
"T  c #757274",
"R  c #71757F",
"E  c #7E727D",
"W  c #8A1416",
"Q  c #AC1A1C",
"!  c #BD181A",
"~  c #9B282D",
"^  c #882C30",
"/  c #912F33",
"(  c #893439",
")  c #AE272A",
"_  c #C41213",
"`  c #C82223",
"'  c #81494F",
"]  c #90555E",
"[  c #A3454B",
"{  c #BA484D",
"}  c #A94E55",
"|  c #AE5F68",
" . c #82666F",
".. c #9D6B74",
"X. c #99737E",
"o. c #A46972",
"O. c #A4757D",
"+. c #B9767D",
"@. c #D94946",
"#. c #DE6568",
"$. c #F07D7D",
"%. c #727682",
"&. c #767A85",
"*. c #797C86",
"=. c #797E89",
"-. c #767B88",
";. c #957881",
":. c #7D828D",
">. c #7F8390",
",. c #81848E",
"<. c #8A8489",
"1. c #95868F",
"2. c #818691",
"3. c #868A95",
"4. c #888C95",
"5. c #8A8E99",
"6. c #8D919C",
"7. c #91949F",
"8. c #A5848F",
"9. c #BC848D",
"0. c #AE8A94",
"q. c #9296A0",
"w. c #969AA3",
"e. c #999CA6",
"r. c #9C9FA8",
"t. c #A09AA5",
"y. c #9EA1AA",
"u. c #A2A6AE",
"i. c #A4A7AF",
"p. c #A1A4AD",
"a. c #A6A9B2",
"s. c #A5A9B1",
"d. c #A8ABB3",
"f. c #ABADB5",
"g. c #A9ACB4",
"h. c #A4A7B0",
"j. c #B9ABB7",
"k. c #AFB2BA",
"l. c #AEB1B9",
"z. c #B1B4BB",
"x. c #B5B7BE",
"c. c #B2B5BC",
"v. c #B6B8BF",
"b. c #C88A92",
"n. c #E58389",
"m. c #B7BAC1",
"M. c #BCBFC5",
"N. c #BABDC3",
"B. c #CABBC5",
"V. c #BEC1C7",
"C. c #C2C4CA",
"Z. c #C8CACF",
"A. c #CCCED3",
"S. c #CFD1D6",
"D. c #D4D5D9",
"F. c #D9DBDE",
"G. c #D7D8DC",
"H. c #DDDFE1",
"J. c #DFE0E3",
"K. c #E1E2E5",
"L. c #E5E6E8",
"P. c #E7E8EA",
"I. c #EBECEE",
"U. c #EDE7E9",
/* pixels */
"                                                  v I &.*.3.3.*.%.I v                                                   ",
"                                                  l D.Y 2.z.z.2.=.D.l                                                   ",
"                                                  s B P P m.m.P =.B s                                                   ",
"                                            b *.&.7 I d L =.=.L f I 7 &.=.b                                             ",
"                                        l 6.C q.q.8 &.b ; R R ; b &.8 q.w.C 6.l                                         ",
"                                      P e.z.L x.A.f 2.C > v v > V 2.f A.N.L z.e.P d                                     ",
"                                  f :.M.x.L.y.%.f.1 6.C b f f b S 6.1 f.-.y.L.x.M.e.f                                   ",
"                            p   V q.s.C.L.F.3.: p % d.V A I I A V d.% p ; 3.F.L.C.f.q.V   p                             ",
"                          g S.l ,.q.V.L.5.V > # # - 8 7 k P P k p 8 - # # > V 5.L.A.q.,.l S.b                           ",
"                        v I.w.Y p V.c.Y d * $ : * $ + X X X X O + + $ * : $ * d Y y.V.p Y w.P.v                         ",
"                      z F.i.%.=.L 8 V 1 # * - % # 8 *.s.r.k k r.y.S - # % - * # 1 v 8 L =.%.d.F.z                       ",
"                      e.&.x.3.V 5.* o O - % % - %.6.y.v.f.A A f.f.y.3.I - % % - O $ * 5.V 3.C.&.e.                      ",
"                    %.4.Z S S C P b X & # # g &.7.y.z.K.,.2.2.,.L.z.y.7.=.V * # & o b P C S A Z 4.%.                    ",
"                    1 P V l l A Y X & O p :.7.i.z.e.U S 6.3.3.6.P U e.z.h.7.:.s O # X Y A l f V P 1                     ",
"                    V p Y I b &.+ $ @ l 5.y.s.r.g %.e.A k.2.2.k.A e.%.g r.s.y.5.l O $ + &.b P Y p J                     ",
"                    i.z.V b ,.% # O f 5.7.3.U 6.7 - & Y M.i.i.M.I & - 7 6.U 3.7.4.V o # % ,.A V z.i.f                   ",
"                  A i.A.M.- O $ # p 3.6.=.b Y ; 7 8 p =.k.i.i.k.P p 8 7 - Y b =.6.3.3 # $ O * M.A.i.A                   ",
"                  5.y.G.:.; $ O * ,.2.5.s P # 1 s p L I k.5.5.k.Y L p s 1 # P s 5.3.,.- O $ - :.G.y.w.                  ",
"                  e.s.I.V $ $ X U 2.5.d p - 1 f 5 l =.&.V.q.q.V.e.=.l 5 f 1 - p d 5.2.A X $ # V I.s.w.C                 ",
"                V 3.J.k.7 + + O Y r.3.1 > v b * >.=.&.x.f.6.6.f.f.&.=.>.% b v > 1 7 r.Y O + # 7 k.J.6.Z                 ",
"                J 3.5.%.& % o 8 2.k.v Y I C D 3.5 &.m.k i.:.:.i.g m.&.5 3.D C I Y V k.,.p o $ & %.5.y.J                 ",
"                S C.:.1 X + o C 3.k 3.b : 1 > f P C.f v r.2.2.r.v f C.P f > 1 : b S k 3.A o @ X 1 :.A.S                 ",
"            f k :.7.Z - o o O Y e.f k f f b 5 v v P =.l f.:.:.f.B =.P v b 5 b f f 1 f e.%.O o O - Z 7.:.k f             ",
"            m.N.P.K.6.A s * % =.w.k # 5 8 k k P I p P 6.c.=.=.c.:.P p I P k k 8 5 & k w.=.% % s A 6.K.P.N.m.            ",
"            J 2.i.q.S v - # % V k 5 % 7 5 %.f.3.k d k =.i.Y Y i.=.k d k 2.f.%.5 7 1 5 k V % O - v S 5.i.2.J             ",
"            * L *.:.:.v 1 O 1 * p 3 = 7 5 f g A P Y m.m.&.l l &.f.m.Y P A g f 5 7 1 3 p * 1 # 1 v :.,.,.S +             ",
"            % C :.m.&.k 3 . - * 5 * - 1 p - =.A 6.w.Z l V L f f k V q.6.C =.- p 1 7 * 5 & - . g l &.m.:.k %             ",
"            % C c q.P p 4 . % - 1 & - 8 p p % R s.b f 5.P C g A 8 7 p s.*.% p p 8 1 & 1 - % . l p P q.c k =             ",
"            % A b Z f : 3 . % % 3 % - * 4.: Z C.L P E j v 7 l l M <.2 V C.Z : 4.* : % 3 % % . z 1 f Z b k =             ",
"            % P - :.: P 7 . % $ 5 $ 1 &.3 p B g t  ...0.M l S 1.O.] r 8 g B p 3 &.1 $ 5 $ % . z P : :.- A -             ",
"            c s k k f f B . # # 3 % l V 1 7 B 3 G ^ { Q ' K a ( Q ) q K 1 B 7 1 V %.% 3 # # . 7 d V L S b f             ",
"            3.p.A.K.i.P g 7 - $ 1 v I * 7 U l 3 y [ $.n./ U.t.~ @.#.W e 3 l U 7 * %.v 1 $ - 1 g P i.H.A.p.3.            ",
"            s V =.:.C f - & O 5 3 V Z - 8 b s > G +.` ! ..e.H / _ _ o.w : s b 8 - f V 3 5 O $ - f C *.=.V s             ",
"              * k l 1 + o o O l 5 p 8 - R &.1 $ x 8.b.9.B.P E X.} | N m = 1 &.R - o p 5 l O X o + 1 l k *               ",
"              p e.v.&.7 X X # V 7 d O - 6.%.1 > 1 y ;.j.H 8 g a N u 0 7 = ; %.6.- % d 7 V # X X 7 &.v.e.p               ",
"              p w.Z.2.5 o X # V p p @ % *.A d > - S F h K m T T j 9 L ; & s A *.% * p p V # X o 5 2.S.w.p               ",
"              d w.G.=.5 o o $ V ; 3 % %.J k V - & g p <.<.F , t F X f & & V k J %.1 3 ; V $ X o 5 =.G.w.d               ",
"              p q.x.&.5 o o & J f = A : 8 7 V 3 * 5 ,.6 6 , O . 6 b ; & 1 V 7 8 : A = f J & o o 5 &.V.q.p               ",
"              p q.e.L 1 o O = I 7 s l ; O = C V $ = v X X o o 6 X z % $ V C = O ; p s 7 I = O o 1 L r.7.p               ",
"              p 5.7.A 1 o O = J p p 1 + C $ l C b $ - A h 6 < m h 3 % b C l $ C + % p p J = O o 1 A 4.5.p               ",
"              p 6.e.L 7 O O $ A g f O p * * # g V p % S n T n 6 b % p V l # * * p O f g A $ O O 7 L e.6.p               ",
"              p 6.f.P 5 o o % C 7 3 o 8 s - * O b V V 5 L 1 & g 7 V V b O * - s 8 % 3 7 C % o o 5 P k.6.p               ",
"              1 2.M.P 3 o X # V ; 5 + # V l A P ; % Y 6.S c l S 3.Y % ; L A l V # o 5 ; V # X o 3 P M.2.1               ",
"              1 2.V.P 1 o * p : ; z % O O * - 8 g k # > &.p p &.k # k g p - * O O @ z ; : p * o 1 P C.2.1               ",
"              1 >.M.P : X # - # * 8 l A J $ o & f J S * b f f b - S J f * o $ J A l 8 * # - # X : P N.>.1               ",
"              > &.v.A - X . 1 ; * - - 3 A P 3 f ; > 2.:.b l l b C 2.> ; d 3 P A 3 ; - * ; 1 X X - A c.&.>               ",
"              ; Y s.b % X . > * & 7 * v ; f 7 % b 5 * > C l l C 1 * 5 b $ 7 f ; v 8 7 & * > X X % b i.Y ;               ",
"              - P i.f % X . 1 % % i f * 5 b f ; 5 - - 7 B i i B 3 - - 5 - f b 5 * p i % % 1 X X % f s.P -               ",
"              &.q.i.V - o . - $ = f * & # l s b 1 1 : p 8 3.3.8 7 : 1 1 V s l # & 7 f = $ - X o - V i.q.&.              ",
"              7 2.z.S - O # ; $ = l o : 1 O O : 1 = b d 7.b b 7.p b = 1 > O O 1 : + l = $ ; # O - S k.2.7               ",
"            V ; f L 5 $ O % - + ; A : * $ O $ > - p V J R 4.4.R 3.V p - 1 $ O $ * - A ; + - $ O $ 5 L f ; V             ",
"            5.d.6.:.q.:.5.3 % % 7 P =.2.Y f L A b C b 5.p y.y.p &.b C b A L f Y 2.=.P 7 % % 3 5.:.q.=.6.d.5.            ",
"            e.p.6.e.6.%.C d $ 1 z v k V l l f v l C e.g l 6.6.l g e.C l v f l l V k v z 1 $ 8 C %.6.y.6.p.e.            ",
"            2.%.7.5.C v B f % p I %.I Y &.Y Y I S P d L f S S f P d P S I Y Y &.Y Y %.I p % p B v C 5.7.%.2.            ",
"            :.%.d.w.Y k g 1 $ > l s l b g g C v p v f v &.J J &.Z f v p v C g g b f s l > $ > g k Y 3.d.%.:.            ",
"            :.Y 2.:.Z p 8 - + 1 s p p v f f k p g B v k b v v b p v B g p k f f v 7 p s 1 + = 8 p Z :.2.Y :.            ",
"            P I %.S l 7 1 $ X % * % = - 1 : : - - ; S ; 8 p p 8 5 S ; - - : : 1 - % % * % X $ 1 7 l J %.I P             ",
"            f V V b p : % X X & = * * - : ; ; ; ; - - - - = = - - - - ; ; ; ; : - * * = & X X % : p b V V f             ",
"            l 7 3 > % $ & > *                                                             * 1 & $ % ; 3 7 l             ",
"            1 l p b 3 8 >                                                                     > 8 3 b p l 1             "
};
