/* XPM */
static char *result[] = {
/* columns rows colors chars-per-pixel */
"60 60 155 2 ",
"   c #040405",
".  c #070708",
"X  c #070808",
"o  c #0B0B0C",
"O  c #0E0F10",
"+  c #0F1011",
"@  c #121214",
"#  c #181617",
"$  c #161719",
"%  c #17181A",
"&  c #191A1D",
"*  c #371B1D",
"=  c #1D1E21",
"-  c #371E22",
";  c #1F2023",
":  c #212226",
">  c #24262A",
",  c #27282D",
"<  c #292A2E",
"1  c #2A2726",
"2  c #3C272C",
"3  c #3A322E",
"4  c #2B2D32",
"5  c #2F3136",
"6  c #2F3238",
"7  c #313237",
"8  c #3C3634",
"9  c #32343A",
"0  c #36393E",
"q  c #3A3A3F",
"w  c #581214",
"e  c #681618",
"r  c #452A2E",
"t  c #413E3E",
"y  c #49383D",
"u  c #53383C",
"i  c #7B2D31",
"p  c #68383D",
"a  c #6A3034",
"s  c #70373B",
"d  c #723337",
"f  c #373A40",
"g  c #3A3D43",
"h  c #4B3E43",
"j  c #523E42",
"k  c #3E4047",
"l  c #3F4249",
"z  c #4C4647",
"x  c #42454C",
"c  c #45484F",
"v  c #4C494C",
"b  c #4D4249",
"n  c #534D4C",
"m  c #464951",
"M  c #4A4D54",
"N  c #4D4F58",
"B  c #564D54",
"V  c #4D5057",
"C  c #4E5159",
"Z  c #5C5254",
"A  c #52555E",
"S  c #5B5758",
"D  c #57595C",
"F  c #6A4D54",
"G  c #685258",
"H  c #535760",
"J  c #565A63",
"K  c #595C66",
"L  c #5B5F69",
"P  c #7C5A62",
"I  c #5E626B",
"U  c #616063",
"Y  c #61646E",
"T  c #66696F",
"R  c #6B6669",
"E  c #626670",
"W  c #6A6771",
"Q  c #656A74",
"!  c #696C76",
"~  c #6A6E79",
"^  c #766971",
"/  c #6E7077",
"(  c #6D717C",
")  c #757375",
"_  c #72757F",
"`  c #891B1D",
"'  c #9D1818",
"]  c #961E20",
"[  c #842123",
"{  c #8B2E30",
"}  c #A32B2D",
"|  c #874C51",
" . c #8E565D",
".. c #9B5358",
"X. c #BD5C59",
"o. c #886D76",
"O. c #966871",
"+. c #906F78",
"@. c #8C747D",
"#. c #727682",
"$. c #787580",
"%. c #767A85",
"&. c #797C86",
"*. c #797E89",
"=. c #767B88",
"-. c #8A7A84",
";. c #947B84",
":. c #A67F86",
">. c #C87D80",
",. c #7D828D",
"<. c #7F8390",
"1. c #81848E",
"2. c #8B8688",
"3. c #818691",
"4. c #868A95",
"5. c #898C95",
"6. c #8A8E99",
"7. c #998A96",
"8. c #8D919C",
"9. c #91949F",
"0. c #AD8D97",
"q. c #A1919B",
"w. c #9296A0",
"e. c #969AA3",
"r. c #999CA6",
"t. c #9C9FA8",
"y. c #B896A0",
"u. c #9EA1AA",
"i. c #A2A5AE",
"p. c #A4A7B0",
"a. c #A6A9B1",
"s. c #A9ACB4",
"d. c #B5AFBB",
"f. c #AEB1B9",
"g. c #B2B5BC",
"h. c #B6B8BF",
"j. c #E49E9F",
"k. c #D69EA6",
"l. c #B7BAC1",
"z. c #BABDC3",
"x. c #BEC1C7",
"c. c #C2C4CA",
"v. c #C8CACF",
"b. c #CCCED3",
"n. c #CFD1D6",
"m. c #D4D5D9",
"M. c #D7D8DC",
"N. c #D9DBDE",
"B. c #DDDFE1",
"V. c #DFE0E3",
"C. c #E1E2E5",
"Z. c #E5E6E8",
"A. c #E7E8EA",
"S. c #EBEBED",
"D. c None",
/* pixels */
"D.D.D.D.D.D.D.D.D.D.D.D.D.D.D.D.D.D.D.D.D.D.D.D.D.C ~ =.=.4.4.&.#.! C D.D.D.D.D.D.D.D.D.D.D.D.D.D.D.D.D.D.D.D.D.D.D.D.D.",
"D.D.D.D.D.D.D.D.D.D.D.D.D.D.D.D.D.D.D.D.D.D.D.D.D.M n.#.3.g.g.1.*.m.M D.D.D.D.D.D.D.D.D.D.D.D.D.D.D.D.D.D.D.D.D.D.D.D.D.",
"D.D.D.D.D.D.D.D.D.D.D.D.D.D.D.D.D.D.D.D.D.D.D.D.D.k H ! Q l.l.Q *.H k D.D.D.D.D.D.D.D.D.D.D.D.D.D.D.D.D.D.D.D.D.D.D.D.D.",
"D.D.D.D.D.D.D.D.D.D.D.D.D.D.D.D.D.D.D.D.D.D.A =.=.9 ! k Q *.*.E x ! 0 =.*.H D.D.D.D.D.D.D.D.D.D.D.D.D.D.D.D.D.D.D.D.D.D.",
"D.D.D.D.D.D.D.D.D.D.D.D.D.D.D.D.D.D.D.D.M 8.K w.w.0 =.A > ( #.> A #.f w.e.L 8.m D.D.D.D.D.D.D.D.D.D.D.D.D.D.D.D.D.D.D.D.",
"D.D.D.D.D.D.D.D.D.D.D.D.D.D.D.D.D.D.D.! r.g.Q h.b.x ,.K < C C < J 3.x b.z.Q f.t.! k D.D.D.D.D.D.D.D.D.D.D.D.D.D.D.D.D.D.",
"D.D.D.D.D.D.D.D.D.D.D.D.D.D.D.D.D.x <.x.h.Z.t.#.s.5 8.K A x x H I 8.5 s.=.u.Z.g.x.e.c D.D.D.D.D.D.D.D.D.D.D.D.D.D.D.D.D.",
"D.D.D.D.D.D.D.D.D.D.D.D.D.D.g D.J w.a.x.Z.N.4., g & s.J Y ( ! I J s.& f > 4.B.Z.x.s.w.J D.g D.D.D.D.D.D.D.D.D.D.D.D.D.D.",
"D.D.D.D.D.D.D.D.D.D.D.D.D.c n.V ,.w.x.Z.8.J 4 + @ : 0 0 m Q Q m k 0 : + + < J 8.Z.b.w.,.m n.A D.D.D.D.D.D.D.D.D.D.D.D.D.",
"D.D.D.D.D.D.D.D.D.D.D.D.C S.e.( g x.g.( k ; @ , = % +       . o + + % ; , $ = l ( i.x.g #.e.S.C D.D.D.D.D.D.D.D.D.D.D.D.",
"D.D.D.D.D.D.D.D.D.D.D.N N.p._ ,.Q f J 5 + ; : & @ 0 &.a.t.m m t.u.I ; + & > & + < C 0 Q ,._ a.M.N D.D.D.D.D.D.D.D.D.D.D.",
"D.D.D.D.D.D.D.D.D.D.D.r.%.g.4.J 6.= X o ; & & : _ 8.i.h.s.Y I s.f.u.4./ ; & = ; o % & 8.J 4.c.=.r.D.D.D.D.D.D.D.D.D.D.D.",
"D.D.D.D.D.D.D.D.D.D.#.5.L Y Y K ! J   & @ @ m %.8.u.f.V.1.<.3.<.Z.f.u.9.*.K ; @ & o A ! K I I I 5.#.D.D.D.D.D.D.D.D.D.D.",
"D.D.D.D.D.D.D.D.D.D.4 ! J m m I (   = o g ,.8.a.g.r.( Q 8.4.4.8.! / u.f.p.8.,.k o @ X ( I m c H Q 4 D.D.D.D.D.D.D.D.D.D.",
"D.D.D.D.D.D.D.D.D.D.J g ( ( A %.o $ + m 8.u.a.u.c #.r.I f.3.<.f.I r._ c u.a.u.8.m O % + %.H ! #.g E D.D.D.D.D.D.D.D.D.D.",
"D.D.D.D.D.D.D.D.D.D.i.g.J A 1.& $ o x 6.8.4./ 8.0 : & ( x.p.p.z.( & : 9 8.( 4.w.4.H o @ & ,.I J g.p.x D.D.D.D.D.D.D.D.D.",
"D.D.D.D.D.D.D.D.D.I i.b.z.: o % @ g 3.8.,.C ( > 6 0 g *.f.u.u.f.! g 9 6 > ~ A ,.8.4.5 + $ o = z.n.i.Y D.D.D.D.D.D.D.D.D.",
"D.D.D.D.D.D.D.D.D.6.u.M.,.> $ o & 1.3.8.k ! @ 5 k g Q ! f.8.8.f.( Q g k 5 @ Q k 6.4.,.; O + ; <.M.u.w.D.D.D.D.D.D.D.D.D.",
"D.D.D.D.D.D.D.D.D.r.a.S.J % @ . ( ,.6.k g : < x 5 m *.%.x.9.9.x.u.%.M 5 c 5 ; k l 8.<.I . $ @ J S.a.w.L D.D.D.D.D.D.D.D.",
"D.D.D.D.D.D.D.D.J 4.C.s.0 O O o _ u.4.< < V A & ,.,.%.h.s.8.8.s.s.#.,.<.% C V < 4 9 u.( o + + 9 f.B.8.L D.D.D.D.D.D.D.D.",
"D.D.D.D.D.D.D.D.E 4.6.#.= % o f 3.f.C ( ( J Q 4.5 %.l.c p.,.,.u.m l.#.5 3.T J ( ( J f.<.k X $ = #.6.u.E D.D.D.D.D.D.D.D.",
"D.D.D.D.D.D.D.D.E c.,.< . O . J 4.m 4.H , 5 < x ! x.l V u.,.<.u.C l c.! x 4 4 , H Y m 4.I X + X < ,.b.Y D.D.D.D.D.D.D.D.",
"D.D.D.D.D.D.x m ,.9.L > o o o ( u.l m l l A 6 C C ! ,.V s.,.,.s.H ,.~ C A 7 A l l 4 l r.#.+ X o > L w.,.m x D.D.D.D.D.D.",
"D.D.D.D.D.D.l.z.A.C.8.I g = & *.w.c @ 7 0 m m ! ! g ~ 8.f.%.,.h.<.! f ! Q m m 0 6 = m e.*.& % k L 8.C.Z.z.z.D.D.D.D.D.D.",
"D.D.D.D.D.D.E 3.i.9.Y C : @ & J m 7 & 0 7 #.s.3.m l m ,.u.( ( p.,.c x c 1.s._ 7 0 4 7 M H = o : C I 6.i.1.E D.D.D.D.D.D.",
"D.D.D.D.D.D.= Q &.,.1.C < o 4 = g 5 ; 9 7 x c I Q ( h.h.%.m m #.s.l.( Q I c x 7 0 4 6 g = 4 + 4 A ,.1.1.Y + D.D.D.D.D.D.",
"D.D.D.D.D.D.% K ,.l.=.m 7   ; & 7 = : 4 g > =.I 8.e.I V D T x x c K 9.9.K =.> g 4 7 = 7 = :   x m =.l.,.m & D.D.D.D.D.D.",
"D.D.D.D.D.D.% K C w.! f 7   % : 4 = : f g g & $.a.C l 6./ I x Y q 9 g a.=.& k k 0 4 & 4 ; &   m f ! w.V c ; D.D.D.D.D.D.",
"D.D.D.D.D.D.& I C L x , 4   = & 5 % > = 5., L c.W ! $.b V 0 m m B 1.4 J c.L , 5.= , # 6 & &   M 4 l L A m ; D.D.D.D.D.D.",
"D.D.D.D.D.D.& Q > <., Q 7   & @ 7 % < =.5 g H c q ^ o.q.Z M W 5.;.P r q m H g 5 =.< % 7 $ &   M ~ 1 ,.> I : D.D.D.D.D.D.",
"D.D.D.D.D.D.V k m m c x H   + + 6 & m K 4 9 H 5 R a ..[ F R h p ` { w W 4 J 9 4 J #.$ 6 + +   6 k J Q E C x D.D.D.D.D.D.",
"D.D.D.D.D.D.5.u.b.Z.u.Q m 7 > @ 5 C ! = 9 / M 5 y | j.k.s S.t.i X.>.e 2 7 m ( 9 = #.C 4 $ : 4 m ~ u.B.b.i.6.D.D.D.D.D.D.",
"D.D.D.D.D.D.k J *.,.L x : & o 7 4 J L : f A k < R :.} ] @.t.R d ' ' +.- , k A 0 : x J 5 7 + % : k L =.*.J k D.D.D.D.D.D.",
"D.D.D.D.D.D.D.; m M 4 O . X O M 6 g f : #.#.< $ B 7.y.0.c.Q _ -. .O.G S ; < =._ : o q 7 M o   X O 4 M m = D.D.D.D.D.D.D.",
"D.D.D.D.D.D.D.k r.h.&.7   X + J 6 k O ; 8.#.< < 4 u -.g.^ 0 v z F u * 9 : > #.8.: % k 7 J +     7 *.l.r.k D.D.D.D.D.D.D.",
"D.D.D.D.D.D.D.g w.v.3.5 X . @ J g f O & =.Y x < > Y Y v R S ) ) b q W > = k I %.% ; g g J $   X 5 <.n.w.g D.D.D.D.D.D.D.",
"D.D.D.D.D.D.D.x w.m.*.6 X X % J > 6 = #.E M J : & c g 2.2.U 1 y U . x & = J m W #.4 6 , J %   X 6 *.M.e.k D.D.D.D.D.D.D.",
"D.D.D.D.D.D.D.g w.h.*.7 o o & E x ; L > f 9 J 4 = 7 1.8 8 1 o   8 D > & 4 J 9 f > I ; x E & o o 6 =.x.9.g D.D.D.D.D.D.D.",
"D.D.D.D.D.D.D.g 9.e.Q 4 o o ; ~ f k m , O = L J % ; A 4 # # = n t N % $ J L ; o > g k 9 ! ; o o 5 Q t.w.g D.D.D.D.D.D.D.",
"D.D.D.D.D.D.D.g 6.9.I 4 o O = E g g 4 O J % m K A @ : 9.S Z 3 n S 4 & A L m # J O & g k E ; o X 4 I 5.8.g D.D.D.D.D.D.D.",
"D.D.D.D.D.D.D.f 8.r.Q 9 o o % I c x O g = = + m H k & l D z z = N = g H m @ = ; f o c c L $ o o 9 E t.8.g D.D.D.D.D.D.D.",
"D.D.D.D.D.D.D.f 8.s.Q 6 o o = J 0 4 o 0 k ; = O A J J 5 m 1 4 c 5 J K C O = : g f & 4 0 K = X X 9 Q f.8.g D.D.D.D.D.D.D.",
"D.D.D.D.D.D.D.4 3.z.Q 5 X   O J > 6 O @ J M I ! , & #.8.,.0 9 ,.5.~ & , Q I M H + o 6 > K O   o 6 Q z.3.4 D.D.D.D.D.D.D.",
"D.D.D.D.D.D.D.4 4.x.~ 4 X = g , > N & o o = ; f c m + 1 %.g g =.m @ m m f : = o o O N > , g = . 4 Q c.3.4 D.D.D.D.D.D.D.",
"D.D.D.D.D.D.D.4 <.z.Q , . O ; + = 0 m I Y $ o = k Q I ; H x x A : E E x = o % E Y m 9 = + ; @ X , E z.<.4 D.D.D.D.D.D.D.",
"D.D.D.D.D.D.D.< =.l.I > .   4 > ; ; > 5 I ~ 4 k , , 3.,.A M m H J 4.4 > g 5 Q I 6 , ; = > 4 .   > I l.=., D.D.D.D.D.D.D.",
"D.D.D.D.D.D.D., ( a.C &     , = = 6 = C > k 7 = A 6 = , J M m J 4 = 5 A $ 9 l > N f 6 = = ,     = C u.( , D.D.D.D.D.D.D.",
"D.D.D.D.D.D.D.: ! i.x %     4 & & g l = 6 H x , 7 : : 0 H f f J 4 : : 7 : c H 6 = g f = = 4   . $ c a.~ : D.D.D.D.D.D.D.",
"D.D.D.D.D.D.D.=.w.p.J > X   > $ ; l ; & @ M k H 4 4 , g f 5.4.f f , 4 5 H g N @ & 7 c ; % > X o ; J u.w.=.D.D.D.D.D.D.D.",
"D.D.D.D.D.D.D.7 4.f.I > o + > $ ; V X , 5 o o , 4 ; H k 9.H A 9.f H ; 4 < o o 5 , o M ; @ > + o ; E f.4.6 D.D.D.D.D.D.D.",
"D.D.D.D.D.D.J > l Q 6 % o & ; + > I , = % o @ < > f H E #.5.4.#.3.H g > 4 % o # ; > I , + ; & o % 6 Q k > J D.D.D.D.D.D.",
"D.D.D.D.D.D.6.s.8.,.w.,.6.5 & & 7 ~ *.<.( l Q I H J H 6.f u.u.g %.A J A I E x ( <.*.! 7 & & 5 6.<.w.,.8.s.8.D.D.D.D.D.D.",
"D.D.D.D.D.D.e.i.8.r.8.#.L k % 4 V C m H M V l C M K t.m N 9.8.M c t.K M N x N m J m C M 4 $ f K #.8.u.8.u.e.D.D.D.D.D.D.",
"D.D.D.D.D.D.3.#.9.6.J C H k & g ~ #.~ ( =.( ( ( E ! k Q l Y E x Q k ! Y ! #.( =.( ( #.( f & g H N L 6.w.#.4.D.D.D.D.D.D.",
"D.D.D.D.D.D.,.#.s.w.( m m 4 @ , V k M H m m K C f C x C =.E E =.L l C f N K m x J x k M < $ < c m ( 6.a.#.,.D.D.D.D.D.D.",
"D.D.D.D.D.D.<.~ 3.<.L k f > O 4 k g g C k l M g x J C m C V C C g C H m g m x x C 9 g g 4 O : f g L *.3.( ,.D.D.D.D.D.D.",
"D.D.D.D.D.D.Q ~ #.Y N 9 5 % . & = $ ; ; 4 , , ; > > Y , f f g 0 7 E , : : , , 4 ; & $ = & . $ 4 f M E #.! Q D.D.D.D.D.D.",
"D.D.D.D.D.D.x J J H g , &     & ; ; ; ; , , , > > > ; > > ; ; > : : : , > , , , ; = = ; &     & , k C H J x D.D.D.D.D.D.",
"D.D.D.D.D.D.C 7 6 , & % & 4 = D.D.D.D.D.D.D.D.D.D.D.D.D.D.D.D.D.D.D.D.D.D.D.D.D.D.D.D.D.D.= 4 = $ & , 5 7 V D.D.D.D.D.D.",
"D.D.D.D.D.D.4 M g C 6 f 4 D.D.D.D.D.D.D.D.D.D.D.D.D.D.D.D.D.D.D.D.D.D.D.D.D.D.D.D.D.D.D.D.D.D.4 9 6 H g N 4 D.D.D.D.D.D."
};
