/* XPM */
static char *result[] = {
/* columns rows colors chars-per-pixel */
"60 60 193 2 ",
"   c #270916",
".  c #280917",
"X  c #2B0A1B",
"o  c #330D1D",
"O  c #380D1F",
"+  c #280727",
"@  c #2B0A23",
"#  c #29072F",
"$  c #2B092B",
"%  c #3A0F21",
"&  c #340C26",
"*  c #351022",
"=  c #3C1324",
"-  c #32142E",
";  c #3A192A",
":  c #2C0731",
">  c #2D0A33",
",  c #310936",
"<  c #36093A",
"1  c #370938",
"2  c #321236",
"3  c #391B32",
"4  c #37183C",
"5  c #38143D",
"6  c #3F202E",
"7  c #3E2432",
"8  c #3E2C3E",
"9  c #362639",
"0  c #470E1A",
"q  c #63141F",
"w  c #74141D",
"e  c #400E2D",
"r  c #460E3F",
"t  c #431D36",
"y  c #42163D",
"u  c #41242F",
"i  c #5A252E",
"p  c #442433",
"a  c #492634",
"s  c #4A2A37",
"d  c #432B3B",
"f  c #4B2D39",
"g  c #48243C",
"h  c #502E3C",
"j  c #45313D",
"k  c #4B333C",
"l  c #4F383C",
"z  c #52333D",
"x  c #543B3B",
"c  c #5C3D3B",
"v  c #5E3B37",
"b  c #68252E",
"n  c #6A3F2C",
"m  c #603B37",
"M  c #5C4138",
"N  c #6C402D",
"B  c #6B4235",
"V  c #6A463C",
"C  c #6F4936",
"Z  c #714133",
"A  c #7E4A31",
"S  c #764938",
"D  c #6A5138",
"F  c #7A533A",
"G  c #3E0A42",
"H  c #3D1B41",
"J  c #3F1042",
"K  c #2F2741",
"L  c #302740",
"P  c #332A43",
"I  c #3A2C41",
"U  c #362E49",
"Y  c #3B3144",
"T  c #37314C",
"R  c #3A324B",
"E  c #3B3652",
"W  c #3D3854",
"Q  c #420B45",
"!  c #4C0C4E",
"~  c #450B48",
"^  c #4B1249",
"/  c #481947",
"(  c #4E0C50",
")  c #4E1C51",
"_  c #541756",
"`  c #412545",
"'  c #402F47",
"]  c #46244A",
"[  c #4A254E",
"{  c #4A2C4E",
"}  c #472E4A",
"|  c #4C3B45",
" . c #42364C",
".. c #41384E",
"X. c #483747",
"o. c #553844",
"O. c #583C46",
"+. c #562B59",
"@. c #592B5B",
"#. c #5A245D",
"$. c #443D53",
"%. c #423C58",
"&. c #453B53",
"*. c #5B365E",
"=. c #683A4D",
"-. c #4A3F60",
";. c #5E3160",
":. c #602E61",
">. c #6C3E6D",
",. c #683569",
"<. c #55414B",
"1. c #5C424A",
"2. c #574144",
"3. c #4A4356",
"4. c #47425D",
"5. c #4A445A",
"6. c #5A445D",
"7. c #514B5C",
"8. c #59495D",
"9. c #5E525C",
"0. c #644946",
"q. c #744E46",
"w. c #7C5748",
"e. c #614752",
"r. c #67585D",
"t. c #78555B",
"y. c #7E645F",
"u. c #4D4363",
"i. c #534369",
"p. c #564768",
"a. c #575161",
"s. c #5A5464",
"d. c #575369",
"f. c #59536A",
"g. c #594772",
"h. c #5F4D76",
"j. c #674868",
"k. c #6A5B61",
"l. c #714C72",
"z. c #615D72",
"x. c #6A5B7D",
"c. c #735A72",
"v. c #746A6A",
"b. c #BA1E23",
"n. c #89242A",
"m. c #C42426",
"M. c #B85B1F",
"N. c #844C2C",
"B. c #8C4E2E",
"V. c #8B512B",
"C. c #875927",
"Z. c #93552E",
"A. c #995E2F",
"S. c #97592D",
"D. c #834C32",
"F. c #894E30",
"G. c #845134",
"H. c #8B5432",
"J. c #865738",
"K. c #895A36",
"L. c #A65627",
"P. c #A95927",
"I. c #A45B2A",
"U. c #B55C23",
"Y. c #A45838",
"T. c #9B602F",
"R. c #9B6738",
"E. c #A76429",
"W. c #B36E2D",
"Q. c #B96827",
"!. c #B3712B",
"~. c #BD752C",
"^. c #A86638",
"/. c #B46330",
"(. c #BD7731",
"). c #C16923",
"_. c #C77E28",
"`. c #C57527",
"'. c #854F48",
"]. c #88574F",
"[. c #815152",
"{. c #866851",
"}. c #85586E",
"|. c #8C5D71",
" X c #8D5C7D",
".X c #886676",
"XX c #92687E",
"oX c #A0814E",
"OX c #716383",
"+X c #965F80",
"@X c #986889",
"#X c #A07090",
"$X c None",
/* pixels */
"$X$X$X$X$X$X$X$X$X$X$X$X$X$X$X$X$X$X$X$X$X$X$X$X$X$X$X$X$X$X$X$X$X$X$X$X$X$X$X$X$X$X$X$X$X$X$X$X$X$X$X$X$X$X$X$X$X$X$X$X",
"$X$X$X$X$X$X$X$X$X$X$X$X$X$X$X$X$X$X$X$X$X$X$X$X$X$X$Xl.$X$X$X$X$X$X$X$X$X@.$X$X$X$X$X$X$X$X$X$X$X$X$X$X$X$X$X$X$X$X$X$X",
"$X$X$X$X$X$X$X$X$X$X$X$X$X$X$X$X$X$X$X$X$X$X$X$X$X$X$X$X$X$X$X$X$X$X$X$X$X@.$X$X$X$X$X$X$X$X$X$X$X$X$X$X$X$X$X$X$X$X$X$X",
"$X$X$X$X$X$X$X$X$X$X$X$X$X$X$X$X$X$X$X$X$X$X$X$X$X$X$X$X$X$X$X$X$X$X$X$X$X$X$X$X$X$X$X$X$X$X$X$X$X$X$X$X$X$X$X$X$X$X$X$X",
"$X$X$X$X$X$X$X$X$X$X$X$X$X$X$X$X$X$X$X$X$X$X$X$X$X$X$X$X$X$X$X$X$X$X$X$X$X$X$X$X$X$X$X$X$X$X$X$X$X$X$X$X$X$X$X$X$X$X$X$X",
"$X$X$X$X$X$X$X$X$X$X$X$X$X$X$X$X$X$X$X$X$X$X$X$X$X$X$X$X$X$X$X$X$X$X$X$X$X$X$X$X$X$X$X;.$X$X$X$X$X$X$X$X$X$X$X$X$X$X$X$X",
"$X$X$X$X$X$X$X$X$X$X$X$X$X$X$X$X$X$X$X$X$X$X$X$X$X$X$X$X$X$X$X$X$X$X$X$X$X$X$X$X$X$X$X+.) $X$X$X$X$X$X$X$X$X$X$X$X$X$X$X",
"$X$X$X$X$X$X$X$X$X$X$X$X$X$X$X$X$X$X$X$X$X$X$X$X$X$X$X$X$X$X$X$X$X$X$X$X$X$X$X$X$X$X$X$X$X$X$X$X$X$X$X$X$X$X$X$X$X$X$X$X",
"$X$X$X$X$X$X$X$X$X$X$X$X$X$X$X$X$X$X$X$X$X$X$X$X$X$X$X$X$X$X$X$X$X$X$X$X$X$X$X$X$X$X$X$X$X$X$X$X$X$X$X$X$X$X$X$X$X$X$X$X",
"$X$X$X$X$X$X$X$X$X$X$X$X$X$X$X$X$X$X$X$X$X$X$X$X$X$X$X$X$X$X$X$X$X$X$X$X$X$X$X$X$X$X$X$X$X$X$X$X$X$X$X$X$X$X$X$X$X$X$X$X",
"$X$X$X$X$X$X$X$X$X$X$X$X$X$X$X$X$X$X$X$X$X$X$X$X$X$X$X$X$X$X$X$X$X$X] @.$X$X$X$X$X$X$X$X$X$X$X$X$X$X$X$X$X$X$X$X$X$X$X$X",
"$X$X$X$X$X$X$X$X$X$X$X$X$X$X$X$X$X$X$X$X$X$X$X$X$X$X$X$X$X$X$X$X$X$XI , H 6.$X$X>.j.$X$X$X$X$X$X$X$X$X$X$X$X$X$X$X$X$X$X",
"$X$X$X$X$X$X$X$X$X$X$X$X$X$X$X$X$X$X$X$X$X$X$X$X$X$X$X$X$X$X$X*.$X$X$X> : > 4 < ! ( _ :.$X$X$X$X$X$X$X$X$X$X$X$X$X$X$X$X",
"$X$X$X$X$X$X$X$X$X$X$X$X$X$X$X$X$X$X$X$X$X$X$X$X$X$X$X$X$X$X$X$X{ [ $X` : G : : < ~ ! G ` $X$X$X$X$X$X$X$X$X$X$X$X$X$X$X",
"$X$X$X$X$X$X$X$X$X$X$X$X$X$X$X$X$X$X$X$X$X$X$X$X$X$X$X$X$X$X$X$X$X[ 5 > : G ~ < : , < : 1 / *.$XO.$X$X$X$X$X$X$X$X$X$X$X",
"$X$X$X$X$X$X$X$X$X$X$X$X$X$X$X$X$X$X$X$X$X$X$X$X$X$X$X$X$X$X$X$X$X#.< # : G ( ! Q < : : 1 Q Q t s $X$X$X$X$X$X$X$X$X$X$X",
"$X$X$X$X$X$X$X$X$X$X$X$X$X$X$X$X$X$X$X$X$X$X$X$X$X$X$X$X$X$X$X$X$X$X~ : # G ( ( ( ! G > $ 1 e O 3 $X$X$X$X$X$X$X$X$X$X$X",
"$X$X$X$X$X$X$X$X$X$X$X$X$X$X$X$X$X$X$X$X$X$X$X$X$X$X$X$X$X$X$X$X$X$X) : # < ~ ( ( ! ( ~ Q 1 % % * d <.$X$X$X$X$X$X$X$X$X",
"$X$X$X$X$X$X$X$X$X$X$X$X$X$X$X$X$X$X$X$X$X$X$X$X$X$X$X$X$X$X$X$X$X,.( < # # G ! ! ! ( ( ! r % % @ - o.$X$X$X$X$X$X$X$X$X",
"$X$X$X$X$X$X$X$X$X$X$X$X$X$X$X$X$X$X$X$X$X$X$X$X$X$X$X$X$X$X$X$X{ _ ( G # # < ( ( ( ! ( ^ t = o @ 7 k.$X$X$X$X$X$X$X$X$X",
"$X$X$X$X$X$X$X$X$X$X$X$X$X$X$X$X$X$X$X$X$X$X$X$X$X$X$X$X$X$X$X$X] ! ( ~ , # < ( ! ( ! / g a = o X 7 $X$X$X$X$X$X$X$X$X$X",
"$X$X$X$X$X$X$X$X$X$X$X$X$X$X$X$X$X$X$X$X$X$X$X$X$X$X$X$X$X$X$X$X$XJ ! ! G # # ~ ( ! ^ p b b % X o 3 $X$X$X$X$X$X$X$X$X$X",
"$X$X$X$X$X$X$X$X$X$X$X$X$X$X$X$X$X$X$X$X$X$X$X$X$X$X$X$X$X$X$X$X$X] ~ ( G # # < ! ^ t i m.w   . X 2 $X$X$X$X$X$X$X$X$X$X",
"$X$X$X$X$X$X$X$X$X$X$X$X$X$X$X$X$X$X$X$X$X$X$X$X$X$X$X$X$X$X$X$X$X$XH G G # # # < 5 u n.b.0     X 4 $X$X$X$X$X$X$X$X$X$X",
"$X$X$X$X$X$X$X$X$X$X$X$X$X$X$X$X$X$X$X$X$X$X$X$X$X$X$X$X$X$X$X$X$X$X$X> , : # # # & = q 0 X . @ $ ` $X$X$X$X$X$X$X$X$X$X",
"$X$X$X$X$X$X$X$X$X$X$X$X$X$X$X$X$X$X$X$X$X$X$X$X$X$X$X$X$X$X$X$X$X$X$X` : # # # + X . . .   X $ 4 $X$X$X$X$X$X$X$X$X$X$X",
"$X$X$X$X$X$X$X$X$X$X$X$X$X$X$X$X$X$X$X$X$X$X$X$X$XOXOX$X$X$X$X$X$X$X$X$X2 # # # $ X   . X X + 4 $X$X$X$X$X$X$X$X$X$X$X$X",
"$X$X$X$X$X$X$X$X$X$X$X$X$X$X$X$X$X$X$X$X$X$X$X$Xx.g.g.c.$X$X$X$X$X$X$X$X{ # # + @ o   X + # 4 $X$X$X$X$X$X$X$X$X$X$X$X$X",
"$X$X$X$X$X$X$X$X$X$X$X$X$X$X$X$X$X$X$X$X$X$X$XOXg.i.'.Y.w.$X$X$X$X$X$X$X$X4 $ o X . + $ > 4 $X$X$X$X$X$X$X$X$X$X$X$X$X$X",
"$X$X$X$X$X$X$X$X$X$X$X$X$X$X$X$X$X$X$X$X$X$X$Xh.i.6.Y.M.B $X$X$X$X$X$X$X$X$X= ; ; ; } $X$X$X$X$X$X$X$X$X$X$X$X$X$X$X$X$X",
"$X$X$X$X$X$X$X$X$X$X$X$X$X$X$X$X$X$X$X$X$X$Xp.g.-.[.Q.Q.n $X$X$X$X$X$X$X$X$Xk $X$X$X$X$X$X$X$X$X$X$X$X$X$X$X$X$X$X$X$X$X",
"$X$X$X$X$X$X$X$X$X$X$X$X$X$Xx.u.u.4.j.{.^.J.1.g.i.'.Q.).N.oXv.$X$X$X$X$X$Xf $X$X$X$X$X$X$X$X$X$X$X$X$X$X$X$X$X$X$X$X$X$X",
"$X$X$X$X$X$X$X$X$X$X$X$X$Xu.W R R R E &.q.W.W.].6.0.v V.E.F 8 %.$X$X$X$Xe.o.$X$X$X$X$X$X$X$X$X$X$X$X$X$X$X$X$X$X$X$X$X$X",
"$X$X$X$X$X$X$X$X$X$X$X$X4.W T W $X$Xs.Y R H.Q.~.R.w.t.v C.j 9 P 4.$X$X$X1.$X$X$X$X$X$X$X$X$X$X$X$X$X$X$X$X$X$X$X$X$X$X$X",
"$X$X$X$X$X$X$X$X$X$X$X$X&.U Y $X$X$X$XW I j D.W._.~.~.!.^.r.7.P R p..Xf $X$X$X$X$X$X$X$X$X$X$X$X$X$X$X$X$X$X$X$X$X$X$X$X",
"$X$X$X$X$X$X$X$X$X$X$X@Xl.U 5.$X$X$X$XY c A N.D.G.I.I./.$X$X$XU U j. Xv.$X$X$X$X$X$X$X$X$X$X$X$X$X$X$X$X$X$X$X$X$X$X$X$X",
"$X$X$X$X$X$X$X$X$X$X#X X X8.$X$X$X$X$X .G.v 8 8 8 <.y.$X$X$X$X$.} }.XX@X$X$X$X$X$X$X$X$X$X$X$X$X$X$X$X$X$X$X$X$X$X$X$X$X",
"$X$X$X$X$X$X$X$X$X$X|..X$X$X$X$X$X$Xa.=.V.P K 9 $.$X$X$X$X$X$X$X8 =.|.@X$X$X$X$X$X$X$X$X$X$X$X$X$X$X$X$X$X$X$X$X$X$X$X$X",
"$X$X$X$X$X$X$X$X$X$X.X$X$X$X$X$X$X0.&.H.D.K P 3.$X$X$X$X$X$X$X$X; O.$X$X$X$X$X$X$X$X$X$X$X$X$X$X$X$X$X$X$X$X$X$X$X$X$X$X",
"$X$X$X$X$X$X$X$X$X$X$X$X$X$X$X$X3.G.V B.B K | $X$X$X$X$X$X$X$Xo.f $X$X$X$X$X$X$X$X$X$X$X$X$X$X$X$X$X$X$X$X$X$X$X$X$X$X$X",
"$X$X$X$X$X$X$X$X$X$X$X$X$X$X$X&.P M Z.S.j k y.$X$X$X$X$X$X$X$Xa $X$X$X$X$X$X$X$X$X$X$X$X$X$X$X$X$X$X$X$X$X$X$X$X$X$X$X$X",
"$X$X$X$X$X$X$X$X$X$X$X$X$X$X$X3.j D K.!.Z.C 2.$X$X$X$X$X$X$Xs $X$X$X$X$X$X$X$X$X$X$X$X$X$X$X$X$X$X$X$X$X$X$X$X$X$X$X$X$X",
"$X$X$X$X$X$X$X$X$X$X$X$X$X$X$XI x E.!._.`.A.B  .$X$X$X$X$Xh f $X$X$X$X$X$X$X$X$X$X$X$X$X$X$X$X$X$X$X$X$X$X$X$X$X$X$X$X$X",
"$X$X$X$X$X$X$X$X$X$X$X$X$X$X$XP I d m P.).).Q.k 5.$X$X$Xz s $X$X$X$X$X$X$X$X$X$X$X$X$X$X$X$X$X$X$X$X$X$X$X$X$X$X$X$X$X$X",
"$X$X$X$X$X$X$X$X$X$X$X$X$X$X$XP P T P v L.L.M.k R $X$X$Xs $X$X$X$X$X$X$X$X$X$X$X$X$X$X$X$X$X$X$X$X$X$X$X$X$X$X$X$X$X$X$X",
"$X$X$X$X$X$X$X$X$X$X$X$X$X$X$XP U W P k G.c L.l K 3.$Xa o.$X$X$X$X$X$X$X$X$X$X$X$X$X$X$X$X$X$X$X$X$X$X$X$X$X$X$X$X$X$X$X",
"$X$X$X$X$X$X$X$X$X$Xz.d.z.$X$XP U W P o.F  .D.O.K U 7 p $X$X$X$X$X$X$X$X$X$X$X$X$X$X$X$X$X$X$X$X$X$X$X$X$X$X$X$X$X$X$X$X",
"$X$X$X$X$X$X$X$X$X$Xu.&.%.f.$XL U E P m D.E 2.q.R 9 9 $X$X$X$X$X$X$X$X$X$X$X$X$X$X$X$X$X$X$X$X$X$X$X$X$X$X$X$X$X$X$X$X$X",
"$X$X$X$X$X$X$X$X$X$Xd.R W %.4.P U Y j I.T.&. .J.&.P U $X$X$X$X$X$X$X$X$X$X$X$X$X$X$X$X$X$X$X$X$X$X$X$X$X$X$X$X$X$X$X$X$X",
"$X$X$X$X$X$X$X$X$X$X$XR U R E T | C H.K.T.M P B 1.T U $X$X$X$X$X$X$X$X$X$X$X$X$X$X$X$X$X$X$X$X$X$X$X$X$X$X$X$X$X$X$X$X$X",
"$X$X$X$X$X$X$X$X$X$X$X$XR U R U Y x x l A.x K j C  .P ..$X$X$X$X$X$X$X$X$X$X$X$X$X$X$X$X$X$X$X$X$X$X$X$X$X$X$X$X$X$X$X$X",
"$X$X$X$X$X$X$X$X$X$X$X$X$XR P U T P K d B.A B k A | 9 U $X$X$X$X$X$X$X$X$X$X$X$X$X$X$X$X$X$X$X$X$X$X$X$X$X$X$X$X$X$X$X$X",
"$X$X$X$X$X$X$X$X$X$X$X$X$X$XY P P K P U k Z D.A U.B P Y r.$X$X$X$X$X$X$X$X$X$X$X$X$X$X$X$X$X$X$X$X$X$X$X$X$X$X$X$X$X$X$X",
"$X$X$X$X$X$X$X$X$X$X$X$X$X$X$XR K 9 P T U P 9 d N.S.Z Z F $X$X$X$X$X$X$X$X$X$X$X$X$X$X$X$X$X$X$X$X$X$X$X$X$X$X$X$X$X$X$X",
"$X$X$X$X$X$X$X$X$X$X$X$X$X$X$X$XR P P P R U T U I ' d j | $X$X$X$X$X$X$X$X$X$X$X$X$X$X$X$X$X$X$X$X$X$X$X$X$X$X$X$X$X$X$X",
"$X$X$X$X$X$X$X$X$X$X$X$X$X$X$X$X$XR K P P T T E T U P K R $X$X$X$X$X$X$X$X$X$X$X$X$X$X$X$X$X$X$X$X$X$X$X$X$X$X$X$X$X$X$X",
"$X$X$X$X$X$X$X$X$X$X$X$X$X$X$X$X$X$X..P P U R T T U P P R $X$X$X$X$X$X$X$X$X$X$X$X$X$X$X$X$X$X$X$X$X$X$X$X$X$X$X$X$X$X$X",
"$X$X$X$X$X$X$X$X$X$X$X$X$X$X$X$X$X$X$Xa...P P U U U K 9 R $X$X$X$X$X$X$X$X$X$X$X$X$X$X$X$X$X$X$X$X$X$X$X$X$X$X$X$X$X$X$X",
"$X$X$X$X$X$X$X$X$X$X$X$X$X$X$X$X$X$X$X$X$Xs...P K P K U 3.$X$X$X$X$X$X$X$X$X$X$X$X$X$X$X$X$X$X$X$X$X$X$X$X$X$X$X$X$X$X$X",
"$X$X$X$X$X$X$X$X$X$X$X$X$X$X$X$X$X$X$X$X$X$X$Xa.7.7.7.s.$X$X$X$X$X$X$X$X$X$X$X$X$X$X$X$X$X$X$X$X$X$X$X$X$X$X$X$X$X$X$X$X"
};
