/* XPM */
static char *result[] = {
/* columns rows colors chars-per-pixel */
"60 60 186 2 ",
"   c #160507",
".  c #120613",
"X  c #150F16",
"o  c #1B0D13",
"O  c #170E19",
"+  c #1A0D1C",
"@  c #111111",
"#  c #1A1215",
"$  c #1C1912",
"%  c #16151A",
"&  c #1C121C",
"*  c #1C181E",
"=  c #260717",
"-  c #230A14",
";  c #2A0A15",
":  c #260B1A",
">  c #2C0B1A",
",  c #340D1D",
"<  c #251018",
"1  c #221A1C",
"2  c #2A251B",
"3  c #1F0D21",
"4  c #1D1923",
"5  c #1B1A2B",
"6  c #210727",
"7  c #230B25",
"8  c #2D0925",
"9  c #26072C",
"0  c #29072E",
"q  c #25092A",
"w  c #2B0B2D",
"e  c #340C22",
"r  c #3B0E24",
"t  c #330A2B",
"y  c #390B2D",
"u  c #221022",
"i  c #211C25",
"p  c #221D2B",
"a  c #361625",
"s  c #3D1123",
"d  c #2A0731",
"f  c #2D0833",
"g  c #320B35",
"h  c #320738",
"j  c #35093A",
"k  c #3A0B3D",
"l  c #241E38",
"z  c #371B32",
"x  c #23212D",
"c  c #37252D",
"v  c #3B232C",
"b  c #252233",
"n  c #292435",
"m  c #2A273A",
"M  c #2E253C",
"N  c #3A2332",
"B  c #372832",
"V  c #3D2A32",
"C  c #30253D",
"Z  c #34293F",
"A  c #3B2D3E",
"S  c #71121C",
"D  c #4E2D1F",
"F  c #60351C",
"G  c #420F35",
"H  c #430B3D",
"J  c #471A3C",
"K  c #58272E",
"L  c #4C3D22",
"P  c #5C3A2A",
"I  c #472F3B",
"U  c #482A38",
"Y  c #46333E",
"T  c #4E3A39",
"R  c #5B3B37",
"E  c #54393A",
"W  c #583B3A",
"Q  c #653921",
"!  c #703F21",
"~  c #652532",
"^  c #673D34",
"/  c #703F33",
"(  c #5E443D",
")  c #784D2E",
"_  c #6F4434",
"`  c #604238",
"'  c #744735",
"]  c #784B36",
"[  c #6A5038",
"{  c #7D5137",
"}  c #091446",
"|  c #131944",
" . c #3E0A41",
".. c #1B2350",
"X. c #272445",
"o. c #2C2643",
"O. c #2E2B45",
"+. c #29264B",
"@. c #2E2B49",
"#. c #312740",
"$. c #332A43",
"%. c #392D43",
"&. c #332E4A",
"*. c #373144",
"=. c #36314B",
"-. c #39324D",
";. c #2F2D53",
":. c #3B3552",
">. c #3D3955",
",. c #32375C",
"<. c #3D3A59",
"1. c #212E62",
"2. c #253061",
"3. c #3E3971",
"4. c #420B45",
"5. c #460B48",
"6. c #4B0C4D",
"7. c #4B124A",
"8. c #4E0C51",
"9. c #510C53",
"0. c #473548",
"q. c #493B4F",
"w. c #573B42",
"e. c #543A45",
"r. c #413B57",
"t. c #443B5A",
"y. c #5B3F54",
"u. c #653243",
"i. c #43396B",
"p. c #54424E",
"a. c #5B414B",
"s. c #4C4154",
"d. c #45405D",
"f. c #584456",
"g. c #674A46",
"h. c #6E4943",
"j. c #675643",
"k. c #464361",
"l. c #4B416B",
"z. c #534166",
"x. c #54436B",
"c. c #58466D",
"v. c #5E4874",
"b. c #654463",
"n. c #784D66",
"m. c #725276",
"M. c #B0252A",
"N. c #C41F24",
"B. c #F62727",
"V. c #854A2E",
"C. c #904E25",
"Z. c #8D562E",
"A. c #965826",
"S. c #9C5529",
"D. c #8D4D30",
"F. c #8B5C3E",
"G. c #945B32",
"H. c #975836",
"J. c #AD5F26",
"K. c #A45E2C",
"L. c #B45C24",
"P. c #BA5E21",
"I. c #8F603E",
"U. c #977231",
"Y. c #A16728",
"T. c #AC6228",
"R. c #B56A27",
"E. c #A87B2F",
"W. c #BD7129",
"Q. c #AB6B32",
"!. c #C7621E",
"~. c #D2651C",
"^. c #DE7C1B",
"/. c #CB6D21",
"(. c #CC7926",
"). c #D37422",
"_. c #D47924",
"`. c #C27A32",
"'. c #825A41",
"]. c #925C52",
"[. c #86556A",
"{. c #985F7F",
"}. c #9E6079",
"|. c #DE8523",
" X c #E98621",
".X c #9A6286",
/* pixels */
"@ @ @ @ @ @ @ @ @ @ @ @ @ @ @ @ @ @ @ @ @ @ @ @ @ @ @ @ @ @ @ @ @ @ @ @ @ @ @ @ @ @ @ @ @ @ @ @ @ @ @ @ @ @ @ @ @ @ @ @ ",
"@ @ @ @ @ @ @ @ @ @ @ @ @ @ @ @ @ @ @ @ @ @ @ @ @ @ @ @ @ @ @ @ @ @ @ @ @ @ @ @ @ @ @ @ @ @ @ @ @ @ @ @ @ @ @ @ @ @ @ @ ",
"@ @ @ @ @ @ @ @ @ @ @ @ @ @ @ @ @ @ @ @ @ @ @ @ @ @ @ @ @ @ @ @ @ @ @ @ @ @ @ @ @ @ @ @ @ @ @ @ @ @ @ @ @ @ @ @ @ @ @ @ ",
"@ @ @ @ @ @ @ @ @ @ @ @ @ @ @ @ @ @ @ @ @ @ @ @ @ @ @ @ @ @ @ @ @ @ @ @ @ @ @ @ @ @ @ @ @ @ @ @ @ @ @ @ @ @ @ @ @ @ @ @ ",
"@ @ @ @ @ @ @ @ @ @ @ @ @ @ @ @ @ @ @ @ @ @ @ @ @ @ @ @ @ @ @ @ @ @ @ @ @ @ @ @ @ @ @ @ @ @ @ @ @ @ @ @ @ @ @ @ @ @ @ @ ",
"@ @ @ @ @ @ @ @ @ @ @ @ @ @ @ @ @ @ @ @ @ @ @ @ @ @ @ @ @ @ @ @ @ @ @ @ @ @ @ @ @ @ @ @ @ @ @ @ @ @ @ @ @ @ @ @ @ @ @ @ ",
"@ @ @ @ @ @ @ @ @ @ @ @ @ @ @ @ @ @ @ @ @ @ @ @ @ @ @ @ @ @ @ @ @ @ @ @ @ @ @ @ @ @ @ @ @ @ @ @ @ @ @ @ @ @ @ @ @ @ @ @ ",
"@ @ @ @ @ @ @ @ @ @ @ @ @ @ @ @ @ @ @ @ @ @ @ @ @ @ @ @ @ @ @ @ @ @ @ @ @ @ @ @ @ @ @ @ @ @ @ @ @ @ @ @ @ @ @ @ @ @ @ @ ",
"@ @ @ @ @ @ @ @ @ @ @ @ @ @ @ @ @ @ @ @ @ @ @ @ @ @ @ @ @ @ @ @ @ @ w @ @ @ @ @ @ @ @ < % @ @ @ @ @ @ @ @ @ @ @ @ @ @ @ ",
"@ @ @ @ @ @ @ @ @ @ @ @ @ @ @ @ @ @ @ @ @ @ @ @ @ @ @ @ @ @ @ @ @ # 4.g $ @ @ @ @ @ @ 4.g @ @ @ @ @ @ @ @ @ @ @ @ @ @ @ ",
"@ @ @ @ @ @ @ @ @ @ @ @ @ @ @ @ @ @ @ @ @ @ @ @ @ @ @ @ @ @ @ @ @ @ & k @ @ % @ @ @ @ + k 7 @ @ @ @ @ @ @ @ @ @ @ @ @ @ ",
"@ @ @ @ @ @ @ @ @ @ @ @ @ @ @ @ @ @ @ @ @ @ @ @ @ @ @ @ @ @ @ @ @ @ @ @ @ % + X @ @ @ @ w 5.+ @ @ @ @ @ @ @ @ @ @ @ @ @ ",
"@ @ @ @ @ @ @ @ @ @ @ @ @ @ @ @ @ @ @ @ @ @ @ @ @ @ @ @ @ @ @ @ @ @ @ @ @ % g w @ @ @ @ O q + @ . 7 & @ @ @ @ @ @ @ @ @ ",
"@ @ @ @ @ @ @ @ @ @ @ @ @ @ @ @ @ @ @ @ @ @ @ @ @ @ @ @ @ @ @ @ @ @ @ @ % @ k 5.% @ @ @ @ X X X % g 4.+ @ @ @ @ @ @ @ @ ",
"@ @ @ @ @ @ @ @ @ @ @ @ @ @ @ @ @ @ @ @ @ @ @ @ @ @ @ @ @ @ @ @ @ @ @ & g @ g  .+ @ 7 w g % @ @ @ 3 f + @ @ @ @ @ @ @ @ ",
"@ @ @ @ @ @ @ @ @ @ @ @ @ @ @ @ @ @ @ @ @ @ @ @ @ @ @ @ @ @ @ @ @ @ @ % w u 3 f 6 q d  .8.4.g % @ X X X @ @ @ @ @ @ @ @ ",
"@ @ @ @ @ @ @ @ @ @ @ @ @ @ @ @ @ @ @ @ @ @ @ @ @ @ @ @ @ @ @ @ @ @ @ @ + 4.q 0 d 0 0 d h 6.8.3 @ @ @ @ @ @ @ @ @ @ @ @ ",
"@ @ @ @ @ @ @ @ @ @ @ @ @ @ @ @ @ @ @ @ @ @ @ @ @ @ @ @ @ @ @ @ @ @ @ @ + 4.f 0 0 0 0 0 9 d  . .+ & g > @ @ @ @ @ @ @ @ ",
"@ @ @ @ @ @ @ @ @ @ @ @ @ @ @ @ @ @ @ @ @ @ @ @ @ @ @ @ @ @ @ @ @ @ @ @ @ 3 q 0 d d d f 0 9 0 9 g g y - @ @ @ @ @ @ @ @ ",
"@ @ @ @ @ @ @ @ @ @ @ @ @ @ @ @ @ @ @ @ @ @ @ @ @ @ @ @ @ @ @ @ @ @ @ @ @ : f 0 q d  .8. .d 9 9 j G , 7 @ @ @ @ @ @ @ @ ",
"@ @ @ @ @ @ @ @ @ @ @ @ @ @ @ @ @ @ @ @ @ @ @ @ @ @ @ @ @ @ @ @ @ @ % X @ g  .6 0 f 5.8.8.6. .h w r > 0 c @ @ @ @ @ @ @ ",
"@ @ @ @ @ @ @ @ @ @ @ @ @ @ @ @ @ @ @ @ @ @ @ @ @ @ @ @ @ @ @ @ @ @ X O 7 9.6.j 9 f 5.8.8.8.8.8.H r , 9 v 1 @ @ @ @ @ @ ",
"@ @ @ @ @ @ @ @ @ @ @ @ @ @ @ @ @ @ @ @ @ @ @ @ @ @ @ @ @ @ @ @ @ @ @ + f 9.9. .3 f 5.8.6.6.6.8.J s = y v & @ @ @ @ @ @ ",
"@ @ @ @ @ @ @ @ @ @ @ @ @ @ @ @ @ @ @ @ @ @ @ @ @ @ @ @ @ @ @ @ @ @ @ O g 9.6.5.h f 5.8.8.8.7.U U s > v z + @ @ @ @ @ @ ",
"@ @ @ @ @ @ @ @ @ @ @ @ @ @ @ @ @ @ @ @ @ @ @ @ @ @ @ @ @ @ @ @ @ @ @ @ q  .8.6.f d 5.8.8.6.v K ~ , , a f q @ @ @ @ @ @ ",
"@ @ @ @ @ @ @ @ @ @ @ @ @ @ @ @ @ @ @ @ @ @ @ @ @ @ @ @ @ @ @ @ @ @ @ @ % f 6.6.h 0  .8.7.N K B.S - ; 0 0 q @ @ @ @ @ @ ",
"@ @ @ @ @ @ @ @ @ @ @ @ @ @ @ @ @ @ @ @ @ @ @ @ @ @ @ @ @ @ @ @ @ @ @ @ X 6 j 6. .9 f 6.J B M.N.- = ; 8 d 7 @ @ @ @ @ @ ",
"@ @ @ @ @ @ @ @ @ @ @ @ @ @ @ @ @ @ @ @ @ @ @ @ @ @ @ @ @ @ @ @ @ @ @ @ X X 6 d  .4.9 4.G e S ; ; > 0 0 0 O @ @ @ @ @ @ ",
"@ @ @ @ @ @ @ @ @ @ @ @ @ @ @ @ @ @ @ @ @ @ @ @ @ @ @ @ @ % 4 i @ @ @ @ @ @ + 3 j 8.h f > = . - = w 0 0 3 @ @ @ @ @ @ @ ",
"@ @ @ @ @ @ @ @ @ @ @ @ @ @ @ @ @ @ @ @ @ @ @ @ @ @ @ @ @ *.z.l.i @ @ @ @ @ X 3 0 4.6.d = ; ; y t d 0 7 @ @ @ @ @ @ @ @ ",
"@ @ @ @ @ @ @ @ @ @ @ @ @ @ @ @ @ @ @ @ @ @ @ @ @ @ @ @ $.v.l.l.t.& @ @ @ @ @ X 6 4.6.e = > 8 4.h 0 7 @ @ @ @ @ @ @ @ @ ",
"@ @ @ @ @ @ @ @ @ @ @ @ @ @ @ @ @ @ @ @ @ @ @ @ @ @ @ # x.k.y.H.E l @ @ @ @ @ X + g r ; > 0 f 0 0 7 @ @ @ @ @ @ @ @ @ @ ",
"@ @ @ @ @ @ @ @ @ @ @ @ @ @ @ @ @ @ @ @ @ % % # $ @ 4 -.c.,.L.!.Q p @ @ @ @ @ @ @ < > 7 0 0 9 9 . @ @ @ @ @ @ @ @ @ @ @ ",
"@ @ @ @ @ @ @ @ @ @ @ @ @ @ @ @ @ @ @ @ n :.;.j.Y.{ A i.c.1.^._.! L i p @ @ @ @ < ; o O 7 7 + o @ @ @ @ @ @ @ @ @ @ @ @ ",
"@ @ @ @ @ @ @ @ @ @ @ @ @ @ @ @ @ @ % n d.*.$.>.z.H.R.].3.s.P A._ ) M =.m @ @ # , o @ @ X X @ @ @ @ @ @ @ @ @ @ @ @ @ @ ",
"@ @ @ @ @ @ @ @ @ @ @ @ @ @ @ @ @ 4 *.:.Z 4 4 b +.:.W. XI.'.t.f.1 %.#.$.r.n # , # @ @ @ @ @ @ @ @ @ @ @ @ @ @ @ @ @ @ @ ",
"@ @ @ @ @ @ @ @ @ @ @ @ @ @ @ @ @ b <.:.x @ @ 4 M X.' A.|.|.`.W.C.5 x M $.-.z   @ @ @ @ @ @ @ @ @ @ @ @ @ @ @ @ @ @ @ @ ",
"@ @ @ @ @ @ @ @ @ @ @ @ @ @ @ @ n.m.t.$.4 @ @ x $.X.] G.' T.R.P.F @ % p $.b.n.i @ @ @ @ @ @ @ @ @ @ @ @ @ @ @ @ @ @ @ @ ",
"@ @ @ @ @ @ @ @ @ @ @ @ @ @ @ V .X{.b.p @ @ x >.>.<.] e.X.C x D @ @ @ 5 0.}..Xf.@ @ @ @ @ @ @ @ @ @ @ @ @ @ @ @ @ @ @ @ ",
"@ @ @ @ @ @ @ @ @ @ @ @ @ @ @ n.n.w.B @ @ % $.>.2.G.g.&.O.* @ @ @ @ @ * z u.[.V @ @ @ @ @ @ @ @ @ @ @ @ @ @ @ @ @ @ @ @ ",
"@ @ @ @ @ @ @ @ @ @ @ @ @ @ @ ( V @ @ @ @ % 0.t.p.L.0.5 % @ @ @ @ @ @ - ; c * @ @ @ @ @ @ @ @ @ @ @ @ @ @ @ @ @ @ @ @ @ ",
"@ @ @ @ @ @ @ @ @ @ @ @ @ @ @ @ @ @ @ @ % B G.g.F.!.` 2 @ @ @ @ @ @ $ , o @ @ @ @ @ @ @ @ @ @ @ @ @ @ @ @ @ @ @ @ @ @ @ ",
"@ @ @ @ @ @ @ @ @ @ @ @ @ @ @ @ @ @ @ @ i o.^ Z.).^ T * @ @ @ @ @ @ , > @ @ @ @ @ @ @ @ @ @ @ @ @ @ @ @ @ @ @ @ @ @ @ @ ",
"@ @ @ @ @ @ @ @ @ @ @ @ @ @ @ @ @ @ @ @ 5 [ E.U.(.R.E l % @ @ @ @ < ; @ @ @ @ @ @ @ @ @ @ @ @ @ @ @ @ @ @ @ @ @ @ @ @ @ ",
"@ @ @ @ @ @ @ @ @ @ @ @ @ @ @ @ @ @ @ @ 5 R D.T._.|.W.E n % X @ # , o @ @ @ @ @ @ @ @ @ @ @ @ @ @ @ @ @ @ @ @ @ @ @ @ @ ",
"@ @ @ @ @ @ @ @ @ @ @ @ @ @ @ @ @ @ @ @ p o...%.' L.)./.$.4 @ @ > o @ @ @ @ @ @ @ @ @ @ @ @ @ @ @ @ @ @ @ @ @ @ @ @ @ @ ",
"@ @ @ @ @ @ @ @ @ @ @ @ @ @ @ @ @ @ @ @ i -.d.=.} D.L.~.A b @ : > @ @ @ @ @ @ @ @ @ @ @ @ @ @ @ @ @ @ @ @ @ @ @ @ @ @ @ ",
"@ @ @ @ @ @ @ @ @ @ @ @ @ @ @ @ % @ @ @ 4 -.d.&.| K.] P.%.o.i , @ @ @ @ @ @ @ @ @ @ @ @ @ @ @ @ @ @ @ @ @ @ @ @ @ @ @ @ ",
"@ @ @ @ @ @ @ @ @ @ @ @ @ @ @ % *.m % @ 4 =.k.&.| S.q.K.q.&.M - @ @ @ @ @ @ @ @ @ @ @ @ @ @ @ @ @ @ @ @ @ @ @ @ @ @ @ @ ",
"@ @ @ @ @ @ @ @ @ @ @ @ @ @ @ x =.>.*.x x *.t.@.I /.q.s.I.d.M & @ @ @ @ @ @ @ @ @ @ @ @ @ @ @ @ @ @ @ @ @ @ @ @ @ @ @ @ ",
"@ @ @ @ @ @ @ @ @ @ @ @ @ @ @ @ m O.-.-.O.a.{ [ A.W.g.1.Q.s.-.n @ @ @ @ @ @ @ @ @ @ @ @ @ @ @ @ @ @ @ @ @ @ @ @ @ @ @ @ ",
"@ @ @ @ @ @ @ @ @ @ @ @ @ @ @ @ x m $.=.O.Y R R Y ) ( =.h.a.r.#.% @ @ @ @ @ @ @ @ @ @ @ @ @ @ @ @ @ @ @ @ @ @ @ @ @ @ @ ",
"@ @ @ @ @ @ @ @ @ @ @ @ @ @ @ @ @ p $.$.*.&.+.X.} S.Z.%.+.Z.;.Z * @ @ @ @ @ @ @ @ @ @ @ @ @ @ @ @ @ @ @ @ @ @ @ @ @ @ @ ",
"@ @ @ @ @ @ @ @ @ @ @ @ @ @ @ @ @ @ p C $.&.$.$.X.W S.V.' ~.%.| b @ @ @ @ @ @ @ @ @ @ @ @ @ @ @ @ @ @ @ @ @ @ @ @ @ @ @ ",
"@ @ @ @ @ @ @ @ @ @ @ @ @ @ @ @ @ @ @ p M C $.C &.&.A Y E L.J./ Z.@ @ @ @ @ @ @ @ @ @ @ @ @ @ @ @ @ @ @ @ @ @ @ @ @ @ @ ",
"@ @ @ @ @ @ @ @ @ @ @ @ @ @ @ @ @ @ @ @ x #.$.#.$.r.&.@.o.I E V.' @ @ @ @ @ @ @ @ @ @ @ @ @ @ @ @ @ @ @ @ @ @ @ @ @ @ @ ",
"@ @ @ @ @ @ @ @ @ @ @ @ @ @ @ @ @ @ @ @ @ b #.$.$.&.-.&.:.=.@.$.M 4 @ @ @ @ @ @ @ @ @ @ @ @ @ @ @ @ @ @ @ @ @ @ @ @ @ @ ",
"@ @ @ @ @ @ @ @ @ @ @ @ @ @ @ @ @ @ @ @ @ % 4 M #.M $.-.-.:.-.$.o.M @ @ @ @ @ @ @ @ @ @ @ @ @ @ @ @ @ @ @ @ @ @ @ @ @ @ ",
"@ @ @ @ @ @ @ @ @ @ @ @ @ @ @ @ @ @ @ @ @ @ @ % % p C $.&.$.$.$.$.n @ @ @ @ @ @ @ @ @ @ @ @ @ @ @ @ @ @ @ @ @ @ @ @ @ @ ",
"@ @ @ @ @ @ @ @ @ @ @ @ @ @ @ @ @ @ @ @ @ @ @ @ @ @ % n C C C C M % @ @ @ @ @ @ @ @ @ @ @ @ @ @ @ @ @ @ @ @ @ @ @ @ @ @ "
};
