/* XPM */
static char *result[] = {
/* columns rows colors chars-per-pixel */
"60 60 210 2 ",
"   c #270916",
".  c #290916",
"X  c #2C0A1A",
"o  c #330C1C",
"O  c #390E1D",
"+  c #2C0924",
"@  c #29072F",
"#  c #2C0A2B",
"$  c #280722",
"%  c #330B25",
"&  c #3B0F23",
"*  c #320A2A",
"=  c #3D0E2A",
"-  c #3B1224",
";  c #3D1929",
":  c #351727",
">  c #2B0731",
",  c #2C0932",
"<  c #310936",
"1  c #3B0A33",
"2  c #36093A",
"3  c #3A0A3E",
"4  c #310736",
"5  c #321335",
"6  c #3A1F30",
"7  c #35153A",
"8  c #3B1E3F",
"9  c #39163E",
"0  c #291A26",
"q  c #34242E",
"w  c #3C2331",
"e  c #31253D",
"r  c #3D2D3F",
"t  c #5F111B",
"y  c #75151E",
"u  c #49291E",
"i  c #431C2C",
"p  c #431525",
"a  c #441A3A",
"s  c #46272B",
"d  c #51252F",
"f  c #422334",
"g  c #472936",
"h  c #4C263B",
"j  c #422E3D",
"k  c #4B2D39",
"l  c #482C37",
"z  c #502731",
"x  c #45323D",
"c  c #4C333B",
"v  c #553C3E",
"b  c #5C3B3A",
"n  c #573837",
"m  c #583522",
"M  c #653D2D",
"N  c #632531",
"B  c #653C36",
"V  c #683E36",
"C  c #7C262D",
"Z  c #54433D",
"A  c #6B512E",
"S  c #654137",
"D  c #6B4236",
"F  c #634138",
"G  c #6B4439",
"H  c #75493E",
"J  c #7B4F3D",
"K  c #794635",
"L  c #7E5134",
"P  c #3D0B41",
"I  c #3B1740",
"U  c #3D1E42",
"Y  c #2E2742",
"T  c #2F2945",
"R  c #302741",
"E  c #322A43",
"W  c #392C42",
"Q  c #362E49",
"!  c #3E2343",
"~  c #3B3045",
"^  c #37314C",
"/  c #3A334D",
"(  c #3B3552",
")  c #3E3A56",
"_  c #420A45",
"`  c #490D47",
"'  c #460B49",
"]  c #4C0C4E",
"[  c #4C124C",
"{  c #471B45",
"}  c #4E0C50",
"|  c #4E1450",
" . c #571D59",
".. c #521454",
"X. c #422644",
"o. c #45294A",
"O. c #46294A",
"+. c #443444",
"@. c #42344B",
"#. c #41394E",
"$. c #4C374A",
"%. c #533742",
"&. c #533C44",
"*. c #593D43",
"=. c #533A4C",
"-. c #593F49",
";. c #583646",
":. c #4D2B50",
">. c #5A275B",
",. c #4C3351",
"<. c #433B53",
"1. c #4B3F53",
"2. c #443D5A",
"3. c #4E3E59",
"4. c #473451",
"5. c #543257",
"6. c #563959",
"7. c #6A3E53",
"8. c #5E2B60",
"9. c #4A3D61",
"0. c #632D65",
"q. c #663868",
"w. c #5C4040",
"e. c #5D4947",
"r. c #474055",
"t. c #4E4151",
"y. c #464159",
"u. c #4B445A",
"i. c #4E485A",
"p. c #524251",
"a. c #504A5C",
"s. c #59485B",
"d. c #5A505E",
"f. c #624548",
"g. c #714B43",
"h. c #7C5542",
"j. c #7C5840",
"k. c #6B4453",
"l. c #684D54",
"z. c #4C4462",
"x. c #4D4962",
"c. c #534E64",
"v. c #54446D",
"b. c #564C6B",
"n. c #514161",
"m. c #5B4972",
"M. c #585266",
"N. c #654862",
"B. c #7A4F6B",
"V. c #655965",
"C. c #6E4370",
"Z. c #6A5C7D",
"A. c #635478",
"S. c #715E74",
"D. c #785679",
"F. c #646070",
"G. c #9A1A20",
"H. c #8B1C24",
"J. c #B22528",
"K. c #D42325",
"L. c #AD561F",
"P. c #864B2F",
"I. c #894F28",
"U. c #974F2A",
"Y. c #8D512E",
"T. c #95532C",
"R. c #9B5E2E",
"E. c #9D552A",
"W. c #804E37",
"Q. c #835333",
"!. c #8C5431",
"~. c #83543D",
"^. c #8B5C3B",
"/. c #955A34",
"(. c #AE5B25",
"). c #A35628",
"_. c #A75828",
"`. c #B75B23",
"'. c #9E622E",
"]. c #876835",
"[. c #A6622A",
"{. c #AB6129",
"}. c #B56427",
"|. c #BC6124",
" X c #B96B26",
".X c #B4692B",
"XX c #BC742C",
"oX c #B3722A",
"OX c #A86839",
"+X c #C26B24",
"@X c #C16623",
"#X c #C97426",
"$X c #CB7B26",
"%X c #C47426",
"&X c #8D674D",
"*X c #856352",
"=X c #956546",
"-X c #A27045",
";X c #88556A",
":X c #8C5D71",
">X c #825477",
",X c #935D7B",
"<X c #8B637C",
"1X c #916A7D",
"2X c #BE8334",
"3X c #C7822A",
"4X c #9D668B",
"5X c #846A85",
"6X c #A26B90",
"7X c None",
/* pixels */
"7X7X7X7X7X7X7X7X7X7X7X7X7X7X7X7X7X7X7X7X7X7X7X7X7X7X7X7X7X7XD.7X7X7X7X7X7X7X7X7X7XC.7X7X7X7X7X7X7X7X7X7X7X7X7X7X7X7X7X7X",
"7X7X7X7X7X7X7X7X7X7X7X7X7X7X7X7X7X7X7X7X7X7X7X7X7X7X7X7X7X7X7X .7X7X7X7X7X7X7X7X7X| 0.7X7X7X7X7X7X7X7X7X7X7X7X7X7X7X7X7X",
"7X7X7X7X7X7X7X7X7X7X7X7X7X7X7X7X7X7X7X7X7X7X7X7X7X7X7X7X7X7X7X7X7X7X7X7X7X7X7X7X7X6.[ q.7X7X7X7X7X7X7X7X7X7X7X7X7X7X7X7X",
"7X7X7X7X7X7X7X7X7X7X7X7X7X7X7X7X7X7X7X7X7X7X7X7X7X7X7X7X7X7X7X7X7X7X7X5X7X7X7X7X7X7X{ ' 6.7X7X7X7X7X7X7X7X7X7X7X7X7X7X7X",
"7X7X7X7X7X7X7X7X7X7X7X7X7X7X7X7X7X7X7X7X7X7X7X7X7X7X7X7X7X7X7X7X7X7X7Xq.7X7X7X7X7X7X7X7 { 7X7XS.7X7X7X7X7X7X7X7X7X7X7X7X",
"7X7X7X7X7X7X7X7X7X7X7X7X7X7X7X7X7X7X7X7X7X7X7X7X7X7X7X7X7X7X7X7X7X7X7X8.[ 7X7X7X7X7X7X7X7X7X7X5.]  .7X7X7X7X7X7X7X7X7X7X",
"7X7X7X7X7X7X7X7X7X7X7X7X7X7X7X7X7X7X7X7X7X7X7X7X7X7X7X7X7X7X7X7X7X7X7X8.P O.7X7X7X7X7X7X7X7X7X7XI 2 7X7X7X7X7X7X7X7X7X7X",
"7X7X7X7X7X7X7X7X7X7X7X7X7X7X7X7X7X7X7X7X7X7X7X7X7X7X7X7X7X7X7X7X7X7X7X:.< 7 3., _ } } 8.7X7X7X7X7X, 7X7X7X7X7X7X7X7X7X7X",
"7X7X7X7X7X7X7X7X7X7X7X7X7X7X7X7X7X7X7X7X7X7X7X7X7X7X7X7X7X7X7X7X7X7X7XX.@ > @ @ , _ ] } ..7X7X7X7X7X7X7X7X7X7X7X7X7X7X7X",
"7X7X7X7X7X7X7X7X7X7X7X7X7X7X7X7X7X7X7X7X7X7X7X7X7X7X7X7X7X7X7X7X7X>.3 , @ @ @ @ > > > 3 ] 0.7X7X7X7X7X7X7X7X7X7X7X7X7X7X",
"7X7X7X7X7X7X7X7X7X7X7X7X7X7X7X7X7X7X7X7X7X7X7X7X7X7X7X7X7X7X7X7X7Xq.3 @ @ @ @ @ > @ @ @ 2 P { @ < { ;.7X7X7X7X7X7X7X7X7X",
"7X7X7X7X7X7X7X7X7X7X7X7X7X7X7X7X7X7X7X7X7X7X7X7X7X7X7X7X7X7X7X7X7X7X7 @ @ @ @ > > > @ @ @ # > 3 * * f 7X7X7X7X7X7X7X7X7X",
"7X7X7X7X7X7X7X7X7X7X7X7X7X7X7X7X7X7X7X7X7X7X7X7X7X7X7X7X7X7X7X7X7X7X! @ @ @ @ 2 ] P 2 > > @ 4 _ p % X.7X7X7X7X7X7X7X7X7X",
"7X7X7X7X7X7X7X7X7X7X7X7X7X7X7X7X7X7X7X7X7X7X7X7X7X7X7X7X7X7X7X7X7X7X>.3 > @ > _ } } ] _ 4 > # = & + # =.7X7X7X7X7X7X7X7X",
"7X7X7X7X7X7X7X7X7X7X7X7X7X7X7X7X7X7X7X7X7X7X7X7X7X7X7X7X7X7X7X7X7Xq...' 4 @ @ _ ] } ] } ] ] 3 & & o + 6 7X7X7X7X7X7X7X7X",
"7X7X7X7X7X7X7X7X7X7X7X7X7X7X7X7X7X7X7X7X7X7X7X7X7X7X7X7X7X7X7X7XO.| ] ] P @ > _ } ] } ] ] ] ` & O X # 6 V.7X7X7X7X7X7X7X",
"7X7X7X7X7X7X7X7X7X7X7X7X7X7X7X7X7X7X7X7X7X7X7X7X7X7X7X7X7X7X7X7XI ' ] ] _ > > _ ] } ] } ] ] a p O + : 6 $.7X7X7X7X7X7X7X",
"7X7X7X7X7X7X7X7X7X7X7X7X7X7X7X7X7X7X7X7X7X7X7X7X7X7X7X7X7X7X7X7X6.` ] } ] 4 @ _ ] ] ] ] { h g i o X : w 5 7X7X7X7X7X7X7X",
"7X7X7X7X7X7X7X7X7X7X7X7X7X7X7X7X7X7X7X7X7X7X7X7X7X7X7X7X7X7X7X7X3.3 ] ] ] < > _ ] ] } ] a d N p o o : # , 7X7X7X7X7X7X7X",
"7X7X7X7X7X7X7X7X7X7X7X7X7X7X7X7X7X7X7X7X7X7X7X7X7X7X7X7X7X7X7X7X7X! P } ] < @ 3 ` ] [ a d J.G.O   X # > 5 7X7X7X7X7X7X7X",
"7X7X7X7X7X7X7X7X7X7X7X7X7X7X7X7X7X7X7X7X7X7X7X7X7X7X7X7X7X7X7X7X7XX.< _ ] _ > > ' [ a f C K.t .   . + @ 5 7X7X7X7X7X7X7X",
"7X7X7X7X7X7X7X7X7X7X7X7X7X7X7X7X7X7X7X7X7X7X7X7X7X7X7X7X7X7X7X7X7X7XU > 2 P 3 > 3 ] a i H.y o . X + # @ 6.7X7X7X7X7X7X7X",
"7X7X7X7X7X7X7X7X7X7X7X7X7X7X7X7X7X7X7X7X7X7X7X7X7X7X7X7X7X7X7X7X7X7X7XU @ > ] 4 2 1 o X .   . . + # @ 7 7X7X7X7X7X7X7X7X",
"7X7X7X7X7X7X7X7X7X7X7X7X7X7X7X7X7X7X7X7X7X7X7X7X7X7X7X7X7X7X7X7X7X7X7X7XU 4 _ 3 @ $     . .   % , @ > ,.7X7X7X7X7X7X7X7X",
"7X7X7X7X7X7X7X7X7X7X7X7X7X7X7X7X7X7X7X7X7X7X7X7XZ.m.m.Z.7X7X7X7X7X7X7X7Xs., 3 ] 2 * X     * 1 # > > o.7X7X7X7X7X7X7X7X7X",
"7X7X7X7X7X7X7X7X7X7X7X7X7X7X7X7X7X7X7X7X7X7X7X7XA.v.9.v.Z.7X7X7X7X7X7X7X7Xo.3 ` % o X   + 3 2 > > o.7X7X7X7X7X7X7X7X7X7X",
"7X7X7X7X7X7X7X7X7X7X7X7X7X7X7X7X7X7X7X7X7X7X7XF.v.3.g.K 4.7X7X7X7X7X7X7X7X7X9 1 o X   # # > > > o.7X7X7X7X7X7X7X7X7X7X7X",
"7X7X7X7X7X7X7X7X7X7X7X7X7X7X7X7X7X7X7X7X7X7X7Xm.2.W.`.(.l F.7X7X7X7X7X7X7X7X=.- X $ @ @ @ > , o.7X7X7X7X7X7X7X7X7X7X7X7X",
"7X7X7X7X7X7X7X7X7X7X7X7X7X7X7X7X7X7X7X7X7Xy.9.v.2./.@XL.s 7X7X7X7X7X7X7X7X7X%.f # 7 > , 7 , 7X7X7X7X7X7X7X7X7X7X7X7X7X7X",
"7X7X7X7X7X7X7X7X7X7X7X7X7X7Xb.z.9.d.*XOX/.*.3.v.2.!.%X Xu A e.<.7X7X7X7X7X%.c 7X7X7X7X7X7X7X7X7X7X7X7X7X7X7X7X7X7X7X7X7X",
"7X7X7X7X7X7X7X7X7X7X7X7Xb.x.( E E Q ) k..X%XOXd.p.c M I.m Z r Q y.7X7X7X7Xl 7X7X7X7X7X7X7X7X7X7X7X7X7X7X7X7X7X7X7X7X7X7X",
"7X7X7X7X7X7X7X7X7X7X7Xx.2./ / 7X7X#.Q ^ ~.+X#XOX^.l.l.q 0 e Y Y / z.7X7Xc 7X7X7X7X7X7X7X7X7X7X7X7X7X7X7X7X7X7X7X7X7X7X7X",
"7X7X7X7X7X7X7X7X7X7X7X2.( E i.7X7X7Xy.E W B _.$X3XXX3XoXY.+.Y Q Q / S.k -.7X7X7X7X7X7X7X7X7X7X7X7X7X7X7X7X7X7X7X7X7X7X7X",
"7X7X7X7X7X7X7X7X7X7X5X9.Q Q 7X7X7X7X^ e r Q.R.!. X X|.}.7X7X7X7XE 4.>Xk.7X7X7X7X7X7X7X7X7X7X7X7X7X7X7X7X7X7X7X7X7X7X7X7X",
"7X7X7X7X7X7X7X7X7X4X4XN.Q M.7X7X7Xc.) 4.H !.f.+.c %.K 7X7X7X7X7X@.B.4X6X7X7X7X7X7X7X7X7X7X7X7X7X7X7X7X7X7X7X7X7X7X7X7X7X",
"7X7X7X7X7X7X7X7X1X:X:X<X7X7X7X7X7Xy.) p.!.w.Q R / 7X7X7X7X7X7X7Xo.7.;X,X7X7X7X7X7X7X7X7X7X7X7X7X7X7X7X7X7X7X7X7X7X7X7X7X",
"7X7X7X7X7X7X7X7X:X:X7X7X7X7X7X7XV.) ) g.W.#.~ / 7X7X7X7X7X7X7X7Xj h ;X:X7X7X7X7X7X7X7X7X7X7X7X7X7X7X7X7X7X7X7X7X7X7X7X7X",
"7X7X7X7X7X7X7X7X7X7X7X7X7X7X7X7X&Xp.r.R.H ^ M.7X7X7X7X7X7X7X7X7X; *.7X7X7X7X7X7X7X7X7X7X7X7X7X7X7X7X7X7X7X7X7X7X7X7X7X7X",
"7X7X7X7X7X7X7X7X7X7X7X7X7X7X7Xp.!.h.~.}.D &.7X7X7X7X7X7X7X7X7Xk e.7X7X7X7X7X7X7X7X7X7X7X7X7X7X7X7X7X7X7X7X7X7X7X7X7X7X7X",
"7X7X7X7X7X7X7X7X7X7X7X7X7X7Xi.E c !. XE.Z J 7X7X7X7X7X7X7X7X%.i 7X7X7X7X7X7X7X7X7X7X7X7X7X7X7X7X7X7X7X7X7X7X7X7X7X7X7X7X",
"7X7X7X7X7X7X7X7X7X7X7X7X7X7Xu.Z ].].oX.XL x #.7X7X7X7X7X7X7Xl 7X7X7X7X7X7X7X7X7X7X7X7X7X7X7X7X7X7X7X7X7X7X7X7X7X7X7X7X7X",
"7X7X7X7X7X7X7X7X7X7X7X7X7X7Xi.D [. X$X$X X/.x <.7X7X7X7X7Xi g 7X7X7X7X7X7X7X7X7X7X7X7X7X7X7X7X7X7X7X7X7X7X7X7X7X7X7X7X7X",
"7X7X7X7X7X7X7X7X7X7X7X7X7X7Xu.e E n ).+X%X#XR.&.7X7X7X7Xc f 7X7X7X7X7X7X7X7X7X7X7X7X7X7X7X7X7X7X7X7X7X7X7X7X7X7X7X7X7X7X",
"7X7X7X7X7X7X7X7X7X7X7X7X7X7Xi.Q ( Q x K `.`.|.b a.7X7X7Xl 7X7X7X7X7X7X7X7X7X7X7X7X7X7X7X7X7X7X7X7X7X7X7X7X7X7X7X7X7X7X7X",
"7X7X7X7X7X7X7X7X7X7X7X7X7X7Xa.( ) ^ Y b U.U.(.n E 7X7Xi %.7X7X7X7X7X7X7X7X7X7X7X7X7X7X7X7X7X7X7X7X7X7X7X7X7X7X7X7X7X7X7X",
"7X7X7X7X7X7X7X7X7X7X7X7X7X7X7Xu.) ( Y F G ;.).n E @.; k 7X7X7X7X7X7X7X7X7X7X7X7X7X7X7X7X7X7X7X7X7X7X7X7X7X7X7X7X7X7X7X7X",
"7X7X7X7X7X7X7X7X7Xc.c.7X7X7X7Xy.) ^ Y B V <.h.f.( e : 7X7X7X7X7X7X7X7X7X7X7X7X7X7X7X7X7X7X7X7X7X7X7X7X7X7X7X7X7X7X7X7X7X",
"7X7X7X7X7X7X7X7X7X) ) x.7X7X7Xy.) ^ W P.D ( e.h.<.E t.7X7X7X7X7X7X7X7X7X7X7X7X7X7X7X7X7X7X7X7X7X7X7X7X7X7X7X7X7X7X7X7X7X",
"7X7X7X7X7X7X7X7X7X/ E / ) ) / +.*.v F }.Q.#.1.^.p.Q r.7X7X7X7X7X7X7X7X7X7X7X7X7X7X7X7X7X7X7X7X7X7X7X7X7X7X7X7X7X7X7X7X7X",
"7X7X7X7X7X7X7X7X7Xa.E E Q Q / Z L Q.L Q.'.Z ( g.f.( Q 7X7X7X7X7X7X7X7X7X7X7X7X7X7X7X7X7X7X7X7X7X7X7X7X7X7X7X7X7X7X7X7X7X",
"7X7X7X7X7X7X7X7X7X7X#.E Q / E E Y Y Y v R.c T &.H 1.E #.7X7X7X7X7X7X7X7X7X7X7X7X7X7X7X7X7X7X7X7X7X7X7X7X7X7X7X7X7X7X7X7X",
"7X7X7X7X7X7X7X7X7X7X7X#.e E ^ ^ Q E e B !.D c E S b E Q 7X7X7X7X7X7X7X7X7X7X7X7X7X7X7X7X7X7X7X7X7X7X7X7X7X7X7X7X7X7X7X7X",
"7X7X7X7X7X7X7X7X7X7X7X7X#.R E E Q E E W B ).E.P.[.D e E d.7X7X7X7X7X7X7X7X7X7X7X7X7X7X7X7X7X7X7X7X7X7X7X7X7X7X7X7X7X7X7X",
"7X7X7X7X7X7X7X7X7X7X7X7X7X#.E R e e Q Q E W r n E.{.D S -X7X7X7X7X7X7X7X7X7X7X7X7X7X7X7X7X7X7X7X7X7X7X7X7X7X7X7X7X7X7X7X",
"7X7X7X7X7X7X7X7X7X7X7X7X7X7X#.E E E E / ( E Y Y x V P.(.=X7X7X7X7X7X7X7X7X7X7X7X7X7X7X7X7X7X7X7X7X7X7X7X7X7X7X7X7X7X7X7X",
"7X7X7X7X7X7X7X7X7X7X7X7X7X7X7X#.E e E / / / / ( ^ E E x W 7X7X7X7X7X7X7X7X7X7X7X7X7X7X7X7X7X7X7X7X7X7X7X7X7X7X7X7X7X7X7X",
"7X7X7X7X7X7X7X7X7X7X7X7X7X7X7X7X( E E e ^ ^ Q ^ ^ ^ E e E r.7X7X7X7X7X7X7X7X7X7X7X7X7X7X7X7X7X7X7X7X7X7X7X7X7X7X7X7X7X7X",
"7X7X7X7X7X7X7X7X7X7X7X7X7X7X7X7X7X7XQ E E E Q / / / ^ E e Q 7X7X7X7X7X7X7X7X7X7X7X7X7X7X7X7X7X7X7X7X7X7X7X7X7X7X7X7X7X7X",
"7X7X7X7X7X7X7X7X7X7X7X7X7X7X7X7X7X7X7X7X/ ~ ~ E E E E e e #.7X7X7X7X7X7X7X7X7X7X7X7X7X7X7X7X7X7X7X7X7X7X7X7X7X7X7X7X7X7X",
"7X7X7X7X7X7X7X7X7X7X7X7X7X7X7X7X7X7X7X7X7X7Xi.E Y e E Y ( 7X7X7X7X7X7X7X7X7X7X7X7X7X7X7X7X7X7X7X7X7X7X7X7X7X7X7X7X7X7X7X"
};
