/* XPM */
static char *result[] = {
/* columns rows colors chars-per-pixel */
"60 60 188 2 ",
"   c #1C060B",
".  c #1D0616",
"X  c #150F15",
"o  c #1B0B15",
"O  c #170E19",
"+  c #1B0D1E",
"@  c #111111",
"#  c #191315",
"$  c #1D1A12",
"%  c #161519",
"&  c #1B121C",
"*  c #1A181E",
"=  c #250B15",
"-  c #2B0A14",
";  c #250519",
":  c #260D1A",
">  c #2B0B1A",
",  c #330C1B",
"<  c #390D1B",
"1  c #231B14",
"2  c #2A101B",
"3  c #32111E",
"4  c #3A101D",
"5  c #1E0C22",
"6  c #141622",
"7  c #1C1A24",
"8  c #1C1A2B",
"9  c #1D1A30",
"0  c #240623",
"q  c #220A25",
"w  c #2B0923",
"e  c #25072C",
"r  c #28072E",
"t  c #240929",
"y  c #2A0A2C",
"u  c #340C21",
"i  c #3B0E20",
"p  c #350B2A",
"a  c #221022",
"s  c #2A1527",
"d  c #2F1729",
"f  c #221E2B",
"g  c #36192D",
"h  c #2B0732",
"j  c #2E0A32",
"k  c #310A36",
"l  c #360A3A",
"z  c #3A0B3D",
"x  c #241F31",
"c  c #1F202F",
"v  c #2B222B",
"b  c #33242A",
"n  c #39252E",
"m  c #262333",
"M  c #2A2234",
"N  c #27243C",
"B  c #2D253C",
"V  c #2F2B3E",
"C  c #362533",
"Z  c #30273E",
"A  c #352A3E",
"S  c #3B2C3E",
"D  c #550F1B",
"F  c #431A1E",
"G  c #690F1A",
"H  c #4D2C1A",
"J  c #562619",
"K  c #430D35",
"L  c #411330",
"P  c #411C3D",
"I  c #56212F",
"U  c #453624",
"Y  c #5A332F",
"T  c #452331",
"R  c #422C32",
"E  c #432D3C",
"W  c #46313E",
"Q  c #4A323C",
"!  c #5E3B37",
"~  c #553638",
"^  c #5C3D39",
"/  c #6C272C",
"(  c #6B3D2B",
")  c #613B36",
"_  c #6D3D35",
"`  c #71581A",
"'  c #55442E",
"]  c #5F4039",
"[  c #7B4626",
"{  c #7D452F",
"}  c #694739",
"|  c #734231",
" . c #774633",
".. c #7B4B33",
"X. c #7D543A",
"o. c #161B45",
"O. c #3E0B41",
"+. c #1D234E",
"@. c #232345",
"#. c #2C2542",
"$. c #2E2A45",
"%. c #25274D",
"&. c #29274B",
"*. c #302741",
"=. c #332A43",
"-. c #3A2D42",
";. c #342E4A",
":. c #343147",
">. c #3D3144",
",. c #35324A",
"<. c #39324D",
"1. c #2E2E53",
"2. c #242C59",
"3. c #343252",
"4. c #393451",
"5. c #3E3A56",
"6. c #38385B",
"7. c #333165",
"8. c #420B44",
"9. c #460B49",
"0. c #4B0C4D",
"q. c #481146",
"w. c #4E0B51",
"e. c #510C52",
"r. c #4B2740",
"t. c #4E3641",
"y. c #533844",
"u. c #423653",
"i. c #433C5A",
"p. c #493C5A",
"a. c #543A51",
"s. c #5D4B45",
"d. c #58425A",
"f. c #65434B",
"g. c #6B4E48",
"h. c #795242",
"j. c #6B4453",
"k. c #7C525A",
"l. c #4F426E",
"z. c #484175",
"x. c #564675",
"c. c #644663",
"v. c #644A67",
"b. c #794D68",
"n. c #77546F",
"m. c #861923",
"M. c #9F2327",
"N. c #884518",
"B. c #9C561F",
"V. c #BF5C1E",
"C. c #A6711E",
"Z. c #83452E",
"A. c #8B4D2E",
"S. c #9D4F26",
"D. c #8D522C",
"F. c #9A552B",
"G. c #985A2D",
"H. c #874D31",
"J. c #835131",
"K. c #885433",
"L. c #8E5638",
"P. c #905931",
"I. c #A65924",
"U. c #A45B29",
"Y. c #B75F23",
"T. c #A95A31",
"R. c #92672F",
"E. c #97613C",
"W. c #A6622C",
"Q. c #BB6827",
"!. c #A5752D",
"~. c #BF7026",
"^. c #B36C36",
"/. c #AA7431",
"(. c #C9631F",
"). c #D1641D",
"_. c #CD711F",
"`. c #C46C24",
"'. c #CD7323",
"]. c #D57C23",
"[. c #825341",
"{. c #89556B",
"}. c #8C5A7C",
"|. c #985F7E",
" X c #D18126",
".X c #CF873A",
"XX c #875C82",
"oX c #996184",
/* pixels */
"@ @ @ @ @ @ @ @ @ @ @ @ @ @ @ @ @ @ @ @ @ @ @ @ @ @ @ @ @ @ @ @ @ @ @ @ @ @ @ @ @ @ @ @ @ @ @ @ @ @ @ @ @ @ @ @ @ @ @ @ ",
"@ @ @ @ @ @ @ @ @ @ @ @ @ @ @ @ @ @ @ @ @ @ @ @ @ @ @ @ @ @ @ @ @ @ @ @ @ @ @ @ @ @ @ @ @ @ @ @ @ @ @ @ @ @ @ @ @ @ @ @ ",
"@ @ @ @ @ @ @ @ @ @ @ @ @ @ @ @ @ @ @ @ @ @ @ @ @ @ @ @ @ @ @ @ @ @ @ @ @ @ @ @ @ @ @ @ @ @ @ @ @ @ @ @ @ @ @ @ @ @ @ @ ",
"@ @ @ @ @ @ @ @ @ @ @ @ @ @ @ @ @ @ @ @ @ @ @ @ @ @ @ @ @ @ @ @ @ @ @ @ @ @ @ @ @ @ @ @ @ @ @ @ @ @ @ @ @ @ @ @ @ @ @ @ ",
"@ @ @ @ @ @ @ @ @ @ @ @ @ @ @ @ @ @ @ @ @ @ @ @ @ @ @ @ @ @ @ @ @ @ @ @ @ @ @ @ @ @ @ @ @ @ @ @ @ @ @ @ @ @ @ @ @ @ @ @ ",
"@ @ @ @ @ @ @ @ @ @ @ @ @ @ @ @ @ @ @ @ @ @ @ @ @ @ @ @ @ @ @ X @ @ @ @ @ @ @ @ a j @ @ @ @ @ @ @ @ @ @ @ @ @ @ @ @ @ @ ",
"@ @ @ @ @ @ @ @ @ @ @ @ @ @ @ @ @ @ @ @ @ @ @ @ @ @ @ @ @ @ @ z s X @ @ @ @ @ @ & z @ @ @ @ @ @ @ @ @ @ @ @ @ @ @ @ @ @ ",
"@ @ @ @ @ @ @ @ @ @ @ @ @ @ @ @ @ @ @ @ @ @ @ @ @ @ @ @ @ @ @ O a @ @ @ @ @ @ @ @ t @ @ @ @ @ @ @ @ @ @ @ @ @ @ @ @ @ @ ",
"@ @ @ @ @ @ @ @ @ @ @ @ @ @ @ @ @ @ @ @ @ @ @ @ @ @ @ @ @ @ @ @ @ @ @ @ @ @ @ @ @ @ @ @ @ & 5 @ @ @ @ @ @ @ @ @ @ @ @ @ ",
"@ @ @ @ @ @ @ @ @ @ @ @ @ @ @ @ @ @ @ @ @ @ @ @ @ @ @ @ @ @ @ @ @ @ @ @ @ @ @ @ @ @ @ @ @ * l a @ @ @ @ @ @ @ @ @ @ @ @ ",
"@ @ @ @ @ @ @ @ @ @ @ @ @ @ @ @ @ @ @ @ @ @ @ @ @ @ @ @ @ @ @ @ @ @ @ @ @ @ @ @ @ @ @ @ @ @ t z @ @ @ @ @ @ @ @ @ @ @ @ ",
"@ @ @ @ @ @ @ @ @ @ @ @ @ @ @ @ @ @ @ @ @ @ @ @ @ @ @ @ @ @ @ @ @ @ @ @ @ @ @ @ @ @ @ @ @ @ @ & @ @ @ @ @ @ @ @ @ @ @ @ ",
"@ @ @ @ @ @ @ @ @ @ @ @ @ @ @ @ @ @ @ @ @ @ @ @ @ @ @ @ @ @ @ @ @ @ @ @ & @ @ @ @ @ @ @ @ @ @ @ @ @ @ @ @ @ @ @ @ @ @ @ ",
"@ @ @ @ @ @ @ @ @ @ @ @ @ @ @ @ @ @ @ @ @ @ @ @ @ @ @ @ @ @ @ @ @ @ @ @ y l X & @ @ @ @ @ @ @ @ @ @ @ @ @ @ @ @ @ @ @ @ ",
"@ @ @ @ @ @ @ @ @ @ @ @ @ @ @ @ @ @ @ @ @ @ @ @ @ @ @ @ @ @ @ @ @ @ @ @ # q y z O @ @ @ @ @ @ @ @ @ @ @ @ @ @ @ @ @ @ @ ",
"@ @ @ @ @ @ @ @ @ @ @ @ @ @ @ @ @ @ @ @ @ @ @ @ @ @ @ @ @ @ @ @ @ @ @ a @ @ r k t + + 8.O.k : X @ @ @ @ @ @ @ @ @ @ @ @ ",
"@ @ @ @ @ @ @ @ @ @ @ @ @ @ @ @ @ @ @ @ @ @ @ @ @ @ @ @ @ @ @ @ @ @ @ k y & O e h h h 8.w.e.0.5 @ @ @ @ @ @ @ @ @ @ @ @ ",
"@ @ @ @ @ @ @ @ @ @ @ @ @ @ @ @ @ @ @ @ @ @ @ @ @ @ @ @ @ @ @ @ @ @ @ O t l + t h O.e e l 9.8.r + @ @ 3 # @ @ @ @ @ @ @ ",
"@ @ @ @ @ @ @ @ @ @ @ @ @ @ @ @ @ @ @ @ @ @ @ @ @ @ @ @ @ @ @ @ @ @ @ @ @ O.t h h 9.8.l h e r z 9.k & , # @ @ @ @ @ @ @ ",
"@ @ @ @ @ @ @ @ @ @ @ @ @ @ @ @ @ @ @ @ @ @ @ @ @ @ @ @ @ @ @ @ @ @ @ @ @ 9.l e h 9.e.w.0.l e h 9.K i : @ @ @ @ @ @ @ @ ",
"@ @ @ @ @ @ @ @ @ @ @ @ @ @ @ @ @ @ @ @ @ @ @ @ @ @ @ @ @ @ @ @ @ @ @ @ @ j 8.e h O.e.0.e.e.8.h p i 4 0 s @ @ @ @ @ @ @ ",
"@ @ @ @ @ @ @ @ @ @ @ @ @ @ @ @ @ @ @ @ @ @ @ @ @ @ @ @ @ @ @ @ @ @ @ O @ l 0.h r l e.0.0.0.e.e.K 4 i ; g @ @ @ @ @ @ @ ",
"@ @ @ @ @ @ @ @ @ @ @ @ @ @ @ @ @ @ @ @ @ @ @ @ @ @ @ @ @ @ @ @ @ @ O q s 0.w.j e h e.0.w.w.w.e.L i , e g @ @ @ @ @ @ @ ",
"@ @ @ @ @ @ @ @ @ @ @ @ @ @ @ @ @ @ @ @ @ @ @ @ @ @ @ @ @ @ @ @ @ @ @ @ l w.0.0.e h e.e.0.e.0.E T i , > 1 @ @ @ @ @ @ @ ",
"@ @ @ @ @ @ @ @ @ @ @ @ @ @ @ @ @ @ @ @ @ @ @ @ @ @ @ @ @ @ @ @ @ @ @ @ q 8.e.w.l e O.e.w.w.P Y I , < , s @ @ @ @ @ @ @ ",
"@ @ @ @ @ @ @ @ @ @ @ @ @ @ @ @ @ @ @ @ @ @ @ @ @ @ @ @ @ @ @ @ @ @ @ @ @ y w.w.9.e j w.0.P T M.G . = w t @ @ @ @ @ @ @ ",
"@ @ @ @ @ @ @ @ @ @ @ @ @ @ @ @ @ @ @ @ @ @ @ @ @ @ @ @ @ @ @ @ @ @ @ @ @ q k 8.8.e t h q.C / m.< = - w t @ @ @ @ @ @ @ ",
"@ @ @ @ @ @ @ @ @ @ @ @ @ @ @ @ @ @ @ @ @ @ @ @ @ @ @ @ @ @ @ @ @ @ @ @ @ @ 5 e h h h t w u D D = - w r + @ @ @ @ @ @ @ ",
"@ @ @ @ @ @ @ @ @ @ @ @ @ @ @ @ @ @ @ @ @ @ @ @ @ @ @ @ @ @ v @ @ @ @ @ @ @ @ t e e h e = - . . = t h e X @ @ @ @ @ @ @ ",
"@ @ @ @ @ @ @ @ @ @ @ @ @ @ @ @ @ @ @ @ @ @ @ @ @ @ @ @ @ V l.$.@ @ @ @ @ @ @ X r h h r w - = > > h 5 @ @ @ @ @ @ @ @ @ ",
"@ @ @ @ @ @ @ @ @ @ @ @ @ @ @ @ @ @ @ @ @ @ @ @ @ @ @ @ Z l.v.k.-.# @ @ @ @ @ @ 5 h e , , - > e h q X @ @ @ @ @ @ @ @ @ ",
"@ @ @ @ @ @ @ @ @ @ @ @ @ @ @ @ @ @ @ @ @ @ @ @ @ @ @ v x.z.L.(.( @ @ @ @ @ @ @ X t i - ; 0 e e 5 X @ @ @ @ @ @ @ @ @ @ ",
"@ @ @ @ @ @ @ @ @ @ @ @ @ @ @ @ @ @ @ @ # # % % $ @ % i.x.v.T.).J 1 # % @ @ @ @ @ : - # q t @ O @ @ @ @ @ @ @ @ @ @ @ @ ",
"@ @ @ @ @ @ @ @ @ @ @ @ @ @ @ @ @ @ @ Z i.5.u.s.R.[ >.7.z.k.~. XF ` U * @ @ @ @ # = @ @ @ @ @ @ @ @ @ @ @ @ @ @ @ @ @ @ ",
"@ @ @ @ @ @ @ @ @ @ @ @ @ @ @ @ @ @ $.p.u.=.;.4.d.^.~.E.v.d.Y I.B.!.' ,.@ @ @ @ = = @ @ @ @ @ @ @ @ @ @ @ @ @ @ @ @ @ @ ",
"@ @ @ @ @ @ @ @ @ @ @ @ @ @ @ @ @ m 5.<.Z m 7 m &.f.'. X/.] n.-.C.Q @.;.;.@ @ = : @ @ @ @ @ @ @ @ @ @ @ @ @ @ @ @ @ @ @ ",
"@ @ @ @ @ @ @ @ @ @ @ @ @ @ @ @ @ ,.<.=.M % @ * B #.S H.]. X.X/._.v m Z 5.6 Q   X @ @ @ @ @ @ @ @ @ @ @ @ @ @ @ @ @ @ @ ",
"@ @ @ @ @ @ @ @ @ @ @ @ @ @ @ @ E XXu.M % @ @ 7 =.) A.F...G.Y.Y.N.@ @ Z =.n.}.E @ @ @ @ @ @ @ @ @ @ @ @ @ @ @ @ @ @ @ @ ",
"@ @ @ @ @ @ @ @ @ @ @ @ @ @ @ @ }.oXc.* @ @ @ c y.F.Q =.#.Z 8 H 1 @ @ M a.|.oX}.@ @ @ @ @ @ @ @ @ @ @ @ @ @ @ @ @ @ @ @ ",
"@ @ @ @ @ @ @ @ @ @ @ @ @ @ @ f.{.j.b @ @ @ 7 $.{ K.@.B =.f @ @ @ @ @ a g b.{.j.@ @ @ @ @ @ @ @ @ @ @ @ @ @ @ @ @ @ @ @ ",
"@ @ @ @ @ @ @ @ @ @ @ @ @ @ @ 1 f.# @ @ @ * >.E.Q._ @.#.9 @ @ @ @ @ @ =   n b # @ @ @ @ @ @ @ @ @ @ @ @ @ @ @ @ @ @ @ @ ",
"@ @ @ @ @ @ @ @ @ @ @ @ @ @ @ @ @ @ @ @ % N Q `.S.=.#.' $ @ @ @ @ @ @ 2 X @ @ @ @ @ @ @ @ @ @ @ @ @ @ @ @ @ @ @ @ @ @ @ ",
"@ @ @ @ @ @ @ @ @ @ @ @ @ @ @ @ @ @ @ @ 7 *.-.K.U.#.} U @ @ @ @ @ @ : 3 @ @ @ @ @ @ @ @ @ @ @ @ @ @ @ @ @ @ @ @ @ @ @ @ ",
"@ @ @ @ @ @ @ @ @ @ @ @ @ @ @ @ @ @ @ @ m -.!.!.'.Q.} @.8 @ @ @ @ @ , o @ @ @ @ @ @ @ @ @ @ @ @ @ @ @ @ @ @ @ @ @ @ @ @ ",
"@ @ @ @ @ @ @ @ @ @ @ @ @ @ @ @ @ @ @ % #.-.D.U.'.`.'.K.$.7 @ @ # 4 = @ @ @ @ @ @ @ @ @ @ @ @ @ @ @ @ @ @ @ @ @ @ @ @ @ ",
"@ @ @ @ @ @ @ @ @ @ @ @ @ @ @ @ @ @ @ % *.=.+.=.F.V.`.U.W 8 @ @ , = @ @ @ @ @ @ @ @ @ @ @ @ @ @ @ @ @ @ @ @ @ @ @ @ @ @ ",
"@ @ @ @ @ @ @ @ @ @ @ @ @ @ @ @ @ @ @ % #.=.i.%.^ G.Z.I.E m # - - @ @ @ @ @ @ @ @ @ @ @ @ @ @ @ @ @ @ @ @ @ @ @ @ @ @ @ ",
"@ @ @ @ @ @ @ @ @ @ @ @ @ @ @ @ m m * @ =.=.i.%.~ h.r.A.t.N d , # @ @ @ @ @ @ @ @ @ @ @ @ @ @ @ @ @ @ @ @ @ @ @ @ @ @ @ ",
"@ @ @ @ @ @ @ @ @ @ @ @ @ @ @ @ ,.5.:.* B =.6.;.{ [.2.} g.1.d = @ @ @ @ @ @ @ @ @ @ @ @ @ @ @ @ @ @ @ @ @ @ @ @ @ @ @ @ ",
"@ @ @ @ @ @ @ @ @ @ @ @ @ @ @ @ :.,.5.:.=.=.3.^ _.X.2.X.g.1.M @ @ @ @ @ @ @ @ @ @ @ @ @ @ @ @ @ @ @ @ @ @ @ @ @ @ @ @ @ ",
"@ @ @ @ @ @ @ @ @ @ @ @ @ @ @ @ c V :.<.3.>.J.J.K.P.>.-.H.a.&.m @ @ @ @ @ @ @ @ @ @ @ @ @ @ @ @ @ @ @ @ @ @ @ @ @ @ @ @ ",
"@ @ @ @ @ @ @ @ @ @ @ @ @ @ @ @ @ c A ,.4.>.^ >.} W.-.o.~ ) ;.Z * @ @ @ @ @ @ @ @ @ @ @ @ @ @ @ @ @ @ @ @ @ @ @ @ @ @ @ ",
"@ @ @ @ @ @ @ @ @ @ @ @ @ @ @ @ @ @ M =.;.;.&.o.~ I.F...~ ) =.@.7 @ @ @ @ @ @ @ @ @ @ @ @ @ @ @ @ @ @ @ @ @ @ @ @ @ @ @ ",
"@ @ @ @ @ @ @ @ @ @ @ @ @ @ @ @ @ @ % M =.=.=.=.=.Q  .) K.U.! W R # @ @ @ @ @ @ @ @ @ @ @ @ @ @ @ @ @ @ @ @ @ @ @ @ @ @ ",
"@ @ @ @ @ @ @ @ @ @ @ @ @ @ @ @ @ @ @ % m Z Z =.4.1.#.#.S | { _  .1 @ @ @ @ @ @ @ @ @ @ @ @ @ @ @ @ @ @ @ @ @ @ @ @ @ @ ",
"@ @ @ @ @ @ @ @ @ @ @ @ @ @ @ @ @ @ @ @ # m =.Z ;.4.;.4.;.=.S =.=.% @ @ @ @ @ @ @ @ @ @ @ @ @ @ @ @ @ @ @ @ @ @ @ @ @ @ ",
"@ @ @ @ @ @ @ @ @ @ @ @ @ @ @ @ @ @ @ @ @ @ x =.Z =.<.4.4.;.=.#.$.% @ @ @ @ @ @ @ @ @ @ @ @ @ @ @ @ @ @ @ @ @ @ @ @ @ @ ",
"@ @ @ @ @ @ @ @ @ @ @ @ @ @ @ @ @ @ @ @ @ @ @ f *.*.=.<.<.<.;.*.=.% @ @ @ @ @ @ @ @ @ @ @ @ @ @ @ @ @ @ @ @ @ @ @ @ @ @ ",
"@ @ @ @ @ @ @ @ @ @ @ @ @ @ @ @ @ @ @ @ @ @ @ @ 6 f B =.*.*.A *.=.% @ @ @ @ @ @ @ @ @ @ @ @ @ @ @ @ @ @ @ @ @ @ @ @ @ @ ",
"@ @ @ @ @ @ @ @ @ @ @ @ @ @ @ @ @ @ @ @ @ @ @ @ @ @ % f B B Z Z f @ @ @ @ @ @ @ @ @ @ @ @ @ @ @ @ @ @ @ @ @ @ @ @ @ @ @ "
};
