/* XPM */
static char *result[] = {
/* columns rows colors chars-per-pixel */
"60 60 196 2 ",
"   c #BE2123",
".  c #BE2427",
"X  c #BB2A2C",
"o  c #CD0000",
"O  c #CD0001",
"+  c #CE0001",
"@  c #CD0002",
"#  c #CE0002",
"$  c #CE0003",
"%  c #CE0103",
"&  c #CC0005",
"*  c #CE0004",
"=  c #CE0104",
"-  c #CE0105",
";  c #CE0205",
":  c #CE0206",
">  c #CE0207",
",  c #CF0207",
"<  c #CE0307",
"1  c #CF0307",
"2  c #CE0407",
"3  c #CE0507",
"4  c #CB0009",
"5  c #CB0109",
"6  c #C9000A",
"7  c #CB000A",
"8  c #CD0108",
"9  c #CC0109",
"0  c #CC0209",
"q  c #CD0209",
"w  c #CD0309",
"e  c #CE0308",
"r  c #CF0308",
"t  c #CC010A",
"y  c #CC020A",
"u  c #C90509",
"i  c #CD0409",
"p  c #CE0408",
"a  c #CF0408",
"s  c #CE0508",
"d  c #CE0409",
"f  c #CE0509",
"g  c #CE0609",
"h  c #CF0709",
"j  c #CE050A",
"k  c #CD060A",
"l  c #CC070B",
"z  c #CD070B",
"x  c #CE060A",
"c  c #CE070B",
"v  c #CB050C",
"b  c #CC060C",
"n  c #CB090D",
"m  c #CB0B0F",
"M  c #CC080C",
"N  c #CD080C",
"B  c #CC090C",
"V  c #CF080C",
"C  c #CC0A0D",
"Z  c #CE0A0E",
"A  c #CF0B0F",
"S  c #D10003",
"D  c #D00105",
"F  c #D30D07",
"G  c #D30E07",
"H  c #D00908",
"J  c #D00809",
"K  c #D00909",
"L  c #D10909",
"P  c #D10B09",
"I  c #D10C08",
"U  c #D20D08",
"Y  c #D30D08",
"T  c #D30F08",
"R  c #D40F08",
"E  c #D61407",
"W  c #D71507",
"Q  c #D71707",
"!  c #D81707",
"~  c #D91907",
"^  c #D91A07",
"/  c #DA1B07",
"(  c #DB1B07",
")  c #DB1C06",
"_  c #DA1C07",
"`  c #DB1C07",
"'  c #DB1D07",
"]  c #DC1E06",
"[  c #DC1E07",
"{  c #DC1F07",
"}  c #D41108",
"|  c #D61508",
" . c #CA0D10",
".. c #CA0D11",
"X. c #C90F12",
"o. c #CD0D11",
"O. c #CE0C10",
"+. c #CF0D10",
"@. c #CE0E11",
"#. c #C81114",
"$. c #C81115",
"%. c #CF1115",
"&. c #CE1216",
"*. c #CF1316",
"=. c #CF1317",
"-. c #CF1417",
";. c #C4161A",
":. c #C5171A",
">. c #C4171B",
",. c #C5171B",
"<. c #C4171C",
"1. c #CB1518",
"2. c #C4181B",
"3. c #C31A1D",
"4. c #C21B1E",
"5. c #C4191C",
"6. c #C11C1F",
"7. c #DD2006",
"8. c #DC2007",
"9. c #DE2406",
"0. c #DF2406",
"q. c #DF2506",
"w. c #E02605",
"e. c #E02606",
"r. c #E22905",
"t. c #E32B05",
"y. c #E12806",
"u. c #E32A06",
"i. c #E42D05",
"p. c #E42E05",
"a. c #E52E05",
"s. c #E52F05",
"d. c #E53005",
"f. c #E63105",
"g. c #E73304",
"h. c #E73404",
"j. c #E83504",
"k. c #E93604",
"l. c #E93704",
"z. c #EA3704",
"x. c #EA3804",
"c. c #EA3A04",
"v. c #EC3B04",
"b. c #EC3D04",
"n. c #EE3E04",
"m. c #D01E22",
"M. c #D22B2F",
"N. c #C63A3D",
"B. c #D03234",
"V. c #D63437",
"C. c #D13538",
"Z. c #EE4003",
"A. c #F04103",
"S. c #F04203",
"D. c #F14602",
"F. c #F24703",
"G. c #F34A02",
"H. c #F44902",
"J. c #F44B02",
"K. c #F54C01",
"L. c #F54C02",
"P. c #F64C02",
"I. c #F75002",
"U. c #F75102",
"Y. c #F85101",
"T. c #F95201",
"R. c #F85301",
"E. c #F95301",
"W. c #F85002",
"Q. c #FA5501",
"!. c #FB5700",
"~. c #FA5601",
"^. c #FB5601",
"/. c #FB5701",
"(. c #FB5801",
"). c #FC5800",
"_. c #FC5900",
"`. c #FD5901",
"'. c #FC5A00",
"]. c #FD5A00",
"[. c #FD5B00",
"{. c #FC5A01",
"}. c #FD5A01",
"|. c #FD5C00",
" X c #FD5D00",
".X c #FF5E00",
"XX c #FE5F00",
"oX c #FF5F00",
"OX c #FF6000",
"+X c #FF6100",
"@X c #FF6200",
"#X c #FF6300",
"$X c #FF6400",
"%X c #FF6500",
"&X c #D23E41",
"*X c None",
/* pixels */
"*X*X*X*X*X*X*X*X*X*X*X*X*X*X*X*X*X*X*X*X*X*X*X*X*X*X*X*X*X*X*X*X*X*X*X*X*X*X*X*X*X*X*X*X*X*X*X*X*X*X*X*X*X*X*X*X*X*X*X*X",
"*X*X*X*X*X*X*X*X*X*X*X*X*X*X*X*X*X*X*X*X*X*X*X*X*X*X*X*X*X*X*X*X*X*X*X*X*X*X*X*X*X*X*X*X*X*X*X*X*X*X*X*X*X*X*X*X*X*X*X*X",
"*X*X*X*X*X*X*X*X*X*X*X*X*X*X*X*X*X*X*X*X*X*X*X*X*X*X*X*X*X*X*X*X*X*X*X*X*X*X*X*X*X*X*X*X*X*X*X*X*X*X*X*X*X*X*X*X*X*X*X*X",
"*X*X*X*X*X*X*X*X*X*X*X*X*X*X*X*X*X*X*X*X*X*X*X*X*X*X*X*X*X*X*X*X*X*X*X*X*X*X*X*X*X*X*X*X*X*X*X*X*X*X*X*X*X*X*X*X*X*X*X*X",
"*X*X*X*X*X*X*X*X*X*X*X*X*X*X*X*X*X*X*X*X*X*X*X*X*X*X*X*X*X*X*X*X*X*X*X*X*X*X*X*X*X*X*X*X*X*X*X*X*X*X*X*X*X*X*X*X*X*X*X*X",
"*X*X*X*X*X*X*X*X*X*X*X*X*X*X*X*X*X*X*X*X*X*X*X*X*X*X*X*X*X*X*X*X*X*X*X*X*X*X*X*X*X*X*X*X*X*X*X*X*X*X*X*X*X*X*X*X*X*X*X*X",
"*X*X*X*X*X*X*X*X*X*X*X*X*X*X*X*X*X*X*X*X*X*X*X*X*X*X*X*X*X*X*X*X*X*X*X*X*X*X*X*X*X*X*X*X*X*X*X*X*X*X*X*X*X*X*X*X*X*X*X*X",
"*X*X*X*X*X*X*X*X*X*X*X*X*X*X*X*X*X*X*X*X*X*X*X*X*X*X*X*X*X*X*X*X*X*X*X*X*X*X*X*X*X*X*X*X*X*X*X*X*X*X*X*X*X*X*X*X*X*X*X*X",
"*X*X*X*X*X*X*X*X*X*X*X*X*X*X*X*X*X*X*X*X*X*X*X*X*X*X*X*X*X*X*X*X*X*X*X*X*X*X*X*X*X*X*X*X*X*X*X*X*X*X*X*X*X*X*X*X*X*X*X*X",
"*X*X*X*X*X*X*X*X*X*X*X*X*X*X*X*X*X*X*X*X*X*X*X*X*X*X*X*X*X*X*X*X*X*X*X*X*X*X*X*X*X*X*X*X*X*X*X*X*X*X*X*X*X*X*X*X*X*X*X*X",
"*X*X*X*X*X*X*X*X*X*X*X*X*X*X*X*X*X*X*X*X*X*X*X*X*X*X*X*X*X*X*X*X*X*X*X*X*X*X*X*X*X*X*X*X*X*X*X*X*X*X*X*X*X*X*X*X*X*X*X*X",
"*X*X*X*X*X*X*X*X*X*X*X*X*X*X*X*X*X*X*X*X*X*X*X*X*X*X*X*X*X*X*X*X*X*X*X*X*X*X*X*X*X*X*X*X*X*X*X*X*X*X*X*X*X*X*X*X*X*X*X*X",
"*X*X*X*X*X*X*X*X*X*X*X*X*X*X*X*X*X*X*X*X*X*X*X*X*X*X*X*X*X*X*X*X*X*X*X*X*X*X*X*X*X*X*X*X*X*X*X*X*X*X*X*X*X*X*X*X*X*X*X*X",
"*X*X*X*X*X*X*X*X*X*X*X*X*X*X*X*X*X*X*X*X*X*X*X*X*X*X*X*X*X*X*X*X*X*X*X*X*X*X*X*X*X*X*X*X*X*X*X*X*X*X*X*X*X*X*X*X*X*X*X*X",
"*X*X*X*X*X*X*X*X*X*X*X*X*X*X*X*X*X*X*X*X*X*X*X*X*X*X*X*X*X*X*X*X*X*X*X*X*X*X*X*X*X*X*X*X*X*X*X*X*X*X*X*X*X*X*X*X*X*X*X*X",
"*X*X*X*X*X*X*X*X*X*X*X*X*X*X*X*X*X*X*X*X*X*X*X*X*X*X*X*X*X*X*X*X*X*X*X*X*X*X*X*X*X*X*X*X*X*X*X*X*X*X*X*X*X*X*X*X*X*X*X*X",
"*X*X*X*X*X*X*X*X*X*X*X*X*X*X*X*X*X*X*X*X*X*Xz % V.*X*X*X*X*X*X*X*X*X*X*X*X*X*X*X*X*X*X*X*X*X*X*X*X*X*X*X*X*X*X*X*X*X*X*X",
"*X*X*X*X*X*X*X*X*X*X*X*X*X*X*X*X*X*X*X*X*X*X*X*Xu * Z *X*X*X*X*X*X*X*X*X*X6.*X*X*X*X*X*X*X*X*X*X*X*X*X*X*X*X*X*X*X*X*X*X",
"*X*X*X*X*X*X*X*X*X*X*X*X*X*X*X*X*X*X*X*X*X*X*X*Xm a p @ p c *X*X*Xn *X*X*X  + *X*X*X*X*X*X*X*X*X*X*X*X*X*X*X*X*X*X*X*X*X",
"*X*X*X*X*X*X*X*X*X*X*X*X*X*X*X*X*X*X*X*X*X*X*X2.N f f f i q & b v d 2 M.*X..# C.*X*X*X*X*X*X*X*X*X*X*X*X*X*X*X*X*X*X*X*X",
"*X*X*X*X*X*X*X*X*X*X*X*X*X*X*X*X*X*X*X*X*X*X .f p i 9 9 J T G F G d y @ 1 a ; %.*X*X*X*X*X*X*X*X*X*X*X*X*X*X*X*X*X*X*X*X",
"*X*X*X*X*X*X*X*X*X*X*X*X*X*X*X*X*X*X*X*X*X. D f 0 K [ f.J.(.^././.Z.! w f f f o *X*X*X*X*X*X*X*X*X*X*X*X*X*X*X*X*X*X*X*X",
"*X*X*X*X*X*X*X*X*X*X*X*X*X*X*X*X*X*X*X*X*Xf f 0 } G.OX@X+XOXOXOXOX#X{.^ w f f o *X*X*X*X*X*X*X*X*X*X*X*X*X*X*X*X*X*X*X*X",
"*X*X*X*X*X*X*X*X*X*X*X*X*X*X*X*X*X*X*X*X>.a w I K.$XoX.X.X.X.X.X.XOX Xe.q f f o *X*X*X*X*X*X*X*X*X*X*X*X*X*X*X*X*X*X*X*X",
"*X*X*X*X*X*X*X*X*X*X*X*X*X*X*X*X*X*X*X*X<.e 9 p.@X.X.X.X.X.X.X.X.X#Xi.9 f f f o *X*X*X*X*X*X*X*X*X*X*X*X*X*X*X*X*X*X*X*X",
"*X*X*X*X*X*X*X*X*X*X*X*X*X*X*X*X*X*X*X*XX.q Y Y.OX.X.X.X.X.X.XoX#XF.L w f f < 3 *X*X*X*X*X*X*X*X*X*X*X*X*X*X*X*X*X*X*X*X",
"*X*X*X*X*X*X*X*X*X*X*X*X*X*X*X*X*X*X*X4.a 9 0.oX.X.X.X.X.X.XOXW.b.Y q f f f : *.*X*X*X*X*X*X*X*X*X*X*X*X*X*X*X*X*X*X*X*X",
"*X*X*X*X*X*X*X*X*X*X*X*X*X*X*X*X*X*X*X;.r 9 l.@X.X.X.X.XoXOX+Xu.q w f f f f - m.*X*X*X*X*X*X*X*X*X*X*X*X*X*X*X*X*X*X*X*X",
"*X*X*X*X*X*X*X*X*X*X*X*X*X*X*X*X*X*X*X>.r 9 k.@X.X.XoX+XOXXX@X9.4 f w d f f ; *X*X*X*X*X*X*X*X*X*X*X*X*X*X*X*X*X*X*X*X*X",
"*X*X*X*X*X*X*X*X*X*X*X*X*X*X*X*X*X*X*X:.r 9 x.%XoXoX[.J.y./ T.k.9 q T P d p O *X*X*X*X*X*X*X*X*X*X*X*X*X*X*X*X*X*X*X*X*X",
"*X*X*X*X*X*X*X*X*X*X*X*X*X*X*X*X*X*X*X*Xz 8 ( U.oX_.[ g 9 4 A.).| ] ~.8.9 f $ &X*X*X*X*X*X*X*X*X*X*X*X*X*X*X*X*X*X*X*X*X",
"*X*X*X*X*X*X*X*X*X*X*X*X*X*X*X*X*X*X*X*X*Xj q L H.#X0.6 4 4 S.@X}.@XP.P w f : =.*X*X*X*X*X*X*X*X*X*X*X*X*X*X*X*X*X*X*X*X",
"*X*X*X*X*X*X*X*X*X*X*X*X*X*X*X*X*X*X*X*X*XX D 5 ] I.Q.c.x.b.).#X_.j.W q f f : *.*X*X*X*X*X*X*X*X*X*X*X*X*X*X*X*X*X*X*X*X",
"*X*X*X*X*X*X*X*X*X*X*X*X*X*X*X*X*X*X*X*X*X3.1 q E { D.$X#X#X+XR.q.z.) 9 f f : -.*X*X*X*X*X*X*X*X*X*X*X*X*X*X*X*X*X*X*X*X",
"*X*X*X*X*X*X*X*X*X*X*X*X*X*X*X*X*X*X*X*X5.j d i T _ 7.].oXoX|.~ W +Xh.0 f f : -.*X*X*X*X*X*X*X*X*X*X*X*X*X*X*X*X*X*X*X*X",
"*X*X*X*X*X*X*X*X*X*X*X*X*X*X*X*X*X*X*X*X$., f f 9 s.!.OX+X$X`.H H (.n.0 f f : @.*X*X*X*X*X*X*X*X*X*X*X*X*X*X*X*X*X*X*X*X",
"*X*X*X*X*X*X*X*X*X*X*X*X*X*X*X*X*X*X*X*Xk : f f q R ]. XL.a.a.! x.#Xd.0 f f O *X*X*X*X*X*X*X*X*X*X*X*X*X*X*X*X*X*X*X*X*X",
"*X*X*X*X*X*X*X*X*X*X*X*X*X*X*X*X*X*X*X*X+.o.p f d J g.' J J ` '.~.t.h d f O B.*X*X*X*X*X*X*X*X*X*X*X*X*X*X*X*X*X*X*X*X*X",
"*X*X*X*X*X*X*X*X*X*X*X*X*X*X*X*X*X*X*X*X*XN.$ f f w U y.w.E.E.v.R 4 d s x @.*X*X*X*X*X*X*X*X*X*X*X*X*X*X*X*X*X*X*X*X*X*X",
"*X*X*X*X*X*X*X*X*X*X*X*X*X*X*X*X*X*X*X*X*X*X,.p d d h r.x.j.Q 0 w f f : &.*X*X*X*X*X*X*X*X*X*X*X*X*X*X*X*X*X*X*X*X*X*X*X",
"*X*X*X*X*X*X*X*X*X*X*X*X*X*X*X*X*X*X*X*X*X*X*X*XM S p 0 t 7 0 > f f : o *X*X*X*X*X*X*X*X*X*X*X*X*X*X*X*X*X*X*X*X*X*X*X*X",
"*X*X*X*X*X*X*X*X*X*X*X*X*X*X*X*X*X*X*X*X*X*X*X*X*X*X$.1 f p V 1.l = O.*X*X*X*X*X*X*X*X*X*X*X*X*X*X*X*X*X*X*X*X*X*X*X*X*X",
"*X*X*X*X*X*X*X*X*X*X*X*X*X*X*X*X*X*X*X*X*X*X*X*X*X*X*X#.g z A *X*X*X*X*X*X*X*X*X*X*X*X*X*X*X*X*X*X*X*X*X*X*X*X*X*X*X*X*X",
"*X*X*X*X*X*X*X*X*X*X*X*X*X*X*X*X*X*X*X*X*X*X*X*X*X*X*X*X*X*X*XC B *X*X*X*X*X*X*X*X*X*X*X*X*X*X*X*X*X*X*X*X*X*X*X*X*X*X*X",
"*X*X*X*X*X*X*X*X*X*X*X*X*X*X*X*X*X*X*X*X*X*X*X*X*X*X*X*X*X*X*X*X*X*X*X*X*X*X*X*X*X*X*X*X*X*X*X*X*X*X*X*X*X*X*X*X*X*X*X*X",
"*X*X*X*X*X*X*X*X*X*X*X*X*X*X*X*X*X*X*X*X*X*X*X*X*X*X*X*X*X*X*X*X*X*X*X*X*X*X*X*X*X*X*X*X*X*X*X*X*X*X*X*X*X*X*X*X*X*X*X*X",
"*X*X*X*X*X*X*X*X*X*X*X*X*X*X*X*X*X*X*X*X*X*X*X*X*X*X*X*X*X*X*X*X*X*X*X*X*X*X*X*X*X*X*X*X*X*X*X*X*X*X*X*X*X*X*X*X*X*X*X*X",
"*X*X*X*X*X*X*X*X*X*X*X*X*X*X*X*X*X*X*X*X*X*X*X*X*X*X*X*X*X*X*X*X*X*X*X*X*X*X*X*X*X*X*X*X*X*X*X*X*X*X*X*X*X*X*X*X*X*X*X*X",
"*X*X*X*X*X*X*X*X*X*X*X*X*X*X*X*X*X*X*X*X*X*X*X*X*X*X*X*X*X*X*X*X*X*X*X*X*X*X*X*X*X*X*X*X*X*X*X*X*X*X*X*X*X*X*X*X*X*X*X*X",
"*X*X*X*X*X*X*X*X*X*X*X*X*X*X*X*X*X*X*X*X*X*X*X*X*X*X*X*X*X*X*X*X*X*X*X*X*X*X*X*X*X*X*X*X*X*X*X*X*X*X*X*X*X*X*X*X*X*X*X*X",
"*X*X*X*X*X*X*X*X*X*X*X*X*X*X*X*X*X*X*X*X*X*X*X*X*X*X*X*X*X*X*X*X*X*X*X*X*X*X*X*X*X*X*X*X*X*X*X*X*X*X*X*X*X*X*X*X*X*X*X*X",
"*X*X*X*X*X*X*X*X*X*X*X*X*X*X*X*X*X*X*X*X*X*X*X*X*X*X*X*X*X*X*X*X*X*X*X*X*X*X*X*X*X*X*X*X*X*X*X*X*X*X*X*X*X*X*X*X*X*X*X*X",
"*X*X*X*X*X*X*X*X*X*X*X*X*X*X*X*X*X*X*X*X*X*X*X*X*X*X*X*X*X*X*X*X*X*X*X*X*X*X*X*X*X*X*X*X*X*X*X*X*X*X*X*X*X*X*X*X*X*X*X*X",
"*X*X*X*X*X*X*X*X*X*X*X*X*X*X*X*X*X*X*X*X*X*X*X*X*X*X*X*X*X*X*X*X*X*X*X*X*X*X*X*X*X*X*X*X*X*X*X*X*X*X*X*X*X*X*X*X*X*X*X*X",
"*X*X*X*X*X*X*X*X*X*X*X*X*X*X*X*X*X*X*X*X*X*X*X*X*X*X*X*X*X*X*X*X*X*X*X*X*X*X*X*X*X*X*X*X*X*X*X*X*X*X*X*X*X*X*X*X*X*X*X*X",
"*X*X*X*X*X*X*X*X*X*X*X*X*X*X*X*X*X*X*X*X*X*X*X*X*X*X*X*X*X*X*X*X*X*X*X*X*X*X*X*X*X*X*X*X*X*X*X*X*X*X*X*X*X*X*X*X*X*X*X*X",
"*X*X*X*X*X*X*X*X*X*X*X*X*X*X*X*X*X*X*X*X*X*X*X*X*X*X*X*X*X*X*X*X*X*X*X*X*X*X*X*X*X*X*X*X*X*X*X*X*X*X*X*X*X*X*X*X*X*X*X*X",
"*X*X*X*X*X*X*X*X*X*X*X*X*X*X*X*X*X*X*X*X*X*X*X*X*X*X*X*X*X*X*X*X*X*X*X*X*X*X*X*X*X*X*X*X*X*X*X*X*X*X*X*X*X*X*X*X*X*X*X*X",
"*X*X*X*X*X*X*X*X*X*X*X*X*X*X*X*X*X*X*X*X*X*X*X*X*X*X*X*X*X*X*X*X*X*X*X*X*X*X*X*X*X*X*X*X*X*X*X*X*X*X*X*X*X*X*X*X*X*X*X*X",
"*X*X*X*X*X*X*X*X*X*X*X*X*X*X*X*X*X*X*X*X*X*X*X*X*X*X*X*X*X*X*X*X*X*X*X*X*X*X*X*X*X*X*X*X*X*X*X*X*X*X*X*X*X*X*X*X*X*X*X*X"
};
