/* XPM */
static char *result[] = {
/* columns rows colors chars-per-pixel */
"60 60 218 2 ",
"   c #B80614",
".  c #BD1E1E",
"X  c #97002F",
"o  c #940030",
"O  c #B81921",
"+  c #B12629",
"@  c #BD3336",
"#  c #BD3537",
"$  c #BC393B",
"%  c #BE3C3F",
"&  c #CF0000",
"*  c #CF0001",
"=  c #CF0002",
"-  c #CF0102",
";  c #CF0004",
":  c #CF0104",
">  c #CD0007",
",  c #CD0107",
"<  c #CE0107",
"1  c #CE0206",
"2  c #CF0206",
"3  c #CE0207",
"4  c #CE0307",
"5  c #CF0307",
"6  c #CB0008",
"7  c #CB0009",
"8  c #CC0009",
"9  c #CC0109",
"0  c #CC0209",
"q  c #CD0209",
"w  c #CD0309",
"e  c #CE0308",
"r  c #CE0309",
"t  c #CD0409",
"y  c #CE0408",
"u  c #CF0408",
"i  c #CE0409",
"p  c #CE0509",
"a  c #CE0609",
"s  c #CE040A",
"d  c #CD070A",
"f  c #CE060A",
"g  c #CE070A",
"h  c #CD070C",
"j  c #CF0B09",
"k  c #CD090D",
"l  c #CF090D",
"z  c #CD0A0E",
"x  c #CC0B0F",
"c  c #CE0B0F",
"v  c #D00000",
"b  c #D10000",
"n  c #D00001",
"m  c #D20000",
"M  c #D20001",
"N  c #D30001",
"B  c #D00003",
"V  c #D10003",
"C  c #D40000",
"Z  c #D00004",
"A  c #D00809",
"S  c #D10A09",
"D  c #D20D08",
"F  c #D20E08",
"G  c #D30E08",
"H  c #D10C0A",
"J  c #D51005",
"K  c #D61307",
"L  c #D61F07",
"P  c #DF1E03",
"I  c #D91807",
"U  c #DA1807",
"Y  c #DA1A07",
"T  c #D91C07",
"R  c #DB1E07",
"E  c #D41008",
"W  c #D41108",
"Q  c #D41208",
"!  c #D61308",
"~  c #D61408",
"^  c #D41709",
"/  c #CB0A10",
"(  c #CA0F13",
")  c #CE0F13",
"_  c #C91216",
"`  c #C91317",
"'  c #CD1014",
"]  c #CD1114",
"[  c #CD1317",
"{  c #C61118",
"}  c #C6171A",
"|  c #C81518",
" . c #CD171B",
".. c #C61C1F",
"X. c #C8181B",
"o. c #CC1C1F",
"O. c #D4260F",
"+. c #DD3006",
"@. c #DC340D",
"#. c #DE3A0C",
"$. c #C62719",
"%. c #C1211C",
"&. c #C82A1A",
"*. c #D13315",
"=. c #D83A12",
"-. c #E02605",
";. c #E02406",
":. c #E12E03",
">. c #E02A05",
",. c #E42C04",
"<. c #E52D05",
"1. c #E52E05",
"2. c #EB2A00",
"3. c #E43105",
"4. c #EB3603",
"5. c #E83404",
"6. c #E93504",
"7. c #E93604",
"8. c #E13E05",
"9. c #ED3D03",
"0. c #E93905",
"q. c #EB3804",
"w. c #EA3904",
"e. c #EC3804",
"r. c #EC3A04",
"t. c #E13E0C",
"y. c #E13E0D",
"u. c #CB1C21",
"i. c #C22326",
"p. c #CB2529",
"a. c #CB2729",
"s. c #C02B2E",
"d. c #C33336",
"f. c #C53134",
"g. c #CA3032",
"h. c #C93639",
"j. c #DE420D",
"k. c #EF4303",
"l. c #EE4A03",
"z. c #EA4D03",
"x. c #E2410C",
"c. c #E3430C",
"v. c #E5450C",
"b. c #EB4A09",
"n. c #EC4D08",
"m. c #EE4F08",
"M. c #F54701",
"N. c #F04802",
"B. c #F24A02",
"V. c #F44802",
"C. c #F54A02",
"Z. c #F54C02",
"A. c #F14A04",
"S. c #F24D04",
"D. c #F45002",
"F. c #F45102",
"G. c #F65302",
"H. c #F75703",
"J. c #FA5501",
"K. c #F05B07",
"L. c #F45805",
"P. c #FD5C00",
"I. c #FE5C00",
"U. c #FF5C00",
"Y. c #FD5E01",
"T. c #FF5E00",
"R. c #FF5F00",
"E. c #FF6000",
"W. c #FF6100",
"Q. c #FF6200",
"!. c #FF6300",
"~. c #FF6400",
"^. c #FF6500",
"/. c #FF6600",
"(. c #FF6700",
"). c #F66903",
"_. c #FB6B00",
"`. c #FE6800",
"'. c #FF6A00",
"]. c #FF6B00",
"[. c #FC6D01",
"{. c #FF6C00",
"}. c #FF6D00",
"|. c #FE6F00",
" X c #F67302",
".X c #FC7300",
"XX c #FF7600",
"oX c #FB7A00",
"OX c #FE7800",
"+X c #FB7E00",
"@X c #FF7F00",
"#X c #B93E40",
"$X c #C83F42",
"%X c #B84446",
"&X c #AD6767",
"*X c #C54446",
"=X c #C84447",
"-X c #C5484A",
";X c #C8494B",
":X c #C55257",
">X c #FA8200",
",X c #FA8300",
"<X c #FD8300",
"1X c #FB8400",
"2X c #FB8700",
"3X c #F98800",
"4X c #FB8800",
"5X c #F98B00",
"6X c #F98E00",
"7X c #F79500",
"8X c #F89000",
"9X c #F89100",
"0X c #F89200",
"qX c #F89300",
"wX c #F89400",
"eX c #F89500",
"rX c #F89600",
"tX c None",
/* pixels */
"tXtXtXtXtXtXtXtXtXtXtXtXtXtXtXtXtXtXtXtXtXtXtXtXtXtXtXtXtXtXtXtXtXtXtXtXtXtXtXtXtXtXtXtXtXtXtXtXtXtXtXtXtXtXtXtXtXtXtXtX",
"tXtXtXtXtXtXtXtXtXtXtXtXtXtXtXtXtXtXtXtXtXtXtXtXtXtXtXtXtXtXtXtXtXtXtXtXtXtXtXtXtXtXtXtXtXtXtXtXtXtXtXtXtXtXtXtXtXtXtXtX",
"tXtXtXtXtXtXtXtXtXtXtXtXtXtXtXtXtXtXtXtXtXtXtXtXtXtXtXtXtXtXtXtXtXtXtXtXtXtXtXtXtXtXtXtXtXtXtXtXtXtXtXtXtXtXtXtXtXtXtXtX",
"tXtXtXtXtXtXtXtXtXtXtXtXtXtXtXtXtXtXtXtXtXtXtXtXtXtXtXtXtXtXtXtXtXtXtXtXtXtXtXtXtXtXtXtXtXtXtXtXtXtXtXtXtXtXtXtXtXtXtXtX",
"tXtXtXtXtXtXtXtXtXtXtXtXtXtXtXtXtXtXtXtXtXtXtXtXtXtXtXtXtXtXtXtXtXtXtXtXtXtXtXtXtXtXtXtXtXtXtXtXtXtXtXtXtXtXtXtXtXtXtXtX",
"tXtXtXtXtXtXtXtXtXtXtXtXtXtXtXtXtXtXtXtXtXtXtXtXtXtXtXtXtXtXtXtXtXtXtXtXtXtXtXtXtXtXtXtXtXtXtXtXtXtXtXtXtXtXtXtXtXtXtXtX",
"tXtXtXtXtXtXtXtXtXtXtXtXtXtXtXtXtXtXtXtXtXtXtXtXtXtXtXtXtXtXtXtXtXtXtXtXtXtXtXtXtXtXtXtXtXtXtXtXtXtXtXtXtXtXtXtXtXtXtXtX",
"tXtXtXtXtXtXtXtXtXtXtXtXtXtXtXtXtXtXtXtXtXtXtXtXtXtXtXtXtXtXtXtXtXtXtXtXtXtXtXtXtXtXtXtXtXtXtXtXtXtXtXtXtXtXtXtXtXtXtXtX",
"tXtXtXtXtXtXtXtXtXtXtXtXtXtXtXtXtXtXtXtXtXtXtXtXtXtXtXtXtXtXtXtXtXtXtXtXtXtXtXtXtXtXtXtXtXtXtXtXtXtXtXtXtXtXtXtXtXtXtXtX",
"tXtXtXtXtXtXtXtXtXtXtXtXtXtXtXtXtXtXtXtXtXtXtXtXtXtXtXtXtXtXtXtXtXtXtXtXtXtXtXtXtXtXtXtXtXtXtXtXtXtXtXtXtXtXtXtXtXtXtXtX",
"tXtXtXtXtXtXtXtXtXtXtXtXtXtXtXtXtXtXtXtXtXtXtXtXtXtXtXtXtXtXtXtXtXtXtXtXtXtXtXtXtXtXtXtXtXtXtXtXtXtXtXtXtXtXtXtXtXtXtXtX",
"tXtXtXtXtXtXtXtXtXtXtXtXtXtXtXtXtXtXtXtXtXtXtXtXtXtXtXtXtXtXtXtXtXtXtXtXtXtXtXtXtXtXtXtXtXtXtXtXtXtXtXtXtXtXtXtXtXtXtXtX",
"tXtXtXtXtXtXtXtXtXtXtXtXtXtXtXtXtXtXtXtXtXtXtXtXtXtXtXtXtXtXtXtXtXtXtXtXtXtXtXtXtXtXtXtXtXtXtXtXtXtXtXtXtXtXtXtXtXtXtXtX",
"tXtXtXtXtXtXtXtXtXtXtXtXtXtXtXtXtXtXtXtXtXtXtXtXtXtXtXtXtXtXtXtXtXtXtXtXtXtXtXtXtXtXtXtXtXtXtXtXtXtXtXtXtXtXtXtXtXtXtXtX",
"tXtXtXtXtXtXtXtXtXtXtXtXtXtXtXtXtXtXtXtXtXtXtXtXtXtXtXtXtXtXtXtXtXtXtXtXtXtXtXtXtXtXtXtXtXtXtXtXtXtXtXtXtXtXtXtXtXtXtXtX",
"tXtXtXtXtXtXtXtXtXtXtXtXtXtXtXtXtXtXtXtXtXtXtXtXtXtXtXtXtXtXtXtXtXtXtXtXtXtXtXtXtXtXtXtXtXtXtXtXtXtXtXtXtXtXtXtXtXtXtXtX",
"tXtXtXtXtXtXtXtXtXtXtXtXtXtXtXtXtXtXtXtXtXtXtXtXtXtXtXtXtXtXtXtXtXtXtXtXtXtXtXtXtXtXtXtXtXtXtXtXtXtXtXtXtXtXtXtXtXtXtXtX",
"tXtXtXtXtXtXtXtXtXtXtXtXtXtXtXtXtXtXtXtXtXtXtXtXtXtXtXtXtXtXf.tXtXtXtXtXtXtXtXtXtXtXtXtXtXtXtXtXtXtXtXtXtXtXtXtXtXtXtXtX",
"tXtXtXtXtXtXtXtXtXtXtXtXtXtXtXtXtXtXtXtXtXtXtXtXtXtXtX] z v #XtXtXtXtXtXtXtXtXtXtXtXtXtXtXtXtXtXtXtXtXtXtXtXtXtXtXtXtXtX",
"tXtXtXtXtXtXtXtXtXtXtXtXtXtXtXtXtXtXtXtXtXtXtXtXtXtXg.= y e _ tXtX5 ( tXtXtXtXtXtXtXtXtXtXtXtXtXtXtXtXtXtXtXtXtXtXtXtXtX",
"tXtXtXtXtXtXtXtXtXtXtXtXtXtXtXtXtXtXtXtXtXtXtXtXtXa.g y p p 5 u p p 5 s.tXtXtXtXtXtXtXtXtXtXtXtXtXtXtXtXtXtXtXtXtXtXtXtX",
"tXtXtXtXtXtXtXtXtXtXtXtXtXtXtXtXtXtXtXtXtXtXtXtX;X& y p p p p p p p 2 % tXtXtXtXtXtXtXtXtXtXtXtXtXtXtXtXtXtXtXtXtXtXtXtX",
"tXtXtXtXtXtXtXtXtXtXtXtXtXtXtXtXtXtXtXtXtXtXtXtX) 1 p t 0 7 7 0 0 i y d.tXtXtXtXtXtXtXtXtXtXtXtXtXtXtXtXtXtXtXtXtXtXtXtX",
"tXtXtXtXtXtXtXtXtXtXtXtXtXtXtXtXtXtXtXtXtXo.} tX[ , 7 A U <.1.Y K t t b %XtXtXtXtXtXtXtXtXtXtXtXtXtXtXtXtXtXtXtXtXtXtXtX",
"tXtXtXtXtXtXtXtXtXtXtXtXtXtXtXtXtXtXtXtXtXM 5 B w A 1.G.|.OX~.U.P.w.a 3 ` tXtXtXtXtXtXtXtXtXtXtXtXtXtXtXtXtXtXtXtXtXtXtX",
"tXtXtXtXtXtXtXtXtXtXtXtXtXtXtXtXtXtXtXtXtXC p i 0 7./.2XrXqX>X.XR.!.6.0 B i.tXtXtXtXtXtXtXtXtXtXtXtXtXtXtXtXtXtXtXtXtXtX",
"tXtXtXtXtXtXtXtXtXtXtXtXtXtXtXtXtXtXtXtXtXC p 9 I Y.1XqX0X0XrX5XE.R.I.R > ` tXtX-XtXtXtXtXtXtXtXtXtXtXtXtXtXtXtXtXtXtXtX",
"tXtXtXtXtXtXtXtXtXtXtXtXtXtXtXtXtXtXtXtXtXl 3 A V.<XeX0X0X0XwX,XT.R.(.9.0 e p * d tXtXtXtXtXtXtXtXtXtXtXtXtXtXtXtXtXtXtX",
"tXtXtXtXtXtXtXtXtXtXtXtXtXtXtXtXtXtXtXtXtXz 8 ;.}.9XqX0X0X9XqX.XT.J.k.5.t p p y f tXtXtXtXtXtXtXtXtXtXtXtXtXtXtXtXtXtXtX",
"tXtXtXtXtXtXtXtXtXtXtXtXtXtXtXtXtXtXtXtX; y 0 e.XXwX0X0XqX9X+X'.Z.E 0 W p p p 5 | tXtXtXtXtXtXtXtXtXtXtXtXtXtXtXtXtXtXtX",
"tXtXtXtXtXtXtXtXtXtXtXtXtXtXtXtXtXtXtXtX: i 0 q.XXwX0XqXwX6X{.C.G 9 p t p p p Z # tXtXtXtXtXtXtXtXtXtXtXtXtXtXtXtXtXtXtX",
"tXtXtXtXtXtXtXtXtXtXtXtXtXtXtXtXtXtXtXtX& p 0 r.].5X7X8XoX`.Z.G 9 p i p p p p V @ tXtXtXtXtXtXtXtXtXtXtXtXtXtXtXtXtXtXtX",
"tXtXtXtXtXtXtXtXtXtXtXtXtXtXtXtXtXtXtXtXf N > -.R.`.3X4X^.~.M.p t w A p p y 2 h tXtXtXtXtXtXtXtXtXtXtXtXtXtXtXtXtXtXtXtX",
"tXtXtXtXtXtXtXtXtXtXtXtXtXtXtXtXtXtXtXtX$X+ / H A.R.E.L.v.*.=.T 7 Q ~ i y y k tXtXtXtXtXtXtXtXtXtXtXtXtXtXtXtXtXtXtXtXtX",
"tXtXtXtXtXtXtXtXtXtXtXtXtXtXtXtXtXtXtXtXtXtXtX=X  &.R.%.X o O 0.>.B.F < _ tXtXtXtXtXtXtXtXtXtXtXtXtXtXtXtXtXtXtXtXtXtXtX",
"tXtXtXtXtXtXtXtXtXtXtXtXtXtXtXtXtXtXtXtXtXtXtX:X:.K.b.c.$.=.).@X_.4.t 4 x tXtXtXtXtXtXtXtXtXtXtXtXtXtXtXtXtXtXtXtXtXtXtX",
"tXtXtXtXtXtXtXtXtXtXtXtXtXtXtXtXtXtXtXtXtXtXtXu.J N.. t.^.~.'. Xl.3.t i m tXtXtXtXtXtXtXtXtXtXtXtXtXtXtXtXtXtXtXtXtXtXtX",
"tXtXtXtXtXtXtXtXtXtXtXtXtXtXtXtXtXtXtXtXtXtXtX& 8 ! H.E.Q.W.y.O.z.L q p m &XtXtXtXtXtXtXtXtXtXtXtXtXtXtXtXtXtXtXtXtXtXtX",
"tXtXtXtXtXtXtXtXtXtXtXtXtXtXtXtXtXtXtXtXtXtX*X- w D F.m.n.#.j.[.+.7 p y 2 tXtXtXtXtXtXtXtXtXtXtXtXtXtXtXtXtXtXtXtXtXtXtX",
"tXtXtXtXtXtXtXtXtXtXtXtXtXtXtXtXtXtXtXtXtX .& p p w ^ @.x.S.D.8.j r p Z ..tXtXtXtXtXtXtXtXtXtXtXtXtXtXtXtXtXtXtXtXtXtXtX",
"tXtXtXtXtXtXtXtXtXtXtXtXtXtXtXtXtXtXtXtXtXtXh.p y p q P 2.,.S 6 s y p X.tXtXtXtXtXtXtXtXtXtXtXtXtXtXtXtXtXtXtXtXtXtXtXtX",
"tXtXtXtXtXtXtXtXtXtXtXtXtXtXtXtXtXtXtXtXtXtXtXp.n 3 y { tXtXtXtXc x tXtXtXtXtXtXtXtXtXtXtXtXtXtXtXtXtXtXtXtXtXtXtXtXtXtX",
"tXtXtXtXtXtXtXtXtXtXtXtXtXtXtXtXtXtXtXtXtXtXtXtXtX' v $ tXtXtXtXtXtXtXtXtXtXtXtXtXtXtXtXtXtXtXtXtXtXtXtXtXtXtXtXtXtXtXtX",
"tXtXtXtXtXtXtXtXtXtXtXtXtXtXtXtXtXtXtXtXtXtXtXtXtXtXtXtXtXtXtXtXtXtXtXtXtXtXtXtXtXtXtXtXtXtXtXtXtXtXtXtXtXtXtXtXtXtXtXtX",
"tXtXtXtXtXtXtXtXtXtXtXtXtXtXtXtXtXtXtXtXtXtXtXtXtXtXtXtXtXtXtXtXtXtXtXtXtXtXtXtXtXtXtXtXtXtXtXtXtXtXtXtXtXtXtXtXtXtXtXtX",
"tXtXtXtXtXtXtXtXtXtXtXtXtXtXtXtXtXtXtXtXtXtXtXtXtXtXtXtXtXtXtXtXtXtXtXtXtXtXtXtXtXtXtXtXtXtXtXtXtXtXtXtXtXtXtXtXtXtXtXtX",
"tXtXtXtXtXtXtXtXtXtXtXtXtXtXtXtXtXtXtXtXtXtXtXtXtXtXtXtXtXtXtXtXtXtXtXtXtXtXtXtXtXtXtXtXtXtXtXtXtXtXtXtXtXtXtXtXtXtXtXtX",
"tXtXtXtXtXtXtXtXtXtXtXtXtXtXtXtXtXtXtXtXtXtXtXtXtXtXtXtXtXtXtXtXtXtXtXtXtXtXtXtXtXtXtXtXtXtXtXtXtXtXtXtXtXtXtXtXtXtXtXtX",
"tXtXtXtXtXtXtXtXtXtXtXtXtXtXtXtXtXtXtXtXtXtXtXtXtXtXtXtXtXtXtXtXtXtXtXtXtXtXtXtXtXtXtXtXtXtXtXtXtXtXtXtXtXtXtXtXtXtXtXtX",
"tXtXtXtXtXtXtXtXtXtXtXtXtXtXtXtXtXtXtXtXtXtXtXtXtXtXtXtXtXtXtXtXtXtXtXtXtXtXtXtXtXtXtXtXtXtXtXtXtXtXtXtXtXtXtXtXtXtXtXtX",
"tXtXtXtXtXtXtXtXtXtXtXtXtXtXtXtXtXtXtXtXtXtXtXtXtXtXtXtXtXtXtXtXtXtXtXtXtXtXtXtXtXtXtXtXtXtXtXtXtXtXtXtXtXtXtXtXtXtXtXtX",
"tXtXtXtXtXtXtXtXtXtXtXtXtXtXtXtXtXtXtXtXtXtXtXtXtXtXtXtXtXtXtXtXtXtXtXtXtXtXtXtXtXtXtXtXtXtXtXtXtXtXtXtXtXtXtXtXtXtXtXtX",
"tXtXtXtXtXtXtXtXtXtXtXtXtXtXtXtXtXtXtXtXtXtXtXtXtXtXtXtXtXtXtXtXtXtXtXtXtXtXtXtXtXtXtXtXtXtXtXtXtXtXtXtXtXtXtXtXtXtXtXtX",
"tXtXtXtXtXtXtXtXtXtXtXtXtXtXtXtXtXtXtXtXtXtXtXtXtXtXtXtXtXtXtXtXtXtXtXtXtXtXtXtXtXtXtXtXtXtXtXtXtXtXtXtXtXtXtXtXtXtXtXtX",
"tXtXtXtXtXtXtXtXtXtXtXtXtXtXtXtXtXtXtXtXtXtXtXtXtXtXtXtXtXtXtXtXtXtXtXtXtXtXtXtXtXtXtXtXtXtXtXtXtXtXtXtXtXtXtXtXtXtXtXtX",
"tXtXtXtXtXtXtXtXtXtXtXtXtXtXtXtXtXtXtXtXtXtXtXtXtXtXtXtXtXtXtXtXtXtXtXtXtXtXtXtXtXtXtXtXtXtXtXtXtXtXtXtXtXtXtXtXtXtXtXtX",
"tXtXtXtXtXtXtXtXtXtXtXtXtXtXtXtXtXtXtXtXtXtXtXtXtXtXtXtXtXtXtXtXtXtXtXtXtXtXtXtXtXtXtXtXtXtXtXtXtXtXtXtXtXtXtXtXtXtXtXtX",
"tXtXtXtXtXtXtXtXtXtXtXtXtXtXtXtXtXtXtXtXtXtXtXtXtXtXtXtXtXtXtXtXtXtXtXtXtXtXtXtXtXtXtXtXtXtXtXtXtXtXtXtXtXtXtXtXtXtXtXtX",
"tXtXtXtXtXtXtXtXtXtXtXtXtXtXtXtXtXtXtXtXtXtXtXtXtXtXtXtXtXtXtXtXtXtXtXtXtXtXtXtXtXtXtXtXtXtXtXtXtXtXtXtXtXtXtXtXtXtXtXtX",
"tXtXtXtXtXtXtXtXtXtXtXtXtXtXtXtXtXtXtXtXtXtXtXtXtXtXtXtXtXtXtXtXtXtXtXtXtXtXtXtXtXtXtXtXtXtXtXtXtXtXtXtXtXtXtXtXtXtXtXtX"
};
