/* XPM */
static char *result[] = {
/* columns rows colors chars-per-pixel */
"60 60 80 1 ",
"  c #BE0014",
". c #B5101F",
"X c #BE1E1D",
"o c #96002F",
"O c #950030",
"+ c #AE0B23",
"@ c #A60728",
"# c #B21323",
"$ c #B91C20",
"% c #BD2B2F",
"& c #BD3437",
"* c #CE0205",
"= c #CE0409",
"- c #CE090C",
"; c #D00204",
": c #D30A05",
"> c #D0070A",
", c #D20C08",
"< c #D61307",
"1 c #D91606",
"2 c #DC1C06",
"3 c #D61408",
"4 c #C70E11",
"5 c #CB0E13",
"6 c #CA1315",
"7 c #CC161A",
"8 c #C61A1E",
"9 c #CB191D",
"0 c #D0161A",
"q c #DF2407",
"w c #DB2409",
"e c #DD2D0B",
"r c #DF3E0F",
"t c #CE2D16",
"y c #C6251A",
"u c #CA2B18",
"i c #CE3116",
"p c #D43414",
"a c #D73912",
"s c #DB3D11",
"d c #E02506",
"f c #E22B06",
"g c #E63506",
"h c #E83304",
"j c #EC3B04",
"k c #E23A0A",
"l c #C41D21",
"z c #CC1E21",
"x c #C32125",
"c c #CB2427",
"v c #C12A2E",
"b c #CB2A2D",
"n c #C02E31",
"m c #C63336",
"M c #CC3134",
"N c #C73538",
"B c #CB3638",
"V c #EE4606",
"C c #EF4F07",
"Z c #EA4B0A",
"A c #F14603",
"S c #F54B02",
"D c #EF5F07",
"F c #F35204",
"G c #FA5501",
"H c #F75C04",
"J c #FE5D00",
"K c #FF6300",
"L c #FE6B00",
"P c #FD7200",
"I c #FD7C00",
"U c #C44345",
"Y c #CE4244",
"T c #CC4649",
"R c #C45153",
"E c #C96264",
"W c #FB8300",
"Q c #FA8C00",
"! c #F89300",
"~ c None",
/* pixels */
"~~~~~~~~~~~~~~~~~~~~~~~~~~~~~~~~~~~~~~~~~~~~~~~~~~~~~~~~~~~~",
"~~~~~~~~~~~~~~~~~~~~~~~~~~~~~~~~~~~~~~~~~~~~~~~~~~~~~~~~~~~~",
"~~~~~~~~~~~~~~~~~~~~~~~~~~~~~~~~~~~~~~~~~~~~~~~~~~~~~~~~~~~~",
"~~~~~~~~~~~~~~~~~~~~~~~~~~~~~~~~~~~~~~~~~~~~~~~~~~~~~~~~~~~~",
"~~~~~~~~~~~~~~~~~~~~~~~~~~~~~~~~~~~~~~~~~~~~~~~~~~~~~~~~~~~~",
"~~~~~~~~~~~~~~~~~~~~~~~~~~~~~~~~~~~~~~~~~~~~~~~~~~~~~~~~~~~~",
"~~~~~~~~~~~~~~~~~~~~~~~~~~~~~~~~~~~~~~~~~~~~~~~~~~~~~~~~~~~~",
"~~~~~~~~~~~~~~~~~~~~~~~~~~~~~~~~~~~~~~~~~~~~~~~~~~~~~~~~~~~~",
"~~~~~~~~~~~~~~~~~~~~~~~~~~~~~~~~~~~~~~~~~~~~~~~~~~~~~~~~~~~~",
"~~~~~~~~~~~~~~~~~~~~~~~~~~~~~~~~~~~~~~~~~~~~~~~~~~~~~~~~~~~~",
"~~~~~~~~~~~~~~~~~~~~~~~~~~~~~~~~~~~~~~~~~~~~~~~~~~~~~~~~~~~~",
"~~~~~~~~~~~~~~~~~~~~~~~~~~~~~~~~~~~~~~~~~~~~~~~~~~~~~~~~~~~~",
"~~~~~~~~~~~~~~~~~~~~~~~~~~~~~~~~~~~~~~~~~~~~~~~~~~~~~~~~~~~~",
"~~~~~~~~~~~~~~~~~~~~~~~~~~~~~~~~~~~~~~~~~~~~~~~~~~~~~~~~~~~~",
"~~~~~~~~~~~~~~~~~~~~~~~~~~~~~~~~~~~~~~~~~~~~~~~~~~~~~~~~~~~~",
"~~~~~~~~~~~~~~~~~~~~~~~~~~~~~~~~~~~~~~~~~~~~~~~~~~~~~~~~~~~~",
"~~~~~~~~~~~~~~~~~~~~~~~~~~~~~~~~~~~~~~~~~~~~~~~~~~~~~~~~~~~~",
"~~~~~~~~~~~~~~~~~~~~~~~~~~~~~~bl~~~~~~~~~~~~~~~~~~~~~~~~~~~~",
"~~~~~~~~~~~~~~~~~~~~~~~~~~~~~~6;x~~~~~~~~~~~~~~~~~~~~~~~~~~~",
"~~~~~~~~~~~~~~~~~~~~~~~~~~~~9**>*=~~~~~~~~~~~~~~~~~~~~~~~~~~",
"~~~~~~~~~~~~~~~~~~~~~~~~~m-**=>====~~~~~~~~~~~~~~~~~~~~~~~~~",
"~~~~~~~~~~~~~~~~~~~~~~~~T*=1hAGjhd*57~~~~~~~~~~~~~~~~~~~~~~~",
"~~~~~~~~~~~~~~~~~~~~~~~~*<SLIQIKKKj===-~~~~~~~~~~~~~~~~~~~~~",
"~~~~~~~~~~~~~~~~~~~~~~z==SI!!!!IJKKh==;5~~~~~~~~~~~~~~~~~~~~",
"~~~~~~~~~~~~~~~~~~~~~;*=fL!!!!!QKJKJ2===~~E%~~~~~~~~~~~~~~~~",
"~~~~~~~~~~~~~~~~~~~~=*=3GL!!!!!WJJJKh==*~~0~~~~~~~~~~~~~~~~~",
"~~~~~~~~~~~~~~~~~~~b;=;jKP!!!!!LJJJKj==-9-8~~~~~~~~~~~~~~~~~",
"~~~~~~~~~~~~~~~~~~~*==,FJP!!!!WJJJJKj===*x~~~~~~~~~~~~~~~~~~",
"~~~~~~~~~~~~~~~~~~M;==,GJKWWQIKJJJJKf==*-~~~~~~~~~~~~~~~~~~~",
"~~~~~~~~~~~~~~~~~~>*==<GKJJJHJJKKKKK2==*6~~~~~~~~~~~~~~~~~~~",
"~~~~~~~~~~~~~~~~~Y*=-=,SPILLLKJZgAJj,==;n~~~~~~~~~~~~~~~~~~~",
"~~~~~~~~~~~~~~~~~bm*==;,FIWQIKKr =3====-~~~~~~~~~~~~~~~~~~~~",
"~~~~~~~~~~~~~~~~~~~>====eJKZp8Xa.4w,===6~~~~~~~~~~~~~~~~~~~~",
"~~~~~~~~~~~~~~~~~~~~>==-+uKyoo@raFj-==;v~~~~~~~~~~~~~~~~~~~~",
"~~~~~~~~~~~~~~~~~~~~=*=>VHZZupDWLCw===6~~~~~~~~~~~~~~~~~~~~~",
"~~~~~~~~~~~~~~~~~~~~B;*=2V#iKI!IFaq==-~~~~~~~~~~~~~~~~~~~~~~",
"~~~~~~~~~~~~~~~~~~~~~c=>==eHJLKuyk<==-~~~~~~~~~~~~~~~~~~~~~~",
"~~~~~~~~~~~~~~~~~~~~~~Y;==VKHSyrS3===*v~~~~~~~~~~~~~~~~~~~~~",
"~~~~~~~~~~~~~~~~~~~~~~~m*=fpiiZS3====*v~~~~~~~~~~~~~~~~~~~~~",
"~~~~~~~~~~~~~~~~~~~~~~~U**=gFGj-====*6~~~~~~~~~~~~~~~~~~~~~~",
"~~~~~~~~~~~~~~~~~~~~~~~R;=>;:,=====>;&~~~~~~~~~~~~~~~~~~~~~~",
"~~~~~~~~~~~~~~~~~~~~~~~~6x~~9*===;=;6~~~~~~~~~~~~~~~~~~~~~~~",
"~~~~~~~~~~~~~~~~~~~~~~~~~x~~~b**59~~~~~~~~~~~~~~~~~~~~~~~~~~",
"~~~~~~~~~~~~~~~~~~~~~~~~~~~~~~~~~~~~~~~~~~~~~~~~~~~~~~~~~~~~",
"~~~~~~~~~~~~~~~~~~~~~~~~~~~~~~~~~~~~~~~~~~~~~~~~~~~~~~~~~~~~",
"~~~~~~~~~~~~~~~~~~~~~~~~~~~~~~~~~~~~~~~~~~~~~~~~~~~~~~~~~~~~",
"~~~~~~~~~~~~~~~~~~~~~~~~~~~~~~~~~~~~~~~~~~~~~~~~~~~~~~~~~~~~",
"~~~~~~~~~~~~~~~~~~~~~~~~~~~~~~~~~~~~~~~~~~~~~~~~~~~~~~~~~~~~",
"~~~~~~~~~~~~~~~~~~~~~~~~~~~~~~~~~~~~~~~~~~~~~~~~~~~~~~~~~~~~",
"~~~~~~~~~~~~~~~~~~~~~~~~~~~~~~~~~~~~~~~~~~~~~~~~~~~~~~~~~~~~",
"~~~~~~~~~~~~~~~~~~~~~~~~~~~~~~~~~~~~~~~~~~~~~~~~~~~~~~~~~~~~",
"~~~~~~~~~~~~~~~~~~~~~~~~~~~~~~~~~~~~~~~~~~~~~~~~~~~~~~~~~~~~",
"~~~~~~~~~~~~~~~~~~~~~~~~~~~~~~~~~~~~~~~~~~~~~~~~~~~~~~~~~~~~",
"~~~~~~~~~~~~~~~~~~~~~~~~~~~~~~~~~~~~~~~~~~~~~~~~~~~~~~~~~~~~",
"~~~~~~~~~~~~~~~~~~~~~~~~~~~~~~~~~~~~~~~~~~~~~~~~~~~~~~~~~~~~",
"~~~~~~~~~~~~~~~~~~~~~~~~~~~~~~~~~~~~~~~~~~~~~~~~~~~~~~~~~~~~",
"~~~~~~~~~~~~~~~~~~~~~~~~~~~~~~~~~~~~~~~~~~~~~~~~~~~~~~~~~~~~",
"~~~~~~~~~~~~~~~~~~~~~~~~~~~~~~~~~~~~~~~~~~~~~~~~~~~~~~~~~~~~",
"~~~~~~~~~~~~~~~~~~~~~~~~~~~~~~~~~~~~~~~~~~~~~~~~~~~~~~~~~~~~",
"~~~~~~~~~~~~~~~~~~~~~~~~~~~~~~~~~~~~~~~~~~~~~~~~~~~~~~~~~~~~"
};
