/* XPM */
static char *result[] = {
/* columns rows colors chars-per-pixel */
"60 60 200 2 ",
"   c #BF3032",
".  c #BE3336",
"X  c #CF0000",
"o  c #CF0001",
"O  c #CF0002",
"+  c #CF0102",
"@  c #CF0003",
"#  c #CF0103",
"$  c #CF0004",
"%  c #CF0104",
"&  c #CF0005",
"*  c #CE0105",
"=  c #CF0105",
"-  c #CC0006",
";  c #CC0007",
":  c #CE0106",
">  c #CF0106",
",  c #CE0107",
"<  c #CE0206",
"1  c #CF0206",
"2  c #CF0306",
"3  c #CE0307",
"4  c #CF0307",
"5  c #C90009",
"6  c #CB0009",
"7  c #CC0008",
"8  c #CD0008",
"9  c #CC0009",
"0  c #CC0109",
"q  c #CD0109",
"w  c #CC0209",
"e  c #CD0209",
"r  c #CD0309",
"t  c #CE0308",
"y  c #CD0409",
"u  c #CD0509",
"i  c #CE0408",
"p  c #CF0408",
"a  c #CE0508",
"s  c #CE0409",
"d  c #CE0509",
"f  c #CF0509",
"g  c #CE0609",
"h  c #CF0609",
"j  c #CF0709",
"k  c #CD050A",
"l  c #CD070B",
"z  c #CE060A",
"x  c #CE070B",
"c  c #CD080C",
"v  c #CD090D",
"b  c #CE080C",
"n  c #CC0A0E",
"m  c #CD0A0E",
"M  c #CE0B0F",
"N  c #D10001",
"B  c #D00003",
"V  c #D40000",
"C  c #D00004",
"Z  c #D10105",
"A  c #D00709",
"S  c #D1060A",
"D  c #D00909",
"F  c #D10909",
"G  c #D00A08",
"H  c #D10B08",
"J  c #D20C08",
"K  c #D20D08",
"L  c #D30D08",
"P  c #D30E08",
"I  c #D30F08",
"U  c #D0090D",
"Y  c #D41107",
"T  c #D51307",
"R  c #D61307",
"E  c #D61407",
"W  c #D71607",
"Q  c #D91907",
"!  c #DA1A07",
"~  c #DB1D06",
"^  c #DC1F06",
"/  c #D41008",
"(  c #D41108",
")  c #D51108",
"_  c #D61408",
"`  c #D71508",
"'  c #CB0D11",
"]  c #CD0C10",
"[  c #CD0F13",
"{  c #CA1013",
"}  c #C91115",
"|  c #C91215",
" . c #C91216",
".. c #C91316",
"X. c #C81317",
"o. c #CD1115",
"O. c #CE1014",
"+. c #CD1216",
"@. c #CD1316",
"#. c #C91418",
"$. c #CC1418",
"%. c #C61C1F",
"&. c #CD1C1F",
"*. c #DF2305",
"=. c #DC2006",
"-. c #DD2006",
";. c #DD2106",
":. c #DE2306",
">. c #DF2306",
",. c #DF2406",
"<. c #DF2506",
"1. c #E02705",
"2. c #E12706",
"3. c #E12805",
"4. c #E22905",
"5. c #E12A05",
"6. c #E22B05",
"7. c #E32B05",
"8. c #E12806",
"9. c #E42D05",
"0. c #E63104",
"q. c #E63105",
"w. c #E63204",
"e. c #E73305",
"r. c #E93504",
"t. c #E93604",
"y. c #E93704",
"u. c #EA3704",
"i. c #EB3A03",
"p. c #EC3B03",
"a. c #EE3F03",
"s. c #EA3804",
"d. c #EB3904",
"f. c #EB3A04",
"g. c #EB3B04",
"h. c #EC3C04",
"j. c #EE3F04",
"k. c #C51C20",
"l. c #C61D20",
"z. c #C61D21",
"x. c #C51F22",
"c. c #CB1F22",
"v. c #C42225",
"b. c #C42326",
"n. c #C32427",
"m. c #CC2125",
"M. c #C32628",
"N. c #CB272B",
"B. c #C7282B",
"V. c #C7292C",
"C. c #C42C2F",
"Z. c #CB2A2D",
"A. c #CB2B2E",
"S. c #C32F31",
"D. c #C92C30",
"F. c #C9383B",
"G. c #EF4203",
"H. c #EF4403",
"J. c #F04303",
"K. c #F14503",
"L. c #F24603",
"P. c #F24703",
"I. c #F24802",
"U. c #F34802",
"Y. c #F44A02",
"T. c #F54C01",
"R. c #F54C02",
"E. c #F54D02",
"W. c #F64E02",
"Q. c #F64F02",
"!. c #F95401",
"~. c #F95501",
"^. c #FB5701",
"/. c #FB5A01",
"(. c #FD5B00",
"). c #FC5A01",
"_. c #FD5A01",
"`. c #FD5D00",
"'. c #FE5E00",
"]. c #FF5E00",
"[. c #FE5F00",
"{. c #FF5F00",
"}. c #FF6000",
"|. c #FE6100",
" X c #FF6100",
".X c #FF6200",
"XX c #FF6300",
"oX c #FF6400",
"OX c #FF6500",
"+X c #FF6600",
"@X c #BC3F41",
"#X c #C93D40",
"$X c #C83E40",
"%X c #C83F42",
"&X c #A9494C",
"*X c #B84547",
"=X c #C84649",
"-X c #C8474A",
";X c #C7494C",
":X c None",
/* pixels */
":X:X:X:X:X:X:X:X:X:X:X:X:X:X:X:X:X:X:X:X:X:X:X:X:X:X:X:X:X:X:X:X:X:X:X:X:X:X:X:X:X:X:X:X:X:X:X:X:X:X:X:X:X:X:X:X:X:X:X:X",
":X:X:X:X:X:X:X:X:X:X:X:X:X:X:X:X:X:X:X:X:X:X:X:X:X:X:X:X:X:X:X:X:X:X:X:X:X:X:X:X:X:X:X:X:X:X:X:X:X:X:X:X:X:X:X:X:X:X:X:X",
":X:X:X:X:X:X:X:X:X:X:X:X:X:X:X:X:X:X:X:X:X:X:X:X:X:X:X:X:X:X:X:X:X:X:X:X:X:X:X:X:X:X:X:X:X:X:X:X:X:X:X:X:X:X:X:X:X:X:X:X",
":X:X:X:X:X:X:X:X:X:X:X:X:X:X:X:X:X:X:X:X:X:X:X:X:X:X:X:X:X:X:X:X:X:X:X:X:X:X:X:X:X:X:X:X:X:X:X:X:X:X:X:X:X:X:X:X:X:X:X:X",
":X:X:X:X:X:X:X:X:X:X:X:X:X:X:X:X:X:X:X:X:X:X:X:X:X:X:X:X:X:X:X:X:X:X:X:X:X:X:X:X:X:X:X:X:X:X:X:X:X:X:X:X:X:X:X:X:X:X:X:X",
":X:X:X:X:X:X:X:X:X:X:X:X:X:X:X:X:X:X:X:X:X:X:X:X:X:X:X:X:X:X:X:X:X:X:X:X:X:X:X:X:X:X:X:X:X:X:X:X:X:X:X:X:X:X:X:X:X:X:X:X",
":X:X:X:X:X:X:X:X:X:X:X:X:X:X:X:X:X:X:X:X:X:X:X:X:X:X:X:X:X:X:X:X:X:X:X:X:X:X:X:X:X:X:X:X:X:X:X:X:X:X:X:X:X:X:X:X:X:X:X:X",
":X:X:X:X:X:X:X:X:X:X:X:X:X:X:X:X:X:X:X:X:X:X:X:X:X:X:X:X:X:X:X:X:X:X:X:X:X:X:X:X:X:X:X:X:X:X:X:X:X:X:X:X:X:X:X:X:X:X:X:X",
":X:X:X:X:X:X:X:X:X:X:X:X:X:X:X:X:X:X:X:X:X:X:X:X:X:X:X:X:X:X:X:X:X:X:X:X:X:X:X:X:X:X:X:X:X:X:X:X:X:X:X:X:X:X:X:X:X:X:X:X",
":X:X:X:X:X:X:X:X:X:X:X:X:X:X:X:X:X:X:X:X:X:X:X:X:X:X:X:X:X:X:X:X:X:X:X:X:X:X:X:X:X:X:X:X:X:X:X:X:X:X:X:X:X:X:X:X:X:X:X:X",
":X:X:X:X:X:X:X:X:X:X:X:X:X:X:X:X:X:X:X:X:X:X:X:X:X:X:X:X:X:X:X:X:X:X:X:X:X:X:X:X:X:X:X:X:X:X:X:X:X:X:X:X:X:X:X:X:X:X:X:X",
":X:X:X:X:X:X:X:X:X:X:X:X:X:X:X:X:X:X:X:X:X:X:X:X:X:X:X:X:X:X:X:X:X:X:X:X:X:X:X:X:X:X:X:X:X:X:X:X:X:X:X:X:X:X:X:X:X:X:X:X",
":X:X:X:X:X:X:X:X:X:X:X:X:X:X:X:X:X:X:X:X:X:X:X:X:X:X:X:X:X:X:X:X:X:X:X:X:X:X:X:X:X:X:X:X:X:X:X:X:X:X:X:X:X:X:X:X:X:X:X:X",
":X:X:X:X:X:X:X:X:X:X:X:X:X:X:X:X:X:X:X:X:X:X:X:X:X:X:X:X:X:X:X:X:X:X:X:X:X:X:X:X:X:X:X:X:X:X:X:X:X:X:X:X:X:X:X:X:X:X:X:X",
":X:X:X:X:X:X:X:X:X:X:X:X:X:X:X:X:X:X:X:X:X:X:X:X:X:X:X:X:X:X:X:X:X:X:X:X:X:X:X:X:X:X:X:X:X:X:X:X:X:X:X:X:X:X:X:X:X:X:X:X",
":X:X:X:X:X:X:X:X:X:X:X:X:X:X:X:X:X:X:X:X:X:X:X:X:X:X:X:X:X:X:X:X:X:X:X:X:X:X:X:X:X:X:X:X:X:X:X:X:X:X:X:X:X:X:X:X:X:X:X:X",
":X:X:X:X:X:X:X:X:X:X:X:X:X:X:X:X:X:X:X:X:X:X:X:X:X:X:X:X:X:X:X:X:X:X:X:X:X:X:X:X:X:X:X:X:X:X:X:X:X:X:X:X:X:X:X:X:X:X:X:X",
":X:X:X:X:X:X:X:X:X:X:X:X:X:X:X:X:X:X:X:X:X:X:X:X:X:X:X:X:X:X:X:X:X:X:X:X:X:X:X:X:X:X:X:X:X:X:X:X:X:X:X:X:X:X:X:X:X:X:X:X",
":X:X:X:X:X:X:X:X:X:X:X:X:X:X:X:X:X:X:X:X:X:X:X:X:X:X:X:X:X:X:X:X:X:X:X:X:X:X:X:X:X:X:X:X:X:X:X:X:X:X:X:X:X:X:X:X:X:X:X:X",
":X:X:X:X:X:X:X:X:X:X:X:X:X:X:X:X:X:X:X:X:X:X:X:Xx.x i z &.:X:X:X:X:Xz.c 3 o.:X:X:X:X:X:X:X:X:X:X:X:X:X:X:X:X:X:X:X:X:X:X",
":X:X:X:X:X:X:X:X:X:X:X:X:X:X:X:X:X:X:X:XS.U :Xk.& i d d * S V.l | d = @ $X:X:X:X:X:X:X:X:X:X:X:X:X:X:X:X:X:X:X:X:X:X:X:X",
":X:X:X:X:X:X:X:X:X:X:X:X:X:X:X:X:X:X:X&XV z i 1 d d r 0 0 ; - r 4 i * c.:X:X:X:X:X:X:X:X:X:X:X:X:X:X:X:X:X:X:X:X:X:X:X:X",
":X:X:X:X:X:X:X:X:X:X:X:X:X:X:X:X:X:X:XZ i d i s 0 w L -.>.:.*._ e y O F.:X:X:X:X:X:X:X:X:X:X:X:X:X:X:X:X:X:X:X:X:X:X:X:X",
":X:X:X:X:X:X:X:X:X:X:X:X:X:X:X:X:X:Xv.$ d d r d 3.G.!. X.X XXX).r.A , $.:X:X:X:X:X:X:X:X:X:X:X:X:X:X:X:X:X:X:X:X:X:X:X:X",
":X:X:X:X:X:X:X:X:X:X:X:X:X:X:X:X:X:X%.= d y d d..XXX}.{.].].]. X+Xq.y : ] :X:X:X:X:X:X:X:X:X:X:X:X:X:X:X:X:X:X:X:X:X:X:X",
":X:X:X:X:X:X:X:X:X:X:X:X:X:X:X:X:X:Xl.= d 0 1..X{.].].].].].{.}./.f.g s x @.:X:X:X:X:X:X:X:X:X:X:X:X:X:X:X:X:X:X:X:X:X:X",
":X:X:X:X:X:X:X:X:X:X:X:X:X:X:X:X:X:Xl.= r D T..X].].].].].{.'.e.L g s d d 3 f :X:X:X:X:X:X:X:X:X:X:X:X:X:X:X:X:X:X:X:X:X",
":X:X:X:X:X:X:X:X:X:X:X:X:X:X:X:X:X:X%.= 0 ;.].].].].].].]. Xq.e w s d d d i b :X:X:XC.:X:X:X:X:X:X:X:X:X:X:X:X:X:X:X:X:X",
":X:X:X:X:X:X:X:X:X:X:X:X:X:X:X:X:X:Xn.$ 0 s..X].].].].{.].}.>.9 d d d d d * +.:X:X:X:X:X:X:X:X:X:X:X:X:X:X:X:X:X:X:X:X:X",
":X:X:X:X:X:X:X:X:X:X:X:X:X:X:X:X:X:X:Xt 8 g..X].]. X X}.{.}.>.6 r r d d d 2 %X:X:X:X:X:X:X:X:X:X:X:X:X:X:X:X:X:X:X:X:X:X",
":X:X:X:X:X:X:X:X:X:X:X:X:X:X:X:X:X:X:X. q p.oX{.{.Q.7.^ I.oXq.g P Q / y $ D.:X:X:X:X:X:X:X:X:X:X:X:X:X:X:X:X:X:X:X:X:X:X",
":X:X:X:X:X:X:X:X:X:X:X:X:X:X:X:X:X:X:X:X> R 9.'.P.G 6 5 2..X_.R.(.y.j y i [ B.:X:X:X@X:X:X:X:X:X:X:X:X:X:X:X:X:X:X:X:X:X",
":X:X:X:X:X:X:X:X:X:X:X:X:X:X:X:X:X:X:X*XN w 6 g.h.e w 6 4.}..X+Xj.j r d d i @ M < :X:X:X:X:X:X:X:X:X:X:X:X:X:X:X:X:X:X:X",
":X:X:X:X:X:X:X:X:X:X:X:X:X:X:X:X:X:X:X{ 4 d h ^ i.u.H.G.~.oXW.,.( w d d d d + -X:X:X:X:X:X:X:X:X:X:X:X:X:X:X:X:X:X:X:X:X",
":X:X:X:X:X:X:X:X:X:X:X:X:X:X:X:X:X..m 1 d d s <.8.0.OXXX.XE.I ) K y d d d d X ;X:X:X:X:X:X:X:X:X:X:X:X:X:X:X:X:X:X:X:X:X",
":X:X:X:X:X:X:X:X:X:X:X:X:X:X:X:Xb.B 4 i d d e Y ^.`.].]..X5.y U.! e d d d d X =X:X:X:X:X:X:X:X:X:X:X:X:X:X:X:X:X:X:X:X:X",
":X:X:X:X:X:X:X:X:X:X:X:X:X:X:X:Xb.C x v 1 d d d 7.!. XoXR.I ` [.8.0 d d d 3 % :X:X:X:X:X:X:X:X:X:X:X:X:X:X:X:X:X:X:X:X:X",
":X:X:X:X:X:X:X:X:X:X:X:X:X:X:X:X:X4 A.:X  i a d 6 s.~.6.E H Y.|.;.0 3 < i p #X:X:X:X:X:X:X:X:X:X:X:X:X:X:X:X:X:X:X:X:X:X",
":X:X:X:X:X:X:X:X:X:X:X:X:X:X:X:X:XM.:X:X:Xv i d r 9.t.T w.a.f.W h & b Z.:X:X:X:X:X:X:X:X:X:X:X:X:X:X:X:X:X:X:X:X:X:X:X:X",
":X:X:X:X:X:X:X:X:X:X:X:X:X:X:X:X:X:X:X:X:X:X1 i r =.L.J.K.~ y 0 : N.:X:X:X:X:X:X:X:X:X:X:X:X:X:X:X:X:X:X:X:X:X:X:X:X:X:X",
":X:X:X:X:X:X:X:X:X:X:X:X:X:X:X:X:X:X:X:X:X:Xk i d r F J y 7 s i o :X:X:X:X:X:X:X:X:X:X:X:X:X:X:X:X:X:X:X:X:X:X:X:X:X:X:X",
":X:X:X:X:X:X:X:X:X:X:X:X:X:X:X:X:X:X:X:X:X:X .4 4 i y r x n i 3 @ :X:X:Xu X.:X:X:X:X:X:X:X:X:X:X:X:X:X:X:X:X:X:X:X:X:X:X",
":X:X:X:X:X:X:X:X:X:X:X:X:X:X:X:X:X:X:X:X:X:X:X:X#.i t 3 O.:X} @ m.:X:X:X:X:X:X:X:X:X:X:X:X:X:X:X:X:X:X:X:X:X:X:X:X:X:X:X",
":X:X:X:X:X:X:X:X:X:X:X:X:X:X:X:X:X:X:X:X:X:X:X:X:X:X' 3 # :X:X:X:X:X:X:X:X:X:X:X:X:X:X:X:X:X:X:X:X:X:X:X:X:X:X:X:X:X:X:X",
":X:X:X:X:X:X:X:X:X:X:X:X:X:X:X:X:X:X:X:X:X:X:X:X:X:X:X:X:X:X:X:X:X:X:X:X:X:X:X:X:X:X:X:X:X:X:X:X:X:X:X:X:X:X:X:X:X:X:X:X",
":X:X:X:X:X:X:X:X:X:X:X:X:X:X:X:X:X:X:X:X:X:X:X:X:X:X:X:X:X:X:X:X:X:X:X:X:X:X:X:X:X:X:X:X:X:X:X:X:X:X:X:X:X:X:X:X:X:X:X:X",
":X:X:X:X:X:X:X:X:X:X:X:X:X:X:X:X:X:X:X:X:X:X:X:X:X:X:X:X:X:X:X:X:X:X:X:X:X:X:X:X:X:X:X:X:X:X:X:X:X:X:X:X:X:X:X:X:X:X:X:X",
":X:X:X:X:X:X:X:X:X:X:X:X:X:X:X:X:X:X:X:X:X:X:X:X:X:X:X:X:X:X:X:X:X:X:X:X:X:X:X:X:X:X:X:X:X:X:X:X:X:X:X:X:X:X:X:X:X:X:X:X",
":X:X:X:X:X:X:X:X:X:X:X:X:X:X:X:X:X:X:X:X:X:X:X:X:X:X:X:X:X:X:X:X:X:X:X:X:X:X:X:X:X:X:X:X:X:X:X:X:X:X:X:X:X:X:X:X:X:X:X:X",
":X:X:X:X:X:X:X:X:X:X:X:X:X:X:X:X:X:X:X:X:X:X:X:X:X:X:X:X:X:X:X:X:X:X:X:X:X:X:X:X:X:X:X:X:X:X:X:X:X:X:X:X:X:X:X:X:X:X:X:X",
":X:X:X:X:X:X:X:X:X:X:X:X:X:X:X:X:X:X:X:X:X:X:X:X:X:X:X:X:X:X:X:X:X:X:X:X:X:X:X:X:X:X:X:X:X:X:X:X:X:X:X:X:X:X:X:X:X:X:X:X",
":X:X:X:X:X:X:X:X:X:X:X:X:X:X:X:X:X:X:X:X:X:X:X:X:X:X:X:X:X:X:X:X:X:X:X:X:X:X:X:X:X:X:X:X:X:X:X:X:X:X:X:X:X:X:X:X:X:X:X:X",
":X:X:X:X:X:X:X:X:X:X:X:X:X:X:X:X:X:X:X:X:X:X:X:X:X:X:X:X:X:X:X:X:X:X:X:X:X:X:X:X:X:X:X:X:X:X:X:X:X:X:X:X:X:X:X:X:X:X:X:X",
":X:X:X:X:X:X:X:X:X:X:X:X:X:X:X:X:X:X:X:X:X:X:X:X:X:X:X:X:X:X:X:X:X:X:X:X:X:X:X:X:X:X:X:X:X:X:X:X:X:X:X:X:X:X:X:X:X:X:X:X",
":X:X:X:X:X:X:X:X:X:X:X:X:X:X:X:X:X:X:X:X:X:X:X:X:X:X:X:X:X:X:X:X:X:X:X:X:X:X:X:X:X:X:X:X:X:X:X:X:X:X:X:X:X:X:X:X:X:X:X:X",
":X:X:X:X:X:X:X:X:X:X:X:X:X:X:X:X:X:X:X:X:X:X:X:X:X:X:X:X:X:X:X:X:X:X:X:X:X:X:X:X:X:X:X:X:X:X:X:X:X:X:X:X:X:X:X:X:X:X:X:X",
":X:X:X:X:X:X:X:X:X:X:X:X:X:X:X:X:X:X:X:X:X:X:X:X:X:X:X:X:X:X:X:X:X:X:X:X:X:X:X:X:X:X:X:X:X:X:X:X:X:X:X:X:X:X:X:X:X:X:X:X",
":X:X:X:X:X:X:X:X:X:X:X:X:X:X:X:X:X:X:X:X:X:X:X:X:X:X:X:X:X:X:X:X:X:X:X:X:X:X:X:X:X:X:X:X:X:X:X:X:X:X:X:X:X:X:X:X:X:X:X:X",
":X:X:X:X:X:X:X:X:X:X:X:X:X:X:X:X:X:X:X:X:X:X:X:X:X:X:X:X:X:X:X:X:X:X:X:X:X:X:X:X:X:X:X:X:X:X:X:X:X:X:X:X:X:X:X:X:X:X:X:X",
":X:X:X:X:X:X:X:X:X:X:X:X:X:X:X:X:X:X:X:X:X:X:X:X:X:X:X:X:X:X:X:X:X:X:X:X:X:X:X:X:X:X:X:X:X:X:X:X:X:X:X:X:X:X:X:X:X:X:X:X"
};
