/* XPM */
static char *result[] = {
/* columns rows colors chars-per-pixel */
"60 60 251 2 ",
"   c #B30013",
".  c #B10018",
"X  c #960127",
"o  c #9E0326",
"O  c #98002C",
"+  c #B51321",
"@  c #BA2E2E",
"#  c #B22B32",
"$  c #CF0002",
"%  c #CB0005",
"&  c #CD0305",
"*  c #CD0106",
"=  c #CD0007",
"-  c #CC0107",
";  c #CD0107",
":  c #CD0207",
">  c #CD0307",
",  c #CC0405",
"<  c #CC0505",
"1  c #CD0505",
"2  c #CD0406",
"3  c #CC0407",
"4  c #CF0807",
"5  c #C1010E",
"6  c #C1050C",
"7  c #CB0209",
"8  c #CC0009",
"9  c #CD0109",
"0  c #CD0208",
"q  c #CC0308",
"w  c #CD0308",
"e  c #CC0209",
"r  c #CD0209",
"t  c #CC0309",
"y  c #CD0309",
"u  c #CE0208",
"i  c #CE0308",
"p  c #CE0309",
"a  c #CB060B",
"s  c #CD0408",
"d  c #CD0409",
"f  c #CE0408",
"g  c #CE0409",
"h  c #CE0509",
"j  c #CD0709",
"k  c #CF0608",
"l  c #CF0709",
"z  c #CD040A",
"x  c #CE040B",
"c  c #C6090E",
"v  c #CF0808",
"b  c #CF0809",
"n  c #CF080A",
"m  c #CF0B0B",
"M  c #D20E07",
"N  c #D00809",
"B  c #D30C08",
"V  c #D20C09",
"C  c #D20E09",
"Z  c #D20F0B",
"A  c #D00F0C",
"S  c #D11107",
"D  c #D71504",
"F  c #D71F05",
"G  c #DE1F02",
"H  c #DC1E07",
"J  c #D21208",
"K  c #D71808",
"L  c #D41C09",
"P  c #C71414",
"I  c #C31318",
"U  c #D11913",
"Y  c #D31C11",
"T  c #D62007",
"R  c #D92702",
"E  c #DE2206",
"W  c #D62008",
"Q  c #D4220F",
"!  c #D92608",
"~  c #DC3506",
"^  c #DD3903",
"/  c #D52012",
"(  c #D52215",
")  c #D62917",
"_  c #D62A1A",
"`  c #D13317",
"'  c #DA371B",
"]  c #E02705",
"[  c #E23403",
"{  c #E83605",
"}  c #EC3903",
"|  c #EC3D0B",
" . c #E13E1E",
".. c #DA4912",
"X. c #DF421C",
"o. c #DC401F",
"O. c #D8481D",
"+. c #DE5618",
"@. c #E44606",
"#. c #E34A04",
"$. c #EB4B04",
"%. c #EB470B",
"&. c #F84E02",
"*. c #EE5402",
"=. c #EC5D02",
"-. c #FA5301",
";. c #FB5703",
":. c #FE5400",
">. c #FC5601",
",. c #FE5700",
"<. c #FE5B01",
"1. c #EA4811",
"2. c #E34F1A",
"3. c #E95E13",
"4. c #E96503",
"5. c #FB6000",
"6. c #FE6300",
"7. c #F36A02",
"8. c #F46F00",
"9. c #FE6900",
"0. c #FC6D05",
"q. c #EF7103",
"w. c #EE7709",
"e. c #F37405",
"r. c #F77506",
"t. c #FB7400",
"y. c #FB7600",
"u. c #FB7B00",
"i. c #ED611E",
"p. c #E6691B",
"a. c #EF7916",
"s. c #E9741E",
"d. c #FD7F10",
"f. c #F47C1B",
"g. c #DF4E2A",
"h. c #D05320",
"j. c #C54A31",
"k. c #E04626",
"l. c #E05124",
"z. c #E15326",
"x. c #E1572C",
"c. c #E3592A",
"v. c #E25A2A",
"b. c #E45F2B",
"n. c #E15833",
"m. c #F56728",
"M. c #EC7622",
"N. c #E87626",
"B. c #E8653A",
"V. c #F77E39",
"C. c #CB6648",
"Z. c #D0704E",
"A. c #E36440",
"S. c #EB7B40",
"D. c #F68F00",
"F. c #F88B00",
"G. c #FD8A00",
"H. c #F88F00",
"J. c #FE8C00",
"K. c #F89100",
"L. c #F89200",
"P. c #F99002",
"I. c #F99500",
"U. c #F89401",
"Y. c #F99601",
"T. c #F99506",
"R. c #FA9A00",
"E. c #FB9C00",
"W. c #F99709",
"Q. c #F9920E",
"!. c #F99A0B",
"~. c #FE8E16",
"^. c #FA9A12",
"/. c #FD901E",
"(. c #FDAF18",
"). c #ED8420",
"_. c #EC8628",
"`. c #FE8721",
"'. c #F58129",
"]. c #F39521",
"[. c #FF9223",
"{. c #F09029",
"}. c #E58033",
"|. c #EF8D3C",
" X c #F59B39",
".X c #FBAB25",
"XX c #FDAD33",
"oX c #FDA73C",
"OX c #FDAC39",
"+X c #FFC63A",
"@X c #E7814B",
"#X c #EF985C",
"$X c #EEAB4D",
"%X c #F4A241",
"&X c #F5A844",
"*X c #F9B345",
"=X c #F6A750",
"-X c #EBAE6A",
";X c #EEBB72",
":X c #F5B27C",
">X c #FEC241",
",X c #FFC042",
"<X c #FDC843",
"1X c #FFCA4C",
"2X c #FFCB4E",
"3X c #FFCF4F",
"4X c #FFD14D",
"5X c #FFD64F",
"6X c #F6C053",
"7X c #FFCA50",
"8X c #FFCC51",
"9X c #FFCC52",
"0X c #FACA54",
"qX c #FFCF54",
"wX c #FFD453",
"eX c #FFD557",
"rX c #FFD757",
"tX c #FFD956",
"yX c #FFDA57",
"uX c #FFD65A",
"iX c #FFD25E",
"pX c #FFD464",
"aX c #FED068",
"sX c #FFD668",
"dX c #FFDD6B",
"fX c #FCD978",
"gX c #FFE47B",
"hX c #FFE37D",
"jX c #FBD281",
"kX c #F9D690",
"lX c #FFE284",
"zX c #FFEB86",
"xX c #FFE795",
"cX c #FCE698",
"vX c #FFEB9D",
"bX c #FFF594",
"nX c #FFF59B",
"mX c #FFF4A0",
"MX c #FFF1A7",
"NX c #FFFBA4",
"BX c #FFF6A8",
"VX c #FFFAB0",
"CX c #FFFDB1",
"ZX c #FFF6BB",
"AX c #FFF7BE",
"SX c #FFF8BD",
"DX c #FFFBBF",
"FX c #FFFDC9",
"GX c #FFFFC9",
"HX c #FFFFCC",
"JX c None",
/* pixels */
"JXJXJXJXJXJXJXJXJXJXJXJXJXJXJXJXJXJXJXJXJXJXJXJXJXJXJXJXJXJXJXJXJXJXJXJXJXJXJXJXJXJXJXJXJXJXJXJXJXJXJXJXJXJXJXJXJXJXJXJX",
"JXJXJXJXJXJXJXJXJXJXJXJXJXJXJXJXJXJXJXJXJXJXJXJXJXJXJXJXJXJXJXJXJXJXJXJXJXJXJXJXJXJXJXJXJXJXJXJXJXJXJXJXJXJXJXJXJXJXJXJX",
"JXJXJXJXJXJXJXJXJXJXJXJXJXJXJXJXJXJXJXJXJXJXJXJXJXJXJXJXJXJXJXJXJXJXJXJXJXJXJXJXJXJXJXJXJXJXJXJXJXJXJXJXJXJXJXJXJXJXJXJX",
"JXJXJXJXJXJXJXJXJXJXJXJXJXJXJXJXJXJXJXJXJXJXJXJXJXJXJXJXJXJXJXJXJXJXJXJXJXJXJXJXJXJXJXJXJXJXJXJXJXJXJXJXJXJXJXJXJXJXJXJX",
"JXJXJXJXJXJXJXJXJXJXJXJXJXJXJXJXJXJXJXJXJXJXJXJXJXJXJXJXJXJXJXJXJXJXJXJXJXJXJXJXJXJXJXJXJXJXJXJXJXJXJXJXJXJXJXJXJXJXJXJX",
"JXJXJXJXJXJXJXJXJXJXJXJXJXJXJXJXJXJXJXJXJXJXJXJXJXJXJXJXJXJXJXJXJXJXJXJXJXJXJXJXJXJXJXJXJXJXJXJXJXJXJXJXJXJXJXJXJXJXJXJX",
"JXJXJXJXJXJXJXJXJXJXJXJXJXJXJXJXJXJXJXJXJXJXJXJXJXJXJXJXJXJXJXJXJXJXJXJXJXJXJXJXJXJXJXJXJXJXJXJXJXJXJXJXJXJXJXJXJXJXJXJX",
"JXJXJXJXJXJXJXJXJXJXJXJXJXJXJXJXJXJXJXJXJXJXJXJXJXJXJXJXJXJXJXJXJXJXJXJXJXJXJXJXJXJXJXJXJXJXJXJXJXJXJXJXJXJXJXJXJXJXJXJX",
"JXJXJXJXJXJXJXJXJXJXJXJXJXJXJXJXJXJXJXJXJXJXJXJXJXJXJXJXJXJXJXJXJXJXJXJXJXJXJXJXJXJXJXJXJXJXJXJXJXJXJXJXJXJXJXJXJXJXJXJX",
"JXJXJXJXJXJXJXJXJXJXJXJXJXJXJXJXJXJXJXJXJXJXJXJXJXJXJXJXJXJXJXJXJXJXJXJXJXJXJXJXJXJXJXJXJXJXJXJXJXJXJXJXJXJXJXJXJXJXJXJX",
"JXJXJXJXJXJXJXJXJXJXJXJXJXJXJXJXJXJXJXJXJXJXJXJXJXJXJXJXJXJXJXJXJXJXJXJXJXJXJXJXJXJXJXJXJXJXJXJXJXJXJXJXJXJXJXJXJXJXJXJX",
"JXJXJXJXJXJXJXJXJXJXJXJXJXJXJXJXJXJXJXJXJXJXJXJXJXJXJXJXJXJXJXJXJXJXJXJXJXJXJXJXJXJXJXJXJXJXJXJXJXJXJXJXJXJXJXJXJXJXJXJX",
"JXJXJXJXJXJXJXJXJXJXJXJXJXJXJXJXJXJXJXJXJXJXJXJXJXJXJXJXJXJXJXJXJXJXJXJXJXJXJXJXJXJXJXJXJXJXJXJXJXJXJXJXJXJXJXJXJXJXJXJX",
"JXJXJXJXJXJXJXJXJXJXJXJXJXJXJXJXJXJXJXJXJXJXJXJXJXJXJXJXJXJXJXJXJXJXJXJXJXJXJXJXJXJXJXJXJXJXJXJXJXJXJXJXJXJXJXJXJXJXJXJX",
"JXJXJXJXJXJXJXJXJXJXJXJXJXJXJXJXJXJXJXJXJXJXJXJXJXJXJXJXJXJXJXJXJXJXJXJXJXJXJXJXJXJXJXJXJXJXJXJXJXJXJXJXJXJXJXJXJXJXJXJX",
"JXJXJXJXJXJXJXJXJXJXJXJXJXJXJXJXJXJXJXJXJXJXJXJXJXJXJXJXJXJXJXJXJXJXJXJXJXJXJXJXJXJXJXJXJXJXJXJXJXJXJXJXJXJXJXJXJXJXJXJX",
"JXJXJXJXJXJXJXJXJXJXJXJXJXJXJXJXJXJXJXJXJXJXJXJXJXJXJXJXJXJXJXJXJXJXJXJXJXJXJXJXJXJXJXJXJXJXJXJXJXJXJXJXJXJXJXJXJXJXJXJX",
"JXJXJXJXJXJXJXJXJXJXJXJXJXJXJXJXJXJXJXJXJXJXJXJXJXJXJXJXJXJXJXJXJXJXJXJXh h JXJXJXJXJXJXJXJXJXJXJXJXJXJXJXJXJXJXJXJXJXJX",
"JXJXJXJXJXJXJXJXJXJXJXJXJXJXJXJXJXJXJXJXJXJXJXJXJXJXJXJXJXJXh h h h h JXh h JXJXJXJXJXJXJXJXJXJXJXJXJXJXJXJXJXJXJXJXJXJX",
"JXJXJXJXJXJXJXJXJXJXJXJXJXJXJXJXJXJXJXJXJXJXJXJXJXJXJXJXh h h h h h h h h h h JXJXJXJXJXJXJXJXJXJXJXJXJXJXJXJXJXJXJXJXJX",
"JXJXJXJXJXJXJXJXJXJXJXJXJXJXJXJXJXJXJXJXJXJXJXJXJXJXJXh h g g g g h h h h h h JXJXJXJXJXJXJXJXJXJXJXJXJXJXJXJXJXJXJXJXJX",
"JXJXJXJXJXJXJXJXJXJXJXJXJXJXJXJXJXJXJXJXJXJXJXJXJXJXJXf u 0 s s > p g h h h h JXJXJXJXJXJXJXJXJXJXJXJXJXJXJXJXJXJXJXJXJX",
"JXJXJXJXJXJXJXJXJXJXJXJXJXJXJXJXJXJXJXJXJXJXJXJXJXg = , A ' z.z.o.m ; h h h h JXJXJXJXJXJXJXJXJXJXJXJXJXJXJXJXJXJXJXJXJX",
"JXJXJXJXJXJXJXJXJXJXJXJXJXJXJXJXJXJXJXJXJXJXJXh g 2 / c.%X8XtXyXeX|.( q h h h JXJXJXJXJXJXJXJXJXJXJXJXJXJXJXJXJXJXJXJXJX",
"JXJXJXJXJXJXJXJXJXJXJXJXJXJXJXJXJXJXJXJXJXJXh w 4 x.jXNXzXqX9X9X1X5X*X) : h h JXJXJXJXJXJXJXJXJXJXJXJXJXJXJXJXJXJXJXJXJX",
"JXJXJXJXJXJXJXJXJXJXJXJXJXJXJXJXJXJXJXJXJXJXi v S.nXBXvXSXsX>X.X!.W.(.M.j p h JXJXJXJXJXJXJXJXJXJXJXJXJXJXJXJXJXJXJXJXJX",
"JXJXJXJXJXJXJXJXJXJXJXJXJXJXJXJXJXJXJXJXJXJX1 A.CXGXAXxXaXXXT.H.F.K.L.D.! e h h JXJXJXJXJXJXJXJXJXJXJXJXJXJXJXJXJXJXJXJX",
"JXJXJXJXJXJXJXJXJXJXJXJXJXJXJXJXJXJXJXJXJX* Y kXHXZXlXdX3X/.t.y.u.P.L.E.#.z g h JXJXJXJXJXJXJXJXJXJXJXJXJXJXJXJXJXJXJXJX",
"JXJXJXJXJXJXJXJXJXJXJXJXJXJXJXJXJXJXJXh f & g.VXFXDXcX-X6XoX;.6.d.^.U.R.~ r g h JXJXJXJXJXJXJXJXJXJXJXJXJXJXJXJXJXJXJXJX",
"JXJXJXJXJXJXJXJXJXJXJXJXJXJXJXJXJXJXJXh f < v.bXMXfXC.o # $Xi.:.~.Y.I.q.J y h JXJXJXJXJXJXJXJXJXJXJXJXJXJXJXJXJXJXJXJXJX",
"JXJXJXJXJXJXJXJXJXJXJXJXJXJXJXJXJXJXh h f 3 l.0XrX X. O X Z.:X| ,.5.r.W 9 h h h JXJXJXJXJXJXJXJXJXJXJXJXJXJXJXJXJXJXJXJX",
"JXJXJXJXJXJXJXJXJXJXJXJXJXJXJXJXJXJXh h h f I @ &XOXG   + ;XmX#XV.'.a.S p h h h h JXJXJXJXJXJXJXJXJXJXJXJXJXJXJXJXJXJXJX",
"JXJXJXJXJXJXJXJXJXJXJXJXJXJXJXJXJXJXJXJXh h 7 6 b.gX`.m.=XuX2X4X<X].T r h h h h JXJXJXJXJXJXJXJXJXJXJXJXJXJXJXJXJXJXJXJX",
"JXJXJXJXJXJXJXJXJXJXJXJXJXJXJXJXJXJXJXJXJXh f a @XhXiXpX7X[.Q.w.=.[ t h h h h h JXJXJXJXJXJXJXJXJXJXJXJXJXJXJXJXJXJXJXJX",
"JXJXJXJXJXJXJXJXJXJXJXJXJXJXJXJXJXJXJXJXJXh g x 2.@.).wX,X0.R M 8.7.b d h h h h JXJXJXJXJXJXJXJXJXJXJXJXJXJXJXJXJXJXJXJX",
"JXJXJXJXJXJXJXJXJXJXJXJXJXJXJXJXJXJXJXJXJXJXh r F ..h.+X{.s.L 8 4.G.E r h h h h JXJXJXJXJXJXJXJXJXJXJXJXJXJXJXJXJXJXJXJX",
"JXJXJXJXJXJXJXJXJXJXJXJXJXJXJXJXJXJXJXJXJXJXJXg v p._.N.}.j.c % ^ J.-.B y h h JXJXJXJXJXJXJXJXJXJXJXJXJXJXJXJXJXJXJXJXJX",
"JXJXJXJXJXJXJXJXJXJXJXJXJXJXJXJXJXJXJXJXJXJXJXJX0 Q +.O.` P $ _ 3.9.&.V g h JXJXJXJXJXJXJXJXJXJXJXJXJXJXJXJXJXJXJXJXJXJX",
"JXJXJXJXJXJXJXJXJXJXJXJXJXJXJXJXJXJXJXJXJXJXJXJXJXn Z C 5 D  .n.%.>.H t h JXJXJXJXJXJXJXJXJXJXJXJXJXJXJXJXJXJXJXJXJXJXJX",
"JXJXJXJXJXJXJXJXJXJXJXJXJXJXJXJXJXJXJXJXJXJXJXJXJXh g 0 U k.B.1.<.] y h JXJXJXJXJXJXJXJXJXJXJXJXJXJXJXJXJXJXJXJXJXJXJXJX",
"JXJXJXJXJXJXJXJXJXJXJXJXJXJXJXJXJXJXJXJXJXJXJXJXJXh h - X.f.e.9.} h g h JXJXh JXJXJXJXJXJXJXJXJXJXJXJXJXJXJXJXJXJXJXJXJX",
"JXJXJXJXJXJXJXJXJXJXJXJXJXJXJXJXJXJXJXJXJXJXJXJXJXh h y K $.*.{ N d h h h h JXJXJXJXJXJXJXJXJXJXJXJXJXJXJXJXJXJXJXJXJXJX",
"JXJXJXJXJXJXJXJXJXJXJXJXJXJXJXJXJXJXJXJXJXJXJXJXJXJXJXJXJXk l h p h h h h JXJXJXJXJXJXJXJXJXJXJXJXJXJXJXJXJXJXJXJXJXJXJX",
"JXJXJXJXJXJXJXJXJXJXJXJXJXJXJXJXJXJXJXJXJXJXJXJXJXJXJXJXJXJXJXJXJXJXJXJXJXJXJXJXJXJXJXJXJXJXJXJXJXJXJXJXJXJXJXJXJXJXJXJX",
"JXJXJXJXJXJXJXJXJXJXJXJXJXJXJXJXJXJXJXJXJXJXJXJXJXJXJXJXJXJXJXJXJXJXJXJXJXJXJXJXJXJXJXJXJXJXJXJXJXJXJXJXJXJXJXJXJXJXJXJX",
"JXJXJXJXJXJXJXJXJXJXJXJXJXJXJXJXJXJXJXJXJXJXJXJXJXJXJXJXJXJXJXJXJXJXJXJXJXJXJXJXJXJXJXJXJXJXJXJXJXJXJXJXJXJXJXJXJXJXJXJX",
"JXJXJXJXJXJXJXJXJXJXJXJXJXJXJXJXJXJXJXJXJXJXJXJXJXJXJXJXJXJXJXJXJXJXJXJXJXJXJXJXJXJXJXJXJXJXJXJXJXJXJXJXJXJXJXJXJXJXJXJX",
"JXJXJXJXJXJXJXJXJXJXJXJXJXJXJXJXJXJXJXJXJXJXJXJXJXJXJXJXJXJXJXJXJXJXJXJXJXJXJXJXJXJXJXJXJXJXJXJXJXJXJXJXJXJXJXJXJXJXJXJX",
"JXJXJXJXJXJXJXJXJXJXJXJXJXJXJXJXJXJXJXJXJXJXJXJXJXJXJXJXJXJXJXJXJXJXJXJXJXJXJXJXJXJXJXJXJXJXJXJXJXJXJXJXJXJXJXJXJXJXJXJX",
"JXJXJXJXJXJXJXJXJXJXJXJXJXJXJXJXJXJXJXJXJXJXJXJXJXJXJXJXJXJXJXJXJXJXJXJXJXJXJXJXJXJXJXJXJXJXJXJXJXJXJXJXJXJXJXJXJXJXJXJX",
"JXJXJXJXJXJXJXJXJXJXJXJXJXJXJXJXJXJXJXJXJXJXJXJXJXJXJXJXJXJXJXJXJXJXJXJXJXJXJXJXJXJXJXJXJXJXJXJXJXJXJXJXJXJXJXJXJXJXJXJX",
"JXJXJXJXJXJXJXJXJXJXJXJXJXJXJXJXJXJXJXJXJXJXJXJXJXJXJXJXJXJXJXJXJXJXJXJXJXJXJXJXJXJXJXJXJXJXJXJXJXJXJXJXJXJXJXJXJXJXJXJX",
"JXJXJXJXJXJXJXJXJXJXJXJXJXJXJXJXJXJXJXJXJXJXJXJXJXJXJXJXJXJXJXJXJXJXJXJXJXJXJXJXJXJXJXJXJXJXJXJXJXJXJXJXJXJXJXJXJXJXJXJX",
"JXJXJXJXJXJXJXJXJXJXJXJXJXJXJXJXJXJXJXJXJXJXJXJXJXJXJXJXJXJXJXJXJXJXJXJXJXJXJXJXJXJXJXJXJXJXJXJXJXJXJXJXJXJXJXJXJXJXJXJX",
"JXJXJXJXJXJXJXJXJXJXJXJXJXJXJXJXJXJXJXJXJXJXJXJXJXJXJXJXJXJXJXJXJXJXJXJXJXJXJXJXJXJXJXJXJXJXJXJXJXJXJXJXJXJXJXJXJXJXJXJX",
"JXJXJXJXJXJXJXJXJXJXJXJXJXJXJXJXJXJXJXJXJXJXJXJXJXJXJXJXJXJXJXJXJXJXJXJXJXJXJXJXJXJXJXJXJXJXJXJXJXJXJXJXJXJXJXJXJXJXJXJX",
"JXJXJXJXJXJXJXJXJXJXJXJXJXJXJXJXJXJXJXJXJXJXJXJXJXJXJXJXJXJXJXJXJXJXJXJXJXJXJXJXJXJXJXJXJXJXJXJXJXJXJXJXJXJXJXJXJXJXJXJX",
"JXJXJXJXJXJXJXJXJXJXJXJXJXJXJXJXJXJXJXJXJXJXJXJXJXJXJXJXJXJXJXJXJXJXJXJXJXJXJXJXJXJXJXJXJXJXJXJXJXJXJXJXJXJXJXJXJXJXJXJX",
"JXJXJXJXJXJXJXJXJXJXJXJXJXJXJXJXJXJXJXJXJXJXJXJXJXJXJXJXJXJXJXJXJXJXJXJXJXJXJXJXJXJXJXJXJXJXJXJXJXJXJXJXJXJXJXJXJXJXJXJX",
"JXJXJXJXJXJXJXJXJXJXJXJXJXJXJXJXJXJXJXJXJXJXJXJXJXJXJXJXJXJXJXJXJXJXJXJXJXJXJXJXJXJXJXJXJXJXJXJXJXJXJXJXJXJXJXJXJXJXJXJX"
};
