/* XPM */
static char *d0d74e79ef9d4de6af24dac1b7701dd9[] = {
/* columns rows colors chars-per-pixel */
"48 48 5 1 ",
"  c #151315",
". c #181616",
"X c #1C1918",
"o c #25201F",
"O c #2A2626",
/* pixels */
"               oooooooOOOOOOO                   ",
"  oo    ....XoOOOOOOOOoXXXXooooOOOoo   ..ooooX  ",
"  Xoo  .ooooXXXXXXXXXXXXXXXXXXXXXXXoo ..oXXXXXXX",
" XXXO .ooooXXXXXXXXXXXXXXXXXXXXXXXXXO ..oXXXXXXX",
" XXXX .oXXXXXXXXXXXXXXXXXXXXXXXXXXX.X .oXXXXXXXX",
"  XX. .XXXX.XXX.....XXXXXXXXXXXXXX... ....X.XXXX",
". ... ..X...XXX............XXX....... ......XX..",
"  ... ............................... ..........",
"                                                ",
"   OOOOOOOOOOXOOOOooo    XOOOOOOX    ....... oo ",
" XXXXXXXXXXXXXXXXXXOoooooXXXXXXXXXXXXoo..... XXX",
" XXXXXXXXXXXXXXXXXXXXXXXXXXXXXXXXXXXXXooooo. XXX",
" XXXXXXXXXXXXXXXXXXXXXXXXXXXXXXXXXXXXXXXXXo. XXX",
" XX.....XXXXXXXXXXXXXXXXX.XXXXXX.XXXXXXXXXX. XXX",
"  ........XXXXX........XX..XXXX..XXXXXXXXX.. XXX",
"    ........X..............XXXX.......XXX..  XX.",
"                                                ",
"OOoo    OOOOXXOOOOO    OOOOXXooOOOO   oooo   ooO",
"XXXoo  OXXXXXXXXOOOO  OOXXXXXXXXXXO.  XXXoo  XXX",
"XXXXO OOXXXXXXXXXXXOO OXXXXXXXXXXXX. XXXXooo XXX",
"XXXXX OXXXXXXXXXXXXXX XXXXXXXXXXXXX. XXXXXXo XXX",
"XXXX. XXXXX.XXXXXXXX. XXXX.XXXX.XXX. XXXXXXX XXX",
"....  .XX...XX...XX.. XXX...XX...X.. XXXXXXX X..",
"....  ............... X.....XX...... ....... ...",
"                                                ",
"OOOOOOooooOOOOOOooooo                  oooOOOooO",
"XXXXXXXXXXXXXXXXXXX..  OOOOOOoooXXXXXXXXXXXXXXXX",
"XXXXXXXXXXXXXXXXXXX.. OXXXXXXXXXXXXXXXXXXXXXXXXX",
"XXXXXXXXXXXXXXXXXXX.. OXXXXXXXXXXXXXXXXXXXXXXXXX",
"XXX.....XXXXXXXXX...  .XXXXXXXXXXXX.....XXXXXXXX",
"..........XXXXXX.... .......XXXXX...........XXXX",
"............XXX..... .......................XXX.",
"                               ooooooooooooo    ",
"OOoo    OOOOXXOOOOoooooooooo  ooXXXXXXXXXXXXXooO",
"XXXoo  OXXXXXXXXXXXXXXXXXXXoo oXXXXXXXXXXXXXXXXX",
"XXXXO OOXXXXXXXXXXXXXXXXXXXXX XXXXXXXXXXXXXXXXXX",
"XXXXX OXXXXXXXXXXXXXXXXXXXXX. XXXXXXXXXXXXXXXXXX",
"XXXX. XXXXX.XX.....XXXXXXXX.. ...XXXXXXXX...XXXX",
"..... .XX...XXX.....XXX.....  ....XXXX......XX..",
"..... .....................     ................",
"             ..............                     ",
"OOOOOOooooOOO OOooooo oooooooooOOOOOOOooooOOOooO",
"oooOOOXXXXXXX XXXXXOO oXXXXXXXXXXXXXXXXXXXXXXooo",
"XXXXXXXXXXXXX XXXXXXO XXXXXXXXXXXXXXXXXXXXXXXXXX",
"XXXXXXXXXXXXX XXXXXXX XXXXXXXXXXXXXXXXXXXXXXXXXX",
"XXX.....XXXXX  XX...  .XXXXXXXXXXXX.....XXXXXXXX",
"XXX......XXXXX X..   ...XXXXXXXXXXX......XXXXXXX",
". ....   X..XX       .......................XXX."
};
