/* XPM */
static char *result[] = {
/* columns rows colors chars-per-pixel */
"60 60 193 2 ",
"   c #160F15",
".  c #1C0E14",
"X  c #170E19",
"o  c #1A0D1C",
"O  c #111111",
"+  c #1B1413",
"@  c #16151A",
"#  c #1B111B",
"$  c #1C181A",
"%  c #250B15",
"&  c #2A0A15",
"*  c #250E1B",
"=  c #2C0C1A",
"-  c #300A15",
";  c #340D1C",
":  c #3D0D1C",
">  c #211017",
",  c #211B16",
"<  c #26121A",
"1  c #2C141E",
"2  c #37111C",
"3  c #2D2518",
"4  c #342916",
"5  c #3F3416",
"6  c #1E0C21",
"7  c #1C1924",
"8  c #1D172E",
"9  c #0D0B30",
"0  c #191A34",
"q  c #220C25",
"w  c #280921",
"e  c #26062D",
"r  c #29072E",
"t  c #26092B",
"y  c #2A0C2B",
"u  c #340C24",
"i  c #3B0E24",
"p  c #37092E",
"a  c #221023",
"s  c #211E29",
"d  c #361624",
"f  c #3B1222",
"g  c #371729",
"h  c #250630",
"j  c #2B0732",
"k  c #250E31",
"l  c #2E0B31",
"z  c #320B35",
"x  c #34063A",
"c  c #350A39",
"v  c #3A0C3C",
"b  c #2A1D31",
"n  c #341433",
"m  c #2B2025",
"M  c #25212D",
"N  c #35262B",
"B  c #262432",
"V  c #2A2535",
"C  c #2D263C",
"Z  c #2D2839",
"A  c #342635",
"S  c #3B2631",
"D  c #392C34",
"F  c #32273F",
"G  c #332B3F",
"H  c #3D2B3D",
"J  c #470C17",
"K  c #520F1C",
"L  c #4B3B17",
"P  c #5D3C1C",
"I  c #653C19",
"U  c #471D2E",
"Y  c #541E29",
"T  c #450D37",
"R  c #4F1D31",
"E  c #451B3D",
"W  c #551E33",
"Q  c #711C27",
"!  c #413029",
"~  c #452435",
"^  c #472D35",
"/  c #432E3D",
"(  c #532733",
")  c #43303C",
"_  c #4A323B",
"`  c #583B39",
"'  c #603F29",
"]  c #683E34",
"[  c #4E401B",
"{  c #674B1A",
"}  c #6E482D",
"|  c #664338",
" . c #7A4633",
".. c #724A36",
"X. c #744A39",
"o. c #7A5436",
"O. c #1B1E43",
"+. c #3B0740",
"@. c #3D0A41",
"#. c #1D2350",
"$. c #222244",
"%. c #2D2642",
"&. c #2E2B44",
"*. c #26264B",
"=. c #252949",
"-. c #2C2B4C",
";. c #332B43",
":. c #3A2E45",
">. c #332B48",
",. c #363146",
"<. c #3A3047",
"1. c #37324B",
"2. c #3A334D",
"3. c #2F325E",
"4. c #353451",
"5. c #3C3652",
"6. c #3E3956",
"7. c #3E3A58",
"8. c #32326C",
"9. c #420B45",
"0. c #490C44",
"q. c #460C48",
"w. c #4A0C4C",
"e. c #471842",
"r. c #4C104B",
"t. c #501B48",
"y. c #4E0C50",
"u. c #520C53",
"i. c #452443",
"p. c #4C3342",
"a. c #473748",
"s. c #4B3D4D",
"d. c #543744",
"f. c #563A45",
"g. c #423754",
"h. c #453C53",
"j. c #4A3D51",
"k. c #423C59",
"l. c #5C3E53",
"z. c #433A66",
"x. c #503C63",
"c. c #4F4148",
"v. c #564645",
"b. c #4B4254",
"n. c #524653",
"m. c #564658",
"M. c #794949",
"N. c #7B5341",
"B. c #795943",
"V. c #6A4355",
"C. c #73405C",
"Z. c #4C416B",
"A. c #6E4A6C",
"S. c #734D68",
"D. c #823E1B",
"F. c #D62627",
"G. c #ED2828",
"H. c #924D17",
"J. c #9D761D",
"K. c #B46B1E",
"L. c #824C2E",
"P. c #8A532C",
"I. c #94542A",
"U. c #9D552A",
"Y. c #945B2F",
"T. c #9C5A2C",
"R. c #8B4F35",
"E. c #935B30",
"W. c #AB5727",
"Q. c #9D7325",
"!. c #AE6629",
"~. c #AB642C",
"^. c #B96625",
"/. c #BA6825",
"(. c #B36B2A",
"). c #A56836",
"_. c #AA7532",
"`. c #B27A32",
"'. c #D07C1E",
"]. c #C17C24",
"[. c #C47928",
"{. c #D47725",
"}. c #D57D23",
"|. c #855C42",
" X c #925C44",
".X c #AD6D54",
"XX c #875367",
"oX c #8F5974",
"OX c #95607E",
"+X c #B28529",
"@X c #DC8223",
"#X c #D98923",
"$X c #9A6387",
/* pixels */
"O O O O O O O O O O O O O O O O O O O O O O O O O O O O O O O O O O O O O O O O O O O O O O O O O O O O O O O O O O O O ",
"O O O O O O O O O O O O O O O O O O O O O O O O O O O O O O O O O O O O O O O O O O O O O O O O O O O O O O O O O O O O ",
"O O O O O O O O O O O O O O O O O O O O O O O O O O O O O O O O O O O O O O O O O O O O O O O O O O O O O O O O O O O O ",
"O O O O O O O O O O O O O O O O O O O O O O O O O O O O O O O O O O O O O O O O O O O O O O O O O O O O O O O O O O O O ",
"O O O O O O O O O O O O O O O O O O O O O O O O O O O O O O O O O O O O O O O O O O O O O O O O O O O O O O O O O O O O ",
"O O O O O O O O O O O O O O O O O O O O O O O O O O O O O O O O O O # a O O q # O O O O O O O O O O O O O O O O O O O O ",
"O O O O O O O O O O O O O O O O O O O O O O O O O O O O O O O O O O c r + # v # a O O O O O O O O O O O O O O O O O O O ",
"O O O O O O O O O O O O O O O O O O O O O O O O O O O O O O O O O O y   O   # o y # O O O O O O O O O O O O O O O O O O ",
"O O O O O O O O O O O O O O O O O O O O O O O O O O O O O O O O O O # O O O O # q @ O O O O O O O O O O O O O O O O O O ",
"O O O O O O O O O O O O O O O O O O O O O O O O O O O O O O O O O O O O O O O # v @.# O O o O O O O O O O O O O O O O O ",
"O O O O O O O O O O O O O O O O O O O O O O O O O O O O O O O O # O O O y O O z 9.y O O q v O O O O O O O O O O O O O O ",
"O O O O O O O O O O O O O O O O O O O O O O O O O O O O O O O q # O O O v O o 9.q O O O t 9.# O O O O O O O O O O O O O ",
"O O O O O O O O O O O O O O O O O O O O O O O O O O O O O O O # O O O a c o l j o O O O 6 9.o O O O O O O O O O O O O O ",
"O O O O O O O O O O O O O O O O O O O O O O O O O O O O O O O O O O O a z r h t 6 y # O o x X O O O O O O O O O O O O O ",
"O O O O O O O O O O O O O O O O O O O O O O O O O O O O O O O O O O O q r j r r e c v #   6 # O O O O O O O O O O O O O ",
"O O O O O O O O O O O O O O O O O O O O O O O O O O O O O O O O O O t c v j r h e z 9.q.# O 6 a O O O O O O O O O O O O ",
"O O O O O O O O O O O O O O O O O O O O O O O O O O O O O O O O O q q.u.+.n l y e r v u.q O 6 c t O O O O O O O O O O O ",
"O O O O O O O O O O O O O O O O O O O O O O O O O O O O O O @ z < v y.q.h n ; u j r j v q O O 6 l O O O O O O O O O O O ",
"O O O O O O O O O O O O O O O O O O O O O O O O O O O O O # 9.z y q.u.x e u 2 ~ 9.r r e # O O O o   O O O O O O O O O O ",
"O O O O O O O O O O O O O O O O O O O O O O O O O O O O O v c # z u.q.h r ; f ^ t.x e e v l O O   O O O O O O O O O O O ",
"O O O O O O O O O O O O O O O O O O O O O O O O O O O O O z z   c u.9.e i & p E ~ e.r j w.y.t O O O O O O O O O O O O O ",
"O O O O O O O O O O O O O O O O O O O O O O O O O O O O O O r 6 z x v z i : q.r.! e.q.z q.u.9.  O O O O O O O O O O O O ",
"O O O O O O O O O O O O O O O O O O O O O O O O O O   O O O q r r q j y ; i w.w.S E u.x q.q.x   O O O O O O O O O O O O ",
"O O O O O O O O O O O O O O O O O O O O O O O O O O O O O O   6 q y r r = 2 T E ~ w.9.j z r 6   O O O O O O O O O O O O ",
"O O O O O O O O O O O O O O O O O O O O O O O O O O O O O O O O y q.z 9.p & : g e.u.@.e e O O O O O O O O O O O O O O O ",
"O O O O O O O O O O O O O O O O O O O O O O O O O O O O O O O o q.u.j q.y.* & ; 0.u.j e 6 O O O O O O O O O O O O O O O ",
"O O O O O O O O O O O O O O O O O O O O O O O O O O O O O O O # q.q.r c i.Y - & i 9.j j X O O O O O O O O O O O O O O O ",
"O O O O O O O O O O O O O O O O O O O O O O O O O O O O O O O   z x r k ( F.J % ; r e o   O O O O O O O O O O O O O O O ",
"O O O O O O O O O O O O O O O O O O O O O O O O O O O O O O O O X e e k Y G.K % = r j   O O O O O O O O O O O O O O O O ",
"O O O O O O O O O O O O O O O O O O O O O O O O B <.B O O O O O   q e r S Q : & = h 6   O O O O O O O O O O O O O O O O ",
"O O O O O O O O O O O O O O O O O O O O O O O F x.Z.x.Z O O O O O o h h n = % & e t X O O O O O O O O O O O O O O O O O ",
"O O O O O O O O O O O O O O O O O O O O O O O h.z.j.s.,.@ O O O O   X 6 = % % w q   O O O O O O O O O O O O O O O O O O ",
"O O O O O O O O O O O O O O O O O O O O O O M 8.b.~.D.F @ O O O O O O O . = * o O O O O O O O O O O O O O O O O O O O O ",
"O O O O O O O O O O O O O O O O O O O O + O D 8.c.{.H.b 8 O O O O O O O % ; % O O O O O O O O O O O O O O O O O O O O O ",
"O O O O O O O O O O O O O O O O O O O 3 J.K. Xm.:.L.I 8 M [ 5 O O O O O . - > O O O O O O O O O O O O O O O O O O O O O ",
"O O O O O O O O O O O O O O O O O O O O , ` ).#X.Xx.9 ! +X#XL O O O O O   & + O O O O O O O O O O O O O O O O O O O O O ",
"O O O O O O O O O O O O O O O O O O O O F 3.` /.{.).n.n.`.{ O O O O O O O 1 O O O O O O O O O O O O O O O O O O O O O O ",
"O O O O O O O O O O O O O O O O O O O # g.2.$.` T.#X}.].}.' @ O O O O O d % O O O O O O O O O O O O O O O O O O O O O O ",
"O O O O O O O O O O O O O O O O O O O Z k.Z 7 Z .. .L.W./._ 1.V O O O O C.N   O O O O O O O O O O O O O O O O O O O O O ",
"O O O O O O O O O O O O O O O O O O M k.5.s O 7 ^ P.p.5.| m C 5.4.,.,.h.OXf.O O O O O O O O O O O O O O O O O O O O O O ",
"O O O O O O O O O O O O O O O O O O 1.6.&.$ O O 0 M. Xb.-.@ 7 Z >.2.7.7.S._ O O O O O O O O O O O O O O O O O O O O O O ",
"O O O O O O O O O O O O O O O O O @ ,.2.M @ O O 7 -.B.n.2.4 O O V C ;.1.A . O O O O O O O O O O O O O O O O O O O O O O ",
"O O O O O O O O O O O O O O O O O M h.>.7 O O O 4 #.o.| c.{ O O O # 7 M ;   O O O O O O O O O O O O O O O O O O O O O O ",
"O O O O O O O O O O O O O O O O O V 7.>.7 O O 4 Q.v.g._.o.P + O O O O # :   O O O O O O O O O O O O O O O O O O O O O O ",
"O O O O O O O O O O O O O O O O O B g.>.7 O O 3 Y.#Xo.~.(.P O O O O O 1 f + O O O O O O O O O O O O O O O O O O O O O O ",
"O O O O O O O O O O O O O O O O   a.$XA.7 O O =.&.I.}.@X[.D # O O O O < - O O O O O O O O O O O O O O O O O O O O O O O ",
"O O O O O O O O O O O O O O O O O l.OXoXd.O M 5.*.;.!.}.}. .$ O O O O + % O O O O O O O O O O O O O O O O O O O O O O O ",
"O O O O O O O O O O O O O O O O O _ XXV.d.M &.7.*.| W./.'.| $ O O O O U   O O O O O O O O O O O O O O O O O O O O O O O ",
"O O O O O O O O O O O O O O O O O $ V.) $ } a.=.) ..2.U.W./ @ O O O O W . O O O O O O O O O O O O O O O O O O O O O O O ",
"O O O O O O O O O O O O O O O O O O O O [ K.E.` P.B.k.R. .G @ O O O O R % O O O O O O O O O O O O O O O O O O O O O O O ",
"O O O O O O O O O O O O O O O O O O O O O D E.(.@X|.j.N.h.-.# O O O O d + O O O O O O O O O O O O O O O O O O O O O O O ",
"O O O O O O O O O O O O O O O O O O O O 7 4.#.;.(.X.h.|.b.;.# O O O O ; . O O O O O O O O O O O O O O O O O O O O O O O ",
"O O O O O O O O O O O O O O O O O O O O G 7.-.Y.Y.C 5.|.s.%.@ O O O 1 ;   O O O O O O O O O O O O O O O O O O O O O O O ",
"O O O O O O O O O O O O O O O O O O O B 6.6.&.o.^.| ;.X.j.&.@ O O O d <   O O O O O O O O O O O O O O O O O O O O O O O ",
"O O O O O O O O O O O O O O O O O O M 5.g.7.6.*._ U.L.] :.%.@ O O O % & O O O O O O O O O O O O O O O O O O O O O O O O ",
"O O O O O O O O O O O O O O O O O O ;.7.7.7.7.>.O.:./...%.%.@ O O O > & O O O O O O O O O O O O O O O O O O O O O O O O ",
"O O O O O O O O O O O O O O O O O s 4.7.7.7.5.>.;.$.H U.Y._ $ O O O < % O O O O O O O O O O O O O O O O O O O O O O O O ",
"O O O O O O O O O O O O O O O O O Z 7.6.5.2.5.6.k.g.*.H W.^.4 O O O = O O O O O O O O O O O O O O O O O O O O O O O O O ",
"O O O O O O O O O O O O O O O O @ ;.6.1.;.;.2.7.5.6.5.-.;./ @ O O O & O O O O O O O O O O O O O O O O O O O O O O O O O ",
"O O O O O O O O O O O O O O O O 7 Z ;.G Z ;.>.,.;.C C G C C @   O   = + O O O O O O O O O O O O O O O O O O O O O O O O "
};
