/* XPM */
static char *result[] = {
/* columns rows colors chars-per-pixel */
"60 60 189 2 ",
"   c #270916",
".  c #290916",
"X  c #2C0A1A",
"o  c #320D1E",
"O  c #380E1F",
"+  c #29072F",
"@  c #2C0A2E",
"#  c #330B23",
"$  c #390E22",
"%  c #360B28",
"&  c #3C0D2D",
"*  c #251723",
"=  c #391627",
"-  c #3E142C",
";  c #3E1C2B",
":  c #361829",
">  c #2B0731",
",  c #2D0B33",
"<  c #310A36",
"1  c #3B0B33",
"2  c #35093A",
"3  c #3A0A3C",
"4  c #311237",
"5  c #391D31",
"6  c #34153A",
"7  c #3A133F",
"8  c #391C3E",
"9  c #371A3D",
"0  c #3E212D",
"q  c #2C2033",
"w  c #3C2130",
"e  c #382A3C",
"r  c #460E1C",
"t  c #68131C",
"y  c #683A1F",
"u  c #400E2F",
"i  c #471A27",
"p  c #430D3B",
"a  c #420C37",
"s  c #421E36",
"d  c #42193B",
"f  c #43222F",
"g  c #49352B",
"h  c #432433",
"j  c #4A233E",
"k  c #402E3E",
"l  c #4B2D3B",
"z  c #482936",
"x  c #542A3B",
"c  c #44323E",
"v  c #4A333B",
"b  c #563A3B",
"n  c #5A3D3D",
"m  c #70262F",
"M  c #643E37",
"N  c #613E3C",
"B  c #693826",
"V  c #66453A",
"C  c #754A35",
"Z  c #7A4B34",
"A  c #754D3A",
"S  c #77473B",
"D  c #7E5035",
"F  c #7E533D",
"G  c #3E0E41",
"H  c #3D1D42",
"J  c #3F1644",
"K  c #3D2142",
"L  c #332B44",
"P  c #3A2E44",
"I  c #352E49",
"U  c #3A324C",
"Y  c #3F384F",
"T  c #37304B",
"R  c #3B3652",
"E  c #3E3956",
"W  c #420B45",
"Q  c #480C44",
"!  c #460C49",
"~  c #4C0C4E",
"^  c #421546",
"/  c #481643",
"(  c #421946",
")  c #46134A",
"_  c #4C124B",
"`  c #451C4A",
"'  c #4A1C4D",
"]  c #491D40",
"[  c #4D0C50",
"{  c #4F1952",
"}  c #511453",
"|  c #511B53",
" . c #561E58",
".. c #412546",
"X. c #422847",
"o. c #46254A",
"O. c #462A4B",
"+. c #49204D",
"@. c #443343",
"#. c #4A3540",
"$. c #4A334C",
"%. c #43394D",
"&. c #493B4B",
"*. c #42364B",
"=. c #573B46",
"-. c #4E2A52",
";. c #5D2A5E",
":. c #58245A",
">. c #423B55",
",. c #4C3E54",
"<. c #433D5A",
"1. c #4E3652",
"2. c #573A5A",
"3. c #643749",
"4. c #683950",
"5. c #453D61",
"6. c #58444E",
"7. c #594547",
"8. c #4D4454",
"9. c #46425C",
"0. c #4A455C",
"q. c #4F4A5F",
"w. c #564356",
"e. c #6C4C44",
"r. c #6A4D47",
"t. c #744F42",
"y. c #6F5049",
"u. c #7E5A45",
"i. c #6D525E",
"p. c #4D4563",
"a. c #4C4961",
"s. c #4F4369",
"d. c #524D65",
"f. c #544B6A",
"g. c #574A64",
"h. c #5A4B70",
"j. c #5C5274",
"k. c #6B4A66",
"l. c #604E75",
"z. c #665678",
"x. c #8D171D",
"c. c #8B1821",
"v. c #9B252B",
"b. c #BB2629",
"n. c #894D2E",
"m. c #8E512E",
"M. c #9C5D2E",
"N. c #97552B",
"B. c #8B5932",
"V. c #835333",
"C. c #965A34",
"Z. c #A35B2C",
"A. c #A85828",
"S. c #B05E26",
"D. c #85633A",
"F. c #9C6030",
"G. c #93623B",
"H. c #A6642C",
"J. c #AF6429",
"K. c #B76627",
"L. c #B46C2C",
"P. c #BA6A26",
"I. c #AF722F",
"U. c #BC7129",
"Y. c #A96B33",
"T. c #B16D38",
"R. c #AA733A",
"E. c #C36C25",
"W. c #C67326",
"Q. c #C77827",
"!. c #C07E3B",
"~. c #845A41",
"^. c #835559",
"/. c #9E6241",
"(. c #846553",
"). c #89556B",
"_. c #8B5D74",
"`. c #95627F",
"'. c #906174",
"]. c #BC832E",
"[. c #B48B3D",
"{. c #C6802A",
"}. c #C98F36",
"|. c #C69234",
" X c #B88049",
".X c #D19542",
"XX c #905D81",
"oX c #966686",
"OX c None",
/* pixels */
"OXOXOXOXOXOXOXOXOXOXOXOXOXOXOXOXOXOXOXOXOXOXOXOXOXOXOXOXOXOXOXOXOXOXOXOXOXOXOX' -.OXOXOXOXOXOXOXOXOXOXOXOXOXOXOXOXOXOXOX",
"OXOXOXOXOXOXOXOXOXOXOXOXOXOXOXOXOXOXOXOXOXOXOXOXOXOXOXOXOXOXOXOXOXK OXOXOXOX:.[ G OXOXOXOXOXOXOXOXOXOXOXOXOXOXOXOXOXOXOX",
"OXOXOXOXOXOXOXOXOXOXOXOXOXOXOXOXOXOXOXOXOXOXOXOXOXOXOXOXOXOXOXOXOX-.OXOXOXOX' ! G OXOXOXOXOXOXOXOXOXOXOXOXOXOXOXOXOXOXOX",
"OXOXOXOXOXOXOXOXOXOXOXOXOXOXOXOXOXOXOXOXOXOXOXOXOXOXOXOXOXOXOXOXOXOXOXOXOXOX' ( OXOXOXOXOXOXOXOXOXOXOXOXOXOXOXOXOXOXOXOX",
"OXOXOXOXOXOXOXOXOXOXOXOXOXOXOXOXOXOXOXOXOXOXOXOXOXOXOXOXOXOXOXOXOXOXOXOXOX..9 OXOXOXOXOXOXOXOXOXOXOXOXOXOXOXOXOXOXOXOXOX",
"OXOXOXOXOXOXOXOXOXOXOXOXOXOXOXOXOXOXOXOXOXOXOXOXOXOXOXOXOXOXOXOXOXOXOXOXOX+.OXOXOXOXOX:.( OXOXOXOXOXOXOXOXOXOXOXOXOXOXOX",
"OXOXOXOXOXOXOXOXOXOXOXOXOXOXOXOXOXOXOXOXOXOXOXOXOXOXOXOXOXOXOXOXOXOXOXOXOX2.OXOXOXOXOX) o.OXOXOXOXOXOXOXOXOXOXOXOXOXOXOX",
"OXOXOXOXOXOXOXOXOXOXOXOXOXOXOXOXOXOXOXOXOXOXOXOXOXOXOXOXOXOXOXOXOXOXOXOXOXOXOXOXOXOXOX+.( OXOXOXOXOXOXOXOXOXOXOXOXOXOXOX",
"OXOXOXOXOXOXOXOXOXOXOXOXOXOXOXOXOXOXOXOXOXOXOXOXOXOXOXOXOXOXOXOXOXOXOXOXOXOXOXOXOXOXOXOXJ H OXOXOXOXOXOXOXOXOXOXOXOXOXOX",
"OXOXOXOXOXOXOXOXOXOXOXOXOXOXOXOXOXOXOXOXOXOXOXOXOXOXOXOXOXOXOXOXOXOXOXOXOX' ^ ` OXOXOXOX' ( OXOXOXOXOXOXOXOXOXOXOXOXOXOX",
"OXOXOXOXOXOXOXOXOXOXOXOXOXOXOXOXOXOXOXOXOXOXOXOXOXOXOXOXOXOXOXOXOXOXOX| } ~ [ ~ G OXOXOX} ' OXOXOXOXOXOXOXOXOXOXOXOXOXOX",
"OXOXOXOXOXOXOXOXOXOXOXOXOXOXOXOXOXOXOXOXOXOXOXOXOXOXOXOXOXOXOXOXOX;.} [ [ [ ~ [ ! < , H ) _ OXOXOXOXOXOXOXOXOXOXOXOXOXOX",
"OXOXOXOXOXOXOXOXOXOXOXOXOXOXOXOXOXOXOXOXOXOXOXOXOXOXOXOXOXOXOXOXOX| [ [ [ [ ~ [ ~ ! 2 + 3 ) OX;.:.OXOXOXOXOXOXOXOXOXOXOX",
"OXOXOXOXOXOXOXOXOXOXOXOXOXOXOXOXOXOXOXOXOXOXOXOXOXOXOXOXOXOXOXOX+.~ [ [ ~ ~ [ [ ~ ~ ~ 2 < H OX{ W OXOXOXOXOXOXOXOXOXOXOX",
"OXOXOXOXOXOXOXOXOXOXOXOXOXOXOXOXOXOXOXOXOXOXOXOXOXOXOXOXOXX.6 1._ ~ [ [ [ _ / ! ! ~ ~ 2 , OXOXJ 6 OXOXOXOXOXOXOXOXOXOXOX",
"OXOXOXOXOXOXOXOXOXOXOXOXOXOXOXOXOXOXOXOXOXOXOXOXOXOXOXOXOX6 H $.3 ! [ [ ! _ u # p [ ~ 2 , OXOX` OXOXOXOXOXOXOXOXOXOXOXOX",
"OXOXOXOXOXOXOXOXOXOXOXOXOXOXOXOXOXOXOXOXOXOXOXOXOXOXOXOXOX6 K X.+ < W ~ ~ Q = = d [ [ 3 4 OXOXH OXOXOXOXOXOXOXOXOXOXOXOX",
"OXOXOXOXOXOXOXOXOXOXOXOXOXOXOXOXOXOXOXOXOXOXOXOXOXOXOXOXOX9 OXOX4 + 3 ~ ~ u o h j [ [ ! ` OXOXO.X.OXOXOXOXOXOXOXOXOXOXOX",
"OXOXOXOXOXOXOXOXOXOXOXOXOXOXOXOXOXOXOXOXOXOXOXOXOXOXOXOXOXOXX.1.( 2 W ~ p $ o p h ] [ [ ! OXOXOXOXOXOXOXOXOXOXOXOXOXOXOX",
"OXOXOXOXOXOXOXOXOXOXOXOXOXOXOXOXOXOXOXOXOXOXOXOXOXOXOXOXOXOXOXOXOX| [ ~ p $ & ! d z Q [ ~ -.OXOXOXOXOXOXOXOXOXOXOXOXOXOX",
"OXOXOXOXOXOXOXOXOXOXOXOXOXOXOXOXOXOXOXOXOXOXOXOXOXOXOXOXOXOXOXOXOX .~ ~ & $ & 2 5 h _ [ ! G OXOXOXOXOXOXOXOXOXOXOXOXOXOX",
"OXOXOXOXOXOXOXOXOXOXOXOXOXOXOXOXOXOXOXOXOXOXOXOXOXOXOXOXOXOXOXOXOX .~ ~ # O % @ 5 s ~ [ ! , OXOXOXOXOXOXOXOXOXOXOXOXOXOX",
"OXOXOXOXOXOXOXOXOXOXOXOXOXOXOXOXOXOXOXOXOXOXOXOXOXOXOXOXOXOXOXOXOX} ~ ~ 1 o O = 0 / [ ! > , OXOXOXOXOXOXOXOXOXOXOXOXOXOX",
"OXOXOXOXOXOXOXOXOXOXOXOXOXOXOXOXOXOXOXOXOXOXOXOXOXOXOXOXOXOXOXOX} [ ~ [ W o X O : 3 3 2 , OXOXOXOXOXOXOXOXOXOXOXOXOXOXOX",
"OXOXOXOXOXOXOXOXOXOXOXOXOXOXOXOXOXOXOXOXOXOXOXOXOXOXOXOXOXOXOX..3 W ~ ~ _ s X X $ 3 < + 9 OXOXOXOXOXOXOXOXOXOXOXOXOXOXOX",
"OXOXOXOXOXOXOXOXOXOXOXOXOXOXOXOXOXOXOXOXOXOXOXOXOXOXOXOXOXOXOXOX6 > W ~ j m t   X p ! < K OXOXOXOXOXOXOXOXOXOXOXOXOXOXOX",
"OXOXOXOXOXOXOXOXOXOXOXOXOXOXOXOXOXOXOXOXOXOXOXOXOXOXOXOXOXOXOXOXOX6 , 3 h b.x.  X a ~ 2 4 OXOXOXOXOXOXOXOXOXOXOXOXOXOXOX",
"OXOXOXOXOXOXOXOXOXOXOXOXOXOXOXOXOXOXOXOXOXOXOXOXOXOXOXOXOXOXOXOXOXOX4 + 5 v.c.X . 1 ~ 3 < OXOXOXOXOXOXOXOXOXOXOXOXOXOXOX",
"OXOXOXOXOXOXOXOXOXOXOXOXOXOXOXOXOXOXOXOXOXOXOXOXOXOXOXOXOXOXOXOXOXOX8 , 5 i r   X Q ~ W 2 OXOXOXOXOXOXOXOXOXOXOXOXOXOXOX",
"OXOXOXOXOXOXOXOXOXOXOXOXOXOXOXOXOXOXOXOXOXOXOXOXOXl.OXOXOXOXOXOXOXOX4 > p o     1 ~ [ 3 , OXOXOXOXOXOXOXOXOXOXOXOXOXOXOX",
"OXOXOXOXOXOXOXOXOXOXOXOXOXOXOXOXOXOXOXOXOXOXOXz.h.s.f.OXOXOXOXOXOXOX, > 3   X % 3 G 3 > O.OXOXOXOXOXOXOXOXOXOXOXOXOXOXOX",
"OXOXOXOXOXOXOXOXOXOXOXOXOXOXOXOXOXOXOXOXOXOXOXh.<.,.&.d.OXOXOXOXOXOX4 > a # % 3 > + > 6 OXOXOXOXOXOXOXOXOXOXOXOXOXOXOXOX",
"OXOXOXOXOXOXOXOXOXOXOXOXOXOXOXOXOXOXOXOXOXOXOXs.w.A.B >.OXOXOXOXOXOXK , @ o # % + + 6 OXOXOXOXOXOXOXOXOXOXOXOXOXOXOXOXOX",
"OXOXOXOXOXOXOXOXOXOXOXOXOXOXOXOXOXOXOXOXOXOXl.5.e.E.y e OXOXOXOXOXOXOXOXOX= ; OXOX9 OXOXOXOXOXOXOXOXOXOXOXOXOXOXOXOXOXOX",
"OXOXOXOXOXOXOXOXOXOXOXOXOXOXOXOXOXOXOXOX|.R.i.8.v N.y * OXOXOXOXOXOXOXOXOXf OXOXOXOXOXOXOXOXOXOXOXOXOXOXOXOXOXOXOXOXOXOX",
"OXOXOXOXOXOXOXOXOXOXOXOXOXOXOXOXOXOXOXOX X/.L.Y.^.&.* g [.}.OXOXOXOXOXOXOXf OXOXOXOXOXOXOXOXOXOXOXOXOXOXOXOXOXOXOXOXOXOX",
"OXOXOXOXOXOXOXOXOXOXOXOXOXOXOXOXOXOXOXOXj.,.M.W.T.y.%.7.]..XOXOXOXOXOXOXOXz OXOXOXOXOXOXOXOXOXOXOXOXOXOXOXOXOXOXOXOXOXOX",
"OXOXOXOXOXOXOXOXOXOXOXOXOXOXOXOXOXOXOXOXp.I v m.U.{.Y.Y.Q.G.OXOXOXOXOXOXOX4.OXOXOXOXOXOXOXOXOXOXOXOXOXOXOXOXOXOXOXOXOXOX",
"OXOXOXOXOXOXOXOXOXOXOXOXOXOXOXOXOXOXOXf.E Y Y b V.Z.K.K.L.b e 9.0.0.0.a._.`.OXOXOXOXOXOXOXOXOXOXOXOXOXOXOXOXOXOXOXOXOXOX",
"OXOXOXOXOXOXOXOXOXOXOXOXOXOXOXOXOXOXOX<.Y OXOX&.C V v N F.8.L L I R E <.k.`.OXOXOXOXOXOXOXOXOXOXOXOXOXOXOXOXOXOXOXOXOXOX",
"OXOXOXOXOXOXOXOXOXOXOXOXOXOXOXOXOXOXa.R U OXOXOX@.C.e.Y 6.OXOXOXU L I U U #.OXOXOXOXOXOXOXOXOXOXOXOXOXOXOXOXOXOXOXOXOXOX",
"OXOXOXOXOXOXOXOXOXOXOXOXOXOXOXOXOXOX<.I OXOXOXOXY w.u.9.p.OXOXOXOXOX%.P : z OXOXOXOXOXOXOXOXOXOXOXOXOXOXOXOXOXOXOXOXOXOX",
"OXOXOXOXOXOXOXOXOXOXOXOXOXOXOXOXOXa.Y U OXOXOXOX8.E F 7.9.OXOXOXOXOXOXOXs OXOXOXOXOXOXOXOXOXOXOXOXOXOXOXOXOXOXOXOXOXOXOX",
"OXOXOXOXOXOXOXOXOXOXOXOXOXOXOXOXOX0.U T OXOXOXOXD.R t.D.V OXOXOXOXOXOXOXx OXOXOXOXOXOXOXOXOXOXOXOXOXOXOXOXOXOXOXOXOXOXOX",
"OXOXOXOXOXOXOXOXOXOXOXOXOXOXOXOXOX9.I T OXOXOXu.M.Z 6.I.B.OXOXOXOXOXOXOXx OXOXOXOXOXOXOXOXOXOXOXOXOXOXOXOXOXOXOXOXOXOXOX",
"OXOXOXOXOXOXOXOXOXOXOXOXOXOXOXOXOXh.1.U OXOXOX9.b J.M.U.U.~.OXOXOXOXOXOX0 OXOXOXOXOXOXOXOXOXOXOXOXOXOXOXOXOXOXOXOXOXOXOX",
"OXOXOXOXOXOXOXOXOXOXOXOXOXOXOXOXOXoXXXk.OXOXd.E L M U.Q.Q.A OXOXOXOXOXOX0 OXOXOXOXOXOXOXOXOXOXOXOXOXOXOXOXOXOXOXOXOXOXOX",
"OXOXOXOXOXOXOXOXOXOXOXOXOXOXOXOXOXoX)._.OXOX0.R L Z S.E.E.Z OXOXOXOXOX3.x OXOXOXOXOXOXOXOXOXOXOXOXOXOXOXOXOXOXOXOXOXOXOX",
"OXOXOXOXOXOXOXOXOXOXOXOXOXOXOXOXOX_.).'.OX8.E I c C n A.A.#.OXOXOXOXOX3.x OXOXOXOXOXOXOXOXOXOXOXOXOXOXOXOXOXOXOXOXOXOXOX",
"OXOXOXOXOXOXOXOXOXOXOXOXOXOXOXOXOXOXOXOX!.C.n @.C r.>.N.n.X.OXOXOXOXOX3.x OXOXOXOXOXOXOXOXOXOXOXOXOXOXOXOXOXOXOXOXOXOXOX",
"OXOXOXOXOXOXOXOXOXOXOXOXOXOXOXOXOXOXOXOX(.G.L.H.U.y.,.F *.U OXOXOXOXOXz z OXOXOXOXOXOXOXOXOXOXOXOXOXOXOXOXOXOXOXOXOXOXOX",
"OXOXOXOXOXOXOXOXOXOXOXOXOXOXOXOXOXOXOXOX0.9.c A U.r.8.~.>.U OXOXOXOXOXw 0 OXOXOXOXOXOXOXOXOXOXOXOXOXOXOXOXOXOXOXOXOXOXOX",
"OXOXOXOXOXOXOXOXOXOXOXOXOXOXOXOXOXOXOXOX9.R I D B.@.,.V.%.I OXOXOXOXOXz OXOXOXOXOXOXOXOXOXOXOXOXOXOXOXOXOXOXOXOXOXOXOXOX",
"OXOXOXOXOXOXOXOXOXOXOXOXOXOXOXOXOXOXOX0.>.R v L.V.L $.F %.I OXOXOXOXOXz OXOXOXOXOXOXOXOXOXOXOXOXOXOXOXOXOXOXOXOXOXOXOXOX",
"OXOXOXOXOXOXOXOXOXOXOXOXOXOXOXOXOXOXa.E E E Y M N.C c S U L OXOXOXOXOX; OXOXOXOXOXOXOXOXOXOXOXOXOXOXOXOXOXOXOXOXOXOXOXOX",
"OXOXOXOXOXOXOXOXOXOXOXOXOXOXOXOXOXOX9.E E E R L k n.M.b L I OXOXOXOXOX; OXOXOXOXOXOXOXOXOXOXOXOXOXOXOXOXOXOXOXOXOXOXOXOX",
"OXOXOXOXOXOXOXOXOXOXOXOXOXOXOXOXOXa.E E E E U L L P m.Z k L OXOXOXOXOXf OXOXOXOXOXOXOXOXOXOXOXOXOXOXOXOXOXOXOXOXOXOXOXOX",
"OXOXOXOXOXOXOXOXOXOXOXOXOXOXOXOXOX0.E E R R R E R T @.m.H.A OXOXOXOXh l OXOXOXOXOXOXOXOXOXOXOXOXOXOXOXOXOXOXOXOXOXOXOXOX",
"OXOXOXOXOXOXOXOXOXOXOXOXOXOXOXOXq.E E I L L R E R T R @.n.Z.OXOXOXOX0 OXOXOXOXOXOXOXOXOXOXOXOXOXOXOXOXOXOXOXOXOXOXOXOXOX",
"OXOXOXOXOXOXOXOXOXOXOXOXOXOXOXOXY L L L L I U I L L L L L P OXOXOXOX0 OXOXOXOXOXOXOXOXOXOXOXOXOXOXOXOXOXOXOXOXOXOXOXOXOX"
};
