/* XPM */
static char *result[] = {
/* columns rows colors chars-per-pixel */
"60 60 194 2 ",
"   c #1A080E",
".  c #160F15",
"X  c #1C0D13",
"o  c #170E19",
"O  c #1B0E1C",
"+  c #111111",
"@  c #1A1214",
"#  c #161519",
"$  c #1A121B",
"%  c #1B191D",
"&  c #23080E",
"*  c #280715",
"=  c #220C15",
"-  c #2C0B16",
";  c #260A19",
":  c #2C0C19",
">  c #310A14",
",  c #330C1B",
"<  c #26121A",
"1  c #2B171F",
"2  c #241C1C",
"3  c #3A101B",
"4  c #2B2414",
"5  c #29221C",
"6  c #30261D",
"7  c #0D0A24",
"8  c #1E0C22",
"9  c #171821",
"0  c #1E1B24",
"q  c #1E1C2E",
"w  c #1A1939",
"e  c #280724",
"r  c #220B25",
"t  c #25072C",
"y  c #28072E",
"u  c #260A2A",
"i  c #2B0B2C",
"p  c #340B27",
"a  c #3B0D25",
"s  c #370B29",
"d  c #3D0D2E",
"f  c #281325",
"g  c #221D26",
"h  c #221E2E",
"j  c #361320",
"k  c #3B1524",
"l  c #341A23",
"z  c #3C1B25",
"x  c #3A132A",
"c  c #371B2B",
"v  c #2A0631",
"b  c #2D0932",
"n  c #320B35",
"m  c #34093A",
"M  c #3B0C3D",
"N  c #231E30",
"B  c #341131",
"V  c #37183A",
"C  c #3C1C3A",
"Z  c #25212E",
"A  c #29222A",
"S  c #372926",
"D  c #34252C",
"F  c #3C252F",
"G  c #252132",
"H  c #292335",
"J  c #272738",
"K  c #2E263E",
"L  c #2C293A",
"P  c #392936",
"I  c #30273D",
"U  c #3D3735",
"Y  c #47151E",
"T  c #452918",
"R  c #473615",
"E  c #5F331B",
"W  c #411727",
"Q  c #491D2E",
"!  c #440D36",
"~  c #430D3C",
"^  c #471E3E",
"/  c #621521",
"(  c #452A27",
")  c #56242E",
"_  c #473526",
"`  c #412533",
"'  c #462839",
"]  c #50263B",
"[  c #4A353D",
"{  c #523837",
"}  c #5D3C37",
"|  c #51393E",
" . c #613527",
".. c #643C35",
"X. c #574619",
"o. c #79471E",
"O. c #73541B",
"+. c #765A29",
"@. c #6D4434",
"#. c #654438",
"$. c #754532",
"%. c #7B4732",
"&. c #734A35",
"*. c #7A4C33",
"=. c #6C5638",
"-. c #1B1D46",
";. c #3A0641",
":. c #3D0A41",
">. c #381E43",
",. c #1A214E",
"<. c #232144",
"1. c #2B2645",
"2. c #232349",
"3. c #26294E",
"4. c #302740",
"5. c #332C43",
"6. c #392E43",
"7. c #352E49",
"8. c #333046",
"9. c #36314C",
"0. c #3A334D",
"q. c #2B2956",
"w. c #333253",
"e. c #3B3552",
"r. c #3F3A57",
"t. c #32365A",
"y. c #313465",
"u. c #420B45",
"i. c #440A48",
"p. c #4A0B4D",
"a. c #481147",
"s. c #4E0C51",
"d. c #510C53",
"f. c #42334B",
"g. c #4B3D4D",
"h. c #523B43",
"j. c #413C56",
"k. c #413B59",
"l. c #523F55",
"z. c #6E3A56",
"x. c #453E67",
"c. c #5B4345",
"v. c #5B464D",
"b. c #4D4151",
"n. c #6A4B46",
"m. c #634B4C",
"M. c #724946",
"N. c #775645",
"B. c #7B5B45",
"V. c #7B5649",
"C. c #694554",
"Z. c #4C4067",
"A. c #57456F",
"S. c #674963",
"D. c #744A64",
"F. c #7D4D63",
"G. c #7A506B",
"H. c #A01B1E",
"J. c #B61D23",
"K. c #A72C2E",
"L. c #885317",
"P. c #B0561E",
"I. c #96681E",
"U. c #864929",
"Y. c #89532C",
"T. c #98562D",
"R. c #834F30",
"E. c #865736",
"W. c #A35D2A",
"Q. c #B65D24",
"!. c #8E6A32",
"~. c #986A31",
"^. c #A6652B",
"/. c #AC6329",
"(. c #BA6325",
"). c #B46C25",
"_. c #B16B2A",
"`. c #B66928",
"'. c #BD7829",
"]. c #C66D24",
"[. c #C57524",
"{. c #C97628",
"}. c #CA792C",
"|. c #D87F24",
" X c #925745",
".X c #885B63",
"XX c #945D79",
"oX c #BF8022",
"OX c #C38A1E",
"+X c #CE8026",
"@X c #D48326",
"#X c #DD8323",
"$X c #D19228",
"%X c #946188",
/* pixels */
"+ + + + + + + + + + + + + + + + + + + + + + + + + + + + + + + + + + + + + + + + + + + + + + + + + + + + + + + + + + + + ",
"+ + + + + + + + + + + + + + + + + + + + + + + + + + + + + + + + + + + + + + + + + + + + + + + + + + + + + + + + + + + + ",
"+ + + + + + + + + + + + + + + + + + + + + + + + + + + + + + + + + + + + + + + + + + + + + + + + + + + + + + + + + + + + ",
"+ + + + + + + + + + + + + + + + + + + + + + + + + + + + + + + + + + + + + + + + + + + + + + + + + + + + + + + + + + + + ",
"+ + + + + + + + + + + + + + + + + + + + + + + + + + + + + + + + + + + + + + + + + + + + + . o . + + + + + + + + + + + + ",
"+ + + + + + + + + + + + + + + + + + + + + + + + + + + + + + + + + + + + + + + + + + + + + o o + + + + + + + + + + + + + ",
"+ + + + + + + + + + + + + + + + + + + + + + + + + + + + + + + + + + + + + + + + + + + + + . + + + + + + + + + + + + + + ",
"+ + + + + + + + + + + + + + + + + + + + + + + + + + + + + + + + + + + + + + + + + + + + + + + + + + + + + + + + + + + + ",
"+ + + + + + + + + + + + + + + + + + + + + + + + + + + + + + + + + + + + + + + + + + + + + + + + + + + + + + + + + + + + ",
"+ + + + + + + + + + + + + + + + + + + + + + + + + + + + + + + + + + + + + + + + + + + + + + + + + + + + + + + + + + + + ",
"+ + + + + + + + + + + + + + + + + + + + + + + + + + + + + + + + r u $ + O o + + + + + + + + + + + + + + + + + + + + + + ",
"+ + + + + + + + + + + + + + + + + + + + + + + + + + + + + + + . u.M O $ u o + . + + + + + + + + + + + + + + + + + + + + ",
"+ + + + + + + + + + + + + + + + + + + + + + + + + + + + + + + b p.i i m 8 + $ O 8 . + + + + + + + + + + + + + + + + + + ",
"+ + + + + + + + + + + + + + + + + + + + + + + + + + + + + + $ u.n r n b o 8 b O t r . + + + + + + + + + + + + + + + + + ",
"+ + + + + + + + + + + + + + + + + + + + + + + + + + + + + + r M t t u u i v u O n 8 . + + + + + + + + + + + + + + + + + ",
"+ + + + + + + + + + + + + + + + + + + + + + + + + + + + + + r m r r O 8 v v t i i o + + + + + + + + + + + + + + + + + + ",
"+ + + + + + + + + + + + + + + + + + + + + + + + + + + + + + + O y r 8 t b B i y v O u u.$ + + + + + + + + + + + + + + + ",
"+ + + + + + + + + + + + + + + + + + + + + + + + + + + + + + + r u r u y y x - e v i v i.M $ + + + + + + + + + + + + + + ",
"+ + + + + + + + + + + + + + + + + + + + + + + + + + + + + + + M i r t v i j z c v y t u.s.n + + + + + + + + + + + + + + ",
"+ + + + + + + + + + + + + + + + + + + + + + + + + + + + + + n d.b i v v p : Q ' b t t n p.f + + + + + + + + + + + + + + ",
"+ + + + + + + + + + + + + + + + + + + + + + + + + + + + + + ~ u.O r i.;., > u.' ` b y t v O + + + + + + + + + + + + + + ",
"+ + + + + + + + + + + + + + + + + + + + + + + + + + + + + + M i O m s.~ , d s.^ ` M v t y i + + + + + + + + + + + + + + ",
"+ + + + + + + + + + + + + + + + + + + + + + + + + + + + + + f n t M s.d 3 s ;.C F a.s.m t n O + + + + + + + + + + + + + ",
"+ + + + + + + + + + + + + + + + + + + + + + + + + + + + + # B y y p.i.e , a B F ' d.d.M t y O + + + + + + + + + + + + + ",
"+ + + + + + + + + + + + + + + + + + + + + + + + + + + + + f n v p.d.m t * - k z n p.d.p.v t + + + + + + + + + + + + + + ",
"+ + + + + + + + + + + + + + + + + + + + + + + + + + + + + u m b :.u.m v n ; > k m i.s.d.p.8 + + + + + + + + + + + + + + ",
"+ + + + + + + + + + + + + + + + + + + + + + + + + + + + + + y y y v v M ] Y * : ! p.s.:.i.i + + + + + + + + + + + + + + ",
"+ + + + + + + + + + + + + + + + + + + + + + + + + + + + + + 8 y y v :.>.K.H.- & ! d.p.n y O + + + + + + + + + + + + + + ",
"+ + + + + + + + + + + + + + + + + + + + + + + + + + + + + + + u v y i.>.K.J.,   d d.d.n + + + + + + + + + + + + + + + + ",
"+ + + + + + + + + + + + + + + + + + + + + + + % K 6.0 . + + + + 8 t m V ) / > & u.d.i.u + + + + + + + + + + + + + + + + ",
"+ + + + + + + + + + + + + + + + + + + + + + % f.A.x.k.0 + + + + . r v u.W * & s p.u.i O + + + + + + + + + + + + + + + + ",
"+ + + + + + + + + + + + + + + + + + + + + + N Z.k.g.g.G + + + + + + r v : * ; i u $ + + + + + + + + + + + + + + + + + + ",
"+ + + + + + + + + + + + + + + + + + + + + + 1.Z.m.P. .q + + + + + + + o : : $ . + + + + + + + + + + + + + + + + + + + + ",
"+ + + + + + + + + + + + + + + + + + + @ + @ 7.y.E.{.E w 5 + + + + + + . : , @ + + + + + + + + + + + + + + + + + + + + + ",
"+ + + + + + + + + + + + + + + + + + + X.OX_.C.r.{ U.T w _ X.4 + + + + + = , @ + + + + + + + + + + + + + + + + + + + + + ",
"+ + + + + + + + + + + + + + + + + + + + S N.[.+X.Xq.7 +.$XI.4 + + + + + = = + + + + + + + + + + + + + + + + + + + + + + ",
"+ + + + + + + + + + + + + + + + + + + % 9.e.R.|.[.B.j.B.oX6 + + + + + + , = + + + + + + + + + + + + + + + + + + + + + + ",
"+ + + + + + + + + + + + + + + + + + + H x.1.V $.'.#X|.}.).D + + + + + # 3 X + + + + + + + + + + + + + + + + + + + + + + ",
"+ + + + + + + + + + + + + + + + + + # 9.9.Z h | *.%.U.].Y.6.5.0 + + + P z.# + + + + + + + + + + + + + + + + + + + + + + ",
"+ + + + + + + + + + + + + + + + + # I k.5.% + N @.*.0.h._ H 7.e.9.8.8.S.XXD + + + + + + + + + + + + + + + + + + + + + + ",
"+ + + + + + + + + + + + + + + + + 0 j.9.G + + 9 4. XV.t.G + N 4.9.e.t.l.D.D + + + + + + + + + + + + + + + + + + + + + + ",
"+ + + + + + + + + + + + + + + + + Z r.5.0 + + + N b.B.j.U + + 0 K K 6.7.f + + + + + + + + + + + + + + + + + + + + + + + ",
"+ + + + + + + + + + + + + + + + # 5.0.H + + + + Z e.E.c.=.R + + + # A c = + + + + + + + + + + + + + + + + + + + + + + + ",
"+ + + + + + + + + + + + + + + + # 6.e.J # + + O.!.9.N.~.Y.T + + + + + W : + + + + + + + + + + + + + + + + + + + + + + + ",
"+ + + + + + + + + + + + + + + + # 8.0.H # + @ ( [.'.E._.).5 + + + + + Q : + + + + + + + + + + + + + + + + + + + + + + + ",
"+ + + + + + + + + + + + + + + + 9 C.%Xf.# + 0 3.{ (.@X#XE.0 + + + + + j = + + + + + + + + + + + + + + + + + + + + + + + ",
"+ + + + + + + + + + + + + + + + g G.XXF.D + J r.2...{.#X`.F + + + + + ;   + + + + + + + + + + + + + + + + + + + + + + + ",
"+ + + + + + + + + + + + + + + + 2 C.F.C.F A w.w.6.R.Q.].`.D + + + + 1 k + + + + + + + + + + + + + + + + + + + + + + + + ",
"+ + + + + + + + + + + + + + + + + S D.S S #.w.1.} c.h.Q.U.q + + + + l W @ + + + + + + + + + + + + + + + + + + + + + + + ",
"+ + + + + + + + + + + + + + + + + + + % L.).*.#.E.m.v.T.} N + + + + l z X + + + + + + + + + + + + + + + + + + + + + + + ",
"+ + + + + + + + + + + + + + + + + + + + 9 #.^.[.}.v.v.n.q.G + + + + < : @ + + + + + + + + + + + + + + + + + + + + + + + ",
"+ + + + + + + + + + + + + + + + + + + + J w.,.#.).g.v.V.e.G + + + + < = . + + + + + + + + + + + + + + + + + + + + + + + ",
"+ + + + + + + + + + + + + + + + + + + 0 0.w.h.^.&.,.m.M.9.h + + + + z = . + + + + + + + + + + + + + + + + + + + + + + + ",
"+ + + + + + + + + + + + + + + + + + # 8.r.w.[ T.W.U h.M.9.Z # + + + k X + + + + + + + + + + + + + + + + + + + + + + + + ",
"+ + + + + + + + + + + + + + + + + # L r.r.r.w.K $.T.*.| 1.Z + + + + - X + + + + + + + + + + + + + + + + + + + + + + + + ",
"+ + + + + + + + + + + + + + + + + 0 t.r.r.b.e.1.-.$./.[ <.G + + + + - X + + + + + + + + + + + + + + + + + + + + + + + + ",
"+ + + + + + + + + + + + + + + + + L r.r.k.k.0.4.5.<.../.*.D # + + + : X + + + + + + + + + + + + + + + + + + + + + + + + ",
"+ + + + + + + + + + + + + + + + % 9.r.r.e.0.e.k.k.9.2.@.(.o.@ + + < ; + + + + + + + + + + + + + + + + + + + + + + + + + ",
"+ + + + + + + + + + + + + + + + Z e.e.8.1.5.e.r.0.e.w.1.P D # + + = = + + + + + + + + + + + + + + + + + + + + + + + + + ",
"+ + + + + + + + + + + + + + + + Z 5.4.K K 6.8.5.I I I 1.1.h + + + = ; + + + + + + + + + + + + + + + + + + + + + + + + + "
};
