/* XPM */
static char *result[] = {
/* columns rows colors chars-per-pixel */
"60 60 183 2 ",
"   c #150F15",
".  c #1D0E14",
"X  c #170E19",
"o  c #1A0D1C",
"O  c #111111",
"+  c #191215",
"@  c #1E1A15",
"#  c #161519",
"$  c #1B111A",
"%  c #240A15",
"&  c #2A0A16",
"*  c #250D19",
"=  c #2B0B19",
"-  c #320B15",
";  c #330C1C",
":  c #390F1E",
">  c #221017",
",  c #241D14",
"<  c #25141D",
"1  c #2F171F",
"2  c #32111D",
"3  c #38161A",
"4  c #2F231A",
"5  c #352A17",
"6  c #1E0B21",
"7  c #1B1922",
"8  c #1F1D32",
"9  c #2A0723",
"0  c #230C25",
"q  c #2D0824",
"w  c #26072D",
"e  c #28072E",
"r  c #250A2A",
"t  c #2A0D2D",
"y  c #340A23",
"u  c #3B0E22",
"i  c #340A2C",
"p  c #380B2E",
"a  c #221123",
"s  c #271A27",
"d  c #211E29",
"f  c #391729",
"g  c #2D0733",
"h  c #2D0932",
"j  c #320737",
"k  c #310A35",
"l  c #340739",
"z  c #360A3A",
"x  c #3A0B3D",
"c  c #381833",
"v  c #391339",
"b  c #24212D",
"n  c #2E252E",
"m  c #3A2726",
"M  c #3E292E",
"N  c #272333",
"B  c #2A2535",
"V  c #23213C",
"C  c #2D263D",
"Z  c #2D2A3B",
"A  c #392336",
"S  c #3D2A33",
"D  c #332A3E",
"F  c #3C2E3D",
"G  c #450D1A",
"H  c #533A1A",
"J  c #44192B",
"K  c #521F29",
"L  c #430E33",
"P  c #421A3A",
"I  c #531E33",
"U  c #701A26",
"Y  c #4C272F",
"T  c #4F3522",
"R  c #452B34",
"E  c #422E3D",
"W  c #45333E",
"Q  c #4B343C",
"!  c #5D3836",
"~  c #53393A",
"^  c #653A34",
"/  c #5B471B",
"(  c #6B421C",
")  c #724C1D",
"_  c #574728",
"`  c #6B4436",
"'  c #654238",
"]  c #774734",
"[  c #7F4A31",
"{  c #7A503D",
"}  c #1C1C43",
"|  c #3E0A42",
" . c #1E224B",
".. c #242346",
"X. c #2C2643",
"o. c #23254D",
"O. c #28274C",
"+. c #2D2B4A",
"@. c #302741",
"#. c #322B43",
"$. c #352F4B",
"%. c #303046",
"&. c #3C3041",
"*. c #36314A",
"=. c #3A334D",
"-. c #282B53",
";. c #2B3159",
":. c #363354",
">. c #3B3652",
",. c #3E3956",
"<. c #353559",
"1. c #3E3A5A",
"2. c #383666",
"3. c #3D3B62",
"4. c #420B45",
"5. c #4A0C46",
"6. c #460B49",
"7. c #4C0C4E",
"8. c #4A1645",
"9. c #4D124B",
"0. c #4E0B51",
"q. c #500C52",
"w. c #453443",
"e. c #483A4A",
"r. c #5B3D44",
"t. c #563D4A",
"y. c #473756",
"u. c #433A55",
"i. c #413C59",
"p. c #443B68",
"a. c #4E4357",
"s. c #514852",
"d. c #68474C",
"f. c #724942",
"g. c #7B5943",
"h. c #62465C",
"j. c #75415E",
"k. c #7E6546",
"l. c #54436A",
"z. c #614364",
"x. c #794D65",
"c. c #DB2526",
"v. c #F42827",
"b. c #874018",
"n. c #97571C",
"m. c #8A621A",
"M. c #8A4D2E",
"N. c #8C542F",
"B. c #9C592B",
"V. c #824C30",
"C. c #815233",
"Z. c #885A31",
"A. c #875138",
"S. c #8B563A",
"D. c #8C5D3D",
"F. c #A95625",
"G. c #A15929",
"H. c #9F602D",
"J. c #9E742E",
"K. c #946739",
"L. c #A96429",
"P. c #AE6A2B",
"I. c #B76927",
"U. c #B77824",
"Y. c #BE7129",
"T. c #B47431",
"R. c #D1701E",
"E. c #C76925",
"W. c #C06F27",
"Q. c #CA7324",
"!. c #C57829",
"~. c #D67922",
"^. c #C4763D",
"/. c #8A5E42",
"(. c #804E6C",
"). c #8F5977",
"_. c #9B617F",
"`. c #AD8024",
"'. c #DE801D",
"]. c #CE8526",
"[. c #DB8123",
"{. c #CA9129",
"}. c #996180",
/* pixels */
"O O O O O O O O O O O O O O O O O O O O O O O O O O O O O O O O O O O O O O x z # O O O O O O O O O O O O O O O O O O O ",
"O O O O O O O O O O O O O O O O O O O O O O O O O O O O O O O O O   X O O X 7.x X O O O O O O O O O O O O O O O O O O O ",
"O O O O O O O O O O O O O O O O O O O O O O O O O O O O O O O O O     O O h | 6   O O O O O O O O O O O O O O O O O O O ",
"O O O O O O O O O O O O O O O O O O O O O O O O O O O O O O O O O O O O O 6 0 O O O O O O O O O O O O O O O O O O O O O ",
"O O O O O O O O O O O O O O O O O O O O O O O O O O O O O O O O O O O O O     O O O 6 0 O O O O O O O O O O O O O O O O ",
"O O O O O O O O O O O O O O O O O O O O O O O O O O O O O O O O O O O O O O O O O O | 6.$ O O O O O O O O O O O O O O O ",
"O O O O O O O O O O O O O O O O O O O O O O O O O O O O O O O O O O O O O O O O O O 0 6.z O O O O O O O O O O O O O O O ",
"O O O O O O O O O O O O O O O O O O O O O O O O O O O O O O O O O O O O O O O o   O   6 0.O O O O O O O O O O O O O O O ",
"O O O O O O O O O O O O O O O O O O O O O O O O O O O O O O O O O O O O O O O w o O O O r # a t O O O O O O O O O O O O ",
"O O O O O O O O O O O O O O O O O O O O O O O O O O O O O O O O O O O O O O O 6 w O O O o + 5.t O O O O O O O O O O O O ",
"O O O O O O O O O O O O O O O O O O O O O O O O O O O O O O O O O O O O O O O # w O O O o X v O O O O O O O O O O O O O ",
"O O O O O O O O O O O O O O O O O O O O O O O O O O O O O o o O O O O O O O O O   O O O   + z O O O O O O O O O O O O O ",
"O O O O O O O O O O O O O O O O O O O O O O O O O O O O O o   O O r + O   $ O O O O O O O O 0 O O O O O O O O O O O O O ",
"O O O O O O O O O O O O O O O O O O O O O O O O O O O O O   O O r 6.6 O 6 6 O O O O O O O O $   O O O O O O O O O O O O ",
"O O O O O O O O O O O O O O O O O O O O O O O O O O O O O O O o 9.| 0 h e 6 r O o   O O O O O o O O O O O O O O O O O O ",
"O O O O O O O O O O O O O O O O O O O O O O O O O O O O O O O j 7.0 0 g e l | 0 h g O # O O O O O O O O O O O O O O O O ",
"O O O O O O O O O O O O O O O O O O O O O O O O O O O O O O O l h 0 h | g v 9.i | | X x a O O O O O O O O O O O O O O O ",
"O O O O O O O O O O O O O O O O O O O O O O O O O O O O O O O j h w | 0.4.i u y 0.4.g 7.6.a O O O O O O O O O O O O O O ",
"O O O O O O O O O O O O O O O O O O O O O O O O O O O O O O O o g 4.0.0.4.y 2 R 0.0.4.| q.7.+ O O O O O O O O O O O O O ",
"O O O O O O O O O O O O O O O O O O O O O O O O O O O O O O O o 6.0.0.0.x : y R 8.0.0.4.| g O O O O O O O O O O O O O O ",
"O O O O O O O O O O O O O O O O O O O O O O O O O O O O O O O > 7.0.q.0.L - 9 c R 8.0.0.x 0 O O O O O O O O O O O O O O ",
"O O O O O O O O O O O O O O O O O O O O O O O O O O O O O O o x 7.7.0.5.u ; 4.9.M P 0.q.7.w + O O O O O O O O O O O O O ",
"O O O O O O O O O O O O O O O O O O O O O O O O O O O O O O 0 z 7.0.0.5.: u q.9.M c x 4.6.e e O O O O O O O O O O O O O ",
"O O O O O O O O O O O O O O O O O O O O O O O O O O O O O O t z 0.7.0.4.% u L P M 4.4.j g w r O O O O O O O O O O O O O ",
"O O O O O O O O O O O O O O O O O O O O O O O O O O O O O O x g 0.7.q.l q & u f c 0.0.4.w w o O O O O O O O O O O O O O ",
"O O O O O O O O O O O O O O O O O O O O O O O O O O O O O O k e z 0.6.j 4.0 & : e | 7.0.g w   O O O O O O O O O O O O O ",
"O O O O O O O O O O O O O O O O O O O O O O O O O O O O O O o g w | k h A K - & y g 7.0.l g O O O O O O O O O O O O O O ",
"O O O O O O O O O O O O O O O O O O O O O O O O O O O O O O X w g g j t Y c.G % ; 4.0.6.g 6 O O O O O O O O O O O O O O ",
"O O O O O O O O O O O O O O O O O O O O O O O O O O O O O O O o w e g z Y v.G % = 7.7.6.  O O O O O O O O O O O O O O O ",
"O O O O O O O O O O O O O O O O O O O O O O O O O O O O O O O O o w g 6.M U G % i q.7.j O O O O O O O O O O O O O O O O ",
"O O O O O O O O O O O O O O O O O O O O O O O   =.l.y.# O O O O O o w l P & % & 5.7.j 0 O O O O O O O O O O O O O O O O ",
"O O O O O O O O O O O O O O O O O O O O O O O u.l.1.3.=.# O O O O   o g q % & p 6.o O O O O O O O O O O O O O O O O O O ",
"O O O O O O O O O O O O O O O O O O O O O O O i.1.f.^ #.# O O O O O O # > & * 0 $ O O O O O O O O O O O O O O O O O O O ",
"O O O O O O O O O O O O O O O O O O O O O O n p.a.E.b.B # O O O O O O O % ; > O O O O O O O O O O O O O O O O O O O O O ",
"O O O O O O O O O O O O O O O O O O O 4 / H F 2.%.Y.n.s b O O O O O O O . ; > O O O O O O O O O O O O O O O O O O O O O ",
"O O O O O O O O O O O O O O O O O O O + m.I.T.D.d.r.3 a _ `.( O O O O O O - O O O O O O O O O O O O O O O O O O O O O O ",
"O O O O O O O O O O O O O O O O O O O O O C S.'.^.h. .&.{.H.@ O O O O O O = O O O O O O O O O O O O O O O O O O O O O O ",
"O O O O O O O O O O O O O O O O O O O O B :.E M.Q.].K.k.`./ # O O O O O s % O O O O O O O O O O O O O O O O O O O O O O ",
"O O O O O O O O O O O O O O O O O O O O u.=.V F [ P.'.R.~.^ C 7 O O O O j.f # O O O O O O O O O O O O O O O O O O O O O ",
"O O O O O O O O O O O O O O O O O O O N 1.#.# 8 ] ' Q ! L.F X.>.*.*.%.e._.t.O O O O O O O O O O O O O O O O O O O O O O ",
"O O O O O O O O O O O O O O O O O O 7 u.,.b O # V G.{ ;.Q @ d C #.=.1.>.x.Q O O O O O O O O O O O O O O O O O O O O O O ",
"O O O O O O O O O O O O O O O O O O =.,.$.# O O d y./.s.-.@ O # B @.@.=.c . O O O O O O O O O O O O O O O O O O O O O O ",
"O O O O O O O O O O O O O O O O O O =.=.N # O O $ o.g.s.a.5 O O + # # N =   O O O O O O O O O O O O O O O O O O O O O O ",
"O O O O O O O O O O O O O O O O O b >.$.$ O O O T -.d.D._ ) + O O O O + u O O O O O O O O O O O O O O O O O O O O O O O ",
"O O O O O O O O O O O O O O O O O B ,.$.# O O 5 U.J.>.T.Z.( O O O O O < J O O O O O O O O O O O O O O O O O O O O O O O ",
"O O O O O O O O O O O O O O O O O B =.X.7 O O 8 ! [.P.Y.!.T O O O O O $ - O O O O O O O O O O O O O O O O O O O O O O O ",
"O O O O O O O O O O O O O O O O O *.}.z.7 O # >.O.! Q.[.!.W O O O O O + % O O O O O O O O O O O O O O O O O O O O O O O ",
"O O O O O O O O O O O O O O O O O h.}.).S O B i.+.F L.Q.[.[ # O O O O J . O O O O O O O O O O O O O O O O O O O O O O O ",
"O O O O O O O O O O O O O O O O O M x.(.m 5 >.:...C.` F.E.Q # O O O O I > O O O O O O O O O O O O O O O O O O O O O O O ",
"O O O O O O O O O O O O O O O O O O R n H B.t.X.~ { ;.B.F.@.# O O O O I > O O O O O O O O O O O O O O O O O O O O O O O ",
"O O O O O O O O O O O O O O O O O O O O 4 H.Y.H.P./.1.A.w.$.+ O O O O : $ O O O O O O O O O O O O O O O O O O O O O O O ",
"O O O O O O O O O O O O O O O O O O O O # -.s.` ~.D.,.D.i.$.+ O O O O & . O O O O O O O O O O O O O O O O O O O O O O O ",
"O O O O O O O O O O O O O O O O O O O O #.1.o.W L.~ 1./.u.@.# O O O < 2 O O O O O O O O O O O O O O O O O O O O O O O O ",
"O O O O O O O O O O O O O O O O O O O N ,.1.O.L.G.@.$.D.u.Z # O O O 1 = O O O O O O O O O O O O O O O O O O O O O O O O ",
"O O O O O O O O O O O O O O O O O O b >.1.u.<.Q G.M.F ] =.#.# O O O + & O O O O O O O O O O O O O O O O O O O O O O O O ",
"O O O O O O O O O O O O O O O O O O #.1.u.i.i.+.} V.I.' X.X.+ O O O % & O O O O O O O O O O O O O O O O O O O O O O O O ",
"O O O O O O O O O O O O O O O O O d >.,.1.1.>.#.#...M.N.W @.# O O O > * O O O O O O O O O O O O O O O O O O O O O O O O ",
"O O O O O O O O O O O O O O O O O Z ,.,.>.=.>.,.i.:.o.[ W.V.@ O O O & + O O O O O O O O O O O O O O O O O O O O O O O O ",
"O O O O O O O O O O O O O O O O # #.>.=.D D *.i.>.>.:.O.] G., O O O & O O O O O O O O O O O O O O O O O O O O O O O O O ",
"O O O O O O O O O O O O O O O O 7 C #.Z C #.$.*.#.C C X.X.C + O O O & . O O O O O O O O O O O O O O O O O O O O O O O O "
};
