/* XPM */
static char *result[] = {
/* columns rows colors chars-per-pixel */
"60 60 187 2 ",
"   c #0D0613",
".  c #160F14",
"X  c #1D0C13",
"o  c #170F18",
"O  c #1A0E1C",
"+  c #111111",
"@  c #1B1215",
"#  c #16151A",
"$  c #1B111A",
"%  c #1A1818",
"&  c #240712",
"*  c #230A14",
"=  c #2C0A17",
"-  c #270D18",
";  c #2C0C19",
":  c #340D1D",
">  c #3A0F1E",
",  c #221519",
"<  c #231819",
"1  c #32101D",
"2  c #3B111E",
"3  c #372A18",
"4  c #1E0C22",
"5  c #171725",
"6  c #1B1622",
"7  c #1C1A22",
"8  c #151533",
"9  c #230D25",
"0  c #2C0923",
"q  c #26062C",
"w  c #29072F",
"e  c #250A29",
"r  c #2A0C2C",
"t  c #320B22",
"y  c #390D25",
"u  c #221023",
"i  c #221D24",
"p  c #2B1D26",
"a  c #231E2D",
"s  c #371724",
"d  c #3C1424",
"f  c #31122C",
"g  c #3E1C2A",
"h  c #2A0631",
"j  c #2D0932",
"k  c #310A35",
"l  c #3B0B33",
"z  c #360A3A",
"x  c #3B0B3C",
"c  c #251F30",
"v  c #3F173B",
"b  c #2B2125",
"n  c #27202C",
"m  c #2E252C",
"M  c #39262B",
"N  c #272232",
"B  c #2A2336",
"V  c #25243A",
"C  c #2D253D",
"Z  c #2D2A3A",
"A  c #3B2632",
"S  c #32273E",
"D  c #322A3D",
"F  c #3B2C3E",
"G  c #373039",
"H  c #410A14",
"J  c #590F1B",
"K  c #7C1219",
"L  c #4A2F19",
"P  c #4A1A2D",
"I  c #5B1E27",
"U  c #440F34",
"Y  c #420A3B",
"T  c #44193B",
"R  c #4A252F",
"E  c #422336",
"W  c #442938",
"Q  c #522635",
"!  c #4B3634",
"~  c #4C343A",
"^  c #583A34",
"/  c #5C3E39",
"(  c #584719",
")  c #664C1A",
"_  c #5E4C3B",
"`  c #774729",
"'  c #6B4436",
"]  c #6A4638",
"[  c #764B35",
"{  c #73463A",
"}  c #7D5B3C",
"|  c #3D0A41",
" . c #211F43",
".. c #252241",
"X. c #2C2642",
"o. c #2E2946",
"O. c #212049",
"+. c #2C2B4C",
"@. c #302741",
"#. c #332B44",
"$. c #392F46",
"%. c #342E4A",
"&. c #333047",
"*. c #34314E",
"=. c #3B334D",
"-. c #2C2D53",
";. c #2F3055",
":. c #343352",
">. c #3B3652",
",. c #3E3956",
"<. c #30345E",
"1. c #3F3A58",
"2. c #410B45",
"3. c #490C44",
"4. c #450B49",
"5. c #4B0C4D",
"6. c #4B1846",
"7. c #4E0C51",
"8. c #520C54",
"9. c #483747",
"0. c #4A3D4D",
"q. c #57354A",
"w. c #553C49",
"e. c #413C59",
"r. c #61334A",
"t. c #443C63",
"y. c #4D3D63",
"u. c #433D74",
"i. c #59444D",
"p. c #5B484F",
"a. c #484355",
"s. c #584756",
"d. c #62464E",
"f. c #694459",
"g. c #75495C",
"h. c #4F4267",
"j. c #524269",
"k. c #664660",
"l. c #7A4F67",
"z. c #614673",
"x. c #8F161F",
"c. c #B62726",
"v. c #CA2927",
"b. c #8A4F1C",
"n. c #AA511B",
"m. c #916F1F",
"M. c #BE711F",
"N. c #834A2E",
"B. c #8B4A2A",
"V. c #934C29",
"C. c #8B532A",
"Z. c #94532D",
"A. c #955C2F",
"S. c #9D5C2D",
"D. c #8B5233",
"F. c #885636",
"G. c #965B38",
"H. c #AE5A25",
"J. c #A15C2B",
"K. c #8F672F",
"L. c #966723",
"P. c #9A6735",
"I. c #AD6529",
"U. c #BA6524",
"Y. c #BB6925",
"T. c #B66D29",
"R. c #AC7E23",
"E. c #A66A34",
"W. c #B36E37",
"Q. c #A07338",
"!. c #C6651E",
"~. c #C16421",
"^. c #CC7625",
"/. c #C67C27",
"(. c #CD7B25",
"). c #D27C24",
"_. c #DA7C22",
"`. c #815843",
"'. c #AF6643",
"]. c #8A566C",
"[. c #805479",
"{. c #905C78",
"}. c #A9802B",
"|. c #C4821F",
" X c #C48424",
".X c #DD8A23",
"XX c #996389",
/* pixels */
"+ + + + + + + + + + + + + + + + + + + + + + + + + + + + + + + + + + + + + + + + + + + + + + + + + + + + + + + + + + + + ",
"+ + + + + + + + + + + + + + + + + + + + + + + + + + + + + + + + + + + + + + + + + + + + + + + + + + + + + + + + + + + + ",
"+ + + + + + + + + + + + + + + + + + + + + + + + + + + + + + + + + + + + + + + + + + + + + + + + + + + + + + + + + + + + ",
"+ + + + + + + + + + + + + + + + + + + + + + + + + + + + + + + + + + + + + + + + + + + + + + + + + + + + + + + + + + + + ",
"+ + + + + + + + + + + + + + + + + + + + + + + + + + + + + + + + + + + + . . + + + + + + + + + + + + + + + + + + + + + + ",
"+ + + + + + + + + + + + + + + + + + + + + + + + + + + + + + + + + + + o O . + + + + + + + + + + + + + + + + + + + + + + ",
"+ + + + + + + + + + + + + + + + + + + + + + + + + + + + + + + + + + + . O . + + + + + + + + + + + + + + + + + + + + + + ",
"+ + + + + + + + + + + + + + + + + + + + + + + + + + + + + + + + . + + + + + + O + + + + + + + + + + + + + + + + + + + + ",
"+ + + + + + + + + + + + + + + + + + + + + + + + + + + + + + + + O + + + + + # O $ + + + + + + + + + + + + + + + + + + + ",
"+ + + + + + + + + + + + + + + + + + + + + + + + + + + + + + + + # + + + + + + + # + + + + + + + + + + + + + + + + + + + ",
"+ + + + + + + + + + + + + + + + + + + + + + + + + + + + + + + + + $ x + + $ r + + + + + + + + + + + + + + + + + + + + + ",
"+ + + + + + + + + + + + + + + + + + + + + + + + + + + + + + + + + r k $ . w j 6 O + + + + + + + + + + + + + + + + + + + ",
"+ + + + + + + + + + + + + + + + + + + + + + + + + + + + + + + + o w e z O O r r 9 + + + + + + + + + + + + + + + + + + + ",
"+ + + + + + + + + + + + + + + + + + + + + + + + + + + + + + + + o e O x e 9 9 O 9 + + + + + + + + + + + + + + + + + + + ",
"+ + + + + + + + + + + + + + + + + + + + + + + + + + + + + + + + . q q h k k w q w O + r z + + + + + + + + + + + + + + + ",
"+ + + + + + + + + + + + + + + + + + + + + + + + + + + + + + + 9 + 9 x x z 2.x 9 O e O z 5.9 + + + + + + + + + + + + + + ",
"+ + + + + + + + + + + + + + + + + + + + + + + + + + + + + + | 4.u 2.5.2.z 6.x O o e . q 4.5.9 + + + + + + + + + + + + + ",
"+ + + + + + + + + + + + + + + + + + + + + + + + + + + + + . 5.z O 8.5.k Y d t h 4 9 o O x 5.u + + + + + + + + + + + + + ",
"+ + + + + + + + + + + + + + + + + + + + + + + + + + + + + $ 5.u | 5.x w l 2 g v q k 2.r j j + + + + + + + + + + + + + + ",
"+ + + + + + + + + + + + + + + + + + + + + + + + + + + + + # f x 7.5.k q y 1 W E w z 5.5.k q # + + + + + + + + + + + + + ",
"+ + + + + + + + + + + + + + + + + + + + + + + + + + + + + $ z 4.8.5.x 0 2 0 6.E v w x 5.x q z $ + + + + + + + + + + + + ",
"+ + + + + + + + + + + + + + + + + + + + + + + + + + + + # k w z 8.7.| 0 2 Y 4.A T 2.x k h q j e + + + + + + + + + + + + ",
"+ + + + + + + + + + + + + + + + + + + + + + + + + + + + # x w w z 5.Y = d 3.8.E E 8.| w w w 4 + + + + + + + + + + + + + ",
"+ + + + + + + + + + + + + + + + + + + + + + + + + + + + + O w w h | z = : U E M f 2.4.h e 4 . + + + + + + + + + + + + + ",
"+ + + + + + + + + + + + + + + + + + + + + + + + + + + + + # q w w w z x & > d v 4.2.2.4.x . + + + + + + + + + + + + + + ",
"+ + + + + + + + + + + + + + + + + + + + + + + + + + + + + + O q w w | 8.f & 2 U 8.4.k 5.8.O + + + + + + + + + + + + + + ",
"+ + + + + + + + + + + + + + + + + + + + + + + + + + + + + + + O 2.k 5.6.R H & y 5.2.w | 2.e + + + + + + + + + + + + + + ",
"+ + + + + + + + + + + + + + + + + + + + + + + + + + + + + + @ 2.5.| 4.Q c.K   : 3.z q w e # + + + + + + + + + + + + + + ",
"+ + + + + + + + + + + + + + + + + + + + + + + + + + + + + + o 5.5.x 4.Q v.x.  = x h w e + + + + + + + + + + + + + + + + ",
"+ + + + + + + + + + + + + + + + + + + + + + + i $.Z + + + + . k 4.w x E I J X 0 x w w 4 + + + + + + + + + + + + + + + + ",
"+ + + + + + + + + + + + + + + + + + + + + + i j.j.t.$.+ + + + O h w k T : & = l h q 4 . + + + + + + + + + + + + + + + + ",
"+ + + + + + + + + + + + + + + + + + + + + + #.h.,.w.=.# + + + + O w w q & * 0 e O + . + + + + + + + + + + + + + + + + + ",
"+ + + + + + + + + + + + + + + + + + + + + # y.e.D.n.B # + + + + + $ O o = - O + + + + + + + + + + + + + + + + + + + + + ",
"+ + + + + + + + + + + + + + + + + + + @ + % u.<.T.~.6 D + + + + + + + X 1 ; + + + + + + + + + + + + + + + + + + + + + + ",
"+ + + + + + + + + + + + + + + + + + @ m.|.`.f.9.^ b.4 G 3 ( + + + + + . ; ; + + + + + + + + + + + + + + + + + + + + + + ",
"+ + + + + + + + + + + + + + + + + + + @ ! G..XW.z.8 p }. X) + + + + + @ ; X + + + + + + + + + + + + + + + + + + + + + + ",
"+ + + + + + + + + + + + + + + + + + + 7 t.9.U.(.W.p.a.Q.L.+ + + + + + @ ; X + + + + + + + + + + + + + + + + + + + + + + ",
"+ + + + + + + + + + + + + + + + + + + e.:.C F I./..X/./.C.# + + + + + < ; + + + + + + + + + + + + + + + + + + + + + + + ",
"+ + + + + + + + + + + + + + + + + + 7 e.%.7 V { [ N.V.!./ +.Z # + + + q.r.+ + + + + + + + + + + + + + + + + + + + + + + ",
"+ + + + + + + + + + + + + + + + + # a.,.B + + $.N.' -.] m V =.>.$.&.=.{.l.+ + + + + + + + + + + + + + + + + + + + + + + ",
"+ + + + + + + + + + + + + + + + + D ,.#.7 + + n 9.'.a.:.# % C #.=.,.e.k.f.+ + + + + + + + + + + + + + + + + + + + + + + ",
"+ + + + + + + + + + + + + + + + + $.>.B + + + + $.s.} ;.b + + N @.D %.S & + + + + + + + + + + + + + + + + + + + + + + + ",
"+ + + + + + + + + + + + + + + + 7 1.=.a + + + <  .s.A.:.} + + + # # N 1 X + + + + + + + + + + + + + + + + + + + + + + + ",
"+ + + + + + + + + + + + + + + + 7 1.#.a + + # R._ >.P.L.) + + + + . + > @ + + + + + + + + + + + + + + + + + + + + + + + ",
"+ + + + + + + + + + + + + + + + % e.#.c + + % ` .XP.F.^.` + + + + + @ P X + + + + + + + + + + + + + + + + + + + + + + + ",
"+ + + + + + + + + + + + + + + + b XX[.N + + V +.` _.(.).! + + + + + @ s + + + + + + + + + + + + + + + + + + + + + + + + ",
"+ + + + + + + + + + + + + + + + A XX{.f.+ % ,.>...S._.).C.5 + + + + , & + + + + + + + + + + + + + + + + + + + + + + + + ",
"+ + + + + + + + + + + + + + + + p ].g.w.b V 1.*.~ H.H.^.N.5 + + + + s - + + + + + + + + + + + + + + + + + + + + + + + + ",
"+ + + + + + + + + + + + + + + + + i.d.+ ` >.%.X.[ 9.{ !.W 6 + + + # g 1 + + + + + + + + + + + + + + + + + + + + + + + + ",
"+ + + + + + + + + + + + + + + + + + % 3 M.K.[ / E.<.F.N.F 6 + + + + s s + + + + + + + + + + + + + + + + + + + + + + + + ",
"+ + + + + + + + + + + + + + + + + + + + m F.T.^.W.<.`.0.-.7 + + + + ; ; + + + + + + + + + + + + + + + + + + + + + + + + ",
"+ + + + + + + + + + + + + + + + + + + + :.+.O.A.S.-.`.p.o.6 + + + @ X * + + + + + + + + + + + + + + + + + + + + + + + + ",
"+ + + + + + + + + + + + + + + + + + + N 1.*.' T.@.-.`.i.X.7 + + + @ d . + + + + + + + + + + + + + + + + + + + + + + + + ",
"+ + + + + + + + + + + + + + + + + + i >.1.*.' Y.{ o.{ i.X.% + + + , 2 + + + + + + + + + + + + + + + + + + + + + + + + + ",
"+ + + + + + + + + + + + + + + + + # ,.e.e.,.+.F Z.C.' $.X.7 + + + @ = + + + + + + + + + + + + + + + + + + + + + + + + + ",
"+ + + + + + + + + + + + + + + + + Z ,.,.,.e.%...X.J.S.O.V 7 + + + o ; + + + + + + + + + + + + + + + + + + + + + + + + + ",
"+ + + + + + + + + + + + + + + + # >.1.1.,.,.%.#.X.X.B.J.^ i + + + @ ; + + + + + + + + + + + + + + + + + + + + + + + + + ",
"+ + + + + + + + + + + + + + + + a 1.1.>.>.*.,.e.e.%.@.S.Y.L + + + = * + + + + + + + + + + + + + + + + + + + + + + + + + ",
"+ + + + + + + + + + + + + + + + #.>.>.D #.$.e.>.>.>.%.o.W i + + + * * + + + + + + + + + + + + + + + + + + + + + + + + + ",
"+ + + + + + + + + + + + + + + + Z #.C Z C %.$.#.C C S X.V 6 + + + * X + + + + + + + + + + + + + + + + + + + + + + + + + "
};
