/* XPM */
static char *result[] = {
/* columns rows colors chars-per-pixel */
"60 60 183 2 ",
"   c #1A080F",
".  c #160F15",
"X  c #1C0D13",
"o  c #170E19",
"O  c #1A0E1C",
"+  c #111111",
"@  c #1B1115",
"#  c #161519",
"$  c #1B141C",
"%  c #1A181E",
"&  c #240B14",
"*  c #2A0A15",
"=  c #250D1A",
"-  c #2B0C19",
";  c #390B17",
":  c #330C1A",
">  c #231D15",
",  c #2B121C",
"<  c #241919",
"1  c #33141B",
"2  c #2D2418",
"3  c #332B16",
"4  c #3D2C1D",
"5  c #0A0522",
"6  c #1E0B22",
"7  c #1D1B24",
"8  c #1C1C2D",
"9  c #1A163D",
"0  c #2E0722",
"q  c #210C25",
"w  c #26072D",
"e  c #28072E",
"r  c #250929",
"t  c #2A0D2C",
"y  c #330A24",
"u  c #3A0E22",
"i  c #340A2D",
"p  c #3D0C2B",
"a  c #291725",
"s  c #211C23",
"d  c #3B1624",
"f  c #361728",
"g  c #3C1C29",
"h  c #2C0732",
"j  c #2D0932",
"k  c #310935",
"l  c #3B0B31",
"z  c #350939",
"x  c #3A0B3D",
"c  c #251F36",
"v  c #251F3D",
"b  c #311634",
"n  c #292326",
"m  c #372927",
"M  c #3D2A2B",
"N  c #262234",
"B  c #292435",
"V  c #262338",
"C  c #2C253C",
"Z  c #2D293C",
"A  c #362931",
"S  c #3D2B35",
"D  c #30273E",
"F  c #31293C",
"G  c #3F2F3B",
"H  c #450D1A",
"J  c #453718",
"K  c #4D331C",
"L  c #643714",
"P  c #743B16",
"I  c #410F2B",
"U  c #441A2A",
"Y  c #4C1A2E",
"T  c #501923",
"R  c #470F3D",
"E  c #461539",
"W  c #451D3A",
"Q  c #6E1924",
"!  c #4F3529",
"~  c #57392C",
"^  c #422436",
"/  c #442E39",
"(  c #44323B",
")  c #513438",
"_  c #55393A",
"`  c #703A23",
"'  c #67401D",
"]  c #53422A",
"[  c #69432A",
"{  c #7D492F",
"}  c #654136",
"|  c #7E4D33",
" . c #75453A",
".. c #764D3B",
"X. c #3F0645",
"o. c #3E0A42",
"O. c #351944",
"+. c #1F2148",
"@. c #262345",
"#. c #2B2644",
"$. c #2A2C41",
"%. c #22234A",
"&. c #282549",
"*. c #322A43",
"=. c #362B41",
"-. c #352F49",
";. c #353146",
":. c #35314B",
">. c #3A334D",
",. c #2B2C58",
"<. c #2F3054",
"1. c #353355",
"2. c #3C3553",
"3. c #3E3956",
"4. c #35355A",
"5. c #3F3A59",
"6. c #2C3371",
"7. c #430B44",
"8. c #4A0E45",
"9. c #460B4A",
"0. c #4B0C4D",
"q. c #471544",
"w. c #4A1645",
"e. c #4D154A",
"r. c #4F0C51",
"t. c #510B53",
"y. c #492741",
"u. c #443444",
"i. c #4F3B44",
"p. c #423549",
"a. c #45394C",
"s. c #543B46",
"d. c #413755",
"f. c #433B55",
"g. c #433C5A",
"h. c #513D55",
"j. c #723B58",
"k. c #443D63",
"l. c #53424D",
"z. c #584358",
"x. c #684241",
"c. c #6D4E46",
"v. c #644C4A",
"b. c #675147",
"n. c #785447",
"m. c #7D5B45",
"M. c #75485F",
"N. c #52436B",
"B. c #6B4660",
"V. c #7B516A",
"C. c #85282D",
"Z. c #BD2122",
"A. c #D42526",
"S. c #AA7C1B",
"D. c #874929",
"F. c #8D542F",
"G. c #93552D",
"H. c #945D2D",
"J. c #9A5828",
"K. c #824A30",
"L. c #855734",
"P. c #97563E",
"I. c #AB5D27",
"U. c #A85929",
"Y. c #B55E25",
"T. c #946A34",
"R. c #A8692B",
"E. c #B76927",
"W. c #B46B2B",
"Q. c #BD7127",
"!. c #BC772B",
"~. c #C2621F",
"^. c #DA791E",
"/. c #C87928",
"(. c #D67A24",
"). c #855747",
"_. c #855266",
"`. c #905E60",
"'. c #B78226",
"]. c #CF8B2A",
"[. c #D98525",
"{. c #8D5E85",
"}. c #9B6281",
/* pixels */
"+ + + + + + + + + + + + + + + + + + + + + + + + + + + + + + + + + + + + + + + + + + + + . . + + + + + + + + + + + + + + ",
"+ + + + + + + + + + + + + + + + + + + + + + + + + + + + + + + + + + + + + + + + + + + + . # + + + + + + + + + + + + + + ",
"+ + + + + + + + + + + + + + + + + + + + + + + + + + + + + + + + + + + + + + + + + + + + + + + + + + + + + + + + + + + + ",
"+ + + + + + + + + + + + + + + + + + + + + + + + + + + + + + + + + + + + + + + + + + + + + + + + + + + + + + + + + + + + ",
"+ + + + + + + + + + + + + + + + + + + + + + + + + + + + + + + + + + + + + + + + + + + + + + + + + + + + + + + + + + + + ",
"+ + + + + + + + + + + + + + + + + + + + + + + + + + + + + + + + + + + + + + + + + + + + + + + + + + + + + + + + + + + + ",
"+ + + + + + + + + + + + + + + + + + + + + + + + + + + + + + + + + + + + + = t q + + + + + + + + + + + + + + + + + + + + ",
"+ + + + + + + + + + + + + + + + + + + + + + + + + + + + + + + + 6 o + + $ o.r.z 6 + + + + + + + + + + + + + + + + + + + ",
"+ + + + + + + + + + + + + + + + + + + + + + + + + + + + + + + O O . + + x 0.x h 6 . + + + + + + + + + + + + + + + + + + ",
"+ + + + + + + + + + + + + + + + + + + + + + + + + + + + + + . . . + + O 7.k q O . + + . . + + + + + + + + + + + + + + + ",
"+ + + + + + + + + + + + + + + + + + + + + + + + + + + + + + + + + + + t x r # + + + + . + + + + + + + + + + + + + + + + ",
"+ + + + + + + + + + + + + + + + + + + + + + + + + + + + + + + + + + # t k r . + + + b x o + + + + + + + + + + + + + + + ",
"+ + + + + + + + + + + + + + + + + + + + + + + + + + + + + + + + . t x x h 6 # + + O x 0.$ . + + + + + + + + + + + + + + ",
"+ + + + + + + + + + + + + + + + + + + + + + + + + + + + + + + o x 0.t.r.j r 6 r r r q r . + + + + + + + + + + + + + + + ",
"+ + + + + + + + + + + + + + + + + + + + + + + + + + + + + + o j r.t.t.x h z 9.9.0.x r q + + + + + + + + + + + + + + + + ",
"+ + + + + + + + + + + + + + + + + + + + + + + + + + + + + + . r k k k e x 0.t.r.t.0.k w O + + + + + + + + + + + + + + + ",
"+ + + + + + + + + + + + + + + + + + + + + + + + + + + + + + + . 6 h h h 9.e.8.R r.0.h e O + + + + + + + + + + + + + + + ",
"+ + + + + + + + + + + + + + + + + + + + + + + + + + + + + + + + O h k o.r.E : p r.X.e e r @ + + + + + + + + + + + + + + ",
"+ + + + + + + + + + + + + + + + + + + + + + + + + + + + + + + + 6 9.7.r.r.p 1 W 0.X.e e w q q # + + + + + + + + + + + + ",
"+ + + + + + + + + + + + + + + + + + + + + + + + + + + + + + + . x r.r.r.R : g / e.r.0.x e r z z + + + + + + + + + + + + ",
"+ + + + + + + + + + + + + + + + + + + + + + + + + + + + + + + r 0.r.r.r.I * x W ^ e.r.r.k 6 7.x + + + + + + + + + + + + ",
"+ + + + + + + + + + + + + + + + + + + + + + + + + + + + + + # z r.r.r.0.u u 0.q.M w.r.9.h o k o.. + + + + + + + + + + + ",
"+ + + + + + + + + + + + + + + + + + + + + + + + + + + + + + 6 z r.r.9.l ; I t.q.M q.r.9.e # t x . + + + + + + + + + + + ",
"+ + + + + + + + + + + + + + + + + + + + + + + + + + + + + + . r j o.X.i : u R ^ ^ 0.r.r.r + o.r + + + + + + + + + + + + ",
"+ + + + + + + + + + + + + + + + + + + + + + + + + + + + + + + . 6 h 9.9.0 * u g w.r.r.9.r z x . + + + + + + + + + + + + ",
"+ + + + + + + + + + + + + + + + + + + + + + + + + + + + + + + + + 6 X.t.7.= * u 7.r.r.k e k o + + + + + + + + + + + + + ",
"+ + + + + + + + + + + + + + + + + + + + + + + + + + + + + + + + O r 7.r.y.T * * p t.o.e e o + + + + + + + + + + + + + + ",
"+ + + + + + + + + + + + + + + + + + + + + + + + + + + + + + + O e X.t.O.C.Z.;   p r.x e O + + + + + + + + + + + + + + + ",
"+ + + + + + + + + + + + + + + + + + + + + + + + + + + + + + + 6 k r.t.O.C.A.H   p 0.h 6 + + + + + + + + + + + + + + + + ",
"+ + + + + + + + + + + + + + + + + + + + + + + + + + + + + + + o r X.X.b U Q ; & l x h 6 + + + + + + + + + + + + + + + + ",
"+ + + + + + + + + + + + + + + + + + + + + + + + 7 Z 7 . + + + + 6 w 7.7.f - & * k h r # + + + + + + + + + + + + + + + + ",
"+ + + + + + + + + + + + + + + + + + + + + + + F N.N.g.7 + + + + . 6 k 9.y & * x x e o + + + + + + + + + + + + + + + + + ",
"+ + + + + + + + + + + + + + + + + + + + + + $ g.k.d.a.Z + + + + + + 6 k i - 8.7.j O + + + + + + + + + + + + + + + + + + ",
"+ + + + + + + + + + + + + + + + + + + + + + B k.h.U.` N + + + + + + + # = : = O # . + + + + + + + + + + + + + + + + + + ",
"+ + + + + + + + + + + + + + + + + + + + + + G 6.c.(.P 9 2 + + + + + + + & : @ + + + + + + + + + + + + + + + + + + + + + ",
"+ + + + + + + + + + + + + + + + + + + J S.R.v.5.S J.L 9 m 3 2 + + + + + X * + + + + + + + + + + + + + + + + + + + + + + ",
"+ + + + + + + + + + + + + + + + + + + + 4 n.W.Q.`.2.5 ~ '.'.J + + + + + , = . + + + + + + + + + + + + + + + + + + + + + ",
"+ + + + + + + + + + + + + + + + + + + + C 4.| ^./.m.4.v.].2 + + + + + + d X . + + + + + + + + + + + + + + + + + + + + + ",
"+ + + + + + + + + + + + + + + + + + . s d.-.C  .E.[.].!.].! 8 + + + + < j.a # + + + + + + + + + + + + + + + + + + + + + ",
"+ + + + + + + + + + + + + + + + + + + D 3.B 8 (  .F.G.~.U.G @.-.;.;.$.N.`.u.+ + + + + + + + + + + + + + + + + + + + + + ",
"+ + + + + + + + + + + + + + + + + + B z.:.7 + 8 } { ;.l.~ s c Z -.2.3.f.V.A + + + + + + + + + + + + + + + + + + + + + + ",
"+ + + + + + + + + + + + + + + + + # >.2.#.# + # V P.).4.Z # + $ B D =.:.f X + + + + + + + + + + + + + + + + + + + + + + ",
"+ + + + + + + + + + + + + + + + + 7 2.-.8 + + + n 1.m.l.Z > + + # + s b = + + + + + + + + + + + + + + + + + + + + + + + ",
"+ + + + + + + + + + + + + + + + + B 3.*.% + + 2 ] ,.L.i.b.J + + + . + a 1 + + + + + + + + + + + + + + + + + + + + + + + ",
"+ + + + + + + + + + + + + + + + + F 2.*.% + + ! R.>.v.T.L.K + + + + + U : + + + + + + + + + + + + + + + + + + + + + + + ",
"+ + + + + + + + + + + + + + + + + Z >.C % + + N K.E...R.W.4 + + + + + 1 = + + + + + + + + + + + + + + + + + + + + + + + ",
"+ + + + + + + + + + + + + + + + + a.{.h.% + 8 :.&.K./.(.Q.A . + + + + , X + + + + + + + + + + + + + + + + + + + + + + + ",
"+ + + + + + + + + + + + + + + + # B.}.V.M + Z g.&._ ~.(.(.! # + + + # U   + + + + + + + + + + + + + + + + + + + + + + + ",
"+ + + + + + + + + + + + + + + + + ( _.M.m M 3.1.;.K.| Y.I.S # + + + < Y X + + + + + + + + + + + + + + + + + + + + + + + ",
"+ + + + + + + + + + + + + + + + + # ( 4 ' H.>.@.} v.d.I.D.B # + + + $ U = + + + + + + + + + + + + + + + + + + + + + + + ",
"+ + + + + + + + + + + + + + + + + + + + ! R.Q.J.W.b.l. .i.B # + + + @ 1 @ + + + + + + + + + + + + + + + + + + + + + + + ",
"+ + + + + + + + + + + + + + + + + + + + 8 1.i.H.(.c.l.n.f.C # . + + + * . + + + + + + + + + + + + + + + + + + + + + + + ",
"+ + + + + + + + + + + + + + + + + + + # ;.3.+.} H.u.l.m.a.N # + + + f = + + + + + + + + + + + + + + + + + + + + + + + + ",
"+ + + + + + + + + + + + + + + + + + # Z 3.<.>.W.F.%.s.n.a.N # + + + d = + + + + + + + + + + + + + + + + + + + + + + + + ",
"+ + + + + + + + + + + + + + + + + + B 5.5.5.>.} I. .) x.p.V # + + + * X + + + + + + + + + + + + + + + + + + + + + + + + ",
"+ + + + + + + + + + + + + + + + + % ;.3.3.5.3.+.v G.R._ @.N $ + + + * & + + + + + + + + + + + + + + + + + + + + + + + + ",
"+ + + + + + + + + + + + + + + + + B 5.5.5.5.2.-.@.=.G.| G N # + + + , & + + + + + + + + + + + + + + + + + + + + + + + + ",
"+ + + + + + + + + + + + + + + + + Z 5.3.>.>.2.3.f.<.*.J.E.[ > + + @ * + + + + + + + + + + + + + + + + + + + + + + + + + ",
"+ + + + + + + + + + + + + + + + 7 >.3.;.*.*.>.5.2.2.<.-.K.D.> + + @ & @ + + + + + + + + + + + + + + + + + + + + + + + + ",
"+ + + + + + + + + + + + + + + + 7 *.F Z C *.:.;.F C C #.#.N $ + + X & + + + + + + + + + + + + + + + + + + + + + + + + + "
};
