/* XPM */
static char *result[] = {
/* columns rows colors chars-per-pixel */
"60 60 193 2 ",
"   c #260916",
".  c #290916",
"X  c #2D0A1C",
"o  c #320D1C",
"O  c #37201B",
"+  c #29072E",
"@  c #2C0924",
"#  c #340B24",
"$  c #3A0F22",
"%  c #3E0E2B",
"&  c #351523",
"*  c #3A1524",
"=  c #361925",
"-  c #3B1926",
";  c #3D1A2A",
":  c #3F142C",
">  c #2C0731",
",  c #2E0933",
"<  c #320934",
"1  c #3A0A32",
"2  c #340A39",
"3  c #3A0B3C",
"4  c #35143A",
"5  c #38193E",
"6  c #3A1E32",
"7  c #3B222F",
"8  c #2A2238",
"9  c #3E2E3F",
"0  c #392836",
"q  c #4B0E1B",
"w  c #57101A",
"e  c #7A151E",
"r  c #5F361F",
"t  c #40162F",
"y  c #431B2B",
"u  c #531A26",
"i  c #440E37",
"p  c #440C3D",
"a  c #4B1F30",
"s  c #441639",
"d  c #42202E",
"f  c #5D3222",
"g  c #422335",
"h  c #4A2937",
"j  c #4A2339",
"k  c #572539",
"l  c #4B343D",
"z  c #4F393E",
"x  c #50363C",
"c  c #54393C",
"v  c #6E242E",
"b  c #633E34",
"n  c #6F4836",
"m  c #64433B",
"M  c #6E4D3C",
"N  c #694636",
"B  c #764733",
"V  c #7B4C33",
"C  c #77493B",
"Z  c #7C5239",
"A  c #7E613C",
"S  c #3E0A41",
"D  c #3D1241",
"F  c #3C1C41",
"G  c #342B44",
"H  c #3A2E44",
"J  c #352E49",
"K  c #3D2242",
"L  c #393047",
"P  c #37304A",
"I  c #3A334C",
"U  c #3C3653",
"Y  c #3E3956",
"T  c #3F3958",
"R  c #420B45",
"E  c #480C44",
"W  c #460C49",
"Q  c #4C0C4E",
"!  c #421243",
"~  c #4A1246",
"^  c #47134A",
"/  c #4B134C",
"(  c #4A1D4D",
")  c #461C46",
"_  c #4E0D50",
"`  c #4E1650",
"'  c #4E1C51",
"]  c #521554",
"[  c #511B53",
"{  c #412246",
"}  c #422847",
"|  c #45264A",
" . c #443445",
".. c #44354B",
"X. c #4B344F",
"o. c #453B4F",
"O. c #4A3C4C",
"+. c #4C3843",
"@. c #533942",
"#. c #533C4A",
"$. c #5B3647",
"%. c #4F2352",
"&. c #542456",
"*. c #5B255D",
"=. c #59285A",
"-. c #433C55",
";. c #433D5A",
":. c #483F5A",
">. c #4C3E53",
",. c #533858",
"<. c #632B41",
"1. c #643648",
"2. c #473E61",
"3. c #602F61",
"4. c #603162",
"5. c #5D4649",
"6. c #5C4A4E",
"7. c #584548",
"8. c #46425C",
"9. c #4B455D",
"0. c #4E495F",
"q. c #524250",
"w. c #574E5E",
"e. c #6C4D49",
"r. c #684A44",
"t. c #744E43",
"y. c #735144",
"u. c #7C5442",
"i. c #7D5F42",
"p. c #4C4363",
"a. c #4F4A60",
"s. c #534C64",
"d. c #57486E",
"f. c #5E4869",
"g. c #575063",
"h. c #5E4E74",
"j. c #5F5671",
"k. c #644964",
"l. c #7D4D64",
"z. c #655367",
"x. c #7A506B",
"c. c #625276",
"v. c #6A5E76",
"b. c #AF2529",
"n. c #C12528",
"m. c #83472E",
"M. c #95542D",
"N. c #9A572C",
"B. c #9A5C2E",
"V. c #945B2F",
"C. c #804F38",
"Z. c #804B31",
"A. c #8A5431",
"S. c #8F5930",
"D. c #845B3D",
"F. c #875737",
"G. c #A35729",
"H. c #B55E25",
"J. c #A05E31",
"K. c #9D6433",
"L. c #9B6939",
"P. c #A4622D",
"I. c #AE6B2C",
"U. c #BC6C26",
"Y. c #B66C2A",
"T. c #BA6626",
"R. c #AA732E",
"E. c #BC7129",
"W. c #BA7228",
"Q. c #AB6A3E",
"!. c #A37030",
"~. c #BD7D3D",
"^. c #C57126",
"/. c #CC7A26",
"(. c #C2752A",
"). c #C77726",
"_. c #815740",
"`. c #845A41",
"'. c #8C5948",
"]. c #925E54",
"[. c #936749",
"{. c #89576C",
"}. c #8C5C74",
"|. c #8D5C7B",
" X c #945E7D",
".X c #93617D",
"XX c #BF802E",
"oX c #C58F34",
"OX c #BA8140",
"+X c #BE964C",
"@X c #C88D41",
"#X c #97638A",
"$X c None",
/* pixels */
"$X$X$X$X$X$X$X$X$X$X$X$X$X$X$X$X$X$X$X$X$X$X$X$X$X$X$X$X$X$X$X$X$X$X$X$X$X$X$X$X$X$X$X$X$X$X$X$X$X$X$X$X$X$X$X$X$X$X$X$X",
"$X$X$X$X$X$X$X$X$X$X$X$X$X$X$X$X$X$X$X$X$X$X$X$X$X$X$X$X$X$X$X$X$X$X$X$X$X$X$X$X$X$X$X$X$X$X$X$X$X$X$X$X$X$X$X$X$X$X$X$X",
"$X$X$X$X$X$X$X$X$X$X$X$X$X$X$X$X$X$X$X$X$X$X$X$X$X$X$X$X$X$X$X$X$X$X$X$X$X$X$X$X$X$X$X$X$X$X$X$X$X$X$X$X$X$X$X$X$X$X$X$X",
"$X$X$X$X$X$X$X$X$X$X$X$X$X$X$X$X$X$X$X$X$X$X$X$X$X$X$X$X$X$X$X$X$X$X$X$X$X$X$X$X$X$X$X$X$X$X$X$X$X$X$X$X$X$X$X$X$X$X$X$X",
"$X$X$X$X$X$X$X$X$X$X$X$X$X$X$X$X$X$X$X$X$X$X$X$X$X$X$X$X$X$X$X$X$X$X$X$X$X$X$X$X$X%.$X$X$X$X$X$X$X$X$X$X$X$X$X$X$X$X$X$X",
"$X$X$X$X$X$X$X$X$X$X$X$X$X$X$X$X$X$X$X$X$X$X$X$X$X$X$X$X$X$X$X$X$X$X$X$X$X$X$X$X( 4 $X$X$X3.$X$X$X$X$X$X$X$X$X$X$X$X$X$X",
"$X$X$X$X$X$X$X$X$X$X$X$X$X$X$X$X$X$X$X$X$X$X$X$X$X$X$X$X$X$X$X$X$X$X$X$X&.$X$X$X) $X$X$X$X] &.$X$X$X$X$X$X$X$X$X$X$X$X$X",
"$X$X$X$X$X$X$X$X$X$X$X$X$X$X$X$X$X$X$X$X$X$X$X$X$X$X$X$X$X$X$X$X$X$X$X$X` $X$X$X$X$X$X$X$XW ! $X$X$X$X$X$X$X$X$X$X$X$X$X",
"$X$X$X$X$X$X$X$X$X$X$X$X$X$X$X$X$X$X$X$X$X$X$X$X$X$X$X$X$X$X$X$X$X$X$X] / $X$X$X$X$X$X$X$X| $X$X$X$X$X$X$X$X$X$X$X$X$X$X",
"$X$X$X$X$X$X$X$X$X$X$X$X$X$X$X$X$X$X$X$X$X$X$X$X$X$X$X$X$X$X$X$X$X$X$X$X$X$X$X$X$X$X$X$X$X$X$X$X$X$X$X$X$X$X$X$X$X$X$X$X",
"$X$X$X$X$X$X$X$X$X$X$X$X$X$X$X$X$X$X$X$X$X$X$X$X$X$X$X$X$X$X$X$X$X$X$X$X$X$X$X$X$X$X$X$X$X$X$X$X$X$X$X$X$X$X$X$X$X$X$X$X",
"$X$X$X$X$X$X$X$X$X$X$X$X$X$X$X$X$X$X$X$X$X$X$X$X$X$X$X$X$X$X$X' [ $X$X$X$X$XK 4 X.$X$X$X$X$X$X} X.$X$X$X$X$X$X$X$X$X$X$X",
"$X$X$X$X$X$X$X$X$X$X$X$X$X$X$X$X$X$X$X$X$X$X$X$X$X$X$X$X$X$X,.S %.$X$X$X} F < + < } $X$X$X$X$X$X,.$X$X$X$X$X$X$X$X$X$X$X",
"$X$X$X$X$X$X$X$X$X$X$X$X$X$X$X$X$X$X$X$X$X$X$X$X$X$X$X$X$X4.$X$X$X*.] D > > 3 < , 4 %.$X$X$X$X$X$X$X$X$X$X$X$X$X$X$X$X$X",
"$X$X$X$X$X$X$X$X$X$X$X$X$X$X$X$X$X$X$X$X$X$X$X$X$X$X$X$X$X$X$X$X*._ W 2 S 3 E 3 R S R %.$X$X$X$X$X$X$X$X$X$X$X$X$X$X$X$X",
"$X$X$X$X$X$X$X$X$X$X$X$X$X$X$X$X$X$X$X$X$X$X$X$X$X$X$X$X$X$X$X*._ _ R S _ ~ t # E Q R W &.$X$X$X$X$X$X$X$X$X$X$X$X$X$X$X",
"$X$X$X$X$X$X$X$X$X$X$X$X$X$X$X$X$X$X$X$X$X$X$X$X$X$X$X$X$X$X$X$X] _ R S _ E $ * ~ _ Q R Q *.$X$X$X$X$X$X$X$X$X$X$X$X$X$X",
"$X$X$X$X$X$X$X$X$X$X$X$X$X$X$X$X$X$X$X$X$X$X$X$X$X$X$X$X$X$X$X$X*._ R R Q 1 o j j _ W < W _ &.$X$X$X$X$X$X$X$X$X$X$X$X$X",
"$X$X$X$X$X$X$X$X$X$X$X$X$X$X$X$X$X$X$X$X$X$X$X$X$X$X$X$X$X$X$X$X$X] R R p $ o s g ) 3 3 _ Q / $X$X$X$X$X$X$X$X$X$X$X$X$X",
"$X$X$X$X$X$X$X$X$X$X$X$X$X$X$X$X$X$X$X$X$X$X$X$X$X$X$X$X$X$X$X$X$X_ S S i o 1 Q g s , R _ ` $X$X$X$X$X$X$X$X$X$X$X$X$X$X",
"$X$X$X$X$X$X$X$X$X$X$X$X$X$X$X$X$X$X$X$X$X$X$X$X$X$X$X$X$X$X$X$X` W , > $ $ p Q g 7 2 W Q ( $X$X$X$X$X$X$X$X$X$X$X$X$X$X",
"$X$X$X$X$X$X$X$X$X$X$X$X$X$X$X$X$X$X$X$X$X$X$X$X$X$X$X$X$X$X$X$X2 S + + o * i E g 6 , S D $X$X$X$X$X$X$X$X$X$X$X$X$X$X$X",
"$X$X$X$X$X$X$X$X$X$X$X$X$X$X$X$X$X$X$X$X$X$X$X$X$X$X$X$X$X$X$X$X> 3 > > # o $ t 7 s , , | $X$X$X$X$X$X$X$X$X$X$X$X$X$X$X",
"$X$X$X$X$X$X$X$X$X$X$X$X$X$X$X$X$X$X$X$X$X$X$X$X$X$X$X$X$X$X$X$X5 > 3 > < X o * s S > , $X$X$X$X$X$X$X$X$X$X$X$X$X$X$X$X",
"$X$X$X$X$X$X$X$X$X$X$X$X$X$X$X$X$X$X$X$X$X$X$X$X$X$X$X$X$X$X$X$X$X3 W 2 2 ; . o % < , S { $X$X$X$X$X$X$X$X$X$X$X$X$X$X$X",
"$X$X$X$X$X$X$X$X$X$X$X$X$X$X$X$X$X$X$X$X$X$X$X$X$X$X$X$X$X$X$X$X$XQ Q 3 g v w   o < W _ D $X$X$X$X$X$X$X$X$X$X$X$X$X$X$X",
"$X$X$X$X$X$X$X$X$X$X$X$X$X$X$X$X$X$X$X$X$X$X$X$X$X$X$X$X$X$X$X$X] _ Q ! g n.e   X i _ W D $X$X$X$X$X$X$X$X$X$X$X$X$X$X$X",
"$X$X$X$X$X$X$X$X$X$X$X$X$X$X$X$X$X$X$X$X$X$X$X$X$X$X$X$X$X$X$X$X` Q Q Q g b.e .   p Q ^ $X$X$X$X$X$X$X$X$X$X$X$X$X$X$X$X",
"$X$X$X$X$X$X$X$X$X$X$X$X$X$X$X$X$X$X$X$X$X$X$X$X$X$X$X$X$X$X$X$X$X/ Q / 6 u q   X W W ) $X$X$X$X$X$X$X$X$X$X$X$X$X$X$X$X",
"$X$X$X$X$X$X$X$X$X$X$X$X$X$X$X$X$X$X$X$X$X$X$X$Xc.c.v.$X$X$X$X$X$X$XS Q ~ o . . 1 _ R $X$X$X$X$X$X$X$X$X$X$X$X$X$X$X$X$X",
"$X$X$X$X$X$X$X$X$X$X$X$X$X$X$X$X$X$X$X$X$X$X$Xh.p.2.p.$X$X$X$X$X$X$X| S 1 . . # W R F $X$X$X$X$X$X$X$X$X$X$X$X$X$X$X$X$X",
"$X$X$X$X$X$X$X$X$X$X$X$X$X$X$X$X$X$X$X$X$X$X$Xp.>.C c -.$X$X$X$X$X$X$X{ @ . X 3 ( ( $X$X$X$X$X$X$X$X$X$X$X$X$X$X$X$X$X$X",
"$X$X$X$X$X$X$X$X$X$X$X$X$X$X$X$X$X$X$X$X$X$Xc.2.t.H.f L $X$X$X$X$X$X$X$X#.- g $X$X$X$X$X$X$X$X$X$X$X$X$X$X$X$X$X$X$X$X$X",
"$X$X$X$X$X$X$X$X$X$X$X$X$X$X$X$X$X$X$X$X$X$Xd.;.m U.r 0 $X$X$X$X$X$X$X$X$X; $.$X$X$X$X$X$X$X$X$X$X$X$X$X$X$X$X$X$X$X$X$X",
"$X$X$X$X$X$X$X$X$X$X$X$X$X$X$X$X$X$X$X$XOXQ.[.t.$.N O 0 $X+X$X$X$X$X$X$X$X- $X$X$X$X$X$X$X$X$X$X$X$X$X$X$X$X$X$X$X$X$X$X",
"$X$X$X$X$X$X$X$X$X$X$X$X$X$X$X$X$X$X$X$Xz.e.U.(.].o.8 M oX@X$X$X$X$X$X$X$X- $X$X$X$X$X$X$X$X$X$X$X$X$X$X$X$X$X$X$X$X$X$X",
"$X$X$X$X$X$X$X$X$X$X$X$X$X$X$X$X$X$X$X$X;.L V U.(.L.r.A XX$X$X$X$X$X$X$X$Xd $X$X$X$X$X$X$X$X$X$X$X$X$X$X$X$X$X$X$X$X$X$X",
"$X$X$X$X$X$X$X$X$X$X$X$X$X$X$X$X$X$X$Xp.;.L 9 V P.).).U.E.u.$X$X$X$X$X$Xl.$.$X$X$X$X$X$X$X$X$X$X$X$X$X$X$X$X$X$X$X$X$X$X",
"$X$X$X$X$X$X$X$X$X$X$X$X$X$X$X$X$X$Xj.;.U $X0.x V B V M.P.L I 0.$X$X$Xv.|.}.$X$X$X$X$X$X$X$X$X$X$X$X$X$X$X$X$X$X$X$X$X$X",
"$X$X$X$X$X$X$X$X$X$X$X$X$X$X$X$X$X$X;.I -.$X$X-.b A.O.O.`.w. .J I -.8.:.x..X$X$X$X$X$X$X$X$X$X$X$X$X$X$X$X$X$X$X$X$X$X$X",
"$X$X$X$X$X$X$X$X$X$X$X$X$X$X$X$X$Xs.Y L $X$X$X$XH '.y.Y :.$X$Xg.G G J I X.@.$X$X$X$X$X$X$X$X$X$X$X$X$X$X$X$X$X$X$X$X$X$X",
"$X$X$X$X$X$X$X$X$X$X$X$X$X$X$X$X$X9.I I $X$X$X$X-.-.D.O.8.$X$X$X$Xw.9.H 6 $X$X$X$X$X$X$X$X$X$X$X$X$X$X$X$X$X$X$X$X$X$X$X",
"$X$X$X$X$X$X$X$X$X$X$X$X$X$X$X$X$X;.I L $X$X$X$X9.U D.5.6.$X$X$X$X$X$X$X: $X$X$X$X$X$X$X$X$X$X$X$X$X$X$X$X$X$X$X$X$X$X$X",
"$X$X$X$X$X$X$X$X$X$X$X$X$X$X$X$X$XY J L $X$X$X$XA O.e.!.M $X$X$X$X$X$X$Xa $X$X$X$X$X$X$X$X$X$X$X$X$X$X$X$X$X$X$X$X$X$X$X",
"$X$X$X$X$X$X$X$X$X$X$X$X$X$X$X$X$Xf.,.L $X$X$XF.W.R.M W.P.$X$X$X$X$X$X$Xk $X$X$X$X$X$X$X$X$X$X$X$X$X$X$X$X$X$X$X$X$X$X$X",
"$X$X$X$X$X$X$X$X$X$X$X$X$X$X$X$X$X#X|.k.$X$X$Xo.N U.W./.I.6.$X$X$X$X$X$X- $X$X$X$X$X$X$X$X$X$X$X$X$X$X$X$X$X$X$X$X$X$X$X",
"$X$X$X$X$X$X$X$X$X$X$X$X$X$X$X$X$X X{.}.$X$Xs.U G B ^./.E.r.$X$X$X$X$X$X= $X$X$X$X$X$X$X$X$X$X$X$X$X$X$X$X$X$X$X$X$X$X$X",
"$X$X$X$X$X$X$X$X$X$X$X$X$X$X$X$X$X.X{.$X$X$X:.U G V T.^.^.n $X$X$X$X$X1.h $X$X$X$X$X$X$X$X$X$X$X$X$X$X$X$X$X$X$X$X$X$X$X",
"$X$X$X$X$X$X$X$X$X$X$X$X$X$X$X$X$X$X$X$X$Xa.T J l Z b H.G. .$X$X$X$X$X<.a $X$X$X$X$X$X$X$X$X$X$X$X$X$X$X$X$X$X$X$X$X$X$X",
"$X$X$X$X$X$X$X$X$X$X$X$X$X$X$X$X$X$X$X$X(.u.+.H C r.>.G.m.L $X$X$X$X$X<.a $X$X$X$X$X$X$X$X$X$X$X$X$X$X$X$X$X$X$X$X$X$X$X",
"$X$X$X$X$X$X$X$X$X$X$X$X$X$X$X$X$X$X$X$X[.K.Y.V.Y.6.q.V ..I $X$X$X$X$Xy ; $X$X$X$X$X$X$X$X$X$X$X$X$X$X$X$X$X$X$X$X$X$X$X",
"$X$X$X$X$X$X$X$X$X$X$X$X$X$X$X$X$X$X$X$X9.q.c F.(.5.q.D.U I $X$X$X$X$X= = $X$X$X$X$X$X$X$X$X$X$X$X$X$X$X$X$X$X$X$X$X$X$X",
"$X$X$X$X$X$X$X$X$X$X$X$X$X$X$X$X$X$X$X$XT U H Z S.L 7._.U L $X$X$X$X$Xh $X$X$X$X$X$X$X$X$X$X$X$X$X$X$X$X$X$X$X$X$X$X$X$X",
"$X$X$X$X$X$X$X$X$X$X$X$X$X$X$X$X$X$X$X9.Y I c Y.n G #.u.U H $X$X$X$X$Xy $X$X$X$X$X$X$X$X$X$X$X$X$X$X$X$X$X$X$X$X$X$X$X$X",
"$X$X$X$X$X$X$X$X$X$X$X$X$X$X$X$X$X$X0.Y T U ..B N.m  .C P P $X$X$X$X$X* $X$X$X$X$X$X$X$X$X$X$X$X$X$X$X$X$X$X$X$X$X$X$X$X",
"$X$X$X$X$X$X$X$X$X$X$X$X$X$X$X$X$X$X;.T T T U 0 l M.S.x G J $X$X$X$X$X* $X$X$X$X$X$X$X$X$X$X$X$X$X$X$X$X$X$X$X$X$X$X$X$X",
"$X$X$X$X$X$X$X$X$X$X$X$X$X$X$X$X$X9.Y T T T I G G l V.m G J $X$X$X$X$X= $X$X$X$X$X$X$X$X$X$X$X$X$X$X$X$X$X$X$X$X$X$X$X$X",
"$X$X$X$X$X$X$X$X$X$X$X$X$X$X$X$X$X8.T U U I U U I P z N.V.m $X$X$X$Xh $X$X$X$X$X$X$X$X$X$X$X$X$X$X$X$X$X$X$X$X$X$X$X$X$X",
"$X$X$X$X$X$X$X$X$X$X$X$X$X$X$X$Xa.U U P G P U Y U U I @.N.J.$X$X$X$X& $X$X$X$X$X$X$X$X$X$X$X$X$X$X$X$X$X$X$X$X$X$X$X$X$X",
"$X$X$X$X$X$X$X$X$X$X$X$X$X$X$X$XP P G G G P I I G G G G 9 +.$X$X$X$X& $X$X$X$X$X$X$X$X$X$X$X$X$X$X$X$X$X$X$X$X$X$X$X$X$X"
};
