/* XPM */
static char *result[] = {
/* columns rows colors chars-per-pixel */
"60 60 174 2 ",
"   c #260916",
".  c #290A16",
"X  c #2D0C1A",
"o  c #330E1D",
"O  c #380E1F",
"+  c #2F101C",
"@  c #34111F",
"#  c #2E0B21",
"$  c #29072F",
"%  c #2C0A2E",
"&  c #350D24",
"*  c #3A0E22",
"=  c #330D2D",
"-  c #22192B",
";  c #3B1222",
":  c #391926",
">  c #3E1529",
",  c #351526",
"<  c #2C0732",
"1  c #2D0B32",
"2  c #320A35",
"3  c #3D0B35",
"4  c #350B3A",
"5  c #3A0B3D",
"6  c #311136",
"7  c #381137",
"8  c #3B1E32",
"9  c #3F1038",
"0  c #38193D",
"q  c #341239",
"w  c #2F2439",
"e  c #2D2334",
"r  c #3F2331",
"t  c #3A2B3F",
"y  c #400D1A",
"u  c #66121B",
"i  c #7E151C",
"p  c #47291C",
"a  c #62371E",
"s  c #431626",
"d  c #4B1A2D",
"f  c #451629",
"g  c #440C3C",
"h  c #420E33",
"j  c #401330",
"k  c #411E35",
"l  c #42193C",
"z  c #561F34",
"x  c #7F1620",
"c  c #422434",
"v  c #49243C",
"b  c #5D243B",
"n  c #47353F",
"m  c #4B333C",
"M  c #4F383D",
"N  c #5C3A37",
"B  c #523A3C",
"V  c #5C3A38",
"C  c #52363B",
"Z  c #7C262D",
"A  c #603323",
"S  c #603E3C",
"D  c #5F462F",
"F  c #7D4B29",
"G  c #6A4536",
"H  c #664438",
"J  c #654D3C",
"K  c #6C4A3E",
"L  c #744535",
"P  c #744A35",
"I  c #7A4B38",
"U  c #7F5134",
"Y  c #3E0A41",
"T  c #2F2741",
"R  c #2F2844",
"E  c #342B44",
"W  c #3C2F42",
"Q  c #362E49",
"!  c #37314B",
"~  c #3A324D",
"^  c #3B3652",
"/  c #3E3956",
"(  c #3F3B59",
")  c #430B46",
"_  c #490D47",
"`  c #460C49",
"'  c #4C0C4E",
"]  c #451340",
"[  c #4A1247",
"{  c #4D134C",
"}  c #4E0D50",
"|  c #4F1151",
" . c #511253",
".. c #413243",
"X. c #4B3843",
"o. c #4F3F4E",
"O. c #46364A",
"+. c #523D45",
"@. c #433B54",
"#. c #4D3E54",
"$. c #423C5A",
"%. c #602C45",
"&. c #483F63",
"*. c #55484F",
"=. c #5F484A",
"-. c #5B4447",
";. c #4D4151",
":. c #47405F",
">. c #504251",
",. c #604644",
"<. c #684545",
"1. c #694846",
"2. c #60494C",
"3. c #714E44",
"4. c #6A5348",
"5. c #7A5553",
"6. c #4A4064",
"7. c #4C4168",
"8. c #514460",
"9. c #524369",
"0. c #5F4363",
"q. c #5D4A74",
"w. c #554570",
"e. c #6C4C6C",
"r. c #724C66",
"t. c #A1252A",
"y. c #CB2628",
"u. c #8A4F2F",
"i. c #944E2A",
"p. c #94552E",
"a. c #9B5A2C",
"s. c #9C552A",
"d. c #844D31",
"f. c #82563F",
"g. c #85593D",
"h. c #865433",
"j. c #945C32",
"k. c #A95726",
"l. c #AD5927",
"z. c #AC5E28",
"x. c #A15C2B",
"c. c #B65F25",
"v. c #B95E24",
"b. c #9C602E",
"n. c #996E32",
"m. c #AC632A",
"M. c #AC692C",
"N. c #A6662C",
"B. c #B46D2A",
"V. c #B26528",
"C. c #BB722D",
"Z. c #BA7A2A",
"A. c #B06B39",
"S. c #C16824",
"D. c #C67426",
"F. c #CA7425",
"G. c #CD7A27",
"H. c #C2762A",
"J. c #C57A2E",
"K. c #855B40",
"L. c #855347",
"P. c #995941",
"I. c #8C5B5E",
"U. c #816041",
"Y. c #804564",
"T. c #875469",
"R. c #89576C",
"E. c #8F5D78",
"W. c #8E5B73",
"Q. c #925D7B",
"!. c #CA872B",
"~. c #CA932E",
"^. c #9D668E",
"/. c None",
/* pixels */
"/./././././././././././././././././././././././././././././././././././././././././././././././././././././././././././.",
"/./././././././././././././././././././././././././././././././././././././././././././././././././././././././././././.",
"/./././././././././././././././././././././././././././././././././././././././././././././././././././././././././././.",
"/./././././././././././././././././././././././././././././././././././././././././././././././././././././././././././.",
"/./././././././././././././././././././././././././././././././././././././././././././././././././././././././././././.",
"/./././././././././././././././././././././././././././././././././././././././././././././././././././././././././././.",
"/./././././././././././././././././././././././././././././././././././././././././././././././././././././././././././.",
"/./././././././././././././././././././././././././././././././././././././././././././././././././././././././././././.",
"/././././././././././././././././././././././././././././././././././.) /././._ /./././././././././././././././././././.",
"/./././././././././././././././././././././././././././././././././.4 q /./.q 2 /./././././././././././././././././././.",
"/./././././././././././././././././././././././././././././././././.< /.` /./.6 /./././././././././././././././././././.",
"/./././././././././././././././././././././././././././././././././.1 /.Y $ 1 q /./././././././././././././././././././.",
"/./././././././././././././././././././././././././././././././././.q 1 2 < 5 < 1 q 1 /./.| /./././././././././././././.",
"/././././././././././././././././././././././././././././././././././.5 Y 2 ) 5 < /.< /.2 )  ./././././././././././././.",
"/././././././././././././././././././././././././././././././.}  ./.' ' Y 4 [ g % /.6 /.1 5 } | /./././././././././././.",
"/././././././././././././././././././././././././././././././.} /./.} ' 2 5 ; o 2 q 0 /./.4 '  ././././././././././././.",
"/././././././././././././././././././././././././././././././.| /.} } Y < 3 * : l < 1 _ /.4 4 /././././././././././././.",
"/././././././././././././././././././././././././././././././. .} } ' 2 $ & O c k < 2 ` } ) < /././././././././././././.",
"/././././././././././././././././././././././././././././././.` ' ' ' 4 % O X ) c l < 2 ` } q 4 /./././././././././././.",
"/./././././././././././././././././././././././././././././.) 1 ) } ' 4 & O 3 ) r c Y Y 2 5 1 $ 5 /././././././././././.",
"/./././././././././././././././././././././././././././././.Y $ 2 ) ' 3 * * g } k r ' ) 4 < < 1 /./././././././././././.",
"/./././././././././././././././././././././././././././././.5 $ $ $ ` 4 o O h _ r 8 ) ) 2 2 1 1 /./././././././././././.",
"/././././././././././././././././././././././././././././././.$ $ $ < 4 = . O f r 7 Y ` Y ) /./././././././././././././.",
"/././././././././././././././././././././././././././././././.1 $ $ $ ) _ # . O 9 ' ' 4 ) ' ' /././././././././././././.",
"/./././././././././././././././././././././././././././././././.q 2 < ` ' k . . > _ ' < Y ' ` /././././././././././././.",
"/./././././././././././././././././././././././././././././././. .' 5 ' v Z y   X g ) < < 2 q /././././././././././././.",
"/./././././././././././././././././././././././././././././././.' ' 5 { c y.i   X g 4 $ < 1 /./././././././././././././.",
"/./././././././././././././././././././././././././././././././.` ` 4 ` c t.t.    3 < < < /././././././././././././././.",
"/./././././././././././././././././././././././.q.q././././././.4 4 < 4 c s O . X 3 < < 1 /././././././././././././././.",
"/././././././././././././././././././././././.q.9.6.6././././././.1 $ 1 j X . . 2 2 1 /././././././././././././././././.",
"/././././././././././././././././././././././.9.$.<.X./ /./././././.1 1 = . . # 2 /././././././././././././././././././.",
"/./././././././././././././././././././././.q.#.1.V.A Q /././././././././.X , /././././././././././././././././././././.",
"/./././././././././././././././././././././.w.$.K D.a w /././././././././.O : /././././././././././././././././././././.",
"/./././././././././././././././././././.~.A.5.,.C F p e /././././././././.o ; /././././././././././././././././././././.",
"/././././././././././././././././././././.L.C.C.I.O.- H ~.!./././././././.O /./././././././././././././././././././././.",
"/./././././././././././././././././././.7.@.p.S.C.g.>.4.!././././././././.O /./././././././././././././././././././././.",
"/./././././././././././././././././././.$.E t d.M.!.H.C.J.j./././././././.; /./././././././././././././././././././././.",
"/././././././././././././././././././.:.^ ! Q B U u.s.k.m...^ /././././.r.%././././././././././././././././././././././.",
"/./././././././././././././././././.9.@.~ /./.W G I ..X.j.W Q ^ $.$.$.8.Q.Q././././././././././././././././././././././.",
"/./././././././././././././././././.$.~ Q /././.t j.3.( O./.Q E Q ^ ( @.r.Q././././././././././././././././././././././.",
"/././././././././././././././././.:./ Q /./././.! ;.U ;.$./././.E E Q ~ W c /./././././././././././././././././././././.",
"/././././././././././././././././.$.~ E /././././.( g.+.*./././././.Q E : /././././././././././././././././././././././.",
"/././././././././././././././././.( ~ w /./././.J ~ 3.n.J /././././././.; /././././././././././././././././././././././.",
"/././././././././././././././././.( E R /././.N.Z.n.-.C.j./././././././.d /././././././././././././././././././././././.",
"/././././././././././././././././.e.0.w /././.! U F.M.F.B./././././././.d /././././././././././././././././././././././.",
"/././././././././././././././././.^.^.e././././ E d.G.G.B.+././././././.o /././././././././././././././././././././././.",
"/././././././././././././././././.Q.T.W././.@./ E G S.F.F.L /./././././.X /././././././././././././././././././././././.",
"/././././././././././././././././.T.R././.@./ ~ t u.L V.z.m /././././.b > /././././././././././././././././././././././.",
"/./././././././././././././././././.Q./.H.1.~ E G ,.@.l.i.E /././././.b f /././././././././././././././././././././././.",
"/./././././././././././././././././././.J.M.N.h.M.2.>.d.X.E /././././.z s /././././././././././././././././././././././.",
"/././././././././././././././././././././.+.P b.G.2.;.K./ ! /././././.; O /././././././././././././././././././././././.",
"/./././././././././././././././././././.$.^ R G N.O.;.K.^ E /././././.+ X /././././././././././././././././././././././.",
"/././././././././././././././././././././ ^ M B.G R >.U ^ E /././././.s /./././././././././././././././././././././././.",
"/././././././././././././././././././.( ( ^ t p.a.M n I ~ E /././././.; /./././././././././././././././././././././././.",
"/./././././././././././././././././.( / / / ~ W N a.I V E E /././././.o /./././././././././././././././././././././././.",
"/././././././././././././././././././ @./ / ^ R E N m.B T T /././././.@ /./././././././././././././././././././././././.",
"/././././././././././././././././.$./ / @./ ~ E E R N a.U n /././././.@ /./././././././././././././././././././././././.",
"/./././././././././././././././././ / / ^ ~ / / / ! E N V.V././././.o /././././././././././././././././././././././././.",
"/./././././././././././././././.^ ^ ^ Q E Q ^ @.^ ^ ~ Q n C /./././.X /././././././././././././././././././././././././.",
"/./././././././././././././././.! ! E E E ~ ~ ~ E E E E E E /./././.@ /././././././././././././././././././././././././."
};
