/* XPM */
static char *result[] = {
/* columns rows colors chars-per-pixel */
"60 60 198 2 ",
"   c #2A0A17",
".  c #2D0B1A",
"X  c #270915",
"o  c #360E1F",
"O  c #2E0A23",
"+  c #28062E",
"@  c #350C23",
"#  c #390E22",
"$  c #330B2C",
"%  c #3A0C2B",
"&  c #351221",
"*  c #3B162D",
"=  c #361226",
"-  c #2D0732",
";  c #2C0932",
":  c #320936",
">  c #3B0B35",
",  c #340939",
"<  c #3A0B3D",
"1  c #311237",
"2  c #3D1C36",
"3  c #3D143D",
"4  c #3C183C",
"5  c #36163C",
"6  c #3F222E",
"7  c #31232C",
"8  c #2B2238",
"9  c #342234",
"0  c #3E2231",
"q  c #3B2D3F",
"w  c #5B131E",
"e  c #482A1E",
"r  c #511D29",
"t  c #420E34",
"y  c #410C3B",
"u  c #431D3A",
"i  c #431337",
"p  c #422435",
"a  c #462A35",
"s  c #4B2E3A",
"d  c #46293B",
"f  c #582A37",
"g  c #4B333D",
"h  c #51333F",
"j  c #5D3D3C",
"k  c #513B3A",
"l  c #763D21",
"z  c #673F36",
"x  c #5E423E",
"c  c #7B4620",
"v  c #6C4436",
"b  c #644139",
"n  c #6B4B3D",
"m  c #684239",
"M  c #734636",
"N  c #764B35",
"B  c #7A4C33",
"V  c #75473B",
"C  c #7B523F",
"Z  c #795235",
"A  c #3E0B42",
"S  c #3C1D41",
"D  c #3F1543",
"F  c #3F2344",
"G  c #342B45",
"H  c #3B2E42",
"J  c #362F49",
"K  c #3D3043",
"L  c #37304B",
"P  c #3B344D",
"I  c #3B3652",
"U  c #3E3956",
"Y  c #3F3B58",
"T  c #430B44",
"R  c #460B49",
"E  c #4C0C4E",
"W  c #431344",
"Q  c #4B124D",
"!  c #4A1D4E",
"~  c #471945",
"^  c #4E0C50",
"/  c #4F1351",
"(  c #521653",
")  c #412546",
"_  c #4B244F",
"`  c #4A2A4E",
"'  c #442A49",
"]  c #443342",
"[  c #4E3742",
"{  c #44364E",
"}  c #453A4E",
"|  c #4B374A",
" . c #5C3645",
".. c #533A43",
"X. c #573946",
"o. c #4F2952",
"O. c #532256",
"+. c #58225A",
"@. c #443B53",
"#. c #493E53",
"$. c #443D5A",
"%. c #4A3855",
"&. c #513455",
"*. c #563B5A",
"=. c #593B55",
"-. c #603848",
";. c #5E2F60",
":. c #5F3A62",
">. c #5F3061",
",. c #633464",
"<. c #673A69",
"1. c #663967",
"2. c #4D4146",
"3. c #5B4043",
"4. c #54464C",
"5. c #5B424A",
"6. c #4A445C",
"7. c #4F4558",
"8. c #514A5E",
"9. c #674A46",
"0. c #754A45",
"q. c #6C5047",
"w. c #735244",
"e. c #7C5645",
"r. c #6A4254",
"t. c #7E5B56",
"y. c #4B4462",
"u. c #4F4A62",
"i. c #5A4E6B",
"p. c #554866",
"a. c #565165",
"s. c #5B5464",
"d. c #5A556C",
"f. c #5E5A6E",
"g. c #634165",
"h. c #6A476C",
"j. c #704C66",
"k. c #69586A",
"l. c #71576C",
"z. c #635B73",
"x. c #6C5F7E",
"c. c #695674",
"v. c #70656C",
"b. c #676176",
"n. c #95181E",
"m. c #971A21",
"M. c #9A262A",
"N. c #A4262B",
"B. c #944F2B",
"V. c #93542E",
"C. c #955C2F",
"Z. c #995B2E",
"A. c #834D31",
"S. c #844F35",
"D. c #865234",
"F. c #8B5330",
"G. c #885A3A",
"H. c #B15F27",
"J. c #A65829",
"K. c #9C6837",
"L. c #A4622D",
"P. c #AD652D",
"I. c #AC692D",
"U. c #B56828",
"Y. c #AE732E",
"T. c #BB7129",
"R. c #B47B2F",
"E. c #AA6B30",
"W. c #C46E25",
"Q. c #C17427",
"!. c #C27429",
"~. c #C87726",
"^. c #805741",
"/. c #815841",
"(. c #896C46",
"). c #926245",
"_. c #9D634C",
"`. c #816352",
"'. c #9B795D",
"]. c #B27441",
"[. c #A57A53",
"{. c #B17E51",
"}. c #8E5B75",
"|. c #88597D",
" X c #905F7B",
".X c #885469",
"XX c #8B637B",
"oX c #906678",
"OX c #86786B",
"+X c #B68636",
"@X c #BB8A58",
"#X c #BF9C5E",
"$X c #C7934A",
"%X c #6F6380",
"&X c #746882",
"*X c #8E6787",
"=X c #976784",
"-X c None",
/* pixels */
"-X-X-X-X-X-X-X-X-X-X-X-X-X-X-X-X-X-X-X-X-X-X-X-X-X-X-X-X-X-X-X-X-X-X-X-X-X-Xo.-X-X-X-X-X-X-X-X-X-X-X-X-X-X-X-X-X-X-X-X-X",
"-X-X-X-X-X-X-X-X-X-X-X-X-X-X-X-X-X-X-X-X-X-X-X-X-X-X-X-X-X-X-X-X-X-X-X-X-X-X-X-X-X-X-X-X-X-X-X-X-X-X-X-X-X-X-X-X-X-X-X-X",
"-X-X-X-X-X-X-X-X-X-X-X-X-X-X-X-X-X-X-X-X-X-X-X-X-X-X-X-X-X-X-X-X-X-X-X-X-X-X-X-X-X-X-X<.1.-X-X-X-X-X-X-X-X-X-X-X-X-X-X-X",
"-X-X-X-X-X-X-X-X-X-X-X-X-X-X-X-X-X-X-X-X-X-X-X-X-X-X-X-X-X-X-X-X-X-X-X-X-X-X-X-X-X-X-X! Q -X-X-X-X-X-X-X-X-X-X-X-X-X-X-X",
"-X-X-X-X-X-X-X-X-X-X-X-X-X-X-X-X-X-X-X-X-X-X-X-X-X-X-X-X-X-X-X-X-X-X-X-X-X-X-X-X-X-X-X&.Q ;.-X-X-X-X-X-X-X-X-X-X-X-X-X-X",
"-X-X-X-X-X-X-X-X-X-X-X-X-X-X-X-X-X-X-X-X-X-X-X-X-X-X-X-X-X-X-X-X-X-X-X-X-X-X-X-X-X-X-X-Xg.;.-X-X-X-X-X-X-X-X-X-X-X-X-X-X",
"-X-X-X-X-X-X-X-X-X-X-X-X-X-X-X-X-X-X-X-X-X-X-X-X-X-X-X-X-X-X-X-X-X-X-X-X-X-X-X-X' -X-X-X-Xc.-X-X-X-X-X-X-X-X-X-X-X-X-X-X",
"-X-X-X-X-X-X-X-X-X-X-X-X-X-X-X-X-X-X-X-X-X-X-X-X-X-X-X-X-X-X-X-X-X-X-X-X-X-X-X-X' *.-X-X-X-X-X<.-X-X-X-X-X-X-X-X-X-X-X-X",
"-X-X-X-X-X-X-X-X-X-X-X-X-X-X-X-X-X-X-X-X-X-X-X-X-X-X-X-X-X-X-X-X-X-X-X-X-X-X-X-X-X-X-X-X-X-X-X-X-X-X-X-X-X-X-X-X-X-X-X-X",
"-X-X-X-X-X-X-X-X-X-X-X-X-X-X-X-X-X-X-X-X-X-X-X-X-X-X-X-X-X-Xk.-X-X-X-X-X-X-X-X-X-X-X-X-X-X-X-X-X-X-X-X-X-X-X-X-X-X-X-X-X",
"-X-X-X-X-X-X-X-X-X-X-X-X-X-X-X-X-X-X-X-X-X-X-X-X-X-X-X-X-X-X-X-X-X-X-X-X-X-X-X-X-X-X-X-X-X-X-X-X-X-X-X-X-X-X-X-X-X-X-X-X",
"-X-X-X-X-X-X-X-X-X-X-X-X-X-X-X-X-X-X-X-X-X-X-X-X-X-X-X-X-X-X-X-X-XO._ -X-X| -X-X-X-X-X-X-X-X-X-X-X-X-X-X-X-X-X-X-X-X-X-X",
"-X-X-X-X-X-X-X-X-X-X-X-X-X-X-X-X-X-X-X-X-X-X-X-X-X-X-X-X-X-X-X-X,.R o.-X` 5 -X-X-X-X-X-X-X-X-X-X-X-X-X-X-X-X-X-X-X-X-X-X",
"-X-X-X-X-X-X-X-X-X-X-X-X-X-X-X-X-X-X-X-X-X-X-X-X-X-X-X-X-X-X-X-XQ ! -XO.; ; D O.-Xo.-X-X-X-X-X-X-X-X-X-X-X-X-X-X-X-X-X-X",
"-X-X-X-X-X-X-X-X-X-X-X-X-X-X-X-X-X-X-X-X-X-X-X-X-X-X-X-X-X-X-X,.< q &.< , , W T S R _ -Xh.-X-X-X-X-X-X-X-X-X-X-X-X-X-X-X",
"-X-X-X-X-X-X-X-X-X-X-X-X-X-X-X-X-X-X-X-X-X-X-X-X-X-X-X-X-X-X-X*.: + : R R 1 * % > E D ~ / <.-X-X-X-X-X-X-X-X-X-X-X-X-X-X",
"-X-X-X-X-X-X-X-X-X-X-X-X-X-X-X-X-X-X-X-X-X-X-X-X-X-X-X-X-X-X-X*.< , R E E > @ & i ^ R T E ^ <.-X-X-X-X-X-X-X-X-X-X-X-X-X",
"-X-X-X-X-X-X-X-X-X-X-X-X-X-X-X-X-X-X-X-X-X-X-X-X-X-X-X-X-X-X-X-X! E E E R % o 0 d / ^ R A E ,.-X-X-X-X-X-X-X-X-X-X-X-X-X",
"-X-X-X-X-X-X-X-X-X-X-X-X-X-X-X-X-X-X-X-X-X-X-X-X-X-X-X-X-X-X-X-X( ^ E E T # . = p u E ^ R < p.-X-X-X-X-X-X-X-X-X-X-X-X-X",
"-X-X-X-X-X-X-X-X-X-X-X-X-X-X-X-X-X-X-X-X-X-X-X-X-X-X-X-X-X-X-X-X( ^ ^ E y o @ A u p Q E E A u -X-X-X-X-X-X-X-X-X-X-X-X-X",
"-X-X-X-X-X-X-X-X-X-X-X-X-X-X-X-X-X-X-X-X-X-X-X-X-X-X-X-X-X-X-X_ E E E E t o t E u p < R E T 5 -X-X-X-X-X-X-X-X-X-X-X-X-X",
"-X-X-X-X-X-X-X-X-X-X-X-X-X-X-X-X-X-X-X-X-X-X-X-X-X-X-X-X-X-X-XW R ^ ^ E # o t T u 2 D , < , ; =.-X-X-X-X-X-X-X-X-X-X-X-X",
"-X-X-X-X-X-X-X-X-X-X-X-X-X-X-X-X-X-X-X-X-X-X-X-X-X-X-X-X-X-Xg.< R ^ E R @ . r % 6 i E T , - + %.-X-X-X-X-X-X-X-X-X-X-X-X",
"-X-X-X-X-X-X-X-X-X-X-X-X-X-X-X-X-X-X-X-X-X-X-X-X-X-X-X-X-X-Xo.; T E E A , . . o = 3 E E A + : -X-X-X-X-X-X-X-X-X-X-X-X-X",
"-X-X-X-X-X-X-X-X-X-X-X-X-X-X-X-X-X-X-X-X-X-X-X-X-X-X-X-X-X-X&.; - T R : < * . . o : A E R - 4 -X-X-X-X-X-X-X-X-X-X-X-X-X",
"-X-X-X-X-X-X-X-X-X-X-X-X-X-X-X-X-X-X-X-X-X-X-X-X-X-X-X-X-X-X-X1 + : , - 2 f w   . O A ^ E : *.-X-X-X-X-X-X-X-X-X-X-X-X-X",
"-X-X-X-X-X-X-X-X-X-X-X-X-X-X-X-X-X-X-X-X-X-X-X-X-X-X-X-X-X-X-X' ; + : ; u N.n.    % R ^ A S -X-X-X-X-X-X-X-X-X-X-X-X-X-X",
"-X-X-X-X-X-X-X-X-X-X-X-X-X-X-X-X-X-X-X-X-X-X-X-X-X-X-X-X-X-X-X-XF + ; < 2 M.n.. X > ^ ^ A -X-X-X-X-X-X-X-X-X-X-X-X-X-X-X",
"-X-X-X-X-X-X-X-X-X-X-X-X-X-X-X-X-X-X-X-X-X-X-X-X-X-X-X-X-X-X-X-X-XF ; A u r w   . y E R D -X-X-X-X-X-X-X-X-X-X-X-X-X-X-X",
"-X-X-X-X-X-X-X-X-X-X-X-X-X-X-X-X-X-X-X-X-X-X-X-X%Xc.%X-X-X-X-X-X-X-XF - 3 @   X $ E O.:.-X-X-X-X-X-X-X-X-X-X-X-X-X-X-X-X",
"-X-X-X-X-X-X-X-X-X-X-X-X-X-X-X-X-X-X-X-X-X-X-X%Xp.$.$.b.-X-X-X-X-X-X-XF $ .   @ W h.-X-X-X-X-X-X-X-X-X-X-X-X-X-X-X-X-X-X",
"-X-X-X-X-X-X-X-X-X-X-X-X-X-X-X-X-X-X-X-X-X-X-Xi.$.0.j 8.-X-X-X-X-X-X-X-Xk.6 a l.-X-X-X-X-X-X-X-X-X-X-X-X-X-X-X-X-X-X-X-X",
"-X-X-X-X-X-X-X-X-X-X-X-X-X-X-X-X-X-X-X-X-X-X&Xy.r.P.l ] -X-X-X-X-X-X-X-X-Xs [ -X-X-X-X-X-X-X-X-X-X-X-X-X-X-X-X-X-X-X-X-X",
"-X-X-X-X-X-X-X-X-X-X-X-X-X-X-X-X-X-X-X-X-X-Xc.$.2.U.c 9 -X-X-X-X-X-X-X-X-Xs h -X-X-X-X-X-X-X-X-X-X-X-X-X-X-X-X-X-X-X-X-X",
"-X-X-X-X-X-X-X-X-X-X-X-X-X-X-X-X-X-X-X-X$X].).0. .v e 7 OX#X-X-X-X-X-X-X-Xh ..-X-X-X-X-X-X-X-X-X-X-X-X-X-X-X-X-X-X-X-X-X",
"-X-X-X-X-X-X-X-X-X-X-X-X-X-X-X-X-X-X-X-X-Xt.E.!._.7.8 k +X$X-X-X-X-X-X-X-X[ ..-X-X-X-X-X-X-X-X-X-X-X-X-X-X-X-X-X-X-X-X-X",
"-X-X-X-X-X-X-X-X-X-X-X-X-X-X-X-X-X-X-X-X-X$.M U.Q.E.q.w.R.$X-X-X-X-X-X-X-XX.-X-X-X-X-X-X-X-X-X-X-X-X-X-X-X-X-X-X-X-X-X-X",
"-X-X-X-X-X-X-X-X-X-X-X-X-X-X-X-X-X-X-X-Xa.P K v L.T.Q.T.!.).-X-X-X-X-X-X-Xr.-X-X-X-X-X-X-X-X-X-X-X-X-X-X-X-X-X-X-X-X-X-X",
"-X-X-X-X-X-X-X-X-X-X-X-X-X-X-X-X-X-X-Xx.$.6.b.[ Z B A.B.I.k P 8.-X-X-X-XXXXX-X-X-X-X-X-X-X-X-X-X-X-X-X-X-X-X-X-X-X-X-X-X",
"-X-X-X-X-X-X-X-X-X-X-X-X-X-X-X-X-X-X-Xu.@.-X-Xs.x B j } /.v.@.J P $.$.$.j.=X-X-X-X-X-X-X-X-X-X-X-X-X-X-X-X-X-X-X-X-X-X-X",
"-X-X-X-X-X-X-X-X-X-X-X-X-X-X-X-X-X-Xd.U @.-X-X-X#.0.e.2.7.-X-X-XP G J P { =.-X-X-X-X-X-X-X-X-X-X-X-X-X-X-X-X-X-X-X-X-X-X",
"-X-X-X-X-X-X-X-X-X-X-X-X-X-X-X-X-X-X6.L a.-X-X-Xs.$.w.4.y.-X-X-X-Xa.8.P 0 ..-X-X-X-X-X-X-X-X-X-X-X-X-X-X-X-X-X-X-X-X-X-X",
"-X-X-X-X-X-X-X-X-X-X-X-X-X-X-X-X-Xf.@.I -X-X-X-X-XY w.n 4.-X-X-X-X-X-X-Xs -X-X-X-X-X-X-X-X-X-X-X-X-X-X-X-X-X-X-X-X-X-X-X",
"-X-X-X-X-X-X-X-X-X-X-X-X-X-X-X-X-Xu.P P -X-X-X-X(.2.5.K.Z [.-X-X-X-X-X-X .-X-X-X-X-X-X-X-X-X-X-X-X-X-X-X-X-X-X-X-X-X-X-X",
"-X-X-X-X-X-X-X-X-X-X-X-X-X-X-X-X-Xy.L { -X-X-X-XY.Y.q.I.L.{.-X-X-X-X-X-X .-X-X-X-X-X-X-X-X-X-X-X-X-X-X-X-X-X-X-X-X-X-X-X",
"-X-X-X-X-X-X-X-X-X-X-X-X-X-X-X-X-Xs.@.P -X-X-X8.z U.T.!.T.`.-X-X-X-X-X-Xg -X-X-X-X-X-X-X-X-X-X-X-X-X-X-X-X-X-X-X-X-X-X-X",
"-X-X-X-X-X-X-X-X-X-X-X-X-X-X-X-X-X*X|.g.-X-X-X$.G z T.~.!.C -X-X-X-X-X-Xg -X-X-X-X-X-X-X-X-X-X-X-X-X-X-X-X-X-X-X-X-X-X-X",
"-X-X-X-X-X-X-X-X-X-X-X-X-X-X-X-X-X=X}. X-X-Xa.U G z U.W.~.D.-X-X-X-X-X-X .-X-X-X-X-X-X-X-X-X-X-X-X-X-X-X-X-X-X-X-X-X-X-X",
"-X-X-X-X-X-X-X-X-X-X-X-X-X-X-X-X-XoX.XoX-Xk.Y L q B v J.H.j -X-X-X-X-X-X-.-X-X-X-X-X-X-X-X-X-X-X-X-X-X-X-X-X-X-X-X-X-X-X",
"-X-X-X-X-X-X-X-X-X-X-X-X-X-X-X-X-X-X-X-X@X/...K m q.@.V.B.] -X-X-X-X-X-X-.-X-X-X-X-X-X-X-X-X-X-X-X-X-X-X-X-X-X-X-X-X-X-X",
"-X-X-X-X-X-X-X-X-X-X-X-X-X-X-X-X-X-X-X-X'.K.I.C.I.w.#.S...P -X-X-X-X-X-Xh -X-X-X-X-X-X-X-X-X-X-X-X-X-X-X-X-X-X-X-X-X-X-X",
"-X-X-X-X-X-X-X-X-X-X-X-X-X-X-X-X-X-X-X-Xz.7.x Z !.w.#.e.@.I -X-X-X-X-X-Xg -X-X-X-X-X-X-X-X-X-X-X-X-X-X-X-X-X-X-X-X-X-X-X",
"-X-X-X-X-X-X-X-X-X-X-X-X-X-X-X-X-X-X-X-Xu.I G v Z.k #./.} L -X-X-X-X-X .-X-X-X-X-X-X-X-X-X-X-X-X-X-X-X-X-X-X-X-X-X-X-X-X",
"-X-X-X-X-X-X-X-X-X-X-X-X-X-X-X-X-X-X-Xd.U I ] L.D.q } C @.L -X-X-X-X-Xh -X-X-X-X-X-X-X-X-X-X-X-X-X-X-X-X-X-X-X-X-X-X-X-X",
"-X-X-X-X-X-X-X-X-X-X-X-X-X-X-X-X-X-Xb.Y U U { M Z.v ] V { J -X-X-X-X-Xs -X-X-X-X-X-X-X-X-X-X-X-X-X-X-X-X-X-X-X-X-X-X-X-X",
"-X-X-X-X-X-X-X-X-X-X-X-X-X-X-X-X-X-Xy.U U Y I G g A.F.z H J -X-X-X-X-Xa -X-X-X-X-X-X-X-X-X-X-X-X-X-X-X-X-X-X-X-X-X-X-X-X",
"-X-X-X-X-X-X-X-X-X-X-X-X-X-X-X-X-Xf.$.U Y Y I G G g F.N H G -X-X-X-X-Xs -X-X-X-X-X-X-X-X-X-X-X-X-X-X-X-X-X-X-X-X-X-X-X-X",
"-X-X-X-X-X-X-X-X-X-X-X-X-X-X-X-X-Xu.U U I I I I L J g F.C.n -X-X-X-X-X5.-X-X-X-X-X-X-X-X-X-X-X-X-X-X-X-X-X-X-X-X-X-X-X-X",
"-X-X-X-X-X-X-X-X-X-X-X-X-X-X-X-X-X6.I P G G I U U I L [ F.L.-X-X-X-Xg ..-X-X-X-X-X-X-X-X-X-X-X-X-X-X-X-X-X-X-X-X-X-X-X-X",
"-X-X-X-X-X-X-X-X-X-X-X-X-X-X-X-X6.L G G G J P P J G G G d [ -X-X-X-Xg ..-X-X-X-X-X-X-X-X-X-X-X-X-X-X-X-X-X-X-X-X-X-X-X-X"
};
