/* XPM */
static char *result[] = {
/* columns rows colors chars-per-pixel */
"60 60 194 2 ",
"   c #260916",
".  c #290A17",
"X  c #2B091A",
"o  c #330D1C",
"O  c #2B1A1F",
"+  c #2E0924",
"@  c #28072F",
"#  c #340C21",
"$  c #3B0E24",
"%  c #370A2F",
"&  c #3C0D2B",
"*  c #351324",
"=  c #3B1525",
"-  c #2D0732",
";  c #2E0C33",
":  c #310A35",
">  c #3A0A34",
",  c #35093A",
"<  c #3A093D",
"1  c #300735",
"2  c #301136",
"3  c #35163A",
"4  c #39123E",
"5  c #3F232F",
"6  c #3D2233",
"7  c #392B3F",
"8  c #4C0F1A",
"9  c #6C121B",
"0  c #71141E",
"q  c #502E1F",
"w  c #400E2E",
"e  c #40132F",
"r  c #5D1A26",
"t  c #450D3D",
"y  c #400D32",
"u  c #42123C",
"i  c #431C3A",
"p  c #421833",
"a  c #41212E",
"s  c #573022",
"d  c #432333",
"f  c #4A2533",
"g  c #452935",
"h  c #4C2B3B",
"j  c #47263A",
"k  c #542D3D",
"l  c #522534",
"z  c #4D333C",
"x  c #47303C",
"c  c #5E3B37",
"v  c #543A3D",
"b  c #5C3C3A",
"n  c #543B35",
"m  c #67222C",
"M  c #633F37",
"N  c #7E452F",
"B  c #6D4435",
"V  c #664439",
"C  c #6F4C3D",
"Z  c #764B35",
"A  c #7D4C33",
"S  c #784938",
"D  c #6C513D",
"F  c #78563C",
"G  c #3E0A41",
"H  c #3D1D42",
"J  c #3C1341",
"K  c #3E2243",
"L  c #342B44",
"P  c #3B2E42",
"I  c #362E49",
"U  c #37304B",
"Y  c #3A334D",
"T  c #3B3552",
"R  c #3E3956",
"E  c #430B45",
"W  c #460B49",
"Q  c #4C0C4D",
"!  c #4A0C46",
"~  c #491445",
"^  c #4B114A",
"/  c #451D49",
"(  c #441A43",
")  c #4D0C50",
"_  c #4E1D51",
"`  c #551D57",
"'  c #412546",
"]  c #4B224E",
"[  c #492F4E",
"{  c #452A49",
"}  c #582F40",
"|  c #41344B",
" . c #4B334F",
".. c #433B4F",
"X. c #4A3D4E",
"o. c #473646",
"O. c #593543",
"+. c #533B43",
"@. c #553E4C",
"#. c #583C47",
"$. c #4D2951",
"%. c #5B2A5D",
"&. c #552257",
"*. c #4D3451",
"=. c #443C52",
"-. c #4B3F52",
";. c #433E5A",
":. c #483F5F",
">. c #513A54",
",. c #5D305F",
"<. c #68384B",
"1. c #5E3F61",
"2. c #633765",
"3. c #643E66",
"4. c #56424C",
"5. c #5A444B",
"6. c #5F4340",
"7. c #464054",
"8. c #4C425A",
"9. c #4A455B",
"0. c #5A455D",
"q. c #54445A",
"w. c #644A49",
"e. c #714840",
"r. c #754D4F",
"t. c #665249",
"y. c #765344",
"u. c #795343",
"i. c #71564D",
"p. c #654454",
"a. c #6C4655",
"s. c #644D56",
"d. c #725952",
"f. c #4B4262",
"g. c #4F4A62",
"h. c #524D62",
"j. c #5D4B62",
"k. c #58486F",
"l. c #56496E",
"z. c #575163",
"x. c #59536B",
"c. c #5C586E",
"v. c #5D4D74",
"b. c #614E65",
"n. c #674B69",
"m. c #7F5669",
"M. c #635B76",
"N. c #7C5274",
"B. c #68607A",
"V. c #B92428",
"C. c #884E2F",
"Z. c #94552E",
"A. c #945C2F",
"S. c #9C582B",
"D. c #834D31",
"F. c #835232",
"G. c #8C5934",
"H. c #83563C",
"J. c #875C3D",
"K. c #915833",
"L. c #A85728",
"P. c #A15B2A",
"I. c #8D613D",
"U. c #996738",
"Y. c #AC642A",
"T. c #A8662A",
"R. c #BB6323",
"E. c #BE6C25",
"W. c #B46B2A",
"Q. c #AA712E",
"!. c #BF732A",
"~. c #BD7B2E",
"^. c #A2663B",
"/. c #A36732",
"(. c #B07531",
"). c #C4752A",
"_. c #C87526",
"`. c #9D6A46",
"'. c #987450",
"]. c #B47B44",
"[. c #84556D",
"{. c #8D5A72",
"}. c #8F5F7A",
"|. c #896178",
" X c #926F7D",
".X c #A37C65",
"XX c #C48C32",
"oX c #B98952",
"OX c #B89254",
"+X c #C09552",
"@X c #726583",
"#X c #8D5F84",
"$X c #966682",
"%X c None",
/* pixels */
"%X%X%X%X%X%X%X%X%X%X%X%X%X%X%X%X%X%X%X%X%X%X%X%X%X%X%X%X%X%X%X%X%X%X%X%X%X%X%X%X%X%X%X%X%X%X%X%X%X%X%X%X%X%X%X%X%X%X%X%X",
"%X%X%X%X%X%X%X%X%X%X%X%X%X%X%X%X%X%X%X%X%X%X%X%X%X%X%X%X%X%X%X%X%X%X%X%X%X%X%X%Xj.>.%X%X%X%X%X%X%X%X%X%X%X%X%X%X%X%X%X%X",
"%X%X%X%X%X%X%X%X%X%X%X%X%X%X%X%X%X%X%X%X%X%X%X%X%X%X%X%X%X%X%X%X%X%X%X%X%X%X%X%X%X%X%X%X%X%X%X%X%X%X%X%X%X%X%X%X%X%X%X%X",
"%X%X%X%X%X%X%X%X%X%X%X%X%X%X%X%X%X%X%X%X%X%X%X%X%X%X%X%X%X%X%X%X%X%X%X%X%X%X%X%X%X%X%X%X%X%X%X%X%X%X%X%X%X%X%X%X%X%X%X%X",
"%X%X%X%X%X%X%X%X%X%X%X%X%X%X%X%X%X%X%X%X%X%X%X%X%X%X%X%X%X%X%X%X%X%X%X%X%X%X%X%X%X%X%X%X%X%X%X%X%X%X%X%X%X%X%X%X%X%X%X%X",
"%X%X%X%X%X%X%X%X%X%X%X%X%X%X%X%X%X%X%X%X%X%X%X%X%X%X%X%X%X%X%X%X%X%X%X%X%X%X%X%X%X%X%X%X%X%X%X%X%X%X%X%X%X%X%X%X%X%X%X%X",
"%X%X%X%X%X%X%X%X%X%X%X%X%X%X%X%X%X%X%X%X%X%X%X%X%X%X%X%X%X%X%X%X%X%X%X%X%X%X%X%X%X%X%X%X%X%X%X%X%X%X%X%X%X%X%X%X%X%X%X%X",
"%X%X%X%X%X%X%X%X%X%X%X%X%X%X%X%X%X%X%X%X%X%X%X%X%X%X%X%X%X%X%X%X%X%X%X%X%X%X%X%X%X%X%X%X%X%X%X%X%X%X%X%X%X%X%X%X%X%X%X%X",
"%X%X%X%X%X%X%X%X%X%X%X%X%X%X%X%X%X%X%X%X%X%X%X%X%X%X%X%X%X%X%X[ >.%X%X%X%X1.%.%.%.%X%X%X%X%X%X%X%X%X%X%X%X%X%X%X%X%X%X%X",
"%X%X%X%X%X%X%X%X%X%X%X%X%X%X%X%X%X%X%X%X%X%X%X%X%X%X%X%X%X%X%X%X%X%X%X%X2.` 2.2.^ ] %X%X%X%X%X%X%X%X%X%X%X%X%X%X%X%X%X%X",
"%X%X%X%X%X%X%X%X%X%X%X%X%X%X%X%X%X%X%X%X%X%X%X%X%X%X%X%X%X%X%X%X%X%X%X$.W _ j.j.3 H %X%X%X%X%X%X%X%X%X%X%X%X%X%X%X%X%X%X",
"%X%X%X%X%X%X%X%X%X%X%X%X%X%X%X%X%X%X%X%X%X%X%X%X%X%X%X%X%X%X%X%X&.&.%XH W E , ; : ; >.0.%X%X%X%X%X%X%X%X%X%X%X%X%X%X%X%X",
"%X%X%X%X%X%X%X%X%X%X%X%X%X%X%X%X%X%X%X%X%X%X%X%X%X%X%X%X%X%X%X` E n. ., Q ) ! W W < , ; *.%X%X%X%X%X%X%X%X%X%X%X%X%X%X%X",
"%X%X%X%X%X%X%X%X%X%X%X%X%X%X%X%X%X%X%X%X%X%X%X%X%X%X%X%X%X%X%X_ 1.%X4 E Q ) ) Q ) Q E - 3 %X%X%X%X%X%X%X%X%X%X%X%X%X%X%X",
"%X%X%X%X%X%X%X%X%X%X%X%X%X%X%X%X%X%X%X%X%X%X%X%X%X%X%X%X%X%X%X/ _ 3 , ) ) ^ ^ Q Q ) Q ; @ K %X%X%X%X%X%X%X%X%X%X%X%X%X%X",
"%X%X%X%X%X%X%X%X%X%X%X%X%X%X%X%X%X%X%X%X%X%X%X%X%X%X%X%X%X%X%X1.E 1 < Q ) ~ & & E ) Q ; @ K %X%X%X%X%X%X%X%X%X%X%X%X%X%X",
"%X%X%X%X%X%X%X%X%X%X%X%X%X%X%X%X%X%X%X%X%X%X%X%X%X%X%X%X%X%X%X/ W G W ) ) t o = ~ ) E - ; %X%X%X%X%X%X%X%X%X%X%X%X%X%X%X",
"%X%X%X%X%X%X%X%X%X%X%X%X%X%X%X%X%X%X%X%X%X%X%X%X%X%X%X%X%X%X%XJ W Q ) ) Q & * j ( ) < 1 ' %X%X%X%X%X%X%X%X%X%X%X%X%X%X%X",
"%X%X%X%X%X%X%X%X%X%X%X%X%X%X%X%X%X%X%X%X%X%X%X%X%X%X%X%X%X%X%X' : G Q Q t $ o i j ~ < E ] %X%X%X%X%X%X%X%X%X%X%X%X%X%X%X",
"%X%X%X%X%X%X%X%X%X%X%X%X%X%X%X%X%X%X%X%X%X%X%X%X%X%X%X%X%X%X%X%XK - E G y o > ! 6 d , W ] %X%X%X%X%X%X%X%X%X%X%X%X%X%X%X",
"%X%X%X%X%X%X%X%X%X%X%X%X%X%X%X%X%X%X%X%X%X%X%X%X%X%X%X%X%X%X%X%X%XK , > $ $ t Q d = , Q / %X%X%X%X%X%X%X%X%X%X%X%X%X%X%X",
"%X%X%X%X%X%X%X%X%X%X%X%X%X%X%X%X%X%X%X%X%X%X%X%X%X%X%X%X%X%X%X%X%X*.1 : o = t ^ 6 j W E : %X%X%X%X%X%X%X%X%X%X%X%X%X%X%X",
"%X%X%X%X%X%X%X%X%X%X%X%X%X%X%X%X%X%X%X%X%X%X%X%X%X%X%X%X%X%X%X%X%X[ - 1 # o $ p 6 ~ W - 2 %X%X%X%X%X%X%X%X%X%X%X%X%X%X%X",
"%X%X%X%X%X%X%X%X%X%X%X%X%X%X%X%X%X%X%X%X%X%X%X%X%X%X%X%X%X%X%X%X%X{ - E > X o = i Q G ; *.%X%X%X%X%X%X%X%X%X%X%X%X%X%X%X",
"%X%X%X%X%X%X%X%X%X%X%X%X%X%X%X%X%X%X%X%X%X%X%X%X%X%X%X%X%X%X%X%X%X2 , ) E * . o & W : K %X%X%X%X%X%X%X%X%X%X%X%X%X%X%X%X",
"%X%X%X%X%X%X%X%X%X%X%X%X%X%X%X%X%X%X%X%X%X%X%X%X%X%X%X%X%X%X%X%X%X; G ^ j m 8   # t , K %X%X%X%X%X%X%X%X%X%X%X%X%X%X%X%X",
"%X%X%X%X%X%X%X%X%X%X%X%X%X%X%X%X%X%X%X%X%X%X%X%X%X%X%X%X%X%X%X%X%X2 W ^ l V.9   o t G 2 %X%X%X%X%X%X%X%X%X%X%X%X%X%X%X%X",
"%X%X%X%X%X%X%X%X%X%X%X%X%X%X%X%X%X%X%X%X%X%X%X%X%X%X%X%X%X%X%X%X%X: W ^ f V.0   X t , 2 %X%X%X%X%X%X%X%X%X%X%X%X%X%X%X%X",
"%X%X%X%X%X%X%X%X%X%X%X%X%X%X%X%X%X%X%X%X%X%X%X%X%X%X%X%X%X%X%X%X%X3 G W d r 8   + , - 3 %X%X%X%X%X%X%X%X%X%X%X%X%X%X%X%X",
"%X%X%X%X%X%X%X%X%X%X%X%X%X%X%X%X%X%X%X%X%X%X%X%X%X%X%X%X%X%X%X%X%X>.- E u o   X % - 2 >.%X%X%X%X%X%X%X%X%X%X%X%X%X%X%X%X",
"%X%X%X%X%X%X%X%X%X%X%X%X%X%X%X%X%X%X%X%X%X%X%X@Xv.l.M.%X%X%X%X%X%X%X3 : %   X + > ; *.%X%X%X%X%X%X%X%X%X%X%X%X%X%X%X%X%X",
"%X%X%X%X%X%X%X%X%X%X%X%X%X%X%X%X%X%X%X%X%X%X%Xk.:.-.8.%X%X%X%X%X%X%X%X' + X X ; : ' %X%X%X%X%X%X%X%X%X%X%X%X%X%X%X%X%X%X",
"%X%X%X%X%X%X%X%X%X%X%X%X%X%X%X%X%X%X%X%X%X%X@Xf.5.Z.n q.%X%X%X%X%X%X%X%X@.= h >.%X%X%X%X%X%X%X%X%X%X%X%X%X%X%X%X%X%X%X%X",
"%X%X%X%X%X%X%X%X%X%X%X%X%X%X%X%X%X%X%X%X%X%Xv.:.H.R.s =.%X%X%X%X%X%X%X%X%Xa s.%X%X%X%X%X%X%X%X%X%X%X%X%X%X%X%X%X%X%X%X%X",
"%X%X%X%X%X%X%X%X%X%X%X%X%X%X%X%X%X%X%X%XOX.Xn.X.c T.q P %X%X%X%X%X%X%X%X%Xd %X%X%X%X%X%X%X%X%X%X%X%X%X%X%X%X%X%X%X%X%X%X",
"%X%X%X%X%X%X%X%X%X%X%X%X%X%X%X%X%X%X%X%XoX^.^.J.w.z O n OX+X%X%X%X%X%X%X%Xj %X%X%X%X%X%X%X%X%X%X%X%X%X%X%X%X%X%X%X%X%X%X",
"%X%X%X%X%X%X%X%X%X%X%X%X%X%X%X%X%X%X%X%XM.w.W._.`.@.I F XX%X%X%X%X%X%X%X%Xz %X%X%X%X%X%X%X%X%X%X%X%X%X%X%X%X%X%X%X%X%X%X",
"%X%X%X%X%X%X%X%X%X%X%X%X%X%X%X%X%X%X%X%Xf.P B Y.).(.I.U.~.'.%X%X%X%X%X%Xm.<.%X%X%X%X%X%X%X%X%X%X%X%X%X%X%X%X%X%X%X%X%X%X",
"%X%X%X%X%X%X%X%X%X%X%X%X%X%X%X%X%X%X%Xx.R =.Y B Z.W.E.E.Y.v 7.%X%X%X%X%X|.|.%X%X%X%X%X%X%X%X%X%X%X%X%X%X%X%X%X%X%X%X%X%X",
"%X%X%X%X%X%X%X%X%X%X%X%X%X%X%X%X%X%X%X;.9.%X%X4.S B c D.U.7.L Y T ;.9.8.[.$X%X%X%X%X%X%X%X%X%X%X%X%X%X%X%X%X%X%X%X%X%X%X",
"%X%X%X%X%X%X%X%X%X%X%X%X%X%X%X%X%X%Xf.T 9.%X%Xq.b K.4...d.%X%Xz.I L Y T *.p.%X%X%X%X%X%X%X%X%X%X%X%X%X%X%X%X%X%X%X%X%X%X",
"%X%X%X%X%X%X%X%X%X%X%X%X%X%X%X%X%XM.R Y %X%X%X%XY r.y.7.h.%X%X%X%Xh.8.P 6 %X%X%X%X%X%X%X%X%X%X%X%X%X%X%X%X%X%X%X%X%X%X%X",
"%X%X%X%X%X%X%X%X%X%X%X%X%X%X%X%X%Xg.Y 7.%X%X%X%Xq.=.F 7.z.%X%X%X%X%X%X%Xg %X%X%X%X%X%X%X%X%X%X%X%X%X%X%X%X%X%X%X%X%X%X%X",
"%X%X%X%X%X%X%X%X%X%X%X%X%X%X%X%X%X;.Y 7.%X%X%X%Xt.=.H.y.t.%X%X%X%X%X%X%Xk %X%X%X%X%X%X%X%X%X%X%X%X%X%X%X%X%X%X%X%X%X%X%X",
"%X%X%X%X%X%X%X%X%X%X%X%X%X%X%X%X%X;.I -.%X%X%X`.Z.6.w.Q.F %X%X%X%X%X%X%XO.%X%X%X%X%X%X%X%X%X%X%X%X%X%X%X%X%X%X%X%X%X%X%X",
"%X%X%X%X%X%X%X%X%X%X%X%X%X%X%X%X%X8.| =.%X%X%XX.A T.G.)./.%X%X%X%X%X%X%Xg %X%X%X%X%X%X%X%X%X%X%X%X%X%X%X%X%X%X%X%X%X%X%X",
"%X%X%X%X%X%X%X%X%X%X%X%X%X%X%X%X%X#XN.j.%X%Xc.T 7 C.)._.W.i.%X%X%X%X%X%Xg %X%X%X%X%X%X%X%X%X%X%X%X%X%X%X%X%X%X%X%X%X%X%X",
"%X%X%X%X%X%X%X%X%X%X%X%X%X%X%X%X%X$X{.|.%X%X9.T 7 A R._.E.u.%X%X%X%X%Xa.#.%X%X%X%X%X%X%X%X%X%X%X%X%X%X%X%X%X%X%X%X%X%X%X",
"%X%X%X%X%X%X%X%X%X%X%X%X%X%X%X%X%X{.[. X%Xh.=.I o.A S R.S.4.%X%X%X%X%X<.O.%X%X%X%X%X%X%X%X%X%X%X%X%X%X%X%X%X%X%X%X%X%X%X",
"%X%X%X%X%X%X%X%X%X%X%X%X%X%X%X%X%X%X%X%X].C o.P S 5.4.L.N ..%X%X%X%X%X<.O.%X%X%X%X%X%X%X%X%X%X%X%X%X%X%X%X%X%X%X%X%X%X%X",
"%X%X%X%X%X%X%X%X%X%X%X%X%X%X%X%X%X%X%X%X`./.T.K.T.5.5.F.| =.%X%X%X%X%Xk z %X%X%X%X%X%X%X%X%X%X%X%X%X%X%X%X%X%X%X%X%X%X%X",
"%X%X%X%X%X%X%X%X%X%X%X%X%X%X%X%X%X%X%X%Xz.4.V A.~.4.5.u.T =.%X%X%X%X%Xg h %X%X%X%X%X%X%X%X%X%X%X%X%X%X%X%X%X%X%X%X%X%X%X",
"%X%X%X%X%X%X%X%X%X%X%X%X%X%X%X%X%X%X%X%X;.Y I A G.| 5.u.Y =.%X%X%X%X%X+.%X%X%X%X%X%X%X%X%X%X%X%X%X%X%X%X%X%X%X%X%X%X%X%X",
"%X%X%X%X%X%X%X%X%X%X%X%X%X%X%X%X%X%X%Xg.R Y b W.V L 5.e.U ..%X%X%X%X%Xh %X%X%X%X%X%X%X%X%X%X%X%X%X%X%X%X%X%X%X%X%X%X%X%X",
"%X%X%X%X%X%X%X%X%X%X%X%X%X%X%X%X%X%Xh.R R T o.F.Z.n o.e.U =.%X%X%X%X%Xg %X%X%X%X%X%X%X%X%X%X%X%X%X%X%X%X%X%X%X%X%X%X%X%X",
"%X%X%X%X%X%X%X%X%X%X%X%X%X%X%X%X%X%XR ;.R ;.Y 7 c Z.F.v L =.%X%X%X%X%Xg %X%X%X%X%X%X%X%X%X%X%X%X%X%X%X%X%X%X%X%X%X%X%X%X",
"%X%X%X%X%X%X%X%X%X%X%X%X%X%X%X%X%Xg.R R R R U L L b S.b L ..%X%X%X%X%Xg %X%X%X%X%X%X%X%X%X%X%X%X%X%X%X%X%X%X%X%X%X%X%X%X",
"%X%X%X%X%X%X%X%X%X%X%X%X%X%X%X%X%X7.R R T T T T U I b Z.F.w.%X%X%X%X+.%X%X%X%X%X%X%X%X%X%X%X%X%X%X%X%X%X%X%X%X%X%X%X%X%X",
"%X%X%X%X%X%X%X%X%X%X%X%X%X%X%X%Xx.R R U I I R R R T Y 6.P.^.%X%X%X%Xa %X%X%X%X%X%X%X%X%X%X%X%X%X%X%X%X%X%X%X%X%X%X%X%X%X",
"%X%X%X%X%X%X%X%X%X%X%X%X%X%X%X%XT I L L L U Y Y L L L L x 5.%X%X%X%Xd %X%X%X%X%X%X%X%X%X%X%X%X%X%X%X%X%X%X%X%X%X%X%X%X%X"
};
