/* XPM */
static char *result[] = {
/* columns rows colors chars-per-pixel */
"60 60 183 2 ",
"   c #260916",
".  c #2A0A17",
"X  c #2D0B1A",
"o  c #340D1E",
"O  c #3A0E1E",
"+  c #31121F",
"@  c #2E0A20",
"#  c #29072F",
"$  c #29082F",
"%  c #330C21",
"&  c #3A0E22",
"*  c #30092B",
"=  c #3B0D2D",
"-  c #231726",
";  c #361422",
":  c #3A1625",
">  c #381B27",
",  c #3E132A",
"<  c #381A29",
"1  c #2C0732",
"2  c #2D0A33",
"3  c #310A36",
"4  c #3B0B33",
"5  c #35093A",
"6  c #3A0B3C",
"7  c #311136",
"8  c #34153A",
"9  c #39143D",
"0  c #36193B",
"q  c #3A1D3F",
"w  c #391D31",
"e  c #2E2337",
"r  c #3F2231",
"t  c #3C2D3F",
"y  c #6B131C",
"u  c #53311D",
"i  c #67381F",
"p  c #411626",
"a  c #441E2D",
"s  c #491C2E",
"d  c #430E34",
"f  c #450D3C",
"g  c #4D1E31",
"h  c #421E38",
"j  c #481E3F",
"k  c #431E33",
"l  c #40232F",
"z  c #523C2D",
"x  c #442434",
"c  c #49243C",
"v  c #5F283E",
"b  c #562337",
"n  c #45323D",
"m  c #4C353D",
"M  c #543A3D",
"N  c #5F3B38",
"B  c #55373A",
"V  c #7F262E",
"C  c #643524",
"Z  c #613D37",
"A  c #6C4436",
"S  c #64473C",
"D  c #7C4D33",
"F  c #754836",
"G  c #7F5034",
"H  c #7E503E",
"J  c #3D0A41",
"K  c #3C1340",
"L  c #3B1E40",
"P  c #342B44",
"I  c #3D2E43",
"U  c #362E48",
"Y  c #3C2042",
"T  c #3C3045",
"R  c #37304A",
"E  c #3B344C",
"W  c #3F384F",
"Q  c #3C3652",
"!  c #3E3956",
"~  c #420B45",
"^  c #490C47",
"/  c #460C49",
"(  c #4C0C4E",
")  c #431245",
"_  c #491345",
"`  c #411C45",
"'  c #461549",
"]  c #4C134C",
"[  c #4C184F",
"{  c #4E0C50",
"}  c #4E1C51",
"|  c #521454",
" . c #531A55",
".. c #571B59",
"X. c #412546",
"o. c #4A244E",
"O. c #433344",
"+. c #4B3A49",
"@. c #47384D",
"#. c #513C45",
"$. c #5B3C40",
"%. c #4D2651",
"&. c #552058",
"*. c #423B54",
"=. c #4B3E53",
"-. c #433D5B",
";. c #553D5C",
":. c #67344D",
">. c #4B414F",
",. c #564147",
"<. c #5E444A",
"1. c #594449",
"2. c #4D4151",
"3. c #46415D",
"4. c #48445E",
"5. c #534456",
"6. c #6F4D43",
"7. c #644A49",
"8. c #664F46",
"9. c #744E42",
"0. c #795846",
"q. c #73535A",
"w. c #4C4463",
"e. c #4F4468",
"r. c #4C4862",
"t. c #55456D",
"y. c #554B6A",
"u. c #594B73",
"i. c #5B5070",
"p. c #664966",
"a. c #645279",
"s. c #68577D",
"d. c #85161D",
"f. c #801620",
"g. c #97242A",
"h. c #C52628",
"j. c #8A4F2F",
"k. c #864E2F",
"l. c #8C522C",
"z. c #94542D",
"x. c #99592E",
"c. c #9B532C",
"v. c #814D31",
"b. c #835333",
"n. c #8A5431",
"m. c #82553A",
"M. c #84593E",
"N. c #8C5C37",
"B. c #97583B",
"V. c #985E32",
"C. c #AB5B27",
"Z. c #A15528",
"A. c #B15C26",
"S. c #836038",
"D. c #8E6635",
"F. c #A3632D",
"G. c #AD642A",
"H. c #B46B2A",
"J. c #B96F2B",
"K. c #B26529",
"L. c #B5732E",
"P. c #B26E33",
"I. c #AE7631",
"U. c #C36D25",
"Y. c #C27428",
"T. c #C87727",
"R. c #C27B34",
"E. c #855940",
"W. c #935B43",
"Q. c #87585C",
"!. c #B17140",
"~. c #87586B",
"^. c #88566D",
"/. c #8D5B76",
"(. c #915D7F",
"). c #8D6373",
"_. c #95607E",
"`. c #C88129",
"'. c #C1842C",
"]. c #CA8D32",
"[. c #C99238",
"{. c #99658B",
"}. c None",
/* pixels */
"}.}.}.}.}.}.}.}.}.}.}.}.}.}.}.}.}.}.}.}.}.}.}.}.}.}.}.}.}.}.}.}.}.}.}.}.}.}.}.}.}.}.}.}.}.}.}.}.}.}.}.}.}.}.}.}.}.}.}.}.",
"}.}.}.}.}.}.}.}.}.}.}.}.}.}.}.}.}.}.}.}.}.}.}.}.}.}.}.}.}.}.}.}.}.}.}.}.}.}.}.}.}.}.}.}.}.}.}.}.}.}.}.}.}.}.}.}.}.}.}.}.",
"}.}.}.}.}.}.}.}.}.}.}.}.}.}.}.}.}.}.}.}.}.}.}.}.}.}.}.}.}.}.}.}.}.}.}.}.}.}.}.}.}.}.}.}.}.}.}.}.}.}.}.}.}.}.}.}.}.}.}.}.",
"}.}.}.}.}.}.}.}.}.}.}.}.}.}.}.}.}.}.}.}.}.}.}.}.}.}.}.}.}.}.}.}.}.}.}.}.}.}.}.}.}.}.}.}.}.}.}.}.}.}.}.}.}.}.}.}.}.}.}.}.",
"}.}.}.}.}.}.}.}.}.}.}.}.}.}.}.}.}.}.}.}.}.}.}.}.}.}.}.}.}.}.}.}.}.}.}.}.}.}...| ` }.}.}.}.}.}.}.}.}.}.}.}.}.}.}.}.}.}.}.",
"}.}.}.}.}.}.}.}.}.}.}.}.}.}.}.}.}.}.}.}.}.}.}.}.}.}.}.}.}.}.}.}.X.}.}.}.}...( J 1 }.}.}.}.}.}.}.}.}.}.}.}.}.}.}.}.}.}.}.",
"}.}.}.}.}.}.}.}.}.}.}.}.}.}.}.}.}.}.}.}.}.}.}.}.}.}.}.}.}.}.}.}.}.}.}.}.}.( 9 8 8 }.}.}.}.}.}.}.}.}.}.}.}.}.}.}.}.}.}.}.",
"}.}.}.}.}.}.}.}.}.}.}.}.}.}.}.}.}.}.}.}.}.}.}.}.}.}.}.}.}.}.}.}.}.}.}.}.[ 6 9 }.}.}.}.}.}.}.}.}.}.}.}.}.}.}.}.}.}.}.}.}.",
"}.}.}.}.}.}.}.}.}.}.}.}.}.}.}.}.}.}.}.}.}.}.}.}.}.}.}.}.}.}.}.}.}.}.}.}.' 1 }.}.}.}.}.}.}.}.}.}.}.}.}.}.}.}.}.}.}.}.}.}.",
"}.}.}.}.}.}.}.}.}.}.}.}.}.}.}.}.}.}.}.}.}.}.}.}.}.}.}.}.}.}.}.}.}.}.}.%.J 2 }.}.}.}.}. .| }.}.}.}.}.}.}.}.}.}.}.}.}.}.}.",
"}.}.}.}.}.}.}.}.}.}.}.}.}.}.}.}.}.}.}.}.}.}.}.}.}.}.}.}.}.}.}.}.}.}.| / 5 2 }.}.}.}.X.~ / }.}.}.}.}.}.}.}.}.}.}.}.}.}.}.",
"}.}.}.}.}.}.}.}.}.}.}.}.}.}.}.}.}.}.}.}.}.}.}.}.}.}.}.}.}.}.}.}.| { ( ( J # 2 ` } 9 2 X.q }.}.}.}.}.}.}.}.}.}.}.}.}.}.}.",
"}.}.}.}.}.}.}.}.}.}.}.}.}.}.}.}.}.}.}.}.}.}.}.}.}.}.}.}.}.}.}.9 ~ ( ( ~ 1 5 ~ ( ( ( 5 2 0 }.}.}.}.}.}.}.}.}.}.}.}.}.}.}.",
"}.}.}.}.}.}.}.}.}.}.}.}.}.}.}.}.}.}.}.}.}.}.}.}.}.}.}.}.}.}.}.Y 8 3 3 1 5 ~ ( { ( { / 1 2 }.}.}.}.}.}.}.}.}.}.}.}.}.}.}.",
"}.}.}.}.}.}.}.}.}.}.}.}.}.}.}.}.}.}.}.}.}.}.}.}.}.}.}.}.}.}.}.}.}.2 5 $ 6 ( _ f / { ~ 1 2 }.}.}.}.}.}.}.}.}.}.}.}.}.}.}.",
"}.}.}.}.}.}.}.}.}.}.}.}.}.}.}.}.}.}.}.}.}.}.}.}.}.}.}.}.}.}.}.}.}.3 6 5 ( ^ : o ~ { 5 # 1 8 }.}.}.}.}.}.}.}.}.}.}.}.}.}.",
"}.}.}.}.}.}.}.}.}.}.}.}.}.}.}.}.}.}.}.}.}.}.}.}.}.}.}.}.}.}.}.}.}.J / / { f O > _ ( 6 1 1 # 7 }.}.}.}.}.}.}.}.}.}.}.}.}.",
"}.}.}.}.}.}.}.}.}.}.}.}.}.}.}.}.}.}.}.}.}.}.}.}.}.}.}.}.}.}.}.}.) ( ( ( ( = o x c ] ( ~ 5 1 2 &.) }.}.}.}.}.}.}.}.}.}.}.",
"}.}.}.}.}.}.}.}.}.}.}.}.}.}.}.}.}.}.}.}.}.}.}.}.}.}.}.}.}.}.}.}./ { { { f & o ) x c ( { / 1 0 ) ~ }.}.}.}.}.}.}.}.}.}.}.",
"}.}.}.}.}.}.}.}.}.}.}.}.}.}.}.}.}.}.}.}.}.}.}.}.}.}.}.}.}.}.}.K ( { ( ( d O 4 ( h x ( ( / 1 }.' J }.}.}.}.}.}.}.}.}.}.}.",
"}.}.}.}.}.}.}.}.}.}.}.}.}.}.}.}.}.}.}.}.}.}.}.}.}.}.}.}.}.}.}.3 ( ( ( / & O f ( h r ( ( J 1 }.[ J }.}.}.}.}.}.}.}.}.}.}.",
"}.}.}.}.}.}.}.}.}.}.}.}.}.}.}.}.}.}.}.}.}.}.}.}.}.}.}.}.}.}.}.0 5 ~ J 6 % O d _ x h ( ( ^ 8 }. .9 }.}.}.}.}.}.}.}.}.}.}.",
"}.}.}.}.}.}.}.}.}.}.}.}.}.}.}.}.}.}.}.}.}.}.}.}.}.}.}.}.}.}.}.}.0 2 J J 4 X & , r ' ( { ~ 9 }.[ }.}.}.}.}.}.}.}.}.}.}.}.",
"}.}.}.}.}.}.}.}.}.}.}.}.}.}.}.}.}.}.}.}.}.}.}.}.}.}.}.}.}.}.}.}.}.q 6 { / @ . & , ( { ( 5 1 ~ o.}.}.}.}.}.}.}.}.}.}.}.}.",
"}.}.}.}.}.}.}.}.}.}.}.}.}.}.}.}.}.}.}.}.}.}.}.}.}.}.}.}.}.}.}.}.}.q 3 ( ] k . . % f { J 1 2 X.}.}.}.}.}.}.}.}.}.}.}.}.}.",
"}.}.}.}.}.}.}.}.}.}.}.}.}.}.}.}.}.}.}.}.}.}.}.}.}.}.}.}.}.}.}.}.L 3 ~ ( O.f.y   X f { 3 1 Y }.}.}.}.}.}.}.}.}.}.}.}.}.}.",
"}.}.}.}.}.}.}.}.}.}.}.}.}.}.}.}.}.}.}.}.}.}.}.}.}.}.}.}.}.}.}.}.2 ~ ( ] c h.d.  . f / 1 7 }.}.}.}.}.}.}.}.}.}.}.}.}.}.}.",
"}.}.}.}.}.}.}.}.}.}.}.}.}.}.}.}.}.}.}.}.}.}.}.}.}.}.}.}.}.}.}.}.3 ~ ( ~ x g.d.  . 4 J $ }.}.}.}.}.}.}.}.}.}.}.}.}.}.}.}.",
"}.}.}.}.}.}.}.}.}.}.}.}.}.}.}.}.}.}.}.}.}.}.}.}.}.}.}.}.}.}.}.}.0 2 J 5 < p O   @ 6 1 3 }.}.}.}.}.}.}.}.}.}.}.}.}.}.}.}.",
"}.}.}.}.}.}.}.}.}.}.}.}.}.}.}.}.}.}.}.}.}.}.}.}.s.a.}.}.}.}.}.}.}.0 1 ( 6 o .   * 3 1 }.}.}.}.}.}.}.}.}.}.}.}.}.}.}.}.}.",
"}.}.}.}.}.}.}.}.}.}.}.}.}.}.}.}.}.}.}.}.}.}.}.a.t.e.e.}.}.}.}.}.}.}.8 6 d . X = ~ 3 8 }.}.}.}.}.}.}.}.}.}.}.}.}.}.}.}.}.",
"}.}.}.}.}.}.}.}.}.}.}.}.}.}.}.}.}.}.}.}.}.}.}.t.-.1.+.3.}.}.}.}.}.}.}.q 9 % = ) 9 Y }.}.}.}.}.}.}.}.}.}.}.}.}.}.}.}.}.}.",
"}.}.}.}.}.}.}.}.}.}.}.}.}.}.}.}.}.}.}.}.}.}.a.e.<.A.C E }.}.}.}.}.}.}.}.}.: x }.}.}.}.}.}.}.}.}.}.}.}.}.}.}.}.}.}.}.}.}.",
"}.}.}.}.}.}.}.}.}.}.}.}.}.}.}.}.}.}.}.}.}.}.u.-.6.U.C e }.}.}.}.}.}.}.}.}.: a }.}.}.}.}.}.}.}.}.}.}.}.}.}.}.}.}.}.}.}.}.",
"}.}.}.}.}.}.}.}.}.}.}.}.}.}.}.}.}.}.}.}.[.!.q.1.m l.u e }.}.}.}.}.}.}.}.}.: }.}.}.}.}.}.}.}.}.}.}.}.}.}.}.}.}.}.}.}.}.}.",
"}.}.}.}.}.}.}.}.}.}.}.}.}.}.}.}.}.}.}.}.}.W.J.P.Q.@.- z [.].}.}.}.}.}.}.}.: }.}.}.}.}.}.}.}.}.}.}.}.}.}.}.}.}.}.}.}.}.}.",
"}.}.}.}.}.}.}.}.}.}.}.}.}.}.}.}.}.}.}.}.u.*.x.T.P.0.=.8.'.[.}.}.}.}.}.}.}.a }.}.}.}.}.}.}.}.}.}.}.}.}.}.}.}.}.}.}.}.}.}.",
"}.}.}.}.}.}.}.}.}.}.}.}.}.}.}.}.}.}.}.}.-.U n l.H.`.L.I.T.m.}.}.}.}.}.}.^.:.}.}.}.}.}.}.}.}.}.}.}.}.}.}.}.}.}.}.}.}.}.}.",
"}.}.}.}.}.}.}.}.}.}.}.}.}.}.}.}.}.}.}.w.*.*.W M b.x.C.C.K.m P -.r.r.r.y./.(.}.}.}.}.}.}.}.}.}.}.}.}.}.}.}.}.}.}.}.}.}.}.",
"}.}.}.}.}.}.}.}.}.}.}.}.}.}.}.}.}.}.i.-.R }.}.O.A A m N V.2.E T U E ! ! p./.}.}.}.}.}.}.}.}.}.}.}.}.}.}.}.}.}.}.}.}.}.}.",
"}.}.}.}.}.}.}.}.}.}.}.}.}.}.}.}.}.}.3.Q E }.}.}.O.B.6.! ,.}.}.}.@.U R R I x }.}.}.}.}.}.}.}.}.}.}.}.}.}.}.}.}.}.}.}.}.}.",
"}.}.}.}.}.}.}.}.}.}.}.}.}.}.}.}.}.w.*.U }.}.}.}.E 5.0.2.! }.}.}.}.}.}.E < }.}.}.}.}.}.}.}.}.}.}.}.}.}.}.}.}.}.}.}.}.}.}.",
"}.}.}.}.}.}.}.}.}.}.}.}.}.}.}.}.}.r.R U }.}.}.}.2.Q M.#.5.}.}.}.}.}.}.}.p }.}.}.}.}.}.}.}.}.}.}.}.}.}.}.}.}.}.}.}.}.}.}.",
"}.}.}.}.}.}.}.}.}.}.}.}.}.}.}.}.}.-.R P }.}.}.}.S.E 9.D.8.}.}.}.}.}.}.}.g }.}.}.}.}.}.}.}.}.}.}.}.}.}.}.}.}.}.}.}.}.}.}.",
"}.}.}.}.}.}.}.}.}.}.}.}.}.}.}.}.}.-.P P }.}.}.9.x.b.,.L.n.}.}.}.}.}.}.}.s }.}.}.}.}.}.}.}.}.}.}.}.}.}.}.}.}.}.}.}.}.}.}.",
"}.}.}.}.}.}.}.}.}.}.}.}.}.}.}.}.}.p.;.U }.}.}.Q M G.F.T.J.0.}.}.}.}.}.}.; }.}.}.}.}.}.}.}.}.}.}.}.}.}.}.}.}.}.}.}.}.}.}.",
"}.}.}.}.}.}.}.}.}.}.}.}.}.}.}.}.}.{.(.p.}.}.r.! P Z U.T.T.A }.}.}.}.}.}.> }.}.}.}.}.}.}.}.}.}.}.}.}.}.}.}.}.}.}.}.}.}.}.",
"}.}.}.}.}.}.}.}.}.}.}.}.}.}.}.}.}.(.^./.}.}.-.Q P G C.U.U.A }.}.}.}.}.v a }.}.}.}.}.}.}.}.}.}.}.}.}.}.}.}.}.}.}.}.}.}.}.",
"}.}.}.}.}.}.}.}.}.}.}.}.}.}.}.}.}.~.~.).}.2.! U m F #.C.Z.t }.}.}.}.}.v g }.}.}.}.}.}.}.}.}.}.}.}.}.}.}.}.}.}.}.}.}.}.}.",
"}.}.}.}.}.}.}.}.}.}.}.}.}.}.}.}.}.}.}.}.R.V.S n b.7.=.c.F I }.}.}.}.}.b s }.}.}.}.}.}.}.}.}.}.}.}.}.}.}.}.}.}.}.}.}.}.}.",
"}.}.}.}.}.}.}.}.}.}.}.}.}.}.}.}.}.}.}.}.q.N.H.F.Y.7.=.m.E U }.}.}.}.}.: : }.}.}.}.}.}.}.}.}.}.}.}.}.}.}.}.}.}.}.}.}.}.}.",
"}.}.}.}.}.}.}.}.}.}.}.}.}.}.}.}.}.}.}.}.4.*.T F Y.<.=.M.*.U }.}.}.}.}.> > }.}.}.}.}.}.}.}.}.}.}.}.}.}.}.}.}.}.}.}.}.}.}.",
"}.}.}.}.}.}.}.}.}.}.}.}.}.}.}.}.}.}.}.}.*.Q T b.b.T 2.M.Q P }.}.}.}.}.a }.}.}.}.}.}.}.}.}.}.}.}.}.}.}.}.}.}.}.}.}.}.}.}.",
"}.}.}.}.}.}.}.}.}.}.}.}.}.}.}.}.}.}.}.3.*.Q m H.D P +.H Q P }.}.}.}.}.: }.}.}.}.}.}.}.}.}.}.}.}.}.}.}.}.}.}.}.}.}.}.}.}.",
"}.}.}.}.}.}.}.}.}.}.}.}.}.}.}.}.}.}.4.! ! ! W N z.D m F R P }.}.}.}.}.; }.}.}.}.}.}.}.}.}.}.}.}.}.}.}.}.}.}.}.}.}.}.}.}.",
"}.}.}.}.}.}.}.}.}.}.}.}.}.}.}.}.}.}.! ! ! ! Q P t v.C.m P P }.}.}.}.}.; }.}.}.}.}.}.}.}.}.}.}.}.}.}.}.}.}.}.}.}.}.}.}.}.",
"}.}.}.}.}.}.}.}.}.}.}.}.}.}.}.}.}.3.! ! ! ! Q P P T k.G n t }.}.}.}.}.< }.}.}.}.}.}.}.}.}.}.}.}.}.}.}.}.}.}.}.}.}.}.}.}.",
"}.}.}.}.}.}.}.}.}.}.}.}.}.}.}.}.}.-.! ! E E Q ! ! R T b.G.b.}.}.}.}.: }.}.}.}.}.}.}.}.}.}.}.}.}.}.}.}.}.}.}.}.}.}.}.}.}.",
"}.}.}.}.}.}.}.}.}.}.}.}.}.}.}.}.3.Q Q U P P Q ! Q E R O.D z.}.}.}.}.+ }.}.}.}.}.}.}.}.}.}.}.}.}.}.}.}.}.}.}.}.}.}.}.}.}.",
"}.}.}.}.}.}.}.}.}.}.}.}.}.}.}.}.@.W E E E ! *.>.E E E E E @.}.}.}.}.l }.}.}.}.}.}.}.}.}.}.}.}.}.}.}.}.}.}.}.}.}.}.}.}.}."
};
