/* XPM */
static char *result[] = {
/* columns rows colors chars-per-pixel */
"60 60 198 2 ",
"   c #270916",
".  c #2B0A16",
"X  c #2C0B1B",
"o  c #340D1D",
"O  c #2B0A24",
"+  c #29072F",
"@  c #2E0A2D",
"#  c #360D22",
"$  c #3A0E23",
"%  c #3A0C2C",
"&  c #340A2A",
"*  c #341525",
"=  c #3A1226",
"-  c #39182C",
";  c #2C0732",
":  c #2D0B33",
">  c #320A36",
",  c #3D0C33",
"<  c #360C3B",
"1  c #390C3C",
"2  c #281F33",
"3  c #321232",
"4  c #3C1E33",
"5  c #3B143C",
"6  c #3A1B3F",
"7  c #36173B",
"8  c #2D202A",
"9  c #31222F",
"0  c #3C2233",
"q  c #430F1D",
"w  c #7B181F",
"e  c #59341F",
"r  c #411D2C",
"t  c #431C3B",
"y  c #421638",
"u  c #48352F",
"i  c #432534",
"p  c #4A2A37",
"a  c #42293B",
"s  c #4B323C",
"d  c #563B3A",
"f  c #5A3D3D",
"g  c #7E252C",
"h  c #6D2731",
"j  c #663F36",
"k  c #5F403C",
"l  c #6B4335",
"z  c #64443C",
"x  c #69423A",
"c  c #6A4A3D",
"v  c #754935",
"b  c #794B33",
"n  c #734B3B",
"m  c #784938",
"M  c #74513B",
"N  c #3E0B41",
"B  c #3D1441",
"V  c #3B1840",
"C  c #2F2741",
"Z  c #3E2143",
"A  c #352C45",
"S  c #3A2E43",
"D  c #352E49",
"F  c #3A2E48",
"G  c #3B334B",
"H  c #3F384F",
"J  c #37304A",
"K  c #3B3551",
"L  c #3F3956",
"P  c #420B45",
"I  c #460C49",
"U  c #4B0C4D",
"Y  c #4B124C",
"T  c #441846",
"R  c #4E0C50",
"E  c #541B56",
"W  c #571E59",
"Q  c #581F5A",
"!  c #422547",
"~  c #442249",
"^  c #462C4A",
"/  c #482B4C",
"(  c #45274A",
")  c #4E3642",
"_  c #45374B",
"`  c #453A4A",
"'  c #4A3C4E",
"]  c #463744",
"[  c #543642",
"{  c #533B44",
"}  c #5B3F4A",
"|  c #4E2C51",
" . c #5B2A5C",
".. c #552658",
"X. c #4D3551",
"o. c #433B54",
"O. c #4C3F55",
"+. c #443D5A",
"@. c #523A56",
"#. c #5B325D",
"$. c #553B59",
"%. c #543658",
"&. c #633E4C",
"*. c #483F62",
"=. c #5D3A60",
"-. c #612E62",
";. c #6A3B6B",
":. c #663768",
">. c #5B4343",
",. c #5B434C",
"<. c #594649",
"1. c #4C4354",
"2. c #49435D",
"3. c #47435C",
"4. c #57415B",
"5. c #5A435D",
"6. c #524B5E",
"7. c #5A4853",
"8. c #6B4D42",
"9. c #63424B",
"0. c #634C4B",
"q. c #7A4A42",
"w. c #7E5641",
"e. c #745648",
"r. c #61485A",
"t. c #6A5B5E",
"y. c #4B4562",
"u. c #4F4862",
"i. c #514C65",
"p. c #53456B",
"a. c #5A5564",
"s. c #5A566C",
"d. c #5B586D",
"f. c #575062",
"g. c #5E4C75",
"h. c #634266",
"j. c #68486A",
"k. c #774B61",
"l. c #66556A",
"z. c #615B72",
"x. c #685A77",
"c. c #735A76",
"v. c #766E6F",
"b. c #6D637D",
"n. c #746577",
"m. c #961B23",
"M. c #A61B20",
"N. c #A2262A",
"B. c #844721",
"V. c #8D522F",
"C. c #9C552B",
"Z. c #9B5B2D",
"A. c #95532C",
"S. c #814D31",
"D. c #8B5631",
"F. c #82573F",
"G. c #845435",
"H. c #935A32",
"J. c #925132",
"K. c #A4582A",
"L. c #9F622E",
"P. c #986737",
"I. c #AC642A",
"U. c #A4652D",
"Y. c #BB6B27",
"T. c #B3692B",
"R. c #B46427",
"E. c #A7752E",
"W. c #BD7329",
"Q. c #B4762F",
"!. c #A76732",
"~. c #AC7632",
"^. c #B57436",
"/. c #C27529",
"(. c #C57A29",
"). c #CB7625",
"_. c #8A5A47",
"`. c #865D54",
"'. c #9E634E",
"]. c #906B52",
"[. c #8E7050",
"{. c #A56D41",
"}. c #A57954",
"|. c #815A75",
" X c #8C5E75",
".X c #89556B",
"XX c #8E6375",
"oX c #B48635",
"OX c #C98F3B",
"+X c #C7943C",
"@X c #BA8754",
"#X c #CA974E",
"$X c #6D5F80",
"%X c #965F81",
"&X c #836D85",
"*X c #966781",
"=X c #9E7191",
"-X c None",
/* pixels */
"-X-X-X-X-X-X-X-X-X-X-X-X-X-X-X-X-X-X-X-X-X-X-X-X-X-X-X-X-X-X-X-X-X-X-X-X-X-X-X-X-X-X-X-X-X-X-X-X-X-X-X-X-X-X-X-X-X-X-X-X",
"-X-X-X-X-X-X-X-X-X-X-X-X-X-X-X-X-X-X-X-X-X-X-X-X-X-X-X-X-X-X-X-X-X-X-X-X-X-X-X-X-X-X-X-X-X-X-X-X-X-X-X-X-X-X-X-X-X-X-X-X",
"-X-X-X-X-X-X-X-X-X-X-X-X-X-X-X-X-X-X-X-X-X-X-X-X-X-X-X-X-X-X-X-X-X-X-X-X-X-X-X-X-X-X-X-X-X-X-X-X-X-X-X-X-X-X-X-X-X-X-X-X",
"-X-X-X-X-X-X-X-X-X-X-X-X-X-X-X-X-X-X-X-X-X-X-X-X-X-X-X-X-X-X-X-X-X-X-X-X-X-X-X-X-X-X-X-X-X-X-X-X-X-X-X-X-X-X-X-X-X-X-X-X",
"-X-X-X-X-X-X-X-X-X-X-X-X-X-X-X-X-X-X-X-X-X-X-X-X-X-X-X-X-X-X-X-X-X-X-X-X-X-X-X-X-X-X-X-X-X-X-X-X-X-X-X-X-X-X-X-X-X-X-X-X",
"-X-X-X-X-X-X-X-X-X-X-X-X-X-X-X-X-X-X-X-X-X-X-X-X-X-X-X-X-X-X-X-X-X-X-X-X-X-X-X-X-X-X-X-X-X-X-X-X-X-X-X-X-X-X-X-X-X-X-X-X",
"-X-X-X-X-X-X-X-X-X-X-X-X-X-X-X-X-X-X-X-X-X-X-X-X-X-X-X-X-X-X-X-X-X-X-X-X-X-X-X-X-X-X-X-X-X-X-X-X-X-X-X-X-X-X-X-X-X-X-X-X",
"-X-X-X-X-X-X-X-X-X-X-X-X-X-X-X-X-X-X-X-X-X-X-X-X-X-X-X-X-X-X-X-X-X-X-X-X-X-X-X-X-X-X-X-X-X-X-X-X-X-X-X-X-X-X-X-X-X-X-X-X",
"-X-X-X-X-X-X-X-X-X-X-X-X-X-X-X-X-X-X-X-X-X-X-X-X-X-X-X-X-X-X-X-X-X#.| -X-X4.-X-X-X-X-X-X-X-X-X-X-X-X-X-X-X-X-X-X-X-X-X-X",
"-X-X-X-X-X-X-X-X-X-X-X-X-X-X-X-X-X-X-X-X-X-X-X-X-X-X-X-X-X-X-X-X;.Y T -X-X^ -X-X-X-X-X-X-X-X-X-X-X-X-X-X-X-X-X-X-X-X-X-X",
"-X-X-X-X-X-X-X-X-X-X-X-X-X-X-X-X-X-X-X-X-X-X-X-X-X-X-X-X-X-X-X-XQ Y l.#.B 4.-X-X-XX.-X-X-X-X-X-X-X-X-X-X-X-X-X-X-X-X-X-X",
"-X-X-X-X-X-X-X-X-X-X-X-X-X-X-X-X-X-X-X-X-X-X-X-X-X-X-X-X-X-X-Xj.P ( j.~ X.-X/ / -XZ ! -X-X-X-X-X-X-X-X-X-X-X-X-X-X-X-X-X",
"-X-X-X-X-X-X-X-X-X-X-X-X-X-X-X-X-X-X-X-X-X-X-X-X-X-X-X-X-X-X-Xh.< ^ 7 $.5.: : V -X| / -X-X-X-X-X-X-X-X-X-X-X-X-X-X-X-X-X",
"-X-X-X-X-X-X-X-X-X-X-X-X-X-X-X-X-X-X-X-X-X-X-X-X-X-X-X-X-X-X-X| 7 n.^ -X! + ; : $.c.-X-X-X-X-X-X-X-X-X-X-X-X-X-X-X-X-X-X",
"-X-X-X-X-X-X-X-X-X-X-X-X-X-X-X-X-X-X-X-X-X-X-X-X-X-X-X-X-X-X-X-XZ Z ^ l.: : 3 @ @ 6 @.j.E -X-X-X-X-X-X-X-X-X-X-X-X-X-X-X",
"-X-X-X-X-X-X-X-X-X-X-X-X-X-X-X-X-X-X-X-X-X-X-X-X-X-X-X-X-X-X-X-XX.^ 5.: + @ * o O + ; : P Q -X-X-X-X-X-X-X-X-X-X-X-X-X-X",
"-X-X-X-X-X-X-X-X-X-X-X-X-X-X-X-X-X-X-X-X-X-X-X-X-X-X-X-X-X-X-X-X .c.0 + + ; # = - ; + + < U  .-X-X-X-X-X-X-X-X-X-X-X-X-X",
"-X-X-X-X-X-X-X-X-X-X-X-X-X-X-X-X-X-X-X-X-X-X-X-X-X-X-X-X-X-X-X .E &XV ; + & o r i 3 + + : I :.-X-X-X-X-X-X-X-X-X-X-X-X-X",
"-X-X-X-X-X-X-X-X-X-X-X-X-X-X-X-X-X-X-X-X-X-X-X-X-X-X-X-X-X-X-XW ;.-XV P > # o 5 t 4 3 + + : -X-X-X-X-X-X-X-X-X-X-X-X-X-X",
"-X-X-X-X-X-X-X-X-X-X-X-X-X-X-X-X-X-X-X-X-X-X-X-X-X-X-X-X-X-X-X-.-X^ N U , # % I t i 5 : + ; $.-X-X-X-X-X-X-X-X-X-X-X-X-X",
"-X-X-X-X-X-X-X-X-X-X-X-X-X-X-X-X-X-X-X-X-X-X-X-X-X-X-X-X-X-X-Xj.T : N U q = % 1 y 0 y U 1 ; < -X-X-X-X-X-X-X-X-X-X-X-X-X",
"-X-X-X-X-X-X-X-X-X-X-X-X-X-X-X-X-X-X-X-X-X-X-X-X-X-X-X-X-X-X-X| ; > U N @ o $ > 4 i Y R N ; + @.-X-X-X-X-X-X-X-X-X-X-X-X",
"-X-X-X-X-X-X-X-X-X-X-X-X-X-X-X-X-X-X-X-X-X-X-X-X-X-X-X-X-X-X=.> ; P U > O X o = 4 5 I U U > + @.-X-X-X-X-X-X-X-X-X-X-X-X",
"-X-X-X-X-X-X-X-X-X-X-X-X-X-X-X-X-X-X-X-X-X-X-X-X-X-X-X-X-X-X#.; N I I ; ; O X o = > P U U I N -X-X-X-X-X-X-X-X-X-X-X-X-X",
"-X-X-X-X-X-X-X-X-X-X-X-X-X-X-X-X-X-X-X-X-X-X-X-X-X-X-X-X-X-X-X> ; ; > : < t o . # , U R I I ..-X-X-X-X-X-X-X-X-X-X-X-X-X",
"-X-X-X-X-X-X-X-X-X-X-X-X-X-X-X-X-X-X-X-X-X-X-X-X-X-X-X-X-X-X-X6 + + + < t h w . . y U U N < :.-X-X-X-X-X-X-X-X-X-X-X-X-X",
"-X-X-X-X-X-X-X-X-X-X-X-X-X-X-X-X-X-X-X-X-X-X-X-X-X-X-X-X-X-X-XX.: + : I a N.m.X . % U R 1 ! -X-X-X-X-X-X-X-X-X-X-X-X-X-X",
"-X-X-X-X-X-X-X-X-X-X-X-X-X-X-X-X-X-X-X-X-X-X-X-X-X-X-X-X-X-X-X-XX.: ; N t m.m.o   % U U B -X-X-X-X-X-X-X-X-X-X-X-X-X-X-X",
"-X-X-X-X-X-X-X-X-X-X-X-X-X-X-X-X-X-X-X-X-X-X-X-X$Xg.x.-X-X-X-X-X-XX.: > t - q . X P U I ~ -X-X-X-X-X-X-X-X-X-X-X-X-X-X-X",
"-X-X-X-X-X-X-X-X-X-X-X-X-X-X-X-X-X-X-X-X-X-X-X$Xp.*.y.x.-X-X-X-X-X-XX.3 1 #     & R ..-X-X-X-X-X-X-X-X-X-X-X-X-X-X-X-X-X",
"-X-X-X-X-X-X-X-X-X-X-X-X-X-X-X-X-X-X-X-X-X-X-Xz.*.9.f 7.-X-X-X-X-X-X-XX.3 X X * a -X-X-X-X-X-X-X-X-X-X-X-X-X-X-X-X-X-X-X",
"-X-X-X-X-X-X-X-X-X-X-X-X-X-X-X-X-X-X-X-X-X-X-Xp.,.K.b ] -X-X-X-X-X-X-X-X-Xp i -X-X-X-X-X-X-X-X-X-X-X-X-X-X-X-X-X-X-X-X-X",
"-X-X-X-X-X-X-X-X-X-X-X-X-X-X-X-X-X-X-X-X-X-Xb.*.>.Y.B.9 -X-X-X-X-X-X-X-X-Xp i -X-X-X-X-X-X-X-X-X-X-X-X-X-X-X-X-X-X-X-X-X",
"-X-X-X-X-X-X-X-X-X-X-X-X-X-X-X-X-X-X-X-X+X^.`.0.{ l e 8 v.-X-X-X-X-X-X-X-Xs p -X-X-X-X-X-X-X-X-X-X-X-X-X-X-X-X-X-X-X-X-X",
"-X-X-X-X-X-X-X-X-X-X-X-X-X-X-X-X-X-X-X-X-X`.T.W.'.4.2 u oXOX-X-X-X-X-X-X-X,.} -X-X-X-X-X-X-X-X-X-X-X-X-X-X-X-X-X-X-X-X-X",
"-X-X-X-X-X-X-X-X-X-X-X-X-X-X-X-X-X-X-X-Xx.L n Y./.P.0.0.~.#X-X-X-X-X-X-X-X,.} -X-X-X-X-X-X-X-X-X-X-X-X-X-X-X-X-X-X-X-X-X",
"-X-X-X-X-X-X-X-X-X-X-X-X-X-X-X-X-X-X-X-Xu.D S x U.(./.W./.{.-X-X-X-X-X-X-X,.-X-X-X-X-X-X-X-X-X-X-X-X-X-X-X-X-X-X-X-X-X-X",
"-X-X-X-X-X-X-X-X-X-X-X-X-X-X-X-X-X-X-Xz.o.i.a.) b S.A.C.I.k o.d.-X-X-X-X-Xk.-X-X-X-X-X-X-X-X-X-X-X-X-X-X-X-X-X-X-X-X-X-X",
"-X-X-X-X-X-X-X-X-X-X-X-X-X-X-X-X-X-Xb.+.L -X-Xa.z b { ] F.t.G G 2.y.y.u.|.*X-X-X-X-X-X-X-X-X-X-X-X-X-X-X-X-X-X-X-X-X-X-X",
"-X-X-X-X-X-X-X-X-X-X-X-X-X-X-X-X-X-Xi.K 1.-X-X-X` q._.o.1.-X-XG D G L L r. X-X-X-X-X-X-X-X-X-X-X-X-X-X-X-X-X-X-X-X-X-X-X",
"-X-X-X-X-X-X-X-X-X-X-X-X-X-X-X-X-X-X+.G -X-X-X-Xa.o.e.<.y.-X-X-X1.F A G F ) -X-X-X-X-X-X-X-X-X-X-X-X-X-X-X-X-X-X-X-X-X-X",
"-X-X-X-X-X-X-X-X-X-X-X-X-X-X-X-X-Xs.K _ -X-X-X-X-X3.8.c 1.-X-X-X-X-X-Xo.6 { -X-X-X-X-X-X-X-X-X-X-X-X-X-X-X-X-X-X-X-X-X-X",
"-X-X-X-X-X-X-X-X-X-X-X-X-X-X-X-X-Xi.K L -X-X-X-X[.] <.P.M [.-X-X-X-X-X-X[ -X-X-X-X-X-X-X-X-X-X-X-X-X-X-X-X-X-X-X-X-X-X-X",
"-X-X-X-X-X-X-X-X-X-X-X-X-X-X-X-X-Xi.D K -X-X-X-XQ.E.8.!.!.}.-X-X-X-X-X-X9.-X-X-X-X-X-X-X-X-X-X-X-X-X-X-X-X-X-X-X-X-X-X-X",
"-X-X-X-X-X-X-X-X-X-X-X-X-X-X-X-X-Xn.j.$.-X-X-Xf.z R.W.W./.].-X-X-X-X-X-X&.-X-X-X-X-X-X-X-X-X-X-X-X-X-X-X-X-X-X-X-X-X-X-X",
"-X-X-X-X-X-X-X-X-X-X-X-X-X-X-X-X-X=X%X X-X-X-X3.A l Y.)./.M -X-X-X-X-X-X{ -X-X-X-X-X-X-X-X-X-X-X-X-X-X-X-X-X-X-X-X-X-X-X",
"-X-X-X-X-X-X-X-X-X-X-X-X-X-X-X-X-XXX.XXX-X-Xd.L A d I.).).H.-X-X-X-X-X-X{ -X-X-X-X-X-X-X-X-X-X-X-X-X-X-X-X-X-X-X-X-X-X-X",
"-X-X-X-X-X-X-X-X-X-X-X-X-X-X-X-X-XXX X-X-Xz.+.J S v b C.R.x -X-X-X-X-X-X&.-X-X-X-X-X-X-X-X-X-X-X-X-X-X-X-X-X-X-X-X-X-X-X",
"-X-X-X-X-X-X-X-X-X-X-X-X-X-X-X-X-X-X-X-X@XF.` A d n o.J.K.) -X-X-X-X-X-X&.-X-X-X-X-X-X-X-X-X-X-X-X-X-X-X-X-X-X-X-X-X-X-X",
"-X-X-X-X-X-X-X-X-X-X-X-X-X-X-X-X-X-X-X-X-X^.I.H.L._.o.b f _ -X-X-X-X-X-X&.-X-X-X-X-X-X-X-X-X-X-X-X-X-X-X-X-X-X-X-X-X-X-X",
"-X-X-X-X-X-X-X-X-X-X-X-X-X-X-X-X-X-X-X-X-X7.x D./.M o.w.O.L -X-X-X-X-X-X[ -X-X-X-X-X-X-X-X-X-X-X-X-X-X-X-X-X-X-X-X-X-X-X",
"-X-X-X-X-X-X-X-X-X-X-X-X-X-X-X-X-X-X-X-Xz.L D d L.z o._.' D -X-X-X-X-X-X) -X-X-X-X-X-X-X-X-X-X-X-X-X-X-X-X-X-X-X-X-X-X-X",
"-X-X-X-X-X-X-X-X-X-X-X-X-X-X-X-X-X-X-X-Xu.L S L.G.S ` M ' G -X-X-X-X-X&.-X-X-X-X-X-X-X-X-X-X-X-X-X-X-X-X-X-X-X-X-X-X-X-X",
"-X-X-X-X-X-X-X-X-X-X-X-X-X-X-X-X-X-X-Xi.L K S b K.l S n ' G -X-X-X-X-X[ -X-X-X-X-X-X-X-X-X-X-X-X-X-X-X-X-X-X-X-X-X-X-X-X",
"-X-X-X-X-X-X-X-X-X-X-X-X-X-X-X-X-X-Xd.L L L K A s V.S.x S A -X-X-X-X-Xs -X-X-X-X-X-X-X-X-X-X-X-X-X-X-X-X-X-X-X-X-X-X-X-X",
"-X-X-X-X-X-X-X-X-X-X-X-X-X-X-X-X-X-X2.L L L L D C s Z.v A A -X-X-X-X-Xs -X-X-X-X-X-X-X-X-X-X-X-X-X-X-X-X-X-X-X-X-X-X-X-X",
"-X-X-X-X-X-X-X-X-X-X-X-X-X-X-X-X-Xs.L L L L G D A C s D.D.>.-X-X-X-X-X{ -X-X-X-X-X-X-X-X-X-X-X-X-X-X-X-X-X-X-X-X-X-X-X-X",
"-X-X-X-X-X-X-X-X-X-X-X-X-X-X-X-X-Xi.L L K G K L L K D s H.T.-X-X-X-X,.{ -X-X-X-X-X-X-X-X-X-X-X-X-X-X-X-X-X-X-X-X-X-X-X-X",
"-X-X-X-X-X-X-X-X-X-X-X-X-X-X-X-X-Xo.L D A D G L K G J D 0 >.-X-X-X-X,.{ -X-X-X-X-X-X-X-X-X-X-X-X-X-X-X-X-X-X-X-X-X-X-X-X",
"-X-X-X-X-X-X-X-X-X-X-X-X-X-X-X-X6.G G G G H L o.H J G G G H -X-X-X-X7.7.-X-X-X-X-X-X-X-X-X-X-X-X-X-X-X-X-X-X-X-X-X-X-X-X"
};
