/* XPM */
static char *result[] = {
/* columns rows colors chars-per-pixel */
"60 60 193 2 ",
"   c #1A090F",
".  c #150F16",
"X  c #1C0D14",
"o  c #170F19",
"O  c #1B0E1C",
"+  c #111111",
"@  c #1A1415",
"#  c #1C1917",
"$  c #16161A",
"%  c #1B121A",
"&  c #1D191D",
"*  c #23080F",
"=  c #2B0612",
"-  c #230C15",
";  c #2D0A16",
":  c #260E19",
">  c #2C0B1B",
",  c #300A15",
"<  c #320D1A",
"1  c #251119",
"2  c #2B141D",
"3  c #231A18",
"4  c #36161D",
"5  c #3B101D",
"6  c #2E251B",
"7  c #372E16",
"8  c #362C1A",
"9  c #3C3116",
"0  c #1E0C21",
"q  c #1D1A23",
"w  c #1C1A29",
"e  c #1C1D34",
"r  c #15143A",
"t  c #220C25",
"y  c #2E0A25",
"u  c #25062C",
"i  c #2A072D",
"p  c #260B29",
"a  c #2B0D2C",
"s  c #3C0E25",
"d  c #370B2A",
"f  c #211022",
"g  c #2C1622",
"h  c #231C24",
"j  c #211F2A",
"k  c #351522",
"l  c #381527",
"z  c #341823",
"x  c #2B0732",
"c  c #2D0932",
"v  c #310737",
"b  c #320C34",
"n  c #3C0B37",
"m  c #36073B",
"M  c #350A3A",
"N  c #3B0B3D",
"B  c #261F31",
"V  c #361936",
"C  c #3C1B3E",
"Z  c #1F2135",
"A  c #26212E",
"S  c #35262B",
"D  c #3B242B",
"F  c #3D312B",
"G  c #252134",
"H  c #292235",
"J  c #26213A",
"K  c #2E253D",
"L  c #2C293A",
"P  c #382833",
"I  c #32263C",
"U  c #342A3E",
"Y  c #3B2B3C",
"T  c #49161F",
"R  c #432C17",
"E  c #523816",
"W  c #440F2D",
"Q  c #421828",
"!  c #440D35",
"~  c #440C3D",
"^  c #441837",
"/  c #631421",
"(  c #422B2D",
")  c #562A26",
"_  c #533A22",
"`  c #583A29",
"'  c #47283A",
"]  c #433935",
"[  c #44323E",
"{  c #4B313D",
"}  c #563839",
"|  c #5A3B3A",
" . c #653A20",
".. c #633F35",
"X. c #64431C",
"o. c #644A1A",
"O. c #4F4538",
"+. c #7C4528",
"@. c #785F28",
"#. c #654334",
"$. c #6D4435",
"%. c #624539",
"&. c #724837",
"*. c #7D4B36",
"=. c #77583C",
"-. c #1C1F46",
";. c #3D0A42",
":. c #1F2044",
">. c #222243",
",. c #2A2543",
"<. c #2D2945",
"1. c #2E2E4C",
"2. c #332C43",
"3. c #382B42",
"4. c #342D4A",
"5. c #333046",
"6. c #36324A",
"7. c #3B344E",
"8. c #2D2D52",
"9. c #342F51",
"0. c #2E325C",
"q. c #353355",
"w. c #3B3552",
"e. c #3E3956",
"r. c #39315D",
"t. c #363859",
"y. c #3D3A5A",
"u. c #420747",
"i. c #420C44",
"p. c #480C45",
"a. c #460B49",
"s. c #4A0B4D",
"d. c #481744",
"f. c #51124F",
"g. c #4E0B51",
"h. c #520C53",
"j. c #402F42",
"k. c #48364A",
"l. c #463B52",
"z. c #413B5A",
"x. c #523F58",
"c. c #6F3A54",
"v. c #4A3E61",
"b. c #5E4547",
"n. c #5B454C",
"m. c #504152",
"M. c #63494C",
"N. c #7B5343",
"B. c #7F5D46",
"V. c #6E4856",
"C. c #474066",
"Z. c #4D4169",
"A. c #524065",
"S. c #674A65",
"D. c #784C63",
"F. c #AC1B1F",
"G. c #992C2C",
"H. c #C21F23",
"J. c #875216",
"K. c #8E4F2C",
"L. c #88542B",
"P. c #9A562A",
"I. c #9A5E2F",
"U. c #844B31",
"Y. c #825B3A",
"T. c #975E30",
"R. c #A35D2B",
"E. c #AB5F28",
"W. c #B75A22",
"Q. c #976B37",
"!. c #A5632C",
"~. c #AB682C",
"^. c #B86626",
"/. c #B86C27",
"(. c #AC7225",
"). c #B6772E",
"_. c #AB6934",
"`. c #B46936",
"'. c #CA6C1B",
"]. c #D7751E",
"[. c #C86F24",
"{. c #C27227",
"}. c #C27428",
"|. c #D37D25",
" X c #815B44",
".X c #9A644E",
"XX c #845165",
"oX c #855675",
"OX c #925C76",
"+X c #D98123",
"@X c #D49024",
"#X c #E38423",
"$X c #98638B",
/* pixels */
"+ + + + + + + + + + + + + + + + + + + + + + + + + + + + + + + + + + + + + + + + + + + + + + + + + + + + + + + + + + + + ",
"+ + + + + + + + + + + + + + + + + + + + + + + + + + + + + + + + + + + + + + + + + + + + + + + + + + + + + + + + + + + + ",
"+ + + + + + + + + + + + + + + + + + + + + + + + + + + + + + + + + + + . + + + + + + + + + + + + + + + + + + + + + + + + ",
"+ + + + + + + + + + + + + + + + + + + + + + + + + + + + + + + + + + 0 o + + + o + + + + + + + + + + + + + + + + + + + + ",
"+ + + + + + + + + + + + + + + + + + + + + + + + + + + + + + + + + + o + + + + + + + + + + + + + + + + + + + + + + + + + ",
"+ + + + + + + + + + + + + + + + + + + + + + + + + + + + + + + + + + + + + + + + + + + + + + + + + + + + + + + + + + + + ",
"+ + + + + + + + + + + + + + + + + + + + + + + + + + + + + + + + + + + + + + + O N O + + % $ . + + + + + + + + + + + + + ",
"+ + + + + + + + + + + + + + + + + + + + + + + + + + + + + + + + + + + % t + + p ;.0 + + c % + + + + + + + + + + + + + + ",
"+ + + + + + + + + + + + + + + + + + + + + + + + + + + + + + + + + + + 0 M + o x t + + 0 i.a + + + + + + + + + + + + + + ",
"+ + + + + + + + + + + + + + + + + + + + + + + + + + + + + + + + + + & N M + . O $ + + 0 i.c + + + + + + + + + + + + + + ",
"+ + + + + + + + + + + + + + + + + + + + + + + + + + + + + + + + + + p g.p + o @ . + + . a 0 + + + + + + + + + + + + + + ",
"+ + + + + + + + + + + + + + + + + + + + + + + + + + + + + + + + + + f M & + + + + + + + @ + + + + + + + + + + + + + + + ",
"+ + + + + + + + + + + + + + + + + + + + + + + + + + + + + + + . f + @ + + + o . + + + + + . . + + + + + + + + + + + + + ",
"+ + + + + + + + + + + + + + + + + + + + + + + + + + + + + + a ;.N % + + . 0 u p . + + + + o u 0 + + + + + + + + + + + + ",
"+ + + + + + + + + + + + + + + + + + + + + + + + + + + + + p c i f 0 t t 0 c x u 0 @ + + + . o 0 . + + + + + + + + + + + ",
"+ + + + + + + + + + + + + + + + + + + + + + + + + + + + q c % @ p s.a.x u m ;.x x v 0 + + + + @ + + + + + + + + + + + + ",
"+ + + + + + + + + + + + + + + + + + + + + + + + + + + + + o + a a.h.N m i.d.i.~ s.;.m : + + + + + + + + + + + + + + + + ",
"+ + + + + + + + + + + + + + + + + + + + + + + + + + + + + + f p.h.s.;.a.h.^ < ~ h.a.a.a.f + + + + + + + + + + + + + + + ",
"+ + + + + + + + + + + + + + + + + + + + + + + + + + + + + + + b h.a.;.s.p.s 4 ^ h.g.;.a.a.O + + + + + + + + + + + + + + ",
"+ + + + + + + + + + + + + + + + + + + + + + + + + + + + + + + % ;.s.;.a.! < D { f.u.c a.g.b + + + + + + + + + + + + + + ",
"+ + + + + + + + + + + + + + + + + + + + + + + + + + + + + + + + b a.i.p.d , n j.' M m h.g.a + + + + + + + + + + + + + + ",
"+ + + + + + + + + + + + + + + + + + + + + + + + + + + + + + + % i.s.m n T d g.d.S c a.h.;.O + + + + + + + + + + + + + + ",
"+ + + + + + + + + + + + + + + + + + + + + + + + + + + + + + + O i.m u y < ! h.d.S b s.a.t + + + + + + + + + + + + + + + ",
"+ + + + + + + + + + + + + + + + + + + + + + + + + + + + + + + 0 m v u y , W ^ ' ' v x i o + + + + + + + + + + + + + + + ",
"+ + + + + + + + + + + + + + + + + + + + + + + + + + + + + + + 0 c M v x > > s Q d.v u O + + + + + + + + + + + + + + + + ",
"+ + + + + + + + + + + + + + + + + + + + + + + + + + + + + + + . 0 m ;.c b - ; W m x x t + + + + + + + + + + + + + + + + ",
"+ + + + + + + + + + + + + + + + + + + + + + + + + + + + + + + + t h.a.b ' T = > a ;.s.c + + + + + + + + + + + + + + + + ",
"+ + + + + + + + + + + + + + + + + + + + + + + + + + + + + + + % ;.g.a.V G.F.= X n g.a.p + + + + + + + + + + + + + + + + ",
"+ + + + + + + + + + + + + + + + + + + + + + + + + + + + + + + O p.h.s.C G.H.,   d h.s.0 + + + + + + + + + + + + + + + + ",
"+ + + + + + + + + + + + + + + + + + + + + + + + + + + + + + + @ i s.h.C ) / , - ~ s.p @ + + + + + + + + + + + + + + + + ",
"+ + + + + + + + + + + + + + + + + + + + + + + j v.v.2.+ + + + + o a s.s.d ; * y h.i.O . + + + + + + + + + + + + + + + + ",
"+ + + + + + + + + + + + + + + + + + + + + . h A.Z.y.y.H + + + + + O m i.y * > p.s.x o + + + + + + + + + + + + + + + + + ",
"+ + + + + + + + + + + + + + + + + + + + + + j v.x.&.} B + + + + + + $ i > > b ;.M O + + + + + + + + + + + + + + + + + + ",
"+ + + + + + + + + + + + + + + + + + + + + @ 1.C.N.'.) r + + + + + + + @ > < X + + + + + + + + + + + + + + + + + + + + + ",
"+ + + + + + + + + + + + + + + + + + + 7 o.E r.0.#.'. .r # + + + + + + . - > @ + + + + + + + + + + + + + + + + + + + + + ",
"+ + + + + + + + + + + + + + + + + + + 8 Q.`._.N.M.{ 3 ( @.(.9 + + + + + - - + + + + + + + + + + + + + + + + + + + + + + ",
"+ + + + + + + + + + + + + + + + + + + & 9.x./.#X.Xw.:.=.@Xo.+ + + + + + 1 - + + + + + + + + + + + + + + + + + + + + + + ",
"+ + + + + + + + + + + + + + + + + + + A z.<...!.+X).B.Q.(.6 + + + + + # 5   + + + + + + + + + + + + + + + + + + + + + + ",
"+ + + + + + + + + + + + + + + + + + & 7.w.B J | I.{.].].!.Y G $ + + + H c.@ + + + + + + + + + + + + + + + + + + + + + + ",
"+ + + + + + + + + + + + + + + + + + U z.2.% $ Y *.| } U.L.>.2.7.5.5.5.S.OXP + + + + + + + + + + + + + + + + + + + + + + ",
"+ + + + + + + + + + + + + + + + + h z.6.H + + q { !.n.t.S $ H L 2.w.y.x.V.S + + + + + + + + + + + + + + + + + + + + + + ",
"+ + + + + + + + + + + + + + + + + q e.2.q + + $ <.V.B.e.] + + & I <.4.4.g . + + + + + + + + + + + + + + + + + + + + + + ",
"+ + + + + + + + + + + + + + + + $ 2.w.K + + + + w w.=.k.O.@ + + @ $ j z : . + + + + + + + + + + + + + + + + + + + + + + ",
"+ + + + + + + + + + + + + + + + $ 4.w.K $ + + 7 ] 8.Y.Y.%.E + + + + + 2 > + + + + + + + + + + + + + + + + + + + + + + + ",
"+ + + + + + + + + + + + + + + + $ 4.7.B $ + @ X.).=.b.(.L.R + + + + . l : + + + + + + + + + + + + + + + + + + + + + + + ",
"+ + + + + + + + + + + + + + + + & S.$Xk.+ + $ I P.#X~.}.!.3 + + + + + k - + + + + + + + + + + + + + + + + + + + + + + + ",
"+ + + + + + + + + + + + + + + + 3 oXOXD.& + w q.3.K.#X+XT.e + + + + + 1   + + + + + + + + + + + + + + + + + + + + + + + ",
"+ + + + + + + + + + + + + + + + & M.XXV.@ # 1.e.,.#.[.|.{.( + + + + 2 l + + + + + + + + + + + + + + + + + + + + + + + + ",
"+ + + + + + + + + + + + + + + + + + F 6 # ] 0.1.[ L.U.^.P.B + + + + z Q @ + + + + + + + + + + + + + + + + + + + + + + + ",
"+ + + + + + + + + + + + + + + + + + + + J.*.1.Y %.M.z.W.+.B + + + + 2 Q @ + + + + + + + + + + + + + + + + + + + + + + + ",
"+ + + + + + + + + + + + + + + + + + + + _ ~./.!._.M.l.U.4.B . + + + 1 < @ + + + + + + + + + + + + + + + + + + + + + + + ",
"+ + + + + + + + + + + + + + + + + + + + Z e.%.T.|.n.m. X0.H + + + + 2   + + + + + + + + + + + + + + + + + + + + + + + + ",
"+ + + + + + + + + + + + + + + + + + + q e.q.,.$.I.2.n. X8.B + + + + z - + + + + + + + + + + + + + + + + + + + + + + + + ",
"+ + + + + + + + + + + + + + + + + + $ 2.e.q.} {.&.-.n.N.8.j + + + @ l X + + + + + + + + + + + + + + + + + + + + + + + + ",
"+ + + + + + + + + + + + + + + + + + L z.e.e.w.$.E.#.' N.6.B + + + + - - + + + + + + + + + + + + + + + + + + + + + + + + ",
"+ + + + + + + + + + + + + + + + + q e.e.e.z.w.-.Y R.I.j.>.B + + + @ ; - + + + + + + + + + + + + + + + + + + + + + + + + ",
"+ + + + + + + + + + + + + + + + + L e.e.z.z.7.2.,.[ P.&.U G + + + @ : - + + + + + + + + + + + + + + + + + + + + + + + + ",
"+ + + + + + + + + + + + + + + + & w.y.e.7.7.7.z.e.8.3.E./.` + + + X - + + + + + + + + + + + + + + + + + + + + + + + + + ",
"+ + + + + + + + + + + + + + + + j w.w.5.<.2.w.e.w.7.8.j.K.+.+ + + X - + + + + + + + + + + + + + + + + + + + + + + + + + ",
"+ + + + + + + + + + + + + + + + A 2.2.L I 2.5.2.I <.I K ,.B + + + X - . + + + + + + + + + + + + + + + + + + + + + + + + "
};
