/* XPM */
static char *result[] = {
/* columns rows colors chars-per-pixel */
"60 60 191 2 ",
"   c #150A0E",
".  c #110613",
"X  c #150F16",
"o  c #1C0D13",
"O  c #170F18",
"+  c #1A0D1D",
"@  c #111111",
"#  c #1A1314",
"$  c #1D1A13",
"%  c #161519",
"&  c #1B131B",
"*  c #1C181B",
"=  c #240712",
"-  c #280715",
";  c #220B14",
":  c #2A0A16",
">  c #250D19",
",  c #2C0C1B",
"<  c #330D1B",
"1  c #350E19",
"2  c #231119",
"3  c #201A1E",
"4  c #37111D",
"5  c #262114",
"6  c #33241F",
"7  c #3F3415",
"8  c #1E0B22",
"9  c #1C1B25",
"0  c #18182D",
"q  c #1B1A2C",
"w  c #210B25",
"e  c #26072D",
"r  c #29072F",
"t  c #250A2A",
"y  c #2A0C2C",
"u  c #340B22",
"i  c #390D25",
"p  c #360B2C",
"a  c #3C0D2D",
"s  c #271622",
"d  c #221E2B",
"f  c #331322",
"g  c #3C1424",
"h  c #331A22",
"j  c #391A25",
"k  c #37172A",
"l  c #2B0732",
"z  c #2D0933",
"x  c #310B35",
"c  c #380934",
"v  c #340939",
"b  c #3A0A3C",
"n  c #211B3D",
"m  c #381032",
"M  c #3C1E31",
"N  c #26212D",
"B  c #2E2129",
"V  c #382022",
"C  c #3D282E",
"Z  c #272233",
"A  c #2A2435",
"S  c #2D253D",
"D  c #3D2630",
"F  c #31273E",
"G  c #362A3C",
"H  c #3E2B3D",
"J  c #451019",
"K  c #62111E",
"L  c #413518",
"P  c #431B2B",
"I  c #430C3C",
"U  c #58232C",
"Y  c #4B3327",
"T  c #413729",
"R  c #57382C",
"E  c #422533",
"W  c #472739",
"Q  c #47233C",
"!  c #4C353C",
"~  c #5E3833",
"^  c #50353C",
"/  c #593D39",
"(  c #693D20",
")  c #623E37",
"_  c #6C551B",
"`  c #6B452D",
"'  c #7C4B2A",
"]  c #66443A",
"[  c #684539",
"{  c #794634",
"}  c #7A4B33",
"|  c #715831",
" . c #1E1C42",
".. c #3E0B42",
"X. c #211F43",
"o. c #242542",
"O. c #2B2642",
"+. c #26274C",
"@. c #2C2B4D",
"#. c #312741",
"$. c #322B44",
"%. c #322D4B",
"&. c #392F4B",
"*. c #373244",
"=. c #36324B",
"-. c #3A344C",
";. c #292F57",
":. c #2E3155",
">. c #343253",
",. c #3B3653",
"<. c #3E3956",
"1. c #36355B",
"2. c #3F3A59",
"3. c #38346D",
"4. c #430B43",
"5. c #4A0C44",
"6. c #460B49",
"7. c #4B0C4D",
"8. c #461145",
"9. c #4D104C",
"0. c #4C1849",
"q. c #4E0B51",
"w. c #510C53",
"e. c #560D58",
"r. c #483648",
"t. c #5A3F4A",
"y. c #423652",
"u. c #423A54",
"i. c #413B59",
"p. c #653149",
"a. c #5A474E",
"s. c #4A4157",
"d. c #57445B",
"f. c #6B4642",
"g. c #674847",
"h. c #674A49",
"j. c #724B49",
"k. c #735447",
"l. c #6E465C",
"z. c #4D4166",
"x. c #55446D",
"c. c #574670",
"v. c #714A67",
"b. c #7D536F",
"n. c #795578",
"m. c #A0161E",
"M. c #B51B20",
"N. c #A02B29",
"B. c #B02A2C",
"V. c #975E1E",
"C. c #884D2E",
"Z. c #82532A",
"A. c #98582C",
"S. c #845232",
"D. c #8D5731",
"F. c #815934",
"G. c #8D5934",
"H. c #935A30",
"J. c #AB5A25",
"K. c #AB5B25",
"L. c #A85F29",
"P. c #83622B",
"I. c #9A6C27",
"U. c #88643E",
"Y. c #9A6037",
"T. c #A96328",
"R. c #A9672C",
"E. c #B26426",
"W. c #BB6424",
"Q. c #B46A27",
"!. c #B26D2F",
"~. c #AF7521",
"^. c #BB762D",
"/. c #AB6D39",
"(. c #C15C1D",
"). c #D16D1A",
"_. c #CA6820",
"`. c #CA7726",
"'. c #CC7B26",
"]. c #D37D24",
"[. c #DA7C21",
"{. c #835B40",
"}. c #915644",
"|. c #B16542",
" X c #805067",
".X c #85556E",
"XX c #885A7F",
"oX c #945C78",
"OX c #BD8723",
"+X c #D98B26",
"@X c #A2678E",
/* pixels */
"@ @ @ @ @ @ @ @ @ @ @ @ @ @ @ @ @ @ @ @ @ @ @ @ @ @ @ @ @ @ @ @ @ @ @ @ @ @ @ @ @ @ @ @ @ @ @ @ @ @ @ @ @ @ @ @ @ @ @ @ ",
"@ @ @ @ @ @ @ @ @ @ @ @ @ @ @ @ @ @ @ @ @ @ @ @ @ @ @ @ @ @ @ @ @ @ @ @ @ @ @ @ @ @ @ @ @ @ @ @ @ @ @ @ @ @ @ @ @ @ @ @ ",
"@ @ @ @ @ @ @ @ @ @ @ @ @ @ @ @ @ @ @ @ @ @ @ @ @ @ @ @ @ @ @ @ @ @ @ @ @ # + % @ @ @ @ @ @ @ @ @ @ @ @ @ @ @ @ @ @ @ @ ",
"@ @ @ @ @ @ @ @ @ @ @ @ @ @ @ @ @ @ @ @ @ @ @ @ @ @ @ @ @ @ @ @ O O @ @ @ w 4.w X @ @ @ @ @ @ @ @ @ @ @ @ @ @ @ @ @ @ @ ",
"@ @ @ @ @ @ @ @ @ @ @ @ @ @ @ @ @ @ @ @ @ @ @ @ @ @ @ @ @ @ @ @ w w @ @ X x e.b O @ @ @ @ @ @ @ @ @ @ @ @ @ @ @ @ @ @ @ ",
"@ @ @ @ @ @ @ @ @ @ @ @ @ @ @ @ @ @ @ @ @ @ @ @ @ @ @ @ @ @ @ @ + + @ @ O 4.4.w X @ @ @ @ @ @ @ @ @ @ @ @ @ @ @ @ @ @ @ ",
"@ @ @ @ @ @ @ @ @ @ @ @ @ @ @ @ @ @ @ @ @ @ @ @ @ @ @ @ @ @ @ @ @ @ @ @ + v + X @ @ @ @ @ @ @ @ @ @ @ @ @ @ @ @ @ @ @ @ ",
"@ @ @ @ @ @ @ @ @ @ @ @ @ @ @ @ @ @ @ @ @ @ @ @ @ @ @ @ @ @ @ @ @ @ @ @ w w @ @ @ + c y % @ @ @ @ @ @ @ @ @ @ @ @ @ @ @ ",
"@ @ @ @ @ @ @ @ @ @ @ @ @ @ @ @ @ @ @ @ @ @ @ @ @ @ @ @ @ @ @ @ @ @ @ % t + @ @ @ p 4.+ @ @ @ @ @ @ @ @ @ @ @ @ @ @ @ @ ",
"@ @ @ @ @ @ @ @ @ @ @ @ @ @ @ @ @ @ @ @ @ @ @ @ @ @ @ @ @ @ @ @ @ @ @ @ + O @ @ @ + x w @ @ @ @ @ @ @ @ @ @ @ @ @ @ @ @ ",
"@ @ @ @ @ @ @ @ @ @ @ @ @ @ @ @ @ @ @ @ @ @ @ @ @ @ @ @ @ @ @ @ @ @ @ @ @ @ @ @ @ @ y v O @ @ @ @ @ @ @ @ @ @ @ @ @ @ @ ",
"@ @ @ @ @ @ @ @ @ @ @ @ @ @ @ @ @ @ @ @ @ @ @ @ @ @ @ @ @ @ @ @ @ @ @ & y t w % @ @ y b + @ @ @ @ @ @ @ @ @ @ @ @ @ @ @ ",
"@ @ @ @ @ @ @ @ @ @ @ @ @ @ @ @ @ @ @ @ @ @ @ @ @ @ @ @ @ @ @ @ X + t 4.7.7.6.y % @ t 7.+ X @ @ @ @ @ @ @ @ @ @ @ @ @ @ ",
"@ @ @ @ @ @ @ @ @ @ @ @ @ @ @ @ @ @ @ @ @ @ @ @ @ @ @ @ @ @ @ @ s 4.7.7.q.q.w.4.e 8 y 6.t % @ @ @ @ @ @ @ @ @ @ @ @ @ @ ",
"@ @ @ @ @ @ @ @ @ @ @ @ @ @ @ @ @ @ @ @ @ @ @ @ @ @ @ @ @ @ @ @ x w.w.7.7.7.q.7.6.l l ..t & 4.x X @ @ @ @ @ @ @ @ @ @ @ ",
"@ @ @ @ @ @ @ @ @ @ @ @ @ @ @ @ @ @ @ @ @ @ @ @ @ @ @ @ @ @ . + 7.w.7.q.7.w.7.q.q.6.v l 8 s 7.x X @ @ @ @ @ @ @ @ @ @ @ ",
"@ @ @ @ @ @ @ @ @ @ @ @ @ @ @ @ @ @ @ @ @ @ @ @ @ @ @ @ X e 8 r w.w.7.7.9.0.5.5.e.7.z 8 @ y v + @ @ @ @ @ @ @ @ @ @ @ @ ",
"@ @ @ @ @ @ @ @ @ @ @ @ @ @ @ @ @ @ @ @ @ @ @ @ @ @ @ @ + e 8 l 6.w.7.w.7.P < 4.e.6.l 8 @ x t @ @ @ @ @ @ @ @ @ @ @ @ @ ",
"@ @ @ @ @ @ @ @ @ @ @ @ @ @ @ @ @ @ @ @ @ @ @ @ @ @ @ @ w t + r l b 7.w.I 4 j 0.w.7.v + @ 8 w O @ @ @ @ @ @ @ @ @ @ @ @ ",
"@ @ @ @ @ @ @ @ @ @ @ @ @ @ @ @ @ @ @ @ @ @ @ @ @ @ @ @ + t + w t v w.7.a 1 E W q.q.6.w @ O w O @ @ @ @ @ @ @ @ @ @ @ @ ",
"@ @ @ @ @ @ @ @ @ @ @ @ @ @ @ @ @ @ @ @ @ @ @ @ @ @ @ @ X O 8 8 x 7.q.5.< u 8.Q Q q.q.x X @ % X @ @ @ @ @ @ @ @ @ @ @ @ ",
"@ @ @ @ @ @ @ @ @ @ @ @ @ @ @ @ @ @ @ @ @ @ @ @ @ @ @ @ @ @ X O x w.7.I 1 c 6.D E q.q.4.O @ @ @ @ @ @ @ @ @ @ @ @ @ @ @ ",
"@ @ @ @ @ @ @ @ @ @ @ @ @ @ @ @ @ @ @ @ @ @ @ @ @ @ @ @ @ @ @ @ x 9.7.a 4 p l k E 7.w.7.w . @ @ @ @ @ @ @ @ @ @ @ @ @ @ ",
"@ @ @ @ @ @ @ @ @ @ @ @ @ @ @ @ @ @ @ @ @ @ @ @ @ @ @ @ @ @ @ @ c q.7.p 1 i k D 8.w.7.v w X @ @ @ @ @ @ @ @ @ @ @ @ @ @ ",
"@ @ @ @ @ @ @ @ @ @ @ @ @ @ @ @ @ @ @ @ @ @ @ @ @ @ @ @ @ @ @ w q.q.q...; 1 J M 4.q...e . @ @ @ @ @ @ @ @ @ @ @ @ @ @ @ ",
"@ @ @ @ @ @ @ @ @ @ @ @ @ @ @ @ @ @ @ @ @ @ @ @ @ @ @ @ @ @ O v q.q.q.q.m o 1 I v r r w @ @ @ @ @ @ @ @ @ @ @ @ @ @ @ @ ",
"@ @ @ @ @ @ @ @ @ @ @ @ @ @ @ @ @ @ @ @ @ @ @ @ @ @ @ @ @ @ + r v 6.q.0.W J = < 4...t O @ @ @ @ @ @ @ @ @ @ @ @ @ @ @ @ ",
"@ @ @ @ @ @ @ @ @ @ @ @ @ @ @ @ @ @ @ @ @ @ @ @ @ @ @ @ @ @ @ + e v ..Q N.m.. : 5.q.l X @ @ @ @ @ @ @ @ @ @ @ @ @ @ @ @ ",
"@ @ @ @ @ @ @ @ @ @ @ @ @ @ @ @ @ @ @ @ @ @ @ @ @ @ @ @ @ @ @ @ + e e M B.M.. - I q.z w @ @ @ @ @ @ @ @ @ @ @ @ @ @ @ @ ",
"@ @ @ @ @ @ @ @ @ @ @ @ @ @ @ @ @ @ @ @ @ @ @ @ @ @ @ @ @ @ @ @ X + r M U K = : 4.q...t @ @ @ @ @ @ @ @ @ @ @ @ @ @ @ @ ",
"@ @ @ @ @ @ @ @ @ @ @ @ @ @ @ @ @ @ @ @ @ @ @ % A N @ @ @ @ @ @ @ t l I f ; = c e.q.b 8 @ @ @ @ @ @ @ @ @ @ @ @ @ @ @ @ ",
"@ @ @ @ @ @ @ @ @ @ @ @ @ @ @ @ @ @ @ @ @ @ & u.c.z.*.@ @ @ @ @ % r l b : = u 4.6.b e 8 @ @ @ @ @ @ @ @ @ @ @ @ @ @ @ @ ",
"@ @ @ @ @ @ @ @ @ @ @ @ @ @ @ @ @ @ @ @ @ @ d x.2.y.y.N @ @ @ @ % e l b i u 4.l e r w % @ @ @ @ @ @ @ @ @ @ @ @ @ @ @ @ ",
"@ @ @ @ @ @ @ @ @ @ @ @ @ @ @ @ @ @ @ @ @ @ =.z.[ J.C 9 @ @ @ @ @ 8 r y u u r r r w @ @ @ @ @ @ @ @ @ @ @ @ @ @ @ @ @ @ ",
"@ @ @ @ @ @ @ @ @ @ @ @ @ @ @ @ @ @ @ @ @ $ 3.i.Y.).V S @ @ @ @ @ X X O : , % + w @ @ @ @ @ @ @ @ @ @ @ @ @ @ @ @ @ @ @ ",
"@ @ @ @ @ @ @ @ @ @ @ @ @ @ @ @ @ @ $ _ OXG.z.-.R V.h A $ 7 $ @ @ @ @ X ; > @ @ @ @ @ @ @ @ @ @ @ @ @ @ @ @ @ @ @ @ @ @ ",
"@ @ @ @ @ @ @ @ @ @ @ @ @ @ @ @ @ @ @ $ R }.`./.v.X.* P.OXI.@ @ @ @ @ @ 2 ; @ @ @ @ @ @ @ @ @ @ @ @ @ @ @ @ @ @ @ @ @ @ ",
"@ @ @ @ @ @ @ @ @ @ @ @ @ @ @ @ @ @ @ % ,.y.E.[./.a.<.U.~.@ @ @ @ @ @ 3 1   @ @ @ @ @ @ @ @ @ @ @ @ @ @ @ @ @ @ @ @ @ @ ",
"@ @ @ @ @ @ @ @ @ @ @ @ @ @ @ @ @ @ @ A i.F H A.'.+X^.`.Q.Z % @ @ @ @ H p.# @ @ @ @ @ @ @ @ @ @ @ @ @ @ @ @ @ @ @ @ @ @ ",
"@ @ @ @ @ @ @ @ @ @ @ @ @ @ @ @ @ @ & i.=.N Z / S.D.J.W.S. .$.*.$.$.=.b..X3 @ @ @ @ @ @ @ @ @ @ @ @ @ @ @ @ @ @ @ @ @ @ ",
"@ @ @ @ @ @ @ @ @ @ @ @ @ @ @ @ @ % -.i.F @ % G ' [ @.] Y q F #.&.<.<.d.l.* @ @ @ @ @ @ @ @ @ @ @ @ @ @ @ @ @ @ @ @ @ @ ",
"@ @ @ @ @ @ @ @ @ @ @ @ @ @ @ @ @ d i.-.Z @ @ 9 r.|.a.:.d @ @ d O.F %.$.2   @ @ @ @ @ @ @ @ @ @ @ @ @ @ @ @ @ @ @ @ @ @ ",
"@ @ @ @ @ @ @ @ @ @ @ @ @ @ @ @ @ Z <.O.& @ @ 5  .s.U.>.T @ @ @ % & N f ; @ @ @ @ @ @ @ @ @ @ @ @ @ @ @ @ @ @ @ @ @ @ @ ",
"@ @ @ @ @ @ @ @ @ @ @ @ @ @ @ @ % -.,.Z @ @ @ L *.y.G.-.| # @ @ @ @ % 4 > @ @ @ @ @ @ @ @ @ @ @ @ @ @ @ @ @ @ @ @ @ @ @ ",
"@ @ @ @ @ @ @ @ @ @ @ @ @ @ @ @ % <.=.A @ @ % V.F.%.{.I.` $ @ @ @ @ # P ; @ @ @ @ @ @ @ @ @ @ @ @ @ @ @ @ @ @ @ @ @ @ @ ",
"@ @ @ @ @ @ @ @ @ @ @ @ @ @ @ @ % <.*.Z @ @ * H K.R.g.'.Z.$ @ @ @ @ # f o @ @ @ @ @ @ @ @ @ @ @ @ @ @ @ @ @ @ @ @ @ @ @ ",
"@ @ @ @ @ @ @ @ @ @ @ @ @ @ @ @ % n.XXS @ @ A :.W T.[.].G.0 @ @ @ @ # ;   @ @ @ @ @ @ @ @ @ @ @ @ @ @ @ @ @ @ @ @ @ @ @ ",
"@ @ @ @ @ @ @ @ @ @ @ @ @ @ @ @ * @XoXv.@ * ,.<.O.{ [.].E.B @ @ @ @ f f @ @ @ @ @ @ @ @ @ @ @ @ @ @ @ @ @ @ @ @ @ @ @ @ ",
"@ @ @ @ @ @ @ @ @ @ @ @ @ @ @ @ @ v. Xj.$ *.1.=.! G.} _.C.q @ @ @ @ h P @ @ @ @ @ @ @ @ @ @ @ @ @ @ @ @ @ @ @ @ @ @ @ @ ",
"@ @ @ @ @ @ @ @ @ @ @ @ @ @ @ @ @ 6 ! 6 V.[ =.G } s.t.(.~ 0 @ @ @ @ f g @ @ @ @ @ @ @ @ @ @ @ @ @ @ @ @ @ @ @ @ @ @ @ @ ",
"@ @ @ @ @ @ @ @ @ @ @ @ @ @ @ @ @ @ @ @ ' !.Q.H.!.s.a.{ O.d @ @ @ @ 2 < @ @ @ @ @ @ @ @ @ @ @ @ @ @ @ @ @ @ @ @ @ @ @ @ ",
"@ @ @ @ @ @ @ @ @ @ @ @ @ @ @ @ @ @ @ @ o.s.[ R.'.u.h.k.;.N @ @ @ @ # ; @ @ @ @ @ @ @ @ @ @ @ @ @ @ @ @ @ @ @ @ @ @ @ @ ",
"@ @ @ @ @ @ @ @ @ @ @ @ @ @ @ @ @ @ @ 9 <.:.O.F.D.@.j.k.+.d @ @ @ # j   @ @ @ @ @ @ @ @ @ @ @ @ @ @ @ @ @ @ @ @ @ @ @ @ ",
"@ @ @ @ @ @ @ @ @ @ @ @ @ @ @ @ @ @ 9 -.<.=.) '.! +.g.j.+.9 @ @ @ 2 g X @ @ @ @ @ @ @ @ @ @ @ @ @ @ @ @ @ @ @ @ @ @ @ @ ",
"@ @ @ @ @ @ @ @ @ @ @ @ @ @ @ @ @ % =.i.<.<.y.' L./ ^ f.+.N @ @ @ # : o @ @ @ @ @ @ @ @ @ @ @ @ @ @ @ @ @ @ @ @ @ @ @ @ ",
"@ @ @ @ @ @ @ @ @ @ @ @ @ @ @ @ @ N <.<.i.i.>.n ! E.D.#.O.d @ @ @ O : o @ @ @ @ @ @ @ @ @ @ @ @ @ @ @ @ @ @ @ @ @ @ @ @ ",
"@ @ @ @ @ @ @ @ @ @ @ @ @ @ @ @ @ =.<.<.2.2.-.$.+.^ T./ O.d X @ @ # ,   @ @ @ @ @ @ @ @ @ @ @ @ @ @ @ @ @ @ @ @ @ @ @ @ ",
"@ @ @ @ @ @ @ @ @ @ @ @ @ @ @ @ % 2.<.<.=.,.<.<.,.@.^ W.L.Y @ @ @ ; ; @ @ @ @ @ @ @ @ @ @ @ @ @ @ @ @ @ @ @ @ @ @ @ @ @ ",
"@ @ @ @ @ @ @ @ @ @ @ @ @ @ @ @ A ,.,.$.#.$.<.<.-.,.;.! A.( @ @ @ o ; @ @ @ @ @ @ @ @ @ @ @ @ @ @ @ @ @ @ @ @ @ @ @ @ @ ",
"@ @ @ @ @ @ @ @ @ @ @ @ @ @ @ @ A $.#.F S *.*.$.F S F S S d @ @ @ 2 ; @ @ @ @ @ @ @ @ @ @ @ @ @ @ @ @ @ @ @ @ @ @ @ @ @ "
};
