/* XPM */
static char *result[] = {
/* columns rows colors chars-per-pixel */
"60 60 183 2 ",
"   c #140715",
".  c #150F15",
"X  c #1C0D13",
"o  c #170F18",
"O  c #1A0D1D",
"+  c #111111",
"@  c #1B1216",
"#  c #16161B",
"$  c #1A161E",
"%  c #1C1A1D",
"&  c #290717",
"*  c #240A15",
"=  c #2B0916",
"-  c #2C0D19",
";  c #340D1B",
":  c #360F1B",
">  c #221519",
",  c #2A111E",
"<  c #31101E",
"1  c #2B2416",
"2  c #32241B",
"3  c #3C2719",
"4  c #1E0C21",
"5  c #181720",
"6  c #1E1C25",
"7  c #1A152A",
"8  c #1B1933",
"9  c #210726",
"0  c #210B25",
"q  c #2D0921",
"w  c #26072C",
"e  c #29072F",
"r  c #25092A",
"t  c #290A2D",
"y  c #3B0E25",
"u  c #231422",
"i  c #211C27",
"p  c #231D2C",
"a  c #3C1223",
"s  c #3A1D28",
"d  c #2B0731",
"f  c #2E0933",
"g  c #300736",
"h  c #320A35",
"j  c #3A0A35",
"k  c #35073C",
"l  c #35093A",
"z  c #3A0A3D",
"x  c #241F34",
"c  c #391F30",
"v  c #25202B",
"b  c #3B242E",
"n  c #262031",
"m  c #2A2434",
"M  c #26243D",
"N  c #2E263D",
"B  c #2E293C",
"V  c #30273F",
"C  c #332A3E",
"Z  c #392D3F",
"A  c #400A15",
"S  c #560F1C",
"D  c #6F1119",
"F  c #46391A",
"G  c #431D2C",
"H  c #420F30",
"J  c #440C3C",
"K  c #471834",
"L  c #451A3E",
"P  c #601D29",
"I  c #4B252E",
"U  c #422633",
"Y  c #4D233D",
"T  c #462C3A",
"R  c #43313C",
"E  c #4A333B",
"W  c #52383A",
"Q  c #5B3C38",
"!  c #643C35",
"~  c #643D38",
"^  c #77591D",
"/  c #5F403A",
"(  c #7C4E27",
")  c #7C5F22",
"_  c #6A4335",
"`  c #62463A",
"'  c #744B35",
"]  c #7C4E33",
"[  c #794738",
"{  c #6F5536",
"}  c #7F5337",
"|  c #181B44",
" . c #3E0A41",
".. c #1F2148",
"X. c #2D2541",
"o. c #2A2749",
"O. c #2A2B4C",
"+. c #302740",
"@. c #322A43",
"#. c #392F47",
"$. c #352E49",
"%. c #333046",
"&. c #393047",
"*. c #353148",
"=. c #39334D",
"-. c #262A50",
";. c #2B2C52",
":. c #2A305B",
">. c #373251",
",. c #3B3652",
"<. c #3E3956",
"1. c #33355D",
"2. c #39355C",
"3. c #3D3A59",
"4. c #430A45",
"5. c #490D46",
"6. c #460B49",
"7. c #4B0C4D",
"8. c #4A1545",
"9. c #491D43",
"0. c #4B134A",
"q. c #50154D",
"w. c #4E0C51",
"e. c #500C53",
"r. c #483243",
"t. c #4C3B4C",
"y. c #553D43",
"u. c #5A394B",
"i. c #423B55",
"p. c #413B59",
"a. c #4C3E67",
"s. c #56444C",
"d. c #4C4355",
"f. c #514251",
"g. c #68455C",
"h. c #685150",
"j. c #4E426B",
"k. c #504261",
"l. c #51436A",
"z. c #7B4D61",
"x. c #7A5068",
"c. c #634671",
"v. c #734D70",
"b. c #C72727",
"n. c #DA2928",
"m. c #9B5B1F",
"M. c #A14D1C",
"N. c #BF5B1F",
"B. c #B77C1A",
"V. c #904E2C",
"C. c #895225",
"Z. c #9D5E2C",
"A. c #875230",
"S. c #8B5532",
"D. c #8B5931",
"F. c #84533C",
"G. c #8B5C3C",
"H. c #A35324",
"J. c #A35B2A",
"K. c #8D6E20",
"L. c #9C6429",
"P. c #95752A",
"I. c #9D663C",
"U. c #AF6822",
"Y. c #B76020",
"T. c #B56828",
"R. c #BF6F2B",
"E. c #BC7229",
"W. c #BB7A2D",
"Q. c #AE6C32",
"!. c #A96539",
"~. c #AB7535",
"^. c #C26C24",
"/. c #CC6C20",
"(. c #C57425",
"). c #C77926",
"_. c #C07028",
"`. c #D57E26",
"'. c #835066",
"]. c #935C79",
"[. c #CC8427",
"{. c #D78324",
"}. c #976183",
/* pixels */
"+ + + + + + + + + + + + + + + + + + + + + + + + + + + + + + + + + + + + o + + + + + + + + + + + + + + + + + + + + + + + ",
"+ + + + + + + + + + + + + + + + + + + + + + + + + + + + + + + + + + + + o + + + + + + + + + + + + + + + + + + + + + + + ",
"+ + + + + + + + + + + + + + + + + + + + + + + + + + + + + + + + + + + + + + + + + + + + + o + + + + + + + + + + + + + + ",
"+ + + + + + + + + + + + + + + + + + + + + + + + + + + + + + + + + + + + + + + + 4 9 + + . 4 + + + + + + + + + + + + + + ",
"+ + + + + + + + + + + + + + + + + + + + + + + + + + + + + + + + + + + + + # + + 4 4 + + + 4 O . + + + + + + + + + + + + ",
"+ + + + + + + + + + + + + + + + + + + + + + + + + + + + + + + + + + + + . 4 + + + + + + . # . + + + + + + + + + + + + + ",
"+ + + + + + + + + + + + + + + + + + + + + + + + + + + + + + + + + + + + o O + + + + + + + + + + + + + + + + + + + + + + ",
"+ + + + + + + + + + + + + + + + + + + + + + + + + + + + + + + + + + + + + . + + + + + + + + + + + + + + + + + + + + + + ",
"+ + + + + + + + + + + + + + + + + + + + + + + + + + + + + + + + . + + + + + + + + + + + + + + + + + + + + + + + + + + + ",
"+ + + + + + + + + + + + + + + + + + + + + + + + + + + + + + + + O . + + + + + + . + + + + + # 4 o + + + + + + + + + + + ",
"+ + + + + + + + + + + + + + + + + + + + + + + + + + + + + + +   0 O + + + f 5.8.h O + + + .   4 . + + + + + + + + + + + ",
"+ + + + + + + + + + + + + + + + + + + + + + + + + + + + + + +   O + + o z 5.t t 7.r + . O + + + + + + + + + + + + + + + ",
"+ + + + + + + + + + + + + + + + + + + + + + + + + + + + + + + + + h # O 6.z 4 4 f r + + . . + + + + + + + + + + + + + + ",
"+ + + + + + + + + + + + + + + + + + + + + + + + + + + + + + + u 6.6.$ 9 4.6.g e f r r 4 + + + + + + + + + + + + + + + + ",
"+ + + + + + + + + + + + + + + + + + + + + + + + + + + + + + + l z 4 4 f w.w.w.7.7. .g r 4 + + + + + + + + + + + + + + + ",
"+ + + + + + + + + + + + + + + + + + + + + + + + + + + + + + + h z O e 7.w.w.w.w.w.w.4.e r # + + + + + + + + + + + + + + ",
"+ + + + + + + + + + + + + + + + + + + + + + + + + + + + + + + # 4.d d w.w.0.8.5.7.e.7.w e r + + + + + + + + + + + + + + ",
"+ + + + + + + + + + + + + + + + + + + + + + + + + + + + + + + o  .k l w.w.0.a - 7.7.5.e d 4 + + + + + + + + + + + + + + ",
"+ + + + + + + + + + + + + + + + + + + + + + + + + + + + + + + 4 7.7.6.w.w.J ; s q.e.k r r + + + + + + + + + + + + + + + ",
"+ + + + + + + + + + + + + + + + + + + + + + + + + + + + + + + 4 z 7.w.e.7.y ; T L e.l g r + + + + + + + + + + + + + + + ",
"+ + + + + + + + + + + + + + + + + + + + + + + + + + + + + + + o e f 7.6.J < q 0.U L k 6.9 + + + + + + + + + + + + + + + ",
"+ + + + + + + + + + + + + + + + + + + + + + + + + + + + + + + + o r z z H : J 7.U b k 7.9 + + + + + + + + + + + + + + + ",
"+ + + + + + + + + + + + + + + + + + + + + + + + + + + + + + + + + O g z ; : 5.w.U c 4.7.r + + + + + + + + + + + + + + + ",
"+ + + + + + + + + + + + + + + + + + + + + + + + + + + + + + + + + o d d ; : j 9.b 8.7.d r @ + + + + + + + + + + + + + + ",
"+ + + + + + + + + + + + + + + + + + + + + + + + + + + + + + + + + O e z j * : a c w. .w   + + + + + + + + + + + + + + + ",
"+ + + + + + + + + + + + + + + + + + + + + + + + + + + + + + + + + 0 f w.4.- * y J 7.d 4 + + + + + + + + + + + + + + + + ",
"+ + + + + + + + + + + + + + + + + + + + + + + + + + + + + + + + + r l w.9.I A * y 6.e 4 + + + + + + + + + + + + + + + + ",
"+ + + + + + + + + + + + + + + + + + + + + + + + + + + + + + + + + 0 4.w.U b.D   ; 7.k 4 + + + + + + + + + + + + + + + + ",
"+ + + + + + + + + + + + + + + + + + + + + + + + + + + + + + + + + 9 6.w.U n.D   - 5.k r + + + + + + + + + + + + + + + + ",
"+ + + + + + + + + + + + + + + + + + + + + + + + + + + + + + + + . r k 7.U P S X ; k e e + + + + + + + + + + + + + + + + ",
"+ + + + + + + + + + + + + + + + + + + + + + + + $ m v + + + + + + o e 4.8.; * & j f r O + + + + + + + + + + + + + + + + ",
"+ + + + + + + + + + + + + + + + + + + + + + + % a.l.j.B + + + + + . r g j * & q  .w O . + + + + + + + + + + + + + + + + ",
"+ + + + + + + + + + + + + + + + + + + + + + + $.j.3.t.p.# + + + + + @ 0 r - - f d r . + + + + + + + + + + + + + + + + + ",
"+ + + + + + + + + + + + + + + + + + + + + + + a.2.F.M.N + + + + + + + + * ; - O o . + + + + + + + + + + + + + + + + + + ",
"+ + + + + + + + + + + + + + + + + + + + + + % a.2.(.Y.u M + + + + + + + + - - + . + + + + + + + + + + + + + + + + + + + ",
"+ + + + + + + + + + + + + + + + + + + + K.B.} k.&.! m.$ B 1 F + + + + + + ; + + + + + + + + + + + + + + + + + + + + + + ",
"+ + + + + + + + + + + + + + + + + + + + > Q !._.!.c.7 u P.[.^ + + + + + + ; X + + + + + + + + + + + + + + + + + + + + + ",
"+ + + + + + + + + + + + + + + + + + + + % 2.t.^.`.I.f.3.~.L.+ + + + + + > - + + + + + + + + + + + + + + + + + + + + + + ",
"+ + + + + + + + + + + + + + + + + + + + &.<.X.E J.{.[.W.[.L.7 # + + + + u.Y + + + + + + + + + + + + + + + + + + + + + + ",
"+ + + + + + + + + + + + + + + + + + + % i.=.6 M ' ' J.H.^.Q M $.%.*.%.&.].x.+ + + + + + + + + + + + + + + + + + + + + + ",
"+ + + + + + + + + + + + + + + + + + + i.p.m + $ Z A./ ;.S.i x +.@.=.i.<.g.g.+ + + + + + + + + + + + + + + + + + + + + + ",
"+ + + + + + + + + + + + + + + + + + B <.$.i + + 8 u.!.p.,.# + + x V N *.C = + + + + + + + + + + + + + + + + + + + + + + ",
"+ + + + + + + + + + + + + + + + + + *.,.V # + + % @.h.} 2.% + + + + # n ; X + + + + + + + + + + + + + + + + + + + + + + ",
"+ + + + + + + + + + + + + + + + + % ,.$.i + + + F O.s.D.;.) + + + + + @ : @ + + + + + + + + + + + + + + + + + + + + + + ",
"+ + + + + + + + + + + + + + + + + 6 <.*.p + + + [.` >.~.{ C.+ + + + + @ K @ + + + + + + + + + + + + + + + + + + + + + + ",
"+ + + + + + + + + + + + + + + + + 6 =.@.p + + 6 T ^.} G.E.( + + + + + + : + + + + + + + + + + + + + + + + + + + + + + + ",
"+ + + + + + + + + + + + + + + + + v }.v.p + + *.O.R ^.).{.' # + + + + # * + + + + + + + + + + + + + + + + + + + + + + + ",
"+ + + + + + + + + + + + + + + + + C }.].u.+ 6 <.>.X.J./.`.J.5 + + + + s X + + + + + + + + + + + + + + + + + + + + + + + ",
"+ + + + + + + + + + + + + + + + + % z.'.W 1 ,.<.o._ ] V./.~ $ + + + + G < + + + + + + + + + + + + + + + + + + + + + + + ",
"+ + + + + + + + + + + + + + + + + + b E 1 U.s.&.@.D.:.[ N.r.5 + + + + G < + + + + + + + + + + + + + + + + + + + + + + + ",
"+ + + + + + + + + + + + + + + + + + + + + D.E.U.Z.Q.1.F.y.@.5 + + + + , ; + + + + + + + + + + + + + + + + + + + + + + + ",
"+ + + + + + + + + + + + + + + + + + + + + -.f./ ).Q.:.G.d.>.$ + + + + * X + + + + + + + + + + + + + + + + + + + + + + + ",
"+ + + + + + + + + + + + + + + + + + + + m <.-.+.L._ ;.G.f.@.$ + + + @ a . + + + + + + + + + + + + + + + + + + + + + + + ",
"+ + + + + + + + + + + + + + + + + + + 6 ,.d.-.A.R.Z -.F.f.@.$ + + + @ : + + + + + + + + + + + + + + + + + + + + + + + + ",
"+ + + + + + + + + + + + + + + + + + # ,.3.3.<.r.V.J.Z [ t.@.$ + + + + ; + + + + + + + + + + + + + + + + + + + + + + + + ",
"+ + + + + + + + + + + + + + + + + + B <.<.3.d.O.| ! T.' o.X.$ + + + X ; + + + + + + + + + + + + + + + + + + + + + + + + ",
"+ + + + + + + + + + + + + + + + + # =.<.3.p.<.$.@...! J.E #.% + + + @ - + + + + + + + + + + + + + + + + + + + + + + + + ",
"+ + + + + + + + + + + + + + + + + v <.p.,.,.=.<.p.i.-.~ ^.S.2 + + + - X + + + + + + + + + + + + + + + + + + + + + + + + ",
"+ + + + + + + + + + + + + + + + + B ,.,.@.@.$.i.,.,.=.;.Q J.3 + + + * X + + + + + + + + + + + + + + + + + + + + + + + + ",
"+ + + + + + + + + + + + + + + + # M @.B N N $.*.@.N N V X.N % + + + - X + + + + + + + + + + + + + + + + + + + + + + + + "
};
