/* XPM */
static char *result[] = {
/* columns rows colors chars-per-pixel */
"60 60 198 2 ",
"   c #270816",
".  c #290916",
"X  c #2C0A1A",
"o  c #350E1E",
"O  c #3A0D1D",
"+  c #2F111E",
"@  c #2C0A25",
"#  c #29072F",
"$  c #2B092D",
"%  c #350D24",
"&  c #3A0E21",
"*  c #320C2A",
"=  c #3C1426",
"-  c #3C1C2A",
";  c #37162A",
":  c #2B0731",
">  c #2D0A32",
",  c #320935",
"<  c #340939",
"1  c #390A3D",
"2  c #3C0B34",
"3  c #281F34",
"4  c #34153A",
"5  c #38153D",
"6  c #36183C",
"7  c #3A1D3F",
"8  c #351834",
"9  c #38242F",
"0  c #2F2236",
"q  c #3E2131",
"w  c #73141D",
"e  c #45281D",
"r  c #6E3E1F",
"t  c #400E2E",
"y  c #411E2C",
"u  c #450D39",
"i  c #431E39",
"p  c #471F34",
"a  c #7F1621",
"s  c #41212E",
"d  c #422234",
"f  c #4B2333",
"g  c #462C37",
"h  c #4B2A37",
"j  c #432E3B",
"k  c #492C3A",
"l  c #48233C",
"z  c #522739",
"x  c #522B3B",
"c  c #592E3F",
"v  c #4D343C",
"b  c #40313F",
"n  c #51353E",
"m  c #5B3C3B",
"M  c #6B3721",
"N  c #603F3A",
"B  c #5F423C",
"V  c #594133",
"C  c #6B4436",
"Z  c #62443C",
"A  c #6A453C",
"S  c #6F4C37",
"D  c #734534",
"F  c #7C4B33",
"G  c #78493B",
"H  c #7E543C",
"J  c #7E5035",
"K  c #3D0A41",
"L  c #3D1C42",
"P  c #2F2741",
"I  c #3E2243",
"U  c #342B45",
"Y  c #3B2D43",
"T  c #362E49",
"R  c #3A324C",
"E  c #38314A",
"W  c #3B3552",
"Q  c #3F3956",
"!  c #440B45",
"~  c #460B49",
"^  c #4B0C4D",
"/  c #451144",
"(  c #491447",
")  c #421A46",
"_  c #461549",
"`  c #4B144B",
"'  c #451B49",
"]  c #491941",
"[  c #4E0F50",
"{  c #4E1851",
"}  c #541A56",
"|  c #511753",
" . c #442A48",
".. c #492F4D",
"X. c #422747",
"o. c #4B3643",
"O. c #4D3A44",
"+. c #4B324D",
"@. c #443B4B",
"#. c #493A4B",
"$. c #443140",
"%. c #563C45",
"&. c #4E2C51",
"*. c #4D2050",
"=. c #542456",
"-. c #562359",
";. c #5A255C",
":. c #5C2C5F",
">. c #4E3552",
",. c #423B54",
"<. c #4B3D54",
"1. c #433D5B",
"2. c #473A58",
"3. c #503754",
"4. c #57395A",
"5. c #633446",
"6. c #5F2F61",
"7. c #612C62",
"8. c #6B3D6D",
"9. c #633464",
"0. c #52444E",
"q. c #474054",
"w. c #494155",
"e. c #46425C",
"r. c #4A445B",
"t. c #4E495E",
"y. c #534D5E",
"u. c #5D545F",
"i. c #654945",
"p. c #6A4B44",
"a. c #664A49",
"s. c #6A4E48",
"d. c #724940",
"f. c #785844",
"g. c #724059",
"h. c #7B5951",
"j. c #7D6241",
"k. c #4B4462",
"l. c #4D4962",
"z. c #524D64",
"x. c #554B6C",
"c. c #504268",
"v. c #565162",
"b. c #5A526C",
"n. c #555068",
"m. c #634362",
"M. c #6D476D",
"N. c #605175",
"B. c #65567A",
"V. c #665A7A",
"C. c #625E73",
"Z. c #7A5776",
"A. c #8D171E",
"S. c #86252C",
"D. c #BC2629",
"F. c #894E2F",
"G. c #904C2B",
"H. c #8F532E",
"J. c #9B5B2D",
"K. c #95532D",
"L. c #824E35",
"P. c #895532",
"I. c #885739",
"U. c #905A31",
"Y. c #AD5C27",
"T. c #A0552C",
"R. c #9F632E",
"E. c #9C6B36",
"W. c #AC652C",
"Q. c #AA672C",
"!. c #BA6B26",
"~. c #B56D2B",
"^. c #B76627",
"/. c #A8742E",
"(. c #BD7329",
"). c #B6752D",
"_. c #A26835",
"`. c #B16F3D",
"'. c #C57326",
"]. c #C2752A",
"[. c #CA7926",
"{. c #835940",
"}. c #895748",
"|. c #936544",
" X c #986053",
".X c #8B5D74",
"XX c #875A75",
"oX c #925C7C",
"OX c #88556A",
"+X c #8D6374",
"@X c #91687B",
"#X c #C58D38",
"$X c #BC8247",
"%X c #C39144",
"&X c #CCA55A",
"*X c #6E6181",
"=X c #9A6686",
"-X c None",
/* pixels */
"-X-X-X-X-X-X-X-X-X-X-X-X-X-X-X-X-X-X-X-X-X-X-X-X-X-X-X-X-X-X-X-X-X-X-X-X-X-X-X-X-X-X-X-X-X-X-X-X-X-X-X-X-X-X-X-X-X-X-X-X",
"-X-X-X-X-X-X-X-X-X-X-X-X-X-X-X-X-X-X-X-X-X-X-X-X-X-X-X-X-X-X-X-X-X-X-X-X-X-X-X-X-X-X-X-X-X-X-X-X-X-X-X-X-X-X-X-X-X-X-X-X",
"-X-X-X-X-X-X-X-X-X-X-X-X-X-X-X-X-X-X-X-X-X-X-X-X-X-X-X-X-X-X-X-X-X-X-X-X-X-X-X-X-X-X-X-X-X-X-X-X-X-X-X-X-X-X-X-X-X-X-X-X",
"-X-X-X-X-X-X-X-X-X-X-X-X-X-X-X-X-X-X-X-X-X-X-X-X-X-X-X-X-X-X-X-X-X-X-X*.-X-X-X-X-X-X-X-X-X-X-X-X-X-X-X-X-X-X-X-X-X-X-X-X",
"-X-X-X-X-X-X-X-X-X-X-X-X-X-X-X-X-X-X-X-X-X-X-X-X-X-X-X-X-X-X-X-X-X-X-X&.-X-X-X-X-X-X-X-X-X-X-X-X-X-X-X-X-X-X-X-X-X-X-X-X",
"-X-X-X-X-X-X-X-X-X-X-X-X-X-X-X-X-X-X-X-X-X-X-X-X-X-X-X-X-X-X-X-X-X-X-X-X-X-X-X-X-X-X-X-X-X-X-X-X-X-X-X-X-X-X-X-X-X-X-X-X",
"-X-X-X-X-X-X-X-X-X-X-X-X-X-X-X-X-X-X-X-X-X-X-X-X-X-X-X-X-X-X-X-X-X-X-X-X-X-X-X-X-XM.-X-X-X-X-X-X-X-X-X-X-X-X-X-X-X-X-X-X",
"-X-X-X-X-X-X-X-X-X-X-X-X-X-X-X-X-X-X-X-X-X-X-X-X-X-X-X-X-X-X-X-X-X-X-X-X-X-X-X-X;.{ -X-X-X-X-X-X-X-X-X-X-X-X-X-X-X-X-X-X",
"-X-X-X-X-X-X-X-X-X-X-X-X-X-X-X-X-X-X-X-X-X-X-X-X-X-X-X-X-X-X-X-X-X-X-X-X-X-X-X-X_ &.-X-X-X' M.-X-X-X-X-X-X-X-X-X-X-X-X-X",
"-X-X-X-X-X-X-X-X-X-X-X-X-X-X-X-X-X-X-X-X-X-X-X-X-X-X-X-X-X-X-X-X-X-X-X-X:.-X-X_ 5 -X-X-X-X_ 6.-X-X-X-X-X-X-X-X-X-X-X-X-X",
"-X-X-X-X-X-X-X-X-X-X-X-X-X-X-X-X-X-X-X-X-X-X-X-X-X-X-X-X-X-X-X-X-X-X-X-X{ >.4 > >.-X-X-X-XL _ -X-X-X-X-X-X-X-X-X-X-X-X-X",
"-X-X-X-X-X-X-X-X-X-X-X-X-X-X-X-X-X-X-X-X-X-X-X-X-X-X-X-X-X-X-X-X-X-X-X-X) $ > # 6 L 9.-X-X .L -X-X-X-X-X-X-X-X-X-X-X-X-X",
"-X-X-X-X-X-X-X-X-X-X-X-X-X-X-X-X-X-X-X-X-X-X-X-X-X-X-X-X-X-X-X-X-X-X-X..> : $ # # # K 7.-X-X-X-X-X-X-X-X-X-X-X-X-X-X-X-X",
"-X-X-X-X-X-X-X-X-X-X-X-X-X-X-X-X-X-X-X-X-X-X-X-X-X-X-X-X-X-X-X-X-X-X-X' K > # > # : 1 ~ 7.-X-Xm.-X-X-X-X-X-X-X-X-X-X-X-X",
"-X-X-X-X-X-X-X-X-X-X-X-X-X-X-X-X-X-X-X-X-X-X-X-X-X-X-X-X-X-X-X-X-X-X} ^ K , * @ # : > K [ -X-X3.' 6.-X-X-X-X-X-X-X-X-X-X",
"-X-X-X-X-X-X-X-X-X-X-X-X-X-X-X-X-X-X-X-X-X-X-X-X-X-X-X-X-X-X-X8.-X9.[ ~ < > = o , : : : ' -X-X-X>.' -X-X-X-X-X-X-X-X-X-X",
"-X-X-X-X-X-X-X-X-X-X-X-X-X-X-X-X-X-X-X-X-X-X-X-X-X-X-X-X-X-X;.9.-X} ^ K : $ o - ] 1 $ # X.-X-X-X-X<.-X-X-X-X-X-X-X-X-X-X",
"-X-X-X-X-X-X-X-X-X-X-X-X-X-X-X-X-X-X-X-X-X-X-X-X-X-X-X-X-X-.-.-X:.[ ^ , # & o d l ! > # : -.-X-X-X-X-X-X-X-X-X-X-X-X-X-X",
"-X-X-X-X-X-X-X-X-X-X-X-X-X-X-X-X-X-X-X-X-X-X-X-X-X-X-X-X-X-X4 -X=.^ ~ : $ & X / d i 1 $ < ^ } -X-X-X-X-X-X-X-X-X-X-X-X-X",
"-X-X-X-X-X-X-X-X-X-X-X-X-X-X-X-X-X-X-X-X-X-X-X-X-X-X-X-X-X-X6 3.&.1 1 > % O 2 ^ i d ` 1 1 ^ ^ _ -X-X-X-X-X-X-X-X-X-X-X-X",
"-X-X-X-X-X-X-X-X-X-X-X-X-X-X-X-X-X-X-X-X-X-X-X-X-X-X-X-X-X-X .> > 6 > > & O u [ i d ` ~ < ~ ~ ' -X-X-X-X-X-X-X-X-X-X-X-X",
"-X-X-X-X-X-X-X-X-X-X-X-X-X-X-X-X-X-X-X-X-X-X-X-X-X-X-X-X-X-X-X .I 4.> $ @ O 2 / q i ^ K : < 6 -X-X-X-X-X-X-X-X-X-X-X-X-X",
"-X-X-X-X-X-X-X-X-X-X-X-X-X-X-X-X-X-X-X-X-X-X-X-X-X-X-X-X-X-X-X-X-X-.< < 2 X & = q ( [ < # 6 -X-X-X-X-X-X-X-X-X-X-X-X-X-X",
"-X-X-X-X-X-X-X-X-X-X-X-X-X-X-X-X-X-X-X-X-X-X-X-X-X-X-X-X-X-X-X-X;.^ < 1 ~ % . o t ^ ! > : ..-X-X-X-X-X-X-X-X-X-X-X-X-X-X",
"-X-X-X-X-X-X-X-X-X-X-X-X-X-X-X-X-X-X-X-X-X-X-X-X-X-X-X-X-X-X-X-X| ^ < < ( p X . % u K > 6 -X-X-X-X-X-X-X-X-X-X-X-X-X-X-X",
"-X-X-X-X-X-X-X-X-X-X-X-X-X-X-X-X-X-X-X-X-X-X-X-X-X-X-X-X-X-X-X-X' K > $ q S.a   X * : > -X-X-X-X-X-X-X-X-X-X-X-X-X-X-X-X",
"-X-X-X-X-X-X-X-X-X-X-X-X-X-X-X-X-X-X-X-X-X-X-X-X-X-X-X-X-X-X-X-X>.< # > q D.A.. X @ # 6 -X-X-X-X-X-X-X-X-X-X-X-X-X-X-X-X",
"-X-X-X-X-X-X-X-X-X-X-X-X-X-X-X-X-X-X-X-X-X-X-X-X-X-X-X-X-X-X-X-X-XI # $ q S.a .   @ : +.-X-X-X-X-X-X-X-X-X-X-X-X-X-X-X-X",
"-X-X-X-X-X-X-X-X-X-X-X-X-X-X-X-X-X-X-X-X-X-X-X-XB.B.*X-X-X-X-X-X-X-X, $ ; y O   X # 6 -X-X-X-X-X-X-X-X-X-X-X-X-X-X-X-X-X",
"-X-X-X-X-X-X-X-X-X-X-X-X-X-X-X-X-X-X-X-X-X-X-XB.4.1.r.V.-X-X-X-X-X-X<.6 * X     @ L -X-X-X-X-X-X-X-X-X-X-X-X-X-X-X-X-X-X",
"-X-X-X-X-X-X-X-X-X-X-X-X-X-X-X-X-X-X-X-X-X-X-XN.1.d.m 1.-X-X-X-X-X-X-X-Xo.+ ; 9 +.-X-X-X-X-X-X-X-X-X-X-X-X-X-X-X-X-X-X-X",
"-X-X-X-X-X-X-X-X-X-X-X-X-X-X-X-X-X-X-X-X-X-X*X1.a.^.r R -X-X-X-X-X-X-X-X-Xs v -X-X-X-X-X-X-X-X-X-X-X-X-X-X-X-X-X-X-X-X-X",
"-X-X-X-X-X-X-X-X-X-X-X-X-X-X-X-X-X-X-X-X-X-XN.1.Z !.r 0 -X-X-X-X-X-X-X-X-Xs n -X-X-X-X-X-X-X-X-X-X-X-X-X-X-X-X-X-X-X-X-X",
"-X-X-X-X-X-X-X-X-X-X-X-X-X-X-X-X-X-X-X-X%X`.}.s.%.D e 9 -X&X-X-X-X-X-X-X-Xs h -X-X-X-X-X-X-X-X-X-X-X-X-X-X-X-X-X-X-X-X-X",
"-X-X-X-X-X-X-X-X-X-X-X-X-X-X-X-X-X-X-X-X-Xh.~.]. X<.0 V #X#X-X-X-X-X-X-X-Xs -X-X-X-X-X-X-X-X-X-X-X-X-X-X-X-X-X-X-X-X-X-X",
"-X-X-X-X-X-X-X-X-X-X-X-X-X-X-X-X-X-X-X-Xx.W F ^.(.E.s.s.).-X-X-X-X-X-X-X-Xd -X-X-X-X-X-X-X-X-X-X-X-X-X-X-X-X-X-X-X-X-X-X",
"-X-X-X-X-X-X-X-X-X-X-X-X-X-X-X-X-X-X-X-Xe.R Y D _.[.'.(.].|.-X-X-X-X-X-X-Xn -X-X-X-X-X-X-X-X-X-X-X-X-X-X-X-X-X-X-X-X-X-X",
"-X-X-X-X-X-X-X-X-X-X-X-X-X-X-X-X-X-X-Xz.Q v.y.%.F F F.K.W.v 2.C.-X-X-X-X+X8.-X-X-X-X-X-X-X-X-X-X-X-X-X-X-X-X-X-X-X-X-X-X",
"-X-X-X-X-X-X-X-X-X-X-X-X-X-X-X-X-X-Xb.1.R -X-Xw.V L.O.o.I.u.E R t.n.z.n.OX=X-X-X-X-X-X-X-X-X-X-X-X-X-X-X-X-X-X-X-X-X-X-X",
"-X-X-X-X-X-X-X-X-X-X-X-X-X-X-X-X-X-Xk.R w.-X-X-XR }.f.,.2.-Xy.W E R W Q m.OX-X-X-X-X-X-X-X-X-X-X-X-X-X-X-X-X-X-X-X-X-X-X",
"-X-X-X-X-X-X-X-X-X-X-X-X-X-X-X-X-Xn.,.R -X-X-X-Xr.w.H 0.e.-X-X-Xw.R R E Y k -X-X-X-X-X-X-X-X-X-X-X-X-X-X-X-X-X-X-X-X-X-X",
"-X-X-X-X-X-X-X-X-X-X-X-X-X-X-X-X-Xl.W T -X-X-X-X-XQ H Z 0.-X-X-X-X-X-Xw.- -X-X-X-X-X-X-X-X-X-X-X-X-X-X-X-X-X-X-X-X-X-X-X",
"-X-X-X-X-X-X-X-X-X-X-X-X-X-X-X-X-Xr.R T -X-X-X-Xj.q.i.E.S -X-X-X-X-X-X-Xf -X-X-X-X-X-X-X-X-X-X-X-X-X-X-X-X-X-X-X-X-X-X-X",
"-X-X-X-X-X-X-X-X-X-X-X-X-X-X-X-X-X1.T T -X-X-X|.)./.i.)._.-X-X-X-X-X-X-Xz -X-X-X-X-X-X-X-X-X-X-X-X-X-X-X-X-X-X-X-X-X-X-X",
"-X-X-X-X-X-X-X-X-X-X-X-X-X-X-X-X-XZ.M.@.-X-X-Xw.C (.(.'.~.h.-X-X-X-X-X-Xf -X-X-X-X-X-X-X-X-X-X-X-X-X-X-X-X-X-X-X-X-X-X-X",
"-X-X-X-X-X-X-X-X-X-X-X-X-X-X-X-X-X=X=XZ.-X-X-XQ 0 D '.[.(.A -X-X-X-X-X-X- -X-X-X-X-X-X-X-X-X-X-X-X-X-X-X-X-X-X-X-X-X-X-X",
"-X-X-X-X-X-X-X-X-X-X-X-X-X-X-X-X-X.XOX@X-X-Xk.Q U C ^.'.[.F -X-X-X-X-X-Xg -X-X-X-X-X-X-X-X-X-X-X-X-X-X-X-X-X-X-X-X-X-X-X",
"-X-X-X-X-X-X-X-X-X-X-X-X-X-X-X-X-X+X+X-X-Xz.Q R j L.N Y.Y.n -X-X-X-X-X5.x -X-X-X-X-X-X-X-X-X-X-X-X-X-X-X-X-X-X-X-X-X-X-X",
"-X-X-X-X-X-X-X-X-X-X-X-X-X-X-X-X-X-X-X-X$XH #.Y S i.@.T.G.Y -X-X-X-X-X5.x -X-X-X-X-X-X-X-X-X-X-X-X-X-X-X-X-X-X-X-X-X-X-X",
"-X-X-X-X-X-X-X-X-X-X-X-X-X-X-X-X-X-X-X-X-X_.Q.U.Q.s.<.L.O.R -X-X-X-X-Xc z -X-X-X-X-X-X-X-X-X-X-X-X-X-X-X-X-X-X-X-X-X-X-X",
"-X-X-X-X-X-X-X-X-X-X-X-X-X-X-X-X-X-X-X-X-X0.Z P.'.s.<.{.,.R -X-X-X-X-Xd s -X-X-X-X-X-X-X-X-X-X-X-X-X-X-X-X-X-X-X-X-X-X-X",
"-X-X-X-X-X-X-X-X-X-X-X-X-X-X-X-X-X-X-X-Xz.W U S J.o.<.{.,.U -X-X-X-X-Xg g -X-X-X-X-X-X-X-X-X-X-X-X-X-X-X-X-X-X-X-X-X-X-X",
"-X-X-X-X-X-X-X-X-X-X-X-X-X-X-X-X-X-X-X-X1.W o.W.F U #.{.,.U -X-X-X-X-Xh -X-X-X-X-X-X-X-X-X-X-X-X-X-X-X-X-X-X-X-X-X-X-X-X",
"-X-X-X-X-X-X-X-X-X-X-X-X-X-X-X-X-X-X-Xe.Q W Y F J.A j G R T -X-X-X-X-Xy -X-X-X-X-X-X-X-X-X-X-X-X-X-X-X-X-X-X-X-X-X-X-X-X",
"-X-X-X-X-X-X-X-X-X-X-X-X-X-X-X-X-X-Xl.Q 1.Q W U n P.P.m U U -X-X-X-X-X- -X-X-X-X-X-X-X-X-X-X-X-X-X-X-X-X-X-X-X-X-X-X-X-X",
"-X-X-X-X-X-X-X-X-X-X-X-X-X-X-X-X-X-X1.Q Q Q Q 0 0 v J.C Y U -X-X-X-X-Xy -X-X-X-X-X-X-X-X-X-X-X-X-X-X-X-X-X-X-X-X-X-X-X-X",
"-X-X-X-X-X-X-X-X-X-X-X-X-X-X-X-X-Xl.Q Q Q Q W T T P v H.U.B -X-X-X-X-Xh -X-X-X-X-X-X-X-X-X-X-X-X-X-X-X-X-X-X-X-X-X-X-X-X",
"-X-X-X-X-X-X-X-X-X-X-X-X-X-X-X-X-Xe.1.W R R W Q W W T v J.Q.-X-X-X-Xs g -X-X-X-X-X-X-X-X-X-X-X-X-X-X-X-X-X-X-X-X-X-X-X-X",
"-X-X-X-X-X-X-X-X-X-X-X-X-X-X-X-Xt.W R T U U W W W E E T q O.-X-X-X-X- -X-X-X-X-X-X-X-X-X-X-X-X-X-X-X-X-X-X-X-X-X-X-X-X-X",
"-X-X-X-X-X-X-X-X-X-X-X-X-X-X-X-Xv.r.w.q.q.t.t.t.w.w.w.w.q.r.-X-X-X-X%.-X-X-X-X-X-X-X-X-X-X-X-X-X-X-X-X-X-X-X-X-X-X-X-X-X"
};
