/* XPM */
static char *result[] = {
/* columns rows colors chars-per-pixel */
"60 60 182 2 ",
"   c #1C0A0F",
".  c #100514",
"X  c #150F16",
"o  c #1D0D13",
"O  c #160D19",
"+  c #1B0E1D",
"@  c #111111",
"#  c #191114",
"$  c #1C1914",
"%  c #161419",
"&  c #1A131B",
"*  c #1B191D",
"=  c #2A0716",
"-  c #270915",
";  c #2B0A16",
":  c #2C0D1A",
">  c #320D17",
",  c #340D1C",
"<  c #3D0E1B",
"1  c #291B18",
"2  c #2D2713",
"3  c #34221D",
"4  c #1D0B21",
"5  c #1B1224",
"6  c #1D1A23",
"7  c #1D1C2B",
"8  c #1B173E",
"9  c #220B25",
"0  c #2D0926",
"q  c #26072C",
"w  c #29072E",
"e  c #25092A",
"r  c #2B0D2D",
"t  c #330B26",
"y  c #3A0E24",
"u  c #310A29",
"i  c #221122",
"p  c #211C22",
"a  c #2D1927",
"s  c #231E2C",
"d  c #3D1223",
"f  c #3F1128",
"g  c #2B0731",
"h  c #2D0932",
"j  c #340730",
"k  c #310B35",
"l  c #35093A",
"z  c #3A0B3C",
"x  c #221F39",
"c  c #331232",
"v  c #3D1D33",
"b  c #24222F",
"n  c #2E242D",
"m  c #3C2B2C",
"M  c #39302D",
"N  c #262132",
"B  c #282339",
"V  c #2D263C",
"C  c #2E293B",
"Z  c #3B2332",
"A  c #30273F",
"S  c #322C3E",
"D  c #5A0B15",
"F  c #473616",
"G  c #5A361A",
"H  c #603718",
"J  c #460C20",
"K  c #410C3D",
"L  c #441030",
"P  c #6B1C26",
"I  c #7A1821",
"U  c #42252B",
"Y  c #4C3B28",
"T  c #422535",
"R  c #422934",
"E  c #542935",
"W  c #43323D",
"Q  c #4D3239",
"!  c #553738",
"~  c #5C3A39",
"^  c #642B32",
"/  c #623B35",
"(  c #6C3E32",
")  c #603C3A",
"_  c #775D18",
"`  c #634C28",
"'  c #73412E",
"]  c #694639",
"[  c #744937",
"{  c #695439",
"}  c #74513D",
"|  c #7C5039",
" . c #1E1F45",
".. c #161E5B",
"X. c #3D0A41",
"o. c #242345",
"O. c #292544",
"+. c #2E2A45",
"@. c #25264A",
"#. c #292648",
"$. c #2C2B4C",
"%. c #302740",
"&. c #322B43",
"*. c #3A2F46",
"=. c #352E49",
"-. c #343046",
";. c #3B3541",
":. c #36314C",
">. c #3A324D",
",. c #2C2D54",
"<. c #2C325D",
"1. c #353353",
"2. c #3C3652",
"3. c #3E3956",
"4. c #363758",
"5. c #3E3A59",
"6. c #3B3A67",
"7. c #420C45",
"8. c #4A0C43",
"9. c #460B49",
"0. c #4B0C4D",
"q. c #481545",
"w. c #4C124B",
"e. c #4E0C51",
"r. c #510C53",
"t. c #510A59",
"y. c #433144",
"u. c #4E3847",
"i. c #44344C",
"p. c #4A3B4B",
"a. c #463856",
"s. c #423C56",
"d. c #413B59",
"f. c #4A3F67",
"g. c #5D4844",
"h. c #4E4055",
"j. c #534851",
"k. c #764A47",
"l. c #6D534B",
"z. c #775346",
"x. c #6F475C",
"c. c #7D6145",
"v. c #474060",
"b. c #604864",
"n. c #774F66",
"m. c #784E68",
"M. c #9F1B20",
"N. c #AD2429",
"B. c #8D4014",
"V. c #99541C",
"C. c #8F6B1E",
"Z. c #87472C",
"A. c #8B4D2D",
"S. c #934C29",
"D. c #895328",
"F. c #9E5226",
"G. c #93552D",
"H. c #854F34",
"J. c #885735",
"K. c #A85A28",
"L. c #B35F25",
"P. c #8E603F",
"I. c #A2672D",
"U. c #B3662A",
"Y. c #B4722A",
"T. c #B9772A",
"R. c #A56232",
"E. c #A06F38",
"W. c #DB6C1E",
"Q. c #C36121",
"!. c #C26C23",
"~. c #C67425",
"^. c #C87827",
"/. c #CA7927",
"(. c #D27923",
"). c #876540",
"_. c #805063",
"`. c #C4871D",
"'. c #D68826",
"]. c #E98523",
"[. c #F48927",
"{. c #A46789",
/* pixels */
"@ @ @ @ @ @ @ @ @ @ @ @ @ @ @ @ @ @ @ @ @ @ @ @ @ @ @ @ @ @ @ @ @ @ @ @ @ @ @ @ @ @ @ @ @ @ @ @ @ @ @ @ @ @ @ @ @ @ @ @ ",
"@ @ @ @ @ @ @ @ @ @ @ @ @ @ @ @ @ @ @ @ @ @ @ @ @ @ @ @ @ @ @ @ @ @ @ @ @ @ @ @ @ @ @ @ @ @ @ @ @ @ @ @ @ @ @ @ @ @ @ @ ",
"@ @ @ @ @ @ @ @ @ @ @ @ @ @ @ @ @ @ @ @ @ @ @ @ @ @ @ @ @ @ @ @ @ @ @ @ @ @ @ @ @ @ @ @ @ @ @ @ @ @ @ @ @ @ @ @ @ @ @ @ ",
"@ @ @ @ @ @ @ @ @ @ @ @ @ @ @ @ @ @ @ @ @ @ @ @ @ @ @ @ @ @ @ @ @ @ @ @ @ @ @ @ @ @ @ @ @ @ @ @ @ @ @ @ @ @ @ @ @ @ @ @ ",
"@ @ @ @ @ @ @ @ @ @ @ @ @ @ @ @ @ @ @ @ @ @ @ @ @ @ @ @ @ @ @ @ @ @ @ @ @ @ @ @ @ @ @ @ @ @ @ @ @ @ @ @ @ @ @ @ @ @ @ @ ",
"@ @ @ @ @ @ @ @ @ @ @ @ @ @ @ @ @ @ @ @ @ @ @ @ @ @ @ @ @ @ @ @ @ @ @ @ @ @ @ @ @ @ @ @ @ @ @ @ @ @ @ @ @ @ @ @ @ @ @ @ ",
"@ @ @ @ @ @ @ @ @ @ @ @ @ @ @ @ @ @ @ @ @ @ @ @ @ @ @ @ @ @ @ @ @ @ @ @ @ @ @ @ @ @ @ @ @ @ @ @ @ @ @ @ @ @ @ @ @ @ @ @ ",
"@ @ @ @ @ @ @ @ @ @ @ @ @ @ @ @ @ @ @ @ @ @ @ @ @ @ @ @ @ @ @ @ @ @ @ @ @ @ @ @ @ @ @ @ @ @ @ @ @ @ @ @ @ @ @ @ @ @ @ @ ",
"@ @ @ @ @ @ @ @ @ @ @ @ @ @ @ @ @ @ @ @ @ @ @ @ @ @ @ @ @ @ @ @ @ @ @ @ @ @ @ @ @ @ @ @ @ @ @ @ @ @ @ @ @ @ @ @ @ @ @ @ ",
"@ @ @ @ @ @ @ @ @ @ @ @ @ @ @ @ @ @ @ @ @ @ @ @ @ @ @ @ @ @ @ @ @ @ @ @ @ @ @ @ @ @ @ @ @ @ @ @ @ @ @ @ @ @ @ @ @ @ @ @ ",
"@ @ @ @ @ @ @ @ @ @ @ @ @ @ @ @ @ @ @ @ @ @ @ @ @ . @ X @ @ @ @ @ @ @ @ @ @ @ @ @ @ @ @ @ @ @ @ @ @ @ @ @ @ @ @ @ @ @ @ ",
"@ @ @ @ @ @ @ @ @ @ @ @ @ @ @ @ @ @ @ @ @ # % 4 O 4 e O X @ @ @ @ @ @ @ @ @ @ @ @ @ @ @ @ @ @ @ @ @ @ @ @ @ @ @ @ @ @ @ ",
"@ @ @ @ @ @ @ @ @ @ @ @ @ @ @ @ @ @ @ @ 1 t v u c u w g w 9 # @ @ @ @ @ @ @ @ @ @ @ @ @ @ @ @ @ @ @ @ @ @ @ @ @ @ @ @ @ ",
"@ @ @ @ @ @ @ @ @ @ @ @ @ @ @ @ @ @ # i r > v R m Z z 0.r.9.e X @ @ @ @ @ @ @ @ @ @ @ @ @ @ @ @ @ @ @ @ @ @ @ @ @ @ @ @ ",
"@ @ @ @ @ @ @ @ @ @ @ @ @ @ @ @ X 4 9 q q > : k v T T 0.r.0.k 4 @ @ @ @ @ @ @ @ @ @ @ @ @ @ @ @ @ @ @ @ @ @ @ @ @ @ @ @ ",
"@ @ @ @ @ @ @ @ @ @ @ @ @ @ @ @ k X.l g q , , j e.q.m T 0.t.X.q @ @ @ @ @ @ @ @ @ @ @ @ @ @ @ @ @ @ @ @ @ @ @ @ @ @ @ @ ",
"@ @ @ @ @ @ @ @ @ @ @ # # @ @ r e.t.0.w q , y y 8.w.m v w.t.z q 4 @ @ @ @ @ @ @ @ @ @ @ @ @ @ @ @ @ @ @ @ @ @ @ @ @ @ @ ",
"@ @ @ @ @ @ @ @ @ @ @ r 4 % @ z e.e.z w z K > < d f d d L K g q 4 X @ @ @ @ @ @ @ @ @ @ @ @ @ @ @ @ @ @ @ @ @ @ @ @ @ @ ",
"@ @ @ @ @ @ @ @ @ @ X k 9 & @ z e.l w k e.r.K ; > > = : , y u g q X @ @ @ @ @ @ @ @ @ @ @ @ @ @ @ @ @ @ @ @ @ @ @ @ @ @ ",
"@ @ @ @ @ @ @ @ @ @ + g 4 @ @ l X.q e l r.0.e.z t - - = ; = , u 9 X @ @ @ @ @ @ @ @ @ @ @ @ @ @ @ @ @ @ @ @ @ @ @ @ @ @ ",
"@ @ @ @ @ @ @ @ @ @ 4 9 X @ + k g q e 7.e.0.e.e.w.K U I D . > f 9 % @ @ @ @ @ @ @ @ @ @ @ @ @ @ @ @ @ @ @ @ @ @ @ @ @ @ ",
"@ @ @ @ @ @ @ @ @ @ @ X % @ z 9.g g g 0.r.e.0.e.t.w.R ^ N.M.< 9 w @ @ @ @ @ @ @ @ @ @ @ @ @ @ @ @ @ @ @ @ @ @ @ @ @ @ @ ",
"@ @ @ @ @ @ @ @ @ @ & h 4 # X.0.g 9.l k 0.r.r.0.z l c R E P J g w # @ @ @ @ @ @ @ @ @ @ @ @ @ @ @ @ @ @ @ @ @ @ @ @ @ @ ",
"@ @ @ @ @ @ @ @ @ @ r h # @ 7.k l t.l e h 9.z w w g h w w w 0 t # @ @ @ @ @ @ @ @ @ @ @ @ @ @ @ @ @ @ @ @ @ @ @ @ @ @ @ ",
"@ @ @ @ @ @ @ @ @ @ r @ @ # 7.k X.e.0.h w q w w w l l q g g q 9 ; # @ @ @ @ @ @ @ @ @ @ @ @ @ @ @ @ @ @ @ @ @ @ @ @ @ @ ",
"@ @ @ @ @ @ @ @ @ @ 9 @ @ @ k h X.e.e.k w w q w l e.7.h g w 4 @ # ; # @ @ @ @ @ @ @ @ @ @ @ @ @ @ @ @ @ @ @ @ @ @ @ @ @ ",
"@ @ @ @ @ @ @ @ @ @ @ @ @ @ + r e.7.g q h h k 9.w.r.e.z q 4 % X @ o : @ @ @ @ @ @ @ @ @ @ @ @ @ @ @ @ @ @ @ @ @ @ @ @ @ ",
"@ @ @ @ @ @ @ @ @ @ @ @ @ @ 4 g X.g q j 9.0.r.r.e.9.l w 4 X @ @ @ @ - : @ @ @ @ @ @ @ @ @ @ @ @ @ @ @ @ @ @ @ @ @ @ @ @ ",
"@ @ @ @ @ @ @ @ @ @ @ @ @ 5 h q q e q g q z 0.7.h h q 4 X @ @ @ * * X o : # @ @ @ @ @ @ @ @ @ @ @ @ @ @ @ @ @ @ @ @ @ @ ",
"@ @ @ @ @ @ @ @ @ @ @ @ @ 9 g 9 O + z e 4 & 5 & @ g 4 X @ @ @ % >.d.N @ # ; # @ @ @ @ @ @ @ @ @ @ @ @ @ @ @ @ @ @ @ @ @ ",
"@ @ @ @ @ @ @ @ @ @ @ @ @ 9 9 X @ c 9.# @ @ @ @ 4 9 # @ @ @ @ i.f.2.5.b @ o > @ @ @ @ @ @ @ @ @ @ @ @ @ @ @ @ @ @ @ @ @ ",
"@ @ @ @ @ @ @ @ @ @ @ X + 9 # @ 4 4 % @ @ @ @ @ 4 O @ @ @ @ B v.h.} ~ >.@ @   o @ @ @ @ @ @ @ @ @ @ @ @ @ @ @ @ @ @ @ @ ",
"@ @ @ @ @ @ @ @ @ @ @ # e & @ @ @ @ @ @ @ @ @ @ X @ @ $ X X >.6.J.W.B.S % @ @ Z m.6 @ @ @ @ @ @ @ @ @ @ @ @ @ @ @ @ @ @ ",
"@ @ @ @ @ @ @ @ @ @ @ + r # @ @ @ @ @ @ @ % @ @ @ @ 2 _ F m 6.1.R.[.V.*.% @ @ p.{.x.@ @ @ @ @ @ @ @ @ @ @ @ @ @ @ @ @ @ ",
"@ @ @ @ @ @ @ @ @ @ @ @ % @ X @ @ @ @ @ @ & # @ @ @ @ Y Y.P.,.a.k.D.H A @ @ % d.n.m - o @ @ @ @ @ @ @ @ @ @ @ @ @ @ @ @ ",
"@ @ @ @ @ @ @ @ @ @ @ @ X % 4 X @ @ @ @ @ @ @ @ @ % N +.k.!.A.a.&.5 5 6 @ @ @ 5.&.@   : # @ @ @ @ @ @ @ @ @ @ @ @ @ @ @ ",
"@ @ @ @ @ @ @ @ @ @ @ @ @ @ + @ @ @ @ @ @ @ % S 2.i.f.4.=.G.].| o.8 M $ 2 @ @ d.V @ @ o : # @ @ @ @ @ @ @ @ @ @ @ @ @ @ ",
"@ @ @ @ @ @ @ @ @ @ @ @ @ @ @ @ @ @ @ @ @ 6 >.d.d.2.:.=.o.Q (.~.u...g.C.`.` +.>.C @ @ @ o : o @ @ @ @ @ @ @ @ @ @ @ @ @ ",
"@ @ @ @ @ @ @ @ @ @ @ @ @ @ @ @ @ @ @ @ @ -.5.2.&.V s 6 x Q H.Y.'.c.).'.P.j.=.A 6 @ @ @ @ o : # @ @ @ @ @ @ @ @ @ @ @ @ ",
"@ @ @ @ @ @ @ @ @ @ @ @ @ @ @ @ @ @ @ @ * 1.>.&.s @ @ % x g.] W K.!./.T.;.=.+.N @ @ @ @ @ @ o : X @ @ @ @ @ @ @ @ @ @ @ ",
"@ @ @ @ @ @ @ @ @ @ @ @ @ @ @ @ @ @ @ @ p b.i.B @ @ @ 6 #.g.} :.#.Z.' n s b s @ @ @ @ @ @ @ @ o : # @ @ @ @ @ @ @ @ @ @ ",
"@ @ @ @ @ @ @ @ @ @ @ @ @ @ @ @ @ @ @ @ n {.x.6 @ @ @ 7 1.l.{ -. .3 % @ @ @ @ @ @ @ @ @ @ @ @ @ # - # @ @ @ @ @ @ @ @ @ ",
"@ @ @ @ @ @ @ @ @ @ @ @ @ @ @ @ @ @ @ @ * m._.a @ @ @ s a.| W  .b # @ @ @ @ @ @ @ @ @ @ @ @ @ @ @ o o @ @ @ @ @ @ @ @ @ ",
"@ @ @ @ @ @ @ @ @ @ @ @ @ @ @ @ @ @ @ @ @ % $ # @ @ X s 2.E.J.{ ` G $ % @ @ @ @ @ @ @ @ @ @ @ @ @ @   @ @ @ @ @ @ @ @ @ ",
"@ @ @ @ @ @ @ @ @ @ @ @ @ @ @ @ @ @ @ @ @ @ @ @ @ @ * +.] /.I.Y./.^.[ S &.C * @ @ @ @ @ @ @ @ @ @ @ @ @ @ @ @ @ @ @ @ @ ",
"@ @ @ @ @ @ @ @ @ @ @ @ @ @ @ @ @ @ @ @ @ @ @ @ @ @ b s.| U.^.!.(.z.3.-.=.:.2.% @ @ @ @ @ @ @ @ @ @ @ @ @ @ @ @ @ @ @ @ ",
"@ @ @ @ @ @ @ @ @ @ @ @ @ @ @ @ @ @ @ @ @ @ @ @ @ * :.4.o.! ] y.[ H.D.~ &.O.! G @ @ @ @ @ @ @ @ @ @ @ @ @ @ @ @ @ @ @ @ ",
"@ @ @ @ @ @ @ @ @ @ @ @ @ @ @ @ @ @ @ @ @ @ @ @ 2 ;.<.$.y.A.u.@.$.&.! ] G.) S.B @ @ @ @ @ @ @ @ @ @ @ @ @ @ @ @ @ @ @ @ ",
"@ @ @ @ @ @ @ @ @ @ @ @ @ @ @ @ @ @ @ @ @ @ @ @ V.H.:.*.A.U.u.&.O.O.O.y.K.( *.=.* @ @ @ @ @ @ @ @ @ @ @ @ @ @ @ @ @ @ @ ",
"@ @ @ @ @ @ @ @ @ @ @ @ @ @ @ @ @ @ @ @ @ @ @ b ( K.F.G.L.Q.K.Z.! / S.Q A o.1.d.* @ @ @ @ @ @ @ @ @ @ @ @ @ @ @ @ @ @ @ ",
"@ @ @ @ @ @ @ @ @ @ @ @ @ @ @ @ @ @ @ @ @ @ -.4.$.W ' ( ~ / ( ( / ( / &.#.2.d.d.6 @ @ @ @ @ @ @ @ @ @ @ @ @ @ @ @ @ @ @ ",
"@ @ @ @ @ @ @ @ @ @ @ @ @ @ @ @ @ @ @ @ @ 6 s.s.5.1.o.o.o.@.o.o.O.O.o.=.=.d.2.>.* @ @ @ @ @ @ @ @ @ @ @ @ @ @ @ @ @ @ @ ",
"@ @ @ @ @ @ @ @ @ @ @ @ @ @ @ @ @ @ @ @ @ -.5.s.5.d.3.>.=.*.=.2.2.>.&.=.2.>.&.A % @ @ @ @ @ @ @ @ @ @ @ @ @ @ @ @ @ @ @ ",
"@ @ @ @ @ @ @ @ @ @ @ @ @ @ @ @ @ @ @ @ 6 5.s.5.3.5.d.2.=.=.>.d.2.=.>.3.=.A %.s @ @ @ @ @ @ @ @ @ @ @ @ @ @ @ @ @ @ @ @ ",
"@ @ @ @ @ @ @ @ @ @ @ @ @ @ @ @ @ @ @ @ -.5.5.5.3.3.2.*.&.>.5.2.=.=.&.&.%.A s % @ @ @ @ @ @ @ @ @ @ @ @ @ @ @ @ @ @ @ @ ",
"@ @ @ @ @ @ @ @ @ @ @ @ @ @ @ @ @ @ @ b s.s.2.>.>.>.=.=.2.3.>.&.%.&.%.%.V 6 @ X @ @ @ @ @ @ @ @ @ @ @ @ @ @ @ @ @ @ @ @ ",
"@ @ @ @ @ @ @ @ @ @ @ @ @ @ @ @ @ @ @ 3.3.3.>.>.3.d.d.2.=.=.%.%.&.&.%.s % @ @ @ @ @ @ @ @ @ @ @ @ @ @ @ @ @ @ @ @ @ @ @ ",
"@ @ @ @ @ @ @ @ @ @ @ @ @ @ @ @ @ @ -.5.d.d.d.5.5.>.>.&.%.+.&.%.s s 6 # @ @ @ @ @ @ @ @ @ @ @ @ @ @ @ @ @ @ @ @ @ @ @ @ ",
"@ @ @ @ @ @ @ @ @ @ @ @ @ @ @ @ @ b s.4.2.3.>.+.=.%.C C N s * * @ @ @ @ @ @ @ @ @ @ @ @ @ @ @ @ @ @ @ @ @ @ @ @ @ @ @ @ ",
"@ @ @ @ @ @ @ @ @ @ @ @ @ @ @ @ @ -.-.-.C C C C s 6 6 * @ X @ @ @ @ @ @ @ @ @ @ @ @ @ @ @ @ @ @ @ @ @ @ @ @ @ @ @ @ @ @ "
};
