/* XPM */
static char *result[] = {
/* columns rows colors chars-per-pixel */
"60 60 194 2 ",
"   c #170C0F",
".  c #1D080E",
"X  c #160F13",
"o  c #180A14",
"O  c #170F18",
"+  c #1A0D1D",
"@  c #111111",
"#  c #1C1115",
"$  c #1B1913",
"%  c #161519",
"&  c #1A141C",
"*  c #1B191E",
"=  c #2C0616",
"-  c #250C17",
";  c #2A0A16",
":  c #220A1D",
">  c #2C0B1A",
",  c #330D17",
"<  c #330C1D",
"1  c #3A0F1E",
"2  c #201017",
"3  c #241C18",
"4  c #30131D",
"5  c #29221E",
"6  c #302214",
"7  c #1E0C21",
"8  c #1F1020",
"9  c #1D1A23",
"0  c #1E1932",
"q  c #220C25",
"w  c #2D0A25",
"e  c #26072D",
"r  c #29072F",
"t  c #260A2A",
"y  c #2B0C2D",
"u  c #340A26",
"i  c #380D25",
"p  c #390A2F",
"a  c #221023",
"s  c #231E2D",
"d  c #281F28",
"f  c #3D1122",
"g  c #3D1229",
"h  c #3A1B2B",
"j  c #2A0731",
"k  c #2C0932",
"l  c #330C35",
"z  c #350A3A",
"x  c #3A0A3D",
"c  c #221E32",
"v  c #391736",
"b  c #262029",
"n  c #35232F",
"m  c #3E272D",
"M  c #37292F",
"N  c #3D292E",
"B  c #252233",
"V  c #292435",
"C  c #2A2837",
"Z  c #25253C",
"A  c #2D253C",
"S  c #2D2A3C",
"D  c #332734",
"F  c #3C2430",
"G  c #3F2B34",
"H  c #30273F",
"J  c #332A3E",
"K  c #3C2C3D",
"L  c #3D313E",
"P  c #540E1D",
"I  c #561019",
"U  c #781018",
"Y  c #54361E",
"T  c #6A3C19",
"R  c #480E3C",
"E  c #46163E",
"W  c #6B1D26",
"Q  c #43322D",
"!  c #412436",
"~  c #432934",
"^  c #4D2C35",
"/  c #422F3C",
"(  c #44333C",
")  c #5B3736",
"_  c #5B3936",
"`  c #6D232E",
"'  c #663C34",
"]  c #683F37",
"[  c #534116",
"{  c #735A18",
"}  c #7C472B",
"|  c #6A4439",
" . c #68483B",
".. c #7A4532",
"X. c #704939",
"o. c #79503F",
"O. c #1C1E44",
"+. c #191D50",
"@. c #3E0A41",
"#. c #262343",
"$. c #2C2642",
"%. c #2D2B44",
"&. c #25254D",
"*. c #26284B",
"=. c #2B2A4B",
"-. c #312740",
";. c #322A43",
":. c #3B2C41",
">. c #362F49",
",. c #382F4A",
"<. c #36314C",
"1. c #39334E",
"2. c #3E384E",
"3. c #2B2C55",
"4. c #322F56",
"5. c #2E3158",
"6. c #333253",
"7. c #3C3652",
"8. c #3F3A56",
"9. c #363659",
"0. c #37385A",
"q. c #3C3A59",
"w. c #430B44",
"e. c #45064C",
"r. c #450B48",
"t. c #4C0C4D",
"y. c #4B1746",
"u. c #4D134D",
"i. c #4F0C51",
"p. c #510C53",
"a. c #530B5A",
"s. c #413242",
"d. c #483349",
"f. c #573C49",
"g. c #423556",
"h. c #423A56",
"j. c #413C59",
"k. c #4B3B58",
"l. c #593C51",
"z. c #473F60",
"x. c #4A3F7C",
"c. c #4E4547",
"v. c #5C4643",
"b. c #58425C",
"n. c #664644",
"m. c #6C4745",
"M. c #674B48",
"N. c #764E45",
"B. c #6B5945",
"V. c #714758",
"C. c #4C4165",
"Z. c #594772",
"A. c #6E4F6A",
"S. c #794C6A",
"D. c #93242B",
"F. c #B82024",
"G. c #AB7B1C",
"H. c #87482C",
"J. c #944E2A",
"K. c #88502F",
"L. c #9D5129",
"P. c #845432",
"I. c #8B5831",
"U. c #945232",
"Y. c #905B31",
"T. c #9B5D37",
"R. c #A55426",
"E. c #A95625",
"W. c #A35729",
"Q. c #AA5B2B",
"!. c #BB5E22",
"~. c #936C26",
"^. c #9C692C",
"/. c #856730",
"(. c #9D6537",
"). c #AF6827",
"_. c #A2642D",
"`. c #B66425",
"'. c #B3622A",
"]. c #BB712B",
"[. c #A26834",
"{. c #B56D34",
"}. c #B77831",
"|. c #D6681A",
" X c #D8781F",
".X c #CC7425",
"XX c #C87B26",
"oX c #C37E2A",
"OX c #D47B24",
"+X c #885875",
"@X c #925B73",
"#X c #F9891E",
"$X c #D78A26",
"%X c #E88721",
/* pixels */
"@ @ @ @ @ @ @ @ @ @ @ @ @ @ @ @ @ @ @ @ @ @ @ @ @ @ @ @ @ @ @ @ @ @ @ @ @ @ @ @ @ @ @ @ @ @ @ @ @ @ @ @ @ @ @ @ @ @ @ @ ",
"@ @ @ @ @ @ @ @ @ @ @ @ @ @ @ @ @ @ @ @ @ @ @ @ @ @ @ @ @ @ @ @ @ @ @ @ @ @ @ @ @ @ @ @ @ @ @ @ @ @ @ @ @ @ @ @ @ @ @ @ ",
"@ @ @ @ @ @ @ @ @ @ @ @ @ @ @ @ @ @ @ @ @ @ @ @ @ @ @ @ @ @ @ @ @ @ @ @ @ @ @ @ @ @ @ @ @ @ @ @ @ @ @ @ @ @ @ @ @ @ @ @ ",
"@ @ @ @ @ @ @ @ @ @ @ @ @ @ @ @ @ @ @ @ @ @ @ @ @ @ @ @ @ @ @ @ @ @ @ @ @ @ @ @ @ @ @ @ @ @ @ @ @ @ @ @ @ @ @ @ @ @ @ @ ",
"@ @ @ @ @ @ @ @ @ @ @ @ @ @ @ @ @ @ @ @ @ @ @ @ @ @ @ @ @ @ @ @ @ @ @ @ @ @ @ @ @ @ @ @ @ @ @ @ @ @ @ @ @ @ @ @ @ @ @ @ ",
"@ @ @ @ @ @ @ @ @ @ @ @ @ @ @ @ @ @ @ @ @ @ @ @ @ @ @ @ @ @ @ @ @ @ @ @ @ @ @ @ @ @ @ @ @ @ @ @ @ @ @ @ @ @ @ @ @ @ @ @ ",
"@ @ @ @ @ @ @ @ @ @ @ @ @ @ @ @ @ @ @ @ @ @ @ @ @ @ @ @ @ @ @ @ @ @ @ @ @ @ @ @ @ @ @ @ @ @ @ @ @ @ @ @ @ @ @ @ @ @ @ @ ",
"@ @ @ @ @ @ @ @ @ @ @ @ @ @ @ @ @ @ @ @ @ @ @ @ @ @ @ @ @ @ @ @ @ @ @ @ @ @ @ @ @ @ @ @ @ @ @ @ @ @ @ @ @ @ @ @ @ @ @ @ ",
"@ @ @ @ @ @ @ @ @ @ @ @ @ @ @ @ @ @ @ @ @ @ @ @ @ @ @ @ @ @ @ @ @ @ @ @ @ @ @ @ @ @ @ @ @ @ @ @ @ @ @ @ @ @ @ @ @ @ @ @ ",
"@ @ @ @ @ @ @ @ @ @ @ @ @ @ @ @ @ @ @ @ @ @ @ @ @ @ @ @ @ @ @ @ @ @ @ @ @ @ @ @ @ @ @ @ @ @ @ @ @ @ @ @ @ @ @ @ @ @ @ @ ",
"@ @ @ @ @ @ @ @ @ @ @ @ @ @ @ @ @ @ @ @ @ @ @ @ @ @ @ @ @ @ @ @ @ @ @ @ @ @ @ @ @ @ @ @ @ @ @ @ @ @ @ @ @ @ @ @ @ @ @ @ ",
"@ @ @ @ @ @ @ @ @ @ @ @ @ @ @ @ @ @ @ @ @ @ # % @ o @ @ @ @ @ @ @ @ @ @ @ @ @ @ @ @ @ @ @ @ @ @ @ @ @ @ @ @ @ @ @ @ @ @ ",
"@ @ @ @ @ @ @ @ @ @ @ @ @ @ @ @ @ @ @ @ X & 4 h v k y t O O @ @ @ @ @ @ @ @ @ @ @ @ @ @ @ @ @ @ @ @ @ @ @ @ @ @ @ @ @ @ ",
"@ @ @ @ @ @ @ @ @ @ @ @ @ @ @ @ @ @ @ @ & y > g ~ N N v @.e 7 o @ @ @ @ @ @ @ @ @ @ @ @ @ @ @ @ @ @ @ @ @ @ @ @ @ @ @ @ ",
"@ @ @ @ @ @ @ @ @ @ @ @ @ @ @ @ @ @ X 7 e e > ; y v F ! y.@.e 7 @ @ @ @ @ @ @ @ @ @ @ @ @ @ @ @ @ @ @ @ @ @ @ @ @ @ @ @ ",
"@ @ @ @ @ @ @ @ @ @ @ @ @ @ @ @ @ @ 7 e j e u , u e.u.F G i.@.j 7 @ @ @ @ @ @ @ @ @ @ @ @ @ @ @ @ @ @ @ @ @ @ @ @ @ @ @ ",
"@ @ @ @ @ @ @ @ @ @ @ @ @ @ @ @ @ y e e r e w 1 i R t.! m E a.z e 7 @ @ @ @ @ @ @ @ @ @ @ @ @ @ @ @ @ @ @ @ @ @ @ @ @ @ ",
"@ @ @ @ @ @ @ @ @ @ @ @ @ @ @ @ % z z e e j x i 1 1 g f f i R k e e @ @ @ @ @ @ @ @ @ @ @ @ @ @ @ @ @ @ @ @ @ @ @ @ @ @ ",
"@ @ @ @ @ @ @ @ @ @ @ @ @ @ @ @ 2 t.x e e x i.r.< , , = > < 1 i j 7 @ @ @ @ @ @ @ @ @ @ @ @ @ @ @ @ @ @ @ @ @ @ @ @ @ @ ",
"@ @ @ @ @ @ @ @ @ @ @ @ @ @ @ @ a r.r e x i.i.i.w.p = ; = = ; < u 7 @ @ @ @ @ @ @ @ @ @ @ @ @ @ @ @ @ @ @ @ @ @ @ @ @ @ ",
"@ @ @ @ @ @ @ @ @ @ @ @ @ @ @ @ a t.r e w.p.t.i.i.i.r.n W U o ; P 7 @ @ @ @ @ @ @ @ @ @ @ @ @ @ @ @ @ @ @ @ @ @ @ @ @ @ ",
"@ @ @ @ @ @ @ @ @ @ @ @ @ @ @ @ a r.j e @.p.i.t.t.i.i.G ^ D.F.I : 7 @ @ @ @ @ @ @ @ @ @ @ @ @ @ @ @ @ @ @ @ @ @ @ @ @ @ ",
"@ @ @ @ @ @ @ @ @ @ @ @ @ @ @ @ a z e e @.p.i.t.i.i.i.w.F ~ ` P w % @ @ @ @ @ @ @ @ @ @ @ @ @ @ @ @ @ @ @ @ @ @ @ @ @ @ ",
"@ @ @ @ @ @ @ @ @ @ @ @ @ @ @ @ % e e e z i.i.i.p.@.j j k k t e < # @ @ @ @ @ @ @ @ @ @ @ @ @ @ @ @ @ @ @ @ @ @ @ @ @ @ ",
"@ @ @ @ @ @ @ @ @ @ @ @ @ @ @ @ X q z e r.p.t.r.z r r r r r r r : ; # @ @ @ @ @ @ @ @ @ @ @ @ @ @ @ @ @ @ @ @ @ @ @ @ @ ",
"@ @ @ @ @ @ @ @ @ @ @ @ @ @ @ @ + @.@.x w.x j e e j k r r r r r O @ ; 2 @ @ @ @ @ @ @ @ @ @ @ @ @ @ @ @ @ @ @ @ @ @ @ @ ",
"@ @ @ @ @ @ @ @ @ @ @ @ @ @ @ @ O z r.z k e e r l e.r.x r r y O @ @ X ; 2 @ @ @ @ @ @ @ @ @ @ @ @ @ @ @ @ @ @ @ @ @ @ @ ",
"@ @ @ @ @ @ @ @ @   % % @ @ @ @ % y x e j j e @.i.i.r.t x r + @ @ @ @ X ; 2 @ @ @ @ @ @ @ @ @ @ @ @ @ @ @ @ @ @ @ @ @ @ ",
"@ @ @ @ @ @ @ @ @ @ l & @ @ @ @ % z R t t t k w.r.x & % r.7 @ @ @ @ @ @ @ ; 2 @ @ @ @ @ @ @ @ @ @ @ @ @ @ @ @ @ @ @ @ @ ",
"@ @ @ @ @ @ l O @ a y @ @ @ @ @ X l z + 7 t q & 8 X @ k y   @ @ @ $ @ % @ # ; # @ @ @ @ @ @ @ @ @ @ @ @ @ @ @ @ @ @ @ @ ",
"@ @ @ @ @ q l O @ 7 @ @ @ @ @ @ % l 7 O t t @ @ @ @ @ j X @ @ % 2.;.C C * @   ;   @ @ @ @ @ @ @ @ @ @ @ @ @ @ @ @ @ @ @ ",
"@ @ @ @ @ r O @ @ @ @ @ @ @ @ X l t X + q @ @ @ @ @ @ O @ @ @ 9 Z.C.h.h.;.@     . 5 @ @ @ @ @ @ @ @ @ @ @ @ @ @ @ @ @ @ ",
"@ @ @ @ @ @ @ @ @ @ @ @ @ @ @ q k @ @ @ @ @ @ @ @ @ @ @ $ @ % g.C.v.'.U.L @ @ @ 5 S./ @ @ @ @ @ @ @ @ @ @ @ @ @ @ @ @ @ ",
"@ @ @ @ @ @ @ @ @ @ @ @ @ @ @ + @ @ @ @ @ @ @ @ @ @ @ @ { [ Q x.q.X.#X XL @ @ @ J +X@X3 @ @ @ @ @ @ @ @ @ @ @ @ @ @ @ @ ",
"@ @ @ @ @ @ @ @ @ @ @ @ @ @ @ @ @ @ @ @ @ @ @ @ @ @ @ @ b ^.`.k.*.V.} P.%.@ @ b 6.A.( > # @ @ @ @ @ @ @ @ @ @ @ @ @ @ @ ",
"@ @ @ @ @ @ @ @ @ @ @ @ @ @ @ @ @ @ @ @ @ @ @ @ @ @ @ % B b.'.).d.g.0 Z 3 @ @ 0 j.j.* # ; - @ @ @ @ @ @ @ @ @ @ @ @ @ @ ",
"@ @ @ @ @ @ @ @ @ @ @ @ @ @ @ @ @ @ @ @ @ @ @ @ @ 9 ,.1.z.3.] OX{.Z O.D 3 $ $ S j.;.% @ X ; 2 @ @ @ @ @ @ @ @ @ @ @ @ @ ",
"@ @ @ @ @ @ @ @ @ @ @ @ @ @ @ @ @ @ @ @ @ @ @ @ S 7.j.7.,.$.$.Q.%X .+.;.~.G.~.c.9.b @ @ @ # ; # @ @ @ @ @ @ @ @ @ @ @ @ ",
"@ @ @ @ @ @ @ @ @ @ @ O + @ @ O + @ @ @ @ @ @ C 8.>.;.C & B #.K.I.$X[.B.}.}.M.2.$.9 @ @ @ @ # > 2 @ @ @ @ @ @ @ @ @ @ @ ",
"@ @ @ @ @ @ @ @ @ @ @ @ @ @ @ @ @ @ @ @ @ @ 9 %.;.C 9 % @ s >.J.H K..XXXXX .&.%.A 9 @ @ @ @ @ X ; 2 @ @ @ @ @ @ @ @ @ @ ",
"@ @ @ @ @ @ @ @ @ @ @ @ @ @ @ @ @ @ @ @ @ @ d.l.H & @ @ % %.m.H.#.A _ J.M c s b % X @ @ @ @ @ @ @ ; # @ @ @ @ @ @ @ @ @ ",
"@ @ @ @ @ @ @ @ @ @ @ @ @ @ @ @ @ @ @ @ @ * +X+X:.% @ @ % 6.N._ #.A d % @ @ @ @ @ @ @ @ @ @ @ @ @   ; 2 @ @ @ @ @ @ @ @ ",
"@ @ @ @ @ @ @ @ @ @ @ @ @ @ @ @ @ @ @ @ @ @ l.@XG % @ @ % 6.N._ O.A $ @ @ @ @ @ @ @ @ @ @ @ @ @ @ @   - 2 @ @ @ @ @ @ @ ",
"@ @ @ @ @ @ @ @ @ @ @ @ @ @ @ @ @ @ @ @ @ @ @ 3 @ @ @ @ 3 ( N.P.( /.Y 6 @ % @ @ @ @ @ @ @ @ @ @ @ @ @ @ # @ @ @ @ @ @ @ ",
"@ @ @ @ @ @ @ @ @ @ @ @ @ @ @ @ @ @ @ @ @ @ @ @ @ @ @ @ Z s.].oXY.$X]._.L Z * % @ @ @ @ @ @ @ @ @ @ @ @ @ @ @ @ @ @ @ @ ",
"@ @ @ @ @ @ @ @ @ @ @ @ @ @ @ @ @ @ @ @ @ @ @ @ @ @ @ * 9.n._..XOXOX(.5.4.,.1.;.% @ @ @ @ @ @ @ @ @ @ @ @ @ @ @ @ @ @ @ ",
"@ @ @ @ @ @ @ @ @ @ @ @ @ @ @ @ @ @ @ @ @ @ @ @ @ @ @ S j.*.:.K.[.(.T.n.:.Z $.K d @ @ @ @ @ @ @ @ @ @ @ @ @ @ @ @ @ @ @ ",
"@ @ @ @ @ @ @ @ @ @ @ @ @ @ @ @ @ @ @ @ @ @ @ @ @ @ Q 9.7.*.| ..+.*. .!...K ( ..G @ @ @ @ @ @ @ @ @ @ @ @ @ @ @ @ @ @ @ ",
"@ @ @ @ @ @ @ @ @ @ @ @ @ @ @ @ @ @ @ @ @ @ @ @ @ T o.q.4.8.U.f.&.O.+.K W.E.} ) V % @ @ @ @ @ @ @ @ @ @ @ @ @ @ @ @ @ @ ",
"@ @ @ @ @ @ @ @ @ @ @ @ @ @ @ @ @ @ @ @ @ @ @ @ B H.!.U.M.T.|.Q.m.' ' H.L.| K =.;.% @ @ @ @ @ @ @ @ @ @ @ @ @ @ @ @ @ @ ",
"@ @ @ @ @ @ @ @ @ @ @ @ @ @ @ @ @ @ @ @ @ @ @ 9 0.1.J.E.R.E.R.R.E.R.E.E.' O.=.h.<.% @ @ @ @ @ @ @ @ @ @ @ @ @ @ @ @ @ @ ",
"@ @ @ @ @ @ @ @ @ @ @ @ @ @ @ @ @ @ @ @ @ @ B 2.j.0.h.s./ :.K K / K / K #.>.j.j.%.% @ @ @ @ @ @ @ @ @ @ @ @ @ @ @ @ @ @ ",
"@ @ @ @ @ @ @ @ @ @ @ @ @ @ @ @ @ @ @ @ @ C 8.q.h.j.q.9.6.6.#.=.=.=.#.$.1.h.7.>.B % X @ @ @ @ @ @ @ @ @ @ @ @ @ @ @ @ @ ",
"@ @ @ @ @ @ @ @ @ @ @ @ @ @ @ @ @ @ @ @ C q.8.8.8.j.q.7.1.1.>.h.h.>.>.>.9.<.H H s @ @ @ @ @ @ @ @ @ @ @ @ @ @ @ @ @ @ @ ",
"@ @ @ @ @ @ @ @ @ @ @ @ @ @ @ @ @ @ @ C 8.8.8.8.j.q.j.7.>.>.1.h.9.;.,.>.;.-.H -.9 @ @ @ @ @ @ @ @ @ @ @ @ @ @ @ @ @ @ @ ",
"@ @ @ @ @ @ @ @ @ @ @ @ @ @ @ @ @ @ * <.j.8.j.j.7.7.1.-.>.1.j.1.;.;.-.-.-.A A s @ @ @ @ @ @ @ @ @ @ @ @ @ @ @ @ @ @ @ @ ",
"@ @ @ @ @ @ @ @ @ @ @ @ @ @ @ @ @ @ C 8.j.8.1.<.<.1.7.7.8.1.>.;.H ;.-.-.-.C & @ @ @ @ @ @ @ @ @ @ @ @ @ @ @ @ @ @ @ @ @ ",
"@ @ @ @ @ @ @ @ @ @ @ @ @ @ @ @ @ * 2.8.8.j.8.8.8.j.7.1.;.-.$.;.-.-.;.H B & @ @ @ @ @ @ @ @ @ @ @ @ @ @ @ @ @ @ @ @ @ @ ",
"@ @ @ @ @ @ @ @ @ @ @ @ @ @ @ @ @ C q.j.j.7.7.7.>.>.;.H -.-.;.H V B 9 % @ @ @ @ @ @ @ @ @ @ @ @ @ @ @ @ @ @ @ @ @ @ @ @ ",
"@ @ @ @ @ @ @ @ @ @ @ @ @ @ @ @ % C 8.>.;.H S S A H A 9 9 9 9 * @ @ @   @ @ @ @ @ @ @ @ @ @ @ @ @ @ @ @ @ @ @ @ @ @ @ @ "
};
