/* XPM */
static char *result[] = {
/* columns rows colors chars-per-pixel */
"60 60 172 2 ",
"   c #040019",
".  c #1D0711",
"X  c #150F16",
"o  c #170F18",
"O  c #1B0819",
"+  c #1A0D1D",
"@  c #111111",
"#  c #1A1513",
"$  c #171419",
"%  c #1B141C",
"&  c #1C181C",
"*  c #240A15",
"=  c #2B0B15",
"-  c #28051B",
";  c #2F0B1B",
":  c #310A16",
">  c #330C1C",
",  c #380D1F",
"<  c #211017",
"1  c #281B1D",
"2  c #392316",
"3  c #1E0B21",
"4  c #151624",
"5  c #191721",
"6  c #1D1A23",
"7  c #111029",
"8  c #1A0331",
"9  c #190832",
"0  c #1B1C32",
"q  c #210B25",
"w  c #26072C",
"e  c #250A2A",
"r  c #2B0B2C",
"t  c #3C0E2C",
"y  c #231023",
"u  c #2D1526",
"i  c #291E20",
"p  c #211E2A",
"a  c #341123",
"s  c #3C1423",
"d  c #34152E",
"f  c #3C142C",
"g  c #2C0633",
"h  c #220A31",
"j  c #300637",
"k  c #320A36",
"l  c #3C0A36",
"z  c #37073D",
"x  c #3C073F",
"c  c #350939",
"v  c #3A0A3D",
"b  c #201E31",
"n  c #2D1A38",
"m  c #311330",
"M  c #3D1936",
"N  c #23212D",
"B  c #262635",
"V  c #292235",
"C  c #2C253C",
"Z  c #2A293B",
"A  c #302631",
"S  c #3E2630",
"D  c #302834",
"F  c #30263E",
"G  c #31293D",
"H  c #3D3438",
"J  c #44102F",
"K  c #511321",
"L  c #440F34",
"P  c #482D27",
"I  c #4F272F",
"U  c #412B2F",
"Y  c #543428",
"T  c #442938",
"R  c #502E3D",
"E  c #49333D",
"W  c #5B3937",
"Q  c #5D3E38",
"!  c #6B3227",
"~  c #652837",
"^  c #633C34",
"/  c #7F4122",
"(  c #604034",
")  c #614139",
"_  c #6D4A39",
"`  c #704134",
"'  c #7E4E3D",
"]  c #3D0A41",
"[  c #1E2652",
"{  c #232244",
"}  c #2F2742",
"|  c #252845",
" . c #24284F",
".. c #302740",
"X. c #322A43",
"o. c #322D4A",
"O. c #3C2D4B",
"+. c #353147",
"@. c #35334B",
"#. c #3A334E",
"$. c #242A54",
"%. c #302F53",
"&. c #2C335E",
"*. c #353454",
"=. c #3B3652",
"-. c #3F3A57",
";. c #37375B",
":. c #3D3A58",
">. c #430743",
",. c #420B44",
"<. c #460B4A",
"1. c #4B0C4D",
"2. c #4E134C",
"3. c #50114F",
"4. c #4E0C51",
"5. c #510C53",
"6. c #530B59",
"7. c #412D4C",
"8. c #473140",
"9. c #493540",
"0. c #4B3949",
"q. c #5F3D4B",
"w. c #403B57",
"e. c #483A52",
"r. c #413C59",
"t. c #6A3949",
"y. c #613251",
"u. c #613F58",
"i. c #47445F",
"p. c #554550",
"a. c #5C425E",
"s. c #765043",
"d. c #604B5F",
"f. c #73495C",
"g. c #4C4066",
"h. c #534269",
"j. c #664B6C",
"k. c #7C4763",
"l. c #BF2A28",
"z. c #984B1B",
"x. c #AF661F",
"c. c #8A4C2B",
"v. c #8F542E",
"b. c #94572E",
"n. c #995029",
"m. c #9A5B2B",
"M. c #824E31",
"N. c #844D3A",
"B. c #985A38",
"V. c #A55526",
"C. c #A45F29",
"Z. c #B05E27",
"A. c #BC5C21",
"S. c #9F6B3C",
"D. c #9C793D",
"F. c #A8612C",
"G. c #B46525",
"H. c #B76C27",
"J. c #A17935",
"K. c #C66617",
"L. c #EE7C1A",
"P. c #C56623",
"I. c #D87C23",
"U. c #825A40",
"Y. c #9D574C",
"T. c #824762",
"R. c #8C566A",
"E. c #905D77",
"W. c #D68A27",
"Q. c #D69426",
"!. c #A66A8D",
"~. c #AC74A5",
/* pixels */
"@ @ @ @ @ @ @ @ @ @ @ @ @ @ @ @ @ @ @ @ @ @ @ @ @ @ @ @ @ @ @ @ @ @ @ @ @ @ @ @ @ @ @ @ @ @ @ @ @ @ @ @ @ @ @ @ @ @ @ @ ",
"@ @ @ @ @ @ @ @ @ @ @ @ @ @ @ @ @ @ @ @ @ @ @ @ @ @ @ @ @ @ @ @ @ @ @ @ @ @ @ @ @ @ @ @ @ @ @ @ @ @ @ @ @ @ @ @ @ @ @ @ ",
"@ @ @ @ @ @ @ @ @ @ @ @ @ @ @ @ @ @ @ @ @ @ @ @ @ @ @ @ @ @ @ @ @ @ @ @ @ @ @ @ @ @ @ @ @ @ @ @ @ @ @ @ @ @ @ @ @ @ @ @ ",
"@ @ @ @ @ @ @ @ @ @ @ @ @ @ @ @ @ @ @ @ @ @ @ @ @ @ @ @ @ @ @ @ @ @ @ @ @ @ @ @ @ @ @ @ @ @ @ @ @ @ @ @ @ @ @ @ @ @ @ @ ",
"@ @ @ @ @ @ @ @ @ @ @ @ @ @ @ @ @ @ @ @ @ @ @ @ @ @ @ @ @ @ @ @ @ @ @ @ @ @ @ @ @ @ @ @ @ @ @ @ @ @ @ @ @ @ @ @ @ @ @ @ ",
"@ @ @ @ @ @ @ @ @ @ @ @ @ @ @ @ @ @ @ @ @ @ @ @ @ @ @ @ @ @ @ @ @ @ @ @ @ @ @ @ @ @ @ @ @ @ @ @ @ @ @ @ @ @ @ @ @ @ @ @ ",
"@ @ @ @ @ @ @ @ @ @ @ @ @ @ @ @ @ @ @ @ @ @ @ @ @ @ @ @ @ @ @ @ @ @ @ @ @ @ @ @ @ @ @ @ @ @ @ @ @ @ @ @ @ @ @ @ @ @ @ @ ",
"@ @ @ @ @ @ @ @ @ @ @ @ @ @ @ @ @ @ @ @ @ @ @ @ @ @ @ @ @ @ @ @ @ @ @ @ @ @ @ @ @ @ @ @ @ @ @ @ @ @ @ @ @ @ @ @ @ @ @ @ ",
"@ @ @ @ @ @ @ @ @ @ @ @ @ @ @ @ @ @ @ @ @ @ @ @ @ @ @ @ @ @ @ @ @ @ @ @ @ @ @ @ @ @ @ @ @ @ @ @ @ @ @ @ @ @ @ @ @ @ @ @ ",
"@ @ @ @ @ @ @ @ @ @ @ @ @ @ @ @ @ @ @ @ @ @ @ @ @ @ @ @ @ @ @ @ @ @ @ @ @ @ @ @ @ @ @ @ @ @ @ @ @ @ @ @ @ @ @ @ @ @ @ @ ",
"@ @ @ @ @ @ @ @ @ @ @ @ @ @ @ @ @ @ @ @ @ @ @ @ @ @ @ @ @ @ @ @ @ @ @ @ @ @ @ @ @ @ @ @ @ @ @ @ @ @ @ @ @ @ @ @ @ @ @ @ ",
"@ @ @ @ @ @ @ @ @ @ @ @ @ @ @ @ @ @ @ @ @ @ @ @ @ @ @ @ @ @ @ @ @ @ @ @ @ @ @ @ @ @ @ @ @ @ @ @ @ @ @ @ @ @ @ @ @ @ @ @ ",
"@ @ @ @ @ @ @ @ @ @ @ @ @ @ @ @ @ @ @ @ @ @ @ @ @ @ @ @ @ @ @ @ @ @ @ @ @ @ @ @ @ @ @ @ @ @ @ @ @ @ @ @ @ @ @ @ @ @ @ @ ",
"@ @ @ @ @ @ @ @ @ @ @ @ @ @ @ @ @ @ @ @ @ @ @ @ @ @ @ @ @ @ @ @ @ @ @ @ @ @ @ @ @ @ @ @ @ @ @ @ @ @ @ @ @ @ @ @ @ @ @ @ ",
"@ @ @ @ @ @ @ @ @ @ @ @ @ @ @ @ @ @ @ @ @ @ @ @ @ @ @ @ @ @ @ @ @ @ @ @ @ @ @ @ @ @ @ @ @ @ @ @ @ @ @ @ @ @ @ @ @ @ @ @ ",
"@ @ @ @ @ @ @ @ @ @ @ @ @ @ @ @ @ @ @ @ @ @ @ @ @ @ @ @ @ @ @ @ @ @ @ @ @ @ @ @ @ @ @ @ @ @ @ @ @ @ @ @ @ @ @ @ @ @ @ @ ",
"@ @ @ @ @ @ @ @ @ @ @ @ @ @ @ @ @ @ @ @ @ @ @ @ @ @ @ @ @ @ @ @ @ @ @ @ @ @ @ @ @ @ @ @ @ @ @ @ @ @ @ @ @ @ @ @ @ @ @ @ ",
"@ @ @ @ @ @ @ @ @ @ @ @ @ @ @ @ @ @ @ @ @ @ @ @ @ @ @ @ @ @ @ @ @ @ @ @ @ @ @ @ @ @ @ @ @ @ @ @ @ @ @ @ @ @ @ @ @ @ @ @ ",
"@ @ @ @ @ @ @ @ @ @ @ @ @ @ @ @ @ @ @ @ @ @ @ @ @ @ @ @ @ @ @ @ @ @ @ @ @ @ @ @ @ @ @ @ @ @ @ @ @ @ @ @ @ @ @ @ @ @ @ @ ",
"@ @ @ @ @ @ @ @ @ @ @ @ @ @ @ @ @ @ @ @ @ @ @ @ @ @ @ @ @ @ @ @ @ @ @ @ @ @ @ @ @ @ @ @ @ @ @ @ @ @ @ @ @ @ @ @ @ @ @ @ ",
"@ @ @ @ @ @ @ @ @ @ @ @ @ @ @ @ @ @ @ @ @ @ @ @ @ @ @ @ @ @ @ @ @ @ @ @ @ @ @ @ @ @ @ @ @ @ @ @ @ @ @ @ @ @ @ @ @ @ @ @ ",
"@ @ @ @ @ @ @ @ @ @ @ @ @ @ @ @ @ @ @ @ @ @ @ @ @ @ @ @ @ @ @ @ @ @ @ @ @ @ @ @ @ @ + 3 3 @ @ @ @ @ @ @ @ @ @ @ @ @ @ @ ",
"@ @ @ @ @ @ @ @ @ @ @ @ @ @ @ @ @ @ @ @ @ @ @ @ @ @ @ @ @ @ @ @ @ @ @ @ @ @ @ @ @ @ X X e X @ @ @ @ @ @ @ @ @ @ @ @ @ @ ",
"@ @ @ @ @ @ @ @ @ @ @ @ @ @ @ @ @ @ @ @ @ @ @ @ @ @ @ @ @ @ @ @ @ @ @ @ @ @ @ @ @ @ @ @ @ X @ @ @ @ @ @ @ @ @ @ @ @ @ @ ",
"@ @ @ @ @ @ @ @ @ @ @ @ @ @ @ @ @ @ @ @ @ @ @ @ @ @ @ @ @ @ @ @ @ @ @ @ @ @ @ o # X @ @ @ @ @ @ @ @ @ @ @ @ @ @ @ @ @ @ ",
"@ @ @ @ @ @ @ @ @ @ @ @ @ @ @ @ @ @ @ @ @ @ @ @ @ @ @ @ @ @ @ @ @ @ @ @ @ @ + < w o @ @ @ @ @ @ @ @ @ @ @ @ @ @ @ @ @ @ ",
"@ @ @ @ @ @ @ @ @ @ @ @ @ @ @ @ @ @ @ @ @ @ @ @ @ @ @ @ @ @ @ @ @ @ @ @ @ @ @ @ o w o @ @ @ @ @ @ @ @ @ @ @ @ @ @ @ @ @ ",
"@ @ @ @ @ @ @ @ @ @ @ @ @ @ @ @ @ @ @ @ @ @ @ @ @ @ @ @ @ @ @ @ @ @ @ @ @ @ @ @ X o @ @ @ % q $ @ @ @ @ @ @ @ @ @ @ @ @ ",
"@ @ @ @ @ @ @ @ @ @ @ @ @ @ @ @ @ @ @ @ @ @ @ $ 6 & @ @ @ @ @ @ @ @ @ @ @ @ @ @ @ @ @ @ y 4.] + @ @ @ @ @ @ @ @ @ @ @ @ ",
"@ @ @ @ @ @ @ @ @ @ @ @ @ @ @ @ @ @ @ @ @ @ 6 g.h.h.6 @ @ @ @ @ e + $ @ @ @ @ # @ @ @ @ 4.] X + @ @ @ @ @ @ @ @ @ @ @ @ ",
"@ @ @ @ @ @ @ @ @ @ @ @ @ @ @ @ @ @ @ @ @ @ r.:.:.h.h.@ @ X + ,.,.1.<.v X o ] <.k e @ + 4.g @ o o @ @ @ @ @ @ @ @ @ @ @ ",
"@ @ @ @ @ @ @ @ @ @ @ @ @ @ @ @ @ @ @ @ @ $ | / N.:.h.6 @ 3 ] 4.5.<.1.4.e e ] k ,.5.k 3 <.+ X X 3 X @ @ @ @ @ @ @ @ @ @ ",
"@ @ @ @ @ @ @ @ @ @ @ @ @ @ @ @ @ @ @ @ @ N 7 z.L.r.g.w.3 ] 4.1.4.<.<.5.c <.x o q ] v k k o w @ @ X @ @ @ @ @ @ @ @ @ @ ",
"@ @ @ @ @ @ @ @ @ @ @ @ @ @ @ @ @ @ @ @ @ H   x.x.C i.7.O z M g j 5.1.1.,.4.j @ X + k k o X 3 o @ @ @ @ @ @ @ @ @ @ @ @ ",
"@ @ @ @ @ @ @ @ @ @ @ @ @ @ @ @ @ @ @ @ # J.% 1 u.0.^ j ] r U M d >.5.1.5.<.+ @ @ @ @ X @ @ o X @ @ @ @ @ @ @ @ @ @ @ @ ",
"@ @ @ @ @ @ @ @ @ @ @ @ @ @ @ @ @ @ @ @ # Q._ [ d.7.r e f U u m R t 5.1.<.] + @ @ @ @ @ @ @ @ @ @ @ @ @ @ @ @ @ @ @ @ @ ",
"@ @ @ @ @ @ @ @ @ @ @ @ @ @ @ @ @ @ @ @ @ W.D.S.W.r - * * s x x a s 2.1.<.k + X @ @ @ @ @ @ @ @ @ @ @ @ @ @ @ @ @ @ @ @ ",
"@ @ @ @ @ @ @ @ @ @ @ @ @ @ @ @ @ @ @ @ 0 G.K.A.I.r * > : : J J : a T 1.5.r X @ @ @ @ @ @ @ @ @ @ @ @ @ @ @ @ @ @ @ @ @ ",
"@ @ @ @ @ @ @ @ @ @ @ @ @ @ @ @ @ @ @ B -.( Y.a.T , . K l.d = , L ,.3.2.5.r # @ @ @ @ @ @ @ @ @ @ @ @ @ @ @ @ @ @ @ @ @ ",
"@ @ @ @ @ @ @ @ @ @ @ @ @ @ @ @ @ @ N -.+.O.~.y.- > ; u ~ 1.l t 6.] z v 6.q @ @ @ @ @ @ @ @ @ @ @ @ @ @ @ @ @ @ @ @ @ @ ",
"@ @ @ @ @ @ @ @ @ @ @ @ @ @ @ @ @ $ @.+.C f.E.k.t.n j 3.<.4.1.4.,.g g w <.X @ @ @ @ @ @ @ @ @ @ @ @ @ @ @ @ @ @ @ @ @ @ ",
"@ @ @ @ @ @ @ @ @ @ @ @ @ @ @ @ & @.j.f ; * 1 q.R.X.d >.5.5.x g 8 3 + + + @ @ @ @ @ @ @ @ @ @ @ @ @ @ @ @ @ @ @ @ @ @ @ ",
"@ @ @ @ @ @ @ @ @ @ @ @ @ @ @ @ & 7.!.* X @ @ @ 1 A C.9 >.>.8 r ! $ @ @ @ @ @ @ @ @ @ @ @ @ @ @ @ @ @ @ @ @ @ @ @ @ @ @ ",
"@ @ @ @ @ @ @ @ @ @ @ @ @ @ @ @ = T.f.@ @ @ @ @ @ @ c.O.h 9 I v.M.Z @ @ @ @ @ @ @ @ @ @ @ @ @ @ @ @ @ @ @ @ @ @ @ @ @ @ ",
"@ @ @ @ @ @ @ @ @ @ @ @ @ < ; ; $ a.G $ @ @ @ @ @ @ 2 c.9.S.I.E ;.:.6 X @ @ @ @ @ @ @ @ @ @ @ @ @ @ @ @ @ @ @ @ @ @ @ @ ",
"@ @ @ @ @ @ @ @ @ @ @ # : = # @ @ B X.$ @ @ @ @ @ @ @ i P.P.E *.w.-.-.@ @ @ @ @ @ @ @ @ @ @ @ @ @ @ @ @ @ @ @ @ @ @ @ @ ",
"@ @ @ @ @ @ @ @ @ @ @ @ * @ @ @ @ @ $ @ @ @ @ @ @ @ @ 4 P.b.8.:.=.:.=.$ @ @ @ @ @ @ @ @ @ @ @ @ @ @ @ @ @ @ @ @ @ @ @ @ ",
"@ @ @ @ @ @ @ @ @ @ @ @ @ @ @ @ @ @ @ @ @ @ @ @ @ @ @ 4 A.Z.v.%.r.:.:.Z @ @ @ @ @ @ @ @ @ @ @ @ @ @ @ @ @ @ @ @ @ @ @ @ ",
"@ @ @ @ @ @ @ @ @ @ @ @ @ @ @ @ @ @ @ @ @ @ @ @ @ @ @ & V.E W v.$.:.e.Y # X @ @ @ @ @ @ @ @ @ @ @ @ @ @ @ @ @ @ @ @ @ @ ",
"@ @ @ @ @ @ @ @ @ @ @ @ @ @ @ @ @ @ @ @ @ @ @ @ @ @ @ @ S ` o.H.^ U.' D @ 6 $ @ @ @ @ @ @ @ @ @ @ @ @ @ @ @ @ @ @ @ @ @ ",
"@ @ @ @ @ @ @ @ @ @ @ @ @ @ @ @ @ @ @ @ @ @ @ @ @ @ @ @ b _ *.m.B.p.:.Z V ..C 5 @ @ @ @ @ @ @ @ @ @ @ @ @ @ @ @ @ @ @ @ ",
"@ @ @ @ @ @ @ @ @ @ @ @ @ @ @ @ @ @ @ @ @ @ @ @ @ @ @ @ 0 V. .Q s.&.:.=.C X.X.C @ @ @ @ @ @ @ @ @ @ @ @ @ @ @ @ @ @ @ @ ",
"@ @ @ @ @ @ @ @ @ @ @ @ @ @ @ @ @ @ @ @ @ @ @ @ @ @ @ @ 0 n.) F.&.r.w.:.#.......V @ @ @ @ @ @ @ @ @ @ @ @ @ @ @ @ @ @ @ ",
"@ @ @ @ @ @ @ @ @ @ @ @ @ @ @ @ @ @ @ @ @ @ @ @ @ @ @ @ P V.' 8.r.r.=.r.w.F X.F p @ @ @ @ @ @ @ @ @ @ @ @ @ @ @ @ @ @ @ ",
"@ @ @ @ @ @ @ @ @ @ @ @ @ @ @ @ @ @ @ @ @ @ @ @ @ @ @ @ 2 ^ { } :.:.r.r.:.#.F $ @ @ @ @ @ @ @ @ @ @ @ @ @ @ @ @ @ @ @ @ ",
"@ @ @ @ @ @ @ @ @ @ @ @ @ @ @ @ @ @ @ @ @ @ @ @ @ @ @ @ @ # B C @.r.=.w.w.:.p @ @ @ @ @ @ @ @ @ @ @ @ @ @ @ @ @ @ @ @ @ ",
"@ @ @ @ @ @ @ @ @ @ @ @ @ @ @ @ @ @ @ @ @ @ @ @ @ @ @ @ @ @ @ $ 6 +.r.=.r.r.@.@ @ @ @ @ @ @ @ @ @ @ @ @ @ @ @ @ @ @ @ @ ",
"@ @ @ @ @ @ @ @ @ @ @ @ @ @ @ @ @ @ @ @ @ @ @ @ @ @ @ @ @ @ @ @ @ % =.r.=.w.=.N @ @ @ @ @ @ @ @ @ @ @ @ @ @ @ @ @ @ @ @ ",
"@ @ @ @ @ @ @ @ @ @ @ @ @ @ @ @ @ @ @ @ @ @ @ @ @ @ @ @ @ @ @ @ @ @ =.w.w.w.r.=.p @ @ @ @ @ @ @ @ @ @ @ @ @ @ @ @ @ @ @ ",
"@ @ @ @ @ @ @ @ @ @ @ @ @ @ @ @ @ @ @ @ @ @ @ @ @ @ @ @ @ @ @ @ p +.=.=.=.=.=.@.$ @ @ @ @ @ @ @ @ @ @ @ @ @ @ @ @ @ @ @ "
};
