/* XPM */
static char *result[] = {
/* columns rows colors chars-per-pixel */
"60 60 157 2 ",
"   c #160F17",
".  c #190A14",
"X  c #170E18",
"o  c #1B0D1D",
"O  c #111111",
"+  c #1C1015",
"@  c #17161A",
"#  c #1A141D",
"$  c #1A181D",
"%  c #21030B",
"&  c #250713",
"*  c #230A13",
"=  c #2A0A14",
"-  c #2B0E19",
";  c #330C1D",
":  c #390F1F",
">  c #392817",
",  c #3D2719",
"<  c #1E0C22",
"1  c #17012F",
"2  c #1F1020",
"3  c #1E1B24",
"4  c #1B1A28",
"5  c #200221",
"6  c #290525",
"7  c #210A25",
"8  c #25052C",
"9  c #29072E",
"0  c #26092B",
"q  c #2B0D2D",
"w  c #3C0E22",
"e  c #320A2C",
"r  c #201E27",
"t  c #2A1F23",
"y  c #2B132B",
"u  c #211E29",
"i  c #371126",
"p  c #3D1D23",
"a  c #35192F",
"s  c #2C0632",
"d  c #2E0932",
"f  c #330C34",
"g  c #3B0B36",
"h  c #35063D",
"j  c #35093A",
"k  c #3A0B3D",
"l  c #291E34",
"z  c #2D1C3B",
"x  c #391333",
"c  c #321837",
"v  c #23212C",
"b  c #252331",
"n  c #2A2436",
"m  c #2E253D",
"M  c #2C2A3B",
"N  c #31273F",
"B  c #37293A",
"V  c #3A2C3F",
"C  c #410F29",
"Z  c #431627",
"A  c #421823",
"S  c #5D1722",
"D  c #480E3B",
"F  c #4D153D",
"G  c #421D38",
"H  c #501837",
"J  c #601220",
"K  c #412531",
"L  c #482938",
"P  c #45333A",
"I  c #48343D",
"U  c #5D3733",
"Y  c #563638",
"T  c #603C28",
"R  c #7E2B36",
"E  c #653C35",
"W  c #574613",
"Q  c #7A461B",
"!  c #774431",
"~  c #784531",
"^  c #794E33",
"/  c #7C4C3C",
"(  c #7E5234",
")  c #1E1F42",
"_  c #3E0B41",
"`  c #272343",
"'  c #2C2641",
"]  c #2D2845",
"[  c #22244C",
"{  c #302740",
"}  c #322942",
"|  c #362E49",
" . c #393147",
".. c #37314A",
"X. c #3A334D",
"o. c #382C50",
"O. c #323151",
"+. c #3C3652",
"@. c #3E3A56",
"#. c #36375A",
"$. c #3D3A59",
"%. c #420B45",
"&. c #45054F",
"*. c #440B48",
"=. c #4C0C4E",
"-. c #491444",
";. c #4C1847",
":. c #431249",
">. c #4D124D",
",. c #4F0C51",
"<. c #510C53",
"1. c #611D45",
"2. c #422749",
"3. c #403445",
"4. c #4E3E45",
"5. c #573C48",
"6. c #54394F",
"7. c #433B56",
"8. c #413C59",
"9. c #483D5E",
"0. c #593850",
"q. c #513A58",
"w. c #613B4B",
"e. c #6A3A56",
"r. c #433E65",
"t. c #6B4E47",
"y. c #644548",
"u. c #634C4E",
"i. c #714941",
"p. c #695A4F",
"a. c #715347",
"s. c #6C4455",
"d. c #53436C",
"f. c #794867",
"g. c #7D516B",
"h. c #99161C",
"j. c #B82928",
"k. c #85581E",
"l. c #AF5B1F",
"z. c #824D20",
"x. c #85432F",
"c. c #804B2F",
"v. c #894A2D",
"b. c #944D27",
"n. c #885536",
"m. c #AA7E28",
"M. c #D9671C",
"N. c #C36D22",
"B. c #CF7D20",
"V. c #D17A22",
"C. c #8C5971",
"Z. c #9E647F",
"A. c #F28824",
"S. c #8B5B84",
"D. c #95638F",
"F. c #98678F",
"G. c #A3688F",
/* pixels */
"O O O O O O O O O O O O O O O O O O O O O O O O O O O O O O O O O O O O O O O O O O O O O O O O O O O O O O O O O O O O ",
"O O O O O O O O O O O O O O O O O O O O O O O O O O O O O O O O O O O O O O O O O O O O O O O O O O O O O O O O O O O O ",
"O O O O O O O O O O O O O O O O O O O O O O O O O O O O O O O O O O O O O O O O O O O O O O O O O O O O O O O O O O O O ",
"O O O O O O O O O O O O O O O O O O O O O O O O O O O O O O O O O O O O O O O O O O O O O O O O O O O O O O O O O O O O ",
"O O O O O O O O O O O O O O O O O O O O O O O O O O O O O O O O O O O O O O O O O O O O O O O O O O O O O O O O O O O O ",
"O O O O O O O O O O O O O O O O O O O O O O O O O O O O O O O O O O O O O O O O O O O O O O O O O O O O O O O O O O O O ",
"O O O O O O O O O O O O O O O O O O O O O O O O O O O O O O O O O O O O O O O O O O O O O O O O O O O O O O O O O O O O ",
"O O O O O O O O O O O O O O O O O O O O O O O O O O O O O O O O O O O O O O O O O O O O O O O O O O O O O O O O O O O O ",
"O O O O O O O O O O O O O O O O O O O O O O O O O O O O O O O O O O O O O O O O O O O O O O O O O O O O O O O O O O O O ",
"O O O O O O O O O O O O O O O O O O O O O O O O O O O O O O O O O O O O O O O O O O O O O O O O O O O O O O O O O O O O ",
"O O O O O O O O O O O O O O O O O O O O O O O O O O O O O O O O O O O O O O O O O O O O O O O O O O O O O O O O O O O O ",
"O O O O O O O O O O O O O O O O O O O O O O O O O O O O O O O O O O O O O O O O O O O O O O O O O O O O O O O O O O O O ",
"O O O O O O O O O O O O O O O O O O O O O O O O O O O O O O O O O O O O O O O O O O O O O O O O O O O O O O O O O O O O ",
"O O O O O O O O O O O O O O O O O O O O O O O O O O O O O O O O O O O O O O O O O O O O O O O O O O O O O O O O O O O O ",
"O O O O O O O O O O O O O O O O O O O O O O O O O O O O O O O O O O O O O O O O O O O O O O O O O O O O O O O O O O O O ",
"O O O O O O O O O O O O O O O O O O O O O O O O O O O O O O O O O O O O O O O O O O O O O O O O O O O O O O O O O O O O ",
"O O O O O O O O O O O O O O O O O O O O O O O O O O O O O O O O O O O O O O O O O O O O O O O O O O O O O O O O O O O O ",
"O O O O O O O O O O O O O O O O O O O O O O O O O O O O O O O O O O O O O O O O O O O O O O O O O O O O O O O O O O O O ",
"O O O O O O O O O O O O O O O O O O O O O O O O O O O O O O O O O O O O O O O O O O O O O O O O O O O O O O O O O O O O ",
"O O O O O O O O O O O O O O O O O O O O O O O O O O O O O O O O O O O O O O O O O O O O O O O O O O O O O O O O O O O O ",
"O O O O O O O O O O O O O O O O O O O O O O O O O O O O O O O O O O O O O O O O O O O O O O O O O O O O O O O O O O O O ",
"O O O O O O O O O O O O O O O O O O O O O O O O O O O O O O O O O O O O O O O O O O O O O O O O O X X O O O O O O O O O ",
"O O O O O O O O O O O O O O O O O O O O O O O O O O O O O O O O O O O O O O O O O 7 X O O O O O O O 7   O O O O O O O O ",
"O O O O O O O O O O O O O O O O O O O O O O O O O O O O O O O O O O O O O O O O O O O O O O O O O O   O O O O O O O O O ",
"O O O O O O O O O O O O O O O O O O O O O O O O O O O O O O O O O O O O O O O O O O O O O O O O O O O O O O O O O O O O ",
"O O O O O O O O O O O O O O O O O O O O O O O O O O O O O O O O O O O O O O O O O O O O O O O O O O O O O O O O O O O O ",
"O O O O O O O O O O O O O O O O O O O O O O O O O O O O O O O O O O O O < < # O O O O O O O O O O O O O O O O O O O O O ",
"O O O O O O O O O O O O O O O O O O O O O O O O O O O O O O O O O O O < 7 7 8 o O O 2 %.q O O O O O O O O O O O O O O O ",
"O O O O O O O O O O O O O O O O O O O O O $ 7.X.O O O O O O O # y k # O O + < o O O %.j s f O O O O O O O O O O O O O O ",
"O O O O O O O O O O O O O O O O O O O O $ 9.r.d.X.O O O O o j =.=.,.=.f _ h k + O @ *.o X _ < O O O O O O O O O O O O O ",
"O O O O O O O O O O O O O O O O O O O O r | / 7.d.  O O f %.=.=.,.,.,.,.,.,.,.k O y k O O X < O O O O O O O O O O O O O ",
"O O O O O O O O O O O O O O O O O O O O b 2 M./ d.n O q *.%.k <.,.*.,.,.,._ d =.%.f d O     O O O O O O O O O O O O O O ",
"O O O O O O O O O O O O O O O O O O O O o.# A.( r.m   s 0 k j k =.=.=.=.,.7 7 s *.,.9 O X 8 X   O O O O O O O O O O O O ",
"O O O O O O O O O O O O O O O O O O O W  .X z.Y 4.j 8 h -.L >.0 9 =.<.<.=.o X 7 s j < O O @ 0 O O O O O O O O O O O O O ",
"O O O O O O O O O O O O O O O O O O O k.m.l ) q.g 6 e -.K G L K 5 h %._ 9 + O O < < O O O o o O O O O O O O O O O O O O ",
"O O O O O O O O O O O O O O O O O O O k.B.p.u.5.g = = i G <.*.Z e =.9 8 9 O < 0 O O O O O   O O O O O O O O O O O O O O ",
"O O O O O O O O O O O O O O O O O O O T V.B.A.1.& & . . w =.; ; p >.=.%.f   7 9 < O O O O O O O O O O O O O O O O O O O ",
"O O O O O O O O O O O O O O O O O O n [ N.~ / F & J h.S & : : C x ;.<.<.q O   7 s O O O O O O O O O O O O O O O O O O O ",
"O O O O O O O O O O O O O O O O O n $.| 5.D.2.; & A j.R k = D k s =.<.*.o O O o < O O O O O O O O O O O O O O O O O O O ",
"O O O O O O O O O O O O O O O O n @.| l S.G.A w q y :.-.<.%.f 8 9 *.,.0 O O O 7 O O O O O O O O O O O O O O O O O O O O ",
"O O O O O O O O O O O O O O O M 9.X.a ; L s.C.0.&.s &.,.,.h 9 9 8 f 9   O O O   O O O O O O O O O O O O O O O O O O O O ",
"O O O O O O O O O O O O O O @ X.F.f.% + O + t 5.H h f =.j 8 1 0 7 0 O O O O O O O O O O O O O O O O O O O O O O O O O O ",
"O O O O O O O O O O O O O O + e.Z.w.O O O O O $ b.z 8 8 8 c , + + O O O O O O O O O O O O O O O O O O O O O O O O O O O ",
"O O O O O O O O O O O O + - * g.6.B O O O O O O l.~ U x.c.n.> O O O O O O O O O O O O O O O O O O O O O O O O O O O O O ",
"O O O O O O O O O O O - - * O @.' b O O O O @ Q t.i.a.$.8.X.n O O O O O O O O O O O O O O O O O O O O O O O O O O O O O ",
"O O O O O O O O O O - = O O O $ M 3 O O @ v P n.#.#.#.8.$.@.} n O O O O O O O O O O O O O O O O O O O O O O O O O O O O ",
"O O O O O O O O O O O O O O O O O O O O M @.#.y./ @.#.@.7.} } ' 4 O O O O O O O O O O O O O O O O O O O O O O O O O O O ",
"O O O O O O O O O O O O O O O O O O O O @.@.8.#.u.n.y.3.] N ` { v.4 O O O O O O O O O O O O O O O O O O O O O O O O O O ",
"O O O O O O O O O O O O O O O O O O O O ..@.@.8.O.N E ^ I P E ! E m r + O O O O O O O O O O O O O O O O O O O O O O O O ",
"O O O O O O O O O O O O O O O O O O O O @ +.@.@...' ` V n.~ Y V ` ' } m b r O O O O O O O O O O O O O O O O O O O O O O ",
"O O O O O O O O O O O O O O O O O O O O O @ X.@.@.@...} ` ` ' N } } ' N ..+.X.M u $ O O O O O O O O O O O O O O O O O O ",
"O O O O O O O O O O O O O O O O O O O O O O @ ..@.8.@.@.+.' X.+...} } } ' m +.@.@.+.v O O O O O O O O O O O O O O O O O ",
"O O O O O O O O O O O O O O O O O O O O O O O 3 @.@.@.8.8.X. ...} } } } } m } } | ....O O O O O O O O O O O O O O O O O ",
"O O O O O O O O O O O O O O O O O O O O O O O O +.@.@.@.@.@.m ' N } X.} } } } } } m M O O O O O O O O O O O O O O O O O ",
"O O O O O O O O O O O O O O O O O O O O O O O O @ X.@.@.@.@.} } } | } | | { } ' } N 4 O O O O O O O O O O O O O O O O O ",
"O O O O O O O O O O O O O O O O O O O O O O O O O @ v @.@.8...} } } | | N } N } } m @ O O O O O O O O O O O O O O O O O ",
"O O O O O O O O O O O O O O O O O O O O O O O O O O O 3 +.@.} N } } | }  .| { { { @ O O O O O O O O O O O O O O O O O O ",
"O O O O O O O O O O O O O O O O O O O O O O O O O O O O r b M N } } } X.| ' { { u + O O O O O O O O O O O O O O O O O O ",
"O O O O O O O O O O O O O O O O O O O O O O O O O O O O O O r b } } X.} N { N u O O O O O O O O O O O O O O O O O O O O ",
"O O O O O O O O O O O O O O O O O O O O O O O O O O O O O O O O n m m m m 3 3 O O O O O O O O O O O O O O O O O O O O O "
};
