/* XPM */
static char *result[] = {
/* columns rows colors chars-per-pixel */
"60 60 153 2 ",
"   c #180B0F",
".  c #150F15",
"X  c #170F18",
"o  c #1A0D1C",
"O  c #111111",
"+  c #191314",
"@  c #161519",
"#  c #1B171B",
"$  c #1A191E",
"%  c #240410",
"&  c #240A15",
"*  c #2B0915",
"=  c #25041F",
"-  c #2D0C1A",
";  c #340C1C",
":  c #390B1A",
">  c #261019",
",  c #2C121C",
"<  c #1E0C22",
"1  c #1B1120",
"2  c #1E1A23",
"3  c #210B25",
"4  c #2F0823",
"5  c #25062C",
"6  c #29072E",
"7  c #26082B",
"8  c #2B0C2D",
"9  c #3A0D25",
"0  c #201D27",
"q  c #241129",
"w  c #211D29",
"e  c #3D1122",
"r  c #351C24",
"t  c #381D22",
"y  c #37142C",
"u  c #2B0731",
"i  c #2E0833",
"p  c #230E39",
"a  c #310735",
"s  c #300B34",
"d  c #34093A",
"f  c #3A0B3D",
"g  c #251431",
"h  c #331631",
"j  c #3C1F34",
"k  c #2D2126",
"l  c #2F2923",
"z  c #24222D",
"x  c #322222",
"c  c #262432",
"v  c #2C2436",
"b  c #2E253C",
"n  c #31263E",
"m  c #3C2E3A",
"M  c #412B16",
"N  c #410E30",
"B  c #460D3B",
"V  c #45123F",
"C  c #451838",
"Z  c #45222E",
"A  c #432828",
"S  c #412732",
"D  c #422039",
"F  c #5D2C34",
"G  c #4D3036",
"H  c #763A2D",
"J  c #732035",
"K  c #5C463E",
"L  c #7E452E",
"P  c #724232",
"I  c #794B3A",
"U  c #3E0A41",
"Y  c #272341",
"T  c #2B2541",
"R  c #302740",
"E  c #332A43",
"W  c #352E49",
"Q  c #323146",
"!  c #36314B",
"~  c #3A334D",
"^  c #242B57",
"/  c #353551",
"(  c #3B3552",
")  c #3E3A56",
"_  c #35365B",
"`  c #36385A",
"'  c #3F3B5A",
"]  c #420A45",
"[  c #43074B",
"{  c #470B4A",
"}  c #4C0C4E",
"|  c #4D1E46",
" . c #461248",
".. c #4C114D",
"X. c #4E1848",
"o. c #50144C",
"O. c #460651",
"+. c #450A51",
"@. c #4E0C50",
"#. c #510C53",
"$. c #560B59",
"%. c #4D2841",
"&. c #4C374E",
"*. c #4E3E4F",
"=. c #463756",
"-. c #433B55",
";. c #4B3B50",
":. c #413C59",
">. c #6D2142",
",. c #6D3E58",
"<. c #574650",
"1. c #5C435C",
"2. c #674B4A",
"3. c #795744",
"4. c #794D5E",
"5. c #77555B",
"6. c #4C4367",
"7. c #55446C",
"8. c #594670",
"9. c #5A4872",
"0. c #67446B",
"q. c #784D61",
"w. c #714B6E",
"e. c #73547A",
"r. c #9E2025",
"t. c #813A35",
"y. c #E8231F",
"u. c #8B4618",
"i. c #A2501C",
"p. c #864229",
"a. c #8A4F2E",
"s. c #8A5325",
"d. c #925826",
"f. c #9D582A",
"g. c #924A33",
"h. c #A75627",
"j. c #AF5C27",
"k. c #99623B",
"l. c #AF692D",
"z. c #BA6627",
"x. c #B96E2D",
"c. c #A0743A",
"v. c #C6611E",
"b. c #CD6E1B",
"n. c #D57D23",
"m. c #805543",
"M. c #985850",
"N. c #9E617F",
"B. c #B3842B",
"V. c #C28124",
"C. c #D18C24",
"Z. c #925D89",
"A. c #BF7BA3",
/* pixels */
"O O O O O O O O O O O O O O O O O O O O O O O O O O O O O O O O O O O O O O O O O O O O O O O O O O O O O O O O O O O O ",
"O O O O O O O O O O O O O O O O O O O O O O O O O O O O O O O O O O O O O O O O O O O O O O O O O O O O O O O O O O O O ",
"O O O O O O O O O O O O O O O O O O O O O O O O O O O O O O O O O O O O O O O O O O O O O O O O O O O O O O O O O O O O ",
"O O O O O O O O O O O O O O O O O O O O O O O O O O O O O O O O O O O O O O O O O O O O O O O O O O O O O O O O O O O O ",
"O O O O O O O O O O O O O O O O O O O O O O O O O O O O O O O O O O O O O O O O O O O O O O O O O O O O O O O O O O O O ",
"O O O O O O O O O O O O O O O O O O O O O O O O O O O O O O O O O O O O O O O O O O O O O O O O O O O O O O O O O O O O ",
"O O O O O O O O O O O O O O O O O O O O O O O O O O O O O O O O O O O O O O O O O O O O O O O O O O O O O O O O O O O O ",
"O O O O O O O O O O O O O O O O O O O O O O O O O O O O O O O O O O O O O O O O O O O O O O O O O O O O O O O O O O O O ",
"O O O O O O O O O O O O O O O O O O O O O O O O O O O O O O O O O O O O O O O O O O O O O O O O O O O O O O O O O O O O ",
"O O O O O O O O O O O O O O O O O O O O O O O O O O O O O O O O O O O O O O O O O O O O O O O O O O O O O O O O O O O O ",
"O O O O O O O O O O O O O O O O O O O O O O O O O O O O O O O O O O O O O O O O O O O O O O O O O O O O O O O O O O O O ",
"O O O O O O O O O O O O O O O O O O O O O O O O O O O O O O O O O O O O O O O O O O O O O O O O O O O O O O O O O O O O ",
"O O O O O O O O O O O O O O O O O O O O O O O O O O O O O O O O O O O O O O O O O O O O O O O O O O O O O O O O O O O O ",
"O O O O O O O O O O O O O O O O O O O O O O O O O O O O O O O O O O O O O O O O O O O O O O O O O O O O O O O O O O O O ",
"O O O O O O O O O O O O O O O O O O O O O O O O O O O O O O O O O O O O O O O O O O O O O O O O O O O O O O O O O O O O ",
"O O O O O O O O O O O O O O O O O O O O O O O O O O O O O O O O O O O O O O O O O O O O O O O O O O O O O O O O O O O O ",
"O O O O O O O O O O O O O O O O O O O O O O O O O O O O O O O O O O O O O O O O O O O O O O O O O O O O O O O O O O O O ",
"O O O O O O O O O O O O O O O O O O O O O O O O O O O O O O O O O O O O O O O O O O O O O O O O O O O O O O O O O O O O ",
"O O O O O O O O O O O O O O O O O O O O O O O O O O O O O O O O O O O O O O O O O O O O O O O O O O O O O O O O O O O O ",
"O O O O O O O O O O O O O O O O O O O O O O O O O O O O O O O O O O O O O O O O O O O O O O O O O O O O O O O O O O O O ",
"O O O O O O O O O O O O O O O O O O O O O O O O O O O O O O O O O O O O O O O O O O O O O O O O O O O O O O O O O O O O ",
"O O O O O O O O O O O O O O O O O O O O O O O O O O O O O O O O O O O O O O O O O O O O O O O O O O O O O O O O O O O O ",
"O O O O O O O O O O O O O O O O O O O O O O O O O O O O O O O O O O O O O O O O O O O O O O O O O O O O O O O O O O O O ",
"O O O O O O O O O O O O O O O O O O O O O O O O O O O O O O O O O O O O O O O O O O O O O O O O O O O O O O O O O O O O ",
"O O O O O O O O O O O O O O O O O O O O O O O O O O O O O O O O O O O O O O O O O O O O < 3 < O O O O O O O O O O O O O ",
"O O O O O O O O O O O O O O O O O O O O O O O O O O O O O O O O O O O O . < < O O O O o u 6 3 < O O O O O O O O O O O O ",
"O O O O O O O O O O O O O O O O O O O O O O O O O O O O O O O O O O O O < < u 5 X O O O < o O 5 o O O O O O O O O O O O ",
"O O O O O O O O O O O O O O O O O O O O O O O O O O O O O O O O O O O O + O X o 7 O O O O O O 5 o O O O O O O O O O O O ",
"O O O O O O O O O O O O O O O O O O O O O O O 2 2 + O O O O O O O O O O O O O O o O O O O O O 5 O O O O O O O O O O O O ",
"O O O O O O O O O O O O O O O O O O O O O O v 7.7.~ O O O O O O O h 7 + O O i < O O O O O O O o O O O O O O O O O O O O ",
"O O O O O O O O O O O O O O O O O O O O O O :.' ' 8.E O O O O . f #.}  .8 f U u 7 o O O O O O O O O O O O O O O O O O O ",
"O O O O O O O O O O O O O O O O O O O O O . m h.*.:.=.O O O < 5 a i { #.#.U 3 5 u 7 7 < O O O O O < O O O O O O O O O O ",
"O O O O O O O O O O O O O O O O O O O O O @ A v.x.` 9.2 O < 5 U U U i U f f ] d . o u 5 O O O O O 3 . O O O O O O O O O ",
"O O O O O O O O O O O O O O O O O O O O O l r n.P Q 6.q < u h o.$.@.} [ f } #.#.O O X u < O O O O . < O O O O O O O O O ",
"O O O O O O O O O O O O O O O O O O O O O B.1 x 0.m.p 7 u s S S V } #.@.@.@...{ O O O 3 7 o O O O < X O O O O O O O O O ",
"O O O O O O O O O O O O O O O O O O O O O C.K ^ 5.D = 4 9 x D ..t { @.} @.} } 3 O 8 + O 3 u 5 7 3 . O O O O O O O O O O ",
"O O O O O O O O O O O O O O O O O O O O O n.c.k.V.y % *   9 } } : C } } @.} #.3 O i f O O < o < . O O O O O O O O O O O ",
"O O O O O O O O O O O O O O O O O O O O 0 a.b.b.f.< * : * * 9 N ; r | @.@.@.} 1 O + { O O O O O O O O O O O O O O O O O ",
"O O O O O O O O O O O O O O O O O O O w / m M.&.y * & r.y.j * : B ..X.@.a { s O O @ 7 O O O O O O O O O O O O O O O O O ",
"O O O O O O O O O O O O O O O O O O z :.! T Z.N ; - 4 Z J | f 9 #.#.} a 7 u O O O . O O O O O O O O O O O O O O O O O O ",
"O O O O O O O O O O O O O O O O + z / W h %.Z.2.8 5 $.{ +.@.a ] } f i u 5 X O O O O O O O O O O O O O O O O O O O O O O ",
"O O O O O O O O O O O O O O O O c :.e.m ; % k 4.,.5 ] $.@.@.} a i 7 5 7 < . O O O O O O O O O O O O O O O O O O O O O O ",
"O O O O O O O O O O O O O O O O v w.A., . O O + r g 5 U @.} #.+.U 3 X X O O O O O O O O O O O O O O O O O O O O O O O O ",
"O O O O O O O O O O O O O O     e N.q.# O O O O O z p.p O.[ [ >.F $ O O O O O O O O O O O O O O O O O O O O O O O O O O ",
"O O O O O O O O O O O O O > - & n 1.n + O O O O O O u.G g.t.H 2.-.~ O O O O O O O O O O O O O O O O O O O O O O O O O O ",
"O O O O O O O O O O O O - & + O @ Q W O O O O O O O + s.3.:.;.` :.E 2 O O O O O O O O O O O O O O O O O O O O O O O O O ",
"O O O O O O O O O O O O & O O O O O $ O O O O O O O O d._ _ ` :.) E w . O O O O O O O O O O O O O O O O O O O O O O O O ",
"O O O O O O O O O O O O O O O O O O O O O O O O O O M l.<.2.<.` W T 2 O O O O O O O O O O O O O O O O O O O O O O O O O ",
"O O O O O O O O O O O O O O O O O O O O O O O O O + i.z.z.z.j.I P m O O O O O O O O O O O O O O O O O O O O O O O O O O ",
"O O O O O O O O O O O O O O O O O O O O O O O O O + L ;.-.-.-.;.P P O O O O O O O O O O O O O O O O O O O O O O O O O O ",
"O O O O O O O O O O O O O O O O O O O O O O O O O O Y ) ) ) :.! Y b O O O O O O O O O O O O O O O O O O O O O O O O O O ",
"O O O O O O O O O O O O O O O O O O O O O O O O O O b ( :.:.-.( ) W O O O O O O O O O O O O O O O O O O O O O O O O O O ",
"O O O O O O O O O O O O O O O O O O O O O O O O O O @ b W ) ' :.:.' ! c O O O O O O O O O O O O O O O O O O O O O O O O ",
"O O O O O O O O O O O O O O O O O O O O O O O O O O O @ v E ! ! ) ) ' ' 2 O O O O O O O O O O O O O O O O O O O O O O O ",
"O O O O O O O O O O O O O O O O O O O O O O O O O O O O O v n E E E ( ( Q 2 O O O O O O O O O O O O O O O O O O O O O O ",
"O O O O O O O O O O O O O O O O O O O O O O O O O O O O O $ Q Q n E R R T 2 O O O O O O O O O O O O O O O O O O O O O O ",
"O O O O O O O O O O O O O O O O O O O O O O O O O O O O O O 0 n W n E W E w O O O O O O O O O O O O O O O O O O O O O O ",
"O O O O O O O O O O O O O O O O O O O O O O O O O O O O O O O 0 ~ E E E ) ( O O O O O O O O O O O O O O O O O O O O O O ",
"O O O O O O O O O O O O O O O O O O O O O O O O O O O O O O O z ! E n n W ~ Q O O O O O O O O O O O O O O O O O O O O O ",
"O O O O O O O O O O O O O O O O O O O O O O O O O O O O O O @ n b b b b n v ~ $ O O O O O O O O O O O O O O O O O O O O "
};
