/* XPM */
static char *result[] = {
/* columns rows colors chars-per-pixel */
"60 60 165 2 ",
"   c #03001D",
".  c #0C091C",
"X  c #160614",
"o  c #150F15",
"O  c #1B0B12",
"+  c #170E19",
"@  c #1A0D1C",
"#  c #111111",
"$  c #1B1313",
"%  c #161419",
"&  c #19181E",
"*  c #200711",
"=  c #250913",
"-  c #27041A",
";  c #2D0C1A",
":  c #300716",
">  c #330C1A",
",  c #3A0F1F",
"<  c #211017",
"1  c #231B12",
"2  c #3A2314",
"3  c #1E0B22",
"4  c #1D1A23",
"5  c #161528",
"6  c #1E1E2B",
"7  c #1B1B33",
"8  c #230427",
"9  c #220A26",
"0  c #2A0922",
"q  c #25052D",
"w  c #29072F",
"e  c #24092A",
"r  c #290C2B",
"t  c #35072F",
"y  c #390E28",
"u  c #211021",
"i  c #2C1A23",
"p  c #29122D",
"a  c #391820",
"s  c #381927",
"d  c #210035",
"f  c #2C0731",
"g  c #2D0932",
"h  c #310A35",
"j  c #360A3A",
"k  c #390B3D",
"l  c #261533",
"z  c #2C143C",
"x  c #351335",
"c  c #341D32",
"v  c #3F1B38",
"b  c #25212A",
"n  c #352225",
"m  c #252331",
"M  c #2A2335",
"N  c #24213C",
"B  c #2E253D",
"V  c #2C2A3D",
"C  c #312331",
"Z  c #3E2530",
"A  c #32253D",
"S  c #30293D",
"D  c #61121F",
"F  c #7C141B",
"G  c #471B24",
"H  c #450D3E",
"J  c #401133",
"K  c #4A1C34",
"L  c #52332F",
"P  c #422434",
"I  c #4A243C",
"U  c #422D3C",
"Y  c #493032",
"T  c #47363C",
"R  c #593A3C",
"E  c #66362B",
"W  c #772B3A",
"Q  c #673C34",
"!  c #5D4B2B",
"~  c #76442F",
"^  c #764635",
"/  c #794530",
"(  c #161C44",
")  c #3D0A41",
"_  c #2C2642",
"`  c #312740",
"'  c #332A43",
"]  c #382C43",
"[  c #362F49",
"{  c #343046",
"}  c #3F3344",
"|  c #36324A",
" . c #3A324C",
".. c #2D2F54",
"X. c #353554",
"o. c #3B3551",
"O. c #3F3A57",
"+. c #33365A",
"@. c #38375A",
"#. c #34385D",
"$. c #3C3959",
"%. c #430B45",
"&. c #490C46",
"*. c #43064B",
"=. c #460B49",
"-. c #4C0C4E",
";. c #491746",
":. c #4D0751",
">. c #4E0C50",
",. c #510C53",
"<. c #423343",
"1. c #5F3D4F",
"2. c #433A54",
"3. c #413C59",
"4. c #4C3C5F",
"5. c #563B55",
"6. c #693D5A",
"7. c #5F3C62",
"8. c #52414F",
"9. c #4B4256",
"0. c #554653",
"q. c #764C41",
"w. c #765C48",
"e. c #6B4554",
"r. c #4C426A",
"t. c #54426C",
"y. c #5B4873",
"u. c #DF2A2A",
"i. c #A6541D",
"p. c #B0551D",
"a. c #B9581C",
"s. c #854624",
"d. c #874F2E",
"f. c #8D4B2C",
"g. c #904D2C",
"h. c #8D502D",
"j. c #9E5127",
"k. c #965C20",
"l. c #99502A",
"z. c #985531",
"x. c #9D5F34",
"c. c #A75E25",
"v. c #A85826",
"b. c #A65C2C",
"n. c #BE5E20",
"m. c #AA6722",
"M. c #AA6329",
"N. c #BF6723",
"B. c #B66C29",
"V. c #A37125",
"C. c #B27A24",
"Z. c #A16234",
"A. c #C7621D",
"S. c #C06B25",
"D. c #C96F24",
"F. c #CE7322",
"G. c #C27E29",
"H. c #D47D25",
"J. c #845167",
"K. c #885571",
"L. c #D98724",
"P. c #DF8A22",
"I. c #8E6088",
"U. c #9F6280",
"Y. c #B075A1",
/* pixels */
"# # # # # # # # # # # # # # # # # # # # # # # # # # # # # # # # # # # # # # # # # # # # # # # # # # # # # # # # # # # # ",
"# # # # # # # # # # # # # # # # # # # # # # # # # # # # # # # # # # # # # # # # # # # # # # # # # # # # # # # # # # # # ",
"# # # # # # # # # # # # # # # # # # # # # # # # # # # # # # # # # # # # # # # # # # # # # # # # # # # # # # # # # # # # ",
"# # # # # # # # # # # # # # # # # # # # # # # # # # # # # # # # # # # # # # # # # # # # # # # # # # # # # # # # # # # # ",
"# # # # # # # # # # # # # # # # # # # # # # # # # # # # # # # # # # # # # # # # # # # # # # # # # # # # # # # # # # # # ",
"# # # # # # # # # # # # # # # # # # # # # # # # # # # # # # # # # # # # # # # # # # # # # # # # # # # # # # # # # # # # ",
"# # # # # # # # # # # # # # # # # # # # # # # # # # # # # # # # # # # # # # # # # # # # # # # # # # # # # # # # # # # # ",
"# # # # # # # # # # # # # # # # # # # # # # # # # # # # # # # # # # # # # # # # # # # # # # # # # # # # # # # # # # # # ",
"# # # # # # # # # # # # # # # # # # # # # # # # # # # # # # # # # # # # # # # # # # # # # # # # # # # # # # # # # # # # ",
"# # # # # # # # # # # # # # # # # # # # # # # # # # # # # # # # # # # # # # # # # # # # # # # # # # # # # # # # # # # # ",
"# # # # # # # # # # # # # # # # # # # # # # # # # # # # # # # # # # # # # # # # # # # # # # # # # # # # # # # # # # # # ",
"# # # # # # # # # # # # # # # # # # # # # # # # # # # # # # # # # # # # # # # # # # # # # # # # # # # # # # # # # # # # ",
"# # # # # # # # # # # # # # # # # # # # # # # # # # # # # # # # # # # # # # # # # # # # # # # # # # # # # # # # # # # # ",
"# # # # # # # # # # # # # # # # # # # # # # # # # # # # # # # # # # # # # # # # # # # # # # # # # # # # # # # # # # # # ",
"# # # # # # # # # # # # # # # # # # # # # # # # # # # # # # # # # # # # # # # # # # # # # # # # # # # # # # # # # # # # ",
"# # # # # # # # # # # # # # # # # # # # # # # # # # # # # # # # # # # # # # # # # # # # # # # # # # # # # # # # # # # # ",
"# # # # # # # # # # # # # # # # # # # # # # # # # # # # # # # # # # # # # # # # # # # # # # # # # # # # # # # # # # # # ",
"# # # # # # # # # # # # # # # # # # # # # # # # # # # # # # # # # # # # # # # # # # # # # # # # # # # # # # # # # # # # ",
"# # # # # # # # # # # # # # # # # # # # # # # # # # # # # # # # # # # # # # # # # # # # # # # # # # # # # # # # # # # # ",
"# # # # # # # # # # # # # # # # # # # # # # # # # # # # # # # # # # # # # # # # # # # # # # # # # # # # # # # # # # # # ",
"# # # # # # # # # # # # # # # # # # # # # # # # # # # # # # # # # # # # # # # # # # # # # # # # # # # # # # # # # # # # ",
"# # # # # # # # # # # # # # # # # # # # # # # # # # # # # # # # # # # # # # # # # # # # # # # # # # # # # # # # # # # # ",
"# # # # # # # # # # # # # # # # # # # # # # # # # # # # # # # # # # # # # # # # # # # # # # # # # # # # # # # # # # # # ",
"# # # # # # # # # # # # # # # # # # # # # # # # # # # # # # # # # # # # # # # # # # # # # # # # # # # # # # # # # # # # ",
"# # # # # # # # # # # # # # # # # # # # # # # # # # # # # # # # # # # # # # # # # # o o # # # # # # # # # # # # # # # # ",
"# # # # # # # # # # # # # # # # # # # # # # # # # # # # # # # # # # # # # # # # # # 9 + # # # # # # # # # # # # # # # # ",
"# # # # # # # # # # # # # # # # # # # # # # # # # # # # # # # # # # # o # # # # # o w w + # # # # # # # # # # # # # # # ",
"# # # # # # # # # # # # # # # # # # # # # # # # # # # # # # # # # # # 4 9 < # # # o w w 9 % # # # # # # # # # # # # # # ",
"# # # # # # # # # # # # # # # # # # # # # # # # # # # # # # # # # + g -.=.>.< # # # 3 w w + # # # # # # # # # # # # # # ",
"# # # # # # # # # # # # # # # # # # # # # # ] } M # # # # # # # # w f h 3 j r # # # # w w + @ + # # # # # # # # # # # # ",
"# # # # # # # # # # # # # # # # # # # # #  .r.r.y.S # # # # < ) >.) 3 e # + # # # o + f e + # e # # # # # # # # # # # # ",
"# # # # # # # # # # # # # # # # # # # # % { 1.2.r.4.% # # w -.-.>.>.=.g e # # # # @ 9 e + # % %.+ # # # # # # # # # # # ",
"# # # # # # # # # # # # # # # # # # # # & 7 a.b.X.r.b # e ,.,.-.-.>.,.%.k %.j $ # # # # # % %.=.e # # # # # # # # # # # ",
"# # # # # # # # # # # # # # # # # # # # m . D.F.+.r.M % f ) -.-.,.-.,.h f ,.>.k + % # u h %.=.g 3 # # # # # # # # # # # ",
"# # # # # # # # # # # # # # # # # # # # !   k.Q T 0.z 8 d n x -.>.>.%.w =.,.k k -.&.&.-.>.=.w 3 # # # # # # # # # # # # ",
"# # # # # # # # # # # # # # # # # # # # V.n 5 t.e.K 8 H H Z K I t ) h ) =.g w e e =.-.) h f 3 # # # # # # # # # # # # # ",
"# # # # # # # # # # # # # # # # # # # # C.w.9.w.z - : > a ;.:.P y :.,.,.) j + # # @ @ @ + @ # # # # # # # # # # # # # # ",
"# # # # # # # # # # # # # # # # # # # # m.G.H.L.q = O X = H J : a ;.>.-.,.>.% r u # # # # # # # # # # # # # # # # # # # ",
"# # # # # # # # # # # # # # # # # # # 6 ^ p.h.f.9 = D F G > y , J I -.>.-.k + h 9 # # # # # # # # # # # # # # # # # # # ",
"# # # # # # # # # # # # # # # # # # m 3.<.U.7.p > * G u.W 0 y &.,.-.-.-.=.@ @ k % # # # # # # # # # # # # # # # # # # # ",
"# # # # # # # # # # # # # # # # # M O.| 5.Y.K > 0 t v r x :.%.,.-.>.>.h e @ h u # # # # # # # # # # # # # # # # # # # # ",
"# # # # # # # # # # # # # # # # M 2.[ c I e.K.J.N d >.f q ,.,.) j ,.%.e # # # # # # # # # # # # # # # # # # # # # # # # ",
"# # # # # # # # # # # # # # # 6 4.I.e.> % # i 1.T E j =.*.>.j q 8 ) 9 # # # # # # # # # # # # # # # # # # # # # # # # # ",
"# # # # # # # # # # # # # # # 1 6.U.<.# # # # # 6 b.l *.*.j s % o + + # # # # # # # # # # # # # # # # # # # # # # # # # ",
"# # # # # # # # # # # # # $ > = J.1.C # # # # # # s.R A ~ c.d.V # # # # # # # # # # # # # # # # # # # # # # # # # # # # ",
"# # # # # # # # # # # < ; ; O & 3.V l # # # # # # 1 L G.P.Z.2.O.4 # # # # # # # # # # # # # # # # # # # # # # # # # # # ",
"# # # # # # # # # # O ; O o # # 6 V 4 # # # # # 1 k.B.F.A.3.@.@.X.b # # # # # # # # # # # # # # # # # # # # # # # # # # ",
"# # # # # # # # # # # # # # # # # # # # # # # $ m.H.S.f.l.#.8.x.B.B.2 # # % ' { & # # # # # # # # # # # # # # # # # # # ",
"# # # # # # # # # # # # # # # # # # # # # # # $ n.N.A _ j.x.z.q.q.q.} _ V | O.O.| # # # # # # # # # # # # # # # # # # # ",
"# # # # # # # # # # # # # # # # # # # # # # # # U j.` _ Q M.+.@.@.@.$.O.O.O.O.O.O.b # # # # # # # # # # # # # # # # # # ",
"# # # # # # # # # # # # # # # # # # # # # # # # ( f.` ' B.1.$.O.O.O.O.O.O.O.O.O.O.| # # # # # # # # # # # # # # # # # # ",
"# # # # # # # # # # # # # # # # # # # # # # # # _ d.' B.~ ] 3.3.O.O.O.O.3.O.O.O.O.| # # # # # # # # # # # # # # # # # # ",
"# # # # # # # # # # # # # # # # # # # # # # # & Q ^ v.Q ..'  .3.O.O.O.O.O.O.O.3. .S # # # # # # # # # # # # # # # # # # ",
"# # # # # # # # # # # # # # # # # # # # # # # Y g.n.R +.3.' B [ 3.O.3.O.3.O.O.| B 4 # # # # # # # # # # # # # # # # # # ",
"# # # # # # # # # # # # # # # # # # # # # # $ i./ ] @.3.3.[ [ ` [ o.o.o.o.' ` V M # # # # # # # # # # # # # # # # # # # ",
"# # # # # # # # # # # # # # # # # # # # # # # # N `  .3.3.[ O.o.` B ` B S S ` 6 # # # # # # # # # # # # # # # # # # # # ",
"# # # # # # # # # # # # # # # # # # # # # # # # % V V ' o.O.` 3.3.o. . . .` ` % # # # # # # # # # # # # # # # # # # # # ",
"# # # # # # # # # # # # # # # # # # # # # # # # # # B ` `  .| | 3.3.3.3.` M 6 # # # # # # # # # # # # # # # # # # # # # ",
"# # # # # # # # # # # # # # # # # # # # # # # # # # 4 M ` ` ' S  .o.[ ` M 4 # # # # # # # # # # # # # # # # # # # # # # ",
"# # # # # # # # # # # # # # # # # # # # # # # # # # # % ` B B V B l 4 4 # # # # # # # # # # # # # # # # # # # # # # # # "
};
