/* XPM */
static char *result[] = {
/* columns rows colors chars-per-pixel */
"60 60 160 2 ",
"   c #15080B",
".  c #150F15",
"X  c #1B0815",
"o  c #1A0D1C",
"O  c #111111",
"+  c #1A1413",
"@  c #15151A",
"#  c #1A131B",
"$  c #1D191A",
"%  c #220712",
"&  c #210B16",
"*  c #2E0B15",
"=  c #2C0D1A",
"-  c #340C1A",
";  c #390E1C",
":  c #29171A",
">  c #211B19",
",  c #352513",
"<  c #1E0B22",
"1  c #190824",
"2  c #1D1B23",
"3  c #160032",
"4  c #130E36",
"5  c #220C25",
"6  c #23032C",
"7  c #28072E",
"8  c #25082A",
"9  c #2A0B2C",
"0  c #310629",
"q  c #38072F",
"w  c #201E25",
"e  c #241E2B",
"r  c #3B1122",
"t  c #391724",
"y  c #361B2E",
"u  c #3E1D2F",
"i  c #2C0631",
"p  c #2D0932",
"a  c #2E033C",
"s  c #330B35",
"d  c #38063B",
"f  c #35093A",
"g  c #3A0B3D",
"h  c #2A1336",
"j  c #3B1E34",
"k  c #24212C",
"l  c #28232C",
"z  c #3A262C",
"x  c #272232",
"c  c #24243B",
"v  c #2D243C",
"b  c #2E2B3E",
"n  c #30273F",
"m  c #302D3F",
"M  c #3B283A",
"N  c #7A141E",
"B  c #4A2815",
"V  c #62351A",
"C  c #6F3E1D",
"Z  c #733C19",
"A  c #41172D",
"S  c #401D29",
"D  c #440D39",
"F  c #471E33",
"G  c #421C38",
"H  c #5F3422",
"J  c #59302F",
"K  c #44273C",
"L  c #54363A",
"P  c #73232A",
"I  c #5C4B28",
"U  c #694C26",
"Y  c #7D4C2D",
"T  c #7E5030",
"R  c #7F5738",
"E  c #1C0541",
"W  c #2D0640",
"Q  c #3D0A40",
"!  c #201F44",
"~  c #242040",
"^  c #2C2642",
"/  c #2D2B4D",
"(  c #302740",
")  c #322A43",
"_  c #392F46",
"`  c #362E49",
"'  c #3D2C48",
"]  c #36314B",
"[  c #39324C",
"{  c #2B2C50",
"}  c #29325F",
"|  c #343357",
" . c #3B3651",
".. c #3E3956",
"X. c #34365B",
"o. c #39375A",
"O. c #3C395A",
"+. c #420C44",
"@. c #4B0E44",
"#. c #48074F",
"$. c #460B48",
"%. c #4C0C4E",
"&. c #421644",
"*. c #4A1A44",
"=. c #4D144A",
"-. c #470353",
";. c #4E0B50",
":. c #510C53",
">. c #462C41",
",. c #463849",
"<. c #593945",
"1. c #54394D",
"2. c #5D3C4C",
"3. c #5B2C54",
"4. c #413A57",
"5. c #403B59",
"6. c #4A3D59",
"7. c #613551",
"8. c #5F4546",
"9. c #58414A",
"0. c #5F494C",
"q. c #4C4154",
"w. c #4C4758",
"e. c #554350",
"r. c #644747",
"t. c #6C4E45",
"y. c #654949",
"u. c #765044",
"i. c #76455D",
"p. c #4B4065",
"a. c #4B426A",
"s. c #57456E",
"d. c #7E5067",
"f. c #E52926",
"g. c #AF571C",
"h. c #B67B1F",
"j. c #894728",
"k. c #8C4E2E",
"l. c #925822",
"z. c #93512B",
"x. c #9E572A",
"c. c #815033",
"v. c #8F5E3D",
"b. c #A35C26",
"n. c #A8592B",
"m. c #9C6136",
"M. c #BA6729",
"N. c #B76A2D",
"B. c #B27B26",
"V. c #BE792A",
"C. c #A67438",
"Z. c #C45F1E",
"A. c #DA711A",
"S. c #C16925",
"D. c #CD7725",
"F. c #824A6C",
"G. c #885369",
"H. c #CF8026",
"J. c #9C6796",
"K. c #AA6B88",
/* pixels */
"O O O O O O O O O O O O O O O O O O O O O O O O O O O O O O O O O O O O O O O O O O O O O O O O O O O O O O O O O O O O ",
"O O O O O O O O O O O O O O O O O O O O O O O O O O O O O O O O O O O O O O O O O O O O O O O O O O O O O O O O O O O O ",
"O O O O O O O O O O O O O O O O O O O O O O O O O O O O O O O O O O O O O O O O O O O O O O O O O O O O O O O O O O O O ",
"O O O O O O O O O O O O O O O O O O O O O O O O O O O O O O O O O O O O O O O O O O O O O O O O O O O O O O O O O O O O ",
"O O O O O O O O O O O O O O O O O O O O O O O O O O O O O O O O O O O O O O O O O O O O O O O O O O O O O O O O O O O O ",
"O O O O O O O O O O O O O O O O O O O O O O O O O O O O O O O O O O O O O O O O O O O O O O O O O O O O O O O O O O O O ",
"O O O O O O O O O O O O O O O O O O O O O O O O O O O O O O O O O O O O O O O O O O O O O O O O O O O O O O O O O O O O ",
"O O O O O O O O O O O O O O O O O O O O O O O O O O O O O O O O O O O O O O O O O O O O O O O O O O O O O O O O O O O O ",
"O O O O O O O O O O O O O O O O O O O O O O O O O O O O O O O O O O O O O O O O O O O O O O O O O O O O O O O O O O O O ",
"O O O O O O O O O O O O O O O O O O O O O O O O O O O O O O O O O O O O O O O O O O O O O O O O O O O O O O O O O O O O ",
"O O O O O O O O O O O O O O O O O O O O O O O O O O O O O O O O O O O O O O O O O O O O O O O O O O O O O O O O O O O O ",
"O O O O O O O O O O O O O O O O O O O O O O O O O O O O O O O O O O O O O O O O O O O O O O O O O O O O O O O O O O O O ",
"O O O O O O O O O O O O O O O O O O O O O O O O O O O O O O O O O O O O O O O O O O O O O O O O O O O O O O O O O O O O ",
"O O O O O O O O O O O O O O O O O O O O O O O O O O O O O O O O O O O O O O O O O O O O O O O O O O O O O O O O O O O O ",
"O O O O O O O O O O O O O O O O O O O O O O O O O O O O O O O O O O O O O O O O O O O O O O O O O O O O O O O O O O O O ",
"O O O O O O O O O O O O O O O O O O O O O O O O O O O O O O O O O O O O O O O O O O O O O O O O O O O O O O O O O O O O ",
"O O O O O O O O O O O O O O O O O O O O O O O O O O O O O O O O O O O O O O O O O O O O O O O O O O O O O O O O O O O O ",
"O O O O O O O O O O O O O O O O O O O O O O O O O O O O O O O O O O O O O O O O O O O O O O O O O O O O O O O O O O O O ",
"O O O O O O O O O O O O O O O O O O O O O O O O O O O O O O O O O O O O O O O O O O O O O O O O O O O O O O O O O O O O ",
"O O O O O O O O O O O O O O O O O O O O O O O O O O O O O O O O O O O O O O O O O O O O O O O O O O O O O O O O O O O O ",
"O O O O O O O O O O O O O O O O O O O O O O O O O O O O O O O O O O O O O O O O O O O O O O O O O O O O O O O O O O O O ",
"O O O O O O O O O O O O O O O O O O O O O O O O O O O O O O O O O O O O O O O O O O O O O O O O O O O O O O O O O O O O ",
"O O O O O O O O O O O O O O O O O O O O O O O O O O O O O O O O O O O O O O O O O O O O O O O O O O O O O O O O O O O O ",
"O O O O O O O O O O O O O O O O O O O O O O O O O O O O O O O O O O O O O O O O O O O O O O O O O O O O O O O O O O O O ",
"O O O O O O O O O O O O O O O O O O O O O O O O O O O O O O O O O O O O O O o . O O O O O O O O O O O O O O O O O O O O ",
"O O O O O O O O O O O O O O O O O O O O O O O O O O O O O O O O O O O O O < 8 8 8 O O O O O O O O O O O O O O O O O O O ",
"O O O O O O O O O O O O O O O O O O O O O O O O O O O O O O O O O O O O O . . . o O O O O O O O O O O O O O O O O O O O ",
"O O O O O O O O O O O O O O O O O O O O O O O O O O O O O O O O O O O O O O O O O O O O O O 5 . O O O O O O O O O O O O ",
"O O O O O O O O O O O O O O O O O O O O O O O O O O O O O O O O O O 1 5 5 O O O O g 5 O O O s 5 O O O O O O O O O O O O ",
"O O O O O O O O O O O O O O O O O O O O O e _ _ + O O O O O O O . @ 9 < i p O O Q ;.;.: O O @ D . O O O O O O O O O O O ",
"O O O O O O O O O O O O O O O O O O O O k p.a.s.] O O O O . X 1 8 p g O 8 s @ 5 ;.$.7 $.O O O +.5 O O O O O O O O O O O ",
"O O O O O O O O O O O O O O O O O O O O ` ,.9.o.6.O O O 5 f i $.$.$.=.+.p O O $.;.p o $.# O O +.5 O O O O O O O O O O O ",
"O O O O O O O O O O O O O O O O O O O O m V Z.8.a.O O 9 $.f :.;.:.;.%.%.;.5 g :.d . O s s . o f O O O O O O O O O O O O ",
"O O O O O O O O O O O O O O O O O O O w x V A.R p.< 1 %.Q %.:.%.%.%.%.;.%.%.@.g 8 O O . 8 f +.7 O O O O O O O O O O O O ",
"O O O O O O O O O O O O O O O O O O O I 4 B l.M h a +.p y F #.;.;.%.%.;.%.%.7 1 O < s O O < s @ O O O O O O O O O O O O ",
"O O O O O O O O O O O O O O O O O O + B.U 1 / 3.7 =.=.Q z j >.t ;.%.%.:.f p 5 O O 8 +.# O O O . O O O O O O O O O O O O ",
"O O O O O O O O O O O O O O O O O O + h.C.w.6.6 0 * * S G -.*.; :.;.;.:.i O O O O O p 5 O O O O O O O O O O O O O O O O ",
"O O O O O O O O O O O O O O O O O O @ b.V.H.D.3 = X X ; D %.* ; u ;.;.:.i O O O O O o O O O O O O O O O O O O O O O O O ",
"O O O O O O O O O O O O O O O O O O c 8.A.j.c.6 X N N 5 - r ; A G *.;.d @ O O O O O . O O O O O O O O O O O O O O O O O ",
"O O O O O O O O O O O O O O O O O b ..b G.G.j - % P f.K 0 * D :.%.=.;.8 . O O O O O O O O O O O O O O O O O O O O O O O ",
"O O O O O O O O O O O O O O O O ) ..) ' J.F.; = q j &.=.;.D $.%.f ;.$.< O O O O O O O O O O O O O O O O O O O O O O O O ",
"O O O O O O O O O O O O O O O w ..) y u 2.d.G.2.W :.;.;.;.:.Q g p %.< O O O O O O O O O O O O O O O O O O O O O O O O O ",
"O O O O O O O O O O O O O O O ..J.F *   O @ <.1.J -.:.Q +.a 8 o < < O O O O O O O O O O O O O O O O O O O O O O O O O O ",
"O O O O O O O O O O O O O O + 7.K.: . O O O O @ Y E g 6 i t # O O O O O O O O O O O O O O O O O O O O O O O O O O O O O ",
"O O O O O O O O O   O O O - % i.1.@ O O O O O O H M ! >.L j.O O O O O O O O O O O O O O O O O O O O O O O O O O O O O O ",
"O O O O O O O O O . + : = + . [ v @ O O O O O O > ' r.N.u...l O O O O O O O O O O O O O O O O O O O O O O O O O O O O O ",
"O O O O O O O O O O = & . O O 2 b @ O O O O O O @ t.M.q.X...[ v > O O O O O O O O O O O O O O O O O O O O O O O O O O O ",
"O O O O O O O O O O   O O O O O O O O O O O O O @ M.6.o.....` ! T C O O O O O $ 2 2 2 + O O O O O O O O O O O O O O O O ",
"O O O O O O O O O O O O O O O O O O O O O O O O , R X.5.5.[ ~ c.n.( O O O O 2  .....4.k O O O O O O O O O O O O O O O O ",
"O O O O O O O O O O O O O O O O O O O O O O O O , q.| 5.O.{ k.x.^ ^ v O O ] ..) ( [ [ v O O O O O O O O O O O O O O O O ",
"O O O O O O O O O O O O O O O O O O O O O O O O , e.O.| O.m.z.( ^ ) ) e 2  .) v n n n 2 O O O O O O O O O O O O O O O O ",
"O O O O O O O O O O O O O O O O O O O O O O O O , q.} 0.v.k.! ) ^ ) ) v n n ^ [ ` ( ( 2 O O O O O O O O O O O O O O O O ",
"O O O O O O O O O O O O O O O O O O O O O O O O , m.c.S.y.| b ) ( ( ( ) ( ' ( ..[ ( ( @ O O O O O O O O O O O O O O O O ",
"O O O O O O O O O O O O O O O O O O O O O O O O O g.n.4...5.] b ) ^ ` ` ) [ v ] [ n x O O O O O O O O O O O O O O O O O ",
"O O O O O O O O O O O O O O O O O O O O O O O O O Z r.o.......[ n ` ` [ ..) ) ) ) n @ O O O O O O O O O O O O O O O O O ",
"O O O O O O O O O O O O O O O O O O O O O O O O O O $  ......... ._ ` ..) ) ..` n x O O O O O O O O O O O O O O O O O O ",
"O O O O O O O O O O O O O O O O O O O O O O O O O O O O ] ........[ ` ) ) ..` n k O O O O O O O O O O O O O O O O O O O ",
"O O O O O O O O O O O O O O O O O O O O O O O O O O O O @ x ..........[ ..` b v @ O O O O O O O O O O O O O O O O O O O ",
"O O O O O O O O O O O O O O O O O O O O O O O O O O O O O 2  .........` [ n ) # O O O O O O O O O O O O O O O O O O O O ",
"O O O O O O O O O O O O O O O O O O O O O O O O O O O O O m  . . . . .) v v @ O O O O O O O O O O O O O O O O O O O O O "
};
