/* XPM */
static char *result[] = {
/* columns rows colors chars-per-pixel */
"60 60 160 2 ",
"   c #0F0515",
".  c #150714",
"X  c #150F16",
"o  c #1C0D14",
"O  c #1A0618",
"+  c #160E19",
"@  c #1A0D1C",
"#  c #111111",
"$  c #161519",
"%  c #1A131B",
"&  c #260A14",
"*  c #2B0A15",
"=  c #2C071C",
"-  c #240D1A",
";  c #2C0C1A",
":  c #330D1A",
">  c #3B0E1D",
",  c #221E12",
"<  c #2F2516",
"1  c #342315",
"2  c #1E0B21",
"3  c #1B002C",
"4  c #1E1C24",
"5  c #220B26",
"6  c #2E0826",
"7  c #26052C",
"8  c #29072F",
"9  c #240929",
"0  c #2B0B2D",
"q  c #370D27",
"w  c #3C0F25",
"e  c #330C2B",
"r  c #3F0D2F",
"t  c #2B1F23",
"y  c #231E2C",
"u  c #361427",
"i  c #33172F",
"p  c #3E1A2E",
"a  c #200431",
"s  c #2C0534",
"d  c #2D0932",
"f  c #330B36",
"g  c #3C0B33",
"h  c #36083A",
"j  c #3B0A3E",
"k  c #251C32",
"l  c #391A38",
"z  c #23212C",
"x  c #322221",
"c  c #3A2926",
"v  c #33252C",
"b  c #272432",
"n  c #292636",
"m  c #272239",
"M  c #2E263D",
"N  c #30273F",
"B  c #362B3D",
"V  c #382B39",
"C  c #442916",
"Z  c #4B3218",
"A  c #410E3E",
"S  c #441F39",
"D  c #7A1A22",
"F  c #432429",
"G  c #582929",
"H  c #412333",
"J  c #492134",
"K  c #44223B",
"L  c #50243D",
"P  c #47333B",
"I  c #4B333B",
"U  c #653B21",
"Y  c #6D3F39",
"T  c #734017",
"R  c #5F433B",
"E  c #714431",
"W  c #7B4A32",
"Q  c #774B3F",
"!  c #3E0741",
"~  c #3D0A42",
"^  c #2D1442",
"/  c #3D1448",
"(  c #3A1F48",
")  c #1D2144",
"_  c #2B2543",
"`  c #292840",
"'  c #272348",
"]  c #2D294B",
"[  c #302740",
"{  c #322A43",
"}  c #3A2D43",
"|  c #362F49",
" . c #343046",
".. c #37314B",
"X. c #39324D",
"o. c #2F2F54",
"O. c #2F335D",
"+. c #353453",
"@. c #3B3652",
"#. c #3F3A57",
"$. c #35395C",
"%. c #3C3959",
"&. c #430C45",
"*. c #4A0D45",
"=. c #460B49",
"-. c #4C0C4E",
";. c #441249",
":. c #4F114D",
">. c #401D4A",
",. c #4E0C51",
"<. c #510C53",
"1. c #492F4A",
"2. c #433B4A",
"3. c #463454",
"4. c #433A56",
"5. c #403C59",
"6. c #53345B",
"7. c #643246",
"8. c #61394F",
"9. c #443E65",
"0. c #4E3F62",
"q. c #5F4947",
"w. c #55424E",
"e. c #594A50",
"r. c #6E4A44",
"t. c #644D4C",
"y. c #764B41",
"u. c #684358",
"i. c #7B4C5E",
"p. c #77614A",
"a. c #55456C",
"s. c #6A476C",
"d. c #7A567C",
"f. c #A61A20",
"g. c #9C302B",
"h. c #9F4A13",
"j. c #904F2F",
"k. c #8F5423",
"l. c #9B5F2D",
"z. c #805134",
"x. c #86503A",
"c. c #935535",
"v. c #9A5E33",
"b. c #A24D27",
"n. c #A95A2A",
"m. c #9C6236",
"M. c #966038",
"N. c #AD652E",
"B. c #B86728",
"V. c #D2771F",
"C. c #C56820",
"Z. c #CC7423",
"A. c #C77922",
"S. c #925C71",
"D. c #D98D23",
"F. c #CA942B",
"G. c #986086",
"H. c #A26486",
"J. c #A26992",
"K. c #A86C91",
/* pixels */
"# # # # # # # # # # # # # # # # # # # # # # # # # # # # # # # # # # # # # # # # # # # # # # # # # # # # # # # # # # # # ",
"# # # # # # # # # # # # # # # # # # # # # # # # # # # # # # # # # # # # # # # # # # # # # # # # # # # # # # # # # # # # ",
"# # # # # # # # # # # # # # # # # # # # # # # # # # # # # # # # # # # # # # # # # # # # # # # # # # # # # # # # # # # # ",
"# # # # # # # # # # # # # # # # # # # # # # # # # # # # # # # # # # # # # # # # # # # # # # # # # # # # # # # # # # # # ",
"# # # # # # # # # # # # # # # # # # # # # # # # # # # # # # # # # # # # # # # # # # # # # # # # # # # # # # # # # # # # ",
"# # # # # # # # # # # # # # # # # # # # # # # # # # # # # # # # # # # # # # # # # # # # # # # # # # # # # # # # # # # # ",
"# # # # # # # # # # # # # # # # # # # # # # # # # # # # # # # # # # # # # # # # # # # # # # # # # # # # # # # # # # # # ",
"# # # # # # # # # # # # # # # # # # # # # # # # # # # # # # # # # # # # # # # # # # # # # # # # # # # # # # # # # # # # ",
"# # # # # # # # # # # # # # # # # # # # # # # # # # # # # # # # # # # # # # # # # # # # # # # # # # # # # # # # # # # # ",
"# # # # # # # # # # # # # # # # # # # # # # # # # # # # # # # # # # # # # # # # # # # # # # # # # # # # # # # # # # # # ",
"# # # # # # # # # # # # # # # # # # # # # # # # # # # # # # # # # # # # # # # # # # # # # # # # # # # # # # # # # # # # ",
"# # # # # # # # # # # # # # # # # # # # # # # # # # # # # # # # # # # # # # # # # # # # # # # # # # # # # # # # # # # # ",
"# # # # # # # # # # # # # # # # # # # # # # # # # # # # # # # # # # # # # # # # # # # # # # # # # # # # # # # # # # # # ",
"# # # # # # # # # # # # # # # # # # # # # # # # # # # # # # # # # # # # # # # # # # # # # # # # # # # # # # # # # # # # ",
"# # # # # # # # # # # # # # # # # # # # # # # # # # # # # # # # # # # # # # # # # # # # # # # # # # # # # # # # # # # # ",
"# # # # # # # # # # # # # # # # # # # # # # # # # # # # # # # # # # # # # # # # # # # # # # # # # # # # # # # # # # # # ",
"# # # # # # # # # # # # # # # # # # # # # # # # # # # # # # # # # # # # # # # # # # # # # # # # # # # # # # # # # # # # ",
"# # # # # # # # # # # # # # # # # # # # # # # # # # # # # # # # # # # # # # # # # # # # # # # # # # # # # # # # # # # # ",
"# # # # # # # # # # # # # # # # # # # # # # # # # # # # # # # # # # # # # # # # # # # # # # # # # # # # # # # # # # # # ",
"# # # # # # # # # # # # # # # # # # # # # # # # # # # # # # # # # # # # # # # # # # # # # # # # # # # # # # # # # # # # ",
"# # # # # # # # # # # # # # # # # # # # # # # # # # # # # # # # # # # # # # # # # # # # # # # # # # # # # # # # # # # # ",
"# # # # # # # # # # # # # # # # # # # # # # # # # # # # # # # # # # # # # # # # # # # # # # # X # # # # # # # # # # # # ",
"# # # # # # # # # # # # # # # # # # # # # # # # # # # # # # # # # # # # # # X X + + X # # # X @ + # # # # # # # # # # # ",
"# # # # # # # # # # # # # # # # # # # # # # # # # # # # # # # # # # # # # # @ @ 5 9 X # # # + 5 7 X # # # # # # # # # # ",
"# # # # # # # # # # # # # # # # # # # # # # # # # # # # # # # # # # # # # # # # # X @ # # # # # @ @ # # # # # # # # # # ",
"# # # # # # # # # # # # # # # # # # # # # # # # # # # # # # # # # # # # # # # # # # # # # # # # X + # # # # # # # # # # ",
"# # # # # # # # # # # # # # # # # # # # # # # # # # # # # # # # # # # # # # # # # # # # # # # # X # # # # # # # # # # # ",
"# # # # # # # # # # # # # # # # # # # # # # # # # # # # # # # # # # # X # # # # # # # # # # # # # # # # # # # # # # # # ",
"# # # # # # # # # # # # # # # # # # # # # # # ` 3.$ # # # # # # X 5 5 $ # X # # # @ j % $ X # # # # # # # # # # # # # # ",
"# # # # # # # # # # # # # # # # # # # # # # @.a.a.0.$ # # # X X d -.-.&.0 2 $ # @ =.&.-.&.# # # # # # # # # # # # # # # ",
"# # # # # # # # # # # # # # # # # # # # # # +.7.%.a.4 # # # 7 7 j <.,.,.-.f @ # ! -.9 2 h &.# # # # # # # # # # # # # # ",
"# # # # # # # # # # # # # # # # # # # # # $ n h.q.9.0.# + 9 7 8 <.-.-.-.-.-.&.0 -.h @ # X f f # # # # # # # # # # # # # ",
"# # # # # # # # # # # # # # # # # # # # # 2.  B.R $.( O 2 7 d s <.,.-.,.-.,.,.-.-.5 X # # @ j X # # # # # # # # # # # # ",
"# # # # # # # # # # # # # # # # # # # # , Q   U B R 7 s ~ j V u -.-.-.-.,.-.-.=.d 2 # $ # # 9 + X X # # # # # # # # # # ",
"# # # # # # # # # # # # # # # # # # # # < F.Z ' 3.q 7 g *.K H S H -.-.<.,.,.,.~ 2 # # 2 % # 2 d X @ # # # # # # # # # # ",
"# # # # # # # # # # # # # # # # # # # # < D.p.e.8 7 & * : p ,.,.p :.<.-.,.=.,.2 # # # X ! # + 9 X # # # # # # # # # # # ",
"# # # # # # # # # # # # # # # # # # # # 4 Z.A.V.a = & . O > *.r * F -.=.h 7 ! # # # # # 9 # # # # # # # # # # # # # # # ",
"# # # # # # # # # # # # # # # # # # # $ ..l.b.Y 6 & : f.D - : > w S l h 7 5 @ # # # # # + # # # # # # # # # # # # # # # ",
"# # # # # # # # # # # # # # # # # # 4 %...V K.6.> & & g.g./ = w <.,.-.<.! 2 # # # # # # # # # # # # # # # # # # # # # # ",
"# # # # # # # # # # # # # # # # # y %.@.` s.J.7.e e A / ;.-.*.*.<.,.=.=.d X # # # # # # # # # # # # # # # # # # # # # # ",
"# # # # # # # # # # # # # # # # z %.4.i u J P S.1.3 -.,.,.,.,.,.,.d 9 9 + # # # # # # # # # # # # # # # # # # # # # # # ",
"# # # # # # # # # # # # # # # # X.d.G.: & X # t } G j <.-.<.-.-.j + X # # # # # # # # # # # # # # # # # # # # # # # # # ",
"# # # # # # # # # # # # # # # o L H.i.# # # # # $ E V ( -.! >.^ k # # # # # # # # # # # # # # # # # # # # # # # # # # # ",
"# # # # # # # # # # # # # # ; & 8.u.} # # # # # # x j.) l ] $.e.q.1 # # # # # # # # # # # # # # # # # # # # # # # # # # ",
"# # # # # # # # # # # # - ; o # { ..m $ # # # # # # C M w.z.M.B.N.c # # # # # # # # # # # # # # # # # # # # # # # # # # ",
"# # # # # # # # # # # , * o # # # n z # # # # # # # Z k.N.Q r.#.4.` # # # # # # # # # # # # # # # # # # # # # # # # # # ",
"# # # # # # # # # # # # # # # # # # # # # # # # # T C.t.4.O.O.%.%.| X # # # # # # # # # # # # # # # # # # # # # # # # # ",
"# # # # # # # # # # # # # # # # # # # # # # # # n Q n.c.m.y.t.%.o._ 4 # # # # # # # # # # # # # # # # # # # # # # # # # ",
"# # # # # # # # # # # # # # # # # # # # # # # #  .%.%.%.w.Q v.x.v.I P % # # # # # # # # # # # # # # # # # # # # # # # # ",
"# # # # # # # # # # # # # # # # # # # # # # # #  .5.#.%.%.%.%.w.j.W z.v # # # # # # # # # # # # # # # # # # # # # # # # ",
"# # # # # # # # # # # # # # # # # # # # # # # # b 5.#.#.%.#.#.%.$._ _ _ $ # # # # # # # # # # # # # # # # # # # # # # # ",
"# # # # # # # # # # # # # # # # # # # # # # # # # z #.#.#.#.#.5.@.{ [ [ N $ # # # # # # # # # # # # # # # # # # # # # # ",
"# # # # # # # # # # # # # # # # # # # # # # # # # # z #.5.#.#.#.#.{ [ { { y # # # # # # # # # # # # # # # # # # # # # # ",
"# # # # # # # # # # # # # # # # # # # # # # # # # # # b #.#.5.5.5.....{ { M $ # # # # # # # # # # # # # # # # # # # # # ",
"# # # # # # # # # # # # # # # # # # # # # # # # # # # $  .#.#.#.5.@.| ..M { y # # # # # # # # # # # # # # # # # # # # # ",
"# # # # # # # # # # # # # # # # # # # # # # # # # # # # #  .#.#.#.5.#.{ { [ [ y # # # # # # # # # # # # # # # # # # # # ",
"# # # # # # # # # # # # # # # # # # # # # # # # # # # # # # n @.4.#.@.| | M [ M $ # # # # # # # # # # # # # # # # # # # ",
"# # # # # # # # # # # # # # # # # # # # # # # # # # # # # # # $ ..@.{ | { ..[ { y # # # # # # # # # # # # # # # # # # # ",
"# # # # # # # # # # # # # # # # # # # # # # # # # # # # # # # # $ M { ..X.| N N N # # # # # # # # # # # # # # # # # # # ",
"# # # # # # # # # # # # # # # # # # # # # # # # # # # # # # # # X y N N M M M M 4 # # # # # # X # # # # # # # # # # # # "
};
