/* XPM */
static char *result[] = {
/* columns rows colors chars-per-pixel */
"60 60 168 2 ",
"   c #1D080F",
".  c #170715",
"X  c #150F16",
"o  c #1D0E14",
"O  c #170F18",
"+  c #190D1C",
"@  c #111111",
"#  c #1C1015",
"$  c #1A1817",
"%  c #161519",
"&  c #1A141D",
"*  c #1A191F",
"=  c #280616",
"-  c #250A14",
";  c #2A0915",
":  c #2C0C1A",
">  c #340C1C",
",  c #291C13",
"<  c #20111E",
"1  c #341C14",
"2  c #3A3115",
"3  c #1F0B23",
"4  c #1D1A23",
"5  c #1C1D2C",
"6  c #1B0B35",
"7  c #181130",
"8  c #230C26",
"9  c #26052C",
"0  c #2B072F",
"q  c #2A0C2C",
"w  c #390F20",
"e  c #33092B",
"r  c #211021",
"t  c #201B27",
"y  c #281F2E",
"u  c #391524",
"i  c #3A152B",
"p  c #2C0733",
"a  c #2D0832",
"s  c #29033B",
"d  c #330B36",
"f  c #37033E",
"g  c #35093A",
"h  c #3A0B3C",
"j  c #2D1B3C",
"k  c #3A1937",
"l  c #282123",
"z  c #26212E",
"x  c #34222D",
"c  c #3B2028",
"v  c #262231",
"b  c #2A2435",
"n  c #292837",
"m  c #2E263D",
"M  c #2E2B3D",
"N  c #392831",
"B  c #31253E",
"V  c #302D3F",
"C  c #482219",
"Z  c #4F2B1B",
"A  c #473518",
"S  c #4D3518",
"D  c #54381D",
"F  c #421B2B",
"G  c #420D30",
"H  c #420C3B",
"J  c #44183E",
"K  c #442B38",
"L  c #5E2836",
"P  c #44313F",
"I  c #4E323A",
"U  c #573636",
"Y  c #753F35",
"T  c #7C4D2A",
"R  c #6A4738",
"E  c #744232",
"W  c #784B34",
"Q  c #370442",
"!  c #3E0844",
"~  c #391C45",
"^  c #1B2149",
"/  c #172455",
"(  c #252343",
")  c #2E2742",
"_  c #2F2B45",
"`  c #292748",
"'  c #2F2D4D",
"]  c #302740",
"[  c #322942",
"{  c #352E49",
"}  c #3B2948",
"|  c #343147",
" . c #36324B",
".. c #39334D",
"X. c #2C2E55",
"o. c #3B3651",
"O. c #3F3A57",
"+. c #33355B",
"@. c #3D3A59",
"#. c #373A62",
"$. c #430B46",
"%. c #460B49",
"&. c #4B0C4D",
"*. c #4D1B45",
"=. c #401248",
"-. c #4F114F",
";. c #50104F",
":. c #4E0B51",
">. c #510C53",
",. c #462F47",
"<. c #552F46",
"1. c #42324C",
"2. c #543740",
"3. c #433653",
"4. c #403B57",
"5. c #413B58",
"6. c #433D66",
"7. c #653D63",
"8. c #59474C",
"9. c #524151",
"0. c #5E5454",
"q. c #674545",
"w. c #6B4542",
"e. c #644C4B",
"r. c #714740",
"t. c #714D42",
"y. c #7B5243",
"u. c #524266",
"i. c #534369",
"p. c #7A4F63",
"a. c #6E5173",
"s. c #93181E",
"d. c #981821",
"f. c #88292C",
"g. c #BB2C29",
"h. c #B1591E",
"j. c #8D4B2B",
"k. c #994F27",
"l. c #855A23",
"z. c #9A522B",
"x. c #854F30",
"c. c #8F5E3C",
"v. c #A45526",
"b. c #AB5725",
"n. c #AD5824",
"m. c #A35829",
"M. c #B45B23",
"N. c #9D6437",
"B. c #B7662C",
"V. c #BA6A2A",
"C. c #A57335",
"Z. c #CA651D",
"A. c #D5791D",
"S. c #C26524",
"D. c #C06826",
"F. c #CC6E21",
"G. c #C67525",
"H. c #C07629",
"J. c #D57620",
"K. c #D07B25",
"L. c #84556B",
"P. c #8D5475",
"I. c #975C72",
"U. c #E5801F",
"Y. c #855886",
"T. c #92608A",
"R. c #A06486",
"E. c #A56A94",
/* pixels */
"@ @ @ @ @ @ @ @ @ @ @ @ @ @ @ @ @ @ @ @ @ @ @ @ @ @ @ @ @ @ @ @ @ @ @ @ @ @ @ @ @ @ @ @ @ @ @ @ @ @ @ @ @ @ @ @ @ @ @ @ ",
"@ @ @ @ @ @ @ @ @ @ @ @ @ @ @ @ @ @ @ @ @ @ @ @ @ @ @ @ @ @ @ @ @ @ @ @ @ @ @ @ @ @ @ @ @ @ @ @ @ @ @ @ @ @ @ @ @ @ @ @ ",
"@ @ @ @ @ @ @ @ @ @ @ @ @ @ @ @ @ @ @ @ @ @ @ @ @ @ @ @ @ @ @ @ @ @ @ @ @ @ @ @ @ @ @ @ @ @ @ @ @ @ @ @ @ @ @ @ @ @ @ @ ",
"@ @ @ @ @ @ @ @ @ @ @ @ @ @ @ @ @ @ @ @ @ @ @ @ @ @ @ @ @ @ @ @ @ @ @ @ @ @ @ @ @ @ @ @ @ @ @ @ @ @ @ @ @ @ @ @ @ @ @ @ ",
"@ @ @ @ @ @ @ @ @ @ @ @ @ @ @ @ @ @ @ @ @ @ @ @ @ @ @ @ @ @ @ @ @ @ @ @ @ @ @ @ @ @ @ @ @ @ @ @ @ @ @ @ @ @ @ @ @ @ @ @ ",
"@ @ @ @ @ @ @ @ @ @ @ @ @ @ @ @ @ @ @ @ @ @ @ @ @ @ @ @ @ @ @ @ @ @ @ @ @ @ @ @ @ @ @ @ @ @ @ @ @ @ @ @ @ @ @ @ @ @ @ @ ",
"@ @ @ @ @ @ @ @ @ @ @ @ @ @ @ @ @ @ @ @ @ @ @ @ @ @ @ @ @ @ @ @ @ @ @ @ @ @ @ @ @ @ @ @ @ @ @ @ @ @ @ @ @ @ @ @ @ @ @ @ ",
"@ @ @ @ @ @ @ @ @ @ @ @ @ @ @ @ @ @ @ @ @ @ @ @ @ @ @ @ @ @ @ @ @ @ @ @ @ @ @ @ @ @ @ @ @ @ @ @ @ @ @ @ @ @ @ @ @ @ @ @ ",
"@ @ @ @ @ @ @ @ @ @ @ @ @ @ @ @ @ @ @ @ @ @ @ @ @ @ @ @ @ @ @ @ @ @ @ @ @ @ @ @ @ @ @ @ @ @ @ @ @ @ @ @ @ @ @ @ @ @ @ @ ",
"@ @ @ @ @ @ @ @ @ @ @ @ @ @ @ @ @ @ @ @ @ @ @ @ @ @ @ @ @ @ @ @ @ @ @ @ @ @ @ @ @ @ @ @ @ @ @ @ @ @ @ @ @ @ @ @ @ @ @ @ ",
"@ @ @ @ @ @ @ @ @ @ @ @ @ @ @ @ @ @ @ @ @ @ @ @ @ @ @ @ @ @ @ @ @ @ @ @ @ @ @ @ @ @ @ @ @ @ @ @ @ @ @ @ @ @ @ @ @ @ @ @ ",
"@ @ @ @ @ @ @ @ @ @ @ @ @ @ @ @ @ @ @ @ @ @ @ @ @ @ @ @ @ @ @ @ @ @ @ @ @ @ @ @ @ @ @ @ @ @ @ @ @ @ @ @ @ @ @ @ @ @ @ @ ",
"@ @ @ @ @ @ @ @ @ @ @ @ @ @ @ @ @ @ @ @ @ @ @ @ @ @ @ @ @ @ @ @ @ @ @ @ @ @ @ @ @ @ @ @ @ @ @ @ @ @ @ @ @ @ @ @ @ @ @ @ ",
"@ @ @ @ @ @ @ @ @ @ @ @ @ @ @ @ @ @ @ @ @ @ @ @ @ @ @ @ @ @ @ @ @ @ @ @ @ @ @ @ @ @ @ @ @ @ @ @ @ @ @ @ @ @ @ @ @ @ @ @ ",
"@ @ @ @ @ @ @ @ @ @ @ @ @ @ @ @ @ @ @ @ @ @ @ @ @ @ @ @ @ @ @ @ @ @ @ @ @ @ @ @ @ @ @ @ @ @ @ @ @ @ @ @ @ @ @ @ @ @ @ @ ",
"@ @ @ @ @ @ @ @ @ @ @ @ @ @ @ @ @ @ @ @ @ @ @ @ @ @ @ @ @ @ @ @ @ @ @ @ @ @ @ @ @ @ @ @ @ @ @ @ @ @ @ @ @ @ @ @ @ @ @ @ ",
"@ @ @ @ @ @ @ @ @ @ @ @ @ @ @ @ @ @ @ @ @ @ @ @ @ @ @ @ @ @ @ @ @ @ @ @ @ @ @ @ @ @ @ @ @ @ @ @ @ @ @ @ @ @ @ @ @ @ @ @ ",
"@ @ @ @ @ @ @ @ @ @ @ @ @ @ @ @ @ @ @ @ @ @ @ @ @ @ @ @ @ @ @ @ @ @ @ @ @ @ @ @ @ @ @ @ @ @ @ @ @ @ @ @ @ @ @ @ @ @ @ @ ",
"@ @ @ @ @ @ @ @ @ @ @ @ @ @ @ @ @ @ @ @ @ @ @ @ @ @ @ @ @ @ @ @ @ @ @ @ @ @ @ @ @ @ @ @ @ @ @ @ @ @ @ @ @ @ @ @ @ @ @ @ ",
"@ @ @ @ @ @ @ @ @ @ @ @ @ @ @ @ @ @ @ @ @ @ @ @ @ @ @ @ @ @ @ @ @ @ @ @ @ @ @ @ @ @ @ @ @ @ @ @ @ @ @ @ @ @ @ @ @ @ @ @ ",
"@ @ @ @ @ @ @ @ @ @ @ @ @ @ @ @ @ @ @ @ @ @ @ @ @ @ @ @ @ @ @ @ @ @ @ @ @ @ @ @ @ @ @ @ @ @ @ @ @ @ @ @ @ @ @ @ @ @ @ @ ",
"@ @ @ @ @ @ @ @ @ @ @ @ @ @ @ @ @ @ @ @ @ @ @ @ @ @ @ @ @ @ @ @ @ @ @ @ @ @ @ @ @ @ @ O X @ @ @ @ @ @ @ @ @ @ @ @ @ @ @ ",
"@ @ @ @ @ @ @ @ @ @ @ @ @ @ @ @ @ @ @ @ @ @ @ @ @ @ @ @ @ @ @ @ @ @ @ @ @ @ @ @ @ @ @ X O @ @ @ @ @ @ @ @ @ @ @ @ @ @ @ ",
"@ @ @ @ @ @ @ @ @ @ @ @ @ @ @ @ @ @ @ @ @ @ @ @ @ @ @ @ @ @ @ @ @ @ @ @ @ @ @ @ @ @ @ @ @ @ @ @ @ @ @ @ @ @ @ @ @ @ @ @ ",
"@ @ @ @ @ @ @ @ @ @ @ @ @ @ @ @ @ @ @ @ @ @ @ @ @ @ @ @ @ @ @ @ @ @ @ @ @ @ @ @ @ @ @ @ @ @ @ @ @ @ @ @ @ @ @ @ @ @ @ @ ",
"@ @ @ @ @ @ @ @ @ @ @ @ @ @ @ @ @ @ @ @ @ @ @ @ @ @ @ @ @ @ @ @ @ @ @ @ O 3 3 X @ @ @ @ @ @ @ @ @ @ @ @ @ @ @ @ @ @ @ @ ",
"@ @ @ @ @ @ @ @ @ @ @ @ @ @ @ @ @ @ @ @ @ @ @ @ @ @ @ @ @ @ @ @ @ @ @ O 3 9 0 8 @ @ @ @ @ @ @ @ @ @ @ @ @ @ @ @ @ @ @ @ ",
"@ @ @ @ @ @ @ @ @ @ @ @ @ @ @ @ @ @ @ @ @ @ @ o @ @ @ @ @ @ @ @ @ @ @ O @ X 3 O @ @ @ @ @ @ @ @ @ @ @ @ @ @ @ @ @ @ @ @ ",
"@ @ @ @ @ @ @ @ @ @ @ @ @ @ @ @ @ @ @ @ @ @ z 3.1.t @ @ @ @ @ @ O @ @ @ @ @ @ X @ @ @ @ @ @ @ X @ @ @ @ @ @ @ @ @ @ @ @ ",
"@ @ @ @ @ @ @ @ @ @ @ @ @ @ @ @ @ @ @ @ @ b 6.6.i.u.* @ @ @ + d h d + % @ @ d d & @ @ @ @ @ & + @ @ @ @ @ @ @ @ @ @ @ @ ",
"@ @ @ @ @ @ @ @ @ @ @ @ @ @ @ @ @ @ @ @ @ | P w.+.i.z @ @ O %.:.>.f g h q h :.&.H q @ @ @ 8 3 @ @ @ @ @ @ @ @ @ @ @ @ @ ",
"@ @ @ @ @ @ @ @ @ @ @ @ @ @ @ @ @ @ @ @ @ V C Z.y.#.u.@ + 0 &.&.&.$.&.8 h %.%.3 O d q X @ $.8 @ @ @ @ @ @ @ @ @ @ @ @ @ ",
"@ @ @ @ @ @ @ @ @ @ @ @ @ @ @ @ @ @ @ @ $ x Z U.T +.} g 0 9 $.&.>.>.:.g a >.a O @ @ q q h + @ @ @ @ @ @ @ @ @ @ @ @ @ @ ",
"@ @ @ @ @ @ @ @ @ @ @ @ @ @ @ @ @ @ @ @ 2 z 1 T ,.j 9 a p 0 N ;.&.&.>.h p :.8 X @ @ q & + @ @ @ @ @ @ @ @ @ @ @ @ @ @ @ ",
"@ @ @ @ @ @ @ @ @ @ @ @ @ @ @ @ @ @ @ @ S l.7 X.7.f h H q x i K i >.:.$.a f 8 @ @ @ 8 d @ @ @ @ @ @ @ @ @ @ @ @ @ @ @ @ ",
"@ @ @ @ @ @ @ @ @ @ @ @ @ @ @ @ @ @ @ @ A C.0.8.s H ; ; > F q J u ;.&.:.%.d 8 @ @ @ @ d 8 @ @ @ @ @ @ @ @ @ @ @ @ @ @ @ ",
"@ @ @ @ @ @ @ @ @ @ @ @ @ @ @ @ @ @ @ @ l G.A.A.Q e = . . > H ; > c -.:.>.g 3 @ @ @ @ q h @ @ @ @ @ @ @ @ @ @ @ @ @ @ @ ",
"@ @ @ @ @ @ @ @ @ @ @ @ @ @ @ @ @ @ @ * 1.S.E W L = : d.s.< > > G J *.&.&.p @ @ @ @ @ & r @ @ @ @ @ @ @ @ @ @ @ @ @ @ @ ",
"@ @ @ @ @ @ @ @ @ @ @ @ @ @ @ @ @ @ * O.| L.Y.j > = = f.g.~ > h &.:.&.&.%.8 @ @ @ @ @ @ @ @ @ @ @ @ @ @ @ @ @ @ @ @ @ @ ",
"@ @ @ @ @ @ @ @ @ @ @ @ @ @ @ @ @ * o...[ T.P.F i e 0 k =.;.&.g 0 >.&.&.a O @ @ @ @ @ @ @ @ @ @ @ @ @ @ @ @ @ @ @ @ @ @ ",
"@ @ @ @ @ @ @ @ @ @ @ @ @ @ @ @ 5 o.5.B w K p.I.0.6 9 >.&.>.&.a 0 h 9 8 O @ @ @ @ @ @ @ @ @ @ @ @ @ @ @ @ @ @ @ @ @ @ @ ",
"@ @ @ @ @ @ @ @ @ @ @ @ @ @ @ @ { a.E.;   @ $ N ,.W i ! >.%.%.9 8 + @ X @ @ @ @ @ @ @ @ @ @ @ @ @ @ @ @ @ @ @ @ @ @ @ @ ",
"@ @ @ @ @ @ @ @ @ @ @ @ @ @ @ o i R.I.X @ @ @ @ y x.U 9 Q Q a % X @ @ @ @ @ @ @ @ @ @ @ @ @ @ @ @ @ @ @ @ @ @ @ @ @ @ @ ",
"@ @ @ @ @ @ @ @ @ @ @ @ @ # : - <.p.1.@ @ @ 4 b ( [ n.( U v.2.* @ @ @ @ @ @ @ @ @ @ @ @ @ @ @ @ @ @ @ @ @ @ @ @ @ @ @ @ ",
"@ @ @ @ @ @ @ @ @ @ @ @ : : o o n  .) @ @ 4 B ) R x.R q.B.9.@.O.4 @ @ @ @ @ @ @ @ @ @ @ @ @ @ @ @ @ @ @ @ @ @ @ @ @ @ @ ",
"@ @ @ @ @ @ @ @ @ @ @ @ o @ @ @ @ n v @ % ) [ [ A.J.H.F.9.+.@.@.4.5 @ @ @ @ @ @ @ @ @ @ @ @ @ @ @ @ @ @ @ @ @ @ @ @ @ @ ",
"@ @ @ @ @ @ @ @ @ @ @ @ @ @ @ @ @ @ @ @ b B { [ B.J.K.F.V.e.@.5.+.4.D @ @ @ @ @ @ @ @ @ @ @ @ @ @ @ @ @ @ @ @ @ @ @ @ @ ",
"@ @ @ @ @ @ @ @ @ @ @ @ @ @ @ @ @ @ @ & ( [ { B } z.G.I k.Z.y.+.e.V.t.z @ @ @ @ @ @ @ @ @ @ @ @ @ @ @ @ @ @ @ @ @ @ @ @ ",
"@ @ @ @ @ @ @ @ @ @ @ @ @ @ @ @ @ @ @ , T m '  .{ ^ m...X.I D.e.N.q.+.5.n % @ X @ @ @ @ @ @ @ @ @ @ @ @ @ @ @ @ @ @ @ @ ",
"@ @ @ @ @ @ @ @ @ @ @ @ @ @ @ @ @ @ @ , h.j.U [ ../ z._ ( X.W c.+.@.4.4.O.O.| z z % @ @ @ @ @ @ @ @ @ @ @ @ @ @ @ @ @ @ ",
"@ @ @ @ @ @ @ @ @ @ @ @ @ @ @ @ @ @ @ @ x M.S.M.j.I n.r.q.w.Y ` ....O.o.O.O.O.O.4.| | % @ @ @ @ @ @ @ @ @ @ @ @ @ @ @ @ ",
"@ @ @ @ @ @ @ @ @ @ @ @ @ @ @ @ @ @ @ @ 4 P E b.b.n.v.b.v.I ) B B m  .4.@.O.O.O.4.@.4...* @ @ @ @ @ @ @ @ @ @ @ @ @ @ @ ",
"@ @ @ @ @ @ @ @ @ @ @ @ @ @ @ @ @ @ @ @ @ 5 ` ) ) ) ) ) ) ( [ ..o...{ { O.5.O.5.O.@.4.O.M @ @ @ @ @ @ @ @ @ @ @ @ @ @ @ ",
"@ @ @ @ @ @ @ @ @ @ @ @ @ @ @ @ @ @ @ @ @ 4 ) ) ) ) ) ] [ [ ......[ [ o.4...[ O.O.5.4.O.M @ @ @ @ @ @ @ @ @ @ @ @ @ @ @ ",
"@ @ @ @ @ @ @ @ @ @ @ @ @ @ @ @ @ @ @ @ @ @ 4 m [ [ [ ] [ ..o.{ [ [ ....[ [ [ [ n [ [ V % @ @ @ @ @ @ @ @ @ @ @ @ @ @ @ ",
"@ @ @ @ @ @ @ @ @ @ @ @ @ @ @ @ @ @ @ @ @ @ @ & t m ] ] [ [ [ { { [ [ ) m b z 4 @ @ @ @ @ @ @ @ @ @ @ @ @ @ @ @ @ @ @ @ ",
"@ @ @ @ @ @ @ @ @ @ @ @ @ @ @ @ @ @ @ @ @ @ @ @ @ @ b m [ [ ) m B [ [ m & @ @ @ @ @ @ @ @ @ @ @ @ @ @ @ @ @ @ @ @ @ @ @ ",
"@ @ @ @ @ @ @ @ @ @ @ @ @ @ @ @ @ @ @ @ @ @ @ @ @ @ % @ 4 b [ [ [ t 4 % @ @ @ @ @ @ @ @ @ @ @ @ @ @ @ @ @ @ @ @ @ @ @ @ ",
"@ @ @ @ @ @ @ @ @ @ @ @ @ @ @ @ @ @ @ @ @ @ @ @ @ @ @ @ @ @ % % % @ @ @ @ @ @ @ @ @ @ @ @ @ @ @ @ @ @ @ @ @ @ @ @ @ @ @ ",
"@ @ @ @ @ @ @ @ @ @ @ @ @ @ @ @ @ @ @ @ @ @ @ @ @ @ @ @ @ @ @ @ @ @ @ @ @ @ @ @ @ @ @ @ @ @ @ @ @ @ @ @ @ @ @ @ @ @ @ @ "
};
