/* XPM */
static char *result[] = {
/* columns rows colors chars-per-pixel */
"60 60 176 2 ",
"   c #150613",
".  c #150E14",
"X  c #1E0913",
"o  c #170F18",
"O  c #1A0D1C",
"+  c #111111",
"@  c #181114",
"#  c #161419",
"$  c #19131B",
"%  c #1A191F",
"&  c #240A14",
"*  c #2B0A15",
"=  c #2B0C1B",
"-  c #320C1B",
";  c #3A0F1F",
":  c #211015",
">  c #1E0B21",
",  c #1D1120",
"<  c #1E1B24",
"1  c #141738",
"2  c #210625",
"3  c #230C25",
"4  c #2D0921",
"5  c #25072C",
"6  c #29062F",
"7  c #260A2A",
"8  c #290C2C",
"9  c #340B22",
"0  c #350B2C",
"q  c #201020",
"w  c #281F25",
"e  c #201B28",
"r  c #2D1C29",
"t  c #361021",
"y  c #3B132F",
"u  c #3F1E29",
"i  c #250533",
"p  c #2C0434",
"a  c #2E0B32",
"s  c #3A0436",
"d  c #320B35",
"f  c #38073D",
"g  c #360B3A",
"h  c #3A0A3D",
"j  c #231F32",
"k  c #281F35",
"l  c #39183C",
"z  c #27212D",
"x  c #36212A",
"c  c #262431",
"v  c #2A2435",
"b  c #27243F",
"n  c #2D253B",
"m  c #2A2838",
"M  c #30273F",
"N  c #332A3F",
"B  c #3B2C3F",
"V  c #4E2D16",
"C  c #4C3E13",
"Z  c #471D2E",
"A  c #420C37",
"S  c #481937",
"D  c #44153E",
"F  c #411E38",
"G  c #7E1620",
"H  c #5C2229",
"J  c #4E3528",
"K  c #513629",
"L  c #432536",
"P  c #402F3F",
"I  c #522A3F",
"U  c #5B3736",
"Y  c #52323C",
"T  c #513A3B",
"R  c #58393B",
"E  c #643C34",
"W  c #78561E",
"Q  c #7E442F",
"!  c #654438",
"~  c #774E36",
"^  c #7E4937",
"/  c #744B3E",
"(  c #7D5134",
")  c #191D46",
"_  c #3E0643",
"`  c #3C0A42",
"'  c #242344",
"]  c #2B2543",
"[  c #232449",
"{  c #2B2748",
"}  c #2C2A4B",
"|  c #302740",
" . c #322A43",
".. c #392C42",
"X. c #352E4A",
"o. c #343047",
"O. c #36324A",
"+. c #39334D",
"@. c #2A2C50",
"#. c #302E51",
"$. c #2D315A",
"%. c #3B3551",
"&. c #373855",
"*. c #3E3A56",
"=. c #35365B",
"-. c #3D3A59",
";. c #430B45",
":. c #480A47",
">. c #460C49",
",. c #4B0C4D",
"<. c #451443",
"1. c #4E0C51",
"2. c #510C53",
"3. c #4A2648",
"4. c #493543",
"5. c #463148",
"6. c #583A47",
"7. c #5E394C",
"8. c #433553",
"9. c #423B55",
"0. c #463956",
"q. c #403B58",
"w. c #4B3D5D",
"e. c #463F66",
"r. c #5F494C",
"t. c #514451",
"y. c #584652",
"u. c #684446",
"i. c #744A40",
"p. c #6B5B4E",
"a. c #775143",
"s. c #4D4167",
"d. c #5A476F",
"f. c #5C4874",
"g. c #90161B",
"h. c #B72729",
"j. c #84511E",
"k. c #874227",
"l. c #8D462D",
"z. c #81482F",
"x. c #8A4E2F",
"c. c #955A2E",
"v. c #814930",
"b. c #8C5531",
"n. c #89553B",
"m. c #915132",
"M. c #9E5932",
"N. c #AB5E25",
"B. c #AC5C2D",
"V. c #B45923",
"C. c #8B6235",
"Z. c #AB6825",
"A. c #AC632A",
"S. c #BB6426",
"D. c #B86727",
"F. c #A86732",
"G. c #CE621E",
"H. c #D6771F",
"J. c #E37E1D",
"K. c #C56B24",
"L. c #CD6E21",
"P. c #C77625",
"I. c #D47020",
"U. c #D17B25",
"Y. c #855840",
"T. c #844D6D",
"R. c #83546E",
"E. c #8E5A73",
"W. c #9A6179",
"Q. c #B58A2B",
"!. c #C8822A",
"~. c #E78327",
"^. c #8A5C87",
"/. c #9E6792",
"(. c #A0668C",
"). c #A8709C",
/* pixels */
"+ + + + + + + + + + + + + + + + + + + + + + + + + + + + + + + + + + + + + + + + + + + + + + + + + + + + + + + + + + + + ",
"+ + + + + + + + + + + + + + + + + + + + + + + + + + + + + + + + + + + + + + + + + + + + + + + + + + + + + + + + + + + + ",
"+ + + + + + + + + + + + + + + + + + + + + + + + + + + + + + + + + + + + + + + + + + + + + + + + + + + + + + + + + + + + ",
"+ + + + + + + + + + + + + + + + + + + + + + + + + + + + + + + + + + + + + + + + + + + + + + + + + + + + + + + + + + + + ",
"+ + + + + + + + + + + + + + + + + + + + + + + + + + + + + + + + + + + + + + + + + + + + + + + + + + + + + + + + + + + + ",
"+ + + + + + + + + + + + + + + + + + + + + + + + + + + + + + + + + + + + + + + + + + + + + + + + + + + + + + + + + + + + ",
"+ + + + + + + + + + + + + + + + + + + + + + + + + + + + + + + + + + + + + + + + + + + + + + + + + + + + + + + + + + + + ",
"+ + + + + + + + + + + + + + + + + + + + + + + + + + + + + + + + + + + + + + + + + + + + + + + + + + + + + + + + + + + + ",
"+ + + + + + + + + + + + + + + + + + + + + + + + + + + + + + + + + + + + + + + + + + + + + + + + + + + + + + + + + + + + ",
"+ + + + + + + + + + + + + + + + + + + + + + + + + + + + + + + + + + + + + + + + + + + + + + + + + + + + + + + + + + + + ",
"+ + + + + + + + + + + + + + + + + + + + + + + + + + + + + + + + + + + + + + + + + + + + + + + + + + + + + + + + + + + + ",
"+ + + + + + + + + + + + + + + + + + + + + + + + + + + + + + + + + + + + + + + + + + + + + + + + + + + + + + + + + + + + ",
"+ + + + + + + + + + + + + + + + + + + + + + + + + + + + + + + + + + + + + + + + + + + + + + + + + + + + + + + + + + + + ",
"+ + + + + + + + + + + + + + + + + + + + + + + + + + + + + + + + + + + + + + + + + + + + + + + + + + + + + + + + + + + + ",
"+ + + + + + + + + + + + + + + + + + + + + + + + + + + + + + + + + + + + + + + + + + + + + + + + + + + + + + + + + + + + ",
"+ + + + + + + + + + + + + + + + + + + + + + + + + + + + + + + + + + + + + + + + + + + + + + + + + + + + + + + + + + + + ",
"+ + + + + + + + + + + + + + + + + + + + + + + + + + + + + + + + + + + + + + + + + + + + + + + + + + + + + + + + + + + + ",
"+ + + + + + + + + + + + + + + + + + + + + + + + + + + + + + + + + + + + + + + + + + + + + + + + + + + + + + + + + + + + ",
"+ + + + + + + + + + + + + + + + + + + + + + + + + + + + + + + + + + + + + + + + + + + + + + + + + + + + + + + + + + + + ",
"+ + + + + + + + + + + + + + + + + + + + + + + + + + + + + + + + + + + + + + + + + + + + + + + + + + + + + + + + + + + + ",
"+ + + + + + + + + + + + + + + + + + + + + + + + + + + + + + + + + + + + + + + + + + + + + + + + + + + + + + + + + + + + ",
"+ + + + + + + + + + + + + + + + + + + + + + + + + + + + + + + + + + + + + + + + + + + + + + + + + + + + + + + + + + + + ",
"+ + + + + + + + + + + + + + + + + + + + + + + + + + + + + + + + + + + + + + + + o O + + + + + + + + + + + + + + + + + + ",
"+ + + + + + + + + + + + + + + + + + + + + + + + + + + + + + + + + + + + + + + + o > 3 + + + + + + + + + + + + + + + + + ",
"+ + + + + + + + + + + + + + + + + + + + + + + + + + + + + + + + + + + + + + + + + + $ + + + + + + + + + + + + + + + + + ",
"+ + + + + + + + + + + + + + + + + + + + + + + + + + + + + + + + + + + + + + + + + + + + + + + + + + + + + + + + + + + + ",
"+ + + + + + + + + + + + + + + + + + + + + + + + + + + + + + + + + + O . + + + + + + + + + + + + + + + + + + + + + + + + ",
"+ + + + + + + + + + + + + + + + + + + + + + + + + + + + + + + + O > h g > + + + + d g q + + + + + + + + + + + + + + + + ",
"+ + + + + + + + + + + + + + + + + + + + + # 8.%.c + + + + + + 3 g O 3 ;.h + + + 3 2.;.;.a + + + + + + + + + + + + + + + ",
"+ + + + + + + + + + + + + + + + + + + + # w.s.s.f.n + + +   7 ,.` 8 @ O + + + @ >.;.O $ a o + + + + + + + + + + + + + + ",
"+ + + + + + + + + + + + + + + + + + + + # +./ 9.e.w.+ + O 6 ` 2.h ;.,.8 $ + + d 2.h . + @ d O . + + + + + + + + + + + + ",
"+ + + + + + + + + + + + + + + + + + + + < r G.M.%.d., 5 d 6 f ,.;.:.1.>.>.8 8 2.:.3 + + + 3 a O + + + + + + + + + + + + ",
"+ + + + + + + + + + + + + + + + + + + + -.: ~.Z.#.s.l ` 1.<.f ,.1.1.1.1.1.,.,.;.7 # + + + + # . + + + + + + + + + + + + ",
"+ + + + + + + + + + + + + + + + + + + C %.  j.Y i. .p >.<.L D :.:.1.1.,.1.,.> 3 + + + + + + + + + + + + + + + + + + + + ",
"+ + + + + + + + + + + + + + + + + + + j.Q.r 1 f.u.h h :.F F F u s 1.,.1.1.a 3 >.O + + + + + + + + + + + + + + + + + + + ",
"+ + + + + + + + + + + + + + + + + + + W !.p.y.C._ - * * F 2.>.Z 0 ;.` ,.2.3 h 1.a + + + + + + + + + + + + + + + + + + + ",
"+ + + + + + + + + + + + + + + + + + + K U.P.J.Z.p * X   9 ,.- - t <.1.1.:.> d 1.a + + + + + + + + + + + + + + + + + + + ",
"+ + + + + + + + + + + + + + + + + + # [ P.l.n.y * * G g.- ; ; Z S 3.,.2.:.O :.d . + + + + + + + + + + + + + + + + + + + ",
"+ + + + + + + + + + + + + + + + + + X.X.4./.3.4 = & H h.S * A ,.2.,.1.2.f p f O + + + + + + + + + + + + + + + + + + + + ",
"+ + + + + + + + + + + + + + + + # X.%.k ^.(.Z = 4 ;.l >.2.;.:.,.,.2.>.h 3 3 o + + + + + + + + + + + + + + + + + + + + + ",
"+ + + + + + + + + + + + + + + + O.e...- I u.E.7.;.2.:.1.1.2.1.2.1.:.5 O + + + + + + + + + + + + + + + + + + + + + + + + ",
"+ + + + + + + + + + + + + + + o.t.).3.X + . w 6.` 2.;.2.,.1.>.h ` 5 > + + + + + + + + + + + + + + + + + + + + + + + + + ",
"+ + + + + + + + + + + + + + + - T.W.x + + + + + v p 2.:.p i Z 7 2 O + + + + + + + + + + + + + + + + + + + + + + + + + + ",
"+ + + + + + + + + + + + @ = = = R.5.e + + + + + # k.S a U N.! e + . + + + + + + + + + + + + + + + + + + + + + + + + + + ",
"+ + + + + + + + + + + = = & + < &.n < + + + + + . P B N P.S.&.%.< + + + + + + + + + + + + + + + + + + + + + + + + + + + ",
"+ + + + + + + + + + = * + + + + < m % + + + + @ v ] ) ~ ~.0.=.*.&.< + + + + + + + + + + + + + + + + + + + + + + + + + + ",
"+ + + + + + + + + + + + + + + + + + + + + + + n ' D.( U.I.Y.t.=.*.*.V + + + + + + + + + + + + + + + + + + + + + + + + + ",
"+ + + + + + + + + + + + + + + + + + + + + # n  .{ B.I.K.V.N.K.r.$.F.u.c + + + + + + + + + + + + + + + + + + + + + + + + ",
"+ + + + + + + + + + + + + + + + + + + + + n  . . .X.u.V.E ] / n.a.M.=.-.v + + + + + + + + + + + + + + + + + + + + + + + ",
"+ + + + + + + + + + + + + + + + + + + + @ n  .n X.O.] ..R &.@.-.K.n.=.9.*.c + + + + + + + + + + + + + + + + + + + + + + ",
"+ + + + + + + + + + + + + + + + + + + + # ]  .' ] { } ' ^ P M ) m./ -.*.*.%.# + + + + + + + + + + + + + + + + + + + + + ",
"+ + + + + + + + + + + + + + + + + + + + + J c.A.T T T B Y U ) ! A.*.9.-.*.*.% + + + + + + + + + + + + + + + + + + + + + ",
"+ + + + + + + + + + + + + + + + + + + + + + z b.D.L.H.D.b.K.c.D.0.%.q.*.*.*.O.+ + + + + + + + + + + + + + + + + + + + + ",
"+ + + + + + + + + + + + + + + + + + + + + + + e ] Q Q z.x.v.x.9. .O.q.*.*.*.q.O.# + + + + + + + + + + + + + + + + + + + ",
"+ + + + + + + + + + + + + + + + + + + + + + + + @ j b ' ' ] #. .] *.%.*.*.q.*.q.O.+ + + + + + + + + + + + + + + + + + + ",
"+ + + + + + + + + + + + + + + + + + + + + + + + + + $ n |  . .M X.O. .+.q.*.*.*.*.+ + + + + + + + + + + + + + + + + + + ",
"+ + + + + + + + + + + + + + + + + + + + + + + + + + + @ < < n m M n  .+.%.q.9.-.*.m + + + + + + + + + + + + + + + + + + ",
"+ + + + + + + + + + + + + + + + + + + + + + + + + + + + + + # + < M +.+.o.+.q.9.9.m + + + + + + + + + + + + + + + + + + ",
"+ + + + + + + + + + + + + + + + + + + + + + + + + + + + + + + + + @ j n ] %.*.*.*.+ + + + + + + + + + + + + + + + + + + ",
"+ + + + + + + + + + + + + + + + + + + + + + + + + + + + + + + + + + + $ n %.%.%.c + + + + + + + + + + + + + + + + + + + "
};
