/* XPM */
static char *_eaa66bc9b454f47bb105a9e2e2587c2[] = {
/* columns rows colors chars-per-pixel */
"60 60 97 2 ",
"   c None",
".  c #030303",
"X  c #050709",
"o  c #07090D",
"O  c #0C0C0C",
"+  c #110605",
"@  c #170B0A",
"#  c #1E120F",
"$  c #0B0E12",
"%  c #0C1015",
"&  c #0E131A",
"*  c #141414",
"=  c #11151A",
"-  c #1A1A1A",
";  c #250D0C",
":  c #3A1312",
">  c #3E1B15",
",  c #131A23",
"<  c #161E29",
"1  c #17202C",
"2  c #19222E",
"3  c #1A2432",
"4  c #1E2A3A",
"5  c #242424",
"6  c #2A2621",
"7  c #2A2A2A",
"8  c #352522",
"9  c #37322D",
"0  c #212E3E",
"q  c #323131",
"w  c #3A3A3A",
"e  c #591C1B",
"r  c #55251C",
"t  c #4A2821",
"y  c #433D37",
"u  c #6C2E23",
"i  c #7A2624",
"p  c #763E35",
"a  c #4B443C",
"s  c #222F40",
"d  c #243345",
"f  c #273649",
"g  c #28374B",
"h  c #2A3A4F",
"j  c #2C3D53",
"k  c #2E4057",
"l  c #2F4159",
"z  c #31445C",
"x  c #354A64",
"c  c #384E69",
"v  c #3A516E",
"b  c #3C5472",
"n  c #3F5877",
"m  c gray28",
"M  c #4C4C4D",
"N  c #524A42",
"B  c #515151",
"V  c #5D5D5D",
"C  c #625B55",
"Z  c #6A6055",
"A  c #7B6154",
"S  c #415B7B",
"D  c #626263",
"F  c gray42",
"G  c #766E67",
"H  c #727272",
"J  c #7B7B7B",
"K  c #892B29",
"L  c #A93633",
"P  c #B03835",
"I  c #807467",
"U  c #8A7D6F",
"Y  c #968779",
"T  c #445F80",
"R  c #466284",
"E  c #828283",
"W  c gray61",
"Q  c #A5988A",
"!  c #9C9DA2",
"~  c #A5A3A4",
"^  c #ACACAC",
"/  c #AFAFAF",
"(  c #B9B9B9",
")  c gray75",
"_  c #B9B9B9",
"`  c #C0AB97",
"'  c #C1AF9A",
"]  c #D5C1AB",
"[  c #E3CFB7",
"{  c gray78",
"}  c gray80",
"|  c #D0D0D0",
" . c #D5D5D5",
".. c gray89",
"X. c #E1E1E1",
"o. c #EFEFEF",
"O. c #E9E9E9",
/* pixels */
"                                                                                                                        ",
"                                                                                                                        ",
"                                                                                                                        ",
"                                                                                                                        ",
"                                                                                                                        ",
"                                                                                                                        ",
"                                                                                                                        ",
"                                                                                                                        ",
"                                                                                                                        ",
"                                                                                                    - O *               ",
"                                                                                          $       . O 7 7 7 *           ",
"                                                                                        , j     X * * 5 * 7 7 *         ",
"                                                                                      $ j R     O * - O 7 O 7 7         ",
"                                                                                      $ , * 7 * O X - - ; . . i -       ",
"                                                                                  * 7 7 7 * 7 - O O X * e K + .         ",
"                                                                            . 5 7 7 7 7 7 7 5 * * 7 5 @ P L . :         ",
"                                                                          O 5 & f O - - X 7 7 . - - 7 5 6 ' a *         ",
"                                                                        * 0 , h - 5 { - - * 7 O - O 7 5 * - N           ",
"                                                                      o h h h % 5 D D 7 - - X * O - 5 7 7 7 7           ",
"                                                                    o h h h h 5 O 7 7 7 5 - - - - * * 7 7 7 *           ",
"                                                                    f h h h * O 7 5 7 7 7 - - * * - - * 7 7             ",
"                                                                  4 1 h < q E t O 5 5 7 7 - O * O - * O * O             ",
"                                                                  h , , 7 5 p A ] Q r @ - O T = - - -                   ",
"                                                                , h X 7 7 # $ [ Y U u S R T v = - -                     ",
"                                                            O - , Z ! M 7 ! ! C G I j R S 7 7 * -                       ",
"                                                          5 7 7 $ 9 5 7 ! D q * O f j v R - 7 O                         ",
"                                                        - H - * 7 & ` 8 D q y 7 1 < * * ,                               ",
"                                                      . 7 * O 7 7 7 o > M 7 M - X         .                             ",
"                                                      . - O 7 ( * 7 * w F ~ 5 7 7 * . 5 7 7 M 5                         ",
"                                                    X h O 5 7 7 7 - 7 X.^ * O 5 7 O 7 7 7 - V  .D                       ",
"                                                  . h j h * 5 7 7 7 B o.- * J   X X 5 7 7 W H } J F                     ",
"                                                X h R R R R o - c % | ) 5 5 B X       . . 5 D w ^ *                     ",
"                                              % h R R R R R R R k h h f O 5 c R S &                                     ",
"                                              0 R R R R R R R R s h h h f d z R R R S &                                 ",
"                                            h h , R R R R R R < h h h h h h h & S R R % 1                               ",
"                                          h h h h < R R R R c h h h h h 4 3 h h h 3 & b R R d                           ",
"                                        h h j c c z h d R R g h h h 3 2 h h h h h h j R R R R R                         ",
"                                    & h < R R R R R R x h f h h d , < < h h h h h h R R R R R R R                       ",
"                                  d d j R R R R R R R R x h f = h h o g h h h h h j R R R R R R R v                     ",
"                              $ f % R R R R R R R R R R b h h h h h 0 $ h h h h h j R R R R R R R R %                   ",
"                          $ , 1 l R R R R R R R R R R R h f h h < , h h h < h h h j R R R R R R R R R                   ",
"                        % h h h R R R R R R R R R R R S 3 h h g h , h h h h o h & j R R R R R R R R R 4                 ",
"                        0 h h S R R R R R R R R R R R h h h h h 4 d 2 $ . . . & f j R R R R R R R R R R                 ",
"                    X * h h h R R R R R R R R R R R v 3 h h &                   3 h R R R R R R R R R R 3               ",
"                  - - - d h h R R R R R R R R R R R % h &                         , h R R R R R R R R n f               ",
"                O - - - 1 h h R R R R R R R R R R g d                             . h k R R R R R R z h -               ",
"                - - - - % h h x R R R R R R R R S ,                                 h h h v R b j h h * 7               ",
"              . - - - - O h h h b R R R R R R R .                                   . 3 h h h h h , 5 5 7               ",
"              - - * O * - $ h h h j S R R R R o                                               X * - 7 - 7 .             ",
"            . X 5 - - - .     . . . . . .                                                           * 5 7 O             ",
"            7 7 7 * .                                                                                 5 7 -             ",
"          7 7 7 X                                                                                     - 7 5             ",
"      . 7 7 5 .                                                                                       5 7 5             ",
"    m - - -                                                                                         7 w O 5             ",
"w M * 5 7 7                                                                                       q w 5 7 7 5           ",
"  X - 7 7 7 X                                                                                       X - - 7 7 -         ",
"    . - - 7 7                                                                                           O - - 5 7 *     ",
"      . - - 5 7 .                                                                                         . - O E X.O.X ",
"        X O M B E D                                                                                             - - -   ",
"              - H (                                                                                                     "
};
