/* XPM */
static char *result[] = {
/* columns rows colors chars-per-pixel */
"60 60 163 2 ",
"   c #0F0515",
".  c #150714",
"X  c #150F16",
"o  c #1C0D14",
"O  c #1A0618",
"+  c #160E19",
"@  c #1A0D1C",
"#  c #111111",
"$  c #161519",
"%  c #1A131B",
"&  c #260A14",
"*  c #2B0A15",
"=  c #2C071C",
"-  c #240D1A",
";  c #2C0C1A",
":  c #330D1A",
">  c #3B0E1D",
",  c #221E12",
"<  c #2F2516",
"1  c #342315",
"2  c #1E0B21",
"3  c #1B002C",
"4  c #1E1C24",
"5  c #220B26",
"6  c #2E0826",
"7  c #26052C",
"8  c #29072F",
"9  c #240929",
"0  c #2B0B2D",
"q  c #370D27",
"w  c #3C0F25",
"e  c #330C2B",
"r  c #2B1F23",
"t  c #231E2C",
"y  c #361427",
"u  c #33172F",
"i  c #3E1A2E",
"p  c #200431",
"a  c #2C0534",
"s  c #2D0932",
"d  c #330B36",
"f  c #3C0B33",
"g  c #36083A",
"h  c #3B0A3E",
"j  c #251C32",
"k  c #391A38",
"l  c #23212C",
"z  c #3A2926",
"x  c #33252C",
"c  c #272432",
"v  c #292636",
"b  c #272239",
"n  c #2E263D",
"m  c #2E2B3E",
"M  c #30273F",
"N  c #362B3D",
"B  c #382B39",
"V  c #442916",
"C  c #4B3218",
"Z  c #410E3E",
"A  c #441F39",
"S  c #7A1A22",
"D  c #432429",
"F  c #582929",
"G  c #412333",
"H  c #492134",
"J  c #402930",
"K  c #44223B",
"L  c #50243D",
"P  c #47333B",
"I  c #4B333B",
"U  c #573C3F",
"Y  c #653B21",
"T  c #643E37",
"R  c #6D3F39",
"E  c #734017",
"W  c #5F433B",
"Q  c #714431",
"!  c #7B4A32",
"~  c #774B3F",
"^  c #3E0741",
"/  c #3D0A42",
"(  c #2D1442",
")  c #3A1F48",
"_  c #1D2144",
"`  c #2B2543",
"'  c #272348",
"]  c #2D294B",
"[  c #302740",
"{  c #322A43",
"}  c #3A2D43",
"|  c #362F49",
" . c #343046",
".. c #37314B",
"X. c #39324D",
"o. c #2F2F54",
"O. c #2F335D",
"+. c #353453",
"@. c #3B3652",
"#. c #3F3A57",
"$. c #35395C",
"%. c #3C3959",
"&. c #343561",
"*. c #430C45",
"=. c #4A0D45",
"-. c #460B49",
";. c #4C0C4E",
":. c #491B40",
">. c #441249",
",. c #4F114D",
"<. c #4E0C51",
"1. c #510C53",
"2. c #492F4A",
"3. c #433B4A",
"4. c #463454",
"5. c #433A56",
"6. c #403C59",
"7. c #53345B",
"8. c #643246",
"9. c #61394F",
"0. c #443E65",
"q. c #4E3F62",
"w. c #5F4947",
"e. c #55424E",
"r. c #5E4C4E",
"t. c #594A50",
"y. c #6E4A44",
"u. c #644D4C",
"i. c #764B41",
"p. c #684358",
"a. c #7B4C5E",
"s. c #77614A",
"d. c #55456C",
"f. c #6A476C",
"g. c #7A567C",
"h. c #A61A20",
"j. c #9C2C2E",
"k. c #9C302B",
"l. c #9F4A13",
"z. c #B5661F",
"x. c #8F5423",
"c. c #995029",
"v. c #9B5F2D",
"b. c #824F3B",
"n. c #86503A",
"m. c #935535",
"M. c #9A5E33",
"N. c #A24D27",
"B. c #A95A2A",
"V. c #9C6236",
"C. c #AD652E",
"Z. c #B86728",
"A. c #D2771F",
"S. c #C56820",
"D. c #CC7423",
"F. c #C77922",
"G. c #925C71",
"H. c #D98D23",
"J. c #CA942B",
"K. c #986086",
"L. c #A26486",
"P. c #A26992",
"I. c #A86C91",
/* pixels */
"# # # # # # # # # # # # # # # # # # # # # # # # # # # # # # # # # # # # # # # # # # # # # # # # # # # # # # # # # # # # ",
"# # # # # # # # # # # # # # # # # # # # # # # # # # # # # # # # # # # # # # # # # # # # # # # # # # # # # # # # # # # # ",
"# # # # # # # # # # # # # # # # # # # # # # # # # # # # # # # # # # # # # # # # # # # # # # # # # # # # # # # # # # # # ",
"# # # # # # # # # # # # # # # # # # # # # # # # # # # # # # # # # # # # # # # # # # # # # # # # # # # # # # # # # # # # ",
"# # # # # # # # # # # # # # # # # # # # # # # # # # # # # # # # # # # # # # # # # # # # # # # # # # # # # # # # # # # # ",
"# # # # # # # # # # # # # # # # # # # # # # # # # # # # # # # # # # # # # # # # # # # # # # # # # # # # # # # # # # # # ",
"# # # # # # # # # # # # # # # # # # # # # # # # # # # # # # # # # # # # # # # # # # # # # # # # # # # # # # # # # # # # ",
"# # # # # # # # # # # # # # # # # # # # # # # # # # # # # # # # # # # # # # # # # # # # # # # # # # # # # # # # # # # # ",
"# # # # # # # # # # # # # # # # # # # # # # # # # # # # # # # # # # # # # # # # # # # # # # # # # # # # # # # # # # # # ",
"# # # # # # # # # # # # # # # # # # # # # # # # # # # # # # # # # # # # # # # # # # # # # # # # # # # # # # # # # # # # ",
"# # # # # # # # # # # # # # # # # # # # # # # # # # # # # # # # # # # # # # # # # # # # # # # # # # # # # # # # # # # # ",
"# # # # # # # # # # # # # # # # # # # # # # # # # # # # # # # # # # # # # # # # # # # # # # # # # # # # # # # # # # # # ",
"# # # # # # # # # # # # # # # # # # # # # # # # # # # # # # # # # # # # # # # # # # # # # # # # # # # # # # # # # # # # ",
"# # # # # # # # # # # # # # # # # # # # # # # # # # # # # # # # # # # # # # # # # # # # # # # # # # # # # # # # # # # # ",
"# # # # # # # # # # # # # # # # # # # # # # # # # # # # # # # # # # # # # # # # # # # # # # # # # # # # # # # # # # # # ",
"# # # # # # # # # # # # # # # # # # # # # # # # # # # # # # # # # # # # # # # # # # # # # # # # # # # # # # # # # # # # ",
"# # # # # # # # # # # # # # # # # # # # # # # # # # # # # # # # # # # # # # # # # # # # # # # # # # # # # # # # # # # # ",
"# # # # # # # # # # # # # # # # # # # # # # # # # # # # # # # # # # # # # # # # # # # # # # # # # # # # # # # # # # # # ",
"# # # # # # # # # # # # # # # # # # # # # # # # # # # # # # # # # # # # # # # # # # # # # # # # # # # # # # # # # # # # ",
"# # # # # # # # # # # # # # # # # # # # # # # # # # # # # # # # # # # # # # # # # # # # # # # # # # # # # # # # # # # # ",
"# # # # # # # # # # # # # # # # # # # # # # # # # # # # # # # # # # # # # # # # # # # # # # # # # # # # # # # # # # # # ",
"# # # # # # # # # # # # # # # # # # # # # # # # # # # # # # # # # # # # # # # # # # # # # # # # # # # # # # # # # # # # ",
"# # # # # # # # # # # @ @ # # # # # X @ X X # # # # # # # # # # # # # # # # # # # # # # # # # # # # # # # # # # # # # # ",
"# # # # # # # # # # + 8 5 @ # # # # 5 5 @ @ # # # # # # # # # # # # # # # # # # # # # # # # # # # # # # # # # # # # # # ",
"# # # # # # # # # # - 2 # # # # # @ X # X # # # # # # # # # # # # # # # # # # # # # # # # # # # # # # # # # # # # # # # ",
"# # # # # # # # # # % # # # # # # # # # # # # # # # # # # # # # # # # # # # # # # # # # # # # # # # # # # # # # # # # # ",
"# # # # # # # # # # # # # # # # # # # # # # # # # # # # # # # # # # # # # # # # # # # # # # # # # # # # # # # # # # # # ",
"# # # # # # # # # # # # # # # # # # # # # # # # # # # # # # # # # # # # # # # # # # # # # # # # # # # # # # # # # # # # ",
"# # # # # # # # # # # # # # # X 5 h % # # # # # $ 5 5 X # X # # # # $ 4.B # # # # # # # # # # # # # # # # # # # # # # # ",
"# # # # # # # # # # # # # # # h -.-.-.@ # % @ 0 *.;.;.s @ + # # # $ q.d.d.X.# # # # # # # # # # # # # # # # # # # # # # ",
"# # # # # # # # # # # # # X *.g 5 9 ;.h # @ g ;.;.<.1.^ 7 7 # # # $ d.%.U +.# # # # # # # # # # # # # # # # # # # # # # ",
"# # # # # # # # # # # # # d d $ # @ h -.0 -.;.;.;.;.;.<.a 7 5 + # d.0.r.l.c # # # # # # # # # # # # # # # # # # # # # # ",
"# # # # # # # # # # # # X h % # # X 3 -.<.;.<.;.;.;.,.1.a 0 7 5 O ) &.W z.. 3.# # # # # # # # # # # # # # # # # # # # # ",
"# # # # # # # # # # # # 2 9 # # X # 5 0 -.;.<.;.<.;.<.;.u J h ^ a 7 T { Y   ~ , # # # # # # # # # # # # # # # # # # # # ",
"# # # # # # # # # # 2 @ s 2 # % 2 % # 5 h 1.<.;.;.;.;.G A G K =.f 9 q 4.' D J.1 # # # # # # # # # # # # # # # # # # # # ",
"# # # # # # # # # # # X 5 X X / # # # # 2 1.-.<.<.<.;.i ;.,.i : = * 9 8 t.s.H.< # # # # # # # # # # # # # # # # # # # # ",
"# # # # # # # # # # # # # # X 5 # # # # # / 7 g -.;.G * Z Z > O O & = p A.F.D.4 # # # # # # # # # # # # # # # # # # # # ",
"# # # # # # # # # # # # # # # X # # # # # @ 5 7 g k :.w > : - S h.: * 6 R N.v.+.4 # # # # # # # # # # # # # # # # # # # ",
"# # # # # # # # # # # # # # # # # # # # # # 2 / 1.,.<.<.> = >.k.j.; & > 7.I.N X.%.4 # # # # # # # # # # # # # # # # # # ",
"# # # # # # # # # # # # # # # # # # # # # # X 8 -.-.;.<.=.=.;.>.k Z 6 e 8.P.f.n +.@.4 # # # # # # # # # # # # # # # # # ",
"# # # # # # # # # # # # # # # # # # # # # # # % 9 9 a ;.1.1.;.<.<.;.3 2.G.I H y x e.#.l # # # # # # # # # # # # # # # # ",
"# # # # # # # # # # # # # # # # # # # # # # # # X X + g -.;.1.;.<./ F } r # # - - K.g.+.# # # # # # # # # # # # # # # # ",
"# # # # # # # # # # # # # # # # # # # # # # # # X # X j ( >.h ;.) B Q % # # # # X a.L.L - # # # # # # # # # # # # # # # ",
"# # # # # # # # # # # # # # # # # # # # # # # # # # 1 w.r.$.] M _ c.< # # # # # # { p.9.* : # # # # # # # # # # # # # # ",
"# # # # # # # # # # # # # # # # # # # # # # # # # # z C.Z.M.n.5.` V X # # # # # # c ..{ # o ; ; # # # # # # # # # # # # ",
"# # # # # # # # # # # # # # # # # # # # # # # # # # b #.5.y.b.C.x.C # # # # # # # l v $ # # # ; # # # # # # # # # # # # ",
"# # # # # # # # # # # # # # # # # # # # # # # # # # ..#.#.O.O.5.u.S.E # # # # # # # # # # # # # # # # # # # # # # # # # ",
"# # # # # # # # # # # # # # # # # # # # # # # # # t ` o.$.r.i.V.m.B.~ c # # # # # # # # # # # # # # # # # # # # # # # # ",
"# # # # # # # # # # # # # # # # # # # # # # # # $ P I V.n.M.~ e.6.#.$. .# # # # # # # # # # # # # # # # # # # # # # # # ",
"# # # # # # # # # # # # # # # # # # # # # # # # x ! ! m.e.#.$.%.%.#.#.{ # # # # # # # # # # # # # # # # # # # # # # # # ",
"# # # # # # # # # # # # # # # # # # # # # # # # ` ` ` +.%.#.#.#.#.#.#.c # # # # # # # # # # # # # # # # # # # # # # # # ",
"# # # # # # # # # # # # # # # # # # # # # # $ n [ { [ @.#.#.#.6.#.#.c X # # # # # # # # # # # # # # # # # # # # # # # # ",
"# # # # # # # # # # # # # # # # # # # # # # t ` { M | @.#.#.#.#.#.l # # # # # # # # # # # # # # # # # # # # # # # # # # ",
"# # # # # # # # # # # # # # # # # # # # # $ n { { | ..6.#.#.#.#.c # # # # # # # # # # # # # # # # # # # # # # # # # # # ",
"# # # # # # # # # # # # # # # # # # # # # t { n ....X.6.6.#.#. .$ # # # # # # # # # # # # # # # # # # # # # # # # # # # ",
"# # # # # # # # # # # # # # # # # # # # 4 { M | { #.6.#.6.#. .$ # # # # # # # # # # # # # # # # # # # # # # # # # # # # ",
"# # # # # # # # # # # # # # # # # # # $ n [ n | | @.6.6.X.m # # # # # # # # # # # # # # # # # # # # # # # # # # # # # # ",
"# # # # # # # # # # # # # # # # # # # t { [ ..{ { | X...% # # # # # # # # # # # # # # # # # # # # # # # # # # # # # # # ",
"# # # # # # # # # # # # # # # # # # # [ [ [ | @...{ M $ # # # # # # # # # # # # # # # # # # # # # # # # # # # # # # # # ",
"# # # # # # # # # # # # # # # # # # # 4 n n n n M M t # # # # # # # # # # # # # # # # # # # # # # # # # # # # # # # # # "
};
