/* XPM */
static char *result[] = {
/* columns rows colors chars-per-pixel */
"60 60 208 2 ",
"   c #280916",
".  c #2B0A1A",
"X  c #260819",
"o  c #320C1C",
"O  c #3B0E1D",
"+  c #31101E",
"@  c #23141C",
"#  c #39211D",
"$  c #2B0824",
"%  c #28062F",
"&  c #270729",
"*  c #340F24",
"=  c #3B0F23",
"-  c #3F0F2C",
";  c #2D112F",
":  c #281B26",
">  c #371324",
",  c #3A1525",
"<  c #3B1927",
"1  c #35142C",
"2  c #3D1F2D",
"3  c #2D0732",
"4  c #2D0A33",
"5  c #330A36",
"6  c #3A0B35",
"7  c #39073D",
"8  c #360A3A",
"9  c #3B0B3E",
"0  c #2C1939",
"q  c #331335",
"w  c #3C1135",
"e  c #391D32",
"r  c #34143A",
"t  c #39143D",
"y  c #391A3E",
"u  c #361F36",
"i  c #3C2330",
"p  c #32253B",
"a  c #3C2B3D",
"s  c #312636",
"d  c #362225",
"f  c #47121E",
"g  c #6B131D",
"h  c #43251E",
"j  c #421C2C",
"k  c #40172E",
"l  c #420E34",
"z  c #430C3D",
"x  c #451F39",
"c  c #441A38",
"v  c #422522",
"b  c #58292D",
"n  c #422434",
"m  c #412E3B",
"M  c #44253A",
"N  c #4C343C",
"B  c #53353B",
"V  c #54393B",
"C  c #5C3939",
"Z  c #6B392C",
"A  c #633D37",
"S  c #672631",
"D  c #7D452E",
"F  c #794C29",
"G  c #6B4336",
"H  c #67433C",
"J  c #744433",
"K  c #7A4C36",
"L  c #7B543F",
"P  c #3E0A42",
"I  c #3F1343",
"U  c #3C1C41",
"Y  c #2F2741",
"T  c #302740",
"R  c #322942",
"E  c #362F49",
"W  c #3D2C43",
"Q  c #383047",
"!  c #37304C",
"~  c #3B334C",
"^  c #3B3652",
"/  c #3F3A57",
"(  c #3D3A59",
")  c #420A44",
"_  c #460B49",
"`  c #4C0C4E",
"'  c #490D43",
"]  c #431445",
"[  c #4C1745",
"{  c #4B124A",
"}  c #4A1C4E",
"|  c #4E0C50",
" . c #4F1551",
".. c #571D58",
"X. c #531C55",
"o. c #412446",
"O. c #452B4A",
"+. c #4A2849",
"@. c #572C46",
"#. c #413144",
"$. c #4E3641",
"%. c #4B3846",
"&. c #42384E",
"*. c #4A384B",
"=. c #533A44",
"-. c #5A3C4A",
";. c #583F45",
":. c #4C2A50",
">. c #512454",
",. c #512B55",
"<. c #59215B",
"1. c #572059",
"2. c #4C3552",
"3. c #413B55",
"4. c #4D3D53",
"5. c #423D5A",
"6. c #473057",
"7. c #523A54",
"8. c #5D3E53",
"9. c #543E59",
"0. c #563759",
"q. c #673A50",
"w. c #5F2C61",
"e. c #493F61",
"r. c #663D68",
"t. c #5C4445",
"y. c #5B434C",
"u. c #56414E",
"i. c #4C4253",
"p. c #45415B",
"a. c #4B455D",
"s. c #4F495B",
"d. c #514256",
"f. c #58435C",
"g. c #574157",
"h. c #654748",
"j. c #794E42",
"k. c #6F5148",
"l. c #7A5144",
"z. c #624D56",
"x. c #75475E",
"c. c #69535C",
"v. c #705859",
"b. c #4D4662",
"n. c #534261",
"m. c #54446C",
"M. c #574A65",
"N. c #5E5A6C",
"B. c #585264",
"V. c #5D4C72",
"C. c #5E5771",
"Z. c #634466",
"A. c #634C67",
"S. c #784A6A",
"D. c #665B6A",
"F. c #67577A",
"G. c #6D5E70",
"H. c #785577",
"J. c #656375",
"K. c #6B6475",
"L. c #6A6778",
"P. c #6E6976",
"I. c #81242D",
"U. c #9B242C",
"Y. c #AA2227",
"T. c #DC2223",
"R. c #8C4B2B",
"E. c #914D2B",
"W. c #8D502E",
"Q. c #93542D",
"!. c #9B532A",
"~. c #9C5D2D",
"^. c #955822",
"/. c #884B30",
"(. c #855333",
"). c #865B3E",
"_. c #895439",
"`. c #995936",
"'. c #A45C2B",
"]. c #B45B23",
"[. c #BA5E22",
"{. c #9F633E",
"}. c #9F7337",
"|. c #8A6B3E",
" X c #A5632C",
".X c #BC6223",
"XX c #BC6D26",
"oX c #B96927",
"OX c #A76436",
"+X c #AF7832",
"@X c #C26C25",
"#X c #CA7324",
"$X c #C87625",
"%X c #A45E4D",
"&X c #86556B",
"*X c #8D5876",
"=X c #93687B",
"-X c #CA892B",
";X c #D1882F",
":X c #D19331",
">X c #C99341",
",X c #706381",
"<X c #915D81",
"1X c #895D83",
"2X c #986385",
"3X c #967180",
"4X c #8B838D",
"5X c None",
/* pixels */
"5X5X5X5X5X5X5X5X5X5X5X5X5X5X5X5X5X5X5X5X5X5X5X5X5X5X5X5X5X5X5X5X5X5X5X5X5X5X5X5X5X5X5X5X5X5X5X5X5X5X5X5X5X5X5X5X5X5X5X5X",
"5X5X5X5X5X5X5X5X5X5X5X5X5X5X5X5X5X5X5X5X5X5X5X5X5X5X5X5X5X5X5X5X5X5X5X5X5X5X5X5X5X5X5X5X5X5X5X5X5X5X5X5X5X5X5X5X5X5X5X5X",
"5X5X5X5X5X5X5X5X5X5X5X5X5X5X5X5X5X5X5X5X5X5X5X5X5X5X5X5X5X5X5X5X5X5X5X5X5X5X5X5X5X5X5X5X5X5X5X5X5X5X5X5X5X5X5X5X5X5X5X5X",
"5X5X5X5X5X5X5X5X5X9.G.4X5X5X5X5X5X5X5X5X5X5X5X5X5X5X5X5X5X5X5X5X5X5X5X5X5X5X5X5X5X5X5X5X5X5X5X5X5X5X5X5X5X5X5X5X5X5X5X5X",
"5X5X5X5X5X5X5X5X5X7.5X5X5X5X5X5X5X5X5X5X5X5X5X5X5X5X5X5X5X5X5X5X5X5X5X5X5X5X5X5X5X5X5X5X5X5X5X5X5X5X5X5X5X5X5X5X5X5X5X5X",
"5X5X5X5X5X5X5X5X5X5X5X5X5X5X5X5X5X5X5X5X5X5X5X5X5X5X5X5X5X5X5X5X5X5X5X5X5X5X5X5X5X5X5X5X5X5X5X5X5X5X5X5X5X5X5X5X5X5X5X5X",
"5X5X5X5X5X5X5X5X5X5X5X5X5X5X5X5X5X5X5X5X5X5X5X5X5X5X5X5X5X5X5X5X5X5X5X5X5X5X5X5X5X5X5X5X5X5X5X5X5X5X5X5X5X5X5X5X5X5X5X5X",
"5X5X5X5X5X5X5X5X5X5X5X5X5X5X5X5X5X5X5X5X5X5X5X5X5X5X5X5X5X5X5X5X5X5X5X5X5X5X5X5X5X5X5X5X5X5X5X5X5X5X5X5X5X5X5X5X5X5X5X5X",
"5X5X5X5X5X5X5X5X5X5X5X5X5X5X5X2.G.5X5X5X5X5X5X5X5X5X5X5X5X5X5X5X5X5X5X5X5X5X5X5X5X5X5X5X5X5X5X5X5X5X5X5X5X5X5X5X5X5X5X5X",
"5X5X5X5X5X5X5X5X5X5X5X5X5X5X2.7.5X5X5X5X5X5X5X5X5X5X5X5X5X5X5X5X5X5X5X5X5X5X5X5X5X5X5X5X5X5X5X5X5X5X5X5X5X5X5X5X5X5X5X5X",
"5X5X5X5X5X5X5X5X5X5X5X5X5XU U 5X5X5X5X5X5X5X5X5X5X5X5X5X5X5X5X5X5X5X5X5X5X5X5X5X5X5X5X5X5X5X5X5X5X5X5X5X5X5X5X5X5X5X5X5X",
"5X5X5X5X5X5X5X5X5X5X5X5X5X5X5X5X5X5X5X5X5X5X5X5X5X5X5X5X5X5X5X5X5X5X5X5X5X5X5X5X5X5X5X5X5X5X5X5X5X5X5X5X5X5X5X5X5X5X5X5X",
"5X5X5X5X5X5XH.H.5X5X5X5X5X5X5X5X5X5X5X5X5X5X5X5X5X5X5X5X5X5X5X5X5X5X5X5X5X5X5X5X5X5X5X5X5X5X5X5X5X5X5X5X5X5X5X5X5X5X5X5X",
"5X5X5X5X5X,.} _ <.5X5X5X5X5X5X5X5X5X5X5X5X5X5X5X5X5X5X5X5X5X5X5X5X5X5X5X5X5X5X5X5X5X5X5X5X5X5X5X5X5X5X5X5X5X5X5X5X5X5X5X",
"5X5X5X5X5X5X5X,._ ..5X5X5X5X5X5X5X5X5X5X5X5X5X5X5X5X5X5X5X5X5X5X5X5X5X5X5X5X,X,X,X5X5X5X5X5X5X5X5X5X5X5X5X5X5X5X5X5X5X5X",
"5X5X5X5X5X5X5X5X] ` r.5X5X5X5X5X5X5X5X5X5X5X5X5X5X,.,.,.5X5X5X5X5X5X5X5X5XF.m.m.m.C.5X5X5X5X5X5X5X5X5X5X5X5X5X5X5X5X5X5X",
"5X5X5XG.5X5X5X5XI ` ] 5X5X5XZ.} 1.1.>.5X5X5X5Xw...` _ P  .>.5X5X5X5X5X5XF.m.e.5.5.5.M.5X5X5X5X5X5X5X5X5X5X5X5X5X5X5X5X5X",
"5X5X5X5X5X5X5X5X0._ 8 5XH... .) 9 9 _ o.5XW } | ` | | ` | ` U 5X5X5X5X5XV.b.( h.K o.5.5X5X5X5X5X5X5X5X5X5X5X5X5X5X5X5X5X",
"5X5X5X5X5X5X5X5X5XP 8 5X..| ) 8 r 4 _ 9 W o.) ` ` ) | ` ` ` P U 5X5X5X5XV.( -.'.].v ~ 5X5X5X5X5X5X5X5X5X5X5X5X5X5X5X5X5X",
"5X5X5X5X5X5Xf.O.5XU P ,.] ) r f.5Xt _ ` P 8 _ | ` ) | ` _ ` ` 7 U 5X5XF.m.( l.@X[.h s L.5X5X5X5X5X5X5X5X5X5X5X5X5X5X5X5X",
"5X5X5X5X5X7.r 5X5XM.t 7 P :.f.5X5Xr ) | ` P _ ` ` | ` 9 5 ) t 9 % o.5XV.p.^ H XX#Xh : b.5X5X5X5X5X5X5X5X5X5X5X5X5X5X5X5X",
"5X5X5X5X5X7.q 5X5X5XA.0.Z.5X5X5X5X9.9 ` | _ ` | | | P 3 4 x e 5 % I O.6.3.t.a D ^.# : s.5X5X5X5X5X5X5X5X5X5X5X5X5X5X5X5X",
"5X5X5X5X5X5X5X5X5X5X5X5X5X5X5X5X5X5Xt ` | ` | ` ` _ w q e i i 1 5 ) P 5 M l.9.-.d @ : |.>X5X5X5X5X5X5X5X5X5X5X5X5X5X5X5X",
"5X5X5X5X5X5X5X5X5X5X5X5X5X5X5X5X5X5Xr P | ` ` | | ) < n e 1 i e q l l $ 1 +.9.f.R p F -X;X5X5X5X5X5X5X5X5X5X5X5X5X5X5X5X",
"5X5X5X5X5X5X5X5X5X5X5X5X5X5X5X5X5X5Xr 5 ` ) _ | | z , x 5 4 1 2 > o o   $ 3 C k.i.u.|.-X:X5X5X5X5X5X5X5X5X5X5X5X5X5X5X5X",
"5X5X5X5X5X5X5X5X5X5X5X5X5X5X5X5X5X5Xq 3 P _ ` ` { c = * 6 _ 9 , o       X & J +X{.}.}.$X;X5X5X5X5X5X5X5X5X5X5X5X5X5X5X5X",
"5X5X5X5X5X5X5X5X5X5X5X5X5X5X5X5X5X5XO.4 8 | `  .x , = o = l l o           & Z $X$X$X$X@X{.5X5X5X5X5X5X5X5X5X5X5X5X5X5X5X",
"5X5X5X5X5X5X5X5X5X5X5X5X5X5X5X5X5X5X5X4 8 | ` { x c k O = k o . f g g O   X b R.E.E..X X*.J.5X5X5X5X5X5X5X5X5X5X5X5X5X5X",
"5X5X5X5X5X5X5X5X5X5X5X5X5X5X5X5X5X5X5Xq 8 | | [ { _ 6 l f o . 1 I.T.Y.f   . , n -.x.%XK ! p.K.5X5X5X5X5X5X5X5X5X5X5X5X5X",
"5X5X5X5X5X5X5X5X5X5X5X5X5X5X5X5X5X5X5X9.9 | ` P P _ 9 ` 6 o 6 { S U.S o   . = 1 @.<X=X~ R ^ p.L.5X5X5X5X5X5X5X5X5X5X5X5X",
"5X5X5X5X5X5X5X5X5X5X5X5X5X5X5X5X5X5X5X5X] ` P 3 5 P 7 ` ' z ` ` [ [ x w 6 . * = k *X2XZ.R R ^ p.L.5X5X5X5X5X5X5X5X5X5X5X",
"5X5X5X5X5X5X5X5X5X5X5X5X5X5X5X5X5X5X5X5XA.{ I 4 % 3 3 ) _ ` _ ` ` ` { _ 8 ; M q.x.*X2XS.u p R ~ p.L.5X5X5X5X5X5X5X5X5X5X",
"5X5X5X5X5X5X5X5X5X5X5X5X5X5X5X5X5X5X5X5X5XA.5X7.O.W 3 3 5 P P ` | | | ) 3 p 7.&X=X=X5X-.> , u 2.9.b.F.5X5X5X5X5X5X5X5X5X",
"5X5X5X5X5X5X5X5X5X5X5X5X5X5X5X5X5X5X5X5X5X5X5X5X5X5XW % % 3 P ` | ` _ 8 b V i.=X5X5X5X5Xy.j > S.1Xm.p.5X5X5X5X5X5X5X5X5X",
"5X5X5X5X5X5X5X5X5X5X5X5X5X5X5X5X5X5X5X5X5X5X5X5X5X5X5XZ 2 3 4 P P P 5 q !.l.5X5X5X5X5X5X5X5Xc.*X2X&XW 5X5X5X5X5X5X5X5X5X",
"5X5X5X5X5X5X5X5X5X5X5X5X5X5X5X5X5X5X5X5X5X5X5X5X5X5Xv.E.R.i 4 3 3 3 0 M !.;.5X5X5X5X5X5X5X5X5X&X&X*X@.N 5X5X5X5X5X5X5X5X",
"5X5X5X5X5X5X5X5X5X5X5X5X5X5X5X5X5X5X5X5X5X5X5X5X5XJ.5.=.G (.D n u 0 Y J OX5X5X5X5X5X5X5X5X5X5Xg.8.&Xq.< -.c.5X5X5X5X5X5X",
"5X5X5X5X5X5X5X5X5X5X5X5X5X5X5X5X5X5X5X5X5X5X5X5X5X5.3.^ Q Q.@X~.K m W `.5X5X5X5X5X5X5X5X5X5X5X~ R 4.4.A.=.n y.z.5X5X5X5X",
"5X5X5X5X5X5X5X5X5X5X5X5X5X5X5X5X5X5X5X5X5X5X5X5XC.5./ / ^ V !.@XXX XV 5X5X5X5X5X5X5X5X5X5X5X5XQ E / K.5X5X5X=.N =.5X5X5X",
"5X5X5X5X5X5X5X5X5X5X5X5X5X5X5X5X5X5X5X5X5X5X5X5Xp.( / / 5.Q N !.@X#XA 5X5X5X5X5X5X5X5X5X5X5X5XN.N.L.5X5X5X5X5X5Xn < 5X5X",
"5X5X5X5X5X5X5X5X5X5X5X5X5X5X5X5X5X5X5X5X5X5X5X5Xa./ / / / ~ A Q..X.XA 5X5X5X5X5X5X5X5X5X5X5X5X5X5X5X5X5X5X5X5X5X5Xz.5X5X",
"5X5X5X5X5X5X5X5X5X5X5X5X5X5X5X5X5X5X5X5X5X5X5Xb./ / / / / #.'.oX.X.XC 5X5X5X5X5X5X5X5X5X5X5X5X5X5X5X5X5X5X5X5X5X5X5X5X5X",
"5X5X5X5X5X5X5X5X5X5X5X5X5X5X5X5X5X5X5X5X5X5X5Xd./ / / / &.J J D [.].C 5X5X5X5X5X5X5X5X5X5X5X5X5X5X5X5X5X5X5X5X5X5X5X5X5X",
"5X5X5X5X5X5X5X5X5X5X5X5X5X5X5X5X5X5X5X5X5X5X5Xl.u.( ( ! K !.W C ].D %.5X5X5X5X5X5X5X5X5X5X5X5X5X5X5X5X5X5X5X5X5X5X5X5X5X",
"5X5X5X5X5X5X5X5X5X5X5X5X5X5X5X5X5X5X5X5X5X5X5Xh.j.h.t.V ~.G Q A D %.5X5X5X5X5X5X5X5X5X5X5X5X5X5X5X5X5X5X5X5X5X5X5X5X5X5X",
"5X5X5X5X5X5X5X5X5X5X5X5X5X5X5X5X5X5Xs.i.B.5X5Xp.y.).).`.XXV &.G W s.5X5X5X5X5X5X5X5X5X5X5X5X5X5X5X5X5X5X5X5X5X5X5X5X5X5X",
"5X5X5X5X5X5X5X5X5X5X5X5X5X5X5X5X5Xi.R T E &.N.p.5.i.i._.'.%.%.h.E 5X5X5X5X5X5X5X5X5X5X5X5X5X5X5X5X5X5X5X5X5X5X5X5X5X5X5X",
"5X5X5X5X5X5X5X5X5X5X5X5X5X5X5X5Xi.R T T R p E / / ^ ( _.G E %./.R 5X5X5X5X5X5X5X5X5X5X5X5X5X5X5X5X5X5X5X5X5X5X5X5X5X5X5X",
"5X5X5X5X5X5X5X5X5X5X5X5X5X5X5X5X&.R T T R R ! / 3.( ( y.(.N $.R.p 5X5X5X5X5X5X5X5X5X5X5X5X5X5X5X5X5X5X5X5X5X5X5X5X5X5X5X",
"5X5X5X5X5X5X5X5X5X5X5X5X5X5X5X3.T R R T T Q ^ / / / 3.( _.~.G R.R 5X5X5X5X5X5X5X5X5X5X5X5X5X5X5X5X5X5X5X5X5X5X5X5X5X5X5X",
"5X5X5X5X5X5X5X5X5X5X5X5X5X5X5Xs.Q R T T R ~ ( / 3.( / / %.R.Q.!.V 5X5X5X5X5X5X5X5X5X5X5X5X5X5X5X5X5X5X5X5X5X5X5X5X5X5X5X",
"5X5X5X5X5X5X5X5X5X5X5X5X5X5X5X5XD.Q R R ! / / / ( 3.( 5.E m V E.`.5X5X5X5X5X5X5X5X5X5X5X5X5X5X5X5X5X5X5X5X5X5X5X5X5X5X5X",
"5X5X5X5X5X5X5X5X5X5X5X5X5X5X5X5X5X~ R Q / / / / / 3.( ^ R R T ;.5X5X5X5X5X5X5X5X5X5X5X5X5X5X5X5X5X5X5X5X5X5X5X5X5X5X5X5X",
"5X5X5X5X5X5X5X5X5X5X5X5X5X5X5X5X5X5X~ / / / / / / / / E R R ~ 5X5X5X5X5X5X5X5X5X5X5X5X5X5X5X5X5X5X5X5X5X5X5X5X5X5X5X5X5X",
"5X5X5X5X5X5X5X5X5X5X5X5X5X5X5X5X5X5X5./ / / / / 3.( 3.~ ~ P.5X5X5X5X5X5X5X5X5X5X5X5X5X5X5X5X5X5X5X5X5X5X5X5X5X5X5X5X5X5X",
"5X5X5X5X5X5X5X5X5X5X5X5X5X5X5X5X5XL.p./ / / / / ( 5.B.5X5X5X5X5X5X5X5X5X5X5X5X5X5X5X5X5X5X5X5X5X5X5X5X5X5X5X5X5X5X5X5X5X",
"5X5X5X5X5X5X5X5X5X5X5X5X5X5X5X5X5Xa.( / / / / / p.N.5X5X5X5X5X5X5X5X5X5X5X5X5X5X5X5X5X5X5X5X5X5X5X5X5X5X5X5X5X5X5X5X5X5X",
"5X5X5X5X5X5X5X5X5X5X5X5X5X5X5X5XN.p./ / / / / / p.5X5X5X5X5X5X5X5X5X5X5X5X5X5X5X5X5X5X5X5X5X5X5X5X5X5X5X5X5X5X5X5X5X5X5X",
"5X5X5X5X5X5X5X5X5X5X5X5X5X5X5X5Xp./ / / / / / / p.5X5X5X5X5X5X5X5X5X5X5X5X5X5X5X5X5X5X5X5X5X5X5X5X5X5X5X5X5X5X5X5X5X5X5X",
"5X5X5X5X5X5X5X5X5X5X5X5X5X5X5X5Xb./ / / / / / / ( B.5X5X5X5X5X5X5X5X5X5X5X5X5X5X5X5X5X5X5X5X5X5X5X5X5X5X5X5X5X5X5X5X5X5X"
};
