/* XPM */
static char *result[] = {
/* columns rows colors chars-per-pixel */
"60 60 162 2 ",
"   c #15080B",
".  c #150F15",
"X  c #1B0815",
"o  c #1A0D1C",
"O  c #111111",
"+  c #1A1413",
"@  c #15151A",
"#  c #1A131B",
"$  c #1D191A",
"%  c #23020E",
"&  c #220712",
"*  c #210B16",
"=  c #2E0B15",
"-  c #2C0D1A",
";  c #340C1A",
":  c #390E1C",
">  c #211B19",
",  c #35151D",
"<  c #352513",
"1  c #1E0B22",
"2  c #190824",
"3  c #1D1B23",
"4  c #160032",
"5  c #130E36",
"6  c #220C25",
"7  c #23032C",
"8  c #28072E",
"9  c #25082A",
"0  c #2A0B2C",
"q  c #310629",
"w  c #3F0D2B",
"e  c #241E2B",
"r  c #3B1122",
"t  c #391724",
"y  c #361B2E",
"u  c #3E1D2F",
"i  c #2C0631",
"p  c #2D0932",
"a  c #330B35",
"s  c #38063B",
"d  c #35093A",
"f  c #3A0B3D",
"g  c #2A1336",
"h  c #21173E",
"j  c #3B1E34",
"k  c #3E153D",
"l  c #28232C",
"z  c #3A262C",
"x  c #272232",
"c  c #2B2236",
"v  c #24243B",
"b  c #2D243C",
"n  c #2E2B3E",
"m  c #30273F",
"M  c #302D3F",
"N  c #3B283A",
"B  c #7A141E",
"V  c #4A2815",
"C  c #5F2F1C",
"Z  c #62351A",
"A  c #6F3E1D",
"S  c #733C19",
"D  c #401D29",
"F  c #440D39",
"G  c #471E33",
"H  c #421C38",
"J  c #5F3422",
"K  c #59302F",
"L  c #44273C",
"P  c #4B243E",
"I  c #54363A",
"U  c #73232A",
"Y  c #5C4B28",
"T  c #5E413C",
"R  c #694C26",
"E  c #7D4C2D",
"W  c #7E5030",
"Q  c #7F5738",
"!  c #1C0541",
"~  c #2D0640",
"^  c #3D0A40",
"/  c #201F44",
"(  c #2C2642",
")  c #302740",
"_  c #322A43",
"`  c #392F46",
"'  c #362E49",
"]  c #36314B",
"[  c #39324C",
"{  c #2B2C50",
"}  c #29325F",
"|  c #343357",
" . c #3B3651",
".. c #3E3956",
"X. c #34365B",
"o. c #39375A",
"O. c #3C395A",
"+. c #420C44",
"@. c #4B0E44",
"#. c #48074F",
"$. c #460B48",
"%. c #4C0C4E",
"&. c #421644",
"*. c #441940",
"=. c #4A1A44",
"-. c #4D144A",
";. c #470353",
":. c #4E0B50",
">. c #510C53",
",. c #462C41",
"<. c #463849",
"1. c #593945",
"2. c #54394D",
"3. c #5D3C4C",
"4. c #5B2C54",
"5. c #413A57",
"6. c #403B59",
"7. c #4A3D59",
"8. c #613551",
"9. c #443D63",
"0. c #5F4546",
"q. c #58414A",
"w. c #5F494C",
"e. c #4C4154",
"r. c #4C4758",
"t. c #554350",
"y. c #644747",
"u. c #6C4E45",
"i. c #654949",
"p. c #765044",
"a. c #76455D",
"s. c #4B426A",
"d. c #57456E",
"f. c #7E5067",
"g. c #E52926",
"h. c #AF571C",
"j. c #B67B1F",
"k. c #894728",
"l. c #8C4E2E",
"z. c #925822",
"x. c #93512B",
"c. c #9E572A",
"v. c #8D5537",
"b. c #8F5E3D",
"n. c #A35C26",
"m. c #9C6136",
"M. c #BA6729",
"N. c #B76A2D",
"B. c #B27B26",
"V. c #BE792A",
"C. c #A67438",
"Z. c #C45F1E",
"A. c #DA711A",
"S. c #CD7725",
"D. c #D97723",
"F. c #824A6C",
"G. c #885369",
"H. c #915961",
"J. c #845680",
"K. c #9C6796",
"L. c #9E6893",
"P. c #AA6B88",
/* pixels */
"O O O O O O O O O O O O O O O O O O O O O O O O O O O O O O O O O O O O O O O O O O O O O O O O O O O O O O O O O O O O ",
"O O O O O O O O O O O O O O O O O O O O O O O O O O O O O O O O O O O O O O O O O O O O O O O O O O O O O O O O O O O O ",
"O O O O O O O O O O O O O O O O O O O O O O O O O O O O O O O O O O O O O O O O O O O O O O O O O O O O O O O O O O O O ",
"O O O O O O O O O O O O O O O O O O O O O O O O O O O O O O O O O O O O O O O O O O O O O O O O O O O O O O O O O O O O ",
"O O O O O O O O O O O O O O O O O O O O O O O O O O O O O O O O O O O O O O O O O O O O O O O O O O O O O O O O O O O O ",
"O O O O O O O O O O O O O O O O O O O O O O O O O O O O O O O O O O O O O O O O O O O O O O O O O O O O O O O O O O O O ",
"O O O O O O O O O O O O O O O O O O O O O O O O O O O O O O O O O O O O O O O O O O O O O O O O O O O O O O O O O O O O ",
"O O O O O O O O O O O O O O O O O O O O O O O O O O O O O O O O O O O O O O O O O O O O O O O O O O O O O O O O O O O O ",
"O O O O O O O O O O O O O O O O O O O O O O O O O O O O O O O O O O O O O O O O O O O O O O O O O O O O O O O O O O O O ",
"O O O O O O O O O O O O O O O O O O O O O O O O O O O O O O O O O O O O O O O O O O O O O O O O O O O O O O O O O O O O ",
"O O O O O O O O O O O O O O O O O O O O O O O O O O O O O O O O O O O O O O O O O O O O O O O O O O O O O O O O O O O O ",
"O O O O O O O O O O O O O O O O O O O O O O O O O O O O O O O O O O O O O O O O O O O O O O O O O O O O O O O O O   O O ",
"O O O O O O O O O O O O O O O O O O O O O O O O O O O O O O O O O O O O O O O O O O O O O O O O O O O O O O O O O O O O ",
"O O O O O O O O O O O O O O O O O O O O O O O O O O O O O O O O O O O O O O O O O O O O O O O O O O O O O O O O O O O O ",
"O O O O O O O O O O O O O O O O O O O O O O O O O O O O O O O O O O O O O O O O O O O O O O O O O O O O O O O O O O O O ",
"O O O O O O O O O O O O O O O O O O O O O O O O O O O O O O O O O O O O O O O O O O O O O O O O O O O O O O O O O O O O ",
"O O O O O O O O O O O O O O O O O O O O O O O O O O O O O O O O O O O O O O O O O O O O O O O O O O O O O O O O O O O O ",
"O O O O O O O O O O O O O O O O O O O O O O O O O O O O O O O O O O O O O O O O O O O O O O O O O O O O O O O O O O O O ",
"O O O O O O O O O O O O O O O O O O O O O O O O O O O O O O O O O O O O O O O O O O O O O O O O O O O O O O O O O O O O ",
"O O O O O O O O O O O O O O O O O O O O O O O O O O O O O O O O O O O O O O O O O O O O O O O O O O O O O O O O O O O O ",
"O O O O O O O O O O O O O O O O O O O O O O O O O O O O O O O O O O O O O O O O O O O O O O O O O O O O O O O O O O O O ",
"O O O O O O O O O O O O O O O O O O O O O O O O O O O O O O O O O O O O O O O O O O O O O O O O O O O O O O O O O O O O ",
"O O O O O O O O O O O O O O O O O O O O O O O O O O O O O O O O O O O O O O O O O O O O O O O O O O O O O O O O O O O O ",
"O O O O O O O O O O O O O O O O O O O O O O O O O O O O O O O O O O O O O O O O O O O O O O O O O O O O O O O O O O O O ",
"O O O O O O O O O O O O O O O O O O O O . @ O O O O O O O O O O O O O O O O O O O O O O O O O O O O O O O O O O O O O O ",
"O O O O O O O O O O O O O O O O O O O 7 8 8 1 O O O O O O O O O O O O O O O O O O O O O O O O O O O O O O O O O O O O O ",
"O O O O O O O O O O O O O O O O O O O o . . . O O O O O O O O O O O O O O O O O O O O O O O O O O O O O O O O O O O O O ",
"O O O O O O O O O O O O O 6 O O O O O O O O O O O O O O O O O O O O O O O O O O O O O O O O O O O O O O O O O O O O O O ",
"O O O O O O O O O O O O 6 a O O O 6 f O O O O 1 6 1 O O O O O O O O O . O O O O O O O O O O O O O O O O O O O O O O O O ",
"O O O O O O O O O O O $ +.O O O # %.%.+.@ O 8 p 1 0 + O O O O O O O O @ ` ' e O O O O O O O O O O O O O O O O O O O O O ",
"O O O O O O O O O O O 0 +.O O O $.p %.%.6 + a 9 . f 8 7 7 6 O O O O O [ d.s.r.3 O O O O O O O O O O O O O O O O O O O O ",
"O O O O O O O O O O O 0 +.O O # $.o p %.$.O O p +.%.$.$.$.i a . O O O 7.o.q.<.M O O O O O O O O O O O O O O O O O O O O ",
"O O O O O O O O O O O O a o . a a   @ s >.f 6 %.:.:.:.:.:.:.d $.0 O @ s.0.Z.C n O O O O O O O O O O O O O O O O O O O O ",
"O O O O O O O O O O O O 0 +.a 9 @ O O 6 f $.:.%.%.%.:.%.:.>.$.^ %.1 6 9.Q D.Z c 3 O O O O O O O O O O O O O O O O O O O ",
"O O O O O O O O O O O O . a 6 . O a 6 O 1 i :.%.:.%.%.%.:.:.P y i +.s g N z.V 5 Y O O O O O O O O O O O O O O O O O O O ",
"O O O O O O O O O O O O O O O O + +.7 O . 1 p d >.:.:.:.r P j z k %.@.8 4.{ 2 R B.+ O O O O O O O O O O O O O O O O O O ",
"O O O O O O O O O O O O O O O O 6 p O O O O O i >.%.:.>., =.%.*.D = & i 7 7.r.C.j.+ O O O O O O O O O O O O O O O O O O ",
"O O O O O O O O O O O O O O O O . o O O O O O 8 >.%.:.u : - -.F = X X - 4 S.S.V.n.@ O O O O O O O O O O O O O O O O O O ",
"O O O O O O O O O O O O O O O O O @ O O O O O @ f :.=.H w ; r = - B B * 7 l.k.A.T v O O O O O O O O O O O O O O O O O O ",
"O O O O O O O O O O O O O O O O O O O O O O O O 9 :.-.#.%.@.= q L g.U & : j J.H.x .._ O O O O O O O O O O O O O O O O O ",
"O O O O O O O O O O O O O O O O O O O O O O O O o $.>.a %.%.f :.-.&.j a - r F.K.` _  ._ O O O O O O O O O O O O O O O O ",
"O O O O O O O O O O O O O O O O O O O O O O O O . 1 %.i f f >.%.>.>.>.~ 2.G.f.3.u z '  .x O O O O O O O O O O O O O O O ",
"O O O O O O O O O O O O O O O O O O O O O O O O . O 6 6 o 7 d +.f >.;.K 2.1.$ O   = G L.O.@ O O O O O O O O O O O O O O ",
"O O O O O O O O O O O O O O O O O O O O O O O O O O O O O # t 8 7 s ! E @ O O O O . $ P.8.+ O O O O O O O O O O O O O O ",
"O O O O O O O O O O O O O O O O O O O O O O O O O O O O . O k.I ,.h N J O O O O O O $ 2.a.% - O O O O O O O O O O O O O ",
"O O O O O O O O O O O O O O O O O O O O O O O O O O O O O l ..p.N.y.` > O O O O O O @ v [ + X ; - + O O O O O O O O O O ",
"O O O O O O O O O O O O O O O O O O O O O O O O O O O $ c  .6.X.e.M.u.@ O O O O O O + ) 3 O O + & - O O O O O O O O O O ",
"O O O O O O O O O O O O O O O O + 3 3 3 @ O O O O O A E / ' O.6.o.7.M.$ O O O O O O O O O O O O O O O O O O O O O O O O ",
"O O O O O O O O O O O O O O O O 3  ..... .3 O O O @ ) n.W / [ 6...o.p.< O O O O O O O O O O O O O O O O O O O O O O O O ",
"O O O O O O O O O O O O O O O O n ]  .) ) ..] O O c ( ( c.l.{ O...o.e.< O O O O O O O O O O O O O O O O O O O O O O O O ",
"O O O O O O O O O O O O O O O O 3 b ) ) ) )  .3 e _ ) _ ( x.m.O.o.o.t.< O O O O O O O O O O O O O O O O O O O O O O O O ",
"O O O O O O O O O O O O O O O O 3 n ) _ [ m b m ) _ ) ) ) / x.b.w.} e.< O O O O O O O O O O O O O O O O O O O O O O O O ",
"O O O O O O O O O O O O O O O O @ ) ) ' ..m ' ) ) ) ) ) _ ) | i.M.v.m.< O O O O O O O O O O O O O O O O O O O O O O O O ",
"O O O O O O O O O O O O O O O O O c )  .[ m  .) ' ' ) ) n ] 6...5.n.h.O O O O O O O O O O O O O O O O O O O O O O O O O ",
"O O O O O O O O O O O O O O O O O # ) _ _ _ _ ..[ ' _ ) ] 6...6.O.I S O O O O O O O O O O O O O O O O O O O O O O O O O ",
"O O O O O O O O O O O O O O O O O O e ) ' ..) ' ..' ]  .6....... .> O O O O O O O O O O O O O O O O O O O O O O O O O O ",
"O O O O O O O O O O O O O O O O O O O x ) ' .._ _ ' ] 6.....6.] + O O O O O O O O O O O O O O O O O O O O O O O O O O O ",
"O O O O O O O O O O O O O O O O O O O O b ) _ ..[ ........ .l @ O O O O O O O O O O O O O O O O O O O O O O O O O O O O ",
"O O O O O O O O O O O O O O O O O O O O $ ( ( [ ] 6...6... .3 O O O O O O O O O O O O O O O O O O O O O O O O O O O O O ",
"O O O O O O O O O O O O O O O O O O O O O $ b b _  . . . ..._ O O O O O O O O O O O O O O O O O O O O O O O O O O O O O "
};
