/* XPM */
static char *result[] = {
/* columns rows colors chars-per-pixel */
"60 60 175 2 ",
"   c #150613",
".  c #150E14",
"X  c #1E0913",
"o  c #170F18",
"O  c #1A0D1C",
"+  c #111111",
"@  c #181114",
"#  c #161419",
"$  c #19131B",
"%  c #1A191F",
"&  c #240A14",
"*  c #2B0A15",
"=  c #2B0C1B",
"-  c #320C1B",
";  c #3A0F1F",
":  c #211015",
">  c #371A1E",
",  c #1E0B21",
"<  c #1E1B24",
"1  c #1C1B2A",
"2  c #141738",
"3  c #230C25",
"4  c #2D0921",
"5  c #25072C",
"6  c #29062F",
"7  c #260A2A",
"8  c #290C2C",
"9  c #340B22",
"0  c #3C0E23",
"q  c #350B2C",
"w  c #201020",
"e  c #281F25",
"r  c #201B28",
"t  c #2D1C29",
"y  c #3B132F",
"u  c #3F1E29",
"i  c #250533",
"p  c #2C0434",
"a  c #2E0B32",
"s  c #3A0436",
"d  c #320B35",
"f  c #38073D",
"g  c #360B3A",
"h  c #3A0A3D",
"j  c #231F32",
"k  c #281F35",
"l  c #39183C",
"z  c #27212D",
"x  c #36212A",
"c  c #262431",
"v  c #2A2435",
"b  c #27243F",
"n  c #2D253B",
"m  c #2A2838",
"M  c #30273F",
"N  c #332A3F",
"B  c #3B2C3F",
"V  c #4E2D16",
"C  c #4C3E13",
"Z  c #471D2E",
"A  c #420C37",
"S  c #481937",
"D  c #44153E",
"F  c #411E38",
"G  c #7E1620",
"H  c #5C2229",
"J  c #4E3528",
"K  c #513629",
"L  c #432536",
"P  c #402F3F",
"I  c #522A3F",
"U  c #5B3736",
"Y  c #52323C",
"T  c #513A3B",
"R  c #58393B",
"E  c #60342C",
"W  c #643C34",
"Q  c #78561E",
"!  c #7E442F",
"~  c #654438",
"^  c #774E36",
"/  c #7E4937",
"(  c #744B3E",
")  c #191D46",
"_  c #3E0643",
"`  c #3C0A42",
"'  c #18224F",
"]  c #242344",
"[  c #2B2543",
"{  c #232449",
"}  c #2B2748",
"|  c #2C2A4B",
" . c #302740",
".. c #322A43",
"X. c #392C42",
"o. c #352E4A",
"O. c #343047",
"+. c #36324A",
"@. c #39334D",
"#. c #2A2C50",
"$. c #302E51",
"%. c #2D315A",
"&. c #373350",
"*. c #3B3551",
"=. c #373855",
"-. c #3E3A56",
";. c #35365B",
":. c #37385B",
">. c #3D3A59",
",. c #430B45",
"<. c #480A47",
"1. c #460C49",
"2. c #4B0C4D",
"3. c #451443",
"4. c #4E0C51",
"5. c #510C53",
"6. c #4A2648",
"7. c #493543",
"8. c #463148",
"9. c #583A47",
"0. c #5E394C",
"q. c #423B55",
"w. c #463956",
"e. c #403B58",
"r. c #4B3D5D",
"t. c #463F66",
"y. c #5F494C",
"u. c #514451",
"i. c #584652",
"p. c #684446",
"a. c #744A40",
"s. c #6B5B4E",
"d. c #775143",
"f. c #4D4167",
"g. c #5A476F",
"h. c #5C4874",
"j. c #90161B",
"k. c #B72729",
"l. c #84511E",
"z. c #874227",
"x. c #8D462D",
"c. c #8A4E2F",
"v. c #955A2E",
"b. c #814930",
"n. c #8C5531",
"m. c #89553B",
"M. c #915132",
"N. c #9E5932",
"B. c #AB5E25",
"V. c #AC5C2D",
"C. c #B45923",
"Z. c #8B6235",
"A. c #AB6825",
"S. c #BB6426",
"D. c #B86727",
"F. c #A86732",
"G. c #D6771F",
"H. c #E37E1D",
"J. c #C56722",
"K. c #C56B24",
"L. c #CD6E21",
"P. c #C77625",
"I. c #D47020",
"U. c #D17B25",
"Y. c #855840",
"T. c #844D6D",
"R. c #83546E",
"E. c #8E5A73",
"W. c #9A6179",
"Q. c #B58A2B",
"!. c #C8822A",
"~. c #E78327",
"^. c #8A5C87",
"/. c #9E6792",
"(. c #A8709C",
/* pixels */
"+ + + + + + + + + + + + + + + + + + + + + + + + + + + + + + + + + + + + + + + + + + + + + + + + + + + + + + + + + + + + ",
"+ + + + + + + + + + + + + + + + + + + + + + + + + + + + + + + + + + + + + + + + + + + + + + + + + + + + + + + + + + + + ",
"+ + + + + + + + + + + + + + + + + + + + + + + + + + + + + + + + + + + + + + + + + + + + + + + + + + + + + + + + + + + + ",
"+ + + + + + + + + + + + + + + + + + + + + + + + + + + + + + + + + + + + + + + + + + + + + + + + + + + + + + + + + + + + ",
"+ + + + + + + + + + + + + + + + + + + + + + + + + + + + + + + + + + + + + + + + + + + + + + + + + + + + + + + + + + + + ",
"+ + + + + + + + + + + + + + + + + + + + + + + + + + + + + + + + + + + + + + + + + + + + + + + + + + + + + + + + + + + + ",
"+ + + + + + + + + + + + + + + + + + + + + + + + + + + + + + + + + + + + + + + + + + + + + + + + + + + + + + + + + + + + ",
"+ + + + + + + + + + + + + + + + + + + + + + + + + + + + + + + + + + + + + + + + + + + + + + + + + + + + + + + + + + + + ",
"+ + + + + + + + + + + + + + + + + + + + + + + + + + + + + + + + + + + + + + + + + + + + + + + + + + + + + + + + + + + + ",
"+ + + + + + + + + + + + + + + + + + + + + + + + + + + + + + + + + + + + + + + + + + + + + + + + + + + + + + + + + + + + ",
"+ + + + + + + + + + + + + + + + + + + + + + + + + + + + + + + + + + + + + + + + + + + + + + + + + + + + + + + + + + + + ",
"+ + + + + + + + + + + + + + + + + + + + + + + + + + + + + + + + + + + + + + + + + + + + + + + + + + + + + + + + + + + + ",
"+ + + + + + + + + + + + + + + + + + + + + + + + + + + + + + + + + + + + + + + + + + + + + + + + + + + + + + + + + + + + ",
"+ + + + + + + + + + + + + + + + + + + + + + + + + + + + + + + + + + + + + + + + + + + + + + + + + + + + + + + + + + + + ",
"+ + + + + + + + + + + + + + + + + + + + + + + + + + + + + + + + + + + + + + + + + + + + + + + + + + + + + + + + + + + + ",
"+ + + + + + + + + + + + + + + + + + + + + + + + + + + + + + + + + + + + + + + + + + + + + + + + + + + + + + + + + + + + ",
"+ + + + + + + + + + + + + + + + + + + + + + + + + + + + + + + + + + + + + + + + + + + + + + + + + + + + + + + + + + + + ",
"+ + + + + + + + + + + + + + + + + + + + + + + + + + + + + + + + + + + + + + + + + + + + + + + + + + + + + + + + + + + + ",
"+ + + + + + + + + + + + + + + + + + + + + + + + + + + + + + + + + + + + + + + + + + + + + + + + + + + + + + + + + + + + ",
"+ + + + + + + + + + + + + + + + + + + + + + + + + + + + + + + + + + + + + + + + + + + + + + + + + + + + + + + + + + + + ",
"+ + + + + + + + + + + + + + + + + + + + + + + + + + + + + + + + + + + + + + + + + + + + + + + + + + + + + + + + + + + + ",
"+ + + + + + + + + + + + + + + + + + + + + + + + + + + + + + + + + + + + + + + + + + + + + + + + + + + + + + + + + + + + ",
"+ + + + + + + + + + + + + + + + + O O + + + + + + + + + + + + + + + + + + + + + + + + + + + + + + + + + + + + + + + + + ",
"+ + + + + + + + + + + + + + + + O O . . + + + + + + + + + + + + + + + + + + + + + + + + + + + + + + + + + + + + + + + + ",
"+ + + + + + + + + + + + + + + + o + + + + + + + + + + + + + + + + + + + + + + + + + + + + + + + + + + + + + + + + + + + ",
"+ + + + + + + + + + + + + + + + + + + + + + + + + + + + + + + + + + + + + + + + + + + + + + + + + + + + + + + + + + + + ",
"+ + + + + + + + + + + + + + + + + + + + + + + # o . + + + + + + + + + + + + + + + + + + + + + + + + + + + + + + + + + + ",
"+ + + + + + + + + + + + + + + 3 g d + + + + : h f , o . + + + + + + + + + + + + + + + + + + + + + + + + + + + + + + + + ",
"+ + + + + + + + + + + + + + d <.` 5.3 + + + h ,.w O g 8 + + + + + + v w.8.% + + + + + + + + + + + + + + + + + + + + + + ",
"+ + + + + + + + + + + + + @ a # O 1.<.# + + + O # 8 f 5.5 O + + + v g.t.f.e.# + + + + + + + + + + + + + + + + + + + + + ",
"+ + + + + + + + + + + # $ d o + + h 5.d + + O 6 1.,.f 5.` 6 O + + r.f.w.a.+.# + + + + + + + + + + + + + + + + + + + + + ",
"+ + + + + + + + + + + 8 a 3 + + + 3 <.5.8 8 1.1.5.1.,.2.g 6 g 5 $ g.=.N.J.r # + + + + + + + + + + + + + + + + + + + + + ",
"+ + + + + + + + + + + + @ + + + + o 7 ,.2.2.5.4.2.4.5.2.f 1.2._ l f.%.A.~.& >.. + + + + + + + + + + + + + + + + + + + + ",
"+ + + + + + + + + + + + + + + + + + . 3 3 2.2.4.4.4.,.1.3.L 3.2.i X.( I l.  *.C + + + + + + + + + + + + + + + + + + + + ",
"+ + + + + + + + + + + + + + + + + + # <.3 a 2.2.2.5.s L L F L ,.A h p.h.2 t Q.l.+ + + + + + + + + + + + + + + + + + + + ",
"+ + + + + + + + + + + + + + + + + + 6 2.h 3 5.4.,._ q u 1.4.Z * * 4 ` Z.i.s.!.Q + + + + + + + + + + + + + + + + + + + + ",
"+ + + + + + + + + + + + + + + + + + i 4.d , 1.4.2.D > - 9 2.;   X * p A.H.U.U.K + + + + + + + + + + + + + + + + + + + + ",
"+ + + + + + + + + + + + + + + + + + # d ,., 1.4.2.6.D 0 ; ; - j.G & * y m.x.P.{ # + + + + + + + + + + + + + + + + + + + ",
"+ + + + + + + + + + + + + + + + + + + O g p ` 4.4.2.5.2.A * S k.H & - 4 6./.7.| O.+ + + + + + + + + + + + + + + + + + + ",
"+ + + + + + + + + + + + + + + + + + + + o 8 , g <.5.2.4.<.<.5.1.l 1.= = Z /.^.k =.O.# + + + + + + + + + + + + + + + + + ",
"+ + + + + + + + + + + + + + + + + + + + + + + , 6 1.5.5.4.4.4.4.2.5._ 0.E.y.I - X.r.O.# + + + + + + + + + + + + + + + + ",
"+ + + + + + + + + + + + + + + + + + + + + + + + O 6 f h 1.4.4.5.,.4.` 9.e + + X I (.f.O.+ + + + + + + + + + + + + + + + ",
"+ + + + + + + + + + + + + + + + + + + + + + + + + o 5 5 Z i p 1.4.p v + . + + + x W.T.9 + + + + + + + + + + + + + + + + ",
"+ + + + + + + + + + + + + + + + + + + + + + + + + + + 1 ~ B.E d S z.+ + + + + + e 8.R.= = * @ + + + + + + + + + + + + + ",
"+ + + + + + + + + + + + + + + + + + + + + + + + + + < *.;.S.K.N 8.P + + + + + + < n *.< + & - = + + + + + + + + + + + + ",
"+ + + + + + + + + + + + + + + + + + + + + + + + + 1 -.q.;.w.H.^ ) M v + + + + + % c z + + + + * & + + + + + + + + + + + ",
"+ + + + + + + + + + + + + + + + + + + + + + + + V -.-.;.u.Y.G.U.b.D.] n # + + + + + + + + + + + + + + + + + + + + + + + ",
"+ + + + + + + + + + + + + + + + + + + + + + + j a.F.%.y.L.B.C.J.I.V.| [ v # + + + + + + + + + + + + + + + + + + + + + + ",
"+ + + + + + + + + + + + + + + + + + + + + + c =.;.N.d.m.( [ W C.p.$. . . .n # + + + + + + + + + + + + + + + + + + + + + ",
"+ + + + + + + + + + + + + + + + + + + + + z -.q.;.M.J.e.#.;.R N | O.X.[  . .# + + + + + + + + + + + + + + + + + + + + + ",
"+ + + + + + + + + + + + + + + + + + + + # @.-.-.:.d.n.' M 7./ b | } } ] n [ # + + + + + + + + + + + + + + + + + + + + + ",
"+ + + + + + + + + + + + + + + + + + + + % -.-.-.e.>.B.~ ) U Y B T T T A.v.J # + + + + + + + + + + + + + + + + + + + + + ",
"+ + + + + + + + + + + + + + + + + + + + +.-.-.e.e.&.w.D.v.K.n.D.L.G.D.n.z + + + + + + + + + + + + + + + + + + + + + + + ",
"+ + + + + + + + + + + + + + + + + + # +.-.-.-.-.e.o.} w.c./ c.b.! ! N 1 + + + + + + + + + + + + + + + + + + + + + + + + ",
"+ + + + + + + + + + + + + + + + + + +.-.e.-.e.e.*.q. ...+.] ] [ b j # + + + + + + + + + + + + + + + + + + + + + + + + + ",
"+ + + + + + + + + + + + + + + + + # -.-.-.-.-.@. .+.o.M  . . .v # . + + + + + + + + + + + + + + + + + + + + + + + + + + ",
"+ + + + + + + + + + + + + + + + + m -.-.q.-.*.o...n  .n n < < + + + + + + + + + + + + + + + + + + + + + + + + + + + + + ",
"+ + + + + + + + + + + + + + + + + m -.-.e.*.o.@.@.M < # # + . + + + + + + + + + + + + + + + + + + + + + + + + + + + + + ",
"+ + + + + + + + + + + + + + + + + + -.-.e.@.N n c + + + + + + + + + + + + + + + + + + + + + + + + + + + + + + + + + + + ",
"+ + + + + + + + + + + + + + + + + + c =.*.@.N # + + + + + + + + + + + + + + + + + + + + + + + + + + + + + + + + + + + + "
};
