/* XPM */
static char *result[] = {
/* columns rows colors chars-per-pixel */
"60 60 160 2 ",
"   c #160F17",
".  c #190A14",
"X  c #170E18",
"o  c #1B0D1D",
"O  c #111111",
"+  c #1C1015",
"@  c #17161A",
"#  c #1A141D",
"$  c #1A181D",
"%  c #21030B",
"&  c #250713",
"*  c #230A13",
"=  c #2A0A14",
"-  c #2B0E19",
";  c #330C1D",
":  c #390F1F",
">  c #35131D",
",  c #3D2719",
"<  c #1E0C22",
"1  c #17012F",
"2  c #1F1020",
"3  c #1E1B24",
"4  c #1B1A28",
"5  c #200221",
"6  c #290525",
"7  c #210A25",
"8  c #25052C",
"9  c #29072E",
"0  c #26092B",
"q  c #2B0D2D",
"w  c #310A21",
"e  c #3C0E22",
"r  c #320A2C",
"t  c #201E27",
"y  c #2B132B",
"u  c #211E29",
"i  c #3D1D23",
"p  c #35192F",
"a  c #2C0632",
"s  c #2E0932",
"d  c #330C34",
"f  c #3B0B36",
"g  c #35063D",
"h  c #35093A",
"j  c #3A0B3D",
"k  c #291E34",
"l  c #2D1C3B",
"z  c #391333",
"x  c #321837",
"c  c #23212C",
"v  c #252331",
"b  c #2A2436",
"n  c #2E253D",
"m  c #2C2A3B",
"M  c #31273F",
"N  c #37293A",
"B  c #3A2C3F",
"V  c #410F29",
"C  c #431627",
"Z  c #5D1722",
"A  c #480E3B",
"S  c #4D153D",
"D  c #421D38",
"F  c #501837",
"G  c #601220",
"H  c #412531",
"J  c #482938",
"K  c #5A2C3D",
"L  c #45333A",
"P  c #48343D",
"I  c #5D3733",
"U  c #563638",
"Y  c #5E3D3C",
"T  c #603C28",
"R  c #7E2B36",
"E  c #653C35",
"W  c #603E3D",
"Q  c #574613",
"!  c #7A461B",
"~  c #774431",
"^  c #784531",
"/  c #794E33",
"(  c #7C4C3C",
")  c #7E5234",
"_  c #1E1F42",
"`  c #3E0B41",
"'  c #2E1340",
"]  c #272343",
"[  c #2C2641",
"{  c #2D2845",
"}  c #22244C",
"|  c #302740",
" . c #322942",
".. c #362E49",
"X. c #393147",
"o. c #37314A",
"O. c #3A334D",
"+. c #382C50",
"@. c #2F345D",
"#. c #323151",
"$. c #3C3652",
"%. c #3E3A56",
"&. c #36375A",
"*. c #3D3A59",
"=. c #420B45",
"-. c #45054F",
";. c #440B48",
":. c #4C0C4E",
">. c #491444",
",. c #4C1847",
"<. c #431249",
"1. c #4D124D",
"2. c #4F0C51",
"3. c #510C53",
"4. c #611D45",
"5. c #422749",
"6. c #403445",
"7. c #4E3E45",
"8. c #573C48",
"9. c #54394F",
"0. c #453756",
"q. c #433B56",
"w. c #413C59",
"e. c #593850",
"r. c #513A58",
"t. c #613B4B",
"y. c #6A3A56",
"u. c #433E65",
"i. c #6B4E47",
"p. c #644548",
"a. c #634C4E",
"s. c #695A4F",
"d. c #715347",
"f. c #7B5442",
"g. c #6C4455",
"h. c #53436C",
"j. c #794867",
"k. c #7D516B",
"l. c #99161C",
"z. c #B82928",
"x. c #85581E",
"c. c #AF5B1F",
"v. c #85432F",
"b. c #894A2D",
"n. c #944D27",
"m. c #834730",
"M. c #885536",
"N. c #AA7E28",
"B. c #D9671C",
"V. c #E07F1F",
"C. c #C36D22",
"Z. c #CF7D20",
"A. c #D17A22",
"S. c #8C5971",
"D. c #9E647F",
"F. c #F28824",
"G. c #8B5B84",
"H. c #95638F",
"J. c #98678F",
"K. c #A3688F",
/* pixels */
"O O O O O O O O O O O O O O O O O O O O O O O O O O O O O O O O O O O O O O O O O O O O O O O O O O O O O O O O O O O O ",
"O O O O O O O O O O O O O O O O O O O O O O O O O O O O O O O O O O O O O O O O O O O O O O O O O O O O O O O O O O O O ",
"O O O O O O O O O O O O O O O O O O O O O O O O O O O O O O O O O O O O O O O O O O O O O O O O O O O O O O O O O O O O ",
"O O O O O O O O O O O O O O O O O O O O O O O O O O O O O O O O O O O O O O O O O O O O O O O O O O O O O O O O O O O O ",
"O O O O O O O O O O O O O O O O O O O O O O O O O O O O O O O O O O O O O O O O O O O O O O O O O O O O O O O O O O O O ",
"O O O O O O O O O O O O O O O O O O O O O O O O O O O O O O O O O O O O O O O O O O O O O O O O O O O O O O O O O O O O ",
"O O O O O O O O O O O O O O O O O O O O O O O O O O O O O O O O O O O O O O O O O O O O O O O O O O O O O O O O O O O O ",
"O O O O O O O O O O O O O O O O O O O O O O O O O O O O O O O O O O O O O O O O O O O O O O O O O O O O O O O O O O O O ",
"O O O O O O O O O O O O O O O O O O O O O O O O O O O O O O O O O O O O O O O O O O O O O O O O O O O O O O O O O O O O ",
"O O O O O O O O O O O O O O O O O O O O O O O O O O O O O O O O O O O O O O O O O O O O O O O O O O O O O O O O O O O O ",
"O O O O O O O O O O O O O O O O O O O O O O O O O O O O O O O O O O O O O O O O O O O O O O O O O O O O O O O O O O O O ",
"O O O O O O O O O O O O O O O O O O O O O O O O O O O O O O O O O O O O O O O O O O O O O O O O O O O O O O O O O O O O ",
"O O O O O O O O O O O O O O O O O O O O O O O O O O O O O O O O O O O O O O O O O O O O O O O O O O O O O O O O O O O O ",
"O O O O O O O O O O O O O O O O O O O O O O O O O O O O O O O O O O O O O O O O O O O O O O O O O O O O O O O O O O O O ",
"O O O O O O O O O O O O O O O O O O O O O O O O O O O O O O O O O O O O O O O O O O O O O O O O O O O O O O O O O O O O ",
"O O O O O O O O O O O O O O O O O O O O O O O O O O O O O O O O O O O O O O O O O O O O O O O O O O O O O O O O O O O O ",
"O O O O O O O O O O O O O O O O O O O O O O O O O O O O O O O O O O O O O O O O O O O O O O O O O O O O O O O O O O O O ",
"O O O O O O O O O O O O O O O O O O O O O O O O O O O O O O O O O O O O O O O O O O O O O O O O O O O O O O O O O O O O ",
"O O O O O O O O O O O O O O O O O O O O O O O O O O O O O O O O O O O O O O O O O O O O O O O O O O O O O O O O O O O O ",
"O O O O O O O O O O O O O O O O O O O O O O O O O O O O O O O O O O O O O O O O O O O O O O O O O O O O O O O O O O O O ",
"O O O O O O O O O O O O O O O O O O O O O O O O O O O O O O O O O O O O O O O O O O O O O O O O O O O O O O O O O O O O ",
"O O O O O O O O X o O O O O O O O O O O O O O O O O O O O O O O O O O O O O O O O O O O O O O O O O O O O O O O O O O O ",
"O O O O O O O O 9 O O O O O O O O < O O O O O O O O O O O O O O O O O O O O O O O O O O O O O O O O O O O O O O O O O O ",
"O O O O O O O O   O O O O O O O O O O O O O O O O O O O O O O O O O O O O O O O O O O O O O O O O O O O O O O O O O O O ",
"O O O O O O O O O O O O O O O O O O O O O O O O O O O O O O O O O O O O O O O O O O O O O O O O O O O O O O O O O O O O ",
"O O O O O O O O O O O O O O O O O O O O O O O O O O O O O O O O O O O O O O O O O O O O O O O O O O O O O O O O O O O O ",
"O O O O O O O O O O O O O O O O O O O O o o o O O O O O O O O O O O O O O O O O O O O O O O O O O O O O O O O O O O O O ",
"O O O O O O O O O O O O O O s <.2 O O < 9 7 0 < O O O O O O O O O O O O O O O O O O O O O O O O O O O O O O O O O O O O ",
"O O O O O O O O O O O O O d s h =.O O o 7 O O O # f q # O O O O O O O O.q.$ O O O O O O O O O O O O O O O O O O O O O O ",
"O O O O O O O O O O O O < ` X < =.@ O O j g ` d :.3.:.:.h q O O O O X.h.h.w.$ O O O O O O O O O O O O O O O O O O O O O ",
"O O O O O O O O O O O O < X O O ` q O =.3.3.3.:.2.:.2.:.2.=.d O O O h.*.( { t O O O O O O O O O O O O O O O O O O O O O ",
"O O O O O O O O O O O O O X O O s z j :.s =.:.2.:.2.2.3.g =.;.q O b h.( B.3 t O O O O O O O O O O O O O O O O O O O O O ",
"O O O O O O O O O O O O   0 X O 0 2.;.a 7 0 :.:.2.:.:.g h j 9 s @ l u.) F.< +.O O O O O O O O O O O O O O O O O O O O O ",
"O O O O O O O O O O O O 0   O O < g a 7 @ o :.2.3.:.9 0 1.J >.h 8 ' 7.Y ! X o.Q O O O O O O O O O O O O O O O O O O O O ",
"O O O O O O O O O O O O o o O O O < < O     0 =.=.g 5 H J z H >.r 6 f r._ b N.x.O O O O O O O O O O O O O O O O O O O O ",
"O O O O O O O O O O O O O X O O O O O 0 o   8 8 s 1.r C :.3.D > = = r K a.s.Z.x.O O O O O O O O O O O O O O O O O O O O ",
"O O O O O O O O O O O O O O O O O O < a 7 O d =.:.1.i : w :.e * . & = 4.V.Z.A.T O O O O O O O O O O O O O O O O O O O O ",
"O O O O O O O O O O O O O O O O O O a 7 O O s 3.2.,.z V : : * Z l.G * S ( v.C.} v O O O O O O O O O O O O O O O O O O O ",
"O O O O O O O O O O O O O O O O O O 7 < O O o =.2.2.a g A = j R z.C * w 5.H.8...w.m O O O O O O O O O O O O O O O O O O ",
"O O O O O O O O O O O O O O O O O O O 7 O O O 0 2.=.8 9 d =.3.>.<.y q e C K.G.k o.%.m O O O O O O O O O O O O O O O O O ",
"O O O O O O O O O O O O O O O O O O O   O O O O s d 9 9 8 g 2.2.:.9 -.e.S.g.J ; p o.q. .O O O O O O O O O O O O O O O O ",
"O O O O O O O O O O O O O O O O O O O O O O O O O 0 7 0 1 8 g :.d g F Y c + O + % j.J.$.$ O O O O O O O O O O O O O O O ",
"O O O O O O O O O O O O O O O O O O O O O O O O O O O + , x 8 8 8 l n.$ O O O O O t.D.y.+ O O O O O O O O O O O O O O O ",
"O O O O O O O O O O O O O O O O O O O O O O O O O O O O , M.m.m.I ^ c.O O O O O O N 9.k.* - + O O O O O O O O O O O O O ",
"O O O O O O O O O O O O O O O O O O O O O O O O O O O O b $.q.*.d.f.i.! O O O O O v  .%.O * ; - O O O O O O O O O O O O ",
"O O O O O O O O O O O O O O O O O O O O O O O O O O O n [ *.q.*.&.&.@.M.L c $ O O 3 m $ O O O * * O O O O O O O O O O O ",
"O O O O O O O O O O O O O O O O O O O O O O O O O O 4 n |  .%.*.&.0.f.p.&.%.m O O O O O O O O O O O O O O O O O O O O O ",
"O O O O O O O O O O O O O O O O O O O O O O O O O 3 b. .[ n { 6.W M.a.&.w.%.%.O O O O O O O O O O O O O O O O O O O O O ",
"O O O O O O O O O O O O O O O O O O O O O O O @ t n E ~ E L P / E M #.w.*.*.O.O O O O O O O O O O O O O O O O O O O O O ",
"O O O O O O O O O O O O O O O O O O O O O t v m  .| ] B U ~ M. .[ | ..*.w.O.$ O O O O O O O O O O O O O O O O O O O O O ",
"O O O O O O O O O O O O O O O O O @ t m O.$.o.[ |  . .| [ ] ]  ...*.$.*.O.@ O O O O O O O O O O O O O O O O O O O O O O ",
"O O O O O O O O O O O O O O O O t $.*.%.O.M M  . . .o.$.o.| q.$.*.q.q...@ O O O O O O O O O O O O O O O O O O O O O O O ",
"O O O O O O O O O O O O O O O O o.o.o. .[ M  . . . . .....O.w.*.%.%.%.3 O O O O O O O O O O O O O O O O O O O O O O O O ",
"O O O O O O O O O O O O O O O O n |  .n  . . . .O. .| | M %.*.q.%.%.$.O O O O O O O O O O O O O O O O O O O O O O O O O ",
"O O O O O O O O O O O O O O O O 3  .M  . . .o... .o. .|  .%.%.%.%.$.@ O O O O O O O O O O O O O O O O O O O O O O O O O ",
"O O O O O O O O O O O O O O O O @ n  . .M  .n ..o. . . .o.w.*.%.t @ O O O O O O O O O O O O O O O O O O O O O O O O O O ",
"O O O O O O O O O O O O O O O O O @  .| M o.o. ... .M  . .q.$.3 O O O O O O O O O O O O O O O O O O O O O O O O O O O O ",
"O O O O O O O O O O O O O O O O O O u  . .M ..o. . . . .b b 3 O O O O O O O O O O O O O O O O O O O O O O O O O O O O O ",
"O O O O O O O O O O O O O O O O O O O u  .[ | | O. . .b 3 O O O O O O O O O O O O O O O O O O O O O O O O O O O O O O O ",
"O O O O O O O O O O O O O O O O O O O O 2 t n n n n b O O O O O O O O O O O O O O O O O O O O O O O O O O O O O O O O O "
};
