/* XPM */
static char *result[] = {
/* columns rows colors chars-per-pixel */
"60 60 202 2 ",
"   c #2A0A17",
".  c #2C0A19",
"X  c #270916",
"o  c #350D1E",
"O  c #2C1C1F",
"+  c #1F1320",
"@  c #280727",
"#  c #2B0924",
"$  c #27062C",
"%  c #29072F",
"&  c #2C0A2F",
"*  c #3C0F22",
"=  c #350C2B",
"-  c #380C27",
";  c #291923",
":  c #241620",
">  c #391222",
",  c #3C112D",
"<  c #3C1D2A",
"1  c #361528",
"2  c #2B0731",
"3  c #2C0932",
"4  c #310B34",
"5  c #390C34",
"6  c #360A3A",
"7  c #3A0B3E",
"8  c #311135",
"9  c #3B163C",
"0  c #341A3C",
"q  c #3A1B3D",
"w  c #351937",
"e  c #3F212E",
"r  c #2F263F",
"t  c #3F2332",
"y  c #31263E",
"u  c #392B3D",
"i  c #65131F",
"p  c #7A171F",
"a  c #512F1E",
"s  c #773F1F",
"d  c #400F2E",
"f  c #411C2C",
"g  c #421624",
"h  c #420F37",
"j  c #421333",
"k  c #421B33",
"l  c #431B3A",
"z  c #44163E",
"x  c #531F3F",
"c  c #671923",
"v  c #41212E",
"b  c #4B232F",
"n  c #53252D",
"m  c #5B232F",
"M  c #422432",
"N  c #49273A",
"B  c #552A34",
"V  c #4C363C",
"C  c #553437",
"Z  c #673B2F",
"A  c #763B20",
"S  c #682334",
"D  c #6A3D33",
"F  c #5D413E",
"G  c #794824",
"H  c #6B4837",
"J  c #7A4532",
"K  c #7D4D3B",
"L  c #784834",
"P  c #78582B",
"I  c #3D0B41",
"U  c #3C1C42",
"Y  c #3E1242",
"T  c #2D2642",
"R  c #312741",
"E  c #3C2143",
"W  c #322A43",
"Q  c #362E49",
"!  c #3A2C4C",
"~  c #382F47",
"^  c #37304C",
"/  c #3A334C",
"(  c #3F374A",
")  c #3C3652",
"_  c #3F3A57",
"`  c #3D3A58",
"'  c #420C44",
"]  c #490D46",
"[  c #460B49",
"{  c #4C0C4E",
"}  c #431445",
"|  c #481246",
" . c #441943",
".. c #4B124B",
"X. c #491C4C",
"o. c #46134B",
"O. c #4E0C50",
"+. c #531B54",
"@. c #511453",
"#. c #412545",
"$. c #442A46",
"%. c #492E4E",
"&. c #47294B",
"*. c #46334D",
"=. c #433A4F",
"-. c #483746",
";. c #563D4E",
":. c #4D2A50",
">. c #4C3553",
",. c #433B55",
"<. c #493D53",
"1. c #423C5A",
"2. c #4B3F5E",
"3. c #523A56",
"4. c #553D59",
"5. c #573356",
"6. c #6B3A56",
"7. c #473E61",
"8. c #5E3861",
"9. c #653B66",
"0. c #5C454B",
"q. c #584147",
"w. c #474054",
"e. c #4A4255",
"r. c #4A455B",
"t. c #544450",
"y. c #56405A",
"u. c #5A445E",
"i. c #554A59",
"p. c #6C4A42",
"a. c #644548",
"s. c #664847",
"d. c #764C46",
"f. c #7C5545",
"g. c #6F435A",
"h. c #67495A",
"j. c #78435F",
"k. c #655059",
"l. c #69534B",
"z. c #4C4264",
"x. c #4C4961",
"c. c #5D4262",
"v. c #514D64",
"b. c #584668",
"n. c #565269",
"m. c #5E5B6F",
"M. c #595569",
"N. c #594771",
"B. c #5D4B73",
"V. c #69496A",
"C. c #784863",
"Z. c #685A6B",
"A. c #7B5B6D",
"S. c #69597C",
"D. c #695E73",
"F. c #7B567A",
"G. c #656272",
"H. c #6C6878",
"J. c #736A79",
"K. c #766566",
"L. c #8D171F",
"P. c #CE2729",
"I. c #9F592F",
"U. c #8E5135",
"Y. c #865438",
"T. c #955D38",
"R. c #985934",
"E. c #8E5729",
"W. c #A55C2D",
"Q. c #A5572A",
"!. c #BA5D21",
"~. c #A55F38",
"^. c #99633F",
"/. c #AD642B",
"(. c #B1642A",
"). c #BB6C2A",
"_. c #B96424",
"`. c #A76531",
"'. c #AC7332",
"]. c #C26B25",
"[. c #C16722",
"{. c #C77A26",
"}. c #C27B3E",
"|. c #B87744",
" X c #89556E",
".X c #86556A",
"XX c #8C5A79",
"oX c #925D7C",
"OX c #8C6073",
"+X c #A37D64",
"@X c #BC8126",
"#X c #C3852B",
"$X c #B58B4A",
"%X c #97876C",
"&X c #C58342",
"*X c #C99444",
"=X c #716582",
"-X c #7D758A",
";X c #9A638B",
":X c #847A8F",
">X c #8B838D",
",X c None",
/* pixels */
",X,X,X,X,X,X,X,X,X,X,X,X,X,X,X,X,X,X,X,X,X,X,X,X,X,X,X,X,X,X,X,X,X,X,X,X,X,X,X,X,X,X,X,X,X,X,X,X,X,X,X,X,X,X,X,X,X,X,X,X",
",X,X,X,X,X,X,X,X,X,X,X,X,X,X,X,X,X,X,X,X,X,X,X,X,X,X,X,X,X,X,X,X,X,X,X,X,X,X,X,X,X,X,X,X,X,X,X,X,X,X,X,X,X,X,X,X,X,X,X,X",
",X,X,X,X,X,X,X,X,X,X,X,X,X,X,X,X,X,X,X,X,X,X,X,X,X,X,X,X,X,X,X,X,X,X,X,X,X,X,X,X,X,X,X,X,X,X,X,X,X,X,X,X,X,X,X,X,X,X,X,X",
",X,X,X,X,X,X,X,X,X,X,X,X,X,X,X,X,X,X,X,X,X,X,X,X,X,X,X,X,X,X,X,X,X,X,X,X,X,X,X,X,X,X,X,X,X,X,X,X,X,X,X,X,X,X,X,X,X,X,X,X",
",X,X,X%.8 ,X,X,X,X,X,X,X,X,X3.3.,X,X,X,X,X,X,X,X,X,X,X,X,X,X,X,X,X,X,X,X,X,X,X,X,X,X,X,X,X,X,X,X,X,X,X,X,X,X,X,X,X,X,X,X",
",X,X4.8 0 $.,X,X,X,X,X,X,XM.q E #.$.,X,X,X,X,X,X,X,X,X,X,X,X,X,X,X,X,X,X,X,X,X,X,X,X,X,X,X,X,X,X,X,X,X,X,X,X,X,X,X,X,X,X",
",X,Xu.4.,X,X,X,X,X,X,X,XJ.>.,X,X,X,X,X,X,X,X,X,X,X,X,X,X,X,X,X,X,X,X,X,X,X,X,X,X,X,X,X,X,X,X,X,X,X,X,X,X,X,X,X,X,X,X,X,X",
",X,X>X,X,X,X,X,X,X,X,X,X,X,X,X,X,X,X,X,X,X,X,X,X,X,X,X,X,X,X,X,X,X,X,X,X,X,X,X,X,X,X,X,X,X,X,X,X,X,X,X,X,X,X,X,X,X,X,X,X",
",X,X,X,X,X,X,X,X,X,X,X,X,X,X,X,X,X,X,X,X,X,X,X,X,X,X,X,X,X,X,X,X,X,X,X,X,X,X,X,X,X,X,X,X,X,X,X,X,X,X,X,X,X,X,X,X,X,X,X,X",
",X,X,X,X,X,X,X,X,X,X,X,X,X,X,X,X,X,X,X,X,X,X,X,X,X,X,X,X,X,X,X,X,X,X,X,X,X,X,X,X,X,X,X,X,X,X,X,X,X,X,X,X,X,X,X,X,X,X,X,X",
",X,X,X,X,X,X,X,X,X,X,X,X,X,X,X,X,X,X,X,X,X,X,X,X,X,X,X,X,X,X,X,X,X,X,X,X,X,X,X,X,X,X,X,X,X,X,X,X,X,X,X,X,X,X,X,X,X,X,X,X",
",X,X,X,X,X,X,X,X,X,X,X,X,X,X,X,X,X,X,X,X,X,X,X,X,X,X,X,X,X,X,X,X,X,X,X,X,X,X,X,X,X,X,X,X,X,X,X,X,X,X,X,X,X,X,X,X,X,X,X,X",
",X,X,X,X,X,X,X,X,X,X,X,X,X,X,X,X,X,X,X,X,X,X,X,X,X,X,X,X,X,X,X,X,X,X,X,X,X,X,X,X,X,X,X,X,X,X,X,X,X,X,X,X,X,X,X,X,X,X,X,X",
",X,X,X,X,X,X,X,X,X,XV.@.O.@.,X,X,X,X,X,X,X,X,X9.7 9 V.,X,X,X,X,X,X,X,X,X,X,XS.N.B.=X,X,X,X,X,X,X,X,X,X,X,X,X,X,X,X,X,X,X",
",X,X,X,X,X,X,X,X,X+.[ I [ [ X.,X,X,X,X,X,X8...{ { { 7 2 #.%.,X,X,X,X,X,X,XS.N.z.z.z.H.,X,X,X,X,X,X,X,X,X,X,X,X,X,X,X,X,X",
",X,X,X,X,X,X,X,X+.7 5.4.6 [ { 9.,X,XZ.3 7 { O.O.{ { { I % % %.,X,X,X,X,X:XN.z.1.<.) z.,X,X,X,X,X,X,X,X,X,X,X,X,X,X,X,X,X",
",X,X,X,X,X,X,X+.Y >.,X,Xy.6 [ 9.,X,XD.' { { O.{ { O.O.] 4 % 8 ,X,X,X,X,X-Xz.` 0.U.Z -.,X,X,X,X,X,X,X,X,X,X,X,X,X,X,X,X,X",
",X,X,X,X,X,XV.X.,X,X,X,X,X6 ' ..9 ' @.{ { { { O.O.{ { { I 2 3 3 %.,X,X,XB.7.t.R.!.s u ,X,X,X,X,X,X,X,X,X,X,X,X,X,X,X,X,X",
",X,X,X,X,X,X} >.,X,X,X,X,Xu.4 [ { { { { { O.{ O.{ O.{ O.' 3 3 $ #.,X,XD.b.7.0./.[.s ; =.,X,X,X,X,X,X,X,X,X,X,X,X,X,X,X,X",
",X,X,X,X,X,X5.,X,X,X,X,X,X,X9 7 [ { { { O.{ O.{ O.{ O.{ I & 8 3 2 & % 2 0 ^ -.E.{.G ; <.,X,X,X,X,X,X,X,X,X,X,X,X,X,X,X,X",
",X,X,X,X,Xu.,X,X,X,X,X,X,X,X4.% 6 [ { O.{ O.{ O.O.O.{ [ 7 < t 9 7 6 % % 4 C V C G a O -.%X,X,X,X,X,X,X,X,X,X,X,X,X,X,X,X",
",X,X,X,X,X .,X,X,X,Xy.,X,X,X,XU 6 { O.{ O.{ { O.{ [ h l M t t l ..{ 7 % & f ;.V.u + O P $X,X,X,X,X,X,X,X,X,X,X,X,X,X,X,X",
",X,XZ.E q q ,X,X,X,X,X,X,X,X,X,XU I { O.{ { O.{ O.[ , M N | l t < 5 - # # $ 0 >.) ~ H @X*X,X,X,X,X,X,X,X,X,X,X,X,X,X,X,X",
",X,X,X,X~ V.,X,X8.V.,X,X,X,X,X,X,XX.{ [ { { { O.O.| , k | { ..l > o . . X # 2 w ;.t.l.'.*X,X,X,X,X,X,X,X,X,X,X,X,X,X,X,X",
",X,X,X,X,X,X,X,Xu.u.,X,X,X,X,X,X,X,XY 3 I [ { { ..l g o - ] ] d o         . $ n _.#X#X#X&X,X,X,X,X,X,X,X,X,X,X,X,X,X,X,X",
",X,X,X,X,X,X,X,X>X,X,X,X,X,X,X,X,X,X:.3 2 4 I ' l < o o o d d o         X . @ m (.[.!._.^.,X,X,X,X,X,X,X,X,X,X,X,X,X,X,X",
",X,X,X,X,X,X,X,X,X,X,X,X,X,X,X,X,X,X,XE $ 3 4 4 z z j d * * o . g p L.i .   # k D J Q.(.F r.,X,X,X,X,X,X,X,X,X,X,X,X,X,X",
",X,X,X,X,X,X,X,X,X,X,X,X,X,X,X,X,X,X,XV.3 ' [ ] ..O.O.z d * . = S P.P.c .   o = %.V. Xd.-.) x.,X,X,X,X,X,X,X,X,X,X,X,X,X",
",X,X,X,X,X,X,X,X,X,X,X,X,X,X,X,X,X,X,X,X%.[ { O.{ { { { ] - = ] X.S m < . . o > f .X;X8.W Q ) x.,X,X,X,X,X,X,X,X,X,X,X,X",
",X,X,X,X,X,X,X,X,X,X,X,X,X,X,X,X,X,X,X,Xu.7 [ [ [ { O.{ { ] { { ..[ z l h = # > g 6.;XXX<.y Q _ x.,X,X,X,X,X,X,X,X,X,X,X",
",X,X,X,X,X,X,X,X,X,X,X,X,X,X,X,X,X,X,X,X,X3.8 3 4 I { { O.{ { { O.{ { { I 2 9 g. XXXXX.XN w y Q _ x.,X,X,X,X,X,X,X,X,X,X",
",X,X,X,X,X,X,X,X,X,X,X,X,X,X,X,X,X,X,X,X,X,X%.0 E  .I { { { O.{ { O.{ { 7 2 ~ C.OXOX,X,Xf > 1 $.c.2.x.,X,X,X,X,X,X,X,X,X",
",X,X,X,X,X,X,X,X,X,X,X,X,X,X,X,X,X,X,X,X,X,X,X,X,X,X$.} { O.{ O.O.{ O.' 5 n a.A.,X,X,X,X,XV < 6.;XF.2.m.,X,X,X,X,X,X,X,X",
",X,X,X,X,X,X,X,X,X,X,X,X,X,X,X,X,X,X,X,X,X,X,X,X,X,X,X3.} 7 ' O.{ { o.U B d.,X,X,X,X,X,X,X,X,XA.oXoX5.u.,X,X,X,X,X,X,X,X",
",X,X,X,X,X,X,X,X,X,X,X,X,X,X,X,X,X,X,X,X,X,X,X,X,X,X,Xm.) ! ! U I Y R E J f.,X,X,X,X,X,X,X,X,X,X.X.XC.N k.,X,X,X,X,X,X,X",
",X,X,X,X,X,X,X,X,X,X,X,X,X,X,X,X,X,X,X,X,X,X,X,X,X,XK.t.t.r.` ) Q R W D `.,X,X,X,X,X,X,X,X,X,X,X*.g.g.M v f ,X,X,X,X,X,X",
",X,X,X,X,X,X,X,X,X,X,X,X,X,X,X,X,X,X,X,X,X,X,X,X,X+X`.).).^.s.0.,.W W p.,X,X,X,X,X,X,X,X,X,X,X,XW ~ <.G.,XM v M ,X,X,X,X",
",X,X,X,X,X,X,X,X,X,X,X,X,X,X,X,X,X,X,X,X,X,X,X,X,XH.;.K U.T./.(.Y.p.0.,X,X,X,X,X,X,X,X,X,X,X,X,X( 1.G.,X,X,X,XM f N ,X,X",
",X,X,X,X,X,X,X,X,X,X,X,X,X,X,X,X,X,X,X,X,X,X,X,X,Xv._ _ ) _ 0.K T.).}.,X,X,X,X,X,X,X,X,X,X,X,X,Xr.,X,X,X,X,X,X,X,Xe k.,X",
",X,X,X,X,X,X,X,X,X,X,X,X,X,X,X,X,X,X,X,X,X,X,X,XJ.) _ _ _ _ _ ) ,.a.f.R.|.,X,X,X,X,X,X,X,X,X,X,X,X,X,X,X,X,X,X,X,X,X,X,X",
",X,X,X,X,X,X,X,X,X,X,X,X,X,X,X,X,X,X,X,X,X,X,X,XH.W ^ ) _ ,._ 1.<.1.p.W.].|.,X,X,X,X,X,X,X,X,X,X,X,X,X,X,X,X,X,X,X,X,X,X",
",X,X,X,X,X,X,X,X,X,X,X,X,X,X,X,X,X,X,X,X,X,X,X,X( W W ) _ w.t.0.^.`.W.Q.Q.p.m.,X,X,X,X,X,X,X,X,X,X,X,X,X,X,X,X,X,X,X,X,X",
",X,X,X,X,X,X,X,X,X,X,X,X,X,X,X,X,X,X,X,X,X,X,XG.W u V F 0.Y./.R.U.t.,.<.,._ n.,X,X,X,X,X,X,X,X,X,X,X,X,X,X,X,X,X,X,X,X,X",
",X,X,X,X,X,X,X,X,X,X,X,X,X,X,X,X,X,X,X,X,X,X,Xp.H H /.].(.U.a.,.,._ _ _ _ _ n.,X,X,X,X,X,X,X,X,X,X,X,X,X,X,X,X,X,X,X,X,X",
",X,X,X,X,X,X,X,X,X,X,X,X,X,X,X,X,X,X,X,X,X,XZ.L Y.J J J s.,._ _ _ _ _ _ _ _ n.,X,X,X,X,X,X,X,X,X,X,X,X,X,X,X,X,X,X,X,X,X",
",X,X,X,X,X,X,X,X,X,X,X,X,X,X,X,X,X,X,X,X,X,X=.T r r T ^ _ _ _ _ _ _ _ _ _ _ M.,X,X,X,X,X,X,X,X,X,X,X,X,X,X,X,X,X,X,X,X,X",
",X,X,X,X,X,X,X,X,X,X,X,X,X,X,X,X,X,X,X,X,Xi.W W W W ^ ` _ _ ` _ _ _ _ _ _ x.,X,X,X,X,X,X,X,X,X,X,X,X,X,X,X,X,X,X,X,X,X,X",
",X,X,X,X,X,X,X,X,X,X,X,X,X,X,X,X,X,X,X,XM.W r W r W ) _ _ _ 1._ _ _ _ _ x.,X,X,X,X,X,X,X,X,X,X,X,X,X,X,X,X,X,X,X,X,X,X,X",
",X,X,X,X,X,X,X,X,X,X,X,X,X,X,X,X,X,X,X,Xr.y W W W W W ^ _ _ _ _ _ _ ` x.,X,X,X,X,X,X,X,X,X,X,X,X,X,X,X,X,X,X,X,X,X,X,X,X",
",X,X,X,X,X,X,X,X,X,X,X,X,X,X,X,X,X,X,XG.y W W W W ^ _ ` _ _ _ _ _ _ x.,X,X,X,X,X,X,X,X,X,X,X,X,X,X,X,X,X,X,X,X,X,X,X,X,X",
",X,X,X,X,X,X,X,X,X,X,X,X,X,X,X,X,X,X,Xw.W W W ^ ^ ^ ) _ _ _ _ _ _ _ H.,X,X,X,X,X,X,X,X,X,X,X,X,X,X,X,X,X,X,X,X,X,X,X,X,X",
",X,X,X,X,X,X,X,X,X,X,X,X,X,X,X,X,X,XH.W W W Q Q ( ) _ _ _ _ _ _ _ n.,X,X,X,X,X,X,X,X,X,X,X,X,X,X,X,X,X,X,X,X,X,X,X,X,X,X",
",X,X,X,X,X,X,X,X,X,X,X,X,X,X,X,X,X,X( r r W Q / ) _ _ _ _ _ _ 1.n.,X,X,X,X,X,X,X,X,X,X,X,X,X,X,X,X,X,X,X,X,X,X,X,X,X,X,X",
",X,X,X,X,X,X,X,X,X,X,X,X,X,X,X,X,X=.W W W W W ^ _ _ _ _ _ _ 1.v.,X,X,X,X,X,X,X,X,X,X,X,X,X,X,X,X,X,X,X,X,X,X,X,X,X,X,X,X",
",X,X,X,X,X,X,X,X,X,X,X,X,X,X,X,X,X~ W R W ^ W ^ _ _ 1.` _ w.v.,X,X,X,X,X,X,X,X,X,X,X,X,X,X,X,X,X,X,X,X,X,X,X,X,X,X,X,X,X",
",X,X,X,X,X,X,X,X,X,X,X,X,X,X,X,X,.R R W W Q ^ ^ ) _ _ ` x.x.,X,X,X,X,X,X,X,X,X,X,X,X,X,X,X,X,X,X,X,X,X,X,X,X,X,X,X,X,X,X",
",X,X,X,X,X,X,X,X,X,X,X,X,X,X,XZ.~ y W ^ Q W W Q W ^ ` x.,X,X,X,X,X,X,X,X,X,X,X,X,X,X,X,X,X,X,X,X,X,X,X,X,X,X,X,X,X,X,X,X",
",X,X,X,X,X,X,X,X,X,X,X,X,X,X,Xr.r y W W ) ) ^ Q W ( M.,X,X,X,X,X,X,X,X,X,X,X,X,X,X,X,X,X,X,X,X,X,X,X,X,X,X,X,X,X,X,X,X,X",
",X,X,X,X,X,X,X,X,X,X,X,X,X,X,Xi.W T W W W Q Q W W e.,X,X,X,X,X,X,X,X,X,X,X,X,X,X,X,X,X,X,X,X,X,X,X,X,X,X,X,X,X,X,X,X,X,X",
",X,X,X,X,X,X,X,X,X,X,X,X,X,X,X,Xw.( ( ( / ( ( ( ,.,X,X,X,X,X,X,X,X,X,X,X,X,X,X,X,X,X,X,X,X,X,X,X,X,X,X,X,X,X,X,X,X,X,X,X"
};
