/* XPM */
static char *result[] = {
/* columns rows colors chars-per-pixel */
"60 60 198 2 ",
"   c #270916",
".  c #290916",
"X  c #2C0A1A",
"o  c #350D1D",
"O  c #380E1F",
"+  c #28161B",
"@  c #31111E",
"#  c #3C221C",
"$  c #27052E",
"%  c #29072F",
"&  c #2B092D",
"*  c #2A0A25",
"=  c #310B23",
"-  c #3A0E21",
";  c #3A0D29",
":  c #261B2C",
">  c #2B1E2F",
",  c #281320",
"<  c #351321",
"1  c #3B1524",
"2  c #3B172A",
"3  c #3C1A2A",
"4  c #331826",
"5  c #2C0731",
"6  c #2C0B32",
"7  c #310936",
"8  c #350A3A",
"9  c #390A3D",
"0  c #3E0C33",
"q  c #2B1739",
"w  c #311136",
"e  c #351D35",
"r  c #331439",
"t  c #39153E",
"y  c #35193B",
"u  c #3A1C3D",
"i  c #391A32",
"p  c #3C242C",
"a  c #3D2223",
"s  c #3E2232",
"d  c #34263F",
"f  c #490F1D",
"g  c #4F2E1F",
"h  c #400E2E",
"j  c #451B2E",
"k  c #420E34",
"l  c #410A3C",
"z  c #451339",
"x  c #45193F",
"c  c #421B30",
"v  c #7C1F27",
"b  c #4A302B",
"n  c #503922",
"m  c #432434",
"M  c #4B243A",
"N  c #482539",
"B  c #41313E",
"V  c #4A313B",
"C  c #593739",
"Z  c #553439",
"A  c #683E37",
"S  c #754B3A",
"D  c #7E503D",
"F  c #3E0A42",
"G  c #3E1642",
"H  c #3E1A42",
"J  c #2E2742",
"K  c #312741",
"L  c #3B2040",
"P  c #322942",
"I  c #3A2E43",
"U  c #362E49",
"Y  c #38294C",
"T  c #3A3147",
"R  c #37314B",
"E  c #3A334C",
"W  c #3C3653",
"Q  c #3F3A57",
"!  c #3D3A59",
"~  c #420B45",
"^  c #470B4A",
"/  c #4C0C4E",
"(  c #4A0D47",
")  c #421445",
"_  c #4A1346",
"`  c #431B45",
"'  c #4A1B43",
"]  c #461549",
"[  c #4C124C",
"{  c #451F49",
"}  c #4A1B4C",
"|  c #4E0D50",
" . c #4D1550",
".. c #521353",
"X. c #531B55",
"o. c #561E58",
"O. c #5A1F5C",
"+. c #422246",
"@. c #592A42",
"#. c #433240",
"$. c #42314B",
"%. c #413A4E",
"&. c #4C3D4C",
"*. c #4A3748",
"=. c #51394B",
"-. c #4D2550",
";. c #572259",
":. c #59265B",
">. c #433B53",
",. c #493E53",
"<. c #423D59",
"1. c #493257",
"2. c #5D3E55",
"3. c #63344C",
"4. c #60335A",
"5. c #4A3F62",
"6. c #612963",
"7. c #602761",
"8. c #613363",
"9. c #5C444B",
"0. c #57414A",
"q. c #46415D",
"w. c #4B4359",
"e. c #524352",
"r. c #584457",
"t. c #6C4B45",
"y. c #644A4C",
"u. c #694D48",
"i. c #614547",
"p. c #6D5A48",
"a. c #6D485F",
"s. c #795956",
"d. c #4E4B63",
"f. c #4B4461",
"g. c #514D67",
"h. c #514369",
"j. c #554A69",
"k. c #594667",
"l. c #5C4973",
"z. c #5A4772",
"x. c #6B4B6E",
"c. c #6A4666",
"v. c #7B4C6D",
"b. c #7C4E63",
"n. c #7A5668",
"m. c #6D4F71",
"M. c #615276",
"N. c #645579",
"B. c #68577E",
"V. c #B51D22",
"C. c #80242B",
"Z. c #992830",
"A. c #E42626",
"S. c #8C492B",
"D. c #93522B",
"F. c #94592F",
"G. c #8C5035",
"H. c #8A5B3D",
"J. c #875437",
"K. c #9E5C32",
"L. c #955F39",
"P. c #965731",
"I. c #A4562A",
"U. c #A35A2A",
"Y. c #A85728",
"T. c #BA5E23",
"R. c #B05721",
"E. c #9B6036",
"W. c #A4612D",
"Q. c #A86424",
"!. c #BA6726",
"~. c #BD722F",
"^. c #A46432",
"/. c #AA6C34",
"(. c #BD6B33",
"). c #B46E32",
"_. c #B27035",
"`. c #C26924",
"'. c #C16423",
"]. c #C57226",
"[. c #CD7925",
"{. c #856340",
"}. c #956044",
"|. c #8A566C",
" X c #89566B",
".X c #885B71",
"XX c #8E5879",
"oX c #925C7B",
"OX c #915A76",
"+X c #8F6173",
"@X c #B9842B",
"#X c #CA8426",
"$X c #CB8928",
"%X c #D09041",
"&X c #8A5B82",
"*X c #925D83",
"=X c #9E668C",
"-X c None",
/* pixels */
"-X-X-X-X-X-X-X-X-X-X-X-X-X-X-X-X-X-X-X-X-X-X-X-X-X-X-X-X-X-X-X-X-X-X-X-X-X-X-X-X-X-X-X-X-X-X-X-X-X-X-X-X-X-X-X-X-X-X-X-X",
"-X-X-X-X-X-X-X-X-X-X-X-X-X-X-X-X-X-X-X-X-X-X-X-X-X-X-X-X-X-X-X-X-X-X-X-X-X-X-X-X-X-X-X-X-X-X-X-X-X-X-X-X-X-X-X-X-X-X-X-X",
"-X-X-X-X-X-X-X-X-X-X-X-X-X-X-X-X-X-X-X-X-X-X-X-X-X-X-X-X-X-X-X-X-X-X-X-X-X-X-X-X-X-X-X-X-X-X-X-X-X-X-X-X-X-X-X-X-X-X-X-X",
"-X-X-X-X-X-X-X-X-X-X-X-X-X-X-X-X-X-X-X-X-X-X-X-X-X-X-X-X-X-X-X-X-X-X-X-X-X-X-X-X-X-X-X-X-X-X-X-X-X-X-X-X-X-X-X-X-X-X-X-X",
"-X-X-X-X-X-X-X-X-X-X-X-X-X-X-X-X-X-X-X-X-X-X-X-X-X-X-X-X-X-X-X-X-X-X-X-X-X-X-X-X-X-X-X-X-X-X-X-X-X-X-X-X-X-X-X-X-X-X-X-X",
"-X-X-X-X-X-X-X-X-X-X-X-X-X-X-X-X-X-X-X-X-X-X-X-X-X-X-X-X-X-X-X-X-X-X-X-X-X-X-X-X-X-X-X-X-X-X-X-X-X-X-X-X-X-X-X-X-X-X-X-X",
"-X-X-X-X-X-X-X-X-X-X-X-X-X-X-X-X-X-X-X-X-X-X-X-X-X-X-X-X-X-X-X-X-X-X-X-X-X-X-X-X-X-X-X-X-X-X-X-X-X-X-X-X-X-X-X-X-X-X-X-X",
"-X-X-X-X-X-X-X-X-X-X-X-X-X-X-X-X-X-X-X-X-X-X-X-X-X-X-X-X-X-X-X-X-X-X-X-X-X-X-X-X-X-X-X-X-X-X-X-X-X-X-X-X-X-X-X-X-X-X-X-X",
"-X-X-X-X-X-X-X-X-X-X-X-X-XL w 5 & H -X-X-X-X-X-X-X-X-X-X-X-X-X-X-X-X-X-X-X-X-X-X-X-X-X-X-X-X-X-X-X-X-X-X-X-X-X-X-X-X-X-X",
"-X-X-X-X-X-X-X-X-X-X-X-X-X+.-X-X-X-X-X-X-X-X-X-X-X-X-X-X-X-X-X-X-X-X-X-X-X-X-X-X-X-X-X-X-X-X-X-X-X-X-X-X-X-X-X-X-X-X-X-X",
"-X-X-X-X-X-X-X-X-X-X-X-X-X-X-X-X-X-X-X-X-X-X-X-X-X-X-X-X-X-X-X-X-X-X-X-X-X-X-X-X-X-X-X-X-X-X-X-X-X-X-X-X-X-X-X-X-X-X-X-X",
"-X-X-X-X-X-X-X-X-X-X-X-X-X-X-X-X-X-X-X-X-X-X-X-X-X-X-X-X-X-X-X-X-X-X-X-X-X-X-X-X-X-X-X-X-X-X-X-X-X-X-X-X-X-X-X-X-X-X-X-X",
"-X-X-X-X} -X-X-X-X-X-X-X-X-X-X-X-X-X-X-X-X-X-X-X-X-X-X-X-X-X-X-X-X-X-X-X-X-X-X-X-X-X-X-X-X-X-X-X-X-X-X-X-X-X-X-X-X-X-X-X",
"-X-X-X8.-X-X-X-X-X-X-Xo...-X-X-X-X-X-Xy % % 5 -X-X-X-X-X-X-X-X-X-X-X-X-X-X-X-X-X-X-X-X-X-X-X-X-X-X-X-X-X-X-X-X-X-X-X-X-X",
"-X-X;.-X-X-X-X-X-X-Xo.| / | -X-X-X-XG 5 w r 6 -X-X-X-X-X-X-X-X-X-X-X-X-X-X-X-X-X-X-X-X-X-X-X-X-X-X-X-X-X-X-X-X-X-X-X-X-X",
"-X-XX.7.-X-X-X-X-Xo.~ F / / ;.-X-X-.9 6 -X-X-XX.H 6 5 5 6 -X-X-X-X-X-X-X-X-XM.l.l.l.B.-X-X-X-X-X-X-X-X-X-X-X-X-X-X-X-X-X",
"-X-XX.6.-X-X-X-X;.| 8 6 ^ / | -X-X-Xy r -X-XX./ 5 5 5 5 % 8 -X-X-X-X-X-X-XM.l.h.<.5.5.M.-X-X-X-X-X-X-X-X-X-X-X-X-X-X-X-X",
"-X-XX.-X-X-X-X-XX.F 6 -X` / / 7.-X-X-X` | | / | / ^ ^ ^ 8 5  .-X-X-X-X-X-XM.h.<.,.>.Q f.-X-X-X-X-X-X-X-X-X-X-X-X-X-X-X-X",
"-X-X} ;.-X-X-X` ^ ~ -X-XL 8 / / -X-X-Xo./ / / | / / | / / 8 ~ X.-X-X-X-X-Xl.<.,.G.Y.p ,.-X-X-X-X-X-X-X-X-X-X-X-X-X-X-X-X",
"-X-X-X) { -Xt 9 t -X-X-X-X` ^ | | 6.o./ | / | / / / / | / / 8 / ^ ` -X-XN.h.! D T.R.a T -X-X-X-X-X-X-X-X-X-X-X-X-X-X-X-X",
"-X-X-X] F 8 5 6 -X-X-X-X-XL 8 9 ^ / | / | / | / / | / / / / F ~ | 9 t -X1.5.! H.].!.@ p g.-X-X-X-X-X-X-X-X-X-X-X-X-X-X-X",
"-X-X-X+.[ ~ { -X-X-X-X-X-X-Xd 7 8 ^ / / / | / | | / / / | / ' w 9 6 8 5 5 J U b Q.].# : j.-X-X-X-X-X-X-X-X-X-X-X-X-X-X-X",
"-X-X-X-X-X-X-X-X-X-X-XG t -X-XL 6 ~ / / / | / / / | / / [ x m 3 % 8 / ^ 5 6 q N Z g + : p.-X-X-X-X-X-X-X-X-X-X-X-X-X-X-X",
"-X-X-X-X-X-X-X-X-X-X:.8 w -X-X-XL 8 7 8 / / | / / | ~ 3 N m s s z ^ ^ / ~ 5 % :.r.: + n @X%X-X-X-X-X-X-X-X-X-X-X-X-X-X-X",
"-X-X-X-X-X-X-X-X-X-X[ t -X-X-X-X-X-Xu 8 / | | / / | l 3 m _ 8 m m 1 - - = 8 5 5 Y W &./.$X-X-X-X-X-X-X-X-X-X-X-X-X-X-X-X",
"-X-X-X-X-X-X-X-X-X-XH -X-X-X-X-X-X-X-X` / / / | / | z 2 z ( | _ 3 o . . . X $ $ *.u.p.{.$X-X-X-X-X-X-X-X-X-X-X-X-X-X-X-X",
"-X-X-X-X-X-X-X-X-X-X-X-X-X-X-X-X-X-X-X` / / | / / x j O . k ^ k - X     . X * $ D.[.#X#X[.-X-X-X-X-X-X-X-X-X-X-X-X-X-X-X",
"-X-X-X-X-X-X-X-X-X-X-X-X-X-X-X-X-X-X-X+.^ / / / / m < O O - h - .     o . . X $ S.`.T.'.W.9.-X-X-X-X-X-X-X-X-X-X-X-X-X-X",
"-X-X-X-X-X-X-X-X-X-X-X-X-X-X-X-X-X-X-X-Xu F | / ' _ ( h - O O o @ v V.V.f . X = m C A T.F.E <.-X-X-X-X-X-X-X-X-X-X-X-X-X",
"-X-X-X-X-X-X-X-X-X-X-X-X-X-X-X-X-X-X-X-Xr 9 / | [ / / / ^ h . = x Z.A.C.o . X O i x.*X|.#.R Q <.-X-X-X-X-X-X-X-X-X-X-X-X",
"-X-X-X-X-X-X-X-X-X-X-X-X-X-X-X-X-X-X-X-X-X) / / | ^ 9 ^ / k ; ^ [ M M s < X   X O j *X&X$.P R Q <.-X-X-X-X-X-X-X-X-X-X-X",
"-X-X-X-X-X-X-X-X-X-X-X-X-X-X-X-X-X-X-X-X-Xt 9 / / ^ 9 9 ~ / / / / ( / x / ~ * 2 j @.XX=Xv.K P E Q q.-X-X-X-X-X-X-X-X-X-X",
"-X-X-X-X-X-X-X-X-X-X-X-X-X-X-X-X-X-X-X-X-X-Xy ) ^ 9 7 9 F ^ | | | | / | ^ 9 w 2. XoX|..X3.2 e d U ! <.-X-X-X-X-X-X-X-X-X",
"-X-X-X-X-X-X-X-X-X-X-X-X-X-X-X-X-X-X-X-X-X-X-X-X` % r +.7 8 ^ ^ ~ | | / ( w q r. X+X-X-X3 < O 3 c.m.<.q.-X-X-X-X-X-X-X-X",
"-X-X-X-X-X-X-X-X-X-X-X-X-X-X-X-X-X-X-X-X-X-X-X-X-X-X-X-Xw 5 8 ~ 5 F / ^ z D.S r.-X-X-X-X-X-X3 4 oX=Xm.>.-X-X-X-X-X-X-X-X",
"-X-X-X-X-X-X-X-X-X-X-X-X-X-X-X-X-X-X-X-X-X-X-X-X-X-X-X-X-Xu 5 6 5 5 F 8 N D.i.-X-X-X-X-X-X-X-X-X|.oXv.j -X-X-X-X-X-X-X-X",
"-X-X-X-X-X-X-X-X-X-X-X-X-X-X-X-X-X-X-X-X-X-X-X-X-X-X-X-X-X-X-XL 6 6 6 d C S.e.-X-X-X-X-X-X-X-X-Xn.b.OX3.O -X-X-X-X-X-X-X",
"-X-X-X-X-X-X-X-X-X-X-X-X-X-X-X-X-X-X-X-X-X-X-X-X-X-X-X-X-X}.L.t.u.%.U I I.(.-X-X-X-X-X-X-X-X-X-X%.$.a.*.4 1 1 -X-X-X-X-X",
"-X-X-X-X-X-X-X-X-X-X-X-X-X-X-X-X-X-X-X-X-X-X-X-X-X-X-X-X-Xq.,.D ^.K.=.T t.-X-X-X-X-X-X-X-X-X-X-X%.P E q.-X-X@ 1 1 -X-X-X",
"-X-X-X-X-X-X-X-X-X-X-X-X-X-X-X-X-X-X-X-X-X-X-X-X-X-X-XE >.<.Q ! e.^.^.&.<.-X-X-X-X-X-X-X-X-X-X-X>.W q.-X-X-X-X-X4 < j -X",
"-X-X-X-X-X-X-X-X-X-X-X-X-X-X-X-X-X-X-X-X-X-X-X-X-X-XE T E Q Q ! Q e.K.^.r.-X-X-X-X-X-X-X-X-X-X-X-X-X-X-X-X-X-X-X-Xp @ -X",
"-X-X-X-X-X-X-X-X-X-X-X-X-X-X-X-X-X-X-X-X-X-X-X-X_.^.B d P W Q Q Q <.,.P.y.-X-X-X-X-X-X-X-X-X-X-X-X-X-X-X-X-X-X-X-X-X-X-X",
"-X-X-X-X-X-X-X-X-X-X<.Q Q Q Q g.-X-X-X-X-X-X-X-X0.W.F.d d P W ! Q Q Q G.~.-X-X-X-X-X-X-X-X-X-X-X-X-X-X-X-X-X-X-X-X-X-X-X",
"-X-X-X-X-X-X-X-X-Xd.<.<.Q W E Q g.-X-X-X-X-X-XW d V Q.E.d J W Q Q Q Q e._.-X-X-X-X-X-X-X-X-X-X-X-X-X-X-X-X-X-X-X-X-X-X-X",
"-X-X-X-X-X-X-X-X-XQ R R R P d U W ! -X-X-X-XE P d J V W.F.s Q Q Q Q Q ,._.-X-X-X-X-X-X-X-X-X-X-X-X-X-X-X-X-X-X-X-X-X-X-X",
"-X-X-X-X-X-X-X-X-XE U d P P P J U W q.-X-XE I J J J d V Y.F.e.Q Q Q Q w._.-X-X-X-X-X-X-X-X-X-X-X-X-X-X-X-X-X-X-X-X-X-X-X",
"-X-X-X-X-X-X-X-X-X-XU d P d d J J T R T T P d P J P J J V K.E.w.Q Q Q ,._.-X-X-X-X-X-X-X-X-X-X-X-X-X-X-X-X-X-X-X-X-X-X-X",
"-X-X-X-X-X-X-X-X-Xw.I P J J R U J d d P d J P J d J d J d V K.E.e.<.Q ,._.-X-X-X-X-X-X-X-X-X-X-X-X-X-X-X-X-X-X-X-X-X-X-X",
"-X-X-X-X-X-X-X-X-X-XT J P U Q R J P P J d d J J P d J d P U W u.!.H.e.y.).-X-X-X-X-X-X-X-X-X-X-X-X-X-X-X-X-X-X-X-X-X-X-X",
"-X-X-X-X-X-X-X-X-X-X>.I d P Q R P E P P U P d P J d P J J E Q e.P.Y.`.].(.-X-X-X-X-X-X-X-X-X-X-X-X-X-X-X-X-X-X-X-X-X-X-X",
"-X-X-X-X-X-X-X-X-X-X-XT J U W U P R R P U R U d J P J d R Q Q Q ! 9.I.T.-X-X-X-X-X-X-X-X-X-X-X-X-X-X-X-X-X-X-X-X-X-X-X-X",
"-X-X-X-X-X-X-X-X-X-X-Xw.P P U d J P W E U U R J d P J U W >.Q Q Q ! G.T.-X-X-X-X-X-X-X-X-X-X-X-X-X-X-X-X-X-X-X-X-X-X-X-X",
"-X-X-X-X-X-X-X-X-X-X-X-XE d d R U J U Q W R U R E P U W Q Q Q Q Q <.s.-X-X-X-X-X-X-X-X-X-X-X-X-X-X-X-X-X-X-X-X-X-X-X-X-X",
"-X-X-X-X-X-X-X-X-X-X-X-X%.P J R W U d U W Q U P P W Q Q ! Q Q Q <.g.-X-X-X-X-X-X-X-X-X-X-X-X-X-X-X-X-X-X-X-X-X-X-X-X-X-X",
"-X-X-X-X-X-X-X-X-X-X-X-X-XW I J R Q U d J d R U U Q Q Q Q <.Q Q d.-X-X-X-X-X-X-X-X-X-X-X-X-X-X-X-X-X-X-X-X-X-X-X-X-X-X-X",
"-X-X-X-X-X-X-X-X-X-X-X-X-X-XE P J R W U U U U U Q Q Q Q Q Q q.g.-X-X-X-X-X-X-X-X-X-X-X-X-X-X-X-X-X-X-X-X-X-X-X-X-X-X-X-X",
"-X-X-X-X-X-X-X-X-X-X-X-X-X-X-XT d J R Q E W Q Q Q Q Q Q Q q.-X-X-X-X-X-X-X-X-X-X-X-X-X-X-X-X-X-X-X-X-X-X-X-X-X-X-X-X-X-X",
"-X-X-X-X-X-X-X-X-X-X-X-X-X-X-X%.U d P E U W Q Q ! >.>.! Q -X-X-X-X-X-X-X-X-X-X-X-X-X-X-X-X-X-X-X-X-X-X-X-X-X-X-X-X-X-X-X",
"-X-X-X-X-X-X-X-X-X-X-X-X-X-X-X-XE d J U R ! Q Q ! ! ! Q ! q.q.-X-X-X-X-X-X-X-X-X-X-X-X-X-X-X-X-X-X-X-X-X-X-X-X-X-X-X-X-X",
"-X-X-X-X-X-X-X-X-X-X-X-X-X-X-X-X-Xw.P J P E >.q.<.>.<.<.>.q.-X-X-X-X-X-X-X-X-X-X-X-X-X-X-X-X-X-X-X-X-X-X-X-X-X-X-X-X-X-X"
};
