/* XPM */
static char *result[] = {
/* columns rows colors chars-per-pixel */
"60 60 214 2 ",
"   c #280916",
".  c #2C0A1A",
"X  c #270819",
"o  c #320C1C",
"O  c #390D1F",
"+  c #361F1D",
"@  c #23141D",
"#  c #2A0921",
"$  c #29072F",
"%  c #26062A",
"&  c #3A0F22",
"*  c #330C2D",
"=  c #3E0E29",
"-  c #340F21",
";  c #251927",
":  c #351123",
">  c #3A1525",
",  c #33112C",
"<  c #391C29",
"1  c #2D0732",
"2  c #2D0A33",
"3  c #310A35",
"4  c #350A3A",
"5  c #3B0B3E",
"6  c #3C0A35",
"7  c #2D1133",
"8  c #331235",
"9  c #3A1D32",
"0  c #34153A",
"q  c #3A143C",
"w  c #391C3E",
"e  c #371835",
"r  c #342322",
"t  c #2E2238",
"y  c #3E2333",
"u  c #3B2C3F",
"i  c #34273D",
"p  c #400D1B",
"a  c #43101E",
"s  c #7A151E",
"d  c #43251E",
"f  c #400F2C",
"g  c #4F1520",
"h  c #430D3B",
"j  c #410E33",
"k  c #441A32",
"l  c #43123A",
"z  c #43183B",
"x  c #422421",
"c  c #56242D",
"v  c #472A37",
"b  c #432D3A",
"n  c #4C2D3A",
"m  c #452338",
"M  c #4A343C",
"N  c #4E383C",
"B  c #51353A",
"V  c #5C3C39",
"C  c #5C3F37",
"Z  c #69382C",
"A  c #673D35",
"S  c #622533",
"D  c #76462F",
"F  c #7C512A",
"G  c #6D4436",
"H  c #714133",
"J  c #7C4530",
"K  c #3E0A42",
"L  c #3C1B41",
"P  c #3C1541",
"I  c #302740",
"U  c #322943",
"Y  c #3E2F41",
"T  c #362E49",
"R  c #3D2142",
"E  c #37304C",
"W  c #39324C",
"Q  c #3B3551",
"!  c #3F3A57",
"~  c #3E3A59",
"^  c #430B45",
"/  c #490D43",
"(  c #460B49",
")  c #4C0C4E",
"_  c #441545",
"`  c #4A1547",
"'  c #4A144B",
"]  c #471948",
"[  c #4E0D50",
"{  c #4F1551",
"}  c #531B55",
"|  c #521553",
" . c #442742",
".. c #452A4A",
"X. c #472848",
"o. c #582B44",
"O. c #4E3844",
"+. c #41344B",
"@. c #45394D",
"#. c #4A384E",
"$. c #573C46",
"%. c #422B52",
"&. c #59215B",
"*. c #542A57",
"=. c #433C55",
"-. c #4C3B53",
";. c #423D59",
":. c #4F3652",
">. c #533B54",
",. c #593B5A",
"<. c #613951",
"1. c #5F2D61",
"2. c #483E61",
"3. c #5E3160",
"4. c #673A68",
"5. c #643766",
"6. c #55404D",
"7. c #5A404B",
"8. c #5A4749",
"9. c #4A4156",
"0. c #45415B",
"q. c #4C4558",
"w. c #4D485F",
"e. c #534352",
"r. c #5A445D",
"t. c #5B4756",
"y. c #6A4745",
"u. c #6A4B46",
"i. c #64484A",
"p. c #785443",
"a. c #614953",
"s. c #6F4053",
"d. c #715152",
"f. c #4D4165",
"g. c #4C4961",
"h. c #54446C",
"j. c #584766",
"k. c #585468",
"l. c #5C4C72",
"z. c #614D65",
"x. c #69486A",
"c. c #764762",
"v. c #6C5C6E",
"b. c #7D5068",
"n. c #714A72",
"m. c #625E72",
"M. c #6B5C7D",
"N. c #635278",
"B. c #7A597B",
"V. c #74636A",
"C. c #656274",
"Z. c #696575",
"A. c #6D6976",
"S. c #6B697A",
"D. c #776279",
"F. c #78717D",
"G. c #87252D",
"H. c #A82328",
"J. c #E02324",
"K. c #854A2F",
"L. c #8B4B2D",
"P. c #81432C",
"I. c #944E2B",
"U. c #885022",
"Y. c #93532D",
"T. c #9A522A",
"R. c #9A592B",
"E. c #975A2D",
"W. c #834A37",
"Q. c #85593E",
"!. c #895337",
"~. c #935434",
"^. c #975B38",
"/. c #A45427",
"(. c #A85C2A",
"). c #A85927",
"_. c #B45C24",
"`. c #BA5F23",
"'. c #89623E",
"]. c #9F6234",
"[. c #94713A",
"{. c #BB6324",
"}. c #B86928",
"|. c #A8702E",
" X c #BE782B",
".X c #AB6737",
"XX c #B16631",
"oX c #AA7733",
"OX c #A4622C",
"+X c #C46D23",
"@X c #C16624",
"#X c #CA7525",
"$X c #CC7A26",
"%X c #C97E33",
"&X c #945E43",
"*X c #A15D53",
"=X c #916546",
"-X c #A7795F",
";X c #845469",
":X c #815275",
">X c #8D5976",
",X c #947F72",
"<X c #94687D",
"1X c #CD852C",
"2X c #C88E29",
"3X c #C6823D",
"4X c #D19331",
"5X c #CB913A",
"6X c #796D87",
"7X c #8F5F86",
"8X c #935E83",
"9X c #986484",
"0X c #987785",
"qX c None",
/* pixels */
"qXqXqXqXqXqXqXqXqXqXqXqXqXqXqXqXqXqXqXqXqXqXqXqXqXqXqXqXqXqXqXqXqXqXqXqXqXqXqXqXqXqXqXqXqXqXqXqXqXqXqXqXqXqXqXqXqXqXqXqX",
"qXqXqXqXqXqXqXqXqXqXqXqXqXqXqXqXqXqXqXqXqXqXqXqXqXqXqXqXqXqXqXqXqXqXqXqXqXqXqXqXqXqXqXqXqXqXqXqXqXqXqXqXqXqXqXqXqXqXqXqX",
"qXqXqXqXqXqXqXqXqXqXqXqXqXqXqXqXqXqXqXqXqXqXqXqXqXqXqXqXqXqXqXqXqXqXqXqXqXqXqXqXqXqXqXqXqXqXqXqXqXqXqXqXqXqXqXqXqXqXqXqX",
"qXqXqXqXqXqXqXqXqXqXqXqXqXqXqXqXqXqXqXqXqXqXqXqXqXqXqXqXqXqXqXqXqXqXqXqXqXqXqXqXqXqXqXqXqXqXqXqXqXqXqXqXqXqXqXqXqXqXqXqX",
"qXqXqXqXqXqXqXqXqXqXqXqXqXqXqXqXqXqXqXqXqXqXqXqXqXqXqXqXqXqXqXqXqXqXqXqXqXqXqXqXqXqXqXqXqXqXqXqXqXqXqXqXqXqXqXqXqXqXqXqX",
"qXqXqXqXqXqXqXqXqXqXqXqXqXqXqXqXqXqXqXqXqXqXqXqXqXqXqXqXqXqXqXqXqXqXqXqXqXqXqXqXqXqXqXqXqXqXqXqXqXqXqXqXqXqXqXqXqXqXqXqX",
"qXqXqXqXqXqXqXqXqXqXqXqXqXqXqXqXqXqXqXqXqXqXqXqXqXqXqXqXqXqXqXqXqXqXqXqXqXqXqXqXqXqXqXqXqXqXqXqXqXqXqXqXqXqXqXqXqXqXqXqX",
"qXqXqXqXqXqXqXqXqXqXqXqXqXqXqXqXqXqXqXqXqXqXqXqXqXqXqXqXqXqXqXqXqXqXqXqXqXqXqXqXqXqXqXqXqXqXqXqXqXqXqXqXqXqXqXqXqXqXqXqX",
"qXqXqXqXqXqXqXqXqXqXr.qXqXqXqXqXqXqXqXqXqXqXqXqXqXqXqXqXqXqXqXqXqXqXqXqXqXqXqXqXqXqXqXqXqXqXqXqXqXqXqXqXqXqXqXqXqXqXqXqX",
"qXqXqXqXqXqXqXqXqXj.8 qXqXqXqXqXqXqXqXqXqXqXqXqXqXqXqXqXqXqXqXqXqXqXqXqXqXqXqXqXqXqXqXqXqXqXqXqXqXqXqXqXqXqXqXqXqXqXqXqX",
"qXqXqXqXqXqXqXqXr.7 1 w qXqXqXqXqXqXqXqXqXqXqXqXqXqXqXqXqXqXqXqXqXqXqXqXqXqXqXqXqXqXqXqXqXqXqXqXqXqXqXqXqXqXqXqXqXqXqXqX",
"qXqXqXqXqXqXqXqX0 $ $ 1 qXqXqXqXqXqXqXqXqXqXqXqXqXqXqXqXqXqXqXqXqXqXqXqXqXqXqXqXqXqXqXqXqXqXqXqXqXqXqXqXqXqXqXqXqXqXqXqX",
"qXqXqXqXqXqXqX>.2 $ 1 z.qXqXqXqXqXqX>X6XB.B.qXqXqXqXqXqXqXqXqXqXqXqXqXqXqXqXqXqXqXqXqXqXqXqXqXqXqXqXqXqXqXqXqXqXqXqXqXqX",
"qXqXqXqXqXqXqX8 $ $ 0 qXqXqXqXqXqXqX{ ( ( ( 3.j.qXqXqXqXqXqXqXqXqXqXqXqXqXqXqXqXqXqXqXqXqXqXqXqXqXqXqXqXqXqXqXqXqXqXqXqX",
"qXqXqXqXqXqXqX8 2 % qXqXqXqXqXqXqXqX' 5 *.} 5 1 #.qXqXqXqXqXqXqXqXqXqXqXqXqXqXqXqXqXqXqXqXqXqXqXqXqXqXqXqXqXqXqXqXqXqXqX",
"qXqXqXqXqXqXqX7 $ $ qXqXqXqXqXqXqXqXL r.qX*.3 $ 5 qXqXqXqXqXqXqXqXqXqXqXqXqXM.M.M.qXqXqXqXqXqXqXqXqXqXqXqXqXqXqXqXqXqXqX",
"qXqXqXqXqXqXqX>.2 $ >.qXqXqXqXqXqXqXqXqXqX..1 1 ( &.} } n.qXqXqXqXqXqXqXqXN.h.2.h.l.qXqXqXqXqXqXqXqXqXqXqXqXqXqXqXqXqXqX",
"qXqXqX*.qXqXqXqX-.2 P v.qXqXqXqXqXqXqXqX>.3 4 K ( ) [ ( { L qXqXqXqXqXqXN.l.2.;.-.;.j.qXqXqXqXqXqXqXqXqXqXqXqXqXqXqXqXqX",
"qXqXqX_ 4.qXqXqXqXqXqXqXqXqXqXqXqXqXqXr.1 3 ^ ) [ [ [ ) [ ^ ' qXqXqXqXqXl.2.~ y.!.b ! qXqXqXqXqXqXqXqXqXqXqXqXqXqXqXqXqX",
"qXqXqXK [ 4.qXqXqXqXqXqXqXqXqXqXqXn.4.^ 4 K [ ) [ [ ) [ [ [ [ } qXqXqX6Xl.~ 7.(._.x W qXqXqXqXqXqXqXqXqXqXqXqXqXqXqXqXqX",
"qXqXqX3 K [ 4.qXqXqXqXqXqXqXqXqX} [ [ ( 1 4 [ [ ) [ [ ) ) ( ( K L qXqXl.h.~ p.+X{.d e m.qXqXqXqXqXqXqXqXqXqXqXqXqXqXqXqX",
"qXqXqXR 1 K [ 1.1.n.qXqXqXqX3.} ( ) [ ( 3 1 ^ [ [ ) ) ) ^ q 4 1 $ ..qXl.2.W C }.+Xd ; w.qXqXqXqXqXqXqXqXqXqXqXqXqXqXqXqX",
"qXqXqXqXL 1 K ) ) | &.&.} } ^ K 4 K ) [ ^ 1 5 ( ) [ ) ^ 8 y 9 2 % 8 L %.W 8.b J U.+ ; w.qXqXqXqXqXqXqXqXqXqXqXqXqXqXqXqX",
"qXqXqXqXqX0 1 5 5 ^ ) ) [ P K 3 2 1 4 K [ 5 1 5 ^ ( h k m y y 8 5 5 1 1 m p.,.t.r @ r [.5XqXqXqXqXqXqXqXqXqXqXqXqXqXqXqX",
"qXqXqXqXqXqXL 0 0 P ] ] ] qXqXqXqXR 1 3 ( ( 5 ^ K 3 > v ] _ m y j 6 , . 3  .q.j.U i F 2X1XqXqXqXqXqXqXqXqXqXqXqXqXqXqXqX",
"qXqXqXqXqXqXqXqXqXqXqXqXqXqXqXqXqXqXq ^ ( [ ) [ ) j < k ` ) _ < > o o   . 1 V p.e.8.'.1X4XqXqXqXqXqXqXqXqXqXqXqXqXqXqXqX",
"qXqXqXqXqXqXqXqXqXqXqXqXqXqXqXqXqXqX' [ ) ) ) ) ` k > o h / h f o       X % Z  X|.oXoX#X1XqXqXqXqXqXqXqXqXqXqXqXqXqXqXqX",
"qXqXqXqXqXqXqXqXqXqXqXqXqXqX1.1.qXqX' ) ) ) [ [ z > O o & l f O         X # Z #X#X+X+X X&XqXqXqXqXqXqXqXqXqXqXqXqXqXqXqX",
"qXqXqXqXqXqXqXqXqXqXqXqXqXqX' _ qXqXx.[ ) ) ) ` z l f O & & o . g s s p X . c K.K.K.{.OX@.m.qXqXqXqXqXqXqXqXqXqXqXqXqXqX",
"qXqXqXqXqXqXqXqXqXqXqXqXqXqX3.^ ,.qXqX' ) ) ) ` { ) / h f o . e G.J.H.a X . > y ,.b.*XG E ;.C.qXqXqXqXqXqXqXqXqXqXqXqXqX",
"qXqXqXqXqXqXqXqXqXqXqXqXqXqXqX} ` r.qXL 5 ^ ) ) [ [ ) ) j o j ` S G.c . X o O : o.8X8X+.U Q ;.C.qXqXqXqXqXqXqXqXqXqXqXqX",
"qXqXqXqXqXqXqXqXqXqXqXqXqXqXqXqX5.X.6XqX0 * ( [ ) ) ) ) ( h ) ( 8 8 9 l 6 # * > k >X9Xx.I U Q ;.C.qXqXqXqXqXqXqXqXqXqXqX",
"qXqXqXqXqXqXqXqXqXqXqXqXqXqXqXqXqXqXqXqXqXw K ) [ ^ K ( [ ) [ ( $ $ 5 ( 3 7 ..s.c.>X9Xc.e i U W ;.m.qXqXqXqXqXqXqXqXqXqX",
"qXqXqXqXqXqXqXqXqXqXqXqXqXqXqXqXqXqXqXqXqXqXL K ) 5 1 5 ( ) [ ( 3 1 ( 4 7 0 -.;X<X<XqXi.o : e >.j.;.m.qXqXqXqXqXqXqXqXqX",
"qXqXqXqXqXqXqXqXqXqXqXqXqXqXqXqXqXqXqXqXqXqXqXq 5 L ..1 5 ) ) ) ^ ^ ^ 3 Z C r.0XqXqXqXqXd.m : b.7Xz.;.qXqXqXqXqXqXqXqXqX",
"qXqXqXqXqXqXqXqXqXqXqXqXqXqXqXqXqXqXqXqXqXqXqXqXv.qXqXD.L h 5 ) ( ) 4 e R.p.qXqXqXqXqXqXqXqXV.<X9X:X .qXqXqXqXqXqXqXqXqX",
"qXqXqXqXqXqXqXqXqXqXqXqXqXqXqXqXqXqXqXqXqXqXqXqXqXqXqXqXW.P.k l h 4 0 b Y.O.qXqXqXqXqXqXqXqXqX;X;X>Xo.n qXqXqXqXqXqXqXqX",
"qXqXqXqXqXqXqXqXqXqXqXqXqXqXqXqXqXqXqXqXqXqXqXqXqXqXqXS.^.}.R.R.D b u D .XqXqXqXqXqXqXqXqXqXqXe.>.b.<.< $.a.qXqXqXqXqXqX",
"qXqXqXqXqXqXqXqXqXqXqXqXqXqXqXqXqXqXqXqXqXqXqXqXqXqXk.;.>.E.XX$X%X|.C &XqXqXqXqXqXqXqXqXqXqXqXW U -.e.qX7.n $.$.qXqXqXqX",
"qXqXqXqXqXqXqXqXqXqXqXqXqXqXqXqXqXqXqXqXqXqXqXqXqXqXg.;.;.-.u.{.+X$X!.,XqXqXqXqXqXqXqXqXqXqXqXW T ;.S.qXqXqX7.O.n a.qXqX",
"qXqXqXqXqXqXqXqXqXqXqXqXqXqXqXqXqXqXqXqXqXqXqXqXqXw.=.=.! ! -.Y.`.@X X%X3XqXqXqXqXqXqXqXqXqXqXqXA.qXqXqXqXqXqXqXv > qXqX",
"qXqXqXqXqXqXqXqXqXqXqXqXqXqXqXqXqXqXqXqXqXqXqXqX=XQ.Q.8.;.! ! u.T.T.{.$X$X3XqXqXqXqXqXqXqXqXqXqXqXqXqXqXqXqXqXqXqXV.qXqX",
"qXqXqXqXqXqXqXqXqXqXqXqXqXqXg.~ ;.0.S.qXqXqXqX.X}.XX}.^.!.6.6.^.P.B A (.#X$X%XqXqXqXqXqXqXqXqXqXqXqXqXqXqXqXqXqXqXqXqXqX",
"qXqXqXqXqXqXqXqXqXqXqXqXqXk.! ~ ! ! 0.C.Z.Z.Z.i.u.u.y.u.~.!.].@XK.U U V {.{.XXqXqXqXqXqXqXqXqXqXqXqXqXqXqXqXqXqXqXqXqXqX",
"qXqXqXqXqXqXqXqXqXqXqXqXqX0.~ ~ ! ! ! ! ! ! ! ~ =.! ! ! 6.i.}._.A I U u /.L.V qXqXqXqXqXqXqXqXqXqXqXqXqXqXqXqXqXqXqXqXqX",
"qXqXqXqXqXqXqXqXqXqXqXqXk.;.;.~ ! ! ! ! ! ! ! ! ! ! ! ! ! ;.~.).A I I u T.M E qXqXqXqXqXqXqXqXqXqXqXqXqXqXqXqXqXqXqXqXqX",
"qXqXqXqXqXqXqXqXqXqXqXqX0.! ! ! ! ! ! ;.! ~ ! ! ! ! ! ! ~ ! $.{.R.N I Y I.i W qXqXqXqXqXqXqXqXqXqXqXqXqXqXqXqXqXqXqXqXqX",
"qXqXqXqXqXqXqXqXqXqXqXqX0.! ! ! ! ! ! ! ! ! ! ! ! ~ ! ! ~ Q Y H Y.R.N u I.u W qXqXqXqXqXqXqXqXqXqXqXqXqXqXqXqXqXqXqXqXqX",
"qXqXqXqXqXqXqXqXqXqXqXqX;.! ! ! ! ! ! ! ! ! ! ~ ! ! ! ! ! E U U O.I.E.N A A @.qXqXqXqXqXqXqXqXqXqXqXqXqXqXqXqXqXqXqXqXqX",
"qXqXqXqXqXqXqXqXqXqXqXqXW W Q ! ! ! ! ! ! ! ;.! ! ! ! ! W U I Q W O.Y.L.A L.@.qXqXqXqXqXqXqXqXqXqXqXqXqXqXqXqXqXqXqXqXqX",
"qXqXqXqXqXqXqXqXqXqXqXqXq.U T W Q ! ! ;.! ! ! ! ! ! ! E U I U ! ~ Q O.L./.T.M a.qXqXqXqXqXqXqXqXqXqXqXqXqXqXqXqXqXqXqXqX",
"qXqXqXqXqXqXqXqXqXqXqXqXqXT i U T W W Q ! ! ! ! ! ! E U U i U ~ ~ ! ! O.L.Y./.~.qXqXqXqXqXqXqXqXqXqXqXqXqXqXqXqXqXqXqXqX",
"qXqXqXqXqXqXqXqXqXqXqXqXqXA.q.U I U U U W W W W W E U T E U U ! ! ! ! ! Y B ^.-XqXqXqXqXqXqXqXqXqXqXqXqXqXqXqXqXqXqXqXqX",
"qXqXqXqXqXqXqXqXqXqXqXqXqXqXqXq.U U U I U U U U U U U Q Q T U ! ! ! ! W I U #.qXqXqXqXqXqXqXqXqXqXqXqXqXqXqXqXqXqXqXqXqX",
"qXqXqXqXqXqXqXqXqXqXqXqXqXqXqXqX=.i U U U U U U U W Q ! W U E ~ ! W E I I 9.qXqXqXqXqXqXqXqXqXqXqXqXqXqXqXqXqXqXqXqXqXqX",
"qXqXqXqXqXqXqXqXqXqXqXqXqXqXqXqXq.U I U W Q Q Q Q ! ! ! T T Q ! Q U I I 9.qXqXqXqXqXqXqXqXqXqXqXqXqXqXqXqXqXqXqXqXqXqXqX",
"qXqXqXqXqXqXqXqXqXqXqXqXqXqXqXqXqXk.=.U E Q ;.! ! ! ! E U Q Q T U I U 9.qXqXqXqXqXqXqXqXqXqXqXqXqXqXqXqXqXqXqXqXqXqXqXqX",
"qXqXqXqXqXqXqXqXqXqXqXqXqXqXqXqXqXqXqXU U W W ! ! ! W U T W U U U I U qXqXqXqXqXqXqXqXqXqXqXqXqXqXqXqXqXqXqXqXqXqXqXqXqX",
"qXqXqXqXqXqXqXqXqXqXqXqXqXqXqXqXqXqXqXA.q.U T W W E U U U U I U i 9.C.qXqXqXqXqXqXqXqXqXqXqXqXqXqXqXqXqXqXqXqXqXqXqXqXqX",
"qXqXqXqXqXqXqXqXqXqXqXqXqXqXqXqXqXqXqXqXqXF.F.A.E I i U U I U I I 9.qXqXqXqXqXqXqXqXqXqXqXqXqXqXqXqXqXqXqXqXqXqXqXqXqXqX"
};
