/* XPM */
static char *result[] = {
/* columns rows colors chars-per-pixel */
"60 60 213 2 ",
"   c #290917",
".  c #2D0A19",
"X  c #260916",
"o  c #330C1D",
"O  c #390E1F",
"+  c #23141E",
"@  c #2F1B1D",
"#  c #2D0923",
"$  c #29072F",
"%  c #2B082D",
"&  c #27052D",
"*  c #330D22",
"=  c #3B0E23",
"-  c #330A2D",
";  c #390C2F",
":  c #361123",
">  c #391222",
",  c #37192D",
"<  c #3B182A",
"1  c #2C0731",
"2  c #2D0B33",
"3  c #320936",
"4  c #3B0C34",
"5  c #36093A",
"6  c #390A3D",
"7  c #300735",
"8  c #34153A",
"9  c #3A123D",
"0  c #391B3D",
"q  c #381A38",
"w  c #291C28",
"e  c #2F263C",
"r  c #3F2433",
"t  c #36283B",
"y  c #56111C",
"u  c #62111B",
"i  c #400E2E",
"p  c #461C2B",
"a  c #501C2F",
"s  c #410E35",
"d  c #440D3D",
"f  c #42143B",
"g  c #431C3B",
"h  c #461839",
"j  c #511F3D",
"k  c #7B1B24",
"l  c #41222E",
"z  c #4D352F",
"x  c #432333",
"c  c #432239",
"v  c #462B39",
"b  c #52263E",
"n  c #45323D",
"m  c #4C333C",
"M  c #493036",
"N  c #533539",
"B  c #563838",
"V  c #783A2B",
"C  c #632E35",
"Z  c #623F3B",
"A  c #643935",
"S  c #703D34",
"D  c #6B322C",
"F  c #594035",
"G  c #64443C",
"H  c #6B443F",
"J  c #734233",
"K  c #794A34",
"L  c #7B4D3C",
"P  c #754734",
"I  c #764621",
"U  c #3E0A41",
"Y  c #3C1C41",
"T  c #2F2741",
"R  c #302741",
"E  c #3E2242",
"W  c #322942",
"Q  c #3A2C45",
"!  c #362E49",
"~  c #37304B",
"^  c #39324C",
"/  c #3B3142",
"(  c #3C3653",
")  c #3F3A57",
"_  c #3F3A5A",
"`  c #430B45",
"'  c #460B49",
"]  c #4C0C4E",
"[  c #4A1943",
"{  c #4C134B",
"}  c #4B1F4E",
"|  c #461745",
" . c #5B1A46",
".. c #4E0D50",
"X. c #4D1350",
"o. c #511553",
"O. c #541B55",
"+. c #412446",
"@. c #4E2C43",
"#. c #4C234F",
"$. c #452B4A",
"%. c #4B2D4F",
"&. c #46264B",
"*. c #572F48",
"=. c #42354C",
"-. c #49314D",
";. c #463A4B",
":. c #513B45",
">. c #533B46",
",. c #4F2552",
"<. c #512B54",
"1. c #5B265C",
"2. c #5C2A5E",
"3. c #542857",
"4. c #4C3451",
"5. c #423B56",
"6. c #423D5A",
"7. c #473A56",
"8. c #533D56",
"9. c #563958",
"0. c #62304B",
"q. c #6D3D53",
"w. c #493F62",
"e. c #5F3462",
"r. c #693D6B",
"t. c #633865",
"y. c #5B454D",
"u. c #5F494B",
"i. c #50404C",
"p. c #4B4254",
"a. c #46415C",
"s. c #4B445E",
"d. c #504454",
"f. c #5C4750",
"g. c #5A445D",
"h. c #524B5D",
"j. c #5A4657",
"k. c #664746",
"l. c #734B42",
"z. c #674759",
"x. c #72485F",
"c. c #69555D",
"v. c #665159",
"b. c #765952",
"n. c #4C4561",
"m. c #4D4961",
"M. c #514C64",
"N. c #5E4A62",
"B. c #52436A",
"V. c #5A4667",
"C. c #565063",
"Z. c #5A5465",
"A. c #59566B",
"S. c #5D596B",
"D. c #5C4B73",
"F. c #604E64",
"G. c #6C446E",
"H. c #6B4A6C",
"J. c #664564",
"K. c #734762",
"L. c #625065",
"P. c #665369",
"I. c #685C6C",
"U. c #775A6B",
"Y. c #704F72",
"T. c #615F71",
"R. c #6B5E7C",
"E. c #725174",
"W. c #775A79",
"Q. c #6C6977",
"!. c #716E7C",
"~. c #8D262C",
"^. c #B92327",
"/. c #CC2123",
"(. c #8B4A2E",
"). c #884622",
"_. c #95522C",
"`. c #955926",
"'. c #814D36",
"]. c #845235",
"[. c #81543C",
"{. c #965B33",
"}. c #9B5B3D",
"|. c #AB5A27",
" X c #A05D33",
".X c #9E6B38",
"XX c #BD6725",
"oX c #A07026",
"OX c #AA6835",
"+X c #A67635",
"@X c #BA7B2D",
"#X c #C67224",
"$X c #805740",
"%X c #865853",
"&X c #9C755A",
"*X c #A37051",
"=X c #AA734B",
"-X c #804D68",
";X c #8A566C",
":X c #895878",
">X c #915E79",
",X c #91647A",
"<X c #C38A3B",
"1X c #A88259",
"2X c #756A83",
"3X c #7F748A",
"4X c #905E82",
"5X c #8A5C82",
"6X c #986285",
"7X c #9D658D",
"8X c #967683",
"9X c #847A86",
"0X c None",
/* pixels */
"0X0X0X0X0X0X0X0X0X0X0X0X0X0X0X0X0X0X0X0X0X0X0X0X0X0X0X0X0X0X0X0X0X0X0X0X0X0X0X0X0X0X0X0X0X0X0X0X0X0X0X0X0X0X0X0X0X0X0X0X",
"0X0X0X0X0X0X0X0X0X0X0X0X0X0X0X0X0X0X0X0X0X0X0X0X0X0X0X0X0X0X0X0X0X0X0X0X0X0X0X0X0X0X0X0X0X0X0X0X0X0X0X0X0X0X0X0X0X0X0X0X",
"0X9X0X0X0X0X0X0X0X0X0X0X0X0X0X0X0X0X0X0X0X0X0X0X0X0X0X0X0X0X0X0X0X0X0X0X0X0X0X0X0X0X0X0X0X0X0X0X0X0X0X0X0X0X0X0X0X0X0X0X",
"F.0X0X0X0X0X0X0X0X0X0X0X0X0X0X0X0X0X0X0X0X0X0X0X0X0X0X0X0X0X0X0X0X0X0X0X0X0X0X0X0X0X0X0X0X0X0X0X0X0X0X0X0X0X0X0X0X0X0X0X",
"4.0X0X0X0X0X0X0X0X0X0X0X0X0X0X0X0X0X0X0X0X0X0X0X0X0X0X0X0X0X0X0X0X0X0X0X0X0X0X0X0X0X0X0X0X0X0X0X0X0X0X0X0X0X0X0X0X0X0X0X",
"0X0X0X0X0X0X0X0X0X0X0X0X0X0X0X0X0X0X0X0X0X0X0X0X0X0X0X0X0X0X0X0X0X0X0X0X0X0X0X0X0X0X0X0X0X0X0X0X0X0X0X0X0X0X0X0X0X0X0X0X",
"0X0X0X0X0X0X0X0X0X0X0X0X0X0X0X0X0X0X0X0X0X0X0X0X0X0X0X0X0X0X0X0X0X0X0X0X0X0X0X0X0X0X0X0X0X0X0X0X0X0X0X0X0X0X0X0X0X0X0X0X",
"0X0X0X0X0X0X0X0X0X0X0X0X0X0X0X0X0X0X0X0X0X0X0X0X0X0X0X0X0X0X0X0X0X0X0X0X0X0X0X0X0X0X0X0X0X0X0X0X0X0X0X0X0X0X0X0X0X0X0X0X",
"0X0X0X0X0X0X0X0X0X0X0X0X0X0X0X0X0X0X0X0X0X0X0X0X0X0X0X0X0X0X0X0X0X0X0X0X0X0X0X0X0X0X0X0X0X0X0X0X0X0X0X0X0X0X0X0X0X0X0X0X",
"0X0X0X0X0X0X0X0X0X0X0X0X0X0X0X0X0X0X0X0X0X0X0X0X0X0X0X0X0X0X0X0X0X0X0X0X0X0X0X0X0X0X0X0X0X0X0X0X0X0X0X0X0X0X0X0X0X0X0X0X",
"0X0X0X0X0X0X0X0X0X0X0X0X0X0X0X0X0X0X0X0X0X0X0X0X0X0X0X0X0X0X0X0X0X0X0X0X0X0X0X0X0X0X0X0X0X0X0X0X0X0X0X0X0X0X0X0X0X0X0X0X",
"0X0X0X0X0X0X0X0X0XE.0X0X0X0X0X0XL.0 8 0 Y F.0X0X0X0X0X0X0X0X0X0X0X0X0X0X0X0X0X0X0X0X0X0X0X0X0X0X0X0X0X0X0X0X0X0X0X0X0X0X",
"0X0X0X0X0X0X0X0X#.` O.E.0X0X0X0XY E 0X0X0X0X0X0X0X0X0X0X0X0X0X0X0X0X0X0X0X0X0X0X0X0X0X0X0X0X0X0X0X0X0X0X0X0X0X0X0X0X0X0X",
"0X0X0X0X0X0X0X3.0 9 ` O.W.0X0X0X$.$.0X0X0X0X0X0XG.r.G.0X0X0X0X0X0X0X0X0X0X0X0X3X2X!.3X0X0X0X0X0X0X0X0X0X0X0X0X0X0X0X0X0X",
"0X0X0X0X0X0X<.} 0Xg.U ] t.0X0X0X0X| <.<.9.W.r.1.] ] ..1.e.J.0X0X0X0X0X0X0X0X2XD.B.B.D.!.0X0X0X0X0X0X0X0X0X0X0X0X0X0X0X0X",
"0X0X0X0X0X0X+.0X0X0XY U 2.0X0X0X0Xo.' ' ' O.o.] ..] ......{ 1.J.0X0X0X0X0X0XD.w.w.6.6.M.0X0X0X0X0X0X0X0X0X0X0X0X0X0X0X0X",
"0X0X0X0X0X8.0X0X0X0X0X0 o.G.0X0X2.X.] ] ..] ..] ] ..] ] ..] ' ] G.0X0X0X0X0XB.6.7.l.Z =.0X0X0X0X0X0X0X0X0X0X0X0X0X0X0X0X",
"0X0X0X0X0X0X0X0X0X0X0XU { G.0X1.] U U ] ] ..] ....] ] ] ] ] U ] o.G.0X0X0XR.n.7.L |.).t 0X0X0X0X0X0X0X0X0X0X0X0X0X0X0X0X",
"0X0X0X0X0X0X0XI.0X0X0X8 U 1.1.] 6 2 5 U ..] ..] ] ] ] ] ' 5 7 6 5 | H.0X0XD.w.7.|.#X).w h.0X0X0X0X0X0X0X0X0X0X0X0X0X0X0X",
"0X0X0X0X0X0Xd.N.0X0X0X2 3 ' ] 6 1 E I.6 ] ..] ..] ] ] ' 6 3 ` 6 3 2 E 0X0XB.) ;.{.#X`.+ ;.0X0X0X0X0X0X0X0X0X0X0X0X0X0X0X",
"0X0X0X0X0X%.-.0X0X0X0X%.1 6 6 2 E L.0X#.....] ] ..' 6 2 2 ` | x f 6 2 $.4.7.i.m B `.I + t 0X0X0X0X0X0X0X0X0X0X0X0X0X0X0X",
"0X0X0X0X0X8.4.0X0X0X0X0X-.1 2 4.0X0X0XE.U ] ..] ' 6 1 % 4 | r r g ` 6 1 1 8 B >.z.z @ + F 1X0X0X0X0X0X0X0X0X0X0X0X0X0X0X",
"0X0X0X0X0X0X0X0X0X0X0X0X0XP.I.0X0X0X0X0X1 5 U U U 3 1 # x c g c x g 4 - % - 4 0 9.=.e z oX<X0X0X0X0X0X0X0X0X0X0X0X0X0X0X",
"0X0X0X0X0X0X0X0X0X0X0X0X0X0X0X0XL.0X0X0X& 1 1 7 ' ' 3 * p g ] { c < o o . # 4 4 k.8.5.k.+X<X0X0X0X0X0X0X0X0X0X0X0X0X0X0X",
"0X0X0X0X0X0X0X0X0X0X0X0X0X0X0X+.2 %.0X0X1 1 1 ` ] ] f < : ; ] ] s >         4 ` B {..X+X@X<X0X0X0X0X0X0X0X0X0X0X0X0X0X0X",
"0X0X0X0X0X0X0X0X0X0X0X0X0X0X0X8 2 8.0X0XU ' ' ] ..| p > * o s d = o X X     # `  .XX#XXX#XOX0X0X0X0X0X0X0X0X0X0X0X0X0X0X",
"0X0X0X0X0X0X0X0X0X0X0X0X0X0X4.2 4.0X0X0Xr...] ..] [ q < = O O = o o y u y .   4  .(._.|.XXL Z.0X0X0X0X0X0X0X0X0X0X0X0X0X",
"0X0X0X0X0X0X0X0X0X0X0X0X0X0X%.0 0X0X0X0Xe.' ..] { [ 6 4 s i O o * a ^./.k .   = f @.q.%X*XN ( A.0X0X0X0X0X0X0X0X0X0X0X0X",
"0X0X0X0X0X0X0X0X0X0X0X0X0X0X0Xg.0X0X0X0X0X} ] ..] ] 6 1 6 d = # d b ~.~.p X   o = g K.6XK.W ~ 6.A.0X0X0X0X0X0X0X0X0X0X0X",
"0X0X0X0X0X0X0X0X0X0X0X0X0X0X0X0X0X0X0X0X0X%.` ] ] ` 7 $ 1 5 ; d ] { [ h , # # * O > 0.7XW.-.W ^ 5.A.0X0X0X0X0X0X0X0X0X0X",
"0X0X0X0X0X0X0X0X0X0X0X0X0X0X0X0XP.0X0X0X0X0X,.] ' 7 $ $ & 1 7 ] ] ] { ] 2 3 6 4 *.q.-X>X:X*.e W ~ ) A.0X0X0X0X0X0X0X0X0X",
"0X0X0X0X0X0X0X0X0X0X0X0X0X0X0X0X0X0X0X0X0X0X0X#.6 1 $ & 1 1 1 6 ] ] ] ` 1 6 U 0 x.;X,X8XU.p = , Q 7.a.A.0X0X0X0X0X0X0X0X",
"0X0X0X0X0X0X0X0X0X0X0X0X0X0X0X0X0X0X0X0X0X0X0X0X$.1 1 E 3 & % 1 6 ' ' 3 3 ' h @.U.8X0X0X0Xf.M > b 4XE.s.Q.0X0X0X0X0X0X0X",
"0X0X0X0X0X0X0X0X0X0X0X0X0X0X0X0X0X0X0X0X0X0X0X0X0X8.g.0XF.4.1 $ 1 2 6 1 2 b S b.0X0X0X0X0X0X0Xf.x.6X4X9.8.0X0X0X0X0X0X0X",
"0X0X0X0X0X0X0X0X0X0X0X0X0X0X0X0X0X0X0X0X0X0X0X0X0X0X0X0X0X0Xh.8 1 1 1 1 0 A [.0X0X0X0X0X0X0X0X0X0X;X:XK.v 0X0X0X0X0X0X0X",
"0X0X0X0X0X0X0X0X0X0X0X0X0X0X0X0X0X0X0X0X0X0X0X0X0X0X0X0X0X0X&X].V V D r m _.*X0X0X0X0X0X0X0X0X0X0X9.x.-Xx x c.0X0X0X0X0X",
"0X0X0X0X0X0X0X0X0X0X0X0X0X0X0X0X0X0X0X0X0X0X0X0X0X0X0X0X0X0XG H k.k.l.].{.|.=X0X0X0X0X0X0X0X0X0X0XW -.d.d.I.x m v.0X0X0X",
"0X0X0X0X0X0X0X0X0X0X0X0X0X0X0X0X0X0X0X0X0X0X0X0X0X0X0X0X0Xh.~ ) ) 5.5.u.k.u.k.%X1X0X0X0X0X0X0X0X0XR ^ m.0X0X0X0Xx >.v.0X",
"0X0X0X0X0X0X0X0X0X0X0X0X0X0X0X0X0X0X0X0X0X0X0X0X0X0X0X0Xh.W ~ 5.) ) ) ) _ _ ) i. X&X0X0X0X0X0X0X0XM.S.0X0X0X0X0X0Xk., u.",
"0X0X0X0X0X0X0X0X0X0X0X0X0X0X0X0X0X0X0X0X0X0X0X0X0X0X0X0X^ W ! ^ ) ) 6.) ) ) y.l.L j.M.A.0X0X0X0X0X0X0X0X0X0X0X0X0X0Xf.P.",
"0X0X0X0X0X0X0X0X0X0X0X0X0X0X0X0X0X0X0X0X0X0X0X0X0X0X0Xp.W W R ! ( 5.5.) 5.u.$Xl.8.5.) 5.S.0X0X0X0X0X0X0X0X0X0X0X0X0X0X0X",
"0X0X0X0X0X0X0X0X0X0X0X0X0X0X0X0X0X0X0X0X0X0X0X0X0X0Xb.N R R R W ! ! ^ :.[.l.u.5.5.) ) ) m.0X0X0X0X0X0X0X0X0X0X0X0X0X0X0X",
"0X0X0X0X0X0X0X0X0X0X0X0X0X0X0X0X0X0X0X0X0X0X0X0X0Xd.J (.m t R T R n K K G :.) ) ( ) ) ) n.0X0X0X0X0X0X0X0X0X0X0X0X0X0X0X",
"0X0X0X0X0X0X0X0X0X0X0X0X0X0X0X0X0X0X0X0X0X0X0XZ.p.W n B J P m M N P Z m t ! ( ) 5.) ) ) m.0X0X0X0X0X0X0X0X0X0X0X0X0X0X0X",
"0X0X0X0X0X0X0X0X0X0X0X0X0X0X0X0X0X0X0X0X0XZ.p.W W W R W n B P (.].F t W W W ( ) ) _ 5.m.0X0X0X0X0X0X0X0X0X0X0X0X0X0X0X0X",
"0X0X0X0X0X0X0X0X0X0X0X0X0X0X0X0X0X0X!.m.s.~ T W W W W e W W n n =.t e ! ! ! ^ ( ) ) m.0X0X0X0X0X0X0X0X0X0X0X0X0X0X0X0X0X",
"0X0X0X0X0X0X0X0X0X0X0X0X0X0X0X!.M.s.a.^ ! e W R W R W W W R T T R W ~ ~ ) ) ) ) ) m.0X0X0X0X0X0X0X0X0X0X0X0X0X0X0X0X0X0X",
"0X0X0X0X0X0X0X0X0X0X0X0X!.S.a.a.) ( ! W W W W W e W ! ~ ^ ~ W ! ^ ^ ) ) ) ) ) ) n.0X0X0X0X0X0X0X0X0X0X0X0X0X0X0X0X0X0X0X",
"0X0X0X0X0X0X0X0X0X0X0XQ.) ) ( ( ! ! R W e W T W W R ! ! ( ( W ~ ) ) ) _ ) ) 6.m.0X0X0X0X0X0X0X0X0X0X0X0X0X0X0X0X0X0X0X0X",
"0X0X0X0X0X0X0X0X0X0X0X6.^ W ! ! W T W W W W W R R R R R W ! ! ( ) ) ) ) ) ) a.0X0X0X0X0X0X0X0X0X0X0X0X0X0X0X0X0X0X0X0X0X",
"0X0X0X0X0X0X0X0X0X0X0X^ W W W T W e W T W W ! ! ! e W R R W Q ) ) ) ) ) ) ) C.0X0X0X0X0X0X0X0X0X0X0X0X0X0X0X0X0X0X0X0X0X",
"0X0X0X0X0X0X0X0X0X0X0XC.W W W W R W W W ! W W ~ ! ! R W R R ! 5.) ) ) ) 6.M.0X0X0X0X0X0X0X0X0X0X0X0X0X0X0X0X0X0X0X0X0X0X",
"0X0X0X0X0X0X0X0X0X0X0X0X! W W W R W R W ! ! W W ! ! ! R T W ^ ) ) ) ) a.m.0X0X0X0X0X0X0X0X0X0X0X0X0X0X0X0X0X0X0X0X0X0X0X",
"0X0X0X0X0X0X0X0X0X0X0X0XI.W R W W R W W R ! ! W e ! W e W ! ) ) ) ) m.0X0X0X0X0X0X0X0X0X0X0X0X0X0X0X0X0X0X0X0X0X0X0X0X0X",
"0X0X0X0X0X0X0X0X0X0X0X0X0XT.! e R W W ! W W ! ^ ~ W R W R ! ) ) ) m.0X0X0X0X0X0X0X0X0X0X0X0X0X0X0X0X0X0X0X0X0X0X0X0X0X0X",
"0X0X0X0X0X0X0X0X0X0X0X0X0X0Xh.e W R W ! ! W R ! W R W R W e ~ 5.m.0X0X0X0X0X0X0X0X0X0X0X0X0X0X0X0X0X0X0X0X0X0X0X0X0X0X0X",
"0X0X0X0X0X0X0X0X0X0X0X0X0X0X0X! T W W W ! ^ ! R R R R W W ~ h.A.0X0X0X0X0X0X0X0X0X0X0X0X0X0X0X0X0X0X0X0X0X0X0X0X0X0X0X0X",
"0X0X0X0X0X0X0X0X0X0X0X0X0X0X0XQ.! R W R W ! ! ! ! R W R W p.0X0X0X0X0X0X0X0X0X0X0X0X0X0X0X0X0X0X0X0X0X0X0X0X0X0X0X0X0X0X",
"0X0X0X0X0X0X0X0X0X0X0X0X0X0X0X0XQ.Q W W W e W ~ ! R R ^ Z.0X0X0X0X0X0X0X0X0X0X0X0X0X0X0X0X0X0X0X0X0X0X0X0X0X0X0X0X0X0X0X",
"0X0X0X0X0X0X0X0X0X0X0X0X0X0X0X0X0X0X0XC.T W W W W R / P.0X0X0X0X0X0X0X0X0X0X0X0X0X0X0X0X0X0X0X0X0X0X0X0X0X0X0X0X0X0X0X0X"
};
