/* XPM */
static char *result[] = {
/* columns rows colors chars-per-pixel */
"60 60 173 2 ",
"   c #03001D",
".  c #0C091C",
"X  c #160614",
"o  c #150F15",
"O  c #1B0B12",
"+  c #170E19",
"@  c #1A0D1C",
"#  c #111111",
"$  c #1B1313",
"%  c #161419",
"&  c #1A131B",
"*  c #19181E",
"=  c #200711",
"-  c #250913",
";  c #2C0A16",
":  c #27041A",
">  c #2D0C1A",
",  c #300716",
"<  c #330C1A",
"1  c #3A0F1F",
"2  c #211017",
"3  c #231B12",
"4  c #3A2314",
"5  c #1E0B22",
"6  c #1D1A23",
"7  c #161528",
"8  c #1E1E2B",
"9  c #1B1B33",
"0  c #230427",
"q  c #220A26",
"w  c #2A0922",
"e  c #25052D",
"r  c #29072F",
"t  c #24092A",
"y  c #290C2B",
"u  c #340C23",
"i  c #35072F",
"p  c #390E28",
"a  c #38082E",
"s  c #211021",
"d  c #2C1A23",
"f  c #29122D",
"g  c #211D29",
"h  c #391820",
"j  c #381927",
"k  c #210035",
"l  c #2C0731",
"z  c #2D0932",
"x  c #380737",
"c  c #310A35",
"v  c #360A3A",
"b  c #390B3D",
"n  c #261533",
"m  c #2C143C",
"M  c #351335",
"N  c #341D32",
"B  c #25212A",
"V  c #352225",
"C  c #252331",
"Z  c #2A2335",
"A  c #24213C",
"S  c #2E253D",
"D  c #2C2A3D",
"F  c #312331",
"G  c #3E2530",
"H  c #32253D",
"J  c #42131E",
"K  c #61121F",
"L  c #7C141B",
"P  c #471B24",
"I  c #450D3E",
"U  c #401133",
"Y  c #4A1C34",
"T  c #52332F",
"R  c #422434",
"E  c #4A243C",
"W  c #422D3C",
"Q  c #522E3E",
"!  c #493032",
"~  c #47363C",
"^  c #593A3C",
"/  c #66362B",
"(  c #772B3A",
")  c #673C34",
"_  c #693E32",
"`  c #5D4B2B",
"'  c #76442F",
"]  c #7E452F",
"[  c #764635",
"{  c #794530",
"}  c #161C44",
"|  c #360541",
" . c #3D0A41",
".. c #2C2642",
"X. c #2E2841",
"o. c #312740",
"O. c #332A43",
"+. c #382C43",
"@. c #362F49",
"#. c #343046",
"$. c #3F3344",
"%. c #36324A",
"&. c #3A324C",
"*. c #2D2F54",
"=. c #353554",
"-. c #3B3551",
";. c #3F3A57",
":. c #33365A",
">. c #38375A",
",. c #34385D",
"<. c #3C3959",
"1. c #430B45",
"2. c #490C46",
"3. c #43064B",
"4. c #460B49",
"5. c #4C0C4E",
"6. c #491746",
"7. c #4D0751",
"8. c #4E0C50",
"9. c #510C53",
"0. c #423343",
"q. c #5F3D4F",
"w. c #433A54",
"e. c #413C59",
"r. c #4C3C5F",
"t. c #563B55",
"y. c #693D5A",
"u. c #5B424B",
"i. c #4B4256",
"p. c #554653",
"a. c #634143",
"s. c #764C41",
"d. c #765C48",
"f. c #6B4554",
"g. c #4C426A",
"h. c #54426C",
"j. c #5B4873",
"k. c #DF2A2A",
"l. c #A6541D",
"z. c #B0551D",
"x. c #B9581C",
"c. c #874F2E",
"v. c #8D4B2C",
"b. c #904D2C",
"n. c #8D502D",
"m. c #965C20",
"M. c #9D5F34",
"N. c #A75E25",
"B. c #A85826",
"V. c #A65C2C",
"C. c #BE5E20",
"Z. c #AA6722",
"A. c #AA6329",
"S. c #B36426",
"D. c #BF6723",
"F. c #B66C29",
"G. c #A37125",
"H. c #B27A24",
"J. c #A16234",
"K. c #C7621D",
"L. c #C06B25",
"P. c #C96F24",
"I. c #CE7322",
"U. c #C27E29",
"Y. c #D47D25",
"T. c #845167",
"R. c #885571",
"E. c #9A637E",
"W. c #D98724",
"Q. c #DF8A22",
"!. c #8E6088",
"~. c #9F6280",
"^. c #B075A1",
/* pixels */
"# # # # # # # # # # # # # # # # # # # # # # # # # # # # # # # # # # # # # # # # # # # # # # # # # # # # # # # # # # # # ",
"# # # # # # # # # # # # # # # # # # # # # # # # # # # # # # # # # # # # # # # # # # # # # # # # # # # # # # # # # # # # ",
"# # # # # # # # # # # # # # # # # # # # # # # # # # # # # # # # # # # # # # # # # # # # # # # # # # # # # # # # # # # # ",
"# # # # # # # # # # # # # # # # # # # # # # # # # # # # # # # # # # # # # # # # # # # # # # # # # # # # # # # # # # # # ",
"# # # # # # # # # # # # # # # # # # # # # # # # # # # # # # # # # # # # # # # # # # # # # # # # # # # # # # # # # # # # ",
"# # # # # # # # # # # # # # # # # # # # # # # # # # # # # # # # # # # # # # # # # # # # # # # # # # # # # # # # # # # # ",
"# # # # # # # # # # # # # # # # # # # # # # # # # # # # # # # # # # # # # # # # # # # # # # # # # # # # # # # # # # # # ",
"# # # # # # # # # # # # # # # # # # # # # # # # # # # # # # # # # # # # # # # # # # # # # # # # # # # # # # # # # # # # ",
"# # # # # # # # # # # # # # # # # # # # # # # # # # # # # # # # # # # # # # # # # # # # # # # # # # # # # # # # # # # # ",
"# # # # # # # # # # # # # # # # # # # # # # # # # # # # # # # # # # # # # # # # # # # # # # # # # # # # # # # # # # # # ",
"# # # # # # # # # # # # # # # # # # # # # # # # # # # # # # # # # # # # # # # # # # # # # # # # # # # # # # # # # # # # ",
"# # # # # # # # # # # # # # # # # # # # # # # # # # # # # # # # # # # # # # # # # # # # # # # # # # # # # # # # # # # # ",
"# # # # # # # # # # # # # # # # # # # # # # # # # # # # # # # # # # # # # # # # # # # # # # # # # # # # # # # # # # # # ",
"# # # # # # # # # # # # # # # # # # # # # # # # # # # # # # # # # # # # # # # # # # # # # # # # # # # # # # # # # # # # ",
"# # # # # # # # # # # # # # # # # # # # # # # # # # # # # # # # # # # # # # # # # # # # # # # # # # # # # # # # # # # # ",
"# # # # # # # # # # # # # # # # # # # # # # # # # # # # # # # # # # # # # # # # # # # # # # # # # # # # # # # # # # # # ",
"# # # # # # # # # # # # # # # # # # # # # # # # # # # # # # # # # # # # # # # # # # # # # # # # # # # # # # # # # # # # ",
"# # # # # # # # # # # # # # # # # # # # # # # # # # # # # # # # # # # # # # # # # # # # # # # # # # # # # # # # # # # # ",
"# # # # # # # # # # # # # # # # # # # # # # # # # # # # # # # # # # # # # # # # # # # # # # # # # # # # # # # # # # # # ",
"# # # # # # # # # # # # # # # # # # # # # # # # # # # # # # # # # # # # # # # # # # # # # # # # # # # # # # # # # # # # ",
"# # # # # # # # # # # # # # # # # # # # # # # # # # # # # # # # # # # # # # # # # # # # # # # # # # # # # # # # # # # # ",
"# # # # # # # # # # # # # # # # # # # # # # # # # # # # # # # # # # # # # # # # # # # # # # # # # # # # # # # # # # # # ",
"# # # # # # # # # # # # # # # # # # # # # # # # # # # # # # # # # # # # # # # # # # # # # # # # # # # # # # # # # # # # ",
"# # # # # # # # # # # # # # # # # # # # # # # # # # # # # # # # # # # # # # # # # # # # # # # # # # # # # # # # # # # # ",
"# # # # # # # # # # # # # # # # # o # # # # # # # # # # # # # # # # # # # # # # # # # # # # # # # # # # # # # # # # # # ",
"# # # # # # # # # # # # # # # o + q # # # # # # # # # # # # # # # # # # # # # # # # # # # # # # # # # # # # # # # # # # ",
"# # # # # # # # # # # # # # # + e r o o # # # # # # # # # # # # # # # # # # # # # # # # # # # # # # # # # # # # # # # # ",
"# # # # # # # # # # # # # # # q r r % # # # s q o # # # # # # # # # # # # # # # # # # # # # # # # # # # # # # # # # # # ",
"# # # # # # # # # # # # o % + r r q # # # s 8.4.5.z o # # # # # # # # # # # # # # # # # # # # # # # # # # # # # # # # # ",
"# # # # # # # # # # # # o @ + e r # # # # f v @ c l r # # # # # # # # Z $.#.# # # # # # # # # # # # # # # # # # # # # # ",
"# # # # # # # # # # # # y # o e r + # # # # + # q t 1.8.1.y # # # # Z j.g.g.%.# # # # # # # # # # # # # # # # # # # # # ",
"# # # # # # # # # # # q 1.% # % q q 5 # # # # t z 4.5.5.8.2.y # # # r.g.w.u.%.# # # # # # # # # # # # # # # # # # # # # ",
"# # # # # # # # # # # 0 1.1.% o # # # # + v 1.b  .9.8.8.5.9.9.y # g h.-.V.x.9 * # # # # # # # # # # # # # # # # # # # # ",
"# # # # # # # # # # # 5 l 2.1.y 2 % % & b 8.9.z v 8.8.5.5.5.b l & Z g.=.I.P.. C # # # # # # # # # # # # # # # # # # # # ",
"# # # # # # # # # # # # 5 r 4.9.5.4.4.5.1.b 9.4.e 3.8.8.5.M N e t m p.~ ) n.  ` # # # # # # # # # # # # # # # # # # # # ",
"# # # # # # # # # # # # # q e c  .4.4.y q t z 2.1.c  .i E R G I 1.e Y a.h.7 V G.# # # # # # # # # # # # # # # # # # # # ",
"# # # # # # # # # # # # # # @ @ + @ + # o o v  .8.5.8.p R 8.6.h , ; 0 m d.i.d.H.# # # # # # # # # # # # # # # # # # # # ",
"# # # # # # # # # # # # # # # # # # # s t % 8.9.5.7.6.h < x I ; X O ; e W.Y.U.Z.# # # # # # # # # # # # # # # # # # # # ",
"# # # # # # # # # # # # # # # # # # # y c o v 8.9.5.E U 1 1 < J L K - w v.n.z.[ 8 # # # # # # # # # # # # # # # # # # # ",
"# # # # # # # # # # # # # # # # # # # # b 5 5 1.5.5.5.9.2.p u ( k.P = < f y.E.$.e.B # # # # # # # # # # # # # # # # # # ",
"# # # # # # # # # # # # # # # # # # # # s c + t v 8.8.4.9.1.4.M n G a w u Y ^.t.%.<.C # # # # # # # # # # # # # # # # # ",
"# # # # # # # # # # # # # # # # # # # # # # o $ 5 1.9.v  .9.8.l l 5.k ..T.R.f.E F %.;.S # # # # # # # # # # # # # # # # ",
"# # # # # # # # # # # # # # # # # # # # # # # # + 5  .t e | 7.4.4.v / G q.d # $ , f.!.e.C # # # # # # # # # # # # # # # ",
"# # # # # # # # # # # # # # # # # # # # # # # # # o + o % j b 3.3.n A.B # # # # o Q ~.y.d # # # # # # # # # # # # # # # ",
"# # # # # # # # # # # # # # # # # # # # # # # # # # # # D c.N.' N 0.v.# # # # # # F t.T.: > $ # # # # # # # # # # # # # ",
"# # # # # # # # # # # # # # # # # # # # # # # # # # # 7 ;.w.J.Q.U.T 3 # # # # # # B O.e.& O > < - # # # # # # # # # # # ",
"# # # # # # # # # # # # # # # # # # # # # # # # # # B :.<.:.e.K.I.F.m.3 # # # # # 6 D B # # # O ; o # # # # # # # # # # ",
"# # # # # # # # # # # # # # # # # # # * #.#.% # # 4 F.A.J.t.,.b.v.L.Y.Z.% # # # # # # # # # # # # # # # # # # # # # # # ",
"# # # # # # # # # # # # # # # # # # # %.;.;.%.D ..$.[ s.s.M.M.B.X.W D.N.3 # # # # # # # # # # # # # # # # # # # # # # # ",
"# # # # # # # # # # # # # # # # # # g ;.;.;.;.e.;.<.,.<.,.:.A.) ..X.B.W o o # # # # # # # # # # # # # # # # # # # # # # ",
"# # # # # # # # # # # # # # # # # # #.;.;.;.;.;.;.;.;.;.;.,.a.S.O.o.v.} # # # # # # # # # # # # # # # # # # # # # # # # ",
"# # # # # # # # # # # # # # # # # # #.;.e.;.;.;.;.;.;.;.;.e.+.{ S.+.] S # # # # # # # # # # # # # # # # # # # # # # # # ",
"# # # # # # # # # # # # # # # # # # X.&.e.;.;.;.;.;.;.;.e.&.O.*.) N.[ _ 7 # # # # # # # # # # # # # # # # # # # # # # # ",
"# # # # # # # # # # # # # # # # # # 6 H O.;.;.;.;.;.e.e.@.X.@.e.,.^ C.v.! # # # # # # # # # # # # # # # # # # # # # # # ",
"# # # # # # # # # # # # # # # # # # # Z S O.O.-.-.-.-.@.o.@.O.e.e.>.+.] l.$ # # # # # # # # # # # # # # # # # # # # # # ",
"# # # # # # # # # # # # # # # # # # # # 8 O.O.D H S S O.-.;.@.e.;.&.D A # # # # # # # # # # # # # # # # # # # # # # # # ",
"# # # # # # # # # # # # # # # # # # # # # O.O.&.-.&.&.;.e.O.-.;.O.o.S % # # # # # # # # # # # # # # # # # # # # # # # # ",
"# # # # # # # # # # # # # # # # # # # # # 6 Z O.;.;.e.e.@.@.&.S O.Z # # # # # # # # # # # # # # # # # # # # # # # # # # ",
"# # # # # # # # # # # # # # # # # # # # # # 6 Z H @.;.@.X.@.O.o.Z 6 # # # # # # # # # # # # # # # # # # # # # # # # # # ",
"# # # # # # # # # # # # # # # # # # # # # # # # 6 6 Z S S S S S % # # # # # # # # # # # # # # # # # # # # # # # # # # # "
};
