/* XPM */
static char *result[] = {
/* columns rows colors chars-per-pixel */
"60 60 203 2 ",
"   c #240916",
".  c #290916",
"X  c #2B0A1A",
"o  c #270818",
"O  c #330C1C",
"+  c #390E1F",
"@  c #26161E",
"#  c #38121F",
"$  c #2B0A23",
"%  c #29072F",
"&  c #2A092F",
"*  c #27052D",
"=  c #330C24",
"-  c #390E22",
";  c #3E0E29",
":  c #271821",
">  c #361122",
",  c #391424",
"<  c #3C162A",
"1  c #3C1C2C",
"2  c #381627",
"3  c #2B0731",
"4  c #2D0A33",
"5  c #310936",
"6  c #36093A",
"7  c #3A093D",
"8  c #370A34",
"9  c #2F1035",
"0  c #321136",
"q  c #331539",
"w  c #36193C",
"e  c #391C3E",
"r  c #381A33",
"t  c #3F212D",
"y  c #2F263F",
"u  c #3E2333",
"i  c #38283A",
"p  c #623A1F",
"a  c #401D2C",
"s  c #4C1D2F",
"d  c #430E38",
"f  c #43143C",
"g  c #45193C",
"h  c #451434",
"j  c #531A3B",
"k  c #771922",
"l  c #432532",
"z  c #472935",
"x  c #4B253A",
"c  c #552B39",
"v  c #4D353D",
"b  c #5A3D3B",
"n  c #69242F",
"m  c #61312F",
"M  c #642632",
"N  c #6D3A30",
"B  c #7B3731",
"V  c #5C4329",
"C  c #77462B",
"Z  c #60403F",
"A  c #7B4631",
"S  c #774836",
"D  c #3D0A41",
"F  c #3C1D41",
"G  c #3E1542",
"H  c #302741",
"J  c #3E2343",
"K  c #322A43",
"L  c #392F44",
"P  c #362F49",
"I  c #3D3346",
"U  c #37304B",
"Y  c #39324C",
"T  c #3B3551",
"R  c #3F3A57",
"E  c #3F3A58",
"W  c #440B45",
"Q  c #490D45",
"!  c #460C49",
"~  c #4C0C4E",
"^  c #510F4C",
"/  c #431344",
"(  c #491445",
")  c #4B1B42",
"_  c #4B134B",
"`  c #4B1C4F",
"'  c #451449",
"]  c #581648",
"[  c #4E0C50",
"{  c #4E1050",
"}  c #4F1B51",
"|  c #511253",
" . c #561E58",
".. c #452B4A",
"X. c #492E4C",
"o. c #452849",
"O. c #5B2D47",
"+. c #4E3644",
"@. c #4A324D",
"#. c #44354A",
"$. c #563B45",
"%. c #593A46",
"&. c #59265B",
"*. c #5C2D5E",
"=. c #4D3550",
"-. c #443C54",
";. c #4B3E52",
":. c #433C59",
">. c #533D56",
",. c #553F58",
"<. c #5A3A59",
"1. c #653652",
"2. c #673E5C",
"3. c #493F63",
"4. c #623464",
"5. c #55424D",
"6. c #5F4B4C",
"7. c #59434B",
"8. c #47425C",
"9. c #49455E",
"0. c #4E485A",
"q. c #54435A",
"w. c #5A445E",
"e. c #534D5E",
"r. c #5C495E",
"t. c #524451",
"y. c #664847",
"u. c #704842",
"i. c #6D4950",
"p. c #73435C",
"a. c #765F5E",
"s. c #4D4165",
"d. c #4F4168",
"f. c #534E64",
"g. c #51436A",
"h. c #574562",
"j. c #555164",
"k. c #595464",
"l. c #5F5C6E",
"z. c #595469",
"x. c #5A4972",
"c. c #5F5671",
"v. c #654B66",
"b. c #6B4867",
"n. c #754C69",
"m. c #65536A",
"M. c #605A6C",
"N. c #625176",
"B. c #6C5E7E",
"V. c #765B69",
"C. c #766A61",
"Z. c #666374",
"A. c #696576",
"S. c #8F171E",
"D. c #B8272B",
"F. c #DC2426",
"G. c #87492D",
"H. c #954C21",
"J. c #95522B",
"K. c #9A582F",
"L. c #8C4B32",
"P. c #874B36",
"I. c #8B5137",
"U. c #9D5831",
"Y. c #995532",
"T. c #B75C23",
"R. c #A6592C",
"E. c #9E672B",
"W. c #9F6233",
"Q. c #996A38",
"!. c #A86128",
"~. c #BD6523",
"^. c #B66A2E",
"/. c #AE7628",
"(. c #BC772C",
"). c #A26634",
"_. c #B17037",
"`. c #C46B23",
"'. c #C77527",
"]. c #C47D36",
"[. c #835940",
"{. c #8B5851",
"}. c #89664F",
"|. c #9D6E4E",
" X c #8B6555",
".X c #AD7C4C",
"XX c #B07346",
"oX c #A57153",
"OX c #834E6B",
"+X c #89566D",
"@X c #87566A",
"#X c #8C5A74",
"$X c #925D7C",
"%X c #906276",
"&X c #BB842D",
"*X c #C48029",
"=X c #C69138",
"-X c #C68C37",
";X c #AC8544",
":X c #875B82",
">X c #925F84",
",X c #996288",
"<X c None",
/* pixels */
"<X<X<X<X<X<X<X<X<X<X<X<X<X<X<X<X<X<X<X<X<X<X<X<X<X<X<X<X<X<X<X<X<X<X<X<X<X<X<X<X<X<X<X<X<X<X<X<X<X<X<X<X<X<X<X<X<X<X<X<X",
"<X<X<X<X<X<X<X<X<X<X<X<X<X<X<X<X<X<X<X<X<X<X<X<X<X<X<X<X<X<X<X<X<X<X<X<X<X<X<X<X<X<X<X<X<X<X<X<X<X<X<X<X<X<X<X<X<X<X<X<X",
"<X<X<X<X<X<X<X<X<X<X<X<X<X<X<X<X<X<X<X<X<X<X<X<X<X<X<X<X<X<X<X<X<X<X<X<X<X<X<X<X<X<X<X<X<X<X<X<X<X<X<X<X<X<X<X<X<X<X<X<X",
"<X<X<X<X<X<X<X<X<X<X<X<X<X<X<X<X<X<X<X<X<X<X<X<X<X<X<X<X<X<X<X<X<X<X<X<X<X<X<X<X<X<X<X<X<X<X<X<X<X<X<X<X<X<X<X<X<X<X<X<X",
"<X<X<X<X<X<X<X<X<X<X<X<X<X<X<X<X<X<X<X<X<X<X<X<X<X<X<X<X<X<X<X<X<X<X<X<X<X<X<X<X<X<X<X<X<X<X<X<X<X<X<X<X<X<X<X<X<X<X<X<X",
"<X<X<X<X<X<X<X<X<X<X<X<X<X<X<X<X<X<X<X<X<X<X<X<X<X<X<X<X<X<X<X<X<X<X<X<X<X<X<X<X<X<X<X<X<X<X<X<X<X<X<X<X<X<X<X<X<X<X<X<X",
"<X<X<X<X<X<X<X<X<X<X<X<X<X<X<X<X<X<X<X<X<X<X<X<X<X<X<X<X<X<X<X<X<X<X<X<X<X<X<X<X<X<X<X<X<X<X<X<X<X<X<X<X<X<X<X<X<X<X<X<X",
"<X<X<X<X<X<X<Xe e X.<X<X<X<X<X<X<X<X<X<X<X<X<X<X<X<X<X<X<X<X<X<X<X<X<X<X<X<X<X<X<X<X<X<X<X<X<X<X<X<X<X<X<X<X<X<X<X<X<X<X",
"<X<X<X<X<X<X..e % % =.<X<X<X<X<X<X<X<X<X<X<X<X<X<X<X<X<X<X<X<X<X<X<X<X<X<X<X<X<X<X<X<X<X<X<X<X<X<X<X<X<X<X<X<X<X<X<X<X<X",
"<X<X<X<X<XX.<X<XF 0 q.<X<X<X<X<X<X<X@.q e >.<X<X<X<X<X<X<X<X<X<X<X<X<X<X<X<X<X<X<X<X<X<X<X<X<X<X<X<X<X<X<X<X<X<X<X<X<X<X",
"<X<X<X<XJ @.<X<X<X<X<X<X<X<X<X<X,.q 0 o.<X<X<X<X<X<X<X<X<X<X<X<X<X<X<X<X<X<X<X<X<X<X<X<X<X<X<X<X<X<X<X<X<X<X<X<X<X<X<X<X",
"<X<X<X<XF @.<X<X<X<X<X<X<X<X<X<Xw.<X<X<X<X<X<X<X<X<X<X<X<X<X<X<X<X<X<X<X<X<X<X<X<X<X<X<X<X<X<X<X<X<X<X<X<X<X<X<X<X<X<X<X",
"<X<X<X<X<Xr.<X<X<X<X<X<X<X<X<X<Xm.<X<X<X<X<X<X<X<X<X<X<X<X<X<X<X<X<X<X<X<X<X<X<X<X<X<X<X<X<X<X<X<X<X<X<X<X<X<X<X<X<X<X<X",
"<X<X<X<X<Xr.<X<X<X<X<X<X<X<X<X<X<X<X<X<X<X<X<X<X<X<X<X<X<X<X<X<X<X<X<X<X<X<X<X<X<X<X<X<X<X<X<X<X<X<X<X<X<X<X<X<X<X<X<X<X",
"<X<X<X<X<X<X<X<X<X<X<X<X<X<X<X<X<X<X<X<X<X<X<X<X<X<X<X<X<X<X<X<X<X<X<X<X<X<XB.N.N.A.<X<X<X<X<X<X<X<X<X<X<X<X<X<X<X<X<X<X",
"<X<X<X<X<X<X<X<X<X<X<X<X<X<X<X<X=.e G 4.<X<X<X4.`  .*.<X<X<X<X<X<X<X<X<X<XB.x.g.d.s.c.<X<X<X<X<X<X<X<X<X<X<X<X<X<X<X<X<X",
"<X<X<X<X<X<X<X<X<X<X<X<X<Xo.X.e 4 % 4 ' &.4.} { ! [ [ { ` o.<X<X<X<X<X<X<Xx.d.:.:.:.:.A.<X<X<X<X<X<X<X<X<X<X<X<X<X<X<X<X",
"<X<X<X<X<X<X<X<X<X<X<XX.J 4 4 4 % % 3 3 W | [ [ ~ W 5 5 4 4 F <X<X<X<X<X<Xg.:.;.P.A I M.<X<X<X<X<X<X<X<X<X<X<X<X<X<X<X<X",
"<X<X<X<X<X<X<X<X<X<X<X0 % q <X<X/ % 4 4 D ! ~ ! D 4 3 3 4 4 4 =.<X<X<X<XN.s.-.I.~.H.u j.<X<X<X<X<X<X<X<X<X<X<X<X<X<X<X<X",
"<X<X<X<X<X<X<X<X<X<XX.4 q <X<X<X<X' ! ! D 5 D 7 6 D ~ ~ ~ W 4 q @.<X<X<Xx.s.;.W.`.H.@ I <X<X<X<X<X<X<X<X<X<X<X<X<X<X<X<X",
"<X<X<X<X<X<X<X<X<X<Xq q <X<X<X<X<X} ~ [ ~ D 7 ! ~ ~ [ ~ ~ ~ f & q o.<Xm.g.T I C '.!.@ L <X<X<X<X<X<X<X<X<X<X<X<X<X<X<X<X",
"<X<X<X<X<X<X<X<X<XX.3 @.<X<X<X<X<X| [ ~ ~ ~ ~ [ ~ [ ~ [ ~ / l r 4 9 q e Y 7.Z v C p @ i C.<X<X<X<X<X<X<X<X<X<X<X<X<X<X<X",
"<X<X<X<X<X<X<X<X..q e <X<X<X<X<X<X' [ [ ~ ~ [ ~ ~ ~ d g o.l u u 8 & % % 4 b i.b.L @ @ V ;X<X<X<X<X<X<X<X<X<X<X<X<X<X<X<X",
"<X<X<Xk.J J J e 4 J <X<X<X<X<X<X<X<X| [ ~ [ ~ [ ~ ~ 8 a l / ) u r 2 = = $ 8 @.q.:.K b /.=X<X<X<X<X<X<X<X<X<X<X<X<X<X<X<X",
"<X<X<X<Xo.5 9 9 e <X<X<X<X4.<X<X<X<X| ~ [ ~ ~ [ [ ~ h a / ~ ~ g 2 O X X   $ N ).y.t.6.Q.=X<X<X<X<X<X<X<X<X<X<X<X<X<X<X<X",
"<X<X<X<X<X<X<X<X<X<X<X<X&.b.<X<X<X<X| ~ ~ [ ~ ~ ~ g < O = Q Q d > X   X X X < E.*X(.&X*X].<X<X<X<X<X<X<X<X<X<X<X<X<X<X<X",
"<X<X<X<X<X<X<X<X<X<X<X<X' >.<X<X<X<X! ~ [ [ ~ ~ ( a > - O h d + .           > J.'.'.~.~.).a.<X<X<X<X<X<X<X<X<X<X<X<X<X<X",
"<X<X<X<X<X<X<X<X<X<X<X<X' >.<X<X<X<X*.[ ! Q ~ _ ) ) h ; + + + X # k S.S.O X > m A A J.~.S 8.A.<X<X<X<X<X<X<X<X<X<X<X<X<X",
"<X<X<X<X<X<X<X<X<X<X<X<Xv.q.<X<X<X<X<X4.W 3 6 ~ _ [ ~ Q d - X = j D.F.k O . O < o.n.@X{.v T s.A.<X<X<X<X<X<X<X<X<X<X<X<X",
"<X<X<X<X<X<X<X<X<X<X<X<X<X<X<X<X<X<X<X<X5 % 3 6 ~ ~ ~ ~ Q - = Q ) M n a . . O > < 1.,Xn.K K T 9.A.<X<X<X<X<X<X<X<X<X<X<X",
"<X<X<X<X<X<X<X<X<X<X<X<X<X<X<X<X<X<X<X<X=.% % % 6 ! ~ ~ ~ ! 7 D _ _ ( g W 8 $ $ , O.,X>Xq.y K E 9.Z.<X<X<X<X<X<X<X<X<X<X",
"<X<X<X<X<X<X<X<X<X<X<X<X<X<X<X<X<X<X<X<X<X5 % % % 5 7 ! ! D 5 D ~ ~ ~ ~ ~ D % g p.#X#X#XO.r y K T 9.Z.<X<X<X<X<X<X<X<X<X",
"<X<X<X<X<X<X<X<X<X<X<X<X<X<X<X<X<X<X<X<X<Xr.5 % % % % 4 5 5 7 ~ ~ [ ~ [ ! 6 4 1.+X%X<X<Xa O , z w.h.8.Z.<X<X<X<X<X<X<X<X",
"<X<X<X<X<X<X<X<X<X<X<X<X<X<X<X<X<X<X<X<X<X<X<X..X.o.5 D ! ! ~ ~ ~ ~ ~ ~ 5 & e b.<X<X<X<X<X+.2 x ,X:Xh.f.<X<X<X<X<X<X<X<X",
"<X<X<X<X<X<X<X<X<X<X<X<X<X<X<X<X<X<X<X<X<X<X<X<X<X<XX.7 ! [ ~ ~ [ [ ~ 6 & q q.<X<X<X<X<X<X<X<XV.$X$X4.+.<X<X<X<X<X<X<X<X",
"<X<X<X<X<X<X<X<X<X<X<X<X<X<X<X<X<X<X<X<X<X<X<X<X<X<X{.s 6 ^ ^ ~ ~ ! Q 5 c S <X<X<X<X<X<X<X<X<X<X@X+X+Xc $.<X<X<X<X<X<X<X",
"<X<X<X<X<X<X<X<X<X<X<X<X<X<X<X<X<X<X<X<X<X<X<X<X<X<X;.#.@.P.B h j ] g c U.oX<X<X<X<X<X<X<X<X<X<X#.<.n.x 1 z 6.<X<X<X<X<X",
"<X<X<X<X<X<X<X<X<X<X<X<X<X<X<X<X<X<X<X<X<X<X<X<X<Xz.T E -.;.y.G.L.U.I.N oX<X<X<X<X<X<X<X<X<X<X<XK L ;.f.<X1 l z $.<X<X<X",
"<X<X<X<X<X<X<X<X<X<X<X<X<X<X<X<X<X<X<X<X<X<X<X<X<XU Y :.:.R :.-.-.5.). X<X<X<X<X<X<X<X<X<X<X<X<XK T f.<X<X<X<Xz z z <X<X",
"<X<X<X<X<X<X<X<X<X<X<X<X<X<X<X<X<X<X<X<X<X<X<X<X<XK Y :.R R R R :.;.[..X<X<X<X<X<X<X<X<X<X<X<X<X<X<X<X<X<X<X<X<X<X2 v <X",
"<X<X<X<X<X<X<X<X<X<X<X<X<X<X<X<X<X<X<X<X<X<X<X<X<XK L T E R E :.E E 7.|.<X<X<X<X<X<X<X<X<X<X<X<X<X<X<X<X<X<X<X<X<X<X<X<X",
"<X<X<X<X<X<X<X<X<X<X<X<X<X<X<X<X<X<X<X<X<X<X<X<X<XK K U E R :.;.-.;.6._.<X<X<X<X<X<X<X<X<X<X<X<X<X<X<X<X<X<X<X<X<X<X<X<X",
"<X<X<X<X<X<X<X<X<X<X<X<X<X<X<X<X<X<X<X<X<X<X<X<X<XM.y #.$.t.u.!.^.^.^.'.XX<X<X<X<X<X<X<X<X<X<X<X<X<X<X<X<X<X<X<X<X<X<X<X",
"<X<X<X<X<X<X<X<X<X<X<X<X<X<X<X<X<X<X<X<X<X<X<X<X<X<Xb J.).I.J.K.U.U.U.R.^.<X<X<X<X<X<X<X<X<X<X<X<X<X<X<X<X<X<X<X<X<X<X<X",
"<X<X<X<X<X<X<X<X<X<X<X<X<X<X<X<X<X<X<X<X<X<X<X<X<X<XG.A +.-.-.8.-.-.-.%.P. X<X<X<X<X<X<X<X<X<X<X<X<X<X<X<X<X<X<X<X<X<X<X",
"<X<X<X<X<X<X<X<X<X<X<X<X<X<X<X<X<X<X<X<X<X<X<X<X<X<XK K K Y E T :.E -.T I k.<X<X<X<X<X<X<X<X<X<X<X<X<X<X<X<X<X<X<X<X<X<X",
"<X<X<X<X<X<X<X<X<X<X<X<X<X<X<X<X<X<X<X<X<X<X<X<X<X<XH H H U E -.E E E T P e.<X<X<X<X<X<X<X<X<X<X<X<X<X<X<X<X<X<X<X<X<X<X",
"<X<X<X<X<X<X<X<X<X<X<X<X<X<X<X<X<X<X<X<X<X<X<X<X<X<XU T Y T E E E E E T U k.<X<X<X<X<X<X<X<X<X<X<X<X<X<X<X<X<X<X<X<X<X<X",
"<X<X<X<X<X<X<X<X<X<X<X<X<X<X<X<X<X<X<X<X<X<X<X<X<X8.R R R R E E E T Y Y e.<X<X<X<X<X<X<X<X<X<X<X<X<X<X<X<X<X<X<X<X<X<X<X",
"<X<X<X<X<X<X<X<X<X<X<X<X<X<X<X<X<X<X<X<X<X<X<Xf.8.-.E E E E E E Y P U e.<X<X<X<X<X<X<X<X<X<X<X<X<X<X<X<X<X<X<X<X<X<X<X<X",
"<X<X<X<X<X<X<X<X<X<X<X<X<X<X<X<X<X<X<X<X<X<Xj.E E E E E R T Y U H U e.<X<X<X<X<X<X<X<X<X<X<X<X<X<X<X<X<X<X<X<X<X<X<X<X<X",
"<X<X<X<X<X<X<X<X<X<X<X<X<X<X<X<X<X<X<X<X<X<X8.E E T Y Y U H K H U e.<X<X<X<X<X<X<X<X<X<X<X<X<X<X<X<X<X<X<X<X<X<X<X<X<X<X",
"<X<X<X<X<X<X<X<X<X<X<X<X<X<X<X<X<X<X<X<X<X-.P U U K H H H H y I e.<X<X<X<X<X<X<X<X<X<X<X<X<X<X<X<X<X<X<X<X<X<X<X<X<X<X<X",
"<X<X<X<X<X<X<X<X<X<X<X<X<X<X<X<X<X<X<X<Xk.K H H K H K H K K U T <X<X<X<X<X<X<X<X<X<X<X<X<X<X<X<X<X<X<X<X<X<X<X<X<X<X<X<X",
"<X<X<X<X<X<X<X<X<X<X<X<X<X<X<X<X<X<X<X<Xj.H H K H H H K U K T M.<X<X<X<X<X<X<X<X<X<X<X<X<X<X<X<X<X<X<X<X<X<X<X<X<X<X<X<X",
"<X<X<X<X<X<X<X<X<X<X<X<X<X<X<X<X<X<X<X<X0.K P Y K K H Y U -.k.<X<X<X<X<X<X<X<X<X<X<X<X<X<X<X<X<X<X<X<X<X<X<X<X<X<X<X<X<X",
"<X<X<X<X<X<X<X<X<X<X<X<X<X<X<X<X<X<X<X<XE T Y K H H U T K 0.<X<X<X<X<X<X<X<X<X<X<X<X<X<X<X<X<X<X<X<X<X<X<X<X<X<X<X<X<X<X",
"<X<X<X<X<X<X<X<X<X<X<X<X<X<X<X<X<X<X<Xj.:.Y H H K H K T -.<X<X<X<X<X<X<X<X<X<X<X<X<X<X<X<X<X<X<X<X<X<X<X<X<X<X<X<X<X<X<X",
"<X<X<X<X<X<X<X<X<X<X<X<X<X<X<X<X<X<X<XE U K H H H K K U 8.k.<X<X<X<X<X<X<X<X<X<X<X<X<X<X<X<X<X<X<X<X<X<X<X<X<X<X<X<X<X<X",
"<X<X<X<X<X<X<X<X<X<X<X<X<X<X<X<X<X<Xf.Y K H H H H H H H P Y k.<X<X<X<X<X<X<X<X<X<X<X<X<X<X<X<X<X<X<X<X<X<X<X<X<X<X<X<X<X"
};
