/* XPM */
static char *result[] = {
/* columns rows colors chars-per-pixel */
"60 60 168 2 ",
"   c #1D080F",
".  c #170715",
"X  c #150F16",
"o  c #1D0E14",
"O  c #170F18",
"+  c #190D1C",
"@  c #111111",
"#  c #1A1817",
"$  c #161519",
"%  c #1A141D",
"&  c #1A191F",
"*  c #280616",
"=  c #250A14",
"-  c #2A0915",
";  c #2C0C1A",
":  c #340C1C",
">  c #291C13",
",  c #20111E",
"<  c #2E1F18",
"1  c #341C14",
"2  c #3A3115",
"3  c #1F0B23",
"4  c #1D1A23",
"5  c #1C1D2C",
"6  c #1B0B35",
"7  c #181130",
"8  c #230C26",
"9  c #26052C",
"0  c #2B072F",
"q  c #260B2A",
"w  c #2A0C2C",
"e  c #390F20",
"r  c #33092B",
"t  c #211021",
"y  c #201B27",
"u  c #221D2A",
"i  c #391524",
"p  c #3A152B",
"a  c #2C0733",
"s  c #2D0832",
"d  c #29033B",
"f  c #330B36",
"g  c #37033E",
"h  c #35093A",
"j  c #3A0B3C",
"k  c #2D1B3C",
"l  c #3A1937",
"z  c #282123",
"x  c #26212E",
"c  c #34222D",
"v  c #262231",
"b  c #2A2435",
"n  c #292837",
"m  c #2E263D",
"M  c #2E2B3D",
"N  c #3D2737",
"B  c #392831",
"V  c #31253E",
"C  c #302D3F",
"Z  c #482219",
"A  c #4F2B1B",
"S  c #473518",
"D  c #4D3518",
"F  c #54381D",
"G  c #421B2B",
"H  c #420D30",
"J  c #420C3B",
"K  c #44183E",
"L  c #442B38",
"P  c #5E2836",
"I  c #44313F",
"U  c #4E323A",
"Y  c #573636",
"T  c #6D3F33",
"R  c #7C4D2A",
"E  c #63413B",
"W  c #6A4738",
"Q  c #744232",
"!  c #784B34",
"~  c #370442",
"^  c #391C45",
"/  c #1B2149",
"(  c #172455",
")  c #252343",
"_  c #2E2742",
"`  c #2F2B45",
"'  c #292748",
"]  c #2F2D4D",
"[  c #302740",
"{  c #322942",
"}  c #352E49",
"|  c #3B2948",
" . c #343147",
".. c #36324B",
"X. c #39334D",
"o. c #2C2E55",
"O. c #2B325E",
"+. c #373455",
"@. c #3B3651",
"#. c #3F3A57",
"$. c #33355B",
"%. c #3D3A59",
"&. c #373A62",
"*. c #430B46",
"=. c #460B49",
"-. c #4B0C4D",
";. c #401248",
":. c #50104F",
">. c #4E0B51",
",. c #510C53",
"<. c #462F47",
"1. c #552F46",
"2. c #42324C",
"3. c #403B57",
"4. c #413B58",
"5. c #653D63",
"6. c #59474C",
"7. c #524151",
"8. c #5E5454",
"9. c #674545",
"0. c #6B4542",
"q. c #644C4B",
"w. c #714740",
"e. c #714D42",
"r. c #7B5243",
"t. c #63445A",
"y. c #4A4067",
"u. c #524266",
"i. c #534369",
"p. c #7A4F63",
"a. c #6E5173",
"s. c #93181E",
"d. c #981821",
"f. c #88292C",
"g. c #BB2C29",
"h. c #B1591E",
"j. c #8D4B2B",
"k. c #994F27",
"l. c #855A23",
"z. c #9A522B",
"x. c #854F30",
"c. c #8F5E3C",
"v. c #A45526",
"b. c #AB5725",
"n. c #AD5824",
"m. c #A35829",
"M. c #B45B23",
"N. c #9D6437",
"B. c #B7662C",
"V. c #BA6A2A",
"C. c #A57335",
"Z. c #CA651D",
"A. c #D5791D",
"S. c #C26524",
"D. c #C06826",
"F. c #CC6E21",
"G. c #C67525",
"H. c #C07629",
"J. c #D07B25",
"K. c #84556B",
"L. c #8D5475",
"P. c #975C72",
"I. c #9A6078",
"U. c #E5801F",
"Y. c #D68126",
"T. c #855886",
"R. c #92608A",
"E. c #A56A94",
/* pixels */
"@ @ @ @ @ @ @ @ @ @ @ @ @ @ @ @ @ @ @ @ @ @ @ @ @ @ @ @ @ @ @ @ @ @ @ @ @ @ @ @ @ @ @ @ @ @ @ @ @ @ @ @ @ @ @ @ @ @ @ @ ",
"@ @ @ @ @ @ @ @ @ @ @ @ @ @ @ @ @ @ @ @ @ @ @ @ @ @ @ @ @ @ @ @ @ @ @ @ @ @ @ @ @ @ @ @ @ @ @ @ @ @ @ @ @ @ @ @ @ @ @ @ ",
"@ @ @ @ @ @ @ @ @ @ @ @ @ @ @ @ @ @ @ @ @ @ @ @ @ @ @ @ @ @ @ @ @ @ @ @ @ @ @ @ @ @ @ @ @ @ @ @ @ @ @ @ @ @ @ @ @ @ @ @ ",
"@ @ @ @ @ @ @ @ @ @ @ @ @ @ @ @ @ @ @ @ @ @ @ @ @ @ @ @ @ @ @ @ @ @ @ @ @ @ @ @ @ @ @ @ @ @ @ @ @ @ @ @ @ @ @ @ @ @ @ @ ",
"@ @ @ @ @ @ @ @ @ @ @ @ @ @ @ @ @ @ @ @ @ @ @ @ @ @ @ @ @ @ @ @ @ @ @ @ @ @ @ @ @ @ @ @ @ @ @ @ @ @ @ @ @ @ @ @ @ @ @ @ ",
"@ @ @ @ @ @ @ @ @ @ @ @ @ @ @ @ @ @ @ @ @ @ @ @ @ @ @ @ @ @ @ @ @ @ @ @ @ @ @ @ @ @ @ @ @ @ @ @ @ @ @ @ @ @ @ @ @ @ @ @ ",
"@ @ @ @ @ @ @ @ @ @ @ @ @ @ @ @ @ @ @ @ @ @ @ @ @ @ @ @ @ @ @ @ @ @ @ @ @ @ @ @ @ @ @ @ @ @ @ @ @ @ @ @ @ @ @ @ @ @ @ @ ",
"@ @ @ @ @ @ @ @ @ @ @ @ @ @ @ @ @ @ @ @ @ @ @ @ @ @ @ @ @ @ @ @ @ @ @ @ @ @ @ @ @ @ @ @ @ @ @ @ @ @ @ @ @ @ @ @ @ @ @ @ ",
"@ @ @ @ @ @ @ @ @ @ @ @ @ @ @ @ @ @ @ @ @ @ @ @ @ @ @ @ @ @ @ @ @ @ @ @ @ @ @ @ @ @ @ @ @ @ @ @ @ @ @ @ @ @ @ @ @ @ @ @ ",
"@ @ @ @ @ @ @ @ @ @ @ @ @ @ @ @ @ @ @ @ @ @ @ @ @ @ @ @ @ @ @ @ @ @ @ @ @ @ @ @ @ @ @ @ @ @ @ @ @ @ @ @ @ @ @ @ @ @ @ @ ",
"@ @ @ @ @ @ @ @ @ @ @ @ @ @ @ @ @ @ @ @ @ @ @ @ @ @ @ @ @ @ @ @ @ @ @ @ @ @ @ @ @ @ @ @ @ @ @ @ @ @ @ @ @ @ @ @ @ @ @ @ ",
"@ @ @ @ @ @ @ @ @ @ @ @ @ @ @ @ @ @ @ @ @ @ @ @ @ @ @ @ @ @ @ @ @ @ @ @ @ @ @ @ @ @ @ @ @ @ @ @ @ @ @ @ @ @ @ @ @ @ @ @ ",
"@ @ @ @ @ @ @ @ @ @ @ @ @ @ @ @ @ @ @ @ @ @ @ @ @ @ @ @ @ @ @ @ @ @ @ @ @ @ @ @ @ @ @ @ @ @ @ @ @ @ @ @ @ @ @ @ @ @ @ @ ",
"@ @ @ @ @ @ @ @ @ @ @ @ @ @ @ @ @ @ @ @ @ @ @ @ @ @ @ @ @ @ @ @ @ @ @ @ @ @ @ @ @ @ @ @ @ @ @ @ @ @ @ @ @ @ @ @ @ @ @ @ ",
"@ @ @ @ @ @ @ @ @ @ @ @ @ @ @ @ @ @ @ @ @ @ @ @ @ @ @ @ @ @ @ @ @ @ @ @ @ @ @ @ @ @ @ @ @ @ @ @ @ @ @ @ @ @ @ @ @ @ @ @ ",
"@ @ @ @ @ @ @ @ @ @ @ @ @ @ @ @ @ @ @ @ @ @ @ @ @ @ @ @ @ @ @ @ @ @ @ @ @ @ @ @ @ @ @ @ @ @ @ @ @ @ @ @ @ @ @ @ @ @ @ @ ",
"@ @ @ @ @ @ @ @ @ @ @ @ @ @ @ @ @ @ @ @ @ @ @ @ @ @ @ @ @ @ @ @ @ @ @ @ @ @ @ @ @ @ @ @ @ @ @ @ @ @ @ @ @ @ @ @ @ @ @ @ ",
"@ @ @ @ @ @ @ @ @ @ @ @ @ @ @ @ @ @ @ @ @ @ @ @ @ @ @ @ @ @ @ @ @ @ @ @ @ @ @ @ @ @ @ @ @ @ @ @ @ @ @ @ @ @ @ @ @ @ @ @ ",
"@ @ @ @ @ @ @ @ @ @ @ @ @ @ @ @ @ @ @ @ @ @ @ @ @ @ @ @ @ @ @ @ @ @ @ @ @ @ @ @ @ @ @ @ @ @ @ @ @ @ @ @ @ @ @ @ @ @ @ @ ",
"@ @ @ @ @ @ @ @ @ @ @ @ @ @ @ @ @ @ @ @ @ @ @ @ @ @ @ @ @ @ @ @ @ @ @ @ @ @ @ @ @ @ @ @ @ @ @ @ @ @ @ @ @ @ @ @ @ @ @ @ ",
"@ @ @ @ @ @ @ @ @ @ @ @ @ @ @ @ @ @ @ @ @ @ @ @ @ @ @ @ @ @ @ @ @ @ @ @ @ @ @ @ @ @ @ @ @ @ @ @ @ @ @ @ @ @ @ @ @ @ @ @ ",
"@ @ @ @ @ @ @ @ @ @ @ @ @ @ X O @ @ @ @ @ @ @ @ @ @ @ @ @ @ @ @ @ @ @ @ @ @ @ @ @ @ @ @ @ @ @ @ @ @ @ @ @ @ @ @ @ @ @ @ ",
"@ @ @ @ @ @ @ @ @ @ @ @ @ @ O $ @ @ @ @ @ @ @ @ @ @ @ @ @ @ @ @ @ @ @ @ @ @ @ @ @ @ @ @ @ @ @ @ @ @ @ @ @ @ @ @ @ @ @ @ ",
"@ @ @ @ @ @ @ @ @ @ @ @ @ @ X @ @ @ @ @ @ @ @ @ @ @ @ @ @ @ @ @ @ @ @ @ @ @ @ @ @ @ @ @ @ @ @ @ @ @ @ @ @ @ @ @ @ @ @ @ ",
"@ @ @ @ @ @ @ @ @ @ @ @ @ @ @ @ @ @ @ @ @ @ @ @ @ @ @ @ @ @ @ @ @ @ @ @ @ @ @ @ @ @ @ @ @ @ @ @ @ @ @ @ @ @ @ @ @ @ @ @ ",
"@ @ @ @ @ @ @ @ @ @ @ @ @ @ @ @ @ @ @ X + 3 X @ @ @ @ @ @ @ @ @ @ @ @ @ @ @ @ @ @ @ @ @ @ @ @ @ @ @ @ @ @ @ @ @ @ @ @ @ ",
"@ @ @ @ @ @ @ @ @ @ @ @ @ @ @ @ @ @ @ 3 0 0 3 X @ @ @ @ @ @ @ @ @ @ @ @ @ @ @ @ @ @ @ @ @ @ @ @ @ @ @ @ @ @ @ @ @ @ @ @ ",
"@ @ @ @ @ @ @ @ @ @ @ @ @ @ @ @ @ @ X + 3 $ @ $ @ @ @ @ @ @ @ @ @ @ @ @ @ @ @ @ @ @ @ @ @ @ @ @ @ @ @ @ @ @ @ @ @ @ @ @ ",
"@ @ @ @ @ @ @ @ @ @ @ X @ @ @ @ @ @ @ @ @ @ @ @ @ X X X @ @ @ @ @ y 2.@.5 @ @ @ @ @ @ @ @ @ @ @ @ @ @ @ @ @ @ @ @ @ @ @ ",
"@ @ @ @ @ @ @ @ @ @ @ + O @ @ @ @ @ % f f @ @ $ + f j j O @ @ @ & u.i.y.y.z @ @ @ @ @ @ @ @ @ @ @ @ @ @ @ @ @ @ @ @ @ @ ",
"@ @ @ @ @ @ @ @ @ @ @ @ q t @ @ @ 0 j -.>.j s j f g ,.,.*.X @ @ x i.%.0.N ..@ @ @ @ @ @ @ @ @ @ @ @ @ @ @ @ @ @ @ @ @ @ ",
"@ @ @ @ @ @ @ @ @ @ @ @ w =.@ @ 0 f X 8 =.=.j 9 =.*.-.-.-.0 O @ y.&.r.Z.Z C @ @ @ @ @ @ @ @ @ @ @ @ @ @ @ @ @ @ @ @ @ @ ",
"@ @ @ @ @ @ @ @ @ @ @ @ @ + j 0 q @ @ X s ,.s f >.,.>.-.J 9 0 f | &.! U.A c # @ @ @ @ @ @ @ @ @ @ @ @ @ @ @ @ @ @ @ @ @ ",
"@ @ @ @ @ @ @ @ @ @ @ @ @ @ O % w @ @ @ 8 >.s g ,.-.-.>.L q a a 9 k <.R 1 x 2 @ @ @ @ @ @ @ @ @ @ @ @ @ @ @ @ @ @ @ @ @ ",
"@ @ @ @ @ @ @ @ @ @ @ @ @ @ X r 8 @ @ @ 8 h a *.>.,.p L c l r J f g 5.] 7 l.D @ @ @ @ @ @ @ @ @ @ @ @ @ @ @ @ @ @ @ @ @ ",
"@ @ @ @ @ @ @ @ @ @ @ @ @ @ q f @ @ @ @ 8 f -.>.-.>.i l 0 G : ; - *.d 6.8.C.S @ @ @ @ @ @ @ @ @ @ @ @ @ @ @ @ @ @ @ @ @ ",
"@ @ @ @ @ @ @ @ @ @ @ @ @ @ j t @ @ @ @ 8 h ,.-.:.p : - H : . . * r g A.A.G.z @ @ @ @ @ @ @ @ @ @ @ @ @ @ @ @ @ @ @ @ @ ",
"@ @ @ @ @ @ @ @ @ @ @ @ @ @ 8 % @ @ @ @ @ s -.-.1.K H : : , s.d.- * P ! Q S.X.% @ @ @ @ @ @ @ @ @ @ @ @ @ @ @ @ @ @ @ @ ",
"@ @ @ @ @ @ @ @ @ @ @ @ @ @ @ @ @ @ @ @ @ 8 =.>.-.>.-.j e ^ g.f.- - : k T.K.} @.# @ @ @ @ @ @ @ @ @ @ @ @ @ @ @ @ @ @ @ ",
"@ @ @ @ @ @ @ @ @ @ @ @ @ @ @ @ @ @ @ @ X X a -.=.,.a h -.>.;.l a r p G L.R.{ @.@.4 @ @ @ @ @ @ @ @ @ @ @ @ @ @ @ @ @ @ ",
"@ @ @ @ @ @ @ @ @ @ @ @ @ @ @ @ @ @ @ @ @ @ X 9 9 j 0 s >.>.>.,.9 6 t.P.p.L i l 4.@.4 @ @ @ @ @ @ @ @ @ @ @ @ @ @ @ @ @ ",
"@ @ @ @ @ @ @ @ @ @ @ @ @ @ @ @ @ @ @ @ @ @ @ $ @ + 8 9 =.=.,.~ p ! I B @ @   - E.a. .$ @ @ @ @ @ @ @ @ @ @ @ @ @ @ @ @ ",
"@ @ @ @ @ @ @ @ @ @ @ @ @ @ @ @ @ @ @ @ @ @ @ @ @ @ @ $ a ~ ~ 6 Y x.v @ @ @ @ @ I.R.G = @ @ @ @ @ @ @ @ @ @ @ @ @ @ @ @ ",
"@ @ @ @ @ @ @ @ @ @ @ @ @ @ @ @ @ @ @ @ @ @ @ @ @ @ @ 4 U v.Y ) n.N ) b 4 @ @ @ 2.p.1.- ; # @ @ @ @ @ @ @ @ @ @ @ @ @ @ ",
"@ @ @ @ @ @ @ @ @ @ @ @ @ @ @ @ @ @ @ @ @ @ @ @ @ @ y @.4.7.B.E E x.W ) [ 4 X @ M ..n @ o ; ; @ @ @ @ @ @ @ @ @ @ @ @ @ ",
"@ @ @ @ @ @ @ @ @ @ @ @ @ @ @ @ @ @ @ @ @ @ @ @ @ 5 3.3.#.O.7.F.H.Y.U.| ` [ $ @ v n @ @ @ @ = @ @ @ @ @ @ @ @ @ @ @ @ @ ",
"@ @ @ @ @ @ @ @ @ @ @ @ @ @ @ @ @ @ @ @ @ @ @ @ F 3.$.3.#.q.B.F.J.A.V.{ ..[ b $ @ @ @ @ @ @ @ @ @ @ @ @ @ @ @ @ @ @ @ @ ",
"@ @ @ @ @ @ @ @ @ @ @ @ @ @ @ @ @ @ @ @ @ @ @ v e.V.q.+.r.F.k.U G.z.| _ { _ ) $ @ @ @ @ @ @ @ @ @ @ @ @ @ @ @ @ @ @ @ @ ",
"@ @ @ @ @ @ @ @ @ @ @ @ @ @ @ @ @ @ @ @ @ $ n #.$.9.N.q.D.1.] ..m./ } X.o.{ Q < @ @ @ @ @ @ @ @ @ @ @ @ @ @ @ @ @ @ @ @ ",
"@ @ @ @ @ @ @ @ @ @ @ @ @ @ @ @ @ @ n v  .#.#.#.4.%.$.c.! o.' } z.( X.{ Y j.h.> @ @ @ @ @ @ @ @ @ @ @ @ @ @ @ @ @ @ @ @ ",
"@ @ @ @ @ @ @ @ @ @ @ @ @ @ @ $ ....#.#.3.#.#.@.@.@.@.' Q W 0.w.n.U j.M.Z.M.c @ @ @ @ @ @ @ @ @ @ @ @ @ @ @ @ @ @ @ @ @ ",
"@ @ @ @ @ @ @ @ @ @ @ @ @ @ # ..#.#.3.#.#.#.3.3.} m m V ) U v.n.m.n.b.v.T I 4 @ @ @ @ @ @ @ @ @ @ @ @ @ @ @ @ @ @ @ @ @ ",
"@ @ @ @ @ @ @ @ @ @ @ @ @ @ M #.#.#.#.#.#.3.#. .X.X.@.X.{ ) _ _ ` _ _ _ ) k @ @ @ @ @ @ @ @ @ @ @ @ @ @ @ @ @ @ @ @ @ @ ",
"@ @ @ @ @ @ @ @ @ @ @ @ @ @ M #.4.#.#.#.{ @.4.X.{ { X.X.X.{ _ _ _ [ _ [ M 4 @ @ @ @ @ @ @ @ @ @ @ @ @ @ @ @ @ @ @ @ @ @ ",
"@ @ @ @ @ @ @ @ @ @ @ @ @ @ $ M {  .v { { { { X.@.{ { } @.@.{ V [ [ { M $ @ @ @ @ @ @ @ @ @ @ @ @ @ @ @ @ @ @ @ @ @ @ @ ",
"@ @ @ @ @ @ @ @ @ @ @ @ @ @ @ @ @ @ X 4 x b m { [ { { } { V { { [ m 5 $ @ @ @ @ @ @ @ @ @ @ @ @ @ @ @ @ @ @ @ @ @ @ @ @ ",
"@ @ @ @ @ @ @ @ @ @ @ @ @ @ @ @ @ @ @ @ @ @ 4 n { { [ V V { _ b b @ @ @ @ @ @ @ @ @ @ @ @ @ @ @ @ @ @ @ @ @ @ @ @ @ @ @ ",
"@ @ @ @ @ @ @ @ @ @ @ @ @ @ @ @ @ @ @ @ @ @ @ $ 4 u { { _ b y $ $ X @ @ @ @ @ @ @ @ @ @ @ @ @ @ @ @ @ @ @ @ @ @ @ @ @ @ ",
"@ @ @ @ @ @ @ @ @ @ @ @ @ @ @ @ @ @ @ @ @ @ @ @ @ @ $ $ $ @ @ @ @ @ @ @ @ @ @ @ @ @ @ @ @ @ @ @ @ @ @ @ @ @ @ @ @ @ @ @ ",
"@ @ @ @ @ @ @ @ @ @ @ @ @ @ @ @ @ @ @ @ @ @ @ @ @ @ @ @ @ @ @ @ @ @ @ @ @ @ @ @ @ @ @ @ @ @ @ @ @ @ @ @ @ @ @ @ @ @ @ @ "
};
