/* XPM */
static char *result[] = {
/* columns rows colors chars-per-pixel */
"60 60 149 2 ",
"   c #180B0F",
".  c #150F15",
"X  c #1B001E",
"o  c #170F18",
"O  c #1A0D1C",
"+  c #111111",
"@  c #191314",
"#  c #161519",
"$  c #1B171B",
"%  c #1A191E",
"&  c #240410",
"*  c #240A15",
"=  c #2B0915",
"-  c #2D0C1A",
";  c #340C1C",
":  c #390B1A",
">  c #261019",
",  c #1E0C22",
"<  c #1B1120",
"1  c #1E1A23",
"2  c #210B25",
"3  c #2F0823",
"4  c #25062C",
"5  c #29072E",
"6  c #26082B",
"7  c #2B0C2D",
"8  c #3A0D25",
"9  c #320C29",
"0  c #201D27",
"q  c #371020",
"w  c #3D1122",
"e  c #351C24",
"r  c #381D22",
"t  c #3D1E2D",
"y  c #2B0731",
"u  c #2E0833",
"i  c #230E39",
"p  c #310735",
"a  c #300B34",
"s  c #3A0B3D",
"d  c #251431",
"f  c #331631",
"g  c #2D2126",
"h  c #2F2923",
"j  c #24222D",
"k  c #28202A",
"l  c #322222",
"z  c #262432",
"x  c #2C2436",
"c  c #2E253C",
"v  c #31263E",
"b  c #3C2E3A",
"n  c #412B16",
"m  c #410E30",
"M  c #460D3B",
"N  c #451838",
"B  c #45222E",
"V  c #432828",
"C  c #412732",
"Z  c #5D2C34",
"A  c #4D3036",
"S  c #663F25",
"D  c #763A2D",
"F  c #732035",
"G  c #5C463E",
"H  c #7E452E",
"J  c #724232",
"K  c #794B3A",
"L  c #3E0A41",
"P  c #272341",
"I  c #2B2541",
"U  c #302740",
"Y  c #332A43",
"T  c #352E49",
"R  c #323146",
"E  c #36314B",
"W  c #3A334D",
"Q  c #242B57",
"!  c #353551",
"~  c #3B3552",
"^  c #3E3A56",
"/  c #35365B",
"(  c #36385A",
")  c #3F3B5A",
"_  c #420A45",
"`  c #43074B",
"'  c #470B4A",
"]  c #4C0C4E",
"[  c #4D1E46",
"{  c #461248",
"}  c #4C114D",
"|  c #4E1848",
" . c #50144C",
".. c #460651",
"X. c #450A51",
"o. c #4E0C50",
"O. c #510C53",
"+. c #560B59",
"@. c #482440",
"#. c #4E3E4F",
"$. c #433B55",
"%. c #4B3B50",
"&. c #413C59",
"*. c #6D2142",
"=. c #6D3E58",
"-. c #713F55",
";. c #57424D",
":. c #4B4054",
">. c #5C435C",
",. c #674B4A",
"<. c #795744",
"1. c #794D5E",
"2. c #77555B",
"3. c #4C4367",
"4. c #55446C",
"5. c #594670",
"6. c #5A4872",
"7. c #67446B",
"8. c #784D61",
"9. c #714B6E",
"0. c #73547A",
"q. c #9E2025",
"w. c #813A35",
"e. c #E8231F",
"r. c #8B4618",
"t. c #A2501C",
"y. c #8A4F2E",
"u. c #8A5325",
"i. c #925826",
"p. c #9D582A",
"a. c #924A33",
"s. c #A75627",
"d. c #AF5C27",
"f. c #99623B",
"g. c #AF692D",
"h. c #BA6627",
"j. c #B96E2D",
"k. c #A0743A",
"l. c #C6611E",
"z. c #CD6E1B",
"x. c #D57D23",
"c. c #985850",
"v. c #975F7F",
"b. c #9E617F",
"n. c #B3842B",
"m. c #D18121",
"M. c #D18C24",
"N. c #925D89",
"B. c #BF7BA3",
/* pixels */
"+ + + + + + + + + + + + + + + + + + + + + + + + + + + + + + + + + + + + + + + + + + + + + + + + + + + + + + + + + + + + ",
"+ + + + + + + + + + + + + + + + + + + + + + + + + + + + + + + + + + + + + + + + + + + + + + + + + + + + + + + + + + + + ",
"+ + + + + + + + + + + + + + + + + + + + + + + + + + + + + + + + + + + + + + + + + + + + + + + + + + + + + + + + + + + + ",
"+ + + + + + + + + + + + + + + + + + + + + + + + + + + + + + + + + + + + + + + + + + + + + + + + + + + + + + + + + + + + ",
"+ + + + + + + + + + + + + + + + + + + + + + + + + + + + + + + + + + + + + + + + + + + + + + + + + + + + + + + + + + + + ",
"+ + + + + + + + + + + + + + + + + + + + + + + + + + + + + + + + + + + + + + + + + + + + + + + + + + + + + + + + + + + + ",
"+ + + + + + + + + + + + + + + + + + + + + + + + + + + + + + + + + + + + + + + + + + + + + + + + + + + + + + + + + + + + ",
"+ + + + + + + + + + + + + + + + + + + + + + + + + + + + + + + + + + + + + + + + + + + + + + + + + + + + + + + + + + + + ",
"+ + + + + + + + + + + + + + + + + + + + + + + + + + + + + + + + + + + + + + + + + + + + + + + + + + + + + + + + + + + + ",
"+ + + + + + + + + + + + + + + + + + + + + + + + + + + + + + + + + + + + + + + + + + + + + + + + + + + + + + + + + + + + ",
"+ + + + + + + + + + + + + + + + + + + + + + + + + + + + + + + + + + + + + + + + + + + + + + + + + + + + + + + + + + + + ",
"+ + + + + + + + + + + + + + + + + + + + + + + + + + + + + + + + + + + + + + + + + + + + + + + + + + + + + + + + + + + + ",
"+ + + + + + + + + + + + + + + + + + + + + + + + + + + + + + + + + + + + + + + + + + + + + + + + + + + + + + + + + + + + ",
"+ + + + + + + + + + + + + + + + + + + + + + + + + + + + + + + + + + + + + + + + + + + + + + + + + + + + + + + + + + + + ",
"+ + + + + + + + + + + + + + + + + + + + + + + + + + + + + + + + + + + + + + + + + + + + + + + + + + + + + + + + + + + + ",
"+ + + + + + + + + + + + + + + + + + + + + + + + + + + + + + + + + + + + + + + + + + + + + + + + + + + + + + + + + + + + ",
"+ + + + + + + + + + + + + + + + + + + + + + + + + + + + + + + + + + + + + + + + + + + + + + + + + + + + + + + + + + + + ",
"+ + + + + + + + + + + + + + + + + + + + + + + + + + + + + + + + + + + + + + + + + + + + + + + + + + + + + + + + + + + + ",
"+ + + + + + + + + + + + + + + + + + + + + + + + + + + + + + + + + + + + + + + + + + + + + + + + + + + + + + + + + + + + ",
"+ + + + + + + + + + + + + + + + + + + + + + + + + + + + + + + + + + + + + + + + + + + + + + + + + + + + + + + + + + + + ",
"+ + + + + + + + + + + + + + + + + + + + + + + + + + + + + + + + + + + + + + + + + + + + + + + + + + + + + + + + + + + + ",
"+ + + + + + + + + + + + + + + + + + + + + + + + + + + + + + + + + + + + + + + + + + + + + + + + + + + + + + + + + + + + ",
"+ + + + + + + + + + + + + + + + + + + + + + + + + + + + + + + + + + + + + + + + + + + + + + + + + + + + + + + + + + + + ",
"+ + + + + + + + + + + + + + + + + + + + + + + + + + + + + + + + + + + + + + + + + + + + + + + + + + + + + + + + + + + + ",
"+ + + + + + + + + + + + + , 2 , + + + + + + + + + + + + + + + + + + + + + + + + + + + + + + + + + + + + + + + + + + + + ",
"+ + + + + + + + + + + + , 2 5 5 O + + + + , , + + + + + + + + + + + + + + + + + + + + + + + + + + + + + + + + + + + + + ",
"+ + + + + + + + + + + , 4 + O , + + + . 5 5 2 , + + + + + + + + + + + + + + + + + + + + + + + + + + + + + + + + + + + + ",
"+ + + + + + + + + + + O 6 + + + + + + 4 O # + # + + + + + + + + + + + + + + + + + + + + + + + + + + + + + + + + + + + + ",
"+ + + + + + + + + + + + 4 + + + + + + O + + + + + + + . + + + + + + + 0 % + + + + + + + + + + + + + + + + + + + + + + + ",
"+ + + + + + + + + + + + O + + + + + + + , 7 + + @ 6 7 . + + + + + @ W 5.4.j + + + + + + + + + + + + + + + + + + + + + + ",
"+ + + + + + + + + + + + + + + + + @ O 4 5 L s 7 L o.o.s O + + + + Y 5.) ^ ^ + + + + + + + + + + + + + + + + + + + + + + ",
"+ + + + + + + + + + 2 + + + + + O 6 5 5 6 6 L O.o.] u u 4 O + + + &.) ;.s.b + + + + + + + + + + + + + + + + + + + + + + ",
"+ + + + + + + + + + 6 + + + + . 6 y O + s L L s L u L _ L 4 , + 1 6./ j.l.V # + + + + + + + + + + + + + + + + + + + + + ",
"+ + + + + + + + . O . + + + + , 5 O + + o.O.] s ' ] o.O. .f y , 2 3.W S x.e h + + + + + + + + + + + + + + + + + + + + + ",
"+ + + + + + + + + o O . + . o 4 6 + + + ' ] o.O.o.o.] { C C u y 5 i <.7.h # n.+ + + + + + + + + + + + + + + + + + + + + ",
"+ + + + + + + + + + o 2 6 6 y 2 + + 7 + 2 ] ] o.] ] ' r } @.l ; 3 3 @.2.Q G M.+ + + + + + + + + + + + + + + + + + + + + ",
"+ + + + + + + + + + + o O O O + + s f + 2 o.o.o.] o.N q ] ' : * * & 9 x.f.k.m.+ + + + + + + + + + + + + + + + + + + + + ",
"+ + + + + + + + + + + + + + + + + _ o + < X.o.o.o.[ r : m 8 = = : = X p.z.z.y.1 + + + + + + + + + + + + + + + + + + + + ",
"+ + + + + + + + + + + + + + + + + 6 O + @ a ' u ] | ] M : = b e.q.* = t $.c.b / 1 . + + + + + + + + + + + + + + + + + + ",
"+ + + + + + + + + + + + + + + + + + + + + + y 4 p ] o.O.8 s | F B 3 - ; 9 N.c E ) z + + + + + + + + + + + + + + + + + + ",
"+ + + + + + + + + + + + + + + + + + + + + + < 5 y u s o.L p o.X.{ +.6 7 -.v.@.x E ! z + + + + + + + + + + + + + + + + + ",
"+ + + + + + + + + + + + + + + + + + + + + + . , 4 4 4 u u ] o.] O._ 4 =.1.g & ; v 0.&.z + + + + + + + + + + + + + + + + ",
"+ + + + + + + + + + + + + + + + + + + + + + + + . + , _ ..O.o.O._ 4 d g $ + +   - B.9.x + . + + + + + + + + + + + + + + ",
"+ + + + + + + + + + + + + + + + + + + + + + + + + + $ Z *.` ' ..5 w.k + + + + + @ 8.b.w * @ + + + + + + + + + + + + + + ",
"+ + + + + + + + + + + + + + + + + + + + + + + + + . E $.,.D w.a.A r.+ + + + + + # c >.b * - > + + + + + + + + + + + + + ",
"+ + + + + + + + + + + + + + + + + + + + + + + + + 0 T :.( %.$.<.u.@ + + + + + + # Y R # + + = - + + + + + + + + + + + + ",
"+ + + + + + + + + + + + + + + + + + + + + + + + + 1 I ) ) / / / i.@ + + + + + + + 1 + + + + + * + + + + + + + + + + + + ",
"+ + + + + + + + + + + + + + + + + + + + + + + + + 1 I T / ;.,.;.g.n + + + + + + + + + + + + + + + + + + + + + + + + + + ",
"+ + + + + + + + + + + + + + + + + + + + + + + + + + b K K d.h.h.h.t.@ + + + + + + + + + + + + + + + + + + + + + + + + + ",
"+ + + + + + + + + + + + + + + + + + + + + + + + + + J J #.$.$.$.#.H @ + + + + + + + + + + + + + + + + + + + + + + + + + ",
"+ + + + + + + + + + + + + + + + + + + + + + + + + + c P ! &.^ ) ! P + + + + + + + + + + + + + + + + + + + + + + + + + + ",
"+ + + + + + + + + + + + + + + + + + + + + + + + + + Y ~ ^ &.^ &.~ x # + + + + + + + + + + + + + + + + + + + + + + + + + ",
"+ + + + + + + + + + + + + + + + + + + + + + + + z E ^ &.&.^ ^ T c # + + + + + + + + + + + + + + + + + + + + + + + + + + ",
"+ + + + + + + + + + + + + + + + + + + + + + + 1 &.^ ^ &.W E Y c + + + + + + + + + + + + + + + + + + + + + + + + + + + + ",
"+ + + + + + + + + + + + + + + + + + + + + + # R ~ ~ Y Y I U x + + + + + + + + + + + + + + + + + + + + + + + + + + + + + ",
"+ + + + + + + + + + + + + + + + + + + + + + 1 c v v U v T T $ + + + + + + + + + + + + + + + + + + + + + + + + + + + + + ",
"+ + + + + + + + + + + + + + + + + + + + + + 1 Y E U c T Y 0 + + + + + + + + + + + + + + + + + + + + + + + + + + + + + + ",
"+ + + + + + + + + + + + + + + + + + + + + + ^ ) Y Y Y ~ 0 + + + + + + + + + + + + + + + + + + + + + + + + + + + + + + + ",
"+ + + + + + + + + + + + + + + + + + + + + R ~ T v Y U T z + + + + + + + + + + + + + + + + + + + + + + + + + + + + + + + ",
"+ + + + + + + + + + + + + + + + + + + + % W x U c c c v T # + + + + + + + + + + + + + + + + + + + + + + + + + + + + + + "
};
