/* XPM */
static char *result[] = {
/* columns rows colors chars-per-pixel */
"60 60 211 2 ",
"   c #250917",
".  c #290916",
"X  c #2C0A1A",
"o  c #340D1D",
"O  c #25161E",
"+  c #3A111D",
"@  c #2E0923",
"#  c #360E20",
"$  c #3A0F22",
"%  c #330B2A",
"&  c #390E2E",
"*  c #2D1B23",
"=  c #391323",
"-  c #3C1825",
";  c #3C152A",
":  c #391B29",
">  c #351328",
",  c #2B0731",
"<  c #2D0A33",
"1  c #330A36",
"2  c #35093A",
"3  c #3A0B3D",
"4  c #3C0C33",
"5  c #3A143E",
"6  c #3A183E",
"7  c #391637",
"8  c #2D203E",
"9  c #3F2432",
"0  c #392B3F",
"q  c #332138",
"w  c #58101D",
"e  c #61131C",
"r  c #74141D",
"t  c #5F381F",
"y  c #763D1F",
"u  c #400E2F",
"i  c #471E2D",
"p  c #420D33",
"a  c #440D3C",
"s  c #411132",
"d  c #441E34",
"f  c #41173A",
"g  c #441B3B",
"h  c #5F1F31",
"j  c #6F1822",
"k  c #41242F",
"l  c #432332",
"z  c #482738",
"x  c #562538",
"c  c #44323D",
"v  c #4B343C",
"b  c #5C3935",
"n  c #553A3B",
"m  c #58383A",
"M  c #57272D",
"N  c #79262E",
"B  c #743B20",
"V  c #633D39",
"C  c #5F4039",
"Z  c #61412F",
"A  c #61413C",
"S  c #6A4737",
"D  c #754333",
"F  c #764A3A",
"G  c #3D0A41",
"H  c #3D0741",
"J  c #3D1B41",
"K  c #3C1E48",
"L  c #2E2742",
"P  c #322641",
"I  c #322942",
"U  c #3A2D41",
"Y  c #362E49",
"T  c #3D2544",
"R  c #37304B",
"E  c #3B334C",
"W  c #3C3448",
"Q  c #3B3551",
"!  c #3F3A57",
"~  c #3E3A59",
"^  c #430C46",
"/  c #460B49",
"(  c #4C0C4E",
")  c #480C47",
"_  c #411144",
"`  c #491446",
"'  c #461B44",
"]  c #491B42",
"[  c #461349",
"{  c #4A134B",
"}  c #471C4C",
"|  c #4E0C50",
" . c #4E1350",
".. c #4F1C51",
"X. c #511A54",
"o. c #462C4A",
"O. c #492D4D",
"+. c #462448",
"@. c #413245",
"#. c #40384E",
"$. c #4E3C4C",
"%. c #4A3548",
"&. c #583745",
"*. c #572759",
"=. c #453550",
"-. c #433B55",
";. c #4A3C53",
":. c #423C59",
">. c #4E3757",
",. c #523B55",
"<. c #593C5C",
"1. c #563659",
"2. c #6C3B57",
"3. c #5F2A60",
"4. c #473F61",
"5. c #5E3D60",
"6. c #653A67",
"7. c #55424E",
"8. c #5B444B",
"9. c #564147",
"0. c #4B4256",
"q. c #4A455D",
"w. c #4F495C",
"e. c #5E4851",
"r. c #574558",
"t. c #684D4B",
"y. c #684746",
"u. c #674858",
"i. c #71435D",
"p. c #775042",
"a. c #4E4465",
"s. c #534E64",
"d. c #5C4B61",
"f. c #53446A",
"g. c #584463",
"h. c #555166",
"j. c #59566B",
"k. c #5C4B73",
"l. c #5F5C71",
"z. c #624565",
"x. c #634B65",
"c. c #6C456D",
"v. c #6C4869",
"b. c #784864",
"n. c #66546A",
"m. c #6B546D",
"M. c #695B69",
"N. c #7A5569",
"B. c #6F4970",
"V. c #605D70",
"C. c #665778",
"Z. c #6F5871",
"A. c #735275",
"S. c #65606F",
"D. c #716268",
"F. c #6A6777",
"G. c #7E677F",
"H. c #736B7B",
"J. c #CC2527",
"K. c #82442D",
"L. c #8C4C2C",
"P. c #804A21",
"I. c #95552C",
"U. c #9A5E2D",
"Y. c #9D572E",
"T. c #854D36",
"R. c #8C5435",
"E. c #86523B",
"W. c #885339",
"Q. c #8D5C3D",
"!. c #965833",
"~. c #925735",
"^. c #905028",
"/. c #A85928",
"(. c #B55D25",
"). c #B75E24",
"_. c #9C602E",
"`. c #9C6033",
"'. c #AB652C",
"]. c #AA6B2C",
"[. c #BC6424",
"{. c #BC6A26",
"}. c #B46729",
"|. c #B56A29",
" X c #B5762A",
".X c #A66435",
"XX c #AE7632",
"oX c #C16523",
"OX c #C36D24",
"+X c #CA7525",
"@X c #CE7A26",
"#X c #C57627",
"$X c #8D554D",
"%X c #88665B",
"&X c #A67653",
"*X c #89576E",
"=X c #885777",
"-X c #925F7B",
";X c #8F6075",
":X c #8B7167",
">X c #B08132",
",X c #CB8A39",
"<X c #CC933A",
"1X c #AF8748",
"2X c #746883",
"3X c #7C7289",
"4X c #915E82",
"5X c #996289",
"6X c #907D90",
"7X c #847B8E",
"8X c None",
/* pixels */
"8X8X8X8X8X8X8X8X8X8X8X8X8X8X8X8X8X8X8X8X8X8X8X8X8X8X8X8X8X8X8X8X8X8X8X8X8X8X8X8X8X8X8X8X8X8X8X8X8X8X8X8X8X8X8X8X8X8X8X8X",
"8X8X8X8X8X8X8X8X8X8X8X8X8X8X8X8X8X8X8X8X8X8X8X8X8X8X8X8X8X8X8X8X8X8X8X8X8X8X8X8X8X8X8X8X8X8X8X8X8X8X8X8X8X8X8X8X8X8X8X8X",
"8X8X8X8X8X8X8X8X8X8X8X8X8X8X8X8X8X8X8X8X8X8X8X8X8X8X8X8X8X8X8X8X8X8X8X8X8X8X8X8X8X8X8X8X8X8X8X8X8X8X8X8X8X8X8X8X8X8X8X8X",
"8X8X8X8X8X8X8X8X8X8X8X8X8X8X8X8X8X8X8X8X8X8X8X8X8X8X8X8X8X8X8X8X8X8X8X8X8X8X8X8X8X8X8X8X8X8X8X8X8X8X8X8X8X8X8X8X8X8X8X8X",
"8X8X8X8X8X8X8X8X8X8X8X0.,.8X8X8X8X8X8X8X8X8X8X8X8X8X8X8X8X8X8X8X8X8X8X8X8X8X8X8X8X8X8X8X8X8X8X8X8X8X8X8X8X8X8X8X8X8X8X8X",
"8X8X8X8X8X8X8X8X8X8X,.Z.8X8X8X8X8X8X8X8X8X8X8X8X8X8X8X8X8X8X8X8X8X8X8X8X8X8X8X8X8X8X8X8X8X8X8X8X8X8X8X8X8X8X8X8X8X8X8X8X",
"8X8X8X8X8X8X8X8X8X8X8X8X8X8X8X8X8X8X8X8X8X8X8X8X8X8X8X8X8X8X8X8X8X8X8X8X8X8X8X8X8X8X8X8X8X8X8X8X8X8X8X8X8X8X8X8X8X8X8X8X",
"8X8X8X8X8X8X8X8X8X8X8X8X8X8X8X8X8X8X8X8X8X8X8X8X8X8X8X8X8X8X8X8X8X8X8X8X8X8X8X8X8X8X8X8X8X8X8X8X8X8X8X8X8X8X8X8X8X8X8X8X",
"8X8X8X8X8X8X8X8X8X8X8X8X8X8X8X8X8X8X8X8X8X8X8X8X8X8X8X8X8X8X8X8X8X8X8X8X8X8X8X8X8X8X8X8X8X8X8X8X8X8X8X8X8X8X8X8X8X8X8X8X",
"8X8X8X8X8X8X8X8X8X8X8X8X8X8X8X8X8X8X8X8X8X8X8X8X8X8X8X8X8X8X8X8X8X8X8X8X8X8X8X8X8X8X8X8X8X8X8X8X8X8X8X8X8X8X8X8X8X8X8X8X",
"8X8X8X8X8X8X8X8X8X8X8X8X8X8X8X8X8X8X8X8X8Xd.8X8X8X8X8X8X8X8X8X8X8X8X8X8X8X8X8X8X8X8X8X8X8X8X8X8X8X8X8X8X8X8X8X8X8X8X8X8X",
"8X8X8X8X8X8X8X8X8X8Xc.8X8X8X8X8X8X8X8X8Xz. .+.O.8X8X8X8X8X8X8X8X8X8X8X8X8X8X8X8X8X8X8X8X8X8X8X8X8X8X8X8X8X8X8X8X8X8X8X8X",
"8X8X8X8X8X8X8X8Xc.*. .*.8X8X8X8X8X8X8XA. .^ J 7 o.,.8X8X8X8X8X8X8X8X8X8X8X8X8X8X8X8X8X8X8X8X8X8X8X8X8X8X8X8X8X8X8X8X8X8X",
"8X8X8X8X8X8X8Xc.*.^ G | *.8X8X8X8X8X8XB...z.8X8Xz./ 1.8X8X8X8X8X8X8X8X8X8X2XC.C.3X8X8X8X8X8X8X8X8X8X8X8X8X8X8X8X8X8X8X8X",
"8X8X8X8X8X8XG.x.8X,.+.(  .8X8X8X8X8X8X8X8X8X8X8X1./ { 1.8X8X8X8X8X8X8X8X2Xk.f.f.h.2X8X8X8X8X8X8X8X8X8X8X8X8X8X8X8X8X8X8X",
"8X8X8X8X8X8X<.8X8X8X8X{ ( 3.8X8X8X8X8X8XM.<.6...3 ^ ( ^ 6 ,.8X8X8X8X8X7Xk.f.:.~ ~ s.8X8X8X8X8X8X8X8X8X8X8X8X8X8X8X8X8X8X",
"8X8X8X8X8X6.m.8X8X8X8X` |  .A.8X8X8X8X8XJ ^  .G G ( | G , < >.8X8X8X8X3Xf.:.7.F V #.8X8X8X8X8X8X8X8X8X8X8X8X8X8X8X8X8X8X",
"8X8X6X8X8XG.8X8X8X8X8Xg./ | X.m.8X8X5.X./ ( ( / G / / H 2 , 1 O.O.8X8XC.a.;.R.(.B U 8X8X8X8X8X8X8X8X8X8X8X8X8X8X8X8X8X8X",
"8X8X8XA.8X8X8X8X8X8X8X8XG ^ ( ..*.} | | ( | ( | ( ( ^ 1 < G / [ G J 1.f.:.7.'.oXy * 0.8X8X8X8X8X8X8X8X8X8X8X8X8X8X8X8X8X",
"8X8X8X8X8X8X8X8X8X8X8X8Xd.6 G ) / ( | ( | ( | ( ( | / G / ` ( / G 2 K :.~ %._.#XP.* =.8X8X8X8X8X8X8X8X8X8X8X8X8X8X8X8X8X",
"8X8X8X8X8X8X8X8X8X8X8X8X8X8X+.' 5 / ( | ( | ( | ( ( ^ ^ g z [ ( / 2 , T &.c b P.t O W 8X8X8X8X8X8X8X8X8X8X8X8X8X8X8X8X8X",
"8X8X8X8X8X8X8X8X8X8X8X8X8X8XA.H.g.*.| | ( | | ( / 4 f 7 9 9 g ( ( / G 5 F u.u.c O O Z 1X8X8X8X8X8X8X8X8X8X8X8X8X8X8X8X8X",
"8X8X8X8X8X8X8X8X8X8X8X8X8XB. .B.8XZ.( ( | ( | | / & l z ] d 9 g p p u 3 ' =.a.E I Z  X<X8X8X8X8X8X8X8X8X8X8X8X8X8X8X8X8X",
"8X8X8X8X8X8X8X8X8X8X8X8X8XX.| 6.8Xn._ | ( / ^ G 1 ; d ` ( ` 7 - o X X @ 3 z p.7.0.t.XX<X8X8X8X8X8X8X8X8X8X8X8X8X8X8X8X8X",
"8X8X8X8X8X8X8X8X8X8X8X8Xx./ ( 6.8Xn.G ( ( ( ) 3 7 = # 4 / ) p + . . .   1 x ]. XXX>X#X,X8X8X8X8X8X8X8X8X8X8X8X8X8X8X8X8X",
"8X8X8X8X8X8X8X8X8X8X8X8Xm.} / 6.8X8XJ ^ ( | | ] : + + o p p $ X . . . . X - I.+XOX{.#X.X8X8X8X8X8X8X8X8X8X8X8X8X8X8X8X8X",
"8X8X8X8X8X8X8X8X8X8X8X8X8Xx.} [ 5.8Xz.) | ( { ] g s = + $ + X + e r w X   @ i K.L./.{.S s.8X8X8X8X8X8X8X8X8X8X8X8X8X8X8X",
"8X8X8X8X8X8X8X8X8X8X8X8X8X8X*.G { <.O.) ( | { { ( ) a u $ X % h J.J.r X . # & =.v.$XW.%.! h.8X8X8X8X8X8X8X8X8X8X8X8X8X8X",
"8X8X8X8X8X8X8X8X8X8X8X8X8X8X8XJ H 3 < 2 ( ( | | | | | a # % ^ x N N i X . o = d b.5X5.I R -.h.8X8X8X8X8X8X8X8X8X8X8X8X8X",
"8X8X8X8X8X8X8X8X8X8X8X8X8X8X8X8Xz.5 < < 3 / ( ( | | | ) ^ ) ( { ` g s 3 % @ o = 2.5X=X=.I E ~ s.8X8X8X8X8X8X8X8X8X8X8X8X",
"8X8X8X8X8X8X8X8X8X8X8X8X8X8X8X8X8X8X8X8XO.1 3 ( | ( | ( ( | ( | | ( ( ( ) < d 2.*X-X=XO.8 P R ! h.8X8X8X8X8X8X8X8X8X8X8X",
"8X8X8X8X8X8X8X8X8X8X8X8X8X8X8X8X8X8X8X8X8X+., 3 ( | | ( | ( | ( ( ( / | / a 2.*X-X8XM.i # : U >.q.h.8X8X8X8X8X8X8X8X8X8X",
"8X8X8X8X8X8X8X8X8X8X8X8X8X8X8X8X8X8X8X8X8X8Xo.< 3 G / ( | | | ( ( / / ( / } N.8X8X8X8X8Xl - 1.4XA.4.V.8X8X8X8X8X8X8X8X8X",
"8X8X8X8X8X8X8X8X8X8X8X8X8X8X8X8X8X8X8X8X8X8X8X%.< , < 2 3 3 G ( | ( ( ^ } n.8X8X8X8X8X8X8X8XN.-X-X1.r.8X8X8X8X8X8X8X8X8X",
"8X8X8X8X8X8X8X8X8X8X8X8X8X8X8X8X8X8X8X8X8X8X8X8X8X+.J u.M 1 , 2 H / / 1 T 8X8X8X8X8X8X8X8X8X8X*X*Xi.&.8X8X8X8X8X8X8X8X8X",
"8X8X8X8X8X8X8X8X8X8X8X8X8X8X8X8X8X8X8X8X8X8X8X8X8X8X8X%XY.I.M 1 , 2 h K.:X8X8X8X8X8X8X8X8X8X8X,.i.i.d l &.8X8X8X8X8X8X8X",
"8X8X8X8X8X8X8X8X8X8X8X8X8X8X8X8X8X8X8X8X8X8X8X8X8X8Xl.0.E.{.'.A P 6 V D 8X8X8X8X8X8X8X8X8X8X8XW @.;.d.D.k z &.8X8X8X8X8X",
"8X8X8X8X8X8X8X8X8X8X8X8X8X8X8X8X8X8X8X8X8X8X8X8X8XV.q.! y./.OX].C I 0 0 8X8X8X8X8X8X8X8X8X8X8XW Q h.8X8X8X8X9 v &.8X8X8X",
"8X8X8X8X8X8X8X8X8X8X8X8X8X8X8X8X8X8X8X8X8X8X8X8XV.! ! ! -.W.OX@X_.c L I Q 8X8X8X8X8X8X8X8X8X8Xs.j.8X8X8X8X8X8Xt.: e.8X8X",
"8X8X8X8X8X8X8X8X8X8X8X8X8X8X8X8X8X8X8X8X8X8X8XS.0.~ ! ! ~ E.+X@X XS n F v #.8X8X8X8X8X8X8X8X8X8X8X8X8X8X8X8X8X8X8X8X8X8X",
"8X8X8X8X8X8X8X8X8X8X8X8X8X8X8X8X8X8X8X8X8X8X&Xt.-.! ! e.$X(.oX+X@X|.].|.C I #.8X8X8X8X8X8X8X8X8X8X8X8X8X8X8X8X8X8X8X8X8X",
"8X8X8X8X8X8X8X8X8X8X8X8X8X8X8X8X8X8X8X8X8XM.$XF 0.! 8.`.[.).).oX[.oX[.(.A I 0 Q 8X8X8X8X8X8X8X8X8X8X8X8X8X8X8X8X8X8X8X8X",
"8X8X8X8X8X8X8X8X8X8X8X8X8X8X8X8X8X8X8X8XV.! t..Xt.7.Q./.D b L.(.[.).E.9.W I 0 L #.8X8X8X8X8X8X8X8X8X8X8X8X8X8X8X8X8X8X8X",
"8X8X8X8X8X8X8X8X8X8X8X8X8X8X8X8X8X8X8XV.0.~ ;.W.W.Q.t.9.@.I @.I./.K.9.Y I I L L P #.8X8X8X8X8X8X8X8X8X8X8X8X8X8X8X8X8X8X",
"8X8X8X8X8X8X8X8X8X8X8X8X8X8X8X8X8X8XV.:.! ! -.E.}.R.$.R E E m B v U I R R I 8 0 I I 8X8X8X8X8X8X8X8X8X8X8X8X8X8X8X8X8X8X",
"8X8X8X8X8X8X8X8X8X8X8X8X8X8X8X8X8Xl.:.! ! ! :.W.}.y.E I W &.p.@.P I R R R I I I 0 Y 8X8X8X8X8X8X8X8X8X8X8X8X8X8X8X8X8X8X",
"8X8X8X8X8X8X8X8X8X8X8X8X8X8X8X8X8Xq.! ! ! ~ -.8.I.m I I I D V I I I Y I 8 I I 0 8 Y 8X8X8X8X8X8X8X8X8X8X8X8X8X8X8X8X8X8X",
"8X8X8X8X8X8X8X8X8X8X8X8X8X8X8X8Xh.:.! ! ! ! :.-.W.R.v I I D b L I U U 0 0 c R._.`.:X8X8X8X8X8X8X8X8X8X8X8X8X8X8X8X8X8X8X",
"8X8X8X8X8X8X8X8X8X8X8X8X8X8X8X8Xq.! ! ! ! :.! ! 7.!.!.n S D n c b _.'.'.'.}.}.I.:X8X8X8X8X8X8X8X8X8X8X8X8X8X8X8X8X8X8X8X",
"8X8X8X8X8X8X8X8X8X8X8X8X8X8X8Xh.! ! ! ! ! ! ! E E 7.!.|.OX{.{.|.{.[.oX)./.L.C D.8X8X8X8X8X8X8X8X8X8X8X8X8X8X8X8X8X8X8X8X",
"8X8X8X8X8X8X8X8X8X8X8X8X8X8Xh.~ ! ! ! ! ! ! ! R I E 9.T.L.L.L.L.L.L.L.L.b @.j.8X8X8X8X8X8X8X8X8X8X8X8X8X8X8X8X8X8X8X8X8X",
"8X8X8X8X8X8X8X8X8X8X8X8X8Xh.0.~ ! ! ! ! ! ! ! Q I I R W W 0 0 0 I 0 0 U w.8X8X8X8X8X8X8X8X8X8X8X8X8X8X8X8X8X8X8X8X8X8X8X",
"8X8X8X8X8X8X8X8X8X8X8X8XH.:.! ! ! ! ! ! ! Q Q Q Y 0 I R I I 8 I I I w.8X8X8X8X8X8X8X8X8X8X8X8X8X8X8X8X8X8X8X8X8X8X8X8X8X",
"8X8X8X8X8X8X8X8X8X8X8X8XS.:.! ! ! ! ! ~ Q R I R R Y I 8 I I I I I w.8X8X8X8X8X8X8X8X8X8X8X8X8X8X8X8X8X8X8X8X8X8X8X8X8X8X",
"8X8X8X8X8X8X8X8X8X8X8X8Xa.! ! ! ! ! ~ Q Y I I I I I I I Y Y Y ;.8X8X8X8X8X8X8X8X8X8X8X8X8X8X8X8X8X8X8X8X8X8X8X8X8X8X8X8X",
"8X8X8X8X8X8X8X8X8X8X8XH.:.! ! ! ! ! Q Q R Y I I I Q W W 8X8X8X8X8X8X8X8X8X8X8X8X8X8X8X8X8X8X8X8X8X8X8X8X8X8X8X8X8X8X8X8X",
"8X8X8X8X8X8X8X8X8X8X8XH.! ! ! ! ! ! R R R E Y I 0.8X8X8X8X8X8X8X8X8X8X8X8X8X8X8X8X8X8X8X8X8X8X8X8X8X8X8X8X8X8X8X8X8X8X8X",
"8X8X8X8X8X8X8X8X8X8X8X8Xh.! ! ! ! ! R I I 0 0.h.8X8X8X8X8X8X8X8X8X8X8X8X8X8X8X8X8X8X8X8X8X8X8X8X8X8X8X8X8X8X8X8X8X8X8X8X",
"8X8X8X8X8X8X8X8X8X8X8X8XF.:.! ! ! ! R L -.S.8X8X8X8X8X8X8X8X8X8X8X8X8X8X8X8X8X8X8X8X8X8X8X8X8X8X8X8X8X8X8X8X8X8X8X8X8X8X",
"8X8X8X8X8X8X8X8X8X8X8X8X8Xh.! ! ! ! E Q 8X8X8X8X8X8X8X8X8X8X8X8X8X8X8X8X8X8X8X8X8X8X8X8X8X8X8X8X8X8X8X8X8X8X8X8X8X8X8X8X"
};
