/* XPM */
static char *result[] = {
/* columns rows colors chars-per-pixel */
"60 60 177 2 ",
"   c #040019",
".  c #1D0711",
"X  c #150F16",
"o  c #170F18",
"O  c #1B0819",
"+  c #1A0D1D",
"@  c #111111",
"#  c #1A1513",
"$  c #171419",
"%  c #1B141C",
"&  c #1C181C",
"*  c #240A15",
"=  c #2B0B15",
"-  c #28051B",
";  c #2F0B1B",
":  c #310A16",
">  c #330C1C",
",  c #380D1F",
"<  c #211017",
"1  c #281B1D",
"2  c #392316",
"3  c #1E0B21",
"4  c #151624",
"5  c #191721",
"6  c #1D1A23",
"7  c #111029",
"8  c #1A0331",
"9  c #190832",
"0  c #1B1C32",
"q  c #210B25",
"w  c #26072C",
"e  c #29072F",
"r  c #250A2A",
"t  c #2B0B2C",
"y  c #3C0F24",
"u  c #3C0E2C",
"i  c #231023",
"p  c #2D1526",
"a  c #291E20",
"s  c #211E2A",
"d  c #341123",
"f  c #3C1423",
"g  c #34152E",
"h  c #3C142C",
"j  c #2C0633",
"k  c #220A31",
"l  c #2E0A33",
"z  c #300637",
"x  c #320A36",
"c  c #3C0A36",
"v  c #37073D",
"b  c #3C073F",
"n  c #350939",
"m  c #3A0A3D",
"M  c #201E31",
"N  c #2D1A38",
"B  c #311330",
"V  c #311832",
"C  c #3D1936",
"Z  c #23212D",
"A  c #3C222F",
"S  c #262635",
"D  c #292235",
"F  c #2C253C",
"G  c #2A293B",
"H  c #3E2630",
"J  c #302834",
"K  c #30263E",
"L  c #3B2B3A",
"P  c #3D3438",
"I  c #44102F",
"U  c #511321",
"Y  c #440F34",
"T  c #482D27",
"R  c #4F272F",
"E  c #412B2F",
"W  c #543428",
"Q  c #442938",
"!  c #502E3D",
"~  c #49333D",
"^  c #5B3937",
"/  c #583738",
"(  c #5D3E38",
")  c #6B3227",
"_  c #652837",
"`  c #633C34",
"'  c #7F4122",
"]  c #604034",
"[  c #614139",
"{  c #6D4A39",
"}  c #3D0A41",
"|  c #1E2652",
" . c #232244",
".. c #2F2742",
"X. c #252845",
"o. c #24284F",
"O. c #302740",
"+. c #322A43",
"@. c #322D4A",
"#. c #3C2D4B",
"$. c #353147",
"%. c #35334B",
"&. c #3A334E",
"*. c #242A54",
"=. c #302F53",
"-. c #2C335E",
";. c #353454",
":. c #3B3652",
">. c #3F3A57",
",. c #3D3A58",
"<. c #430743",
"1. c #420B44",
"2. c #460B4A",
"3. c #4B0C4D",
"4. c #4E134C",
"5. c #50114F",
"6. c #4E0C51",
"7. c #510C53",
"8. c #530B59",
"9. c #412D4C",
"0. c #473140",
"q. c #493540",
"w. c #4B3949",
"e. c #5F3D4B",
"r. c #403B57",
"t. c #483A52",
"y. c #413C59",
"u. c #623C40",
"i. c #6A3949",
"p. c #613251",
"a. c #613F58",
"s. c #6C3D5B",
"d. c #554550",
"f. c #5C425E",
"g. c #704741",
"h. c #765043",
"j. c #73495C",
"k. c #4C4066",
"l. c #534269",
"z. c #664B6C",
"x. c #7C4763",
"c. c #BF2A28",
"v. c #984B1B",
"b. c #8A4C2B",
"n. c #8F542E",
"m. c #94572E",
"M. c #995029",
"N. c #9A5B2B",
"B. c #824E31",
"V. c #844D3A",
"C. c #985A38",
"Z. c #A55526",
"A. c #A45F29",
"S. c #B05E27",
"D. c #BC5C21",
"F. c #9F6B3C",
"G. c #9C793D",
"H. c #A36124",
"J. c #A8612C",
"K. c #B46525",
"L. c #B76C27",
"P. c #BE6F27",
"I. c #A17935",
"U. c #C66617",
"Y. c #C1681A",
"T. c #EE7C1A",
"R. c #C56623",
"E. c #D87C23",
"W. c #825A40",
"Q. c #9D574C",
"!. c #824762",
"~. c #8C566A",
"^. c #905D77",
"/. c #D68A27",
"(. c #D69426",
"). c #A66A8D",
"_. c #AC74A5",
/* pixels */
"@ @ @ @ @ @ @ @ @ @ @ @ @ @ @ @ @ @ @ @ @ @ @ @ @ @ @ @ @ @ @ @ @ @ @ @ @ @ @ @ @ @ @ @ @ @ @ @ @ @ @ @ @ @ @ @ @ @ @ @ ",
"@ @ @ @ @ @ @ @ @ @ @ @ @ @ @ @ @ @ @ @ @ @ @ @ @ @ @ @ @ @ @ @ @ @ @ @ @ @ @ @ @ @ @ @ @ @ @ @ @ @ @ @ @ @ @ @ @ @ @ @ ",
"@ @ @ @ @ @ @ @ @ @ @ @ @ @ @ @ @ @ @ @ @ @ @ @ @ @ @ @ @ @ @ @ @ @ @ @ @ @ @ @ @ @ @ @ @ @ @ @ @ @ @ @ @ @ @ @ @ @ @ @ ",
"@ @ @ @ @ @ @ @ @ @ @ @ @ @ @ @ @ @ @ @ @ @ @ @ @ @ @ @ @ @ @ @ @ @ @ @ @ @ @ @ @ @ @ @ @ @ @ @ @ @ @ @ @ @ @ @ @ @ @ @ ",
"@ @ @ @ @ @ @ @ @ @ @ @ @ @ @ @ @ @ @ @ @ @ @ @ @ @ @ @ @ @ @ @ @ @ @ @ @ @ @ @ @ @ @ @ @ @ @ @ @ @ @ @ @ @ @ @ @ @ @ @ ",
"@ @ @ @ @ @ @ @ @ @ @ @ @ @ @ @ @ @ @ @ @ @ @ @ @ @ @ @ @ @ @ @ @ @ @ @ @ @ @ @ @ @ @ @ @ @ @ @ @ @ @ @ @ @ @ @ @ @ @ @ ",
"@ @ @ @ @ @ @ @ @ @ @ @ @ @ @ @ @ @ @ @ @ @ @ @ @ @ @ @ @ @ @ @ @ @ @ @ @ @ @ @ @ @ @ @ @ @ @ @ @ @ @ @ @ @ @ @ @ @ @ @ ",
"@ @ @ @ @ @ @ @ @ @ @ @ @ @ @ @ @ @ @ @ @ @ @ @ @ @ @ @ @ @ @ @ @ @ @ @ @ @ @ @ @ @ @ @ @ @ @ @ @ @ @ @ @ @ @ @ @ @ @ @ ",
"@ @ @ @ @ @ @ @ @ @ @ @ @ @ @ @ @ @ @ @ @ @ @ @ @ @ @ @ @ @ @ @ @ @ @ @ @ @ @ @ @ @ @ @ @ @ @ @ @ @ @ @ @ @ @ @ @ @ @ @ ",
"@ @ @ @ @ @ @ @ @ @ @ @ @ @ @ @ @ @ @ @ @ @ @ @ @ @ @ @ @ @ @ @ @ @ @ @ @ @ @ @ @ @ @ @ @ @ @ @ @ @ @ @ @ @ @ @ @ @ @ @ ",
"@ @ @ @ @ @ @ @ @ @ @ @ @ @ @ @ @ @ @ @ @ @ @ @ @ @ @ @ @ @ @ @ @ @ @ @ @ @ @ @ @ @ @ @ @ @ @ @ @ @ @ @ @ @ @ @ @ @ @ @ ",
"@ @ @ @ @ @ @ @ @ @ @ @ @ @ @ @ @ @ @ @ @ @ @ @ @ @ @ @ @ @ @ @ @ @ @ @ @ @ @ @ @ @ @ @ @ @ @ @ @ @ @ @ @ @ @ @ @ @ @ @ ",
"@ @ @ @ @ @ @ @ @ @ @ @ @ @ @ @ @ @ @ @ @ @ @ @ @ @ @ @ @ @ @ @ @ @ @ @ @ @ @ @ @ @ @ @ @ @ @ @ @ @ @ @ @ @ @ @ @ @ @ @ ",
"@ @ @ @ @ @ @ @ @ @ @ @ @ @ @ @ @ @ @ @ @ @ @ @ @ @ @ @ @ @ @ @ @ @ @ @ @ @ @ @ @ @ @ @ @ @ @ @ @ @ @ @ @ @ @ @ @ @ @ @ ",
"@ @ @ @ @ @ @ @ @ @ @ @ @ @ @ @ @ @ @ @ @ @ @ @ @ @ @ @ @ @ @ @ @ @ @ @ @ @ @ @ @ @ @ @ @ @ @ @ @ @ @ @ @ @ @ @ @ @ @ @ ",
"@ @ @ @ @ @ @ @ @ @ @ @ @ @ @ @ @ @ @ @ @ @ @ @ @ @ @ @ @ @ @ @ @ @ @ @ @ @ @ @ @ @ @ @ @ @ @ @ @ @ @ @ @ @ @ @ @ @ @ @ ",
"@ @ @ @ @ @ @ @ @ @ @ @ @ @ @ @ @ @ @ @ @ @ @ @ @ @ @ @ @ @ @ @ @ @ @ @ @ @ @ @ @ @ @ @ @ @ @ @ @ @ @ @ @ @ @ @ @ @ @ @ ",
"@ @ @ @ @ @ @ @ @ @ @ @ @ @ @ @ @ @ @ @ @ @ @ @ @ @ @ @ @ @ @ @ @ @ @ @ @ @ @ @ @ @ @ @ @ @ @ @ @ @ @ @ @ @ @ @ @ @ @ @ ",
"@ @ @ @ @ @ @ @ @ @ @ @ @ @ @ @ @ @ @ @ @ @ @ @ @ @ @ @ @ @ @ @ @ @ @ @ @ @ @ @ @ @ @ @ @ @ @ @ @ @ @ @ @ @ @ @ @ @ @ @ ",
"@ @ @ @ @ @ @ @ @ @ @ @ @ @ @ @ @ @ @ @ @ @ @ @ @ @ @ @ @ @ @ @ @ @ @ @ @ @ @ @ @ @ @ @ @ @ @ @ @ @ @ @ @ @ @ @ @ @ @ @ ",
"@ @ @ @ @ @ @ @ @ @ @ @ @ @ @ @ @ @ @ @ @ @ @ @ @ @ @ @ @ @ @ @ @ @ @ @ @ @ @ @ @ @ @ @ @ @ @ @ @ @ @ @ @ @ @ @ @ @ @ @ ",
"@ @ @ @ @ @ @ @ @ @ @ @ @ @ @ O + X @ @ @ @ @ @ @ @ @ @ @ @ @ @ @ @ @ @ @ @ @ @ @ @ @ @ @ @ @ @ @ @ @ @ @ @ @ @ @ @ @ @ ",
"@ @ @ @ @ @ @ @ @ @ @ @ @ @ o r X X @ @ @ @ @ @ @ @ @ @ @ @ @ @ @ @ @ @ @ @ @ @ @ @ @ @ @ @ @ @ @ @ @ @ @ @ @ @ @ @ @ @ ",
"@ @ @ @ @ @ @ @ @ @ @ @ @ @ @ X @ @ @ @ @ @ @ @ @ @ @ @ @ @ @ @ @ @ @ @ @ @ @ @ @ @ @ @ @ @ @ @ @ @ @ @ @ @ @ @ @ @ @ @ ",
"@ @ @ @ @ @ @ @ @ @ @ @ @ @ @ @ @ @ @ X o $ @ @ @ @ @ @ @ @ @ @ @ @ @ @ @ @ @ @ @ @ @ @ @ @ @ @ @ @ @ @ @ @ @ @ @ @ @ @ ",
"@ @ @ @ @ @ @ @ @ @ @ @ @ @ @ @ @ X o e 3 o @ @ @ @ @ @ @ @ @ @ @ @ @ @ @ @ @ @ @ @ @ @ @ @ @ @ @ @ @ @ @ @ @ @ @ @ @ @ ",
"@ @ @ @ @ @ @ @ @ @ @ @ @ @ @ @ @ X e X @ @ @ @ @ @ @ @ @ @ @ @ @ @ @ @ @ @ @ @ @ @ @ @ @ @ @ @ @ @ @ @ @ @ @ @ @ @ @ @ ",
"@ @ @ @ @ @ @ @ @ @ @ @ $ q % @ @ X o @ @ @ @ @ @ @ @ @ @ @ @ @ @ @ @ @ @ @ @ @ @ @ @ @ @ @ @ @ @ @ @ @ @ @ @ @ @ @ @ @ ",
"@ @ @ @ @ @ @ @ @ @ @ @ o b 3.i @ @ @ @ @ @ @ @ @ @ @ @ @ @ @ @ @ @ 6 Z $ @ @ @ @ @ @ @ @ @ @ @ @ @ @ @ @ @ @ @ @ @ @ @ ",
"@ @ @ @ @ @ @ @ @ @ @ @ + $ b 7.@ @ @ @ @ @ @ @ @ $ 3 r X @ @ @ @ 6 l.l.k.& @ @ @ @ @ @ @ @ @ @ @ @ @ @ @ @ @ @ @ @ @ @ ",
"@ @ @ @ @ @ @ @ @ @ @ + o @ l 7.+ @ i n 2.b o $ n 2.3.<.2.3 @ @ @ l.l.,.,.r.@ @ @ @ @ @ @ @ @ @ @ @ @ @ @ @ @ @ @ @ @ @ ",
"@ @ @ @ @ @ @ @ @ @ X r @ o + 2.q x 7.1.l 1.t r 3.3.3.6.6.} + @ 6 k.,.V.' X.@ @ @ @ @ @ @ @ @ @ @ @ @ @ @ @ @ @ @ @ @ @ ",
"@ @ @ @ @ @ @ @ @ @ X @ X e o x n m } q o } 2.n 6.3.2.6.2.3.} 3 t.k.r.T.v.7 s @ @ @ @ @ @ @ @ @ @ @ @ @ @ @ @ @ @ @ @ @ ",
"@ @ @ @ @ @ @ @ @ @ @ @ X + X o z l + @ @ x 6.1.3.6.6.x l C v O #.k.F K.H.  P @ @ @ @ @ @ @ @ @ @ @ @ @ @ @ @ @ @ @ @ @ ",
"@ @ @ @ @ @ @ @ @ @ @ @ X o @ @ X @ @ @ @ 3 2.6.6.6.1.B A E t b x u.w.a.1 # I.# @ @ @ @ @ @ @ @ @ @ @ @ @ @ @ @ @ @ @ @ ",
"@ @ @ @ @ @ @ @ @ @ @ @ @ @ @ @ @ @ @ @ @ + <.2.3.6.h ! B g H f ; t 0.l.| { (.# @ @ @ @ @ @ @ @ @ @ @ @ @ @ @ @ @ @ @ @ ",
"@ @ @ @ @ @ @ @ @ @ @ @ @ @ @ @ @ @ @ @ X + n 2.6.4.f d } 1.I * * - e /.F.G./.X @ @ @ @ @ @ @ @ @ @ @ @ @ @ @ @ @ @ @ @ ",
"@ @ @ @ @ @ @ @ @ @ @ @ @ @ @ @ @ @ @ @ @ o t 8.3.Q , : f I = = > * e E.Y.U.K.0 @ @ @ @ @ @ @ @ @ @ @ @ @ @ @ @ @ @ @ @ ",
"@ @ @ @ @ @ @ @ @ @ @ @ @ @ @ @ @ @ @ @ @ @ t 7.4.4.1.Y y = g c.U . y Q f.Q.] ,.G @ @ @ @ @ @ @ @ @ @ @ @ @ @ @ @ @ @ @ ",
"@ @ @ @ @ @ @ @ @ @ @ @ @ @ @ @ @ @ @ @ @ @ 3 7.v v b 8.u c 5._ p - > - p._.#.@.r.Z @ @ @ @ @ @ @ @ @ @ @ @ @ @ @ @ @ @ ",
"@ @ @ @ @ @ @ @ @ @ @ @ @ @ @ @ @ @ @ @ @ @ o 2.w j l <.6.6.6.3.5.z N i.x.^.s.D +.&.$ @ @ @ @ @ @ @ @ @ @ @ @ @ @ @ @ @ ",
"@ @ @ @ @ @ @ @ @ @ @ @ @ @ @ @ @ @ @ @ @ @ @ + + 3 3 8 j } 6.7.2.V +.~.e.a = > h z.%.& @ @ @ @ @ @ @ @ @ @ @ @ @ @ @ @ ",
"@ @ @ @ @ @ @ @ @ @ @ @ @ @ @ @ @ @ @ @ @ @ @ @ X @ $ ) t 8 <.<.9 A.J & @ @ @ X * ).9.& @ @ @ @ @ @ @ @ @ @ @ @ @ @ @ @ ",
"@ @ @ @ @ @ @ @ @ @ @ @ @ @ @ @ @ @ @ @ @ @ @ @ @ @ G B.n.R 9 k L b.@ @ @ @ @ @ @ j.!.: # @ @ @ @ @ @ @ @ @ @ @ @ @ @ @ ",
"@ @ @ @ @ @ @ @ @ @ @ @ @ @ @ @ @ @ @ @ @ @ @ @ @ 6 ,.;.q.E.m.0.b.2 @ @ @ @ @ @ $ K f.# ; > < @ @ @ @ @ @ @ @ @ @ @ @ @ ",
"@ @ @ @ @ @ @ @ @ @ @ @ @ @ @ @ @ @ @ @ @ @ @ @ @ :.,.>.;./ R.P.a @ @ @ @ @ @ @ @ +.S @ @ o = > @ @ @ @ @ @ @ @ @ @ @ @ ",
"@ @ @ @ @ @ @ @ @ @ @ @ @ @ @ @ @ @ @ @ @ @ @ @ & ,.,.r.,.0.m.R.4 @ @ @ @ @ @ @ @ & @ @ @ @ @ # @ @ @ @ @ @ @ @ @ @ @ @ ",
"@ @ @ @ @ @ @ @ @ @ @ @ @ @ @ @ @ @ @ @ @ @ @ @ G ,.r.y.=.m.S.D.4 @ @ @ @ @ @ @ @ @ @ @ @ @ @ X @ @ @ @ @ @ @ @ @ @ @ @ ",
"@ @ @ @ @ @ @ @ @ @ @ @ @ @ @ @ @ @ @ @ @ @ @ @ W t.,.*.m.^ / Z.5 @ @ @ @ @ @ @ @ @ @ @ @ @ @ @ @ @ @ @ @ @ @ @ @ @ @ @ ",
"@ @ @ @ @ @ @ @ @ @ @ @ @ @ @ @ @ @ @ @ @ @ 6 @ J h.W.` L.@.` L @ @ @ @ @ @ @ @ @ @ @ @ @ @ @ @ @ @ @ @ @ @ @ @ @ @ @ @ ",
"@ @ @ @ @ @ @ @ @ @ @ @ @ @ @ @ @ @ @ @ & F ..D D ,.d.C.N.=.g.M @ @ @ @ @ @ @ @ @ @ @ @ @ @ @ @ @ @ @ @ @ @ @ @ @ @ @ @ ",
"@ @ @ @ @ @ @ @ @ @ @ @ @ @ @ @ @ @ @ @ F +.+.F :.,.-.h.( o.Z.M @ @ @ @ @ @ @ @ @ @ @ @ @ @ @ @ @ @ @ @ @ @ @ @ @ @ @ @ ",
"@ @ @ @ @ @ @ @ @ @ @ @ @ @ @ @ @ @ @ D +.O.O.#.r.,.r.-.J.[ M.0 @ @ @ @ @ @ @ @ @ @ @ @ @ @ @ @ @ @ @ @ @ @ @ @ @ @ @ @ ",
"@ @ @ @ @ @ @ @ @ @ @ @ @ @ @ @ @ @ @ s F +.+.,.r.r.r.y.~ B.Z.T @ @ @ @ @ @ @ @ @ @ @ @ @ @ @ @ @ @ @ @ @ @ @ @ @ @ @ @ ",
"@ @ @ @ @ @ @ @ @ @ @ @ @ @ @ @ @ @ @ @ $ O.&.>.,.r.r.r.+. .` 2 @ @ @ @ @ @ @ @ @ @ @ @ @ @ @ @ @ @ @ @ @ @ @ @ @ @ @ @ ",
"@ @ @ @ @ @ @ @ @ @ @ @ @ @ @ @ @ @ @ @ @ s >.>.r.r.r.%.F D & @ @ @ @ @ @ @ @ @ @ @ @ @ @ @ @ @ @ @ @ @ @ @ @ @ @ @ @ @ ",
"@ @ @ @ @ @ @ @ @ @ @ @ @ @ @ @ @ @ @ @ @ $.>.>.>.y.$.6 5 @ @ @ @ @ @ @ @ @ @ @ @ @ @ @ @ @ @ @ @ @ @ @ @ @ @ @ @ @ @ @ ",
"@ @ @ @ @ @ @ @ @ @ @ @ @ @ @ @ @ @ @ @ Z >.>.>.>.:.$ @ @ @ @ @ @ @ @ @ @ @ @ @ @ @ @ @ @ @ @ @ @ @ @ @ @ @ @ @ @ @ @ @ ",
"@ @ @ @ @ @ @ @ @ @ @ @ @ @ @ @ @ @ @ 6 >.r.>.>.>.&.@ @ @ @ @ @ @ @ @ @ @ @ @ @ @ @ @ @ @ @ @ @ @ @ @ @ @ @ @ @ @ @ @ @ ",
"@ @ @ @ @ @ @ @ @ @ @ @ @ @ @ @ @ @ @ $ %.:.:.:.:.>.$.s @ @ @ @ @ @ @ @ @ @ @ @ @ @ @ @ @ @ @ @ @ @ @ @ @ @ @ @ @ @ @ @ "
};
