/* XPM */
static char *result[] = {
/* columns rows colors chars-per-pixel */
"60 60 218 2 ",
"   c #290916",
".  c #2D0A1A",
"X  c #320D1C",
"o  c #38151E",
"O  c #26171F",
"+  c #29072F",
"@  c #2B092D",
"#  c #2C0B23",
"$  c #340D22",
"%  c #3A0E22",
"&  c #330B2D",
"*  c #3A0B2E",
"=  c #2A1E2C",
"-  c #391324",
";  c #34142D",
":  c #3E172B",
">  c #3A1B2C",
",  c #371224",
"<  c #2C0732",
"1  c #2D0B33",
"2  c #320936",
"3  c #3D0D32",
"4  c #350939",
"5  c #3A0A3D",
"6  c #2E1436",
"7  c #2F1937",
"8  c #341235",
"9  c #34143A",
"0  c #3A1736",
"q  c #3B2130",
"w  c #3C2C3E",
"e  c #36263B",
"r  c #410E1B",
"t  c #43271E",
"y  c #400E2D",
"u  c #421B2D",
"i  c #410B3D",
"p  c #43133A",
"a  c #441737",
"s  c #5B1A2F",
"d  c #7B1620",
"f  c #442723",
"g  c #51212D",
"h  c #442336",
"j  c #452B39",
"k  c #572639",
"l  c #44313D",
"z  c #4C333C",
"x  c #563638",
"c  c #5B3B39",
"v  c #563437",
"b  c #483225",
"n  c #7C2230",
"m  c #643D36",
"M  c #683E36",
"N  c #603C3A",
"B  c #6A3333",
"V  c #77422F",
"C  c #724421",
"Z  c #62433C",
"A  c #674238",
"S  c #734333",
"D  c #7A4532",
"F  c #7F4834",
"G  c #73493D",
"H  c #7D513A",
"J  c #3E0A42",
"K  c #3D1342",
"L  c #3C1B41",
"P  c #2F2741",
"I  c #312640",
"U  c #322943",
"Y  c #3B2F43",
"T  c #352E49",
"R  c #3D2646",
"E  c #3A3147",
"W  c #37304B",
"Q  c #3A334C",
"!  c #3F394F",
"~  c #3B3551",
"^  c #3F3A57",
"/  c #3E3A58",
"(  c #430B45",
")  c #470B49",
"_  c #4C0C4E",
"`  c #461545",
"'  c #4B1645",
"]  c #4B134A",
"[  c #491C48",
"{  c #4E0D50",
"}  c #4F1151",
"|  c #511B53",
" . c #48254D",
".. c #453444",
"X. c #4A3444",
"o. c #41344B",
"O. c #42394E",
"+. c #4B394C",
"@. c #4D3548",
"#. c #573847",
"$. c #4D2150",
"%. c #58275A",
"&. c #433B55",
"*. c #4A3E53",
"=. c #433E5B",
"-. c #4C3855",
";. c #523953",
":. c #553358",
">. c #563D5A",
",. c #5B3D5D",
"<. c #593957",
"1. c #592E47",
"2. c #673A55",
"3. c #4B3E63",
"4. c #603562",
"5. c #5C434D",
"6. c #5A454E",
"7. c #4B4355",
"8. c #46415C",
"9. c #4A445C",
"0. c #4F495A",
"q. c #524A5D",
"w. c #564358",
"e. c #644647",
"r. c #6D4B45",
"t. c #62494B",
"y. c #724C43",
"u. c #725147",
"i. c #624A54",
"p. c #644F58",
"a. c #68585D",
"s. c #6E4C53",
"d. c #4D4961",
"f. c #4D4165",
"g. c #5E4B61",
"h. c #54446C",
"j. c #5B4669",
"k. c #574A63",
"l. c #5B5568",
"z. c #5D4C73",
"x. c #6B4C6D",
"c. c #654866",
"v. c #784D69",
"b. c #6A556D",
"n. c #625D6C",
"m. c #695766",
"M. c #7E5069",
"N. c #655976",
"B. c #735974",
"V. c #66616F",
"C. c #676474",
"Z. c #696676",
"A. c #6A6778",
"S. c #716E7C",
"D. c #776978",
"F. c #75717C",
"G. c #88161D",
"H. c #8F272E",
"J. c #972127",
"K. c #D92425",
"L. c #84482E",
"P. c #87492D",
"I. c #934E2B",
"U. c #984F29",
"Y. c #9F5328",
"T. c #995329",
"R. c #844C33",
"E. c #864B33",
"W. c #8C5132",
"Q. c #885839",
"!. c #935531",
"~. c #935A33",
"^. c #9F5D31",
"/. c #965E38",
"(. c #885C2C",
"). c #AC5725",
"_. c #A85826",
"`. c #B65D24",
"'. c #95663A",
"]. c #9C783C",
"[. c #A9632D",
"{. c #B56226",
"}. c #BC6C27",
"|. c #B26B2C",
" X c #B56626",
".X c #BA762B",
"XX c #A36232",
"oX c #A66138",
"OX c #AE7730",
"+X c #B47230",
"@X c #C26C24",
"#X c #C86D23",
"$X c #CA7424",
"%X c #C97928",
"&X c #845841",
"*X c #965A55",
"=X c #866557",
"-X c #B1754F",
";X c #84516B",
":X c #875A6D",
">X c #895778",
",X c #955E7E",
"<X c #814D68",
"1X c #8F667D",
"2X c #91677C",
"3X c #A27E63",
"4X c #C78B2F",
"5X c #B38A56",
"6X c #B59055",
"7X c #767381",
"8X c #756985",
"9X c #8E5F86",
"0X c #935C82",
"qX c #816C82",
"wX c #80768C",
"eX c #956085",
"rX c #9D8590",
"tX c None",
/* pixels */
"tXtXtXtXtXtXtXtXtXtXtXtXtXtXtXtXtXtXtXtXtXtXtXtXtXtXtXtXtXtXtXtXtXtXtXtXtXtXtXtXtXtXtXtXtXtXtXtXtXtXtXtXtXtXtXtXtXtXtXtX",
"tXtXtXtXtXtXtXtXtXtXtXtXtXtXtXtXtXtXtXtXtXtXtXtXtXtXtXtXtXtXtXtXtXtXtXtXtXtXtXtXtXtXtXtXtXtXtXtXtXtXtXtXtXtXtXtXtXtXtXtX",
"tXtXtXtXtXtXtXtXtXtXtXtXtXtXtXtXtXtXtXtXtXtXtXtXtXtXtXtXtXtXtXtXtXtXtXtXtXtXtXtXtXtXtXtXtXtXtXtXtXtXtXtXtXtXtXtXtXtXtXtX",
"tXtXtXtXtXtXtXtXtXtXtXtXtXtXtXtXtXtXtXtXtXtXtXtXtXtXtXtXtXtXtXtXtXtXtXtXtXtXtXtXtXtXtXtXtXtXtXtXtXtXtXtXtXtXtXtXtXtXtXtX",
"tXtXtXtXtXtXtXtXtXtXtXtXtXtXtXtXtXtXtXtXtXtXtXtXtXtXtXtXtXtXtXtXtXtXtXtXtXtXtXtXtXtXtXtXtXtXtXtXtXtXtXtXtXtXtXtXtXtXtXtX",
"tXtXtXtXtXtXtXtXtXtXtXtXtXtXtXtXtXtXtXtXtXtXtXtXtXtXtXtXtXtXtXtXtXtXtXtXtXtXtXtXtXtXtXtXtXtXtXtXtXtXtXtXtXtXtXtXtXtXtXtX",
"tXtXtXtXtXtXtXtXtXtXtXtXtXtXtXtXtXtXtXtXtXtXtXtXtXtXtXtXtXtXtXtXtXtXtXtXtXtXtXtXtXtXtXtXtXtXtXtXtXtXtXtXtXtXtXtXtXtXtXtX",
"tXtXtXtXtXtXtXtXtXtXtXtXtXtXtXtXtXtXtXtXtXtXtXtXtXtXtXtXtXtXtXtXtXtXtXtXtXtXtXtXtXtXtXtXtXtXtXtXtXtXtXtXtXtXtXtXtXtXtXtX",
"tXtXtXtXtXtXtXtXtXtXtXtXtXtXtXtXtXtXtXtXtXtXtXtXtXtXtXtXtXtXtXtXtXtXtXtXtXtXtXtXtXtXtXtXtXtXtXtXtXtXtXtXtXtXtXtXtXtXtXtX",
"tXtXtXtXtXtXtXtXtXtXtXtXtXtXtXtXtXtXtXtXtXtXtXtXtXtXtXtXtXtXtXtXtXtXtXtXtXtXtXtXtXtXtXtXtXtXtXtXtXtXtXtXtXtXtXtXtXtXtXtX",
"tXtXtXtXtXtXtXtXtXtXtXtXtXtXtXtXtXtXtXtXtXtXtXtXtXtXtXtXtXtXtXtXtXtXtXtXtXtXtXtXtXtXtXtXtXtXtXtXtXtXtXtXtXtXtXtXtXtXtXtX",
"tXtXtXtXtXtXtXtXtXtXtXtXtXtXtXtXtXtXtXtXtXtXtXtXtXtXtXtXtXtXtXtXtXtXtXtXtXtXtXtXtXtXtXtXtXtXtXtXtXtXtXtXtXtXtXtXtXtXtXtX",
"tXtXtXtXtXtXtXtXtXtXtXtXtXtXtXtX0 1 9 q.tXtXtXtXtXtXtXtXtXtXtXtXtXtXtXtXtXtXtXtXtXtXtXtXtXtXtXtXtXtXtXtXtXtXtXtXtXtXtXtX",
"tXtXtXtXtXtXtXtXtXtXtXtXtXtXtX-.1 1 >.tXtXtXtXtXtXtXtXtXtXtXtXtXtXtXtXtXtXtXtXtXtXtXtXtXtXtXtXtXtXtXtXtXtXtXtXtXtXtXtXtX",
"tXtXtXtXtXtXtXtXtXtXtXtXtXtXtXtX;.w.tXtXtXtXtXtXtXtXtXtXtXtXtXtXtXtXtXtXtXtXtXtXtXtXtXtXtXtXtXtXtXtXtXtXtXtXtXtXtXtXtXtX",
"tXtXtXtXtXtXtXtXtXtXtXtXtXtXtXtXtXtXtXtXtXtXtXtXtXtXtXtXtXtXtXtXtXtXtXtXtXtXtXtXtXtXtXtXtXtXtXtXtXtXtXtXtXtXtXtXtXtXtXtX",
"tXtXtXtXtXtXtXtXtXtXtXtXtXtXtXtXtXtXtXtXtXtXtXtXtXtXtXtXtXtXtXtXtXtXtXtXwXN.N.8XtXtXtXtXtXtXtXtXtXtXtXtXtXtXtXtXtXtXtXtX",
"tXtXtXtXtXtXtXtXtXtXtXtXtXtXtXtXtXtXtXtXtXtXtXb.[ ` [ x.tXtXtXtXtXtXtXwXz.h.3.3.z.tXtXtXtXtXtXtXtXtXtXtXtXtXtXtXtXtXtXtX",
"tXtXtXtXtXtXtXtXtXtXtXtXB.4.] } } %.B.tXtXB.L 2 ) { { { %.tXtXtXtXtXtXN.h.=.=.&.=.n.tXtXtXtXtXtXtXtXtXtXtXtXtXtXtXtXtXtX",
"tXtXtXtXtX%.tXtXtXtXtX,.` $.| ] _ ) J %. .4 J 4 J { { { { | tXtXtXtXtXz.3.-.y.R.l l.tXtXtXtXtXtXtXtXtXtXtXtXtXtXtXtXtXtX",
"tXtXtXtXtX4.4.tXtXtXx.:.c.tXtX,.K ) ) J < < ) ) ) { _ { { ( L tXtXtX8Xh.&.r.`._.f 7.tXtXtXtXtXtXtXtXtXtXtXtXtXtXtXtXtXtX",
"tXtXtXtXtXtXc.x.tXx.c.tXtXtXtXtXL ( _ J < 4 ) { _ _ { _ { J 1 9 :.D.j.3.&.H #X_.f e F.tXtXtXtXtXtXtXtXtXtXtXtXtXtXtXtXtX",
"tXtXtXtXtXtXtX,. .x.tXtXtXtXtXtXL 4 ) J < J ) { { _ { _ ` 8 < + 1 K K T Q Z  X Xt = V.tXtXtXtXtXtXtXtXtXtXtXtXtXtXtXtXtX",
"tXtXtXtXtXtXtXtXD.tXtXtXtXtXtXtXb.K ) J < ( { { _ _ _ ` h > + + < + < 6 e l S C O = a.tXtXtXtXtXtXtXtXtXtXtXtXtXtXtXtXtX",
"tXtXtXtXtXtXtXtXtXtXb.tXtXtXtXtXtX9 ( 5 @ ( { { ( p h h h q 8 + 4 5 5 2 J <.<.= = b ].6XtXtXtXtXtXtXtXtXtXtXtXtXtXtXtXtX",
"tXtXtXtXtXtXtXtXtXc.tXtXtXtXtXtXtX2 4 ( 5 _ _ _ i > h 8 ; q > ; * * * 5 J  .-.T w (.4X5XtXtXtXtXtXtXtXtXtXtXtXtXtXtXtXtX",
"tXtXtXtXtXtXtXtX:.tXtXtXtXtXtXtXtX8 4 ) ) { { _ p - a 2 + 0 > o .     & 5 0 X.i.t.'.4X5XtXtXtXtXtXtXtXtXtXtXtXtXtXtXtXtX",
"tXtXtXtXtXtXtXtX| tXtXtXtXtXtXtXtX2 4 { _ { { ' u o $ @ 2 3 % .       . i ( M .XOX.X%X5XtXtXtXtXtXtXtXtXtXtXtXtXtXtXtXtX",
"tXtXtXtXtXtXtXtX$.tXtXtXtXtXtXtXtXw.J _ { _ ] h % % X % y * X     X   . 3 s T.$X}.}.|.=XtXtXtXtXtXtXtXtXtXtXtXtXtXtXtXtX",
"tXtXtXtXtXtXtXtXqXtXtXtXtXtXtXtXtXtX2 ( _ { ' ' i y % % % X X s G.d r   $ k V F W. X~.+.Z.tXtXtXtXtXtXtXtXtXtXtXtXtXtXtX",
"tXtXtXtXtXtXtXtXtXtXtXtXtXtXtXtXtXtX9 J { _ ' _ _ ( * % X . u H.K.J.o   . : w <.M.*XZ T 8.Z.tXtXtXtXtXtXtXtXtXtXtXtXtXtX",
"tXtXtXtXtXtXtXtXtXtXtXtXtXtXtXtXtXtXb.4 _ { _ _ _ ( 5 * $ i ] B n g . . . $ , 1.eX>Xo.U ~ 8.A.tXtXtXtXtXtXtXtXtXtXtXtXtX",
"tXtXtXtXtXtXtXtXtXtXtXtXtXtXtXtXtXtXtXR 5 ) ) _ ) < 2 ( ) _ _ ] ' a & 2 # ; u k >XeXc.R U Q =.A.tXtXtXtXtXtXtXtXtXtXtXtX",
"tXtXtXtXtXtXtXtXtXtXtXtXtXtXtXtXtXtXtXtXL 2 2 ( 5 + < J ) { _ { _ ( 2 1 7 @.s.<X>XeX2.> e U ~ =.Z.tXtXtXtXtXtXtXtXtXtXtX",
"tXtXtXtXtXtXtXtXtXtXtXtXtXtXtXtXtXtXtXtXtXg.g.>.1 + < J ( ) { { _ _ 2 6 e w.:X2XrXtX5.o , 0 >.j.8.A.tXtXtXtXtXtXtXtXtXtX",
"tXtXtXtXtXtXtXtXtXtXtXtXtXtXtXtXtXtXtXtXtXtXtXtXB.-.1 5 ) ) ) { _ 5 ; B Z m.tXtXtXtXtXm.z u >X9Xc.9.tXtXtXtXtXtXtXtXtXtX",
"tXtXtXtXtXtXtXtXtXtXtXtXtXtXtXtXtXtXtXtXtXtXtXtXtXtXtX .4 5 ) ) ( 1 h T.A l.tXtXtXtXtXtXtXD.2X,X;X@.tXtXtXtXtXtXtXtXtXtX",
"tXtXtXtXtXtXtXtXtXtXtXtXtXtXtXtXtXtXtXtXtXtXtXtXtXtXtXtXR 3 p 0 1 7 v P.E 7.tXtXtXtXtXtXtXtX:X<X;X1.@.tXtXtXtXtXtXtXtXtX",
"tXtXtXtXtXtXtXtXtXtXtXtXtXtXtXtXtXtXtXtXtXtXtXtXtXtXtXZ.+.M P.D w w P.L.w U 7.l.tXtXtXtXtXtXw.;.v.#.w #.i.tXtXtXtXtXtXtX",
"tXtXtXtXtXtXtXtXtXtXtXtXtXtXtXtXtXtXtXtXtXtXtXtXtXtXZ.8.&.5.G _.H X.S x c l e U q.tXtXtXtXtXO.U -.q.tXp.#.v i.tXtXtXtXtX",
"tXtXtXtXtXtXtXtXtXtXtXtXtXtXtXtXtXtXtXtXtXtXtXtXtXZ.8.^ / / &.r.^.R.S R.|.~.l e T q.tXtXtXtX&.W d.tXtXtXtXp.5.j a.tXtXtX",
"tXtXtXtXtXtXtXtXtXtXtXtXtXtXtXtXtXtXtXtXtXtXtXtXA.=.^ / / &./ *.~.@X.X$X%X}.A P e U q.tXtXtXtXF.tXtXtXtXtXtXtXz h tXtXtX",
"tXtXtXtXtXtXtXtXtXtXtXtXtXtXtXtXtXtXtXtXtXtXtXD.=.&./ ^ ^ &.7.r.|.$X%X%X%X}.m T W U U 0.tXtXtXtXtXtXtXtXtXtXtXtXtXtXtXtX",
"tXtXtXtXtXtXtXtXtXtXtXtXtXtXtXtXtXtXtXtXtXtX3X&X7./ / / &.t./.[.{.{.@X#X X!...T T U U U k.tXtXtXtXtXtXtXtXtXtXtXtXtXtXtX",
"tXtXtXtXtXtXtXtXtXtXtXtXtXtXtXtXtXtXtXtXtXZ.u.^.Q.5.*.&.t.XX{.Y.S A [._.R.l T e U P P P ! tXtXtXtXtXtXtXtXtXtXtXtXtXtXtX",
"tXtXtXtXtXtXtXtXtXtXtXtXtXtXtXtXtXtXtXtXZ.=.=.e.~.'.u.t.XX{.F z E l (.c l U T T T U U l t.tXtXtXtXtXtXtXtXtXtXtXtXtXtXtX",
"tXtXtXtXtXtXtXtXtXtXtXtXtXtXtXtXtXtXtXZ.8.^ ^ &.6.u.Q.oX XF ! U W X.W...T ~ Q T T l m L.oXtXtXtXtXtXtXtXtXtXtXtXtXtXtXtX",
"tXtXtXtXtXtXtXtXtXtXtXtXtXtXtXtX7Xd.8.=.^ ^ / / / &.u.[.R.+.W U U l E.X.W Q Y w m F _.`.-XtXtXtXtXtXtXtXtXtXtXtXtXtXtXtX",
"tXtXtXtXtXtXtXtXtXtXtX7XC.^ 8.=.=.^ ^ ^ ^ ^ ^ ^ / / ! c S Z +.7.! #.E.z w x F P.).`.U.G tXtXtXtXtXtXtXtXtXtXtXtXtXtXtXtX",
"tXtXtXtXtXtXtXtXtXS.9./ ^ ^ ^ ^ / ^ ^ =.^ ~ Q W T T e w c A S R.W.!._.I.I.Y.`.`.).I.v O.tXtXtXtXtXtXtXtXtXtXtXtXtXtXtXtX",
"tXtXtXtXtXtXtXtXS.f.^ / ^ ^ ^ ^ ^ ^ ^ ^ ^ ~ W P e P U U U U x D _.Y.Y.Y._.Y._.I.m z E C.tXtXtXtXtXtXtXtXtXtXtXtXtXtXtXtX",
"tXtXtXtXtXtXtXtX8.^ ^ &.^ ^ ^ ^ ^ ^ ^ ^ ^ Q W W T T T U U e U w j z z z j z z j Y E Z.tXtXtXtXtXtXtXtXtXtXtXtXtXtXtXtXtX",
"tXtXtXtXtXtXtXtX^ / ^ / ^ ^ ^ ^ ^ ~ ^ ^ Q T T W W / ~ W T T P P P P P P e P P P U 0.tXtXtXtXtXtXtXtXtXtXtXtXtXtXtXtXtXtX",
"tXtXtXtXtXtXtXtX/ / ^ ^ ^ ^ ^ ^ W T Q / ^ W U U T ~ W Q W W P e P e U U P I P U O.tXtXtXtXtXtXtXtXtXtXtXtXtXtXtXtXtXtXtX",
"tXtXtXtXtXtXtXtXl.d.9.9.8.Q W W U U T T Q Q W T P P T W ~ W W T P P U P P e U ! tXtXtXtXtXtXtXtXtXtXtXtXtXtXtXtXtXtXtXtX",
"tXtXtXtXtXtXtXtXtXtXtXtXtXn.O.&.! U P e U T T T e T W ~ ~ W T T U U U P P T 7.tXtXtXtXtXtXtXtXtXtXtXtXtXtXtXtXtXtXtXtXtX",
"tXtXtXtXtXtXtXtXtXtXtXtXtXtXtXtXtXq.7.! e P P U P U W T U U P P P P P W 0.V.tXtXtXtXtXtXtXtXtXtXtXtXtXtXtXtXtXtXtXtXtXtX",
"tXtXtXtXtXtXtXtXtXtXtXtXtXtXtXtXtXtXtXtX^ e U P U e P P U U U e U e Q l.tXtXtXtXtXtXtXtXtXtXtXtXtXtXtXtXtXtXtXtXtXtXtXtX",
"tXtXtXtXtXtXtXtXtXtXtXtXtXtXtXtXtXtXtXtXtXl.Q e U P P U P P e U 7.V.F.tXtXtXtXtXtXtXtXtXtXtXtXtXtXtXtXtXtXtXtXtXtXtXtXtX",
"tXtXtXtXtXtXtXtXtXtXtXtXtXtXtXtXtXtXtXtXtXtXtXS.l.U U e P e 8.F.tXtXtXtXtXtXtXtXtXtXtXtXtXtXtXtXtXtXtXtXtXtXtXtXtXtXtXtX"
};
