/* XPM */
static char *result[] = {
/* columns rows colors chars-per-pixel */
"60 60 65 1 ",
"  c #0A090E",
". c #0E0C11",
"X c #120D12",
"o c #141116",
"O c #181217",
"+ c #161319",
"@ c #1A161B",
"# c #1D191E",
"$ c #1F1B20",
"% c #221E23",
"& c #252126",
"* c #272328",
"= c #2A252B",
"- c #2E292F",
"; c #2F2930",
": c #332C33",
"> c #373137",
", c #373138",
"< c #3B343B",
"1 c #3F383F",
"2 c #3F3840",
"3 c #433B44",
"4 c #473F48",
"5 c #464049",
"6 c #4B434C",
"7 c #4F4650",
"8 c #4F4952",
"9 c #504751",
"0 c #534A54",
"q c #554F5A",
"w c #57525D",
"e c #5A525D",
"r c #5D5661",
"t c #5E5963",
"y c #615A64",
"u c #635E6B",
"i c #65616C",
"p c #68626D",
"a c #676471",
"s c #6D6672",
"d c #6D6874",
"f c #6F6D7B",
"g c #726B76",
"h c #746E7A",
"j c #757382",
"k c #7A7582",
"l c #7D7987",
"z c #7D7B8C",
"x c #847E8B",
"c c #87818E",
"v c #828193",
"b c #8A8593",
"n c #8E8897",
"m c #888799",
"M c #8E8C9D",
"N c #928D9B",
"B c #9491A2",
"V c #9895A4",
"C c #9A97A8",
"Z c #9E9AAA",
"A c #A09DAD",
"S c #A6A2B2",
"D c #A9A5B5",
"F c #AFABBC",
"G c #B6B2C2",
/* pixels */
"<qhvvvjt0tzvvzvvzzvzuwjABvxfq<<wfzzt42225azvzvvvBDlrkSGFBjq<",
"<rzBBBma0uvMBBMmmBBBd0pbBBBxr<<qjvzjr420ajzvmNBBBMs0pbNNBlr<",
",tbAAZBd0ubBZACvMBACh80sbAAbt<,wjvvzjw8ammmvNCAAngq40ushnxt,",
":0hNNMbt6aNNMMvjlbMmi33qhnNh8;;qlBBBvt8umBBBNNnnke63400rkh0;",
"%,0yyye33sBxuyyyryyy4:<7eyy0<$&8bDDDBa22pnSSVguye0434900e0,%",
"$:4qqq7>:ekue0000000<=:48005;$$5sbbclq:2ehxckyq061::370004:$",
"#:30006>:4re00000009<=;26005;##>0yytw2=20eyyy0093=%=<60904;+",
"#-30073:%<9000000009<==<5003;##;40006:&,766600073%@@:66694;$",
"#-3985<-=<7000000007<==<3783;##;30006-$;443700971%OO;44363;$",
"#=<333,-=<9000000007<*;,333<=$#:30063*#=31360094,%++-44244;$",
"#*:::::**<9000000000<**::>:;*##;6003,*+%:<149741:%X+-44243;$",
"#######$%<90000000072%#$$#$####;3633,%Xo$:<3333<;%o+;44343;$",
"#@XX.X.o%<6000000000<%+....o+##;362<<*X O%--:::-*#oo=2323<=$",
"#OX.  .o%:3600000009<*X.   .+##;36332=.  O@@OOO@+X..*22,:-%$",
"#@X.   X$;<690000009<%o    X+##-3422<=X            .$,,,%%$$",
"#@oX   o$;2690000009<%o X XX@##=,2<>*@             .*,2,=%$+",
"$OOX.  X$-1600000009,%O..XXOO@@=:<<;%+             .%>:-&$##",
"$OXXX..O$-1490000009<%o..XXO@%@=>1<;$o       XX    X%:-*&$##",
"#OXXX .X$-14900000092%o .XXXO@%=<2<;$o       XXX   .%:=%==&#",
"$@OXX.XX$-1600000009<%o..XXX@%@;35<=$o      XXXX   X%:=&<<-#",
"#@OXX XX$-1490000009<%o.XXOX@@@:362;$o    .XXXXXX  X#*&&11:#",
"#OOOX. O$-16000009903%X.XXXO@%@:362;$o    XXXXXXXX .O$&=11:#",
"$OXXX..O$-1490009499,%o. XXOO@%;362;$o   .XXXXXXOXX X#=<1<-@",
"#OOXX. O$-3490004444<%o.XXXO@%@;252;%o.  .XXXXXOXX..O%>63>*#",
"#OXXX .X$-1670004346<%X.XXXOO##:36<:-#.  .XXXXXXXX. O%<63>*#",
"$@OOXX.O$-1479094334,%O. XXOO##;363<:%. .XXOOXOOXX .O$<63>*#",
"#@OXX .X$-<146943113:%X.XXXXO##:363<,%.  XO#OOOOOO .O%<63>*#",
"#@OOOOXX$-<1344311<<-%X. XXOO##-331<:*...OO#@%#@OOX.X%<93>*#",
"#@@%=#XO$-<<1331<<<<=%O.XXOOO##-<3<<,%.  o######@+o.X%363>*#",
"##%*>%XX@*:<<<<<<<<<=#X.XOO#$##*:<<<;$X..XO#####$$o.X%<63>*#",
"##%*,%X X@*:<<<<<<1<*O  XO==&##*:<<;*$+.  X####%$@o.X%<73>*#",
"##%*:*X .O%-<<1<<<<<&X XO%;;*##*:2<;%$#+o+####%%%$Oo%*<41>*#",
"##%%:&o  +$:<<<<<<<>&o  +&:-*##*:<<=$#$##&*&$$*-=$##&:<11>&#",
"##%=,*.  o%;<2<<<<>:%. .#*>>&+#*:,;*$&&&%;>;**->:&#$-><<<>*#",
"###=,$. .o$;<<<2<<;&+. o&>>-$.@*->*$&*-=&:>>:<<>-$$$=><<<:*#",
"XO%%,$o  +$:,<<<<<;%o  .&><-#.@*:-&&*>>=%;>11<<>:%#$&-><<>*#",
".X#*:%o  +#><<<1<>>%+  o&><=#.@*:;&*>>>=%:><<<<:-$##$&-><>*#",
".X#*,&.  +$;,<<<<>;%+  .&>;&+o&;>;&=><>-&-><>--=*$$##$&->:*#",
" .#*:%o  +$-><,,>>-#o  .&:=#++*>>;&=><>=%:<<:*%%$$$$$$#&::=%",
" .#*,%o  +#&*=====*#+  o&>*#.o&->;&=><>-&-<<>%####&=&$#%->:-",
" o#=>&o  +#####$#$##o  .&:*@o.@*::&=>1>=%:>>:&####=:=%#%;>>>",
" @&-*$+X o##########o  X&>=@..@*--&=><>=&-:-&$$##%=:=%#%;>-=",
" @=;%#Oo.o#########Oo  o&:=@..@*:-&=><>=%--*$@O@@$=:-$#%;>=#",
" #-;%##X.+#########OX  o*:*@o.+&::&=><>=%%%$@oXXo#=:=%#%;;*#",
" @=-%#@o.X@O######Oo.  +&-&@..+&-:%=>>:&##@Oo.  X#=>=$#%:;=#",
" +=>%##o..OOO#####Oo. o+$%%+. .$-:&=>-&%#oXX.   .#=:-%#%;:*#",
" +&=$##X..XOoO+###Oo. o+@%$+o  +&=%=>=%@o.      X#*=&$#$==&#",
" +#%$#@o..XXX o+OOoo .o@%@$+.  o#%$=:=#+.  ..   X@$%$$##%%$#",
".+@####oXXXXXX XXXXXX XO###@.  .@##&=*#X    X    O@@##@o+###",
"@@@####+XXXXXX  XXXXX X####O.  o@##$$$@X   XX     OO##o.+###",
"++o+##ooOXXXX   XXXXX OO###+o  .+@+@@$@o   XXX    XO@@o.+###",
"   ++oX XXXXX    XXXXXO####+.  .o+.o#$@X    XXX     o+X.++##",
"   .@o.  XXX     XXX  XO##+.    X. o@#@X   XXX.     .XX o@+o",
"   o+o   XXX.    XXX XO###o        o@#+X    XXX        .++o ",
"   .#o     X.   XXXX..OO#O         o@+o.    XO.         ++  ",
"   .+o     X.     XX..OO+o         o+o     XXX.        .o.  ",
"            X    XXXXX XXX         .+o      .X..            ",
"            .    XXXXX             .+.       ..             ",
"            .   XXXXX                        X              ",
"           .     XXXX                        X              "
};
