/* XPM */
static char *result[] = {
/* columns rows colors chars-per-pixel */
"48 72 69 1 ",
"  c #2A3036",
". c #2B3037",
"X c #2B3038",
"o c #2C3138",
"O c #2C3139",
"+ c #2E333A",
"@ c #2E333B",
"# c #2F353D",
"$ c #30363D",
"% c #30363E",
"& c #31363E",
"* c #30373E",
"= c #31373E",
"- c #31373F",
"; c #32363E",
": c #32363F",
"> c #32373F",
", c #33373F",
"< c #333740",
"1 c #333840",
"2 c #343A41",
"3 c #343942",
"4 c #353A43",
"5 c #353B44",
"6 c #353C44",
"7 c #363C44",
"8 c #363C45",
"9 c #373D46",
"0 c #383E47",
"q c #383F47",
"w c #393F48",
"e c #3A3F48",
"r c #3B4049",
"t c #3B414A",
"y c #3B424C",
"u c #3C424C",
"i c #3C434C",
"p c #3D434D",
"a c #3D444D",
"s c #3E444D",
"d c #3E454F",
"f c #3F454F",
"g c #3F464F",
"h c #3E4650",
"j c #404751",
"k c #414852",
"l c #414853",
"z c #434A54",
"x c #434B55",
"c c #444B56",
"v c #454C57",
"b c #454D58",
"n c #464D58",
"m c #464E59",
"M c #474E59",
"N c #464E5A",
"B c #474E5A",
"V c #484F5A",
"C c #48505A",
"Z c #48505B",
"A c #48505C",
"S c #49515D",
"D c #4A525D",
"F c #4C535F",
"G c #4B5460",
"H c #4C5460",
"J c #4D5460",
"K c #4C5461",
"L c None",
/* pixels */
"LLLLLLLLLLLLHHLLHHLLL. L. L. L...L;,LLLLLLLLLLLL",
"LLLLLLLLLLLLHHLLuyLLL. L. L. L..@zr,LLLLLLLLLLLL",
"LLLLLLLLLLLLHHLL XLLL$%L. L. L$+&mf,LLLLLLLLLLLL",
"LLLLLLLLLLLLHHLL O&LLMNL. L. LMw&mf,LLLLLLLLLLLL",
"LLLLLLLLLLLLHxLL o&-eSHLyuLylGHcid0,LLLLLLLLLLLL",
"LLLLLLLLLLLLJs>L*%>2wvcLFHLHDVVVvw2<LLLLLLLLLLLL",
"LLLLLLLLLLLLL6:>anLcvw29AHLHk777wvcLLLLLLLLLLLLL",
"LLLLLLLLLLLLLhp3fHLLZjfkDHLg0>>-4tuLLLLLLLLLLLLL",
"LLLLLLLLLLLLLHV7pVLLLHHHKLL82>:;L. LLLLLLLLLLLLL",
"LLLLLLLLLLLLLHV738LLLHHKLLLVcL>;L. LLLLLLLLLLLLL",
"LLLLLLLLLLLLLHDk0,LLLgbHLLLHHL,;LyuLLLLLLLLLLLLL",
"LLLLLLLLLLLLLHHKs,LLL,fHLLLMNL<LLHHLLLLLLLLLLLLL",
"LLLLLLLLLLLLLHKL6,LLL,fHLLL$%LLLLHHLLLLLLLLLLLLL",
"LLLLLLLLLLLLLhgL;,LLL,rHHLLLLLLLLHHLLLLLLLLLLLLL",
"LLLLLLLLLLLLL;,L;,LLL,;LHZLLLLLLLVCLLLLLLLLLLLLL",
"LLLLLLLLLLLLL;,L;,LLL,;LHj,,,,,LL87LLLLLLLLLLLLL",
"LLLLLLLLLLLLLhgL;,LLL,;LLq=ufffr>:;LLLLLLLLLLLLL",
"LLLLLLLLLLLLLHHLL<LLL,;LL #nHHHg157LLLLLLLLLLLLL",
"LLLLLLLLLLLLLHHLLLLLL,;LL oLLLLLLBCLLLLLLLLLLLLL",
"LLLLLLLLLLLLLHHLLLLLLghLL .LLLLLLHHLLLLLLLLLLLLL",
"LLLLLLLLLLLLLCVLLLLLLHHLLL.LLLLLLJLLLLLLLLLLLLLL",
"LLLLLLLLLLLLL78LLLLLLHHLLLLLLLLLLLLLLLLLLLLLLLLL",
"LLLLLLLLLLLLL;,LLLLLLLLLLLLLLLLLLLLLLLLLLLLLLLLL",
"LLLLLLLLLLLLLL<LLLLLLLLLLLLLLLLLLLLLLLLLLLLLLLLL",
"LLLLLLLLLLLLLLLLLLLLLLLLLLLLLLLLLLLLLLLLLLLLLLLL",
"LLLLLLLLLLLLLLLLLLLLLLLLLLLLLLLLLLLLLLLLLLLLLLLL",
"LLLLLLLLLLLLLLLLLLLLLLLLLLLLLLLLLLLLLLLLLLLLLLLL",
"LLLLLLLLLLLLLLLLLLLLLLLLLLLLLLLLLLLLLLLLLLLLLLLL",
"LLLLLLLLLLLLLLLLLLLLLLLLLLLLLLLLLLLLLLLLLLLLLLLL",
"LLLLLLLLLLLLLLLLLLLLLLLLLLLLLLLLLLLLLLLLLLLLLLLL",
"LLLLLLLLLLLLLLLLLLLLLLLLLLLLLLLLLLLLLLLLLLLLLLLL",
"LLLLLLLLLLLLLLLLLLLLLLLLLLLLLLLLLLLLLLLLLLLLLLLL",
"LLLLLLLLLLLLLLLLLLLLLLLLLLLLLLLLLLLLLLLLLLLLLLLL",
"LLLLLLLLLLLLLLLLLLLLLLLLLLLLLLLLLLLLLLLLLLLLLLLL",
"LLLLLLLLLLLLLLLLLLLLLLLLLLLLLLLLLLLLLLLLLLLLLLLL",
"LLLLLLLLLLLLLLLLLLLLLLLLLLLLLLLLLLLLLLLLLLLLLLLL",
"LLLLLLLLLLLLLLLLLLLLLLLLLLLLLLLLLLLLLLLLLLLLLLLL",
"LLLLLLLLLLLLLLLLLLLLLLLLLLLLLLLLLLLLLLLLLLLLLLLL",
"LLLLLLLLLLLLLLLLLLLLLLLLLLLLLLLLLLLLLLLLLLLLLLLL",
"LLLLLLLLLLLLLLLLLLLLLLLLLLLLLLLLLLLLLLLLLLLLLLLL",
"LLLLLLLLLLLLLLLLLLLLLLLLLLLLLLLLLLLLLLLLLLLLLLLL",
"LLLLLLLLLLLLLLLLLLLLLLLLLLLLLLLLLLLLLLLLLLLLLLLL",
"LLLLLLLLLLLLLLLLLLLLLLLLLLLLLLLLLLLLLLLLLLLLLLLL",
"LLLLLLLLLLLLLLLLLLLLLLLLLLLLLLLLLLLLLLLLLLLLLLLL",
"LLLLLLLLLLLLLLLLLLLLLLLLLLLLLLLLLLLLLLLLLLLLLLLL",
"LLLLLLLLLLLLLLLLLLLLLLLLLLLLLLLLLLLLLLLLLLLLLLLL",
"LLLLLLLLLLLLLLLLLLLLLLLLLLLLLLLLLLLLLLLLLLLLLLLL",
"LLLLLLLLLLLLLLLLLLLLLLLLLLLLLLLLLLLLLLLLLLLLLLLL",
"LLLLLLLLLLLLLLLLLLLLLLLLLLLLLLLLLLLLLLLLLLLLLLLL",
"LLLLLLLLLLLLLLLLLLLLLLLLLLLLLLLLLLLLLLLLLLLLLLLL",
"LLLLLLLLLLLLLLLLLLLLLLLLLLLLLLLLLLLLLLLLLLLLLLLL",
"LLLLLLLLLLLLLLLLLLLLLLLLLLLLLLLLLLLLLLLLLLLLLLLL",
"LLLLLLLLLLLLLLLLLLLLLLLLLLLLLLLLLLLLLLLLLLLLLLLL",
"LLLLLLLLLLLLLLLLLLLLLLLLLLLLLLLLLLLLLLLLLLLLLLLL",
"LLLLLLLLLLLLLLLLLLLLLLLLLLLLLLLLLLLLLLLLLLLLLLLL",
"LLLLLLLLLLLLLLLLLLLLLLLLLLLLLLLLLLLLLLLLLLLLLLLL",
"LLLLLLLLLLLLLLLLLLLLLLLLLLLLLLLLLLLLLLLLLLLLLLLL",
"LLLLLLLLLLLLLLLLLLLLLLLLLLLLLLLLLLLLLLLLLLLLLLLL",
"LLLLLLLLLLLLLLLLLLLLLLLLLLLLLLLLLLLLLLLLLLLLLLLL",
"LLLLLLLLLLLLLLLLLLLLLLLLLLLLLLLLLLLLLLLLLLLLLLLL",
"LLLLLLLLLLLLLLLLLLLLLLLLLLLLLLLLLLLLLLLLLLLLLLLL",
"LLLLLLLLLLLLLLLLLLLLLLLLLLLLLLLLLLLLLLLLLLLLLLLL",
"LLLLLLLLLLLLLLLLLLLLLLLLLLLLLLLLLLLLLLLLLLLLLLLL",
"LLLLLLLLLLLLLLLLLLLLLLLLLLLLLLLLLLLLLLLLLLLLLLLL",
"LLLLLLLLLLLLLLLLLLLLLLLLLLLLLLLLLLLLLLLLLLLLLLLL",
"LLLLLLLLLLLLLLLLLLLLLLLLLLLLLLLLLLLLLLLLLLLLLLLL",
"LLLLLLLLLLLLLLLLLLLLLLLLLLLLLLLLLLLLLLLLLLLLLLLL",
"LLLLLLLLLLLLLLLLLLLLLLLLLLLLLLLLLLLLLLLLLLLLLLLL",
"LLLLLLLLLLLLLLLLLLLLLLLLLLLLLLLLLLLLLLLLLLLLLLLL",
"LLLLLLLLLLLLLLLLLLLLLLLLLLLLLLLLLLLLLLLLLLLLLLLL",
"LLLLLLLLLLLLLLLLLLLLLLLLLLLLLLLLLLLLLLLLLLLLLLLL",
"LLLLLLLLLLLLLLLLLLLLLLLLLLLLLLLLLLLLLLLLLLLLLLLL"
};
