/* XPM */
static char *result[] = {
/* columns rows colors chars-per-pixel */
"60 31 52 1 ",
"  c #0A090E",
". c #0E0C11",
"X c #110E13",
"o c #151115",
"O c #161318",
"+ c #191519",
"@ c #1E191E",
"# c #201B1F",
"$ c #1F1A20",
"% c #231E23",
"& c #262126",
"* c #282227",
"= c #272228",
"- c #2B252B",
"; c #2E282E",
": c #30292F",
"> c #2F2A30",
", c #332C33",
"< c #373037",
"1 c #383137",
"2 c #373138",
"3 c #3B353C",
"4 c #3F383F",
"5 c #3F3940",
"6 c #433C44",
"7 c #473F48",
"8 c #483F48",
"9 c #47424A",
"0 c #4A424A",
"q c #4D4850",
"w c #504751",
"e c #534A54",
"r c #58545D",
"t c #625C6A",
"y c #67636D",
"u c #6F6A76",
"i c #6F6A79",
"p c #736E7C",
"a c #7A7683",
"s c #7D7984",
"d c #7D7889",
"f c #807B8C",
"g c #847F90",
"h c #85808D",
"j c #868191",
"k c #8B8696",
"l c #8E8997",
"z c #8F8A9B",
"x c #908B9C",
"c c #9A95A5",
"v c #9F9BAB",
"b c #A29DAD",
/* pixels */
"dddddddddddddddddddddddai56tddddddddddddddddssdddddddddddddd",
"dddddddddddjzzzjddddddddi99izzxxxxxxxxxxxxxxxxxxxxxzxzjddddd",
"ffffffffgddzcvvzjddgdgdsi9qavvvvbvvbvvvvvvvvvvvvbvvvvckghdff",
"zzzzzzzzzzzljhhkzzzzzzzld99yhhhjhhfhhhhhhhhhhhhhhhhhhhkzzzzz",
"bbbbbbbbbbbpq36ucvbbbbbvlq<<3333424333333333333333333qsvbbbb",
"ssssssssssse-O@wussssssau5%+OO++O+o+O+O+OOOOOO+++OOOO-rpssss",
">>>,>,,>>>>&+OO%;>>>>>>>>$++oooooooooo+OOooOooooOOooo+=>,>;<",
";>--;--;--;-=%X%=;;;;;-=%%$&$+@=-;-;-;%%&&&=%O%*---->->;;---",
"6766666666664:+;36686643,,<,-#&26668664,,,33;@-6695966666966",
"eq000080000w8<@,600099953333,$=3888888643578<+<8q999000000we",
"e064434343386<@*133333343333<#&<333663433668<+<803333434360e",
"e062,<2433364,+%:13333334333>&$>333314333366:$,6933334333480",
"w06,;:2333343-@%:<1113132332<$&:333333163341-+<6633333333334",
"066,*;<33333<*+*,<,:,:,:<233>@@<33333333333<-@:6433333333333",
"442,*;<33333<-+:41:----==<23>++;13333333333<-+-133333331311<",
"333,;;<43<:<,*+%;,3333<;=-<2,@o=<1316333316<%X%%::::::::::*&",
"331<*:133<%,<-OXO;66675>%%%>>$.$-3333333333<%.o%%%%%%%%%%#o.",
"3<<-%:1311%:,%OXX$=;>>%$OOO$$..$*<333343331-# XoOOooo+++oX. ",
"3<:%%:133,%::%o...XXXXXX..... X$-<33333333:*+   X ......X.  ",
"1<:%%:131,%-%%.               X$-<333333<:*%+      ...X...  ",
"3<%%%:111<%%%O                X$-<333333:*%%+       .ooooX. ",
"3<:%%-:::%%%%O     .X.XX.     X$*--:,133:*%%+    XXXXoooooo.",
"1:-%%*%-%-%%%O     XXXoX...   X%***%:131:*%#+   .oXooooooooo",
"::%%*%%%%%-%%O    .XOooooX.   o-:-%%-<1:**%%+   Xooooooooooo",
"%*%%%%%*-%%%%#   .ooooooooX.  +,<-%%:<:%%%%%O   .ooooooooooo",
"1:-%%*%%%%%:-%   .ooooooooX   +><<:%%--%%%%%+   Xooooooooooo",
"3<:%*-:*%%%::%X .XooooooooXX  O;<<:-----:-%%+..XXooooooooooo",
"311<<,<:--<1,%...ooooooooooX..o%--:,1<,<<1,:%.XO+ooooooooooo",
":::::::-%%::-#..o#oo++++OOOOo.X$%%%-::::::,-#.o##++#++++++++",
"%%%%%%%###%%#o.o#####%##%#%%$..o++%%%%%%%%%%o.+#########%%##",
"ooooooooooooo..##%%%%%%%%%%%$X.XoooOoXooooXX..###%%*%%#%%%%%"
};
