/* XPM */
static char *result[] = {
/* columns rows colors chars-per-pixel */
"60 60 56 1 ",
"  c #0A080D",
". c #160B0D",
"X c #1B0D0E",
"o c #0F0B10",
"O c #130D12",
"+ c #1D0F10",
"@ c #161015",
"# c #1B1115",
"$ c #171318",
"% c #1A151A",
"& c #1D191D",
"* c #220F0F",
"= c #26100F",
"- c #2E110E",
"; c #33120D",
": c #3B140C",
"> c #200F10",
", c #221111",
"< c #2C1210",
"1 c #241618",
"2 c #22191E",
"3 c #2D191A",
"4 c #321512",
"5 c #351814",
"6 c #331D1D",
"7 c #36201F",
"8 c #1F1B20",
"9 c #241D22",
"0 c #291D20",
"q c #262026",
"w c #292025",
"e c #2C242B",
"r c #2F282E",
"t c #342222",
"y c #3C2221",
"u c #32272C",
"i c #31282F",
"p c #342D34",
"a c #392E34",
"s c #382F38",
"d c #373037",
"f c #3B3035",
"g c #373138",
"h c #3B343B",
"j c #3F383F",
"k c #3F3840",
"l c #403740",
"z c #443C44",
"x c #473F48",
"c c #483F48",
"v c #4B424B",
"b c #4F4750",
"n c #504750",
"m c #534A54",
"M c #584F58",
"N c #5B525C",
/* pixels */
"                       o     O-->%999%9sni#OoOOOOOOOOOOO@@OO",
"                 OoooooooooooO;->%999&9hni%+$$%8999eeee999%O",
"              OOO@%%@$$$8$$$#X;-+%999&9hni8@8%9rpsglzzzzzs9O",
"              OO@$%88888888$##;-++%2%$&hnr%%8qrgjlvnmmmmmx0O",
"           oOO+OO@$&&&8%&&&&&1;->+O@@O2lni%%9pshzbnnmmmmmz9O",
"          oOOOOOOO@%$$$%&&&&215;<>&%%+8sbi$89sskznmmmmmmmze@",
"         oOOOOOOOOO@O+@@%&&&22:::3999%9sni8%9sgkzbmmmmmmmz9O",
"        ooOOOOOOOOOOOOOO@$&&21;::4099%9kni$%9ghkzbmmmmmmnzeO",
"           .O+OOOOOOOOOO@@%&&1;::3299$9sbr&%8pghzcnnbbbbmzeO",
"          ..OOOOOOOOOOOO.@%%%1;;=11%%+9sve%%8ergkzzxxzxxbl9O",
"          OOOOOOOOOO+OOOO@$%##;;>+%%%%9sxe%%88qpsshkjhhjvleO",
"        OOOOOOOO+O+OOOO+O@%$#+;->20erpkcxe%$&889qepshjhjls9O",
"        oOOOOOOOOOOOOOOOO@$$@+;;>9eepskcve$%888888qpghjhjp9O",
"         oOOOOOOO@OOOOOOOO##@+;->%9999ilxe%$%8%8889qpghggp9O",
"         O.OOOOOOOOOOOOOOOOO.+;;>>%%&@%sxe%$%%%&%%%8qipipe&O",
"            oOOOOOOOOOOOOOOOO+;::6upi99hbr%+@@+OO$$@$&&&%%+O",
"             ooOOOoOOOoooOooo+;::7fhaw9hmlpiprriiiiiiiiiisii",
"                o      oo oo O;::7afs99hMmvczzzzzzzzccbvcccc",
"   o  oo oo           OOOOoo .;;;3tee29hMNmvzzzlzzzcnMNNNNNN",
"   OOOOOo.o      OOOOO@%%%8@O.;;,#%%%#&anmcp22299999sbmmmMmm",
"  .OOOOOOOOO    OOOOOO@%%&8$O.;-#%9qq9egcchw$99q999%rzxxcccc",
"  .OOOOOOOOOO  OOOOOOOO@%%&%O.;-,2iddsshlls9%rsasp0%ehkkzlll",
"  .oO+OOOOOOO  OOOOOOO+O@%%$..--,qdhhjjhjhp9%pghkse99hksskkk",
"  oOOOOOOOOOO  OOOOOOOOOO@%O..--,2iapssgpfu21iafas0%9isssspp",
"  oOOOOOOOOOO  OOOOOOOOOOOOOO.;->16twq090761#7yyyy3#%9999e99",
"  .OOOOOOOOOO  OOOOOOOOOOOOOo.;--*:<,##+>44=>:::::<+++#1X>>%",
"   oOOOOOOO    OOOOOOOOOOOOO .;;;;:;;---4::;4::::::;--------",
"   o.OOO.O     OOOOOOOooOOO  .=;;;;;;-;-;;;;;;;::;;;;;---;--",
"                     o       .X*>>****>>>>>*>>>>=>>>>>=>>>>>",
"                              ..ooOOoOOoOoOOOO@@@@@@#@@@OOOO",
"                                oo    oo o  o%%%%%%%%$%%O oo",
"                  ooOooOooOo   oOOOo oooOOOO@%%8%9%88%88$OOO",
"               .OOO@$$$$$@@OOOOO@%$O O$$$$$$%88$%%8888%8%$$$",
"               .OO@%$%%%%@@OOOOO%%8@oO%%%$%%%$%$%%%%8%88%%$%",
"             O.OOOO@@@O@@@OOOOO@@@%@ooO@@@O@O@@@@@%%%8%%@@$@",
"            OOOOOOOOOOOOOOOOOOO@@$8@ooOOOOOOOOOOOOO%%$$$@@OO",
"           OOOOOOOOOOOOOOOOOOOO@%8%@o OOOOOOOOOOOO@@#OO%OOOO",
"             .o OOOOOO+OOOOOOOO@%%%OooOOOOOOOOOO#XOOOOOOOOOO",
"                oOOOOOOOOOOO+OO@$%@   OOOO+@OOOOOOOOOOOOOOOO",
"               oOOOOOOOOOOOO@OO@%$@o oOOOOOOOOOOOOOOOOOOOO@O",
"                OOOOOOOOOOO+OOO@%%Oo  OOOOOOOOOOOOOOOOOOOOXO",
"                OOOOOOOOOOOOOOOOOOOo .OO@OOOOOOOOOOOOOOOOO@O",
"                OOOOOO+OOOOOOOOOOOO. ooOOo.oOOOOOOOOOOXOOOOO",
"                 OOOOOOOOOOOOOo.OOOo    .  ooOOOOOOOOO@OOOOO",
"                 OOOOOoOOoOo  ..Oooo        .ooooOooOooOOoOo",
"                        oo      oo             o oo  o  ooo ",
"                 o                .       oooOOOOoOoOooo o o",
"            OO ..O               oooOoOoooO$$$$$$$$$%%OOoo.O",
"          OOOOOOOOO.            ooOOOOOOOO+$%%%%$%%%%$@OOOOO",
"          OOOOOOOOOOo           .OOOOOOOOOOOOO@+@@@OO@OOXOOO",
"         OOOOOOOOOOO            oOOOOOOOOOOOOOOOOOOOOOOOOOO@",
"          OOOOOOOOOO            oOOOOOXOOOOOOOOOOOOOOOOOOOOO",
"         OOOOO..OOOOO           OOOOOOOOOo O .  oooOOOOOOOOO",
"          OOO.  OOOO            oOooOOOOO         oOO+O@OOOO",
"          o                      .oo .oo        o.OOOOOOOOOO",
"                                                OooOOOOOoOOo",
"                                                 .       oOO",
"                                                          oo",
"                                                          . ",
"                                                            "
};
