/* XPM */
static char *result[] = {
/* columns rows colors chars-per-pixel */
"60 60 45 1 ",
"  c #0A080D",
". c #150B0D",
"X c #1A0D0F",
"o c #0F0C11",
"O c #140D12",
"+ c #1B0E11",
"@ c #161015",
"# c #191116",
"$ c #171318",
"% c #1A151A",
"& c #1D191E",
"* c #24100F",
"= c #2E110E",
"- c #34120C",
"; c #3D140B",
": c #210F10",
"> c #211315",
", c #241719",
"< c #21191E",
"1 c #2D191A",
"2 c #341814",
"3 c #341D1C",
"4 c #3C201E",
"5 c #251E24",
"6 c #281F23",
"7 c #272228",
"8 c #2B242A",
"9 c #2E292F",
"0 c #342122",
"q c #3D2220",
"w c #30282F",
"e c #342D33",
"r c #373036",
"t c #3B3137",
"y c #3C353C",
"u c #403740",
"i c #443C44",
"p c #473F48",
"a c #483F48",
"s c #4A414A",
"d c #4F4650",
"f c #504751",
"g c #534A54",
"h c #584F58",
"j c #5B525C",
/* pixels */
"                                                            ",
"                                                            ",
"O                                                           ",
"OOO o    o                                                  ",
"OOOOOOO.OO.Oo                                               ",
"OOOOOOOOOOo         O O  O                . o O             ",
"OOOOOOOOOo         OOOOOOO.              OOOOOOO..          ",
"OOOOOOOOOo. O oo   OOOOOOO.             ..OOOOOOOO          ",
"OOOOOOOOOOOOOOOOOOOOOOOOOOOO            OOOOOOOOOO          ",
"OOOOOOOOOOOOOOOOOOOOOOOOOOOO            OOOOOOOOOO.         ",
"+OOOOOOOOO@O@OOO#OOOOOOOOOOO            OOOOOOOOOOo         ",
"OOOOO@%%%%%&%%%%#OOOOOOOOOO             OOOOOOOOO           ",
"OOOOOO%%&%%%%%%%%OOoOOOOOO               oOOO.OOo           ",
"o    ooooooooooo.o                                          ",
"            o o                                             ",
"OOOOOOOOOOOOoOo          OOOOOO OOOoOOoOOO.                 ",
"OOOOOOOOOOOOOOOO         OOOOOOOOOOOOOOOOOXO                ",
"OOOOOOO@OOOOOOOOOOOOOOO OOOOOOOOOOOOOOOOOOOOO               ",
"+@OOOOO+O+OOOOOOOOOOOOO  O#@#OOOOOOOOOOOOOOO                ",
"OOOOOOOOOOOOOOOOOOOOOO  OO%%#OOOOOOO#OOOOOOOO               ",
"OOOOOOOOOOOOOOOOOOOOOO  .O%&@OOOOOOOOOOOOOO.o               ",
"OOOOOOOOOOOOOOOOOOOOOO  oO%%#OOOOOOOOOOOOOOo                ",
"OOOOOOOOOOOOOOOOOOOOOO. o%%&#OOOOOOOOOOOOOO. o o            ",
"OOOOOOO+OOOOOOOOOOOOOOO $%&%#OOOOOOOO@OOOOOOOOOO            ",
"OOO@@@%$$@OOOOOOOOOOOOo $%$$@OOO@ @.OOOOOOOOOO..            ",
"O@@@&5&&&#OOO+@O@OO@OOo $&$@OOOO.@@OO@O@OOOOOo.             ",
"%%%%&&&&&&%%%%%%%%%%%%Oo$&&$OOOO@@%%%%%%$OOO.o              ",
"%%%&&&&&&&&&&&&%%%%%%$O o&$$@oOO @%%%%%%%@OOo               ",
"ooo@&&&&&&&&&%%@ooooooo ooOoo   o @oooooOo                  ",
"o  O%%%%%&%%%%$Oo  o                                        ",
"oOOO@@@@@@@O$@OOo.oOOOO OOOooO                              ",
":+:::::::::+*>::+*>++****#:::+.      o   o                  ",
"---;----;-;-;-;-----;----;---=. .OOOOOOOOOOO     OOO OOO    ",
"========--;;;;---;;=====-;--;=. .OOOOOOOOOOOO  oOOOOOOOOO   ",
"++++++O++=;;;;;::-=+++++=-*:--. OOOOOOOOOOOOO  OOO+OOOOOOO  ",
"5555555&O1qqqq3%>405655504,+==.oOOOOOOOOOOOOO  OOOOOOOOOOO  ",
"yyyyyyy5O8yyyye,5eryryyryt5+=-.O%%OOOOOOOOOOO  OOOOOOOOOOO  ",
"yyyyyyy7O8yyyye%&ruyuyyuyt5+--. %%$@OOOOOOOOO  OOOOOOOOOOo  ",
"yyyyyyy7O8yryye%&ryuyyyyye5+==.O%&&%OOOOOOOOO  OOOOOOOOOOO  ",
"pdpssss9O&55555+5upay55555$+--. %&&&%$OOOOOOo   OOOOOOOOOO  ",
"gggggggr%%,#%%#,8aggy@O%+++*-=.o%%%%&@OOOOO      OOOOOOO    ",
"jjjjjjjfiiiiiiiidhjjy@&8w81-;=.ooo@OO O .           O       ",
"ggggggggggggggfggghju@6uyt4;;=. o                           ",
"888888866888688668uju@6uyt4;;-+OooO OOO.OoOoOO              ",
"OO%&%%&%OOOO%@@@OOwguO5eew3-;-+OOOOOOOOOOOOOOOO             ",
"O58eeee5&&&%&%%%%@8dr+@%&%::--:OOOOOOOOOOOOOOOOOO.o         ",
"O&ryyyye55&&&&5&%O6du65&5<$+--:O@OOOOOOOO+OOOOOOOO          ",
"O5ryyyyrr8&&&&&&%$8dfayeew5+=-+@%$@OOOOOOOOOOOOOOO.         ",
"O5uiuyury9777&&&&@7dpyeww8%+=-:@&%@OOOOOO+OOO@OOOOoo        ",
"O5aauyyuyyyye7&&$@8dy%%@$+O+=-+@%%OOOOOOOOOOOOOOOOo         ",
"O5aapiiippiur97&%@8gy@O%%%:=--,%&%OOOO+OOOOOOOOO+OO         ",
"O5aggggggffiyye7%@9guO&5562;;;,&&%OOOOOOOOOOOOOOOOo         ",
"@5agggggggfpyye7%@whu@%5562;;-,&&%%@OOOOOOOOOOOOOO          ",
"O7agggggggfpyue5%Owhy@,5562;;2,&&&&%OOOOOOOOOOOOOo          ",
"O5agggggggfiyyr5%Owhu@@%%%:=;2,&&&&%%%%%$+OOOOOOo           ",
"O7pgggggfffiyye5%@whu#OOO@@+--,&&&&&&&&&&$OOOOOOO           ",
"O5ahgggggapuyw5&%@whu@%5%%++=-:%&&&&&&&&&%$$@OOo            ",
"O5uaaaaaaueew5%&%OwhuO%555%+=-:O%%%%%%%%%&%oooo             ",
"O%5558555555<#@@@Owhu+&555%X=-X oooooooooooo                ",
"OOOOOO@OOOOoOOOOOOwhu@%555%X-=.                             "
};
