/* XPM */
static char *b56f8819697147e891c0c8199fd62f82[] = {
/* columns rows colors chars-per-pixel */
"48 48 83 1 ",
"  c #09080D",
". c #0E0A0F",
"X c #120A0D",
"o c #160C0F",
"O c #0C0B10",
"+ c #0F0C10",
"@ c #110B10",
"# c #110D12",
"$ c #140D12",
"% c #110F14",
"& c #160F14",
"* c #1B0E11",
"= c #131015",
"- c #171016",
"; c #1C1012",
": c #181217",
"> c #1F1316",
", c #1A1318",
"< c #1B1419",
"1 c #1C161B",
"2 c #1B171C",
"3 c #1F171D",
"4 c #1B181D",
"5 c #1D191E",
"6 c #240F0E",
"7 c #29100E",
"8 c #2D110E",
"9 c #35120B",
"0 c #33120D",
"q c #37130D",
"w c #3E140B",
"e c #3A130C",
"r c #3A160F",
"t c #210F10",
"y c #271111",
"u c #211619",
"i c #23181B",
"p c #21191F",
"a c #28191B",
"s c #371713",
"d c #3E1A13",
"f c #201B20",
"g c #221E23",
"h c #241C22",
"j c #251F24",
"k c #291D20",
"l c #252025",
"z c #282127",
"x c #2C2226",
"c c #2A2329",
"v c #2A252A",
"b c #2E262D",
"n c #362121",
"m c #322325",
"M c #3D2423",
"N c #392424",
"B c #30292F",
"V c #362A2E",
"C c #2F2930",
"Z c #332B33",
"A c #322C33",
"S c #352E35",
"D c #3C2F34",
"F c #373037",
"G c #383037",
"H c #3A3139",
"J c #3D363D",
"K c #3F383F",
"L c #403840",
"P c #463E46",
"I c #473F48",
"U c #49414A",
"Y c #4C434D",
"T c #4E454E",
"R c #4F4650",
"E c #514852",
"W c #534A54",
"Q c #554B55",
"! c #554C56",
"~ c #584F58",
"^ c #5A5059",
"/ c #5C525C",
"( c #5E545E",
/* pixels */
"$$$$$$$$$$$$$$pEH-gjg-79X                       ",
"$hZZZZZbzzp,,-pEH-gjg-7qo#========#...          ",
"$ZWWWWWUKJCg5,pEH-pgp-7q;<55555553:$$O          ",
"$ZWWWWWEYKHAg,pEH$---$7ru55555553-$$$#@         ",
"$ZWWWWWWRLJFg,pEH&<11y0ri555<,,,:$$$$$#O.       ",
"$ZWWWWWWRLJFg,pEH-gjkrwri553:$$$$$$$$$$$.       ",
"$ZWWWWWWRLJFg,pEH-gjkrwri53-$$$$$$$$$$$$.       ",
"$ZEUIIIIPJSvf,pTS&<11y0r><2&$$$$$$$$$$$$.       ",
"$ZYKJJJHFFv55,3UH3<<,$7q*,2&$$$$$$$$$$$$O       ",
"$cKJJJJCggf55,3UTPHSB,7q*,2&$$$$$$$$$$$$#@      ",
"$zJJJHCl55555,3ULZczh-7q*-:$$$$$$$$$$$$$#.      ",
"$hSSSZf222222:5US$,<,*8q*$$$$$$$$$$$$###.       ",
"$-<<<,-&&&&&&$pEH,BSVseq*$$$$$$$$$$$$@          ",
"HHHHHHHHHHHHHHL^H<SJDdwqo.............          ",
"(((((/QEEEEEE~((H,BSVse9X OOOO                  ",
"!!!!!YcppppppH!!S$,<,*89X%<<<<####.    @######. ",
"IIIIIJ13zzzh-bIIGzzzh-79X=55<:$$$$#. .O#$$$$$$. ",
"JJJJJS<zJJJS<zJJJJJJS<79X=53:$$$$$$# .$$$$$$$$. ",
"JJJJJS<zJJJS<zJJJJJJS<79X=3-$$$$$$$# .$$$$$$$$. ",
"zzzzzh-aMMMn:aNxzzzmn:79X#:$$$$$$$$# .$$$$$$$$. ",
"*******8wwwet8et***8et89X.$$$$$$$$$# .#$$$$$$#. ",
"qqqqqqqewwwweeweqqqewee9X.$$$$$$$$$#  .#$$$$#.  ",
"777777777777777777777776............   ......   ",
"###&&&&&&&&&###########@                        ",
"  O<2222222<O                                   ",
"==-455555554-====% +==#...+%====%+..            ",
"22355555222222222<O=53:$$$&<2222<&$#.           ",
"&&-3555<&&&&&&&&&# =3-$$$$$&&&&&&$$$##@         ",
"$$$:,,,-$$$$$$$$$# =5<-$$$$$$$$$$$$$$$#         ",
"$$$$$$$$$$$$$$$$$# %35,$$$$$$$$$$$####@         ",
"$$$$$$$$$$$$$$$$$# +-3,$$$$$$$$$$$O             ",
"$$$$$$$$$$$$$$$$$# .&2,$$$$$$$$$$$#.            ",
"$$$$$$$$$$$$$$$$$# .&<:$$$$$$$$$$$$#            ",
"$$$$$$$$$$$$$$$$$# .$&$$$$$$$$$$$$$#            ",
"$$$$$$$$$$$#O..... .$$$$$$$$$$$$$$#.            ",
"###########@       .##############.             ",
"                                                ",
"....#========#.......            ......         ",
"$$$$:22222222:$$$$$$#.          .#$$$$#.        ",
"$$$$$&&&&&&&&$$$$$$$$#.        .#$$$$$$#.       ",
"$$$$$$$$$$$$$$$$$$$$$$.        .$$$$$$$$.       ",
"$$$$$$$########$$$$$$$.        .$$$$$$$$.       ",
"$$$$$$$O      .#$$$$$$.        .$$$$$$$$.       ",
"$$$$$$$#...    ........        ..........       ",
"$#########.                                     ",
"$O                                              ",
"..                                              ",
"                                                "
};
