/* XPM */
static char *e27c6c3938e545bca85000cf788ad8eb[] = {
/* columns rows colors chars-per-pixel */
"60 60 88 1 ",
"  c #0A090E",
". c #0E0C11",
"X c #120D12",
"o c #141116",
"O c #181217",
"+ c #161319",
"@ c #1A161B",
"# c #1D191E",
"$ c #1F1B20",
"% c #221E23",
"& c #252126",
"* c #272328",
"= c #2A252B",
"- c #2E292F",
"; c #2F2930",
": c #332C33",
"> c #373137",
", c #373138",
"< c #3B343B",
"1 c #3F383F",
"2 c #3F3840",
"3 c #433B44",
"4 c #473F48",
"5 c #464049",
"6 c #4B434C",
"7 c #4F4650",
"8 c #4F4952",
"9 c #504751",
"0 c #534A54",
"q c #554F5A",
"w c #57525D",
"e c #5A525D",
"r c #5D5661",
"t c #5E5963",
"y c #615A64",
"u c #635E6B",
"i c #65616C",
"p c #68626D",
"a c #676471",
"s c #6D6672",
"d c #6D6874",
"f c #6F6D7B",
"g c #726B76",
"h c #746E7A",
"j c #757382",
"k c #7A7582",
"l c #7D7987",
"z c #7D7B8C",
"x c #847E8B",
"c c #807F90",
"v c #87818E",
"b c #818192",
"n c #858496",
"m c #868597",
"M c #898290",
"N c #888391",
"B c #8A8492",
"V c #898797",
"C c #8D8795",
"Z c #8F8996",
"A c #888799",
"S c #8B899A",
"D c #8F8A98",
"F c #8B8A9C",
"G c #8C8B9D",
"H c #8F8D9D",
"J c #908B98",
"K c #928C9A",
"L c #938F9E",
"P c #948F9D",
"I c #9391A3",
"U c #9491A0",
"Y c #9492A4",
"T c #9694A5",
"R c #9893A2",
"E c #9894A3",
"W c #9895A5",
"Q c #9B98A7",
"! c #9A97A8",
"~ c #9E9BAB",
"^ c #9F9CAC",
"/ c #A09CAB",
"( c #A09DAD",
") c #A6A2B2",
"_ c #A8A4B3",
"` c #AAA5B6",
"' c #AFABBC",
"] c #B6B2C2",
/* pixels */
"<qfbbblt8uzbbbbbbbbzuwk/Wbbfq<<qfbzu5<<<5azbbbbnY`lrk_]'Yjq<",
"<rlIIIVa0ucGIIHnAHIHd0pBIIIlr<<qfbzfw530pjzbnHIIUJs0pBPPUlr<",
",tN(((Ud0inT~~WnST(Qh80sB~(Nt,,qhnnzfw7pBSnnF!^~Zgw50ushZxt,",
":0kKKKvy6aHLKJBjlBKCi33ehZKk0::qlYYYVu6iZIYYULKCke53490ekh0:",
"%,0yyye32sRkpyyeryyr3:,7eyy0,%%0N```Wi<5pD()Ehuye0333900e0,%",
"#:40006,:ekpe0000000<=:37004:##3dNNNk0:<ehxvkyq06<::360004:#",
"#:30006,-3ee00000009<=-<5003:##:0yyye2=,0eryrq073-%*,60003:#",
"#:30063:=<9000000009<=-<5003:##:30006:&,666700062&@#:56573:#",
"#;3765<-=<9000000009<=-<3673:##:30005;$:53360006<%++;45363:#",
"#=<333,-=<9000000009<=-,333<=##:30063*@=33350063,%++;43353:#",
"#&;::::**<9000000009<**::::;&##:3075,%+%:,357751:%++;43353:#",
"########&<9000000009<&#########:3633,%o+%:<3333<:%++;43353:#",
"#@o....+%,6000000009<%+....X+##:3633<&X.o%-::::-*@Xo=33<3,-#",
"#@X    o%:3600000009<%o    .+##;35332=X .+@@@@@@+X.X*<3,:-%#",
"#@XX   o$-<500000009<%o    X+##-3413<*X            .%:<,*$##",
"#@XX   o$-<500000009<%o. XXX@##=,1<:*@.            .%:<,*$##",
"#@+X   o$-<500000009<%o. XX+@##*:<<;%+             .%::-&###",
"#@+XX .o$-<500000009<%o. XX+@##*:<<-%+       X     .%:-&%%%#",
"#@+XX .o$-<500000009<%o. XX+@##=,3<;$o      .XX.   .%:=%==%#",
"#@+XX .o%-<500000009<%o. XX+@##-35<-$+     .XXXX.  .%:=&,<-#",
"#@+XX .o%-<500000009<%o. XXX@##:35<-$o    .XXXXXX. .#*&&23:#",
"#@+XX..o%;<500000009<%o. XX+@##:35<-$o   .XXXXXXXX .+$%=33;#",
"#@+XXX.+$-<500007666<%o. XX+@##:35<-$o.  XXXXXXXXX .o$-,3<-#",
"#@+XXX.o$-<500006336,%o. XX+@##:35<:%+.  XXXXXXXXX .o%,43,=#",
"#@+XX .o$-<500005336,%o. XX+@##:35<>-#.  XXXXXXXXX..o%,63:*#",
"#@+XX .o$-<570095335,%o..XX+@##:353<:%.  XXXXXXXXX..o%,63:*#",
"#@XXX .o$-<346953113:%o..XX+@##:353<:%X  oO@@@@@OX..o%,63>*#",
"#@OO@+.o$-<<3453<<<<;%o..XX+@##-33<<:%. .+@####@@+X.o%,63:*#",
"##@%*#Xo$-,<1331<<<<-$o..XXO@##=,3<<:%X  +@#####@@X.o%<63:*#",
"##$*:&oX@*:,<<<<<<<,-#X X+@@###*:<<,:%X  o@#######+.+%<63:*#",
"##$*:&X X@&:,<<<<<<,*+  o#==&##*:<<:&#+X  X@######+.o%<63:*#",
"##$*:&X .+%:,<<<<<<,&X  +%-:*##*:<<-%#@+o@####%&%#++#=<33:*#",
"##$*:&X  +%:,<<<<<<,%X .+%::*##*:<,-%####*=&$$&--%##&:<3<:*#",
"##$*:&X  +%:,<<<<<,:$. .@=::%+#*:,:*%%&%%::;**;::%#%-,<<<:*#",
"##$*:&X  +%:,<<<<,:&+. X%:,;$X@*::&%%=:=%:,,,,,,:%#%-><<<:*#",
"++#*:&X  +%:,<<<<,:%+  X&,<;#.@*::%%=::=%:,<<<<,:%#$&-:<<:*#",
" X#*:&X  +%:,<<<<,:%+  X&,,-#.@=::%=:,>=%:,<<,,:-%##$&-,<:*#",
" X@*:&X  +%:,<<<<,:%+  X&>:&+o&:::%=><>=%:,<,:-=&$###$&->:*#",
" X@*:&X  +%->>>>>:-%+  X&:=#+o=:>:%=><>=%:,<:*%%$#$%$#$&::=%",
" X@=:&X  +#&======&#+  X&:*@XX%-::%=><>=%:,,:&####&=&$#%:::-",
" X#=:&o  +###$$$$###+  X&:*@X.@*::%=><>=%:,,:%####=:-%#%:,,:",
" +&-=%+X.+##########+  X&:*@X.@*::%=><>=%::-&%###$=:-%#%::;*",
" @=:%#@o.+#########@X  X&:*@X.@*::%=><>=%--&#@@@@#=:-%#%::=$",
" @-:%#@o.+########@OX  X&:*@X.+&::%=><>=%%%$@oXX+#=:-%#%::*#",
" @-:%#@o.X@@@#####@X.  o%;&@X.+&::%=>,:*#@@@+.  X#=:-%#%::*#",
" @-:%#@o.XX+O@####@X. X@$%%@X .$-:%=::&%#o...   X#=:-%#%::*#",
" +&=%#@o..XXX+@#@@OX  o@###@X  @&=%=:-%@+.      X@&-&%#%==%#",
" +#%##@o..XXXXX@@+XX .o@###@X  o#%%=:=#+.   .   X@$%%###%%%#",
"X+@###@+XXXXX  o+XXX .o@###@X  .@##&=&#X   .X   .+@###@+@###",
"@@####@+XXXXX   .XXX .o@###@X  X@###%$@X   .X    .o@#@+.+###",
"++++#@+XXXXXX    XXX..+@###@X  X+@+@##@X   .X.    .+@@o.+###",
"  .o@+XXXXXXX    XXX..+@###+.  .++.+@#@X   XXX.    .o+X.+@#@",
"   X@+. .XXXX    XXX..o@##+X.  .XX X@#@X   XXXX     .X..+@+o",
"   X@+   .XXX    XXX .o@#@X.       X@#@X   XXXX        .++X ",
"   X@o    .X.    XXX .o@#@.        X@+o.   XXXX        .++X ",
"   .+o     XX    XXX..o@@+.        X@+.    .XXX         o+. ",
"    ..     XX    XXXXXXXX.         X+o      .X.         ..  ",
"           X.    XXXXX             Xo.       X.             ",
"           XX    XXXX              ...       X.             ",
"           X.    XXX.                        X.             "
};
