/* XPM */
static char *c4788b600c334cbaa9324738f7cf6229[] = {
/* columns rows colors chars-per-pixel */
"60 60 77 1 ",
"  c #0B090D",
". c #160B0D",
"X c #0E0C10",
"o c #110D12",
"O c #1C0F12",
"+ c #151115",
"@ c #1A1115",
"# c #171318",
"$ c #1B151A",
"% c #1E191D",
"& c #25100F",
"* c #2D110D",
"= c #32110C",
"- c #3A130B",
"; c #3B150D",
": c #38140E",
"> c #210F10",
", c #201011",
"< c #241213",
"1 c #281314",
"2 c #2D1514",
"3 c #21171A",
"4 c #211A1F",
"5 c #261B1E",
"6 c #301614",
"7 c #341814",
"8 c #201B20",
"9 c #221C21",
"0 c #251E23",
"q c #251F24",
"w c #281D20",
"e c #262026",
"r c #282227",
"t c #292228",
"y c #292428",
"u c #2C262B",
"i c #2E272E",
"p c #2F282E",
"a c #302A2F",
"s c #2E2A30",
"d c #302A30",
"f c #332C32",
"g c #342D33",
"h c #342E34",
"j c #352E34",
"k c #373037",
"l c #383137",
"z c #373138",
"x c #393239",
"c c #3B343B",
"v c #3B353C",
"b c #3F383F",
"n c #3E3840",
"m c #433C44",
"M c #473F48",
"N c #464149",
"B c #4A424B",
"V c #4D4751",
"C c #4F4D58",
"Z c #534A54",
"A c #554E59",
"S c #56525D",
"D c #59515C",
"F c #5B5561",
"G c #5E5965",
"H c #5F5C68",
"J c #605A66",
"K c #625D6A",
"L c #65616E",
"P c #676472",
"I c #696573",
"U c #6B6877",
"Y c #6F6C7B",
"T c #706E7D",
"R c #747282",
"E c #797989",
"W c #7F7F91",
/* pixels */
"                                                            ",
"                                                            ",
"                                                            ",
"                                                            ",
"                                                            ",
"                                                            ",
"                                                            ",
"                                                            ",
"                                                            ",
"                                                            ",
"                                                            ",
"                                                            ",
"                                                            ",
"                                                            ",
"                                                            ",
"                                                            ",
"                                                            ",
"                                                            ",
"                                                            ",
"                                                            ",
"                                                            ",
"                                                            ",
"                 Xoo                                   ooX  ",
"                 o++o                                 o++o  ",
"                Xo++oo                                o++oX ",
"                Xo++++o                              .o++oX ",
"ooooooooooooooo Xo+++++ooooo.              oooooooooo++++oX ",
"ooooooooooooooo  ooooooooooo               Xoooooooooooooo  ",
"oooooooooooooo    ooooooooo                 ooooooooooooo   ",
"............................................................",
"============================================================",
"***=---=****==--==****=---=*****************=-==****=---=***",
",@>&:::*>@@O&=--=&O@@>*:::&>@,,@OO,,,,,,,,@><==<O@@>*:::&>,,",
"$@@,676<O+@+O&**&O+@+O<676,@@$$@++#$$$$$$$@@O21@+@+O<676,@@$",
"9%@@5w5$@$4#@OOOO@#4$@$5w5@@%99%@#49999999%#@53@#4$@$5w5@@%9",
"q%#$909$@$9%$$$$$$%9$@$909$#%qq%#$9004%80q4$@4%#$8$@$900$#%q",
"r8$#498$@%e99444499e%@$894#$8rr8$#498$$4er9$+4$#$9%@$894#$8r",
"de$+$$$@#9uq%%%%%%qu9#@$$$+$edde$+$$$@#9pdt%+$@@%y9#@$$$+$ed",
"xi8$$$$$%yge%%%%%%egy%$$$$$8ixxi8$$$$$%ylxdq$$$$0fy%$$$$$8ix",
"cjitttttuflayyyyyyalfurrrrrugccjirrrrrufxckprrryalfurrrrrugc",
"jjfffffffjjgffffffgggfffffffggjgfffffffggggffffffggfffffffgg",
"%%%%%%%%%%%%%%%%%%%%%%%%%%%%%%%%%%%%%%%%%%%%%%%%%%%%%%%%%%%%",
"+++ooooooo+++oooooo+++++++++ooooooooooo++++++++++++ooooooooo",
"%$++oooooo+$+o    o$$%%$++$+o         X+$%%%%%%%%$+o        ",
"q8%$$$$$$$$%$o    +8qqq9$+%$+   Xooooo+$0qqqqqqqq0%+oooo    ",
"q099999999%$+X    +8qqq9$++++o o$%%%%%%9qqqqqqqqqq94%%%%+   ",
"qq000000009$++oXX+$9qqq9%$$$+++$%999990qeyiiyeqqqq000qre$X  ",
"qqqeeeeeee9%$$$++$80eeee098%$#%89qqqqeeetdjjfyreeeeeetpa%o  ",
"qqeruiiiut0%%89$$8qqtuiutqq8$$90qqqqetiiakccxdpiiiiiiajky%+ ",
"eerijxxxjpe0099$$9eepjxjpee9$$90qqqqrpjxxcvvcxxxxxxxxxxcky$ ",
"ppdgxcvvxjpte09$%tpajxvxjapt%$90qqqtpjxvvvvvvvvvvvvvvvvvcp% ",
"xxxxcvvvcxjpte9$9pxxxcvcxxxp9$9qertpkxvvvvvvvvvvvvvvvvvvvd% ",
"vvvvvvvvvvxjdpy$qfvvvvvvvvvf9$9riddjxvvvvvvvvvvvvvvvvvvvvd% ",
"vvvvvvvvvvcxxkd%qfvvvvvvvvvjq$9yjxxxvvvvvvvvbMNNNNmmnbvvvd%o",
"vvvvvvvvvvvvvcj%efvvvvvvvvMct$9pzvvvvvvvvvvnMFHKKHSBNMmvvfe$",
"vvvmMNNNNNNNNmv9yvNNNNNMmmNmi%pxmNNNNNNNNNNBAURRRRIFDAVMvjy0",
"vvnVKPPPPPPPPLSdnSPPPPPKZmNMjsCHPPPPPPPPPPPPPKKKKKIYYYUHmdrq",
"jxmAIYYYYYYYYUGkmGYYYTRRKZZMxkGUYYYYYYYYYYYYIFDAADKYTTYIAvpq",
"ikMAGKKKKKKKKGAjnAKKKLTERPFNxjAGKKKKKKKKKKKKGAZZZZDJKKKKKAvq",
"qjMZZZZZZZZZZZNakMZZZDIEWEKBkaNZZZZZZZZZZZZZZZZZZZZZZZZDYPNq"
};
