/* XPM */
static char *b9d2ec995829431192c7f1a204d94e2c[] = {
/* columns rows colors chars-per-pixel */
"48 58 71 1 ",
"  c None",
". c #2A3036",
"X c #2B3037",
"o c #2D3239",
"O c #2F353C",
"+ c #30353D",
"@ c #30363D",
"# c #31373E",
"$ c #31373F",
"% c #32363F",
"& c #32373F",
"* c #32383F",
"= c #323740",
"- c #333740",
"; c #333840",
": c #333841",
"> c #333A41",
", c #343941",
"< c #343942",
"1 c #343A42",
"2 c #353B43",
"3 c #363C43",
"4 c #373C44",
"5 c #383D46",
"6 c #383E47",
"7 c #393E47",
"8 c #383E48",
"9 c #393F48",
"0 c #3A3F49",
"q c #3A4049",
"w c #3B4049",
"e c #3A404A",
"r c #3B414B",
"t c #3C414A",
"y c #3C434C",
"u c #3C434D",
"i c #3D434D",
"p c #3D444F",
"a c #3E444E",
"s c #3F454F",
"d c #3F4650",
"f c #404751",
"g c #414852",
"h c #414853",
"j c #424853",
"k c #424953",
"l c #434954",
"z c #424A54",
"x c #434A55",
"c c #444B55",
"v c #444B56",
"b c #454C56",
"n c #444C57",
"m c #454D58",
"M c #474D58",
"N c #464E59",
"B c #474F59",
"V c #48505B",
"C c #49505C",
"Z c #48515C",
"A c #49515C",
"S c #4A515D",
"D c #4A525D",
"F c #4A525E",
"G c #4A535F",
"H c #4C535F",
"J c #4C5360",
"K c #4C5460",
"L c #4D5560",
"P c #4C5461",
"I c #4D5461",
/* pixels */
"              KK  K   . . .. .. ==              ",
"              KK  >   . . .. ..ht=              ",
"              KK  .O  a . .. yovy=              ",
"              KM  .++xK 7 7yKDqd7=              ",
"               d+ ==3an H KDMMMq<               ",
"                ><D Jh><D Df+++n                ",
"                x<D   DDK <<++ O                ",
"                M>9   KK  nh + .                ",
"                Da>   hK  KK + y                ",
"                KD<   7K  ff + K                ",
"                M +   7K       K                ",
"                + +   + K      K                ",
"                + +   + K9+++* 4                ",
"                v +   +  +qxxx<+                ",
"                K     +  .9KKD<y                ",
"                K     q  .     K                ",
"                V     K  .     K                ",
"                >     K                         ",
"                +                               ",
"                                                ",
"                                                ",
"                                                ",
"                                                ",
"                                                ",
"                                                ",
"                                                ",
"                                                ",
"                                                ",
"                                                ",
"                                                ",
"                                                ",
"                                                ",
"                                                ",
"                                                ",
"                                                ",
"                                                ",
"                                                ",
"                                                ",
"                                                ",
"                                                ",
"                                                ",
"                                                ",
"                                                ",
"                                                ",
"                                                ",
"                                                ",
"                                                ",
"                                                ",
"                                                ",
"                                                ",
"                                                ",
"                                                ",
"                                                ",
"                                                ",
"                                                ",
"                                                ",
"                                                ",
"                                                "
};
