/* XPM */
static char *result[] = {
/* columns rows colors chars-per-pixel */
"60 60 86 1 ",
"  c #0A090E",
". c #0E0B10",
"X c #130D12",
"o c #1B0F12",
"O c #151116",
"+ c #1B1115",
"@ c #171318",
"# c #1B151B",
"$ c #1D181E",
"% c #220F0F",
"& c #23100F",
"* c #2F110E",
"= c #31120D",
"- c #3C140C",
"; c #200F11",
": c #271110",
"> c #2B1110",
", c #251618",
"< c #20191F",
"1 c #2D1A1B",
"2 c #351E1E",
"3 c #1F1B20",
"4 c #241D23",
"5 c #262026",
"6 c #282127",
"7 c #272329",
"8 c #2C252B",
"9 c #2E282F",
"0 c #3C2221",
"q c #32272C",
"w c #342A2F",
"e c #2F2930",
"r c #332C33",
"t c #3A2E33",
"y c #373037",
"u c #3B3035",
"i c #3C343C",
"p c #3F383F",
"a c #3F3940",
"s c #403740",
"d c #433B44",
"f c #483E47",
"g c #473F48",
"h c #483F49",
"j c #474048",
"k c #4A424B",
"l c #4F4750",
"z c #4E4951",
"x c #504751",
"c c #534A54",
"v c #564F59",
"b c #56515B",
"n c #5A535D",
"m c #5D5661",
"M c #5E5863",
"N c #625A65",
"B c #645D68",
"V c #66616D",
"C c #6A636E",
"Z c #676472",
"A c #6A6673",
"S c #6F6974",
"D c #6F6D7C",
"F c #746E7B",
"G c #79727E",
"H c #767585",
"J c #7A7684",
"K c #7C7884",
"L c #7D7B8A",
"P c #7F7F90",
"I c #807B87",
"U c #837D89",
"Y c #818092",
"T c #898492",
"R c #8F8996",
"E c #888799",
"W c #8C8A9A",
"Q c #928C9A",
"! c #94909F",
"~ c #9391A3",
"^ c #9895A5",
"/ c #9E9AAA",
"( c #A09DAD",
") c #AAA6B8",
"_ c #AFABBB",
"` c #B7B3C3",
/* pixels */
"YYYYYYYPE/(CbAYYPYYY^_`_^KmMT)WYLZlMHPPPHvaalHLUPPUUEPPPYDvi",
"~~~~~~~~QWInbH~~~~~~!Q!RIAzvF!^~WFlBY~~~TMgdxVHE~~~~~~~~^Lmi",
"/((((/((^JmgbJ(((///TFACBmghmG!/^JlZ!((/~MggcnHW(((((((((YMi",
"QQQQQQQQUBfrkSQQQQQQFnccxliyhNIWTAsnUQQWLcagccBU~QWQW~W~QHze",
"NNNNBNNNmvg9rhNNNNNNncccxkw8svNNmh4avNNNvrwaccvMNNNNNNNNMca3",
"vcvvcvclllg84ivvcvvccckkhd44icccxy4rhllhd74icccccvcvvvcvvje3",
"xxlxlclkfhf99icxxxxxxlkiar44ixxxla48sfssy44accccccccvxxhzae3",
"ggggjklgsss44ixkkgggkddir4#4thhkhy34wyyay44accccccccxvxhja73",
"yiiyidfiyir44rfiiiiyyiye4#X<9yusfr#o$4wrr<4izlcxccccckgaay73",
"44644499444#<4q644444444$XX+<44964#XO4444#4rdgkzccvhkgaaie73",
"##4<<4$44##+$###4##+++#3<#<<#44#4<#$#4#4#+4eipdkhxchdaayiy73",
"9wyiiiiiyw998888ww9@O@4yiiiiiiiiiiiiiiyw88ryiipdhddfaieere43",
"ysdgggjjfsiyiyiiasa44#wdkhfffffhjjjjjjddiyiiiipissaaar84773@",
"isdfdfdddsiiiiiiassa4$wfhddfdddddddddddaiiiiiiiiyayaar833@O.",
"iiiiiiiiiiiiiiiiiishr48aaiiiiiayiiiiiiiiipiiiyrrryyyrr93O   ",
"iiiiiiiiiiiiiiiaiaaa9##4eiiiaiiaipiipiiiiiiir874444444993   ",
"hhhfhhdsdfhhdddfdddft88eashhhhhhhkhhhkfkfkffsyrrerrrwyidy877",
"ccccvhhfhhhhhxhhhfffsasddhhhvcvvcccxxxxxxcxxhfdaaaaddjkzjjdd",
"fxccfsiiayshvvhdiaayaahhfssdfhvnvcfddddffcvckdiiiiiijkkjjjjj",
"4yfs4444344dhhd44#3344ydr<<<4qhhls44<<<<6sxxf6<$4$$4yji88764",
"wyar<#4443#rdfa4#44444wa8#<4,4addy$$464<,rddi4$4444#8pu98998",
"ryye#4eyq4#qyar344yr4#4r4#484#raiq44rrr4$qiir$48rr4$8yirrerr",
"4wr9#4rai4#8yae34way444e4<qq<<eair8riir6#8iir<4qii9#5rw65575",
"#494,4wtt4#4req@4qtt444q4<664<8errrrrrq4#6rr8#4qtt4<585#+,#+",
"X@4<o,202,o4444o,2001++4<o11,+444644644#+<444+,2001##<,o%>>*",
"ooooo*---*oooooo:---*;ooo;**>ooooo++o,;ooo+ooo&=--=;oooo*---",
"*****----=*****==---====*=--=******=****=*****=----=****----",
"***=*======***==*=======**====**=*==**=*****====-=**===*====",
"%%%%;;%%%%%%%%%%;;%%%%%%;;;;%%%%%%%%%%%%%%%%:;%%%%;;%%%%%%%%",
".XXXXXXXXXXXX.XXXXXXXXX.XXXXXXXXXXX  XXXXXXX.X.X.XX.XX X.XXX",
"               .                      X     .  .  ..     .  ",
".         X . ..XXX         .XXXX X  X  X   .O.XXXXXXXXXXX  ",
"XX        XX.XXX@@X.       .O@@OXX XXXXXX  X#@@@@@@@@@@@@@. ",
"oXX       XXXoO#@3@. .    .X@33OOXXXXXXXX .X@#@######@##@X. ",
"3+X.      XXXOX$3@@  .XX..O3##O+XXXXoXXXX XXXOOOoXXoXOX#XX. ",
"OXXX     XXXXXX+@3@..XXXO.O3#O+XXoXXXXXXX  XXXXXXXXXXXXXX.  ",
"XXX.    XXXXXXoX@#@..XXX@33@OOXXXXXXXXoXX. .XXXXXoXXXXXXXX  ",
"XXXX   XXXoXXXXX@@@..XXoOX@+XXXXXXoXXXXXX  XXXXXoXXXXXoXXX  ",
"XXX. XXXXXXXOXXX+@+. XXXXOOXXXoXXXXXXXXXX  XXX+XXXXXXXXXX.  ",
"...   XXXXXXXXoXO@@ .XXXXXXXXXXXXXXXoXXXX.XXXXXXXXXoXXXXX   ",
"      XOXXXXoXXOO+O..XXXXXXXXXXXXXXXXXX... XoXXXXXXXoXX     ",
"      XXXXXXXXXXoXX  XXXOoXXXXXXXXX...  .  XXXXXXoXXXXoX    ",
"      XX+XXXoXXXXXX .XXXXXXXoXXXXXXX        XXoXX.   XXX    ",
"     ..XXXXXXXXXXo  .XXXXXXXXXXXXXXXX      .XXXX.           ",
"     ...XX.XXXX.XX    X.XXX.X.XXXXXX.       .X.X            ",
"       .        X       . .                  .              ",
"    ..X.XXX..  X            ..XXXXXX                        ",
"    OO3@@@+XX..XX XXX       .XOO@X#o                        ",
"   .@3@@#+#OXXXXoXXXXX..    Xo+#####@..                 XXXo",
"    @@O@ooXXXXXXXXXXXXXXXX  XXXX@@#$@O.                 XXXX",
"    OOXXXXXoXoXXXXXXXXXX..  .XXXXO###@..               .XXXo",
"     XXXXXXXXXXXXXoXXXX.     oXoXXX##@X.               XXXXX",
"      .XXXXXXXXXXoXXXXX.    .XXooXXXX@XXX              XXXXX",
"     .XXXXXXXXXXXXXXXXX     .XXXXXX#XXXX.             .X  XX",
"       . XXXoXXoXXXXXX      XXXXXXXXXXXX                    ",
"          XXXXXXXXXoXX      .XXXXXXXXoXX                    ",
"            .XXoXXXXoX         XXXXXXXX..                   ",
"              X XXXX.          .XXXX.X..                    ",
"                                                            ",
"                                                            "
};
