/* XPM */
static char *f7ae630efb9c4b92aaacd4c477511e82[] = {
/* columns rows colors chars-per-pixel */
"48 48 91 1 ",
"  c #0A080D",
". c #0B0A0E",
"X c #0D0B0F",
"o c #0F0C0F",
"O c #120A0D",
"+ c #140B0E",
"@ c #150C0D",
"# c #0E0C10",
"$ c #0F0D11",
"% c #110D11",
"& c #140E13",
"* c #130F14",
"= c #150F14",
"- c #190F10",
"; c #1A0E12",
": c #141014",
"> c #151115",
", c #1A1012",
"< c #1C1113",
"1 c #181014",
"2 c #181318",
"3 c #1B161B",
"4 c #1C161B",
"5 c #1D181C",
"6 c #25100F",
"7 c #29100E",
"8 c #2D110E",
"9 c #35120B",
"0 c #33120D",
"q c #36130C",
"w c #3E140B",
"e c #3A130C",
"r c #3A160F",
"t c #271111",
"y c #20191E",
"u c #261A1D",
"i c #331410",
"p c #211B20",
"a c #231E22",
"s c #241D22",
"d c #251F24",
"f c #291D20",
"g c #262025",
"h c #282227",
"j c #292328",
"k c #2B242A",
"l c #2C262B",
"z c #2D262C",
"x c #2F282E",
"c c #2F2A31",
"v c #322B30",
"b c #322C32",
"n c #342E32",
"m c #332D34",
"M c #342D34",
"N c #393237",
"B c #383138",
"V c #3B343B",
"C c #3C353A",
"Z c #3C343C",
"A c #403941",
"S c #423C44",
"D c #443D45",
"F c #473F48",
"G c #47424B",
"H c #49424B",
"J c #4B434C",
"K c #4D454E",
"L c #4F4650",
"P c #4F4B56",
"I c #514952",
"U c #534A54",
"Y c #534C56",
"T c #554D57",
"R c #534F5A",
"E c #574F59",
"W c #5B535E",
"Q c #585460",
"! c #5C5864",
"~ c #605965",
"^ c #66606E",
"/ c #676573",
"( c #696573",
") c #686675",
"_ c #6E6C7B",
"` c #6F6C7C",
"' c #716E7E",
"] c #737181",
"[ c #757383",
"{ c #787787",
"} c #808092",
/* pixels */
"dddd5>>>>>>*..>nCBjda>79O.......................",
"ZGPABMMMMMMmc5>nvd543=79OX$$$$$$$$X.............",
"U^]~TLLLLLLLLx>nh&>>1;8q+$>>==>>&>OX......... ..",
"UE~]!AAAAAAAAg>nh>yauieq,%XXXXXXXXXXX...........",
"UUW{!ZZZZZZBb5>nh>adfrwq<%XXXXXXXXXXXX..........",
"UUW{!ZZZZZBMh3>nh>yauieq<%XXXXXXXXXXXXX.... ....",
"UUW{!ZZZZZbhg3>nh&>>1;8q<%XXXXXXXXXXXXX.........",
"UUW{!ZZZZZMxg3>nvd543=7q;oXXXXXXXXXXXXX.........",
"WUY'!AAAAAAVg>>nNbhsy>79@XXXXXXXXXXXXXX.........",
"{RMYTLLLLLLD3X>nl5a5>&79@XXXXXXXXXXXX........ ..",
"(!RHFFFFFFFAk3>nh2a4;609+XXXXXXXXXXX............",
"U([GZZZZZZBBBa>nh2a4;qw9O.XXXXXXXXXX............",
"U([GZZZZZZbjj3>nh2a4;qw9O................ ......",
"U([GZZZZBbkdd3>nh2a4;609O..$$$$X................",
"U([GZZZZBljhg3>nl5a5>&79O..*>>>OXXXXX...........",
"U([GZZZZVBBMh3>nNbhsy>79O..*%XXXXXXXXX..........",
"U([GZZZZZZZBb5>nvd543=79O..%oXXXXXXXXXXX........",
"U([GZZZZVBBBBa>Mh&>>1;89O..XXXXXXXXXXXXX...... .",
"U([GZZZZBljjj3>Mh>yauie9O..XXXXXXXXXXXXXXX......",
"U([GZZZZBbkdd3>Mh>adfrw9O..XXXXXXXXXXXX.........",
"U([GZZZBBBxdd3>Mh>yauie9O..XXXXXXXXXXXX.........",
"U([GZZZbjjgdd3>Mh&>>1;89O..XXXXXXXXXXXXXXX......",
"U([GZBbkddp55>>nvd543=79O...XXXXXXXXXX..........",
"J!/SBMdppp3>>%>nCBjda>79O....XXXXXXXX...........",
"zvmkjd>%%%%XXX>nCBjda>79O.......................",
"RGZZMxgddd5>oX>nvd543=79OX$$$$$$$$X.............",
"{(WIDZZBBBxa>o>nh&>>1;89O$>>==>>>>OXXXXXXXX.....",
"W(`JZZZbjjgsa>>nh>yauie9O$>>%XXXXXXXXXXXXXXX....",
"U([GZZZMvvkdd3>nh>adfrw9O$>>%XXXXXXXXXXXXX......",
"U([GZZZZZZvdd3>nh>yauie9O$>>%XXXXXXXXXXXXX......",
"U([GZZZZZZvdd3>Mh&>>1;89O$>oXXXXXXXXXXXX........",
"U([GZZZZBbkdd3>Mvd543=79OXOXXXXXXXXXXXXXX.......",
"U([GBBBBMhdsa>>MBvday>79O.XXXXXXXXXXXXXXXXXXX...",
"U([Gbjjjhgda>o>nk21>>&79O.....XXXXXXXXXX........",
"U([Gvddddddp%X>nh=344t09O.......................",
"J!)HMzzgppp5%X>nh>yauieq+.......................",
"zvBJKJJx%%%%XX>nh&>>1;8q,******%XX..............",
"RGZDFFFMa33>oX>nvd543=7q<>>>>>%oXX............. ",
"{(EAZZZZBlga>o>nCBjda>7q<>>>>%XXXX..............",
"W(_GZZZZVBxsa>>nCBjda>7q<>>oXXXXXXXX...X........",
"U([GZZZZZZMxg3>nvd5ya>7q<>>XXXXXXXXX....XXXX....",
"U([GZZZZZZBMh3>nh&>5a>7q,>>XXXXXXXXX....XXXXXX..",
"U([GZZZZZZbhg3>nh>ysa>7q@%>XXXXXXXXX...XXXXXXX..",
"U([GZZZZBbkdd3>nh>ada>79@oOXXXXXXXXX...XXXXXXX..",
"U([GZVBBMhddd3>nh>yay>79@XXXXXXXXXXX...XXXXXXX..",
"U([GZBljhgddd3>Mh&>>>&79@XXXXXXXXXXX...XXXXXX...",
"(^QAZBjdddsa3%>Mvd543=79@XXXXXXXXXX....XXX......",
"}!ZZZBjddddp%X>MZBjda>79@XXXXXXXXX.....XXX......"
};
