/* XPM */
static char *_3bb5f5a48f64db9816a45fe02d3729c[] = {
/* columns rows colors chars-per-pixel */
"48 48 87 1 ",
"  c #09080D",
". c #0C090D",
"X c #0F0C0F",
"o c #120A0D",
"O c #140B0E",
"+ c #150C0D",
"@ c #0F0C11",
"# c #100D10",
"$ c #140E13",
"% c #130F14",
"& c #150F14",
"* c #1A0E12",
"= c #141014",
"- c #1A1012",
"; c #1C1113",
": c #181014",
"> c #181318",
", c #1B1419",
"< c #1C161B",
"1 c #1E181D",
"2 c #25100F",
"3 c #29100E",
"4 c #2D110E",
"5 c #35120B",
"6 c #33120D",
"7 c #35120C",
"8 c #3E140B",
"9 c #3A130C",
"0 c #3A160F",
"q c #271111",
"w c #20191E",
"e c #261A1D",
"r c #331410",
"t c #211B20",
"y c #221C21",
"u c #241D22",
"i c #251F24",
"p c #291D20",
"a c #272126",
"s c #282125",
"d c #292328",
"f c #2B2429",
"g c #2C262A",
"h c #2D262C",
"j c #2F282E",
"k c #2F2A31",
"l c #322B30",
"z c #332C32",
"x c #342E32",
"c c #322D34",
"v c #342E34",
"b c #393237",
"n c #383138",
"m c #3B343B",
"M c #3C353A",
"N c #3C353C",
"B c #413A42",
"V c #423C44",
"C c #463E46",
"Z c #473F48",
"A c #47424A",
"S c #48424B",
"D c #4B434C",
"F c #4D454E",
"G c #4F4650",
"H c #4F4B56",
"J c #514952",
"K c #534A54",
"L c #534C56",
"P c #554D57",
"I c #524F5B",
"U c #554E59",
"Y c #5B535E",
"T c #585460",
"R c #5E5966",
"E c #605965",
"W c #64606D",
"Q c #676573",
"! c #696573",
"~ c #686675",
"^ c #6E6C7B",
"/ c #6F6C7C",
"( c #716E7E",
") c #737181",
"_ c #757383",
"` c #787787",
"' c #808092",
/* pixels */
"                       o53=yidnMx=  %======1iiii",
"             .@@@@@@@@.o53&,<1ilx=1kcvvvvvvnBHAN",
"            .#========@O74*:==$sx=jGGGGGGGGPE)WK",
"           ...........#-79reyw=sx=aBBBBBBBBR)EUK",
"         .............#;780piy=sx=1znNNNNNNR`YKK",
"         .............#;79reyw=sx=,svnNNNNNR`YKK",
"         .............#;74*:==$sx=,aszNNNNNR`YKK",
"         .............o-73&,<1ilx=,ajvNNNNNR`YKK",
"         ..............+53=wuszbx==amBBBBBBR(LKY",
"           ............+53$=1y1gx=.,CGGGGGGPLvI`",
"            ...........O562*<y>sx=,fBZZZZZZZSIR!",
"            .......... o587*<y>sx=ynnnNNNNNNA_!K",
"                       o587*<y>sx=,ddzNNNNNNA_!K",
"                .@@@@  o562*<y>sx=,iifznNNNNA_!K",
"           .....#===%  o53$=1y1gx=,asdgnNNNNA_!K",
"        ...........#%  o53=wuszbx=,svnnmNNNNA_!K",
"        ...........X#  o53&,<1ilx=1znNNNNNNNA_!K",
"        .............  o54*:==$sv=ynnnnmNNNNA_!K",
"      ...............  o59reyw=sv=,dddgnNNNNA_!K",
"        .............  o580piy=sv=,iifznNNNNA_!K",
"         ............  o59reyw=sv=,iijnnnNNNA_!K",
"      ...............  o54*:==$sv=,iiaddzNNNA_!K",
"          ..........   o53&,<1ilx==11tiifznNA_!K",
"           .........   o53=yidnMx=#==,tttivnVQRD",
"                       o53=yidnMx=...####=idfclh",
"        ..   .##@@@@@@.o53&,<1ilx=.X=1iiiajvNNAI",
"     ........#========@o54*:==$sx=X=yjnnnNNCJY!`",
"   ................#==@o59reyw=sx==yuaddzNNND/!Y",
"      .............#==@o580piy=sx=,iifllvNNNA_!K",
"      .............#==@o59reyw=sx=,iilNNNNNNA_!K",
"        ............X=@o54*:==$sv=,iilNNNNNNA_!K",
"   . . ..............#.o53&,<1ilv=,iifznNNNNA_!K",
"   ................... o53=wyilnv==yuisvnnnnA_!K",
"        ..........     o53$==:>fx=X=yiasdddzA_!K",
"            ..         o56q<<,&sx=.#tiiiiiilA_!K",
"                   .   O79reyw=sx=.#1tttahhvS~RD",
"              ..#%%%%%%-74*::=$sx=..####jDDFDnlh",
"              ..X#=====;73&,<1ilx=.X=,,yvZZZCNAI",
"              ....#====;73=yidnMx=X=yagnNNNNBU!`",
"     ....   ........X==;73=yidnMx==yujnmNNNNA^!Y",
"   ......   ........X==;73=yw1ilx=,ajvNNNNNNA_!K",
"  .......   ........X==-73=y1=$sx=,svnNNNNNNA_!K",
" ........   .........=#+73=yuw=sx=,aszNNNNNNA_!K",
"  .......   .........#X+53=yiy=sx=,iifznNNNNA_!K",
"  .......   ...........+53=wyw=sx=,iiisvnnmNA_!K",
"   ......   ...........+53$===$sv=,iiiasdgnNA_!K",
"      ...    ..........+53&,<1ilv=#,yiiiidnNBTW!",
"      ...     .........+53=yidnNv=.#tiiiidnNNNR'"
};
