/* XPM */
static char *c498bf1a9ea74ebf9c14bb3f94f13d26[] = {
/* columns rows colors chars-per-pixel */
"48 48 7 1 ",
"  c None",
". c #191417",
"X c #1E1A1A",
"o c #251F20",
"O c #2C2526",
"+ c #322729",
"@ c #3A2D2D",
/* pixels */
"                ................                ",
"                .O++.O+++++.++O.                ",
"                .OO+.OOO+O+.+OO.                ",
"                .OO+.OO++O+.+OO.                ",
"                .OO+.O+++O+.+OO.                ",
"                .OOO.O+++OO.OOO.                ",
"                .OOO.O+++OO.OOO.                ",
"                .oOO.o+O+OO.OOO.                ",
"                .oOo.ooo+Oo.Ooo.                ",
"                .ooo.oooooo.ooo.                ",
"                ................                ",
"                  ............                  ",
"                  ...oo.o.o...                  ",
"                  ..oooXoXoo..                  ",
"                  ..oOOXoXOo..                  ",
"                  ..oO@X@XOo..                  ",
"                  ..oO@X@XOo..                  ",
"                  ..oO@X@XOo..                  ",
"                  .oo+@X@X+o..                  ",
"                  .oo+@X@X+o..                  ",
"                  .oo+@X@X+o..                  ",
"                  .oo+@X@X+o..                  ",
"                  .oo+@X@X+o..                  ",
"                  .oo+@X@X+o..                  ",
"                  .oo+@X@X+oo.                  ",
"                  .oo+@X@X+oo.                  ",
"                  .oo+@X@X+oo.                  ",
"                  .oo+@X@X+oo.                  ",
"                  .oo+@X@X+oo.                  ",
"                  ..o+@X@X+oo.                  ",
"                  ..o+@X@X+oo.                  ",
"                  ..o+@X@X+oo.                  ",
"                  ..o+@X@X+oo.                  ",
"                  ..o+@X@X+oo.                  ",
"                  ..o+@X@X+oo.                  ",
"                  ..oo@X@X+oo.                  ",
"                  ..oo@X@X+oo.                  ",
"                  ..oO@X@Oooo.                  ",
"                  ..oO@X@Oooo.                  ",
"                  ..oO+X+Ooo..                  ",
"                 .X.oO+o+Ooo.X.                 ",
"                 .X.oO+o+OOo.X.                 ",
"                .XX.oooooooo.XX.                ",
"                .O++++@@@@@@@@+.                ",
"                .OOOOOOOOOO++++.                ",
"                .oooooOOOOOOOO+.                ",
"                .oooooooooooooo.                ",
"                .XXXXXXXXXXXXXX.                "
};
