/* XPM */
static char *_3d253be171e4445adad6c489a641836[] = {
/* columns rows colors chars-per-pixel */
"48 48 83 1 ",
"  c #09080D",
". c #0C090E",
"X c #120A0D",
"o c #160C0F",
"O c #0F0B10",
"+ c #0E0C11",
"@ c #110B10",
"# c #120C11",
"$ c #140D12",
"% c #110F14",
"& c #160F14",
"* c #1B0F12",
"= c #131015",
"- c #171116",
"; c #1C1012",
": c #181217",
"> c #1F1316",
", c #181318",
"< c #1B161B",
"1 c #1C161B",
"2 c #1B171C",
"3 c #1C171C",
"4 c #1B181D",
"5 c #1D191E",
"6 c #240F0E",
"7 c #29100E",
"8 c #2D110E",
"9 c #35120B",
"0 c #33120D",
"q c #36120C",
"w c #3E140B",
"e c #3A130C",
"r c #38140E",
"t c #210F10",
"y c #271111",
"u c #211619",
"i c #23181B",
"p c #20191E",
"a c #28191B",
"s c #371713",
"d c #3E1A13",
"f c #201B20",
"g c #221C21",
"h c #251E23",
"j c #251F24",
"k c #291D20",
"l c #252025",
"z c #282127",
"x c #2C2226",
"c c #2A2329",
"v c #2A252A",
"b c #2E262D",
"n c #362121",
"m c #322325",
"M c #3D2423",
"N c #392424",
"B c #30292F",
"V c #362A2E",
"C c #2F2930",
"Z c #322A31",
"A c #322C33",
"S c #372E36",
"D c #3C2F34",
"F c #373037",
"G c #383037",
"H c #3A3139",
"J c #3C353C",
"K c #3F383F",
"L c #433B43",
"P c #453D46",
"I c #473F48",
"U c #4A414B",
"Y c #4C434D",
"T c #4E454E",
"R c #4F4650",
"E c #534A53",
"W c #534A54",
"Q c #554B55",
"! c #554C56",
"~ c #584F58",
"^ c #5A5059",
"/ c #5C525C",
"( c #5E545E",
/* pixels */
"                       X97-gjg-HEp$$$$$$$$$$$$$$",
"          ...#========#oq7-gjg-HEp-,,pzzbZZZZZh$",
"          O$$:35555555<;q7-pgp-HEp,5gCJKUWWWWWZ$",
"         @#$$$-35555555ur7$---$HEp,gAHKYEWWWWWZ$",
"       .O#$$$$$:,,,<555ir0y11<&HEp,gFJLRWWWWWWZ$",
"       .$$$$$$$$$$$:355irwrkjg-HEp,gFJLRWWWWWWZ$",
"       .$$$$$$$$$$$$-35irwrkjg-HEp,gFJLRWWWWWWZ$",
"       .$$$$$$$$$$$$&2<>r0y11<&STp,fvSJPIIIIUEZ$",
"       O$$$$$$$$$$$$&2,*q7$,<<3HU3,55vFFHJJJKYZ$",
"      @#$$$$$$$$$$$$&2,*q7,BSHPTU3,55fggCJJJJKc$",
"      .#$$$$$$$$$$$$$:-*q7-hzcZLU3,55555lCHJJJz$",
"       .###$$$$$$$$$$$$*q8*,<,$SU5:222222fZSSSh$",
"          O$$$$$$$$$$$$*qesVSB,HEp$&&&&&&-,<<<-$",
"          .............oqwdDJS<H^LHHHHHHHHHHHHHH",
"                  OOOO X9esVSB,H((~EEEEEEQ/(((((",
" .######@    .####<<<<%X98*,<,$S!!HppppppcY!!!!!",
" .$$$$$$#O. .#$$$$:<55=X97-hzzzGIIb-hzzz31JIIIII",
" .$$$$$$$$. #$$$$$$:35=X97<SJJJJJJz<SJJJz<SJJJJJ",
" .$$$$$$$$. #$$$$$$$-3=X97<SJJJJJJz<SJJJz<SJJJJJ",
" .$$$$$$$$. #$$$$$$$$:#X97:nmzzzxNa:nMMMa-hzzzzz",
" .#$$$$$$#. #$$$$$$$$$.X98te8***te8tewww8*******",
"  .#$$$$#.  #$$$$$$$$$.X9eeweqqqeweewwwweqqqqqqq",
"   ......   ............677777777777777777777777",
"                        @###########&&&&&&&&&###",
"                                   O<2222222<O  ",
"            ..+%====%+...#==+ %====-455555554-==",
"           .#$&<2222<&$$$:35-O<22222222255555322",
"         @##$$$&&&&&&$$$$$-3= #&&&&&&&&&<5553-&&",
"         #$$$$$$$$$$$$$$$-<5= #$$$$$$$$$-,,,:$$$",
"         @####$$$$$$$$$$$,53% #$$$$$$$$$$$$$$$$$",
"             O$$$$$$$$$$$,3-+ #$$$$$$$$$$$$$$$$$",
"            .#$$$$$$$$$$$,2&. #$$$$$$$$$$$$$$$$$",
"            #$$$$$$$$$$$$:<&. #$$$$$$$$$$$$$$$$$",
"            #$$$$$$$$$$$$$&$. #$$$$$$$$$$$$$$$$$",
"            .#$$$$$$$$$$$$$$. .....O#$$$$$$$$$$$",
"             .##############.       @###########",
"                                                ",
"         ......            .......#========#....",
"        .#$$$$#.          .#$$$$$$:22222223:$$$$",
"       .#$$$$$$#.        .#$$$$$$$$&&&&&&&&$$$$$",
"       .$$$$$$$$.        .$$$$$$$$$$$$$$$$$$$$$$",
"       .$$$$$$$$.        .$$$$$$$########$$$$$$$",
"       .$$$$$$$$.        .$$$$$$#.   .  O$$$$$$$",
"       ..........        ........    ...#$$$$$$$",
"                                     .#########$",
"                                              O$",
"                                              ..",
"                                                "
};
