/* XPM */
static char *_fc7b59b8c6d4132b6722e3646523f5e[] = {
/* columns rows colors chars-per-pixel */
"48 25 77 1 ",
"  c #09080D",
". c #0C0A0F",
"X c #0D0B10",
"o c #0E0C10",
"O c #110F13",
"+ c #120F14",
"@ c #131014",
"# c #161216",
"$ c #161318",
"% c #17141A",
"& c #181418",
"* c #1A151A",
"= c #1C171B",
"- c #19161D",
"; c #1C171C",
": c #1D191D",
"> c #201A1F",
", c #1F1A20",
"< c #201B20",
"1 c #221D22",
"2 c #241E23",
"3 c #231F25",
"4 c #251F24",
"5 c #262025",
"6 c #282227",
"7 c #272228",
"8 c #292329",
"9 c #2A242A",
"0 c #2C262B",
"q c #2D272D",
"w c #2E282D",
"e c #30292F",
"r c #2F2A30",
"t c #322B31",
"y c #332D33",
"u c #342D33",
"i c #332D34",
"p c #342D34",
"a c #373036",
"s c #383137",
"d c #373238",
"f c #393239",
"g c #3A343A",
"h c #3A363C",
"j c #3C353C",
"k c #3E373F",
"l c #3F383F",
"z c #3F3B42",
"x c #423B42",
"c c #463E46",
"v c #473F48",
"b c #47424A",
"n c #484049",
"m c #4B434C",
"M c #4C444D",
"N c #4F4B53",
"B c #504751",
"V c #504851",
"C c #534A54",
"Z c #514C55",
"A c #57525B",
"S c #65616C",
"D c #716D78",
"F c #757080",
"G c #7A7681",
"H c #7A7585",
"J c #7D7986",
"K c #7D7889",
"L c #837E8F",
"P c #888394",
"I c #8E899A",
"U c #928D9E",
"Y c #9893A4",
"T c #9A95A5",
"R c #9C97A6",
"E c #A6A2B1",
"W c #A8A3B4",
/* pixels */
"KKKKKKKKKKKKKKKKKKKFkbKKKKKKKKKKKKKKKKKKKKKKKKKK",
"KKKKKKKKKIYYPKKKKKKFkZYYYYYYYYYYYYYYYYYYYYYPKKKK",
"LLLLLLLLLTEEULLLLLLHzAEEEEEEEEEEEEEEEEEEEEEULLLL",
"WWWWWWWWWSzzGWWWWWWRbrzzzzzzzzzzzzzzzzzzzzzJWWWW",
"GGGGGGGGGh##NGGGGGGDd*#####################ZGGGG",
"################################################",
"kkkkkkkkkky*qkkkkkawwww:1kkkkkgtwtgq*ykkkkkkkkkk",
"CBMMMMMMMVx*pMMMMMckkkg15nMMMMnkklMf*xVMMMMMMMBC",
"Cnkkkkkkkmx*qkkkkkkkkkg11kkkkkkkglMf*xmkkkkkkknC",
"Cngtukggkxf*2tfkkkkkkkg11gkkkkkkgkct*xnkgkkkkhxc",
"Mcf9qgkkkkt*4tpaaaaagkg<<gkkkkggkkk9*kvkjjkkkkkk",
"lkf9wkkkkkt*pcq66669akg--gkkkkggkkk9*ykkkkkkkkkk",
"kkf9wkkftft*3tfkkkt5qpg-$wsgkkkkkkk9O5tteeeett93",
"kga8wkkp4ut*o%xnnna118i%+2ygkkkkkkf5 *11111111# ",
"ku85wkkp4yt*oX%---$oo+#X+2tgjgkkkfw: ooooooooo. ",
"kt44wkkp4q8O.           +2tkjgkkat6*      oooo  ",
"kt44qggy44:             +2ygggkkt44*     X####o ",
"kt44600844:    XOOOO    +2800pkkt44*  .OOO####@O",
"pq44444444:   .O####o   #0644tfpq44*  X#########",
"4444444444:  .@######O  -fq44ts8444*  X#########",
"yq4444444w7X .@######O  -gae5905444*  X#########",
"kp9999559pwX o#######O. *ppy0999999: o+#########",
"kgffff90fgwXo#########@.@550fffffff5 -:#########",
"555555><55, #::::::::::Oo=;:5555555- :1:::::::::",
"##########O *4444444442+X##########O :4444444444"
};
