/* XPM */
static char *_a1a5a4343b64f9e875dd508757a3162[] = {
/* columns rows colors chars-per-pixel */
"48 48 102 2 ",
"   c #0A080D",
".  c #0E0A0F",
"X  c #0C0B10",
"o  c #0F0B10",
"O  c #0D0C11",
"+  c #110B10",
"@  c #120C11",
"#  c #140D12",
"$  c #110F14",
"%  c #160F14",
"&  c #121015",
"*  c #161217",
"=  c #181217",
"-  c #161318",
";  c #171419",
":  c #181318",
">  c #1A161B",
",  c #1B171C",
"<  c #1C161C",
"1  c #1B181D",
"2  c #1D191E",
"3  c #1E1B21",
"4  c #201B20",
"5  c #221E23",
"6  c #231E24",
"7  c #241F25",
"8  c #262127",
"9  c #272228",
"0  c #282329",
"q  c #2A252B",
"w  c #2B262C",
"e  c #2C272D",
"r  c #2D282E",
"t  c #2E2A30",
"y  c #302A30",
"u  c #322C33",
"i  c #332D34",
"p  c #342E34",
"a  c #373037",
"s  c #363038",
"d  c #383139",
"f  c #3B343B",
"g  c #3A353D",
"h  c #3C353C",
"j  c #3F383F",
"k  c #3F3840",
"l  c #423A42",
"z  c #433D45",
"x  c #463E46",
"c  c #473F48",
"v  c #47424A",
"b  c #49434B",
"n  c #4B434C",
"m  c #4C434D",
"M  c #4C464F",
"N  c #4F4650",
"B  c #504751",
"V  c #514852",
"C  c #534A54",
"Z  c #514C55",
"A  c #564D57",
"S  c #59515B",
"D  c #5B535D",
"F  c #5B545E",
"G  c #585460",
"H  c #5C5460",
"J  c #5E5A67",
"K  c #615963",
"L  c #625A65",
"P  c #645C67",
"I  c #605C69",
"U  c #68646F",
"Y  c #6C6773",
"T  c #6E6974",
"R  c #6F6D7C",
"E  c #706975",
"W  c #736D79",
"Q  c #79727E",
"!  c #757383",
"~  c #7B7682",
"^  c #7D7682",
"/  c #7B7A89",
"(  c #7F7E8F",
")  c #857E8B",
"_  c #807E8E",
"`  c #808092",
"'  c #858496",
"]  c #898391",
"[  c #8B8998",
"{  c #8E8D9E",
"}  c #908C9B",
"|  c #938E9C",
" . c #9693A1",
".. c #9795A6",
"X. c #9893A1",
"o. c #9895A5",
"O. c #9B99AA",
"+. c #9F9AA9",
"@. c #A19DAD",
"#. c #A6A1B0",
"$. c #AEAABB",
"%. c #B7B3C3",
/* pixels */
"h J ` ` ` ! v J ` ` ` ` ` ` ` ` J V @.O.` ` J h h J ` ` J h h h v ! ` ` ` ` [ $.~ V @.%.$.[ J h ",
"h Y O.O.O.[ M J ' ..O...' { O.O.Y b Q } O.O.Y h h J ` ` R G l F ~ ( ` ' ..O.o.] L b Q ) ] o.Y h ",
"a T #.#.#.| b I { @.#.+._ { #.#.T h M ^ #.#.T a a I [ [ [ / c T @.{ [ { @.#.X.K c l N C K X.T a ",
"5 z P P P S r U @.E P L H H P P z q n D P P z 5 5 U $.$.$. .g z E @.$.@.E P K A c l N C A K z 5 ",
"2 d C C C b 8 Z ^ D C C C C C C d 7 l M C C d 2 2 Z ) ) ) W t d D ^ ) ^ D C M h u i M C C C d 2 ",
"2 d C C V c 8 d C C C C C C C C d 5 a c C C d 2 2 d C C C b 6 s V B V C C C b 8 1 6 b V B V d 2 ",
"2 d C C b d 6 d C C C C C C C C d 5 a c C C d 2 2 d C C C c > y B l b C C C b 8 * > c b l B d 2 ",
"2 u c c l a 5 d C C C C C C C C d 5 a l c c u 2 2 d C C M h & q x h c C C M l 7 & - c c l N d 2 ",
"2 0 i i i y 5 d C C C C C C C C d 5 y i i i 0 2 2 d V B x i & 3 p f x N N x a 5 & - c c l N d 2 ",
"2 ; & & & & , d C C C C C C C C d , & & & & ; 2 2 d B l h i & O > p h l l h a 5 & - c c l N d 2 ",
"2 * .     o > u b V C C C C C C d > o       & 2 2 d N l l h &   O 3 6 6 6 6 5 - O & h l f d q 2 ",
"2 : @     o > w l N C C C C C C d > o       * 2 2 a m j l k *                     & i h a 5 2 2 ",
"2 : @     o > e l N C C C C C C d > o . @ @ : 2 2 r j h y 5 O                     & i h a 5 2 2 ",
"2 : @ o . o > e l N C C C C C C d > o . # # : 2 2 e g h e > o           . .       & i p q 4 2 2 ",
"2 : # # . o > e l N C C C C C C d > o . # # : 2 2 r j h e > o         . @ o       & i e 3 8 5 2 ",
"2 : # # . o > e l N C C C C C C d > o . # # : 2 2 a m j e > o       . @ # @ +     & i e 8 l i 2 ",
"2 : # # . o > w l N C C C C C C d > o . # # : 2 2 d N l e > o     . @ # # # @ o . O 9 8 8 b d 2 ",
"2 - # # . o > w l N C C C V B V d > o . # # : 2 2 d N l e > o     @ # # # # # # . o > 5 e b a 2 ",
"2 : # # . o > e l N C C C b l B d > o . # # : 2 2 d N l e > o     @ # # # # # # . o > i b l r 2 ",
"2 : # # . o > e l N C C C c l N d > o . # # : 2 2 d N l p 9 O     @ # # # # # # . o > d N l e 2 ",
"2 : # # . o > e j m V V B x j m a > o . # # : 2 2 d N l h i &     @ % % % % % # . o > d N k e 2 ",
"2 : # # . o > e h j b B l h h j r > o . # # : 2 2 d N l h i &   o > , , , , > % . o > s N l e 2 ",
"2 > > 7 > o > e h h l x h h h h e > o . # # : 2 2 u x h h i &   o > 2 2 2 2 2 > @ o > d N l e 2 ",
"2 2 5 a 6 . ; 0 d f h h h h h h w ; . O * : < 2 2 e h h d y &   . ; 1 2 2 2 2 2 & o > d N l e 2 ",
"2 2 5 a 6   . ; 8 d h h h h h h 8 .   $ 4 y q 2 2 e h h t 5 , $   . * 2 2 2 2 2 & o > d N l e 2 ",
"2 2 5 a 6     & 5 a h h h h h h 6     & 5 a e 2 2 e h h e 2 2 > - 5 5 2 2 8 q 4 > ; 0 d x h e 2 ",
"2 2 5 a 6     & 5 a h h h h f d 5     - 8 d w , 2 e f d q 2 5 4 5 a t 5 5 t a 5 2 5 a h h h e 2 ",
"2 2 5 a 6     & 5 a h h h h d 8 -     5 d f 8 O , e d 8 4 5 u q 5 a d a a d a 5 2 5 a h h h e 2 ",
"& > 5 a 6     & 5 a h h h h a 5 &     6 h h 6 o > e a 5 8 t d e 5 a h h h h a 5 2 4 q p h h e 2 ",
"  & 5 a 6     & 5 a h h h h a 5 &     6 f d 5 O 2 t a 5 e h h e 5 a h f d a u 5 2 2 2 q d f e 2 ",
"  & 5 a 6     & 5 a h h h h a 5 &     6 d 8 - $ t d a 5 e h h e 5 a h d 8 5 5 2 2 2 2 4 8 d e 2 ",
"  & 5 a 6     & 4 q e e e e q 4 &     6 a 5 & O 9 p a 5 e h h e 5 a h a 5 2 2 2 8 q 4 2 5 a p e ",
"  - 8 i 5 .   & 2 2 2 2 2 2 2 2 &     6 a 5 & o > e a 5 e h h e 5 a d u 5 2 2 2 e a 5 2 5 a d a ",
"  5 i 8 2 ; . & 2 2 2 2 2 2 2 2 &     6 a 5 & o > e a 5 e h h e 5 a t 5 2 2 2 2 e a 5 2 5 a t 5 ",
"  6 a 5 2 > o & 2 2 2 2 2 2 2 > @     6 a 5 & o > e a 5 e h h e 4 q 8 1 * & * 1 e a 5 2 5 a e 2 ",
"  6 a 5 2 > o $ , , 2 2 2 2 , % .   . 5 u 5 & . ; w a 5 e f d q 2 , > ; .   o > e a 5 2 5 a e 2 ",
"  6 a 5 2 > o O % % > 2 2 2 , % . . ; 2 5 2 &   . 8 a 5 e d 8 4 , O o .     o > e a 5 2 5 a e 2 ",
"  , q 4 2 > o . # # $ * 1 > = # . o > 2 2 2 &     , q 4 e a 5 > $   . .     o > 8 q 4 2 4 q 8 2 ",
"o * 2 2 2 > O o # # . . ; * # # . o > 2 2 2 &     & 2 2 q u 5 &     . @     . ; 1 2 2 1 , 2 2 2 ",
"> 1 2 2 2 , # @ # # .   . @ # # . o > 2 2 2 &     & 2 2 4 5 2 &     . @       . * 2 2 * O , 2 2 ",
"& & * 1 > & # # # # .     . # # . o > 2 2 2 &     & 1 * > 2 2 &     . @ o .     O * 1 & o > 2 2 ",
"    o > &   + @ # # .     . # # . o > 2 2 , $     $ ; . & 2 2 &     . # # .       . ; $ o > 1 > ",
"    o > &     o # # .     . # # . o > 2 , O         .   & 2 2 &     . # # .         .   o > * o ",
"    o > &     . o @ .     . # # . o > 2 > o             & 1 * O     . # # .             o > &   ",
"    . ; $         @ .     . # # o o ; > ; .             & > o       . @ # .               ; $   ",
"      .           @ .     . # # @ @ o o .               & > o         . @ .               .     ",
"                  @ .     . # # @ .                     O $             @ .                     ",
"                  @ .     . # # .                                       @ .                     "
};
