/* XPM */
static char *a2c09a51c9dd4d248f1baa05a6a86cef[] = {
/* columns rows colors chars-per-pixel */
"60 60 79 1 ",
"  c #0A080D",
". c #160B0D",
"X c #1B0D0E",
"o c #0F0B10",
"O c #130D12",
"+ c #1D0F10",
"@ c #161015",
"# c #1B1115",
"$ c #171318",
"% c #1A151A",
"& c #1D191D",
"* c #220F0F",
"= c #26100F",
"- c #2E110E",
"; c #33120D",
": c #3B140C",
"> c #200F10",
", c #221111",
"< c #2C1210",
"1 c #241618",
"2 c #22191E",
"3 c #2D191A",
"4 c #321512",
"5 c #351814",
"6 c #331D1D",
"7 c #3B1F1C",
"8 c #36201F",
"9 c #1F1B20",
"0 c #241D22",
"q c #291D20",
"w c #262026",
"e c #292025",
"r c #2B232A",
"t c #2E2328",
"y c #2B242A",
"u c #2E272D",
"i c #2F282E",
"p c #322122",
"a c #352222",
"s c #3B2220",
"d c #3D2221",
"f c #32272C",
"g c #33282D",
"h c #312A30",
"j c #362B30",
"k c #322C33",
"l c #352E35",
"z c #3A2E33",
"x c #392F34",
"c c #382F38",
"v c #373037",
"b c #3A3035",
"n c #3C3034",
"m c #373138",
"M c #393139",
"N c #3B343B",
"B c #3C353C",
"V c #3F383F",
"C c #3F3840",
"Z c #403740",
"A c #403840",
"S c #443B43",
"D c #433B44",
"F c #473F47",
"G c #473F48",
"H c #483F48",
"J c #484049",
"K c #4C424B",
"L c #4C434C",
"P c #4E454E",
"I c #50464F",
"U c #4F4750",
"Y c #504750",
"T c #504851",
"R c #534A54",
"E c #544B55",
"W c #554C55",
"Q c #584E58",
"! c #5B525C",
/* pixels */
"                                                            ",
"                                                            ",
"                                                           O",
"                                                         oOO",
"                                               OOOOOOOOOOOOO",
"                                                  OOOOOOOOOO",
"          OOOOOOOOOO            OOOOOOOOO         oOOOOOOOOO",
"          OOOOOOOOOO            OOOOOOOOOOo      oOOOOOOOOOO",
"          OOOOOOOOOO            OOOOOOOOOOOOOOOOOOOOOOOOOOOO",
"          OOOOOOOOOO            OOOOOOOOOOOOOOOOOOOOOOOOOOOO",
"          OOOOOOOOOO            OOOOOOOOOOOOOOOOOOOOOOOOOOOO",
"           OOOOOOOO              oOOOOOOOOO$%%%%%%%%%$@OOOOO",
"            OOOOOO                OOOOOOOOO@$$$$$$$$$@OOOOOO",
"                                           oOOOOOOOOOOo     ",
"                                                            ",
"                 oOOOOOOOOOOOOOOOOO          OOOOOOOOOOOOOOO",
"                oOOOOOOOOOOOOOOOOOO         oOOOOOOOOOOOOOOO",
"               oOOOOOOOOOOOOOOOOOOO   OOOOOOOOOOOOOOOOOOOOOO",
"               OOOOOOOOOOOOOOOOO@@O   OOOOOOOOOOOOOOOOOOOOOO",
"               OOOOOOOOOOOOOOOO@%$Oo  OOOOOOOOOOOOOOOOOOOOOO",
"                OOOOOOOOOOOOOOO@%%Oo  OOOOOOOOOOOOOOOOOOOOOO",
"                oOOOOOOOOOOOOOO@%%@O  OOOOOOOOOOOOOOOOOOOOOO",
"                OOOOOOOOOOOOOOO@%&$O  OOOOOOOOOOOOOOOOOOOOOO",
"           oOOOOOOOOOOOOOOOOOOO@%&%@o OOOOOOOOOOOOOOOOOOOOOO",
"           OOOOOOOOOOOOOOOOOOOOO@%&@ooOOOOOOOOOOOO@$%%$$@OOO",
"            OOOOOOOOOOOOOOOOOOOO@$%@ooOOOOOOOOOOOO$&&&&&$@OO",
"              oOOO@$%%%%%$@OOOO@$%&@oO$%%%%%%%%%%%&&&&&&%%%%",
"               oOOO@$$$$$@OOOOOO@%$OoO@$$$$$%&&&&&&&&&&&%%$$",
"                  ooOOOOOoo    oOOOo oOOOOOO@%&&&&&&&&&&@OOO",
"                                            O$%%%%%%%%%%O   ",
"                              OOOOOOOOOOOOOOOO@@@@@@@@@@OOOO",
"                              X**************,,,,,,,,,,,****",
"    OOOOOOO    oOOOOOOOOOOO  .-;;;;;;;;;;;;;;;;;;;;;;;;;;;;;",
"   oOOOOOOOo   OOOOOOOOOOOOO .;;;;:;;-;;;::;;:::::;;--------",
"  OOOOOOOOOOO  OOOOOOOOOOOOO .;-=,;<,###,4;<,;::::->+#######",
"  OOOOOOOOOOO  OOOOOOOOOOO@OO.;-,18pe000ea61#6sdds3#%0000000",
"  OOOOOOOOOOO  OOOOOOOOOO@%@O.;-,2jxlllllbf0%gznnze%0hllllll",
"  OOOOOOOOOOO  OOOOOOOOO@%&%O.;-,0lNBBBBBBh0&hMBBMr2evBBBBBB",
"  OOOOOOOOOOO  OOOOOOOO@%&&%O.;-,2hlllvNVCl0%ullllw&rMCCCAAA",
"  OOOOOOOOOO    OOOOOO@$%&&%O.;-,%00w0yMFJBe$00ww0&&uAJJJJJJ",
"  OOOOOOOOO      OOOOO@%%%%$O.;;,$%%%$2cTEFh22000020MPEEEEEE",
"                      oOOOOo .;;43tuy20MQ!WLSSSSSSSFIQ!!!!!!",
"                             .;::7zMl00BQTLHFFFFFFFFJJKKKKKK",
"              OOOOOOOOOOOOOOOX;::7zMlw0BEAhuuuuuuuuugggggguu",
"             OOOOOOOOOOOOOOOO+;:46ghi00MPu%O@@@@@@@@$%&&&%@O",
"          OOOOOOOOOOOOOOOOOOO+;;,#%&%$&xJy%$%%%%%%%&whhhhy&O",
"         OOOOOOOOOOOOOOOOO@@O+;-,%000wgZHy%%&&&&&&0rhMMMMh0O",
"        OOOOOOOOOOOOOOOOOO$$$+;-,&yuhlBJJr%%&&&990ykMNBBBk0O",
"        OOOOOOOOOOOOOOOOOO%%$+;-,&ruilBHJr%%&&0wryhMBBBBAb0O",
"         oOOOOOOOOOOOOOOOO%%$+;->$$%%%0MGy%%&&whMMNBBBBAJBrO",
"         .OOOOOOOOOOOOOOOO%%%1;;-1%%%$2MJu%%0rhMVFFFFFFJPArO",
"          OOOOOOOOOOOOOOO@%&&1;:;4202%2NPu%%0hMBAPUUUUUYTDrO",
"          OOOOOOOOOOOOOO@%&&&1;::5q00%0BYg%%wlMBFURRRRRRRArO",
"          OOOOOOOOOOOOO@%&&&21;:;4202%0BYg%&wlMBFURRRRRRRArO",
"          oOOOOOOO@$$%%%&&&&&1;;-,%%%$2BYg%%wlMBFUTRRRRRRArO",
"           oOOOOOO$&&&&&&&&&&1;->O@@@O&BYg%%0hmBAPTTRRRRRArO",
"            oOOO@$%&&&&&&&&&%#;-#$&&&$2BYg%%0wiMVFJTRRRRRArO",
"              OOO@%%%$%%$%%@@+;-,$000%0BYg%$&&0uklMAAAAAAl0O",
"                ooOOooOOOOOoo.;-,%000%0BYg%@@@%&000rrrrrr0%O",
"                             .;-,%000%0BYg$OOOOOOOOOOOOOOOOO"
};
