/* XPM */
static char *dc3e6cd08b614328b54702d41404b6de[] = {
/* columns rows colors chars-per-pixel */
"60 60 80 1 ",
"  c #0A080D",
". c #160B0D",
"X c #1B0D0E",
"o c #0F0B10",
"O c #130D12",
"+ c #1D0F10",
"@ c #161015",
"# c #1B1115",
"$ c #171318",
"% c #1A151A",
"& c #1D191D",
"* c #220F0F",
"= c #26100F",
"- c #2E110E",
"; c #33120D",
": c #3B140C",
"> c #200F10",
", c #221111",
"< c #2C1210",
"1 c #241618",
"2 c #22191E",
"3 c #2D191A",
"4 c #321512",
"5 c #351814",
"6 c #331D1D",
"7 c #3B1F1C",
"8 c #36201F",
"9 c #1F1B20",
"0 c #241D22",
"q c #291D20",
"w c #262026",
"e c #292025",
"r c #2A2229",
"t c #2B2429",
"y c #2B242A",
"u c #2C242A",
"i c #2D262D",
"p c #2E292F",
"a c #342222",
"s c #3C2221",
"d c #32272C",
"f c #30282F",
"g c #322B32",
"h c #332B32",
"j c #332C33",
"k c #342E35",
"l c #372F37",
"z c #3A2E33",
"x c #382F37",
"c c #382F38",
"v c #3B3034",
"b c #383037",
"n c #373138",
"m c #3A333A",
"M c #3C333B",
"N c #3B343B",
"B c #3C353C",
"V c #3C363C",
"C c #3F373F",
"Z c #3F383F",
"A c #3F3840",
"S c #403740",
"D c #433A43",
"F c #433B43",
"G c #443C45",
"H c #463E47",
"J c #473F48",
"K c #483F48",
"L c #494049",
"P c #4B424B",
"I c #4D444D",
"U c #4E454F",
"Y c #50464F",
"T c #4F4750",
"R c #504751",
"E c #524953",
"W c #534A54",
"Q c #544B54",
"! c #584F58",
"~ c #5B525C",
/* pixels */
"OOOOOOOOOOOOOOOOO$fRC0%000%,-;.                             ",
"O%0rrrrrr000&%@@@%fRC0%000%,-;.OoOOOOOoooooo                ",
"O0lDDDDDDmlji0&%$%fRC0%002@,-;+@@%%%%$$$%%@OOO              ",
"OrDWWWWWELHZmpw0%%fRC2@&&%@#-;,%%&&&&&&&&%$@OOOo            ",
"OrDWWWWWEEUDCng0%%fRC&O@@@O>-;1&&&&&&&&&&@OOOOOOo           ",
"OrDWWWWWWETHCmlw%%fRC2@%%%,-;;1&&&&%%%%$$@OOOOOOOo          ",
"OrDWWWWWWWTHCmlw%%fRC0%2024::;1&&&&%@OOOOOOOOOOOOO          ",
"OrDWWWWWWWTHCmlw%%fRC0%00q5::;1&&&%@OOOOOOOOOOOOOO          ",
"OrDERTTUUUUDCmg0%%iUM2%2024::;1&&%@OOOOOOOOOOOOOOO          ",
"OrDULHHHHHHZmgr0%%iLm2@%%%,-;;,%%%OOOOOOOOOOOOOOOO          ",
"OrCLDCCCCNmmgw&&%%yJm0%%%%@>-;+@%%OOOOOOOOOOOOOOOOo         ",
"O0bDCCCCmgyrw0&&%%rLKClpir&,-;+@%%OOOOOOOOOOOOOOOOOO        ",
"O0jCCCNbjy099&&&%%rLLClgiy&,-;+@$$OOOOOOOOOOOOOOOOOO        ",
"O0gmmmbgr0&&&&&&%%yKSfe000%,-;+O@@OOOOOOOOOOOOOOOOO         ",
"O&yggggw&%%%%%%%$%yLx&@%&%#,;;+OOOOOOOOOOOOOOOOOOO          ",
"O@%&&&%$@@@@@@@@O%iUm00fgf64:;+OOOOOOOOOOOOOOOO             ",
"iiffffffiiiiiiiiigDQC0wlmz7::;.OOOOOOoOOOOOOOO              ",
"LLLLLLLLHHHHHHHHKUE!C00lmz7::;.                             ",
"~~~~~~!YHDDDDDDDUQ~!m02yiu34;;. oOOOOo                      ",
"QQQQQQUm02000022gHQEc2@%%%#,-;.O$%%%%@OOOOO      OOOOOOOOO  ",
"LLLLLLDi&&0ew00$eCLHmy0w00%,-;.O%&&%$@OOOOOO    OOOOOOOOOO  ",
"AAAAAAmr&wlllli%0lAZNnlllg2,-;.O%&&%@OOOOOOOO  OOOOOOOOOOO  ",
"CCCCCCne&rmCCmg&0gCCCCCCNl0,-;.O%&%@OOOOOOOOO  OOOOOOOOOOO  ",
"llllllg0%ezbbzf%0dblllllxg2,-;.O@%@OOOOOOOOOO  OOOOOOOOOOO  ",
"0000000%#3ssss6#16ae000ea81,-;.OO@OOOOOOOOOOO  OOOOOOOOOOO  ",
"#######+>-::::;,<;4,###,<;,=-;. OOOOOOOOOOOOO  OOOOOOOOOOO  ",
"----;;--;;:::::;;::;---;;:;;;;. OOOOOOOOOOOOO   oOOOOOOOo   ",
";;;;;;;;;;;;;;;;;;;;;;;;;;;;;-.  OOOOOOOOOOOo    OOOOOOO    ",
"****,,,,,,,,,,,**************X                              ",
"OOOO@@@@@@@@@@OOOOOOOOOOOOOOOO                              ",
"   O%%%%%%%%%%$O                                            ",
"OOO@%&&&&&&&&&%@OOOOOOo oOOOo    ooOOOOOoo                  ",
"$$%%&&&&&&&&&&%%$$$$$@OoO$%@OOOOOO@$$$$$@OOOo               ",
"%%%%&&&&&%%%%%%%%%%%%$Oo@&%$@OOOO@$%%%%%$@OOOo              ",
"OO@@&&&&%$OOOOOOOOOOOOoo@%$@OOOOOOOOOOOOOOOOOOOO            ",
"OOO@$$%%$@OOOOOOOOOOOOoo@%%@OOOOOOOOOOOOOOOOOOOOO           ",
"OOOOOOOOOOOOOOOOOOOOOO o@%%%@OOOOOOOOOOOOOOOOOOOo           ",
"OOOOOOOOOOOOOOOOOOOOOO  O$&%@OOOOOOOOOOOOOOO                ",
"OOOOOOOOOOOOOOOOOOOOOO  O@%%@OOOOOOOOOOOOOOo                ",
"OOOOOOOOOOOOOOOOOOOOOO  oO%%@OOOOOOOOOOOOOOO                ",
"OOOOOOOOOOOOOOOOOOOOOO  oO$%@OOOOOOOOOOOOOOOO               ",
"OOOOOOOOOOOOOOOOOOOOOO   O@@OOOOOOOOOOOOOOOOO               ",
"OOOOOOOOOOOOOOOOOOOOOO   OOOOOOOOOOOOOOOOOOOo               ",
"OOOOOOOOOOOOOOOo         OOOOOOOOOOOOOOOOOOo                ",
"OOOOOOOOOOOOOOO          OOOOOOOOOOOOOOOOOo                 ",
"                                                            ",
"     oOOOOOOOOOOo                                           ",
"OOOOOO@$$$$$$$$$@OOOOOOOOO                OOOOOO            ",
"OOOOO@$%%%%%%%%%@OOOOOOOOOo              OOOOOOOO           ",
"OOOOOOOOOOOOOOOOOOOOOOOOOOOO            OOOOOOOOOO          ",
"OOOOOOOOOOOOOOOOOOOOOOOOOOOO            OOOOOOOOOO          ",
"OOOOOOOOOOOOOOOOOOOOOOOOOOOO            OOOOOOOOOO          ",
"OOOOOOOOOOo      oOOOOOOOOOO            OOOOOOOOOO          ",
"OOOOOOOOOO         OOOOOOOOO            OOOOOOOOOO          ",
"OOOOOOOOOO                                                  ",
"OOOOOOOOOOOOO                                               ",
"OOo                                                         ",
"O                                                           ",
"                                                            ",
"                                                            "
};
