/* XPM */
static char *d973820306db404db8dc27971afa0c07[] = {
/* columns rows colors chars-per-pixel */
"60 60 75 1 ",
"  c #0B090D",
". c #150B0D",
"X c #190D0D",
"o c #0D0B10",
"O c #120E12",
"+ c #1C0F12",
"@ c #161115",
"# c #1B1115",
"$ c #171418",
"% c #1B151A",
"& c #1E191D",
"* c #25100F",
"= c #2D110D",
"- c #32120C",
"; c #3A140C",
": c #210F10",
"> c #211012",
", c #2B1414",
"< c #21171A",
"1 c #221A1F",
"2 c #311614",
"3 c #341814",
"4 c #231D22",
"5 c #281D20",
"6 c #262126",
"7 c #282227",
"8 c #2B252B",
"9 c #2F282E",
"0 c #30292F",
"q c #2F2930",
"w c #332D32",
"e c #383137",
"r c #363138",
"t c #3B343B",
"y c #3C353C",
"u c #3F383F",
"i c #3F3840",
"p c #423A42",
"a c #433B44",
"s c #443D45",
"d c #453F48",
"f c #464049",
"g c #484049",
"h c #48424C",
"j c #4B424C",
"k c #4C444D",
"l c #4D4751",
"z c #4F4852",
"x c #534A54",
"c c #544B55",
"v c #534C56",
"b c #554D57",
"n c #544E59",
"m c #56525D",
"M c #5A525D",
"N c #5B535E",
"B c #575460",
"V c #5C5662",
"C c #5D5763",
"Z c #5C5764",
"A c #5C5864",
"S c #5F5B68",
"D c #625D6A",
"F c #645E6A",
"G c #645F6C",
"H c #64616E",
"J c #676270",
"K c #676472",
"L c #6A6675",
"P c #6B6877",
"I c #6F6C7B",
"U c #706D7C",
"Y c #757383",
"T c #757484",
"R c #808092",
/* pixels */
"                             .-=>%447wetw&O  O@@@@@@@@&44444",
"                  ooooooooo  .-=#@&1468ww&@&6888888888weiptw",
"                 oOOOOOOOOOo .-=:@@$%%48w&&9ippppppppafzAZvd",
"                 OOOOOOOOOOOOX--*>#%$@%7w&4wggghggggglMGLJCx",
"                            O#-;;2141%%7w&&8yypppppppgAUHMbx",
"                            O#-;;3544%%7w&%6weyyyyyyyfDYFnxx",
"                           .O>-;;2144%%7w&@18wetyyyyyfDTFnxx",
"                           .O#--=>%%%@%7w&@&78weyyyyyfDTFnxx",
"                           .O#--:+@@@$18w&@&67weyyyyyfDTFnxx",
"                            .+-=#@%%&48ww&@&79weyyyyyfDYDnxc",
"                            .X-=#@1468wew&@&7eyypppppgAUCvbM",
"                             X-=+@$&4470w&O@4yggggggglMCfhCI",
"                             X--*+@%1&&8w&@$6ighhhhhhkllfzDU",
"                             .---*+%1&&8w&%4qypssssssssgmSDD",
"                             .-;;=+%1&&8w&%7eeetyyyyyyyfKIDx",
"                             .-;;=+%&&&8w&%488weyyyyyyyfKIDx",
"                      ooo    .---*+%1&&8w&@&668wetyyyyyfKIDx",
"                     OOOOO   .--*+@%4&&8w&@&6678weyyyyyfKIDx",
"                    .OOO@Oo  .-=:@$14460w&@&6889weyyyyyfKIDx",
"                       .OOo  .-=#@1468wew&@&8weeetyyyyyfKIDx",
"                         O   .-=#@%%&48ww&%4wetyyyyyyyyfKIDx",
"                             .-=:+@@@$&8w&%7eeeeetyyyyyfKIDx",
"                             .--=>%%%@%7w&%4wwwwweyyyyyfKIDx",
"                             .-;;2144%%7w&$&7778weyyyyyfKIDx",
"                             .-;;3544%%7w&@&4480weyyyyyfKIDx",
"                             .-;;2141%%7w&@&448weeetyyyfKIDx",
"                             .--*>#%$@%7w&@&447889weyyyfKIDx",
"                             .-=:@@$%%48w&@%4444678wetyfKIDx",
"                             .-=#@&&468ww&@@%%&44478weysHPAx",
"                             .-=>%447wetw&OOOO@&&&&48weiBAng",
"                             .-=>%447wetw&O   OOOOO@&788wrw0",
"                  ooooooooo  .-=#@&&468ww&O  @%&&&&468wweysh",
"                 OOOOOOOOOOO .-=:@@$%%48w&O O%48999wweysgxAJ",
"                .OOOOOOO@@@OO.--*>#%$@%7w&@@%470wwetyyskMGLI",
"                        O@@OO.-;;2141%%7w&@%446788weyyugHPGM",
"                        O@@OO.-;;3544%%7w&@%44789wweyyyfKIDc",
"                        O@@OO.-;;2144%%7w&@&448weeetyyyfKIDx",
"                         O@OO.--=>%%%@%7w&@&448wyyyyyyyfKIDx",
"                          OO..-=:+@@@$18w&@&448wetyyyyyfKIDx",
"                             .-=#@%%&48ww&@&6478wetyyyyfKIDx",
"                             .-=#@1448wew&@%44468weeeetfKIDx",
"                             .-=:@$%%&40w&@@%446788880rfKIDx",
"                             .-->#@$$@%8w&O @144666668wfKIDx",
"                             .---,<&%@%7w&O O&44444668wfHPAx",
"                             X-;-,111%%7w&O O%&&&1680wefASng",
"                    oOOOOOOOO#-->+@@@@%7w&O  OOOO@8pgghhatw0",
"                     OO@@@@@@#-=:@$%%&49w&O  @@@%1wpggggpish",
"                      O@@@@@@>-=>@&147wew&O O%&469eupppsgxAJ",
"                      OOOO@@@#-=>%447wetw&@@%468weyyyyypnDLI",
"                         .O@@#-=>%4469eew&@%448wetyyyyydGPGM",
"                          @@@#-=>%44148ww&@&68weyyyyyyyfKIDc",
"                          O@@#-=>%4&%$&8w&@&7weeyyyyyyyfKIDx",
"                          OOO+-=>%41%@%7w&@&79weyyyyyyyfKIDx",
"                          OOOX-=>%444%%7w&@&668wetyyyyyfKIDx",
"                            .X-=>%444%%7w&@&4478wetyyyyfKIDx",
"                            .X-=>$141%%7w&@&44468weeetyfKIDx",
"                            .X-=+@$%$@%7w&@&44467889weyfKIDx",
"                            .X-=+@@$%%48w&@%14446667weysAJGC",
"                            .X-=#@&&468ww&OO%4444447weypkCJU",
"                            .X-=>%447wetw&O O&444447weyyylLR"
};
