/* XPM */
static char *result[] = {
/* columns rows colors chars-per-pixel */
"60 60 55 1 ",
"  c #0A080D",
". c #160B0D",
"X c #1B0D0E",
"o c #0F0B10",
"O c #130D12",
"+ c #1D0F10",
"@ c #161015",
"# c #1B1115",
"$ c #171318",
"% c #1A151A",
"& c #1D191D",
"* c #220F0F",
"= c #26100F",
"- c #2E110E",
"; c #33120D",
": c #3B140C",
"> c #200F10",
", c #221111",
"< c #2C1210",
"1 c #241618",
"2 c #22191E",
"3 c #2D191A",
"4 c #321512",
"5 c #351814",
"6 c #331D1D",
"7 c #3B1F1C",
"8 c #1F1B20",
"9 c #241D22",
"0 c #291D20",
"q c #262026",
"w c #292025",
"e c #2C242B",
"r c #2F282E",
"t c #342222",
"y c #3C2221",
"u c #32272C",
"i c #31282F",
"p c #342D34",
"a c #392E34",
"s c #382F38",
"d c #373037",
"f c #373138",
"g c #3B343B",
"h c #3F383F",
"j c #3F3840",
"k c #403740",
"l c #443C44",
"z c #473F48",
"x c #483F48",
"c c #4B424B",
"v c #4F4750",
"b c #504750",
"n c #534A54",
"m c #584F58",
"M c #5B525C",
/* pixels */
"                                                            ",
"                                                            ",
"                                                          OO",
"                                                         oOO",
"                                               OO.OOOOO OOOO",
"          o .  O  o             oo oo oo       O ooOOOOOOOOO",
"        o oOOOOO ooO            ooOO.oOO          OOOOOOOOOO",
"          OOOOOO..OOO           .OOOOOOO .o  oo  OOOOOOOOOO.",
"           .OOOOOOOO            OOOOOOOOOOOOOOOOOOOOOOOOOOOO",
"          ..OOOOOOOO            oOOOOOO@OOOOOOOOOOOOOOOOOOOO",
"         OoOOOOOOOOO            .OOOOOOXOOOO@O@O@OO+O@OO@+OO",
"           oOOOOOOO.             oOOOOOOOO@@%%$8%%%%%%@OOOOO",
"             O.oOO               oo.oOo OoO@$$@$%@$$$$OOOoOo",
"                 o                o  o  o ooOOOooOoO@ooooo o",
"                                              o oo  oo   o  ",
"                 OOOoOOoOO. ..  OO.          ooOoOoOoooOoOoO",
"                O.oOOOOOOOOOOOOOOOOo        OOOOOOOOOOOOOOOO",
"               oOOOOOOOOOOOOOOO@OOOo oO.OOOOOOOOOOOOOOOOOOOO",
"               OOOOOOOOOO@OOOOO@@@Oo  OOOOOOOOOOOO@OOO@OOOOO",
"               OOOOOOOOOO+OOOOO@%%Oo OOOOOOO+OOOOOOOOO+OOOOO",
"               OOOOOOOO+@+OOOOO#$%Oo oOOOOOOOOOOO+@OOOOOOOOO",
"                oOOOOOOOOOOOOOO#%%@o oOOOOOOOOOOOOOOOOOOOO@O",
"            o  ooOOOOOOOOOOOOO@@%%%Oo OOOOOOO+OOOOOOOOOO+OOO",
"            OO.OOOOOOOOOOOOOOOO@%&%OooOOOO+OOOOOOOO@O@O@@OOO",
"            oOOOOOOOOOOOOOOOOOO@@$8oooOOOOOOOOOOO@@@$@@$@@OO",
"            OoOOOOO@O@@@@@OOOOOO@%%$ooo$O@@@@@O@#O@88888@@O@",
"             ooOO@@%%%%$%%@OOOO#@%&$o@$$%%%$%%@%%%8%%8%8$%%$",
"               oooO@$$$$@@@oOoO@@$%ooo$$$$$$%%8%8%%888$88$$@",
"                oooooOOooooo  ooOOoo oOOOOo@O&&8%88%%88$@OOo",
"                                  o  o  o ooO%%%%%%8%%8$Oooo",
"                              .oOoOOOoOoOOooO@@+@@#@@@OOOOoO",
"                     o      o >*****>>***>>+>>>>>>>=>>>>>>>+",
"    OOOOoooo   OOOOoOoOoO.oo .---;;;--;-;;;;;;;;;;;;;----;;-",
"    OOOOOO.o   OOOOOOO+OOOOo..-;;;::;;<;;;:;;::::::;<-44----",
"   .O+OOOOOOoo OOOOOOOOOOOOO .--=*:-,###>44<,;::::4>+++##1>#",
"   .OOOOOOOO. ooOOOOOOOOOOOO..-->166ww0w0t61,6yyyy3#%9909909",
"  oOOOOOOOOOoo OOOOOOOOO+@$@OO;-,2paadsppar0&uaaaa0%9pddssdp",
"  OOOOOOOOOOO  oOOOOOOOO@$8$O.;-,0pgggggggp92pfggge99dgjsjgj",
"  .OOOOOOOOOO  OOOO+OOO$%%9@O.;-,9ppddfgkjp9&upfsp98egkkkkkl",
"  .OOOOO+O.O    OOOOOO@$%88@OO;->%99q9efzcj0$99w999&elxxxxxx",
"  ooOoooOOO     OOOOOO@$%&%$ .;;>+%%%O9svnzp&09299%9sbmnnnnm",
"    oo  o           . oOooo@..;;43uee89smMmckkklllllbmMMMMMM",
"                   .  o oo   .;::7asp99gmncxllzzllzlxxbxxxxx",
"             ooo OOOoOooooOo.X;::7ags00knkpiurrriiiiiiiiisii",
"          ooooOOOOOOOOOO@OOOO+;:56upi99svi%OO@@O@@@@@9%89%@O",
"          .O.OOOOOOOOOOOOOOO.+;;=>%28%%sxu%$&%&&%%%89iipie2O",
"        ooOOOOOOOOOOOOOOO@@@@+;->#9999ikxw%$&%&&8%9epsssji9o",
"       ooOOOOOOOOO+OOOOOOO$$@=;->80uidkxxe%$8&8888epssjsji9O",
"        OOOOOOOOOOOOOOO+O@$%@+;-,80iipjzxe%%888qeepfhhghls9O",
"         oOOOOOOOOOOOOOOO@%%@+;;>@#%8%9sxe%%%8qrffffhfhjxkeO",
"         OOOOOOOO+OOOOOO.@$%%,;;<,%%%@9sxe&%9erdjlccjclcxleO",
"         oOOOOOOOOOOOOOO@@%&215::4999%9svi&%9idjlvcvvvvvnkeO",
"        o OOOOOOOOOOOOOO#$&&224::5099%9svr%%9pggjvnnnnnnnleO",
"         .OOOOOOOOOO#@O@$&&&22::44099@9kvi&%qdfjzvnnnnnnnl9@",
"           OOOOOO@O%$$%%&&&&&1:;<>2#%@9svi8$qdfjjnnnnnnnnl0O",
"           OOOOOO#@&&&%9&&&&&14->O@#@O9svi%88rdjjvnnnnnnnle@",
"              ..@%&&8888888$%,;->%22&@9gbi%%99idjlcnnnnnnkeO",
"              . O@$$$8o$$$$$O+;->%299%9sbi%$%99rppfjlkklld9O",
"                ooOOooooooooO.;<>$999%0gni%O@@@999qqeewe09%O",
"                      o      .;1>$999%9gbu%OOOOOOOOOOOOO$OOO"
};
