/* XPM */
static char *_02d6dfe3a2e49f89621a730d56ade41[] = {
/* columns rows colors chars-per-pixel */
"60 31 61 1 ",
"  c #0A090E",
". c #0E0C11",
"X c #110E13",
"o c #151115",
"O c #161318",
"+ c #191519",
"@ c #1E191E",
"# c #201B1F",
"$ c #1F1A20",
"% c #231E23",
"& c #262126",
"* c #282227",
"= c #272228",
"- c #2B252B",
"; c #2E282E",
": c #30292F",
"> c #2F2A30",
", c #332C33",
"< c #373037",
"1 c #383137",
"2 c #373138",
"3 c #3B353C",
"4 c #3F383F",
"5 c #3F3940",
"6 c #433C44",
"7 c #473F48",
"8 c #483F48",
"9 c #47424A",
"0 c #4A424A",
"q c #4B434C",
"w c #4C444D",
"e c #4C4850",
"r c #504751",
"t c #534A54",
"y c #504C54",
"u c #58545D",
"i c #625C6A",
"p c #67636D",
"a c #6F6A77",
"s c #6F6A79",
"d c #706C76",
"f c #736F7B",
"g c #726D7C",
"h c #7A7681",
"j c #7B7686",
"k c #7D7984",
"l c #7D7889",
"z c #807B8C",
"x c #817C8D",
"c c #847F90",
"v c #85808D",
"b c #858091",
"n c #8B8695",
"m c #8E8997",
"M c #8C8798",
"N c #8F8A9B",
"B c #908B9C",
"V c #95909F",
"C c #9A95A5",
"Z c #9F9BAB",
"A c #A29DAD",
/* pixels */
"llllllllllllllllllllllljs66illllllllllllllllllllllllllllllll",
"lllllllllllbNBNbllllllljs6qaBBBBBBBBBBBBBBBBBBBBBBBBBNclllll",
"zzzzzzzzzzzNCZZNczzzzzzlg6ehZZZZZZZZZZZZZZZZZZZZZZZZZCnxzzzz",
"NNNNNNNNNNNnbvvnNNNNNNNMl09pvvvvvvvvvvvvvvvvvvvvvvvvvbnNNNNN",
"AAAAAAAAAAAfe36dVAAAAAAZme,,3333333333333333333333333ekZAAAA",
"kkkkkkkkkkky-+@edkkkkkkha4&++++++++++++++++++++++++++-uhkkkk",
",,,,,,,,,,,&+OO%;,,,,,,>;%+OOOOOOOOOOOOOOOOOOOOOOOOOO+&>,,,,",
"------------=%+%-------&%%%%%+@&------=&%%&=%+%=------------",
"6666666666663;+-36666652,,,,-@%26666663,,,33;+;3666666666666",
"trw00000000w0,@,600000663333,%&3000000633368,@,0w00000000wrt",
"tw63333333376,@-233333333333,%%,333333333378,@,67333333336wt",
"tq62,,2333364,+%:13333333333,%%,333333333366,@,6633333333660",
"r06,-,2333332-+%-,2222222333,%%,333333333332-+,6633333333346",
"063,-;233333<-+=,,,,,,,,,233,@@,333333333332-+>4633333333333",
"333,-;233323<-+;32;------,23,++>233333333331-+-<32222222222<",
"332,-;233<,,,-+%-,2333,;&-,2,+O=,2333333333<=o%-,,,,,,,,,-=%",
"332,-;232,=,,-Oo+>66663,%%=,-Oo%-,333333333,%.+%%%%%%%%%%@O.",
"32,-*-232,&;,-O.X@----=$OO+@@XX@-,33333333<-@ XOOOOOOOOOOX  ",
"3,-&&-232,&-;&O...XoXXX...... X@-,3333332<,&+  ..........   ",
"3,-%&-232,&==%X               X@-,333333,,-%O        ...X   ",
"3,-%&-132,&%%+                X@-,333333,=%%O       XoOOOX. ",
"3,-%%=-;--&%%+     .XXXX.     X@&-;;,233,=%%O   .XXXXOOOOOXX",
"<,-%%&&&&&%%%+     XoOOoX.    o%=*&&:<21;*%%O   .OOOOOOOOOOO",
"--*%%%%%%%%%%+   .XoOOOOOX.   O-;=%%-,<;=&%%O   .OOOOOOOOOOO",
"=*&%%%%%%%%&%+   .XOOOOOOOX   +,,-*%-,,*%%%%O   .OOOOOOOOOOO",
",;=%%%%%%%%--$.  XXOOOOOOOX   +,2,;&=--&%%%%+   XOOOOOooOOOO",
"3,;----*&&-,,%.  XXOOOOOOOX.  O-,,,--------&+  .XOOOOOoOOOOO",
"32<,,,,:=-,2,%..XXOOOOOOOOOX. O%---,,,,,,,,,%.o++OOOOOOOOOOO",
",,,,,,,-&&;,-$.XO+++++++++++O.X@%%&-,,,,,,,-$.O@@+++++++++++",
"%%%%%%%@@@%%@O.O@###########+X.O++@%%%%%%%%@O.+%%###@@##@###",
"OOOOOOOOOOOOXX O%%%%%%%%%%%%@X.XOOOOOOOOOOOo. +%%%%%%%%%%%%%"
};
