/* XPM */
static char *result[] = {
/* columns rows colors chars-per-pixel */
"60 60 57 1 ",
"  c #0A080D",
". c #160B0D",
"X c #1B0D0E",
"o c #0F0B10",
"O c #130D12",
"+ c #1D0F10",
"@ c #161015",
"# c #1B1115",
"$ c #171318",
"% c #1A151A",
"& c #1D191D",
"* c #220F0F",
"= c #26100F",
"- c #2E110E",
"; c #33120D",
": c #3B140C",
"> c #200F10",
", c #221111",
"< c #2C1210",
"1 c #241618",
"2 c #22191E",
"3 c #2D191A",
"4 c #321512",
"5 c #351814",
"6 c #331D1D",
"7 c #3B1F1C",
"8 c #36201F",
"9 c #1F1B20",
"0 c #241D22",
"q c #291D20",
"w c #262026",
"e c #292025",
"r c #2C242B",
"t c #2F282E",
"y c #342222",
"u c #3C2221",
"i c #32272C",
"p c #31282F",
"a c #342D34",
"s c #392E34",
"d c #382F38",
"f c #373037",
"g c #3B3035",
"h c #373138",
"j c #3B343B",
"k c #3F383F",
"l c #3F3840",
"z c #403740",
"x c #443C44",
"c c #473F48",
"v c #483F48",
"b c #4B424B",
"n c #4F4750",
"m c #504750",
"M c #534A54",
"N c #584F58",
"B c #5B525C",
/* pixels */
"OOOOOOOOo@OOOOOOO%pnj0%000%>--.                             ",
"O%0qrrqrr990&%@@@%amd0%000%>--..oooo$oooooooo               ",
"O0dxxxxxlkaat0&&$%tbj0$000#>-;+O$%%%$$$$$$$oOooo            ",
"OrxMMMMMMbxlhtw9%%amj9#90%@+-4,%&&&&999999$$OOOO            ",
"OrxMMMMMMMbllha9%%pmj0O###@,-412&&&&&%&&$$@OOOOO            ",
"O0zMMMMMMMnxlhaw%&pmj2@#%%,<;:12&&&&%%%#$$OOOOOOO           ",
"O0xMMMMMMMnxkhaw%%imj0#0025;:;1&&&&%@O@@O$oOOO@OOO          ",
"@rxMMMMMMMnxlhaw%&pmj0%0w35::512&%%@OOOOOOOOOOOOOO          ",
"O0vMnnnnnnnxkhtw9%tmd0%0023;:51%&%O@OOXO#OOOOO#OOO          ",
"Orxmcxccxxxlhtr9%%rbd9#%%&,-;:,%%%@OOOOOOOOOOOOOOOO         ",
"@0zvllljjjhhtr99%%rvj0%%%%#=-;,#%%@OOOOOOOOOOOOOOOo         ",
"O0dzljhljtrrw9%9%%rvxlatte%,-;##%%@OOOOOOOOXOOOOOOOO        ",
"@0aldlldtr99999%%%0nvkaatt&,-;=@#%OOOXOOOO#OOXOOOOOo        ",
"O0pddddar9&&&&&&#%rvkpq022%,-;>O@@OOOOOOOOOOOOOOOOOo        ",
"O00paapq9$%%%%%%%%rvd2#%%1,,;;>OOOOOOOOOOOOOOOOOOO          ",
"O@%00%%#$@$@@@@@@%rnh00tap6;:;>OO@XOOOOO#OOOOOO             ",
"pppppppprippppttpaxMj0qfhd7::;+oooooOooOooooO O             ",
"vbbbbbbbvvxxxxxcvvMNj0qddsu::-.oo  o   o   o                ",
"BBNBBBNmxxzxxxzxvMNNh02tty34;;.ooOooOoo               o     ",
"NNMMNNbd00202002avMMd&#%$%+,;;.O$$99%@OOOOOo     OOOOOOO .  ",
"vvvvccxt%20qew0#qlbchr0e00%#--..@99%%@OOOOOo    OOOOOO+OO.  ",
"llllllhr00ddaat%0dzzkadaaa2,--..@9$$@OO+OOOOO  OOOOOOOOOOO  ",
"kjjjjkar&rjjkha&0pjjjkkkjf2,--.O%9%#OOOOOOOOO   OOOOOOOOOO  ",
"adaddaaq%qddssp10iddaaaaga2,-;.O@%@OOOOOOO+Oo OOOOOOOOOOOO  ",
"0rq0r000#3uuuu8#16yqeq0e881,-;..O+OOOOOOOOOOO   OOOOOOOO.   ",
"++++#++++-::::;,<44,###,4;==-;. OOOOOOOOOOOO.o  OOOOOOOO.   ",
"<-----<<;::::::;;::-;--;::;;;;. OOOOOOOOOOOOO   OOOOOOOO    ",
"-;--;---;;;;:;;;-;;--;;-;;-;;-.  oOoOOOoOOooo    O.oo.OO    ",
">+>>>>>>,,,,,,,,>***,******>*X.         o             o     ",
"OOO@+@##@$#O#@OOOO OoOOooOOO.                               ",
"  oo%%%9$$&$%%$ooo          o                               ",
"OOo@9%9%&&&&&&%$oOOO@ooooOOoO   oooOooOOooo                 ",
"$$$%9$999$99$9%$%@@%$@Ooo$$$OOOOOO$$@%@%O@@Oo               ",
"%%%%999%$9%%$%9$%&%%%$oo$9$$#OOOOO%%%%%%%O@OOo o            ",
"@#@$9$999$@@O@OO#OO#@Ooo@%$@OOOOO@OO#@O#OOOOOOOO            ",
"OOOO$$@$@OOOOOOOOOOOOOoo@9%$@OOOOOOOOOOOOOOOOOOO            ",
"OOO@@O@@@@OOOOOOOOOOOO oo9%$@OO@OOO#OOOOOOOoOOOO            ",
"OOOOOO+OOOOOOO@OOOOOOO Oo$9%@OOOOOOOOOOOOOOooo              ",
"OOO+OOOOOOOOOOOOOXOOOO  o@%%@OOOOOOOOOOOOOOO                ",
"OOOOOOOOO+OOOO+OOOOOOOO o@$%@OOOOOOOOOO#OOooO               ",
"OOOOOOOOOOOOOOOOOOOXOO. oO%%+OOOOOXOOOOOOOOOO               ",
"OOOOOOOOOOOOO@OOOOOOOOO  O@@@OOOOOOOOOOOOOOOO               ",
"OOOOOOOOOOOOOOOOOOO OO  oOOOOOOOOOOOOOOOOOOO                ",
"OO@OOOOOOOOOOOOo        oOOOOOOOOOOOOOOOOOOO                ",
"OOoOOOOOOOOOOOO         oOoOooo.OOoOOoOOOOO                 ",
" o                             oO o                         ",
"ooooooo OOOOOOoOoo                                          ",
"OoooOo$9o9$$$$$$@O. Oo.OOOo              .OO. Oo            ",
"OOOOOO%%$9$9$$%%#@OOOOXOOOO             oOOOOOOOOo          ",
"OOOOO##O+OOOO@@OOOOOOOOOOOOo            OOOOOOOOOOoo        ",
"OOOOOOOOOOOOOOOOOOOO#OOOOOOo            OOOOOOO+OOo         ",
"OOOOOOOOOOOOOOOOOOOOOOOOOOO.            OOOOOOOOOO          ",
"OOOOOO#OOo .     OOOOOOO.OOO            OOOOOO..OO          ",
"OOOOOOOOOoo o       OOOO. O             OO.oO.  .           ",
"OOOOOOOOOO o       O  O                  Oo      o          ",
"XOOOOOOOOOOOoo                                              ",
"OO    O   o                                                 ",
"OO                                                          ",
"                                                            ",
"                                                            "
};
