/* XPM */
static char *_564a9f87fb74c0b95e04f99403143c2[] = {
/* columns rows colors chars-per-pixel */
"48 48 90 1 ",
"  c #09080D",
". c #0C0A0D",
"X c #0F0C0F",
"o c #120A0D",
"O c #0F0C11",
"+ c #100D10",
"@ c #140E13",
"# c #150F14",
"$ c #1A0E12",
"% c #131015",
"& c #151115",
"* c #181014",
"= c #171318",
"- c #181318",
"; c #1B1419",
": c #1C161B",
"> c #1C171C",
", c #1E181C",
"< c #25100F",
"1 c #29100E",
"2 c #2D110E",
"3 c #35120B",
"4 c #33120D",
"5 c #37130C",
"6 c #3E140B",
"7 c #3A130C",
"8 c #3A160F",
"9 c #271111",
"0 c #20191E",
"q c #261A1D",
"w c #331410",
"e c #201B20",
"r c #221C21",
"t c #241D22",
"y c #251F24",
"u c #291D20",
"i c #262025",
"p c #282125",
"a c #292328",
"s c #2B242A",
"d c #2C262A",
"f c #2D262C",
"g c #2F282E",
"h c #322B2F",
"j c #2F2B31",
"k c #322B30",
"l c #332C32",
"z c #342E32",
"x c #342E34",
"c c #363037",
"v c #393237",
"b c #383138",
"n c #3B343B",
"m c #3C353B",
"M c #3C353C",
"N c #3F3A42",
"B c #403840",
"V c #463E46",
"C c #453F48",
"Z c #47424A",
"A c #4B434C",
"S c #4D464F",
"D c #4F4650",
"F c #4B4852",
"G c #534A54",
"H c #534D57",
"J c #554D57",
"K c #524F5B",
"L c #574F59",
"P c #56535F",
"I c #5B535E",
"U c #585460",
"Y c #5E5763",
"T c #5E5966",
"R c #645F6C",
"E c #66616F",
"W c #636270",
"Q c #676573",
"! c #696573",
"~ c #686674",
"^ c #6B6978",
"/ c #6D6A78",
"( c #6F6D7C",
") c #706E7D",
"_ c #737281",
"` c #757383",
"' c #767585",
"] c #787787",
"[ c #7C7B8D",
"{ c #808092",
/* pixels */
"                                                ",
"                                                ",
"                                               .",
"                 .......                    ....",
"              ..........                    ....",
"         ...............                    ....",
"         ...............                    ....",
"         ...............                    ....",
"         ...............                   .....",
"           .............                   .....",
"                ...                           . ",
"                                                ",
"....              ..........        ..........  ",
".....             ...........        .........  ",
"..........     ...............        ........  ",
"..........    .................    ...........  ",
"...........   ..................   ...........  ",
"............ ....................  ............ ",
"............ O&&+................  ........+&&O ",
"............ O&&@+..............   ........+&&O ",
"............ O&&&&X............   .........+&&O ",
"&&&&&&&&&&&+ O&&&&&&&&+....       O&&&&&&&&&&&O ",
"OOOOOOOOOOOO .OOOOOOOO.           .OOOOO+OOOOO. ",
"oooooooooooooooooooooooooooooooooooooooooooooooo",
"333333333333333333333333333333333333333333333333",
"112767211146641112767211111111111112741112767211",
"&#$w8w$#&@<55<@&#$w8w$#&&#@&&&&&&&#$w9@&#$w8w$#&",
"r;*quq*;0&$$$$&0;*quq*;rr;&0rrrrrr;*q:&0;*quq*;r",
"y:&ryr&:t,::::,t:&ryr&:yy:&ryt,0yy:&r:&r:&ryr&:y",
"a,&0r0&,prrrrrrp,&0r0&,aa,&0r0&,aa,&0;*y,&0r0&,a",
"by@&&&@yl,----,ly@&&&@ybby@&&&@ybby@&#-ky@&&&@yb",
"MkpppppkbdppppdvkpppppkmMkpppppkmmkpppsvhpppppkm",
"xxxxxxxxxzzzzzzzzzzzzzzzxzzzzzzzzzzzzzzzzzzzzzzz",
"&&&&&&&&&&&&&&&&&&&&&&&&&&&&&&&&&&&&&&&&&&&&&&&&",
";&+++++++*+   .&;;;&+*+        +;;;;;;;;+....   ",
"y,------;e&   Oeyyy,&0=   OOOOO;yyyyyyyy;++++   ",
"ytrrrrrre;+   Oeyyy,&&&+ &eeeeeryyyyyyyyreee,+  ",
"yyyyyyyyr-&&+%;ryyye,,;&=,yyyyyyigkgiyyyyyyss+. ",
"yyipaaair;,r-,yyiaaiyy,-ryyyyipadbMbdaaaaaalx;+.",
"yypxbbbgyrtr-,yygbbgyy,-ryyyypxbbnMnbbbbbbbbnxr.",
"kklbMMMxgiyr-rkkxMMxkkr-ryyyslbMMMMMMMMMMMMMMMy.",
"MMMMMMMMbdai;aMMMMMMMMa-riaalMMMMMMMMMMMMMMMMMy.",
"MMMMMMMMnbbl;aMMMMMMMMa-rgbbbMMMMMMMMMMMMMMMMMy.",
"MMMMMMMMMMMx>aMMMMMMMVg-rkMMMMMMMMMBUTTTHCCBMMs;",
"MMMCZZZZZZZNekZZZZZBBDx,jNZZZZZZZZZG)]]]!IIGVngy",
"MMC^```````QkF`````UBDbjW_`````````)TIII!]]'~ciy",
"kMSR!!!!!!!TkZ!!!/[(TJMkT!!!!!!!!!!ELGGGY!!!EPMy",
"yMGGGGGGGGGAfMGGGI]{]IMfAGGGGGGGGGGGGGGGGGGGI]Ky"
};
