/* XPM */
static char *result[] = {
/* columns rows colors chars-per-pixel */
"60 60 60 1 ",
"  c #0B090D",
". c #160B0D",
"X c #0E0C10",
"o c #110D12",
"O c #1C0F12",
"+ c #151115",
"@ c #1A1115",
"# c #171318",
"$ c #1B151A",
"% c #1E191D",
"& c #25100F",
"* c #2D110D",
"= c #32110C",
"- c #3A130C",
"; c #210F10",
": c #211012",
"> c #2B1414",
", c #21171A",
"< c #221A1E",
"1 c #311614",
"2 c #341814",
"3 c #231E22",
"4 c #281D20",
"5 c #272126",
"6 c #292226",
"7 c #2B252A",
"8 c #2F292E",
"9 c #30292F",
"0 c #2E2A30",
"q c #332D32",
"w c #363037",
"e c #383136",
"r c #373138",
"t c #3B343B",
"y c #3F383F",
"u c #3E3840",
"i c #433C44",
"p c #473F48",
"a c #464149",
"s c #4A424B",
"d c #4D4751",
"f c #4F4D58",
"g c #534A54",
"h c #554E59",
"j c #56525D",
"k c #59515C",
"l c #5B5561",
"z c #5E5965",
"x c #5F5C68",
"c c #605A66",
"v c #625D6A",
"b c #65616E",
"n c #676472",
"m c #696573",
"M c #6B6877",
"N c #6F6C7B",
"B c #706E7D",
"V c #747282",
"C c #797989",
"Z c #7F7F91",
/* pixels */
"                                                            ",
"                                                            ",
"                                                            ",
"                                                            ",
"                       .                                .   ",
"                                                           .",
"                                                        .   ",
"                        .                                   ",
"                                                            ",
"                 .   .   . ..                               ",
"                 . . .                                  .   ",
"                         .                                  ",
"                                                            ",
"                                                            ",
"                                                            ",
"                                                            ",
"X   X                  X. XX    X X             . X         ",
".XX .X                X     X.  X .                   .     ",
"      X               X  X.   XX  X                ..  X    ",
"  .X                  .XX    .X   .X        .   . X    .    ",
"  X.XX     .         . X   X X.    X              .   X     ",
"XX   X. .          X.    .XXX   .X    .       .    .  o     ",
"X     X     .    XXoX       .X  X   X                . XXX  ",
".XX   .X  .      Xo+oX. XX    XXX   .X         . .    ++++  ",
"   X XX X       Xo++ooo  XX XXX .             .  XX XX.+++  ",
"X XoXXXXXo.X.   Xo+++oooXXX X  .  . .        X. .X  XXo+++  ",
"oooooo.oooooooo Xo+++++o.oooXX             Xooooooooo++++   ",
"oooooooooooXoooXXX+o+oooooooX              X+ooooooooooo++  ",
"oXoXoXX. .XXXXX  XXXoX.XoXXX.              XoXXXooXoXXXX o  ",
"......... ........... ........... .....  ...................",
"============================================================",
"*===---==**==---====*==---=***==***===****======**===---=***",
"O::*---*&O:O&=--*&&O&&*--->@O;;O;;;;O;;;;;;;;->&::O:*---&&::",
"#++:121,@+@+@&*=&O++++>221@@O#$#o##$@@###$@@O>>:+@+O:121,++#",
"<%+$44<$@$<#@OOOO+$%$@,<<<@@%33$#@333333333#@,,@$%$@$444$@$<",
"4%+$<44%#$<<$$$$$$%<$#$<6<$$,33%##3333$333%#+3%$$<$$$43<$@%6",
"6%$#<<<$+$5%<<3%%<55%+$3<<@#<663##333@#3363@@3$@$<%#+%4,+$%6",
"06$+$%$+$575%$$%$%574#+#$,@$3qq3%@@%#@%39q33+#+@%64#+%%$+$69",
"e0<$$%$$%7w6%%%$%%6q7%$%$$$<8rr83%@%%%33urq3$$$$4q6%,%$$$47t",
"yq0666667qe87677779e97666669qtte7337434wwur947379eq6666667we",
"wwqww00wqqwq8w0qqqqqqq0q0qq0qqww9wqqqq0rqqqqqqqqqqqqqqqq9wqw",
"%%%%%3%%%%%%%%%%%%%%%%%%%%%%%%%%%$%%%%%%$3%%%%%%%%%%%%%%%%$%",
"+++ooo+o+++++oXoXXX#++++++#+oXXo+ XoXXoo@@#+@oo#++ooX.ooooXo",
"%#+oo++X+X++#o   XX#%%%%++##oX     X XX+#%%$%%%,%%+XX X     ",
"3%%#+######%%o    +3355%%#%$+   oooooo+$3333333353%+oooXX   ",
"5333333333%#oo    o35555$+#++X o$%%%%3<333333337553%<%%%oX  ",
"35333353533%+XXXX++5355%%$$##++#%3333333777873335<335566#o  ",
"53355555553%#%%+#%%%55655%5%$#$<335537373qwwq77756656689%o  ",
"355678788633%%3#$35378877333%%%353355570qwttrq98888888ww7%o ",
"5567weeeq96333%$$3358qrq8333$@33355550wrrttttrtrwetrewttq7% ",
"800wtttttq85333#%50qqtttw8q3%$3355570wrtttttttttttttttttrq% ",
"eeettttttrw8753$30rrtttttrr03#335550wtttyttttttttttttttttq% ",
"ytttttttyttw007$3qtttttttttq3#338qqwrtttyttttttttttttttttq$X",
"tttytttytttrtr0%5qttttitttuq3$%7qrrttttytttyypppppiiititt0%o",
"ttttyttyutttttw%5qtuttttuuuu7$38qtytyttyyttuplvvvvhdppittq5$",
"yttyaaaaaaaaaat37taasappiusu8%8risaaaaaaaaasgMVVVVmckhdpur73",
"ttydxmmmbmmmmbj0ulnnmnnvfusir0fxnnnnnnnnmnnmbvvvvvmNBNmcpq33",
"wtigmNNNNNNNNMzwuxNNNNVVvggpwrzmNNNNNNNNNNNNmlkkhkvMBBBmgtq3",
"7wagzcvvvvxvvzhquhxxvbVCVblpwqhzvvvvvvvvvvvvlkggggkcvvvvvht3",
"5waggggggggggga8raggghnCZCvdw8pggggggggggggggggggggggggkNna3"
};
