/* XPM */
static char *_64efa94865c4372aab4e9a544056bae[] = {
/* columns rows colors chars-per-pixel */
"48 48 152 2 ",
"   c None",
".  c #16121A",
"X  c #16121B",
"o  c #16131B",
"O  c #17131C",
"+  c #17141C",
"@  c #18141D",
"#  c #18151D",
"$  c #19161D",
"%  c #19151E",
"&  c #1B181F",
"*  c #1B191F",
"=  c #1B1920",
"-  c #1C1821",
";  c #1C1A20",
":  c #1C1A21",
">  c #1D1A21",
",  c #1D1B21",
"<  c #1D1922",
"1  c #1E1B22",
"2  c #1E1A23",
"3  c #1F1D23",
"4  c #1F1C24",
"5  c #201D24",
"6  c #201C25",
"7  c #201D25",
"8  c #211D25",
"9  c #211D26",
"0  c #221E26",
"q  c #221E27",
"w  c #221F27",
"e  c #231F27",
"r  c #231F28",
"t  c #1F2025",
"y  c #212026",
"u  c #222128",
"i  c #222228",
"p  c #242029",
"a  c #242129",
"s  c #25212A",
"d  c #25202B",
"f  c #26212B",
"g  c #25232B",
"h  c #26222B",
"j  c #212629",
"k  c #27222C",
"l  c #27232C",
"z  c #27222D",
"x  c #26202E",
"c  c #25252D",
"v  c #26242C",
"b  c #27252C",
"n  c #24262C",
"m  c #27262E",
"M  c #27272E",
"N  c #29252E",
"B  c #2A252F",
"V  c #28262E",
"C  c #232A2D",
"Z  c #25282D",
"A  c #26282E",
"S  c #27292F",
"D  c #242B2E",
"F  c #262A2F",
"G  c #232D2F",
"H  c #2B2632",
"J  c #2C2730",
"K  c #2C2633",
"L  c #252E31",
"P  c #272D32",
"I  c #272E32",
"U  c #2B2831",
"Y  c #2B2833",
"T  c #282A32",
"R  c #2B2A32",
"E  c #2D2832",
"W  c #2E2933",
"Q  c #2A2C32",
"!  c #2E2934",
"~  c #2F2934",
"^  c #2F2A34",
"/  c #2F2936",
"(  c #2F2937",
")  c #292F34",
"_  c #2C2D35",
"`  c #2F2C36",
"'  c #2E2D36",
"]  c #2D2E38",
"[  c #302A35",
"{  c #312B36",
"}  c #312C36",
"|  c #302D36",
" . c #302D37",
".. c #302E37",
"X. c #302F37",
"o. c #312B38",
"O. c #322B3A",
"+. c #322C3A",
"@. c #332C3B",
"#. c #342D3B",
"$. c #332F3C",
"%. c #342C3D",
"&. c #352D3E",
"*. c #352E3E",
"=. c #352E3F",
"-. c #253031",
";. c #273033",
":. c #273636",
">. c #293135",
",. c #2B3337",
"<. c #2C3136",
"1. c #2C3237",
"2. c #2D3237",
"3. c #2F3038",
"4. c #2F3138",
"5. c #2D3338",
"6. c #2A3738",
"7. c #2C3438",
"8. c #2D3539",
"9. c #2E3439",
"0. c #2E353A",
"q. c #2D373B",
"w. c #2E363B",
"e. c #2F363D",
"r. c #283A39",
"t. c #2B383A",
"y. c #293B3A",
"u. c #2A3B3A",
"i. c #2A3B3B",
"p. c #2A3C3B",
"a. c #2A3D3B",
"s. c #2D3A3C",
"d. c #2B3C3C",
"f. c #2B3E3D",
"g. c #2B3F3D",
"h. c #2B3F3E",
"j. c #2C3C3C",
"k. c #2C3C3D",
"l. c #2C3D3D",
"z. c #2C3D3E",
"x. c #2D3D3E",
"c. c #32303C",
"v. c #32323D",
"b. c #30343D",
"n. c #31363F",
"m. c #30373F",
"M. c #31373F",
"N. c #372F41",
"B. c #363041",
"V. c #353240",
"C. c #343340",
"Z. c #323640",
/* pixels */
"                        . . . . x N.N.N.N.N.N.N.N.N.N.N.N.N.N.x . . . .                         ",
"                        . . O - d ( =.N.N.N.=.#.#.#.#.#.=.=.( d - O . .                         ",
"                        . . @ q d x =.B.B.B.c.X.X.X.X.X.$.=.x d q @ . .                         ",
"                        . . @ q d x =.Z.k.k.k.k.k.k.k.k.b.=.x d q @ . .                         ",
"                        . . @ q d x =._ G G G G G G G G _ o.x d q * + .                         ",
"                        . . @ q d x =.Y t t t t t t t t V ( d d q - @ .                         ",
"                        . . @ q d x =.b.r.r.r.r.r.r.r.r.2.( d d q - @ .                         ",
"                        . . @ q d x o._ G G G G G G G G S V d d q - @ .                         ",
"                        . . @ q d d ( x - 3 q q q q 3 - q d d r q 3 @ .                         ",
"                        . . @ q d d ( V d J E E E E J d r d d q 3 - @ .                         ",
"                        . . @ q d d ( _ ) _ 3.0.0.0.0.>.S d d q - - @ .                         ",
"                        . . @ q d d E 0.k.X.2.r.r.r.r.g.;.d d q - - @ .                         ",
"                        . . @ q d d d >.k.X.V t t t j r.;.d d 5 - - @ .                         ",
"                        . . @ q d d d ;.g.Y S G G G ;.p.;.d d 5 - - @ .                         ",
"                        . . @ q d d d ;.r.b P r.r.p.g.p.P d d 5 - - @ .                         ",
"                        . . @ q d d d ;.k._ b t t ;.p.S d d d 5 - - @ .                         ",
"                        . . @ q d d V >.k.X.Q C y S 2.b x V d q - - @ .                         ",
"                        . . @ q d d E 0.k.X.0.p.S Y _ b Y ( d q - - @ .                         ",
"                        . @ - y d d E 0.k.X.0.g.p.g.k.r.3.( d q - - @ .                         ",
"                        . @ 3 y d d { e.k.X.Q G G G ;.p.0.( d q - - @ .                         ",
"                        . @ 3 y d x =.b.k.3.b t t t j r.0.{ d 5 - - @ .                         ",
"                        . @ 3 y d x =.b.g.k.r.r.r.r.r.g.b.@.x 5 - - @ .                         ",
"                        . @ - y d x =.] G G G G G G G G ] =.x q 4 - @ .                         ",
"                        . @ - q d x =.J q q q q q q q q H =.x d q - @ .                         ",
"                        . @ - q d x =.=.o.( E E E E E E @.=.x d q 3 @ .                         ",
"                        . @ - q d x =.B.b.0.0.0.0.0.0.0.c.=.x d q 3 @ .                         ",
"                        . @ - q d x =.b.g.r.r.r.r.r.r.g.b.=.x d y 3 @ .                         ",
"                        . @ - q d x =.b.r.j t t t t j r.b.=.x d y 3 @ .                         ",
"                        . @ - y d x =.b.r.b S G G G ;.p.b.=.x d q - @ .                         ",
"                        . @ - q d x =.b.k.X.0.g.k.k.k.k.b.=.x d q - @ .                         ",
"                        . @ - q d x =.b.k.X.0.k.3.X.X.X.c.=.x d q - @ .                         ",
"                        . @ - q d x =.b.k.X.0.k.X.{ X.0.c.=.x d q - @ .                         ",
"                        . @ - q d x =.b.k.X.0.s.X.{ X.k.b.=.x d q - @ .                         ",
"                        . @ - q d x =.b.k.X.X.X.X.{ X.k.b.=.x d q - @ .                         ",
"                        . @ - q d x { e.k.X.3.0.0.0.0.g.b.=.x d q - @ .                         ",
"                        . @ - q d d E 0.k.X.2.r.g.p.r.r.b.=.x d q 3 @ .                         ",
"                        . @ 3 y d d ( 0.k.X.V j r.;.t t Y =.x d y 3 @ .                         ",
"                        . @ 3 y d d ( 0.k.X.J b r.:.S b ( =.x d y 3 @ .                         ",
"                        . @ 3 q d d ( 3.r.X.{ X.6.r.6.X.#.=.x d q - @ .                         ",
"                        . @ 3 q d d ( Y b ( { E u t u E #.=.x d q @ . .                         ",
"                        . @ - q d d ( _ >.0.0.0.P G P 0.c.=.x d q @ . .                         ",
"                        . @ - q d d E 2.r.r.r.r.r.r.r.r.b.=.x d q @ . .                         ",
"                        . @ - q d d d u t t t t t t t t Y =.x d q @ . .                         ",
"                        . @ - q d d d b G G G G G G G G Y J d d q @ . .                         ",
"                        . @ 3 q r d d P r.r.r.r.r.r.r.r.P d d r q @ . .                         ",
"                        . @ ; @ - d d d b b b b b b b b d d d - @ . . .                         ",
"                        . @ * + @ - - - - - - - - - - - - - - @ . . . .                         ",
"                        . @ * + . . . . . . . . . . . . . . . . . . . .                         "
};
