/* XPM */
static char *b46713e9a3244a63bd3905106dd49004[] = {
/* columns rows colors chars-per-pixel */
"48 48 83 1 ",
"  c #09080D",
". c #0C090E",
"X c #120A0D",
"o c #160C0F",
"O c #0F0B10",
"+ c #0E0C11",
"@ c #110B10",
"# c #130D12",
"$ c #140D12",
"% c #120F14",
"& c #160F14",
"* c #1B0E11",
"= c #131015",
"- c #171116",
"; c #1C1012",
": c #181217",
"> c #1F1316",
", c #181318",
"< c #1A151A",
"1 c #1D151B",
"2 c #1B171C",
"3 c #1C171C",
"4 c #1B181D",
"5 c #1D191E",
"6 c #240F0E",
"7 c #29100E",
"8 c #2D110E",
"9 c #35120B",
"0 c #33120D",
"q c #37130C",
"w c #3D140B",
"e c #3A130C",
"r c #38140E",
"t c #210F10",
"y c #271111",
"u c #211619",
"i c #23181B",
"p c #21191F",
"a c #28191B",
"s c #371713",
"d c #3E1A13",
"f c #201B20",
"g c #221E23",
"h c #251E23",
"j c #251F24",
"k c #291D20",
"l c #252025",
"z c #282127",
"x c #2C2226",
"c c #2A2329",
"v c #2A252A",
"b c #2E262D",
"n c #362121",
"m c #322325",
"M c #3D2423",
"N c #392424",
"B c #30292F",
"V c #362A2E",
"C c #2F2930",
"Z c #322A31",
"A c #322C33",
"S c #352E35",
"D c #3C2F34",
"F c #373037",
"G c #383037",
"H c #3A3139",
"J c #3C353C",
"K c #3F383F",
"L c #403840",
"P c #463E46",
"I c #473F48",
"U c #4A414B",
"Y c #4C434D",
"T c #4E454E",
"R c #4F4650",
"E c #534A53",
"W c #534A54",
"Q c #554B55",
"! c #554C56",
"~ c #584F58",
"^ c #5A5059",
"/ c #5C525C",
"( c #5E545E",
/* pixels */
"                                                ",
"..                                              ",
"$O                                              ",
"$#########.                                     ",
"$$$$$$$#...    ........        ..........       ",
"$$$$$$$O      .#$$$$$$.        .$$$$$$$$.       ",
"$$$$$$$########$$$$$$$.        .$$$$$$$$.       ",
"$$$$$$$$$$$$$$$$$$$$$$.        .$$$$$$$$.       ",
"$$$$$&&&&&&&&$$$$$$$$#.        .#$$$$$$#.       ",
"$$$$:22222222:$$$$$$#.          .#$$$$#.        ",
"....#========#.......            ......         ",
"                                                ",
"###########@       .##############.             ",
"$$$$$$$$$$$#O..... .$$$$$$$$$$$$$$#.            ",
"$$$$$$$$$$$$$$$$$# .$&$$$$$$$$$$$$$#            ",
"$$$$$$$$$$$$$$$$$# .&<:$$$$$$$$$$$$#            ",
"$$$$$$$$$$$$$$$$$# .&2,$$$$$$$$$$$#.            ",
"$$$$$$$$$$$$$$$$$# #-3,$$$$$$$$$$$O             ",
"$$$$$$$$$$$$$$$$$# %35,$$$$$$$$$$$####@         ",
"$$$:,,,-$$$$$$$$$# =5<-$$$$$$$$$$$$$$$#         ",
"&&-3555<&&&&&&&&&# =3-$$$$$&&&&&&$$$##@         ",
"22355555222222222<O=53:$$$&<2222<&$#.           ",
"==-455555554-====% +==#...+%====%+..            ",
"  O<2222222<O                                   ",
"###&&&&&&&&&###########@                        ",
"777777777777777777777776............   ......   ",
"qqqqqqqewwwweeweqqqewee9X.$$$$$$$$$#  .#$$$$#.  ",
"*******8wwwet8et***8et89X.$$$$$$$$$# .#$$$$$$#. ",
"zzzzzh-aMMMn:aNxzzzmn:79X#:$$$$$$$$# .$$$$$$$$. ",
"JJJJJS<zJJJS<zJJJJJJS<79X=3-$$$$$$$# .$$$$$$$$. ",
"JJJJJS<zJJJS<zJJJJJJS<79X=53:$$$$$$# .$$$$$$$$. ",
"IIIIIJ13zzzh-bIIGzzzh-79X=55<:$$$$#. .O#$$$$$$. ",
"!!!!!YcppppppH!!S$,<,*89X%<<<<####.    @######. ",
"(((((/QEEEEEE~((H,BSVse9X OOOO                  ",
"HHHHHHHHHHHHHHL^H<SJDdwqo.............          ",
"$-<<<,-&&&&&&$pEH,BSVseq*$$$$$$$$$$$$O          ",
"$hSSSZf222222:5US$,<,*8q*$$$$$$$$$$$$###.       ",
"$zJJJHCl55555,3ULZczh-7q*-:$$$$$$$$$$$$$#.      ",
"$cKJJJJCggf55,3UTPHSB,7q*,2&$$$$$$$$$$$$#@      ",
"$ZYKJJJHFFv55,3UH3<<,$7q*,2&$$$$$$$$$$$$O       ",
"$ZEUIIIIPJSvf,pTS&<11y0r><2&$$$$$$$$$$$$.       ",
"$ZWWWWWWRLJFg,pEH-gjkrwri53-$$$$$$$$$$$$.       ",
"$ZWWWWWWRLJFg,pEH-gjkrwri553:$$$$$$$$$$$.       ",
"$ZWWWWWWRLJFg,pEH&<11y0ri555<,,,:$$$$$#O.       ",
"$ZWWWWWEYKHAg,pEH$---$7ru55555553-$$$#@         ",
"$ZWWWWWUKJCg5,pEH-pgp-7q;<55555553:$$O          ",
"$hZZZZZbzzp,,-pEH-gjg-7qo#========#...          ",
"$$$$$$$$$$$$$$pEH-gjg-79X                       "
};
