/* XPM */
static char *be6fac346e6646cb89d19ec4c1dee26f[] = {
/* columns rows colors chars-per-pixel */
"48 48 105 2 ",
"   c #09080D",
".  c #0B090E",
"X  c #0E0A0F",
"o  c #0C0B10",
"O  c #0E0C11",
"+  c #110B10",
"@  c #120C11",
"#  c #140D12",
"$  c #130F14",
"%  c #160F14",
"&  c #1B0E11",
"*  c #131015",
"=  c #171016",
"-  c #1B1115",
";  c #171419",
":  c #1A1318",
">  c #1B1419",
",  c #1D151B",
"<  c #1B171C",
"1  c #1F171D",
"2  c #1B181D",
"3  c #1F181D",
"4  c #25100F",
"5  c #29100E",
"6  c #2D110E",
"7  c #37130C",
"8  c #3D140B",
"9  c #3A130C",
"0  c #210F10",
"q  c #20181E",
"w  c #28191B",
"e  c #221E23",
"r  c #241C22",
"t  c #272026",
"y  c #282127",
"u  c #2A2329",
"i  c #2B242B",
"p  c #2C272D",
"a  c #2E262D",
"s  c #2E292F",
"d  c #362121",
"f  c #3D2423",
"g  c #30292F",
"h  c #2F2A30",
"j  c #322A31",
"k  c #352E35",
"l  c #373037",
"z  c #383138",
"x  c #3B343B",
"c  c #3B343C",
"v  c #3C353C",
"b  c #3E373E",
"n  c #3F383F",
"m  c #3F3840",
"M  c #403740",
"N  c #403840",
"B  c #433D45",
"V  c #463E46",
"C  c #473F48",
"Z  c #464047",
"A  c #47424A",
"S  c #49414A",
"D  c #4C434D",
"F  c #4D454E",
"G  c #4F4650",
"H  c #504751",
"J  c #514852",
"K  c #534A54",
"L  c #554B55",
"P  c #554C55",
"I  c #584F59",
"U  c #57505A",
"Y  c #59515B",
"T  c #5B535D",
"R  c #5C525C",
"E  c #5E545E",
"W  c #5E5A67",
"Q  c #615963",
"!  c #605A64",
"~  c #645C67",
"^  c #625D6A",
"/  c #645F6C",
"(  c #6C6773",
")  c #6E6873",
"_  c #6F6974",
"`  c #736D78",
"'  c #77727F",
"]  c #757383",
"[  c #797480",
"{  c #7D7682",
"}  c #857E8B",
"|  c #827F8F",
" . c #808092",
".. c #898391",
"X. c #8A8795",
"o. c #89889A",
"O. c #908C9B",
"+. c #938E9C",
"@. c #9893A1",
"#. c #9895A5",
"$. c #9B99AA",
"%. c #A29EAC",
"&. c #A6A1B0",
"*. c #AEAABB",
"=. c #B7B3C3",
/* pixels */
" . . . . . . .$.%.J W  . . . . .$.=.=.$.] A [ *.o. .] A W  . . .] A b A ]  . . . . . . . . .W b ",
"$.$.$.$.$.$.$.X._ Z ( $.$.$.$.$.O.} } ' ^ V ! ..#.$.o.F ( $.$.$.o.F N F / | $.$.$.$.$.$.$.$.( b ",
"&.&.&.&.&.&.&.` b l ) &.&.&.&.&.{ K K K F z V Q @.&.+.S ) &.&.&.+.S V K K { &.&.&.&.&.&.&.&._ l ",
"~ ~ ~ ~ ~ ~ ~ Y V r m ~ ~ ~ ~ ~ T K K K S r k P Q ~ U t m ~ ~ ~ U t k K K T ~ ~ ~ ~ ~ ~ ~ ~ B e ",
"K K K K K J S F S 1 j K K K K K K J S C b , j K K K S 1 j J S C b , j K K K K K K K K K K K z 3 ",
"G G G G J G N V V 1 j J H G G G G D n z g : j G G J S 1 a V b b k > j K K K K K K K K J G G l 3 ",
"N N N N S G N b z > j H N N N N N n b i : # u N N S S 1 : r l b k > j K K K K K K K K S N N s 3 ",
"y y y y a j u y r = r j u y y y y y y 1 # # 1 y y a a : # = r y r = a C C F K K K J S N b b a 3 ",
"> , 1 1 1 1 1 , > > > > > , , % # % , 1 1 1 1 1 1 1 1 1 1 1 1 , > > i b x V G G G D n z z x a 3 ",
"k b S S S S S b k k k k k b M , # , M S S S S S S S S S S S S b k k z b x b N N N n b h t z a 3 ",
"b N C C C C C N b b b b b N V k r 1 S F C C C C C C C C C C C N b b b b b b b b b b b a 3 e < * ",
"b b b b b b b b b b b b b b n D j , M N b b b b b b b b b b b b b b b x z l l l l l l a 3 O . . ",
"b b b b b b b b b b b b b b b n u % , a b b b b b b b b b b b b b b b z t e e e e e e a h $ . . ",
"F F F F S C C C C C C V C C C C b j j b S F F F F F F F F F F F F F S V c z z z z z z N S z k k ",
"P Y R L F S S S S H J H S S S S S S J F S J J L R E R L J J J J L R I J S S S S S S J L P P P P ",
"u m D u q 1 1 1 t S J S t 1 1 1 1 t S z 3 q q u D P D u q q q q u D L S t 1 1 1 1 t S b u u u u ",
"a z b , 1 y y 1 , b C b , 1 y y 1 , b a = r 1 , b C b , 1 y y 1 , b C b , 1 y y 1 , b z a a a a ",
"k z k > y b b y > k b k > y b b y > k y > k y > k b k q i b b y > k b k > y b b y > k z k k k k ",
"> i k > y b b y > k b k > y b b y > k y > k y > k b x k z b b y > k b k > y b b y > k i > > > > ",
"# 1 r = w f f w = r y r = w f f w = r 1 - d w = r y y y y y y 1 = r y r = w f f w = r 1 & 4 5 5 ",
"& & & & 6 8 8 6 & & & & & 6 8 8 6 & & & 0 9 6 & & & & & & & & & & & & & & 6 8 8 6 & & & 0 9 8 8 ",
"7 7 7 7 9 8 8 9 7 7 7 7 7 9 8 8 9 7 7 7 9 8 9 7 7 7 7 7 7 7 7 7 7 7 7 7 7 9 8 8 9 7 7 7 9 8 8 8 ",
"5 5 5 5 5 5 5 5 5 5 5 5 5 5 5 5 5 5 5 5 5 5 5 5 5 5 5 5 5 5 5 5 5 5 5 5 5 5 5 5 5 5 5 5 5 5 5 5 ",
"@ @ @ @ @ @ @ @ @ @ @ @ @ @ @ @ @ @ @ @ @ @ @ @ @ @ @ @ @ @ @ @ @ @ @ @ @ @ @ @ @ @ @ @ @ @ @ @ ",
". . . . . . . . . . . . . . . . . . . . . . . . . . . . . . . . . . . . . . . . . . . . . . . . ",
"X X . . . . . X X X X O $ * $ . . . . . . . O * * @ X X X X X X X . O * * * * * * * * * * * O . ",
"% @ . . . . . X # # # % < 3 > o . . . . . . = 3 1 - # # # # # # @ . $ < < < < < < < < < < < $ . ",
"< = + . . . . X # # # % < 3 > o X @ @ X . ; 2 1 = # # # # # # # @ . O % % % % % % % % % % % O . ",
": = @ . . . X @ # # # # - > > o X # # $ = 2 > - # # # # # # # # @ . X # # # # # # # # # @ @ X . ",
"# # @ . . X @ @ # # # # # : > o X # # - < < - # # # # # # # # # @ . X # # # # # # # # # @ @ X . ",
"# # @ . X @ @ @ # # # # # : > o X # # # % % # # # # # # # # # # @ . X # # # # # # # # # @ @ X . ",
"X X X . X @ @ @ # # # # # : > o X # # # # # # # # # # # # # # # @ . X # # # # # # # # # @ o . . ",
". . . . X # # # # # # # # - > o X # # # # # # # # # # # @ @ @ @ + . X # @ @ # # # # # # @ . . . ",
". . . . X # # # # # # # # # @ . X # # # # # # # # # # # o . . . . . X # @ @ # # # # # # @ . . . ",
". . . . X # # # # # # # # # @ . X # # # # # # # # # # # @ X . . . . X # @ @ @ o X X X X X . . . ",
". . . . X @ @ @ @ @ @ @ @ @ + . X @ @ @ @ @ @ @ @ @ @ @ @ + . . . . X @ @ @ + . . . . . . . . . ",
". . . . . . . . . . . . . . . . . . . . . . . . . . . . . . . . . . . . . . . . . . . . . . . . ",
". . . $ * * * * $ O X X X X X X X . . . . . X O $ * * * @ X . . . . . . . . . . . . . . . X X X ",
". . o > 2 < < < > % # # # # # # o . . . . . X % > < 1 3 > @ . . . . . . . . . . . . . . X @ @ @ ",
". . o > > % % % % # # # # # # # @ @ @ @ + . X # % % = 1 3 > o . . . . . . . . . . . . X @ @ @ @ ",
". . . $ $ @ @ @ # # # # # # # # # # # @ X . X # # # # - > < @ X X . . . . . . . . . . X @ @ @ @ ",
". . . . X @ @ @ # # # # # # # # # # @ X . . X # # # # # - > % # @ . . . . . . . . . . X @ @ @ @ ",
". . . . X # @ @ # # # # # # # # # @ . . . . X # # # # # # % # # @ . . . . . . . . . . X # # # # ",
". . . . X X X @ # # # # # # # # # @ . . . . X # # # # # # # # # @ . . . . . . . . . . . X X X X ",
". . . . . . . X @ # # # # # # # @ @ . . . . X @ # # # # @ @ @ @ + . . . . . . . . . . . . . . . ",
". . . . . . . . X @ # # # # # # @ @ . . . . . X @ # # # @ @ @ o . . . . . . . . . . . . . . . . ",
". . . . . . . . . X X X X X X X X X . . . . . . X X X X X X X . . . . . . . . . . . . . . . . . ",
". . . . . . . . . . . . . . . . . . . . . . . . . . . . . . . . . . . . . . . . . . . . . . . . "
};
