/* XPM */
static char *c6da3b56bc0a489a92dfca2dcd5dfdb4[] = {
/* columns rows colors chars-per-pixel */
"50 60 129 2 ",
"   c None",
".  c #2B2F37",
"X  c #2A3036",
"o  c #2A3037",
"O  c #2B3037",
"+  c #2C3037",
"@  c #2C3138",
"#  c #2D3138",
"$  c #2C3238",
"%  c #2D3239",
"&  c #2D343B",
"*  c #2F353C",
"=  c #30353D",
"-  c #30363D",
";  c #31373E",
":  c #31363F",
">  c #31373F",
",  c #32373E",
"<  c #32363F",
"1  c #33363F",
"2  c #32373F",
"3  c #33373F",
"4  c #32383F",
"5  c #323740",
"6  c #333740",
"7  c #333840",
"8  c #333940",
"9  c #333841",
"0  c #333941",
"q  c #333A42",
"w  c #353941",
"e  c #343942",
"r  c #353942",
"t  c #343A42",
"y  c #353B42",
"u  c #353A43",
"i  c #353B43",
"p  c #363B42",
"a  c #363B43",
"s  c #353B44",
"d  c #363B44",
"f  c #373B44",
"g  c #353C44",
"h  c #363C44",
"j  c #373C44",
"k  c #363C45",
"l  c #373C45",
"z  c #373D45",
"x  c #373D46",
"c  c #373E46",
"v  c #373E47",
"b  c #383D47",
"n  c #383E46",
"m  c #383E47",
"M  c #393E48",
"N  c #393F48",
"B  c #393F49",
"V  c #3A3F48",
"C  c #384049",
"Z  c #394049",
"A  c #3A4049",
"S  c #3A4149",
"D  c #3B404A",
"F  c #3B404B",
"G  c #3B424A",
"H  c #3A424B",
"J  c #3B424B",
"K  c #3C414B",
"L  c #3B424C",
"P  c #3B434C",
"I  c #3C424C",
"U  c #3D434D",
"Y  c #3C444C",
"T  c #3D444D",
"R  c #3D444E",
"E  c #3F454E",
"W  c #3E454F",
"Q  c #3E464F",
"!  c #3F464F",
"~  c #3F4550",
"^  c #3F4650",
"/  c #3F4751",
"(  c #40464F",
")  c #404650",
"_  c #424752",
"`  c #414953",
"'  c #434954",
"]  c #434A54",
"[  c #424A55",
"{  c #434B56",
"}  c #444954",
"|  c #444A54",
" . c #444B56",
".. c #454B56",
"X. c #434C56",
"o. c #454C57",
"O. c #454D57",
"+. c #464C57",
"@. c #454D58",
"#. c #464D59",
"$. c #464E58",
"%. c #464E59",
"&. c #474E59",
"*. c #464F5A",
"=. c #484E5A",
"-. c #484F5B",
";. c #494F5B",
":. c #47505B",
">. c #48505B",
",. c #49505B",
"<. c #48505C",
"1. c #49515C",
"2. c #49515D",
"3. c #4B515D",
"4. c #4A525D",
"5. c #4A535D",
"6. c #49515E",
"7. c #4A515E",
"8. c #4B525E",
"9. c #4B535F",
"0. c #4C545F",
"q. c #4D545F",
"w. c #4D5260",
"e. c #4C5360",
"r. c #4C5361",
"t. c #4C5460",
"y. c #4D5460",
"u. c #4C5560",
"i. c #4D5461",
/* pixels */
"                              t.      t.      o   o   + o   o o     5                               ",
"                              t.      u       o   o   + o   o o A R d                               ",
"                              t.      @ *     P   o   + o   A : I ) m                               ",
"                              4.}     @ : 7 [ 4.  j   j A =.4.I R K u                               ",
"                              $.P :   : 7 j R $.  ,.  4.=.$.$.o.R m u                               ",
"                                u 7 N o.  o.) j j 4.  4.[ m d d ^ }                                 ",
"                                ` I A 4.    $.} o.4.  A j 7 : : u u                                 ",
"                                :.^ d R       4.0.w.  ) R u :   @ @                                 ",
"                                4.} N u       o.t.    4.4.  5   j j                                 ",
"                                4.4.^ 7       I 0.    [ X.  5   $.=.                                ",
"                                ,.,.  5       N t.      7       w.t.                                ",
"                                A A   :       u   t.            t.t.                                ",
"                                : :   :       :   0.R 7         R (                                 ",
"                                I A   :       :   w.j j A I I m u 7                                 ",
"                                =.=.  :       :     & m } $.o.N j j                                 ",
"                                t.w.          j     o 7         ` o.                                ",
"                                4.4.          [     .                                               ",
"                                R ^           t.                                                    ",
"                                5 4                                                                 ",
"                                                                                                    ",
"                                                                                                    ",
"                                                                                                    ",
"                                                                                                    ",
"                                                                                                    ",
"                                                                                                    ",
"                                                                                                    ",
"                                                                                                    ",
"                                                                                                    ",
"                                                                                                    ",
"                                                                                                    ",
"                                                                                                    ",
"                                                                                                    ",
"                                                                                                    ",
"                                                                                                    ",
"                                                                                                    ",
"                                                                                                    ",
"                                                                                                    ",
"                                                                                                    ",
"                                                                                                    ",
"                                                                                                    ",
"                                                                                                    ",
"                                                                                                    ",
"                                                                                                    ",
"                                                                                                    ",
"                                                                                                    ",
"                                                                                                    ",
"                                                                                                    ",
"                                                                                                    ",
"                                                                                                    ",
"                                                                                                    ",
"                                                                                                    ",
"                                                                                                    ",
"                                                                                                    ",
"                                                                                                    ",
"                                                                                                    ",
"                                                                                                    ",
"                                                                                                    ",
"                                                                                                    ",
"                                                                                                    ",
"                                                                                                    "
};
