/* XPM */
static char *_1c8fc8199cf4e90b644e3d5d275c38e[] = {
/* columns rows colors chars-per-pixel */
"60 60 165 2 ",
"   c None",
".  c #15131B",
"X  c #16121A",
"o  c #16121B",
"O  c #17131B",
"+  c #17121C",
"@  c #17131C",
"#  c #18121B",
"$  c #18131D",
"%  c #18141D",
"&  c #1A151D",
"*  c #1A161D",
"=  c #18141E",
"-  c #19141E",
";  c #19151E",
":  c #19151F",
">  c #1A151F",
",  c #1A161E",
"<  c #1C171E",
"1  c #1C181E",
"2  c #1D181F",
"3  c #1A1620",
"4  c #1B1621",
"5  c #1C1721",
"6  c #1E1920",
"7  c #1F1A20",
"8  c #1D1822",
"9  c #1D1823",
"0  c #1F1924",
"q  c #1F1A25",
"w  c #201B22",
"e  c #211C23",
"r  c #201B24",
"t  c #221B25",
"y  c #201B27",
"u  c #221C25",
"i  c #231E25",
"p  c #211C26",
"a  c #231D27",
"s  c #231E26",
"d  c #241E25",
"f  c #221C28",
"g  c #231E28",
"h  c #231D2A",
"j  c #251F28",
"k  c #241E2A",
"l  c #241E2B",
"z  c #241F2B",
"x  c #251F2B",
"c  c #251F2C",
"v  c #261F2D",
"b  c #271F2E",
"n  c #26202B",
"m  c #27212C",
"M  c #27202E",
"N  c #27212E",
"B  c #28212B",
"V  c #28202C",
"C  c #28212E",
"Z  c #28212F",
"A  c #28222E",
"S  c #2B242F",
"D  c #2B252F",
"F  c #292230",
"G  c #2B2330",
"H  c #2A2331",
"J  c #2B2331",
"K  c #2B2232",
"L  c #2A2332",
"P  c #2B2332",
"I  c #2B2333",
"U  c #2B2432",
"Y  c #2B2532",
"T  c #2B2433",
"R  c #2B2533",
"E  c #2D2630",
"W  c #2D2633",
"Q  c #2D2334",
"!  c #2C2434",
"~  c #2D2434",
"^  c #2D2534",
"/  c #2E2535",
"(  c #2E2436",
")  c #2E2536",
"_  c #2E2636",
"`  c #2F2636",
"'  c #2E2736",
"]  c #2F2737",
"[  c #2F2935",
"{  c #2F2837",
"}  c #2F2738",
"|  c #302738",
" . c #302838",
".. c #302938",
"X. c #312839",
"o. c #302A39",
"O. c #312A39",
"+. c #322A39",
"@. c #32293A",
"#. c #33283B",
"$. c #322A3A",
"%. c #322A3B",
"&. c #352B3B",
"*. c #342C3B",
"=. c #33283C",
"-. c #33293C",
";. c #34293C",
":. c #35293D",
">. c #362A3E",
",. c #362B3F",
"<. c #332C3C",
"1. c #332D3D",
"2. c #342D3D",
"3. c #362D3F",
"4. c #362F3F",
"5. c #372B40",
"6. c #372C40",
"7. c #372D40",
"8. c #382C40",
"9. c #382C41",
"0. c #382D41",
"q. c #392F40",
"w. c #392D42",
"e. c #392E42",
"r. c #392E43",
"t. c #3A2E43",
"y. c #3A2F43",
"u. c #3B2F44",
"i. c #393142",
"p. c #393143",
"a. c #3A3043",
"s. c #3B3243",
"d. c #3C3443",
"f. c #3A3044",
"g. c #3B3045",
"h. c #3B3346",
"j. c #3C3145",
"k. c #3C3146",
"l. c #3C3246",
"z. c #3D3246",
"x. c #3C3346",
"c. c #3E3347",
"v. c #3C3446",
"b. c #3D3447",
"n. c #3D3547",
"m. c #3F3646",
"M. c #3E3548",
"N. c #3E3648",
"B. c #3F374A",
"V. c #403549",
"C. c #40354A",
"Z. c #40374A",
"A. c #42374B",
"S. c #40384B",
"D. c #41384C",
"F. c #41394C",
"G. c #433A4C",
"H. c #443A4E",
"J. c #453B4E",
"K. c #453B4F",
"L. c #463C50",
"P. c #463D50",
"I. c #483E50",
"U. c #4B4054",
"Y. c #4C4155",
/* pixels */
"                                        o o o o o o o o o o o o o o o o o o o o                                         ",
"                                        o b X.1.X.; b X.1.1.1.1.1.U ; X.1.X.b o                                         ",
"                                        o ( 9.b.b.3 ( 9.x.x.Z.b.B.1.3 b.b.9.( o                                         ",
"                                        o ( 9.f.b.3 ( 9.9.f.B.f.x.1.3 b.f.9.( o                                         ",
"                                        o ( 9.f.b.3 ( 9.f.S.S.f.x.1.3 b.f.9.( o                                         ",
"                                        o ( 9.f.b.3 ( x.B.S.S.f.x.1.3 b.f.9.( o                                         ",
"                                        o ( 9.9.7.; ( x.S.S.S.f.9.} ; 7.9.9.( o                                         ",
"                                        o ( 9.9.:.; ( x.S.S.S.f.9.( ; :.9.9.( o                                         ",
"                                        o F :.9.:.; F a.B.B.S.f.9.( ; :.9.9.( o                                         ",
"                                        o h | 9.=.; h 1.f.7.B.f.5.Q ; :.5.:.Q o                                         ",
"                                        o h | :.Z ; h F U ( B.f.X.x ; :.( F x o                                         ",
"                                        o h F ( M ; h F F F { ( F h ; F F F h o                                         ",
"                                        o 8 q q q + 8 q q q q q q 8 + q q q 8 o                                         ",
"                                        o o o o o o o o o o o o o o o o o o o o                                         ",
"                                            o o o o + ; + o $ + + + o o o o                                             ",
"                                            o o o o h M h $ b 3 q h o o o o                                             ",
"                                            o o + h M F x 8 Z r u M h + o o                                             ",
"                                            o o ; M ( | F w Z u Z ( M ; o o                                             ",
"                                            o o ; M =.u.&.e X.x F =.M ; o o                                             ",
"                                            o o ; M =.Z.b.d I.E F =.M ; o o                                             ",
"                                            o o ; M =.Z.b.d I.E F =.M ; o o                                             ",
"                                            o o ; M =.Z.b.d I.E F =.M ; o o                                             ",
"                                            o ; r Z 3.H.b.d I.E E 3.M ; o o                                             ",
"                                            o 5 F F a.P.b.d I.E { a.M ; o o                                             ",
"                                            o 5 F F a.P.b.d I.E { a.M ; o o                                             ",
"                                            o 5 F F a.P.b.d I.E { a.M ; o o                                             ",
"                                            o 5 F F a.P.b.d I.E { a.M ; o o                                             ",
"                                            o 5 F F a.P.b.d I.E { a.M ; o o                                             ",
"                                            o 5 F F a.P.b.d I.E { a.M ; o o                                             ",
"                                            o 5 F F a.P.b.d I.E { a.M ; + o                                             ",
"                                            o 5 F F a.P.b.d I.E { a.F M 3 o                                             ",
"                                            o 5 F F a.P.b.d I.E { a.F F 5 o                                             ",
"                                            o 5 F F a.P.b.d I.E { a.F F 5 o                                             ",
"                                            o 5 F F a.P.b.d I.E { a.F F 5 o                                             ",
"                                            o 5 F F a.P.b.d I.E { a.F F 5 o                                             ",
"                                            o 5 F F a.P.b.d I.E { a.F F 5 o                                             ",
"                                            o $ 8 Z a.P.b.d I.E { a.Z F 5 o                                             ",
"                                            o o ; M a.P.b.d I.E { a.F F 5 o                                             ",
"                                            o o ; M a.P.b.d I.E { a.F F 5 o                                             ",
"                                            o o ; M a.P.b.d I.E { a.F F 5 o                                             ",
"                                            o o ; M a.P.b.d I.E { a.F F 5 o                                             ",
"                                            o o ; M a.P.b.d I.E { a.F F 5 o                                             ",
"                                            o o ; M a.P.b.d I.E { a.F F 5 o                                             ",
"                                            o o ; M 3.G.b.d I.E { a.F F 5 o                                             ",
"                                            o o ; M F a.b.d I.E { a.F F 5 o                                             ",
"                                            o o ; M F a.b.d I.E { a.F F 5 o                                             ",
"                                            o o ; M | Z.b.d I.9.X.( F F 5 o                                             ",
"                                            o o ; M =.Z.b.d I.x.| F F F 5 o                                             ",
"                                            o o ; M =.Z.d.u H.x.| F Z x ; o                                             ",
"                                            # o ; M =.x.3.u b.f.| F M ; o #                                             ",
"                                          o ; < ; M =.x.a.F B.f.| F M ; < ; o                                           ",
"                                          o ; 1 ; M =.x.a.U B.f.:.| M ; 1 ; o                                           ",
"                                          ; 1 1 ; M ( X.X.F 1.X.| ( M ; 1 1 ;                                           ",
"                                        o r B M x ( X.X.*.*.*.*.*.*.X.Z S S h o                                         ",
"                                        o ( x.B.B.B.B.H.U.U.U.U.U.U.Y.Y.Y.P.1.o                                         ",
"                                        o ( 9.9.9.9.9.9.9.9.9.9.9.x.G.G.G.G.1.o                                         ",
"                                        o b ( ( ( ( ( X.9.9.9.9.9.9.f.f.f.b.1.o                                         ",
"                                        o h F F F F F ( | | | | | | | | | X.U o                                         ",
"                                        o u n n n n n n n n n n n n n n n n u o                                         ",
"                                        o 1 8 8 8 8 8 8 8 8 8 8 8 8 8 8 8 8 1 o                                         "
};
