/* XPM */
static char *d7730a6e15ad4ad0987e7a665ab15d0f[] = {
/* columns rows colors chars-per-pixel */
"60 60 79 1 ",
"  c #0B090D",
". c #150B0D",
"X c #190D0D",
"o c #0D0B10",
"O c #120E12",
"+ c #1C0F12",
"@ c #161115",
"# c #1B1115",
"$ c #171418",
"% c #1B151A",
"& c #1E191D",
"* c #25100F",
"= c #2D110D",
"- c #32120C",
"; c #3A140C",
": c #210F10",
"> c #211012",
", c #2B1414",
"< c #21171A",
"1 c #221A1F",
"2 c #311614",
"3 c #341814",
"4 c #231D22",
"5 c #281D20",
"6 c #262126",
"7 c #282227",
"8 c #2B252B",
"9 c #2F282E",
"0 c #30292F",
"q c #2F2930",
"w c #332D32",
"e c #373037",
"r c #383137",
"t c #363138",
"y c #3B343B",
"u c #3C353C",
"i c #3F383F",
"p c #3F3840",
"a c #3F3A42",
"s c #403B43",
"d c #433B44",
"f c #433C44",
"g c #443C44",
"h c #443D45",
"j c #473F48",
"k c #454047",
"l c #474049",
"z c #4A424B",
"x c #48424C",
"c c #4C444D",
"v c #4E4650",
"b c #4F4852",
"n c #534A54",
"m c #544B55",
"M c #524C56",
"N c #554D57",
"B c #574E59",
"V c #56525D",
"C c #59525D",
"Z c #5B535E",
"A c #575460",
"S c #5B5763",
"D c #5D5662",
"F c #5C5764",
"G c #5C5864",
"H c #5F5B68",
"J c #605D6A",
"K c #645E6A",
"L c #645F6C",
"P c #65606D",
"I c #676270",
"U c #676472",
"Y c #6B6775",
"T c #6B6877",
"R c #6F6C7B",
"E c #716F7F",
"W c #757383",
"Q c #757484",
"! c #808092",
/* pixels */
"44444&$$$$$$$OO  O&wyrw744%>=-.                             ",
"wysaew8888888886&$&ww864&&$#=-.  ooooooooo                  ",
"jMFGbldssssssssa9&&w84%%$$$:=-. oOOOOOOOOOO                 ",
"nDIYLCvzzzzzzzzzw4&w7%$$%#>*--XOOOOOOOOOOOO                 ",
"nNCPEGzsssssssau8&&w7%%1412;;-#O.                           ",
"nnBKWJluuuuuuurw6%&w7%%4453;;-#O.                           ",
"nnBKQJluuuuuyrw81$&w7%%4412;;-#O.                           ",
"nnBKQJluuuuurw87&$&w7%$%%<>=--#O.                           ",
"nnBKQJluuuuurw76&$&w8&$$$$+:--#O.                           ",
"mnBJWJluuuuurw97&$&ww84&%%$>=-X.                            ",
"CNMDEGzsssssuur7%$&wrw8641$>=-X.                            ",
"RSxlDCvzzzzzzzu4$O&w0644&$$:=-X                             ",
"EJblvvcxxxxxxza6$$&w8&&4%$+*--X                             ",
"JJHVzhhhhhhhfsuq4%&w8&&1%+*---.                             ",
"nJRUluuuuuyuyree7%&w8&&1%+=;;-.                             ",
"nJRUluuuuuuuew88&%&w8&&1%+-;;-.                             ",
"nJRUluuuuuyew866&$&w8&&1%+*---.    ooo                      ",
"nJRUluuuuurw8766%$&w8&&4%$+*--.   OOOOO                     ",
"nJRUluuuuurw9886&$&w0644&$$+=-.  oOOOOO                     ",
"nJRUluuuuuyrrrw8&$&wrw8641$#=-.  oOO                        ",
"nJRUluuuuuuuuyrw4%&ww84&%%$#=-.   O.                        ",
"nJRUluuuuuyrrrre7%&w8&$$$$+:=-.                             ",
"nJRUluuuuurwwwww4%&w7%$%%%>=--.                             ",
"nJRUluuuuurw8777&$&w7%%4412;;-.                             ",
"nJRUluuuuurw9744&$&w7%%4453;;-.                             ",
"nJRUluuuyrrrw844&$&w7%%1412;;-.                             ",
"nJRUluuurw988744&$&w7%$$%#>*--.                             ",
"nJRUluyrw8764444%$&w84%%$$$:=-.                             ",
"nGTPhurw87444&%%$$&ww864&&$#=-.                             ",
"zBGAaew84&&&&$OOOO&wyrw744%>=-.                             ",
"0wtw887&$OOOOO   O&wyrw744%>=-.                             ",
"xfurww864&&&&%$  O&ww861&&$#=-.  ooooooooo                  ",
"IGnzhurww99984%O O&w84%%$$$:=-. OOOOOOOOOOO                 ",
"RYLCchuuyeww074%@@&w7%$$%#>*--.OO$$$OOOOOOO                 ",
"CLTPziuurw887644%$&w7%%1412;;-.OO$$O.                       ",
"mJRUluuurww98744%$&w7%%4453;;-.OO$$O                        ",
"nJRUluuuyrrrw844&$&w7%%4412;;-.OO$$O                        ",
"nJRUluuuuuuuw844&$&w7%$%%%>=--.OOOO                         ",
"nJRUluuuuuurw844&$&w8&$$$$+:=-. OO                          ",
"nJRUluuuuyyw8744%$&ww84&%%$>=-.                             ",
"nJRUlyrrrrw86444%$&wrw8441$#=-.                             ",
"nJRUle088887644%@@&w04&%%$$+=-.                             ",
"nJRUkw866666441$ O&w8%$$$$#>--.                             ",
"nGTPlw86644444&O O&w7%$%&<,---.                             ",
"zBHGlrw0861&&&%O O&w7%%11<,-;-X                             ",
"0wydxxzzs8$OOOO  O&w7$O$$$+:--#OOOOOOOOo                    ",
"xfaszzzzsw1%$$$  O&w94&%%$$:=-#$$$$$$OO                     ",
"IGnzfsssir964&%O O&wew7411$#=-#$$$$$$O                      ",
"RYJBsuuuuurw864%@@&wyrw744%>=-#$$$OOOO                      ",
"CLTLjuuuuuyrw844%$&wrr9644%>=-#$$O                          ",
"mJRUluuuuuuurw86&$&ww84144%>=-#$$O                          ",
"nJRUluuuuuuurew7&$&w8&$%&4%>=-#$OO                          ",
"nJRUluuuuuuurw87&$&w7%$%14%>=-+OOO                          ",
"nJRUluuuuuyrw866&$&w7%%444%>=-XOOO                          ",
"nJRUluuuuyrw9744&$&w7%%444%>=-X...                          ",
"nJRUluyrrrw87444&$&w7%%141$>=-X.                            ",
"nJRUlurw98876444&$&w7%$$%$$+=-X                             ",
"DLIGhurw76664641%$&w84%%$$$+=-X                             ",
"EIScsurw7444444%OO&ww864&&$#=-X.                            ",
"!Yvuuurw744444&O O&wyrw744$>=-X                             "
};
