/* XPM */
static char *b0000fe2333b4bfda7dad056f93e228e[] = {
/* columns rows colors chars-per-pixel */
"60 60 67 1 ",
"  c #0A080D",
". c #150B0D",
"X c #1A0D0F",
"o c #0F0C11",
"O c #140D12",
"+ c #1B0E11",
"@ c #161015",
"# c #191116",
"$ c #171318",
"% c #1A151A",
"& c #1D191E",
"* c #24100F",
"= c #2E110E",
"- c #34120C",
"; c #3D140B",
": c #210F10",
"> c #211315",
", c #241719",
"< c #21191E",
"1 c #2D191A",
"2 c #341814",
"3 c #341D1C",
"4 c #3C201E",
"5 c #251E24",
"6 c #281F23",
"7 c #282127",
"8 c #272228",
"9 c #2B2329",
"0 c #2D2429",
"q c #2F272E",
"w c #2E292F",
"e c #342122",
"r c #3D2220",
"t c #30282E",
"y c #332B31",
"u c #332C32",
"i c #352D33",
"p c #362F36",
"a c #373036",
"s c #383036",
"d c #3C3237",
"f c #393339",
"g c #3B343B",
"h c #3C343A",
"j c #3C353C",
"k c #3F363E",
"l c #3F383F",
"z c #403740",
"x c #413A42",
"c c #443B43",
"v c #443C44",
"b c #463E47",
"n c #473F48",
"m c #483F48",
"M c #49414A",
"N c #4E464F",
"B c #50464F",
"V c #4F4650",
"C c #504751",
"Z c #534A53",
"A c #534A54",
"S c #544B55",
"D c #564C56",
"F c #584E58",
"G c #5B515A",
"H c #5B525C",
"J c #5F555F",
/* pixels */
"                                                            ",
"                                                            ",
"Oo                                                          ",
"OO                                                          ",
"OOOOOOOOOOOOO                                               ",
"OOOOOOOOOOOO                                                ",
"OOOOOOOOO          OOOOOOOOO           oOOOOOOOOOOo         ",
"OOOOOOOOOO        OOOOOOOOOO           oOOOOOOOOOOo         ",
"OOOOOOOOOOOOOOOOOOOOOOOOOOOO           oOOOOOOOOOOo         ",
"OOOOOOOOOOOOOOOOOOOOOOOOOOOO           oOOOOOOOOOOo         ",
"OOOOOOOOOOOOOOOOOOOOOOOOOOOO           oOOOOOOOOOOo         ",
"OOOOO@%%%%%%%%%%#OOOOOOOOOO              OOOOOOOO           ",
"OOOOO@%%%%%%%%%%$OOOOOOOOO               oOOOOOOo           ",
"     oooooooooooo                                           ",
"                                                            ",
"OOOOOOOOOOOOOOo          OOOOOOOOOOOOOOOOOO                 ",
"OOOOOOOOOOOOOOO         oOOOOOOOOOOOOOOOOOOo                ",
"OOOOOOOOOOOOOOOOOOOOOO  OOOOOOOOOOOOOOOOOOOOO               ",
"OOOOOOOOOOOOOOOOOOOOOO  oO@@OOOOOOOOOOOOOOOOO               ",
"OOOOOOOOOOOOOOOOOOOOOO  oO%%@OOOOOOOOOOOOOOOO               ",
"OOOOOOOOOOOOOOOOOOOOOO  oO%%@OOOOOOOOOOOOOOO                ",
"OOOOOOOOOOOOOOOOOOOOOO  oO%%@OOOOOOOOOOOOOO                 ",
"OOOOOOOOOOOOOOOOOOOOOO  O%%%@OOOOOOOOOOOOOOO                ",
"OOOOOOOOOOOOOOOOOOOOOO  @&&%@OOOOOOOOOOOOOOOOOOOO           ",
"OOOO$%%%%@OOOOOOOOOOOO  @&%@OOOOOOOOOOOOOOOOOOOOO           ",
"OOO#&&&&&$OOOOOOOOOOOOo @&#OOOOOOOOOOOOOOOOOOOOOo           ",
"%%%%&&&&&%%%%%%%%%%%%%O @&%$OOOOO@%%%%%%%@OOOo              ",
"%%%%&&&&&&&&&&&%%%%%%%O @%%%OOOOO@%%%%%%%@OOO               ",
"ooo@&&&&&&&&&&%@ooooooo ooooo    ooooooooo                  ",
"   O%%%%%%%%%%$o                                            ",
"OOOOO@@@@@@@@@OOOOOOOOOOOOOOOo                              ",
":::::::::::::::::::::::::::::X                              ",
"-----------------------------=. OOOOOOOOOOOOO    OOOOOOO    ",
"=========-;;;;---;--====-;----. OOOOOOOOOOOOO   OOOOOOOOO   ",
"+++++++++=;;;;-:*--+++++=-*+--. OOOOOOOOOOOOO  OOOOOOOOOOO  ",
"5555555%O1rrrr3#>3e65555e4,+--.o@@OOOOOOOOOOO  OOOOOOOOOOO  ",
"ggggggg7O9hhhhy%<ihggggghs5+--.o%%OOOOOOOOOOO  OOOOOOOOOOO  ",
"jjjjjjj7O9jjjji&<pjjjjjjjf5+--.o%%%@OOOOOOOOO  OOOOOOOOOOO  ",
"jjjjjjj7O9ggggy%<pjjjghgga5+--.o%&&%OOOOOOOOO  OOOOOOOOOOO  ",
"MMMMMMMqO&55555#5xMMf75555$+--.o%&&%%@OOOOOO    OOOOOOOOOO  ",
"SSSSSSSf%%%%%%%%qMSSfOO###++--.o%%%%%@OOOOO      OOOOOOOOO  ",
"HHHHHHHBccccccccMDHHjO<qq01---. oOOOOo                      ",
"ZZZZZZZZZZZZZZZZZZFJj@7jjd4;;-.                             ",
"999999999999999999jGj@7jjd4;;-XOOOOOOOOOOOOOOO              ",
"O@%&&&&$@@@@@@@@OOqDjO5uut3-;-+OOOOOOOOOOOOOOOO             ",
"O&quuuu7%%%%%%%%$O0VfO#&&%#*--+OOOOOOOOOOOOOOOOOOO          ",
"O<pjjjjy75&&&&&&%O9Nx75<<&#+--+O@OOOOOOOOOOOOOOOOOO         ",
"O<pjjjjfp9&&&&&&%O9NNMjppy<+--+@%$OOOOOOOOOOOOOOOOOO        ",
"O5jxjjjjgy8975&&%O9NMjpqq9&+--+@%%OOOOOOOOOOOOOOOOOO        ",
"O5bMjjjjjfffp7&&%O9Nf%####O+--+@%%OOOOOOOOOOOOOOOOO         ",
"O5MNnbbbbbbxfy8<%OqZfO#%%%>=-->%&%OOOOOOOOOOOOOOOOo         ",
"O5MAZZZZZZCbjgp5%OtFj@%5552;;-,&&%OOOOOOOOOOOOOOOOo         ",
"O5MAAAAAAAZbjjp7%OtFj@%5562;;-,&&%%@OOOOOOOOOOOOOOo         ",
"O5MAAAAAAAZbjjp7%OtFj@%5552;;-,&&&&%OOOOOOOOOOOOOOo         ",
"O5MAAAAAAAZbjjp7%OtFj##%%%>=--,&&&&%%%%%$OOOOOOOO           ",
"O5MAAAAAAZNbgfu5%OtFj#OOOOO+--,&&&&&&&&&&#OOOOOOo           ",
"O5MAAAAAZMblfw75%OtFj@$&<&#+-->%&&&&&&&&&%$OOOO             ",
"O5zMMMMMmjppy5%%%OtFj@%555%+--+O%%%%%%%%%%%OOOo             ",
"O$55555555<<&$@@@OtFj@%555%+--Xooooooooooooo                ",
"OOOOOOOOOOOOOOOOOOtFj@%555%+--.                             "
};
