/* XPM */
static char *result[] = {
/* columns rows colors chars-per-pixel */
"60 60 59 1 ",
"  c #0B090D",
". c #150B0D",
"X c #190D0D",
"o c #0D0B10",
"O c #120E12",
"+ c #1C0F12",
"@ c #161115",
"# c #1B1115",
"$ c #171418",
"% c #1B151A",
"& c #1E191D",
"* c #25100F",
"= c #2D110D",
"- c #32120C",
"; c #3A140C",
": c #210F10",
"> c #211012",
", c #2B1414",
"< c #21171A",
"1 c #221A1F",
"2 c #311614",
"3 c #341814",
"4 c #231D22",
"5 c #281D20",
"6 c #262126",
"7 c #282227",
"8 c #2B252B",
"9 c #2F282E",
"0 c #30292F",
"q c #2F2930",
"w c #332D32",
"e c #373037",
"r c #383137",
"t c #363138",
"y c #3B343B",
"u c #3F383F",
"i c #3F3941",
"p c #423A42",
"a c #463F48",
"s c #464149",
"d c #4A424B",
"f c #4E4650",
"g c #4E4953",
"h c #534A54",
"j c #564E59",
"k c #5A525D",
"l c #575460",
"z c #5C5662",
"x c #5D5965",
"c c #5F5B68",
"v c #625D6A",
"b c #64616E",
"n c #676472",
"m c #6A6775",
"M c #6B6877",
"N c #6F6C7B",
"B c #706E7D",
"V c #757484",
"C c #808092",
/* pixels */
"                             O==:$444qeyw4o oO$O$OO@@%&45544",
"                    oo    o  o-=:@%445qew<$%4788898888qeuuyw",
"                 O  OOOOOOOOoX-=:$#$%%4qw&&9ppppppppppahvvha",
"                 OO OOOOOOOO.X--,>#%$$$5w&4wddadadafaflvMvzh",
"                . oooo .o. oO+-;;2544%<7w&%9uuppippipavVvzjh",
"               .   .       oO>-;;3544&%7w&%7ttuyyyyyyavVvjhh",
"             .      .  .  o.@>-;;214<%&40&@18wtyyyyyiacVvjhh",
"                 . o o   . o@#;-=:<%%$%4w&@&79wtyyyyyavVvhhh",
"                   . .      X>;=:+$+$$<9w&@%85qeyyyiyavVvjhh",
"                .          OOX-=>@%&&47ww&@&5qeeyyyyuavVvjhh",
"                  .    ..   OX-=>#1149wew&@&8tiipppppavNvjjk",
"                     .     . X-=+@#&444ww&O@4iafaaaaafjzpazN",
"                        .    X--*#@&4&&8w&@$4iaaafaaahffahvB",
"                . O   .     .X---*X%&&&7w&$49ypaaaappapajvvv",
"                             .-;;=#%&&&7e&%7eetyyyyuuuyavBvh",
"                             .-;;=#%&&&7q1$188qeyyyyuyuamBvh",
"                     O Ooo   .--=*+<4%<8w&@&749wtyuyyuysnNvh",
"                     OOOOO   O--:+@%1144w&$<4488wyyyyyysnNvh",
"                     OOXO$o  .-=:@@4446qw&$&4999wtyyyyydnNvh",
"               .   .O  OOOo  X==>@<448etw&@&8wettyyuyyysnNvh",
"              O O   O   o     -=:@%<<48ww&%4wiyyyyyyyyysnNvh",
"                O O   O o    X--:+#$$$4qw&&4wttiyyyuiypsnNvh",
"            .  . .  .        .--=:<%%@%4w&&4qqqqwyyyyyyanNvh",
"                      O      .-;-2544%%7w&$&4888wyyyyyyanNvh",
"                     OO .     -;;3544%%7w&$&467qwyyyyyuanNvh",
"              .   .          X-;;2441%%8w&$%678qttyyyyyanNvh",
"                .            .--=##%$#$5w&@%46789wwyyyuanNvh",
"                . .    o     .-=>@#@%%49w&$%1&46479wtyydnNvh",
"                   .         .-=*@&&168wt&@@%%&44478wtyanmxh",
"                             X-=#%1670yyw&@Oo@$%4&&49wrplvja",
"                             .-=:$1679yye&o o.oOOOOO&789wtw9",
"                  o oo       .-=:$&&&78ww&@ o@%&&&&479wwtupd",
"                 OOOOOO OOO OX-=X$$$%%18w1OoO%48999qweppdjxn",
"            .    OOOOOO$$$$X .--=>>$$#%7w&@O$589wweyyipflvnN",
"            .  ..  O  OOOOOOO.-;;3511%%7w&@%446679wtyypdvMvk",
"                 O   O  O$$O X=;;3541%%7w&@&46699wwyyyydnBvj",
"              .        .OOOO..-;;355&%%8w&@&648wtyyyyyysnBvh",
"          .      . O.    O$O X=-=><%#$%8w&@&468ryyyyyyisnBvf",
"              .    O     OOO X-->X$$$$&8w&@&648etyyyyyysnBvh",
"          .   .  O    .  O O X-=$@&%&580e&@%4688wyyiyyisnBvh",
"           .   .O            .==>#1457wre&@%44479wteetyanNvh",
"                     .       .-=:@$#%&40w&@O$44669999wtanMvh",
"                             X--*##$$$&7w&Oo@&46777448wanBvh",
"                             .--=,<&&$&70&.oO&44444759wavmvh",
"                    o o    o.X-;-2<1&$$7w&O.O&&&1449wwtsxcja",
"                    oOOOoOOO$X-=*##$$$>7w&O ooO@OO7padddpywq",
"                     OO$OO$OX$-=+#$$$&50w&O  @@$&4wpaaddiias",
"                     OOO$O$$$>-=##11470rw&O @%&449epppppsgxn",
"                     . XOO$$$X3=*$147qtyw1@@%479wtyyyyupjvMB",
"                        O OO$*-=:%4479rrw&@%449wyyuyyyyavMvk",
"                        . OO$>3=>$44148ww&@&79wtyyyyyyuabBvh",
"                      X   O$XX--:%1&$$<8w&@%7qttyyyyyyydnBvh",
"                     X   OOO$X-=:$4<&+$7w&@&4qwtyyyyyuydnNvh",
"   .              .    . OOOOX-=:$444%%7w&$&44qwyyyyyyusnNvh",
"     .           .      O O .X-=:%444&%7w&$<448qwyyyyyysnBvh",
"                  .   .      X-=:$<44%%7q&$448489rttyyusnNvh",
"                 .      .  . X--+@$$@@%5e1@%44447899wyydnNvh",
"                     ..     OX--:@$%$44qw1@%44444777wtyaxnvz",
"                  .   .      X--:@<<448wq1OO%4447447wtyiflnB",
"                           . X-->$444qtit1OoO4444747wtyyyfnC"
};
