/* XPM */
static char *_eeca627293749759a71e1e049a39cbb[] = {
/* columns rows colors chars-per-pixel */
"60 60 71 1 ",
"  c #0A080D",
". c #160B0D",
"X c #1B0D0E",
"o c #0F0B10",
"O c #130D12",
"+ c #1D0F10",
"@ c #161015",
"# c #1B1115",
"$ c #171318",
"% c #1A151A",
"& c #1D191D",
"* c #220F0F",
"= c #26100F",
"- c #2E110E",
"; c #33120D",
": c #3B140C",
"> c #200F10",
", c #221111",
"< c #2C1210",
"1 c #241618",
"2 c #22191E",
"3 c #2D191A",
"4 c #321512",
"5 c #351814",
"6 c #331D1D",
"7 c #3B1F1C",
"8 c #36201F",
"9 c #1F1B20",
"0 c #241D22",
"q c #291D20",
"w c #262026",
"e c #292128",
"r c #2A2229",
"t c #2B242A",
"y c #2C242A",
"u c #2F262D",
"i c #2F282E",
"p c #342222",
"a c #3C2221",
"s c #30282F",
"d c #31282F",
"f c #322B31",
"g c #332B32",
"h c #332C32",
"j c #362F36",
"k c #3A2E33",
"l c #382F38",
"z c #373037",
"x c #3B3034",
"c c #373138",
"v c #3A333A",
"b c #3C333B",
"n c #3B343B",
"m c #3C353C",
"M c #3F383F",
"N c #3F3840",
"B c #403740",
"V c #433B43",
"C c #463E47",
"Z c #473F48",
"A c #483F48",
"S c #484049",
"D c #4B424B",
"F c #4D444E",
"G c #50464F",
"H c #4F4650",
"J c #504750",
"K c #534A54",
"L c #544B54",
"P c #584F58",
"I c #5B525C",
/* pixels */
"                             .;-,$000%0mJs$OOOOOOOOOOOOOOOOO",
"                ooOOOOOOOOooO.;-,$000%0mJs$@@@$&000eeeeee0%O",
"              OOO@$$$$$$$$$@@+;-,$000%0mJs%$%&0uhjvVVVVVVj0O",
"            oOOO@$$&&&&&&&&%$,;-#$&&&$2mJs%$0wivMCDKKKKKKVeO",
"           oOOOOOO$&&&&&&&&&&1;->O@@@O&mJs%$0fcmVFKKKKKKKVeO",
"          oOOOOOOO@$$$$$&&&&&1;;-,%%$$2mJs%$wjvmCHKKKKKKKVeO",
"          OOOOOOOOOOOOO@$&&&&1;:;4202$0mJs%$wjnmCHKKKKKKKVeO",
"          OOOOOOOOOOOOOO@$&&21;::5q00%0mJs%$wjnmCHKKKKKKKVeO",
"          OOOOOOOOOOOOOOO@$&&1;:;4202$2bFu%$0fvmVFHHHHHJKVeO",
"          OOOOOOOOOOOOOOOO$$%1;;-,%%$$2vDu%$0efvMCCCCCCDFVeO",
"         oOOOOOOOOOOOOOOOO$$$+;->$%%$%0vZy%$&&wfvvnmmmmVDmeO",
"        OOOOOOOOOOOOOOOOOO$$$+;-,&euijmADy$$&&0wetfvmmmmVx0O",
"        OOOOOOOOOOOOOOOOOO$$$+;-,&yufjBDDy%$&&&990thvnmmmh0O",
"         OOOOOOOOOOOOOOOOO@@O+;-,$000esBAy$$&&&&&&0efvvvvf0O",
"          OOOOOOOOOOOOOOOOOOO+;;,#%&%$2kDy$$$$$$$$$&wfffft&O",
"             OOOOOOOOOOOOOOOO+;:46sfi00vFu$O@@@@@@@@$%&&&$@O",
"              OOOOOOOOOOOOOOO+;::7kvjw0mLVfuuuuuuuuusssssssu",
"                             .;::7kvj00mPKDACCCCCCCCDDDDDDDD",
"                      oOOOOo .;;43yut20vPILDVVVVVVVCGPIIIIII",
"  OOOOOOOOO      OOOOO@$$$$$O.;-,$%%%$2lKLCf22000020vFLLLLLL",
"  OOOOOOOOOO    OOOOOO@$$&&$O.;-,$00w0tvCDme$00ww0&&uVDDDDDD",
"  OOOOOOOOOOO  OOOOOOOO@$&&$O.;-,2fjjjznMNj0%ujjjjw&evNNNNNN",
"  OOOOOOOOOOO  OOOOOOOOO@$&$O.;-,0jnmmmmmmf0&fvmmve&ezmmmmmm",
"  OOOOOOOOOOO  OOOOOOOOOO@$@O.;-,2fkjjjjjxs0%skxxke%0fjjjjjj",
"  OOOOOOOOOOO  OOOOOOOOOOO@OO.;-,18pe000ep61#6aaaa3#%0000000",
"  OOOOOOOOOOO  OOOOOOOOOOOOO .;-=,;<,###,4;<,;::::->+#######",
"   oOOOOOOOo   OOOOOOOOOOOOO .;;;;:;;---;::;;:::::;;--------",
"    OOOOOOO    oOOOOOOOOOOO. .-;;;;;;;;;;;;;;;;;;;;;;;;;;;;;",
"                              X**************,,,,,,,,,,,****",
"                              OOOOOOOOOOOOOOOO@@@@@@@$@@OOOO",
"                                            O$$$$$$$$$$$O   ",
"                  ooOOOOOoo    oOOOo oOOOOOO@$&&&&&&&&&%@OOO",
"               oOOO@$$$$$@OOOOOO@$$OoO@$$$$$$&&&&&&&&&&&$$$$",
"              oOOO@$$$$$$$@OOOO@$$&@oO$$$$$$$$$$$$%&&&&&$$$$",
"            OOOOOOOOOOOOOOOOOOOO@$$@ooOOOOOOOO@OOO$%&&&&$@OO",
"           oOOOOOOOOOOOOOOOOOOOO@$%@oOOOOOOOOOOOOO@$$$$$@OOO",
"           OOOOOOOOOOOOOOOOOOOO@$&$@o OOOOOOOOOOOOOOOOOOOOOO",
"                OOOOOOOOOOOOOOO@$&$Oo OOOOOOOOOOOOOOOOOOOOOO",
"                oOOOOOOOOOOOOOO@$$@O  OOOOOOOOOOOOOOOOOOOOOO",
"                OOOOOOOOOOOOOOO@$$Oo  OOOOOOOOOOOOOOOOOOOOOO",
"               OOOOOOOOOOOOOOOO@$$OO  OOOOOOOOOOOOOOOOOOOOOO",
"               OOOOOOOOOOOOOOOOO@@O   OOOOOOOOOOOOOOOOOOOOOO",
"               oOOOOOOOOOOOOOOOOOOO   OOOOOOOOOOOOOOOOOOOOOO",
"                oOOOOOOOOOOOOOOOOOO         oOOOOOOOOOOOOOOO",
"                 oOOOOOOOOOOOOOOOOO          OOOOOOOOOOOOOOO",
"                                                            ",
"                                           oOOOOOOOOOOo     ",
"            OOOOOO                OOOOOOOOO@$$$$$$$$$@OOOOOO",
"           OOOOOOOO              oOOOOOOOOO$$$$$$$$$$$@OOOOO",
"          OOOOOOOOOO            OOOOOOOOOOOOOOOOOO@@OOOOOOOO",
"         .OOOOOOOOOO            OOOOOOOOOOOOOOOOOOOOOOOOOOOO",
"          OOOOOOOOOO            OOOOOOOOOOOOOOOOOOOOOOOOOOOO",
"          OOOOOOOOOO            OOOOOOOOOOo      oOOOOOOOOOO",
"          OOOOOOOOOO            OOOOOOOOO         oOOOOOOOOO",
"                                                  OOOOOOOOOO",
"                                               oOOOOOOOOOOOO",
"                                                         oOO",
"                                                           O",
"                                                            ",
"                                                            "
};
