/* XPM */
static char *result[] = {
/* columns rows colors chars-per-pixel */
"60 60 59 1 ",
"  c #0B090D",
". c #150B0D",
"X c #190D0D",
"o c #0D0B10",
"O c #120E12",
"+ c #1C0F12",
"@ c #161115",
"# c #1B1115",
"$ c #171418",
"% c #1B151A",
"& c #1E191D",
"* c #25100F",
"= c #2D110D",
"- c #32120C",
"; c #3A140C",
": c #210F10",
"> c #211012",
", c #2B1414",
"< c #21171A",
"1 c #221A1F",
"2 c #311614",
"3 c #341814",
"4 c #231D22",
"5 c #281D20",
"6 c #262126",
"7 c #282227",
"8 c #2B252B",
"9 c #2F282E",
"0 c #30292F",
"q c #2F2930",
"w c #332D32",
"e c #373037",
"r c #383137",
"t c #363138",
"y c #3B343B",
"u c #3F383F",
"i c #3F3941",
"p c #423A42",
"a c #463F48",
"s c #454047",
"d c #464149",
"f c #4A424B",
"g c #4E4650",
"h c #4E4953",
"j c #534A54",
"k c #564E59",
"l c #5A525D",
"z c #575460",
"x c #5C5662",
"c c #5D5965",
"v c #5F5B68",
"b c #625D6A",
"n c #64616E",
"m c #676472",
"M c #6A6775",
"N c #6B6877",
"B c #6F6C7B",
"V c #706E7D",
"C c #757484",
/* pixels */
"46644&$@##@@@@Oooo&eyr9644%+=-.                             ",
"wyiptw88884q8884%$&wr854&&#+=-.   ooo o  oo                 ",
"djcxhappappppapa9%&w94%$$##:--.OOOOOOOOOOOoo                ",
"jxmMblgfaaaaaaaae4&w7$#$$#:,--.OOOOOOOOOOOOo                ",
"jklmCcapppyppppp8&&w6%%&4523;-+O O     OooO                 ",
"jjkbCbayyyyyrytw4%&w7%%4453;;-:O   O X       O              ",
"jjkbCbayypyyytw91$&w7%%4413;;;:OX  O       O                ",
"jjkbCbdyyyyyywq7&$&w7%#%<<:=-3>OO    OO     X               ",
"jjkbCbayyyyyt087&#1w8<$$+#+:=-#OX     O  O                  ",
"jjkbCbayyyyytr95&@&ww84&%%#+=-+.O   O                       ",
"ljjbVbfpuppppyt7%@&wtw8444@:=-+ O       X                   ",
"Vxaaxlffffffaap4@@&ww544&%O:=;X      X    X  O              ",
"Vbgafhfffffffau4$@&w84&&%OX*--..          O                 ",
"bbblfaaaapapapy9&$&w4&&4%+*---.    X X    O                 ",
"jbVmayyyyyyyyrrr7&&w8&%&<+-;;-.                             ",
"jbNmdyyyyyyur088&$&07&%4%+-;;-.                             ",
"jbBmdyyyyytew847&$&08&&1%#*---.      oo                     ",
"jbBmdpyyyyyw8874&$&e8&&&%@+*--.  oo$OOO                     ",
"jbBmdyyyyyyw9887&@&w9644&%@:=-.  o$O$OoOX oo                ",
"jbBMfyiyyiyytyw7&@&wrw8611##=-.   OO  o                     ",
"jbBmfyyyyyyyyytw4%&ew74&&%@:=-.   oO . .    X  X            ",
"jbBmayyyyyyyyttt6&&w8&%@O#+:=-.   o                         ",
"jbBmfiyyyyywwwqq6%&w7$$%&<>=--.       .      X              ",
"jbBmayyyiytw8768&@&e7&%141-;;-.      .  X  X                ",
"jbBmayyyyyyww746&@&e4%%4453;;-.                             ",
"jbBmdyyyyyttw844&@&q8%%451,;;-.        .. .                 ",
"jbBmduyytwq98744&@&e4&@#%%:,--.                             ",
"jbBmdyyyw9664444%@&wq4%%##++--.          ..                 ",
"jcNndytw86644&%%@@&ww954&&#+=-.      .     .                ",
"akvzirw8&&11%$OOoO&eytq744%:=-.                             ",
"9wtt8874@@@OOooO O&wyyw444$:=-.                             ",
"dayttw861&&&&%O. O4wwq4&4%+X=-X oo o  o                     ",
"mchfsprww0w984%O O&091%%%@#:=-..oOOOOOOOOOOo                ",
"BMbzfayyyrww974%@@&w8%@%#%**--. O@$OO@OOOOOo   ..    .      ",
"lbBmdiuytw878444%@&w6%%1112-;-.oO$OOO  . oo.                ",
"jbBmduyyyww89844%@&w7%%4663;;-.oOO$OO        .              ",
"jbBmayyuyyttw844%$&w7%%1112;;-..O@OO.   o                   ",
"jbBmfyyyyyyit844&$1w7%#%<<,,-=..OOOO   .   . . .            ",
"jbBmduyyyyyte874%$1w81%@###X--. OOO         .  .            ",
"jbBmdyyyyytwq874%$&ww81&&%@*=-. Ooo  .  X                   ",
"jbBmayytrrt84444%@&ee98144#:==..     o    X    X            ",
"jbBmatq89q88444&@@&w96&%$$O+=-.       o                     ",
"jbBmaw874848444O @108%%$#$+*--.                             ",
"hcMmdw855444444O .1w6%#&<<,--=X                             ",
"akvxfyww87&44&$O O&w5%%441,3;-X   oo o                      ",
"wwypffaap8OOOOOO O&04%o$+@+*--#OoOOOOOOo                    ",
"daiiafaapw1$$@OOoO&qw5&&##+:--:@$O$OO@.                     ",
"mxjappppptw44&%OOO&etw44&4#+=-#@O$O$@O                      ",
"BNbkpyyyuyyw954%O$&wyt0744$>=-*@$oXOOo   X                  ",
"zbBbaiyyyyytw844&@&wyr0644$:,;#@$OooO                       ",
"jbBmdyyyyyyyyw87&#&ww74114%:=-##OO o XX X                   ",
"jbBmdyiyyuyyytw4&O1w8&$%&4##=->@$o                          ",
"jbBmdiyyyyyytw96&@&w7%#&&4#*=-X@@XO   X                     ",
"jbBmdyyyyuyyw966%@&w7%$444%#=-X.OO         X          X     ",
"jbBmdiyyyyyw9764&#&w5%%444%#=-X.  O               X X       ",
"jbVmdyyyttr87446&@4w7%&<4&#*=-.      X                      ",
"jbVmdyywq9866466&@&w7%$$%$#+=-..OO        X      X          ",
"xbmxayyq8666464&@@1w84%$%#@:=-..  O X   O                   ",
"Bmzgpyyw7464641$O@1wwq6&&%#+=-.oX   O                       ",
"CMgyyyyw764646&@ o&tytw744%:--Xo  O               O         "
};
