/* XPM */
static char *edd090e9d4bb4b97a8bd5ec1f0f72565[] = {
/* columns rows colors chars-per-pixel */
"60 60 101 2 ",
"   c #0A090E",
".  c #0E0B10",
"X  c #130D12",
"o  c #1B0F12",
"O  c #151116",
"+  c #1B1115",
"@  c #171318",
"#  c #1B151B",
"$  c #1D181E",
"%  c #220F0F",
"&  c #23100F",
"*  c #2F110E",
"=  c #31120D",
"-  c #3C140C",
";  c #200F11",
":  c #271110",
">  c #2B1110",
",  c #251618",
"<  c #20191F",
"1  c #2D1A1B",
"2  c #351E1E",
"3  c #241D23",
"4  c #262026",
"5  c #282127",
"6  c #272329",
"7  c #2C252B",
"8  c #2E282F",
"9  c #3C2221",
"0  c #32272C",
"q  c #342A2F",
"w  c #2F2930",
"e  c #332C33",
"r  c #3A2E33",
"t  c #373037",
"y  c #3B3035",
"u  c #3C343C",
"i  c #3F383F",
"p  c #3F3940",
"a  c #403740",
"s  c #433B44",
"d  c #483E47",
"f  c #473F48",
"g  c #483F49",
"h  c #474048",
"j  c #4A424B",
"k  c #4F4750",
"l  c #4E4951",
"z  c #504751",
"x  c #534A54",
"c  c #564F59",
"v  c #56515B",
"b  c #5A535D",
"n  c #5D5661",
"m  c #5E5863",
"M  c #625A65",
"N  c #645D68",
"B  c #66616D",
"V  c #6A636E",
"C  c #676472",
"Z  c #6A6673",
"A  c #6F6974",
"S  c #6F6D7C",
"D  c #746E7B",
"F  c #74717E",
"G  c #79727E",
"H  c #767585",
"J  c #7A7582",
"K  c #797787",
"L  c #7C7884",
"P  c #7A798A",
"I  c #7F7B89",
"U  c #7D7C8D",
"Y  c #7F7F90",
"T  c #807B87",
"R  c #837D89",
"E  c #86808D",
"W  c #808092",
"Q  c #868393",
"!  c #868493",
"~  c #838294",
"^  c #898492",
"/  c #8F8996",
"(  c #888799",
")  c #8A8899",
"_  c #8D8A99",
"`  c #8D8B9D",
"'  c #908A98",
"]  c #928C9A",
"[  c #918D9C",
"{  c #948E9D",
"}  c #94909F",
"|  c #9391A3",
" . c #9692A1",
".. c #9795A6",
"X. c #9894A3",
"o. c #9896A7",
"O. c #9C99AA",
"+. c #A09DAD",
"@. c #AAA6B8",
"#. c #AFABBB",
"$. c #B7B3C3",
/* pixels */
"W W W W W W W W ( O.+.V b Z W W W W W ~ o.#.$.#...K v M ^ @.` ~ P C j m H W W Y H v s p k D U W W W W W W W W W W S c u ",
"| | | | | | | | | _ T b b F | | | | | | | { { / I Z l v D {  .| _ F l B Q | | | ! n s s l B K ) | | | | | | | | | I n u ",
"+.+.+.+.+.+.+.+. .J b f v L +.+.+.+.+.O.^ D V V N b h j b G } O.X.J l V [ +.+.O.[ m f s z b D ] +.+.+.+.+.+.+.+.+.Q m t ",
"] ] ] ] ] ] ] ] E B s e j A ] ] ] ] ] / D b x x z j t t j M R / ^ A s n R ] ] ' R x p s x x V R ] ] ] ] ] ] ] ] ] J x e ",
"M M M M M M M M n c j 8 e j M M M M M M b x z z z j 8 8 s c n M b h 5 u c M M M c e 8 u x x b n M M M M M M M M M x u 3 ",
"x x x x x x x k j j j 7 5 u x x x x x x x z j j f s 5 5 u x x x k u 3 e j k j j s 5 5 u x x x x x x x x x x x x x f e $ ",
"z z z z z z z j s j s 5 5 u z z z z z z z j j s u e 3 3 t z z z j u < 8 s s s u t 3 4 u x x x x x x x x x x z z z s w $ ",
"f f f f j j j f s s u 4 5 u z j j f f f f s s t e 3 # 3 e f f j j u $ 3 0 t u u e 3 3 u x x x x x x x x x z j j f u 7 $ ",
"t t t t t s s s t t e 3 3 e s u t t t t t t t e 3 + X $ 7 t t u s e # + $ 5 e e e < 3 t k k z z x x x x z j s s u t 7 $ ",
"4 4 4 4 5 7 8 7 5 3 3 # $ 3 8 5 4 5 5 3 3 3 4 3 # X X + < 5 4 5 7 3 + X O $ 3 3 3 # 3 e s s j k x x x z j s s u u e 6 $ ",
"# $ $ < < < < < < $ # # # # # # $ $ # + X O # $ $ $ $ $ < < < < < < $ $ $ $ $ $ # # 3 e u u s j k k k j s u t t t e 6 $ ",
"8 e t u u u u u t e 8 8 8 8 8 8 e e 8 + X + 5 e u u u u u u u u u u u u u u t e 8 8 e t u u i s s s s s s t e 8 e e 6 $ ",
"t u s f f f f f s s t t t t t t u s u 5 $ # e s j j f f f g g f f f f f f f s s t t t u u u u u u u u u u t 8 3 7 5 3 # ",
"u a s s s s s s s s u u u u u u u s s t 5 < e s j s s s s s s s s s s s s s s s u u u u u u u t t t t t u t 8 3 $ # O X ",
"u u u u u u u u u u u u u u u u u u s g e 3 7 u i u u u u u u u u u u u u u u u u u u u t t e e e e e e e e 7 3 O       ",
"u u u u u u u u u u u u u u u u u u u u 8 # # 3 e u u u u u u u u u u u u u u u u u u u t 7 4 4 4 4 4 4 4 4 8 8 # .     ",
"j j j j j s s s s s s s s s s s s s s s t 8 7 e t s s j j j j j j j j j j j j j j j g s s t e e e e e e e e u s e 7 6 6 ",
"z z x x z j j f g j j j j j j j j f f f s a s s s j j z z z x x x x z z z z z z z x z z j s s s s s s s s f j j j s s s ",
"h j x z s s u u u u u j z z j s u u u u u u f j s u s s s j x b b z d s s s s s d z c x j s u u u u u u f j j j h h h h ",
"5 t s s 5 < < < < < 3 u j k s 5 < $ < < $ 3 e s e < < < 3 7 f z k s 5 3 < 3 < 3 5 s k z s 5 < $ < < $ 3 e s u 7 5 5 5 5 ",
"8 t u e $ $ 3 5 3 $ $ e s s u 3 $ 3 4 3 $ $ 8 t 8 + < < $ 3 u s s e $ $ 3 4 3 $ $ e s s u 3 $ 3 4 3 $ $ 0 u t 8 8 8 8 8 ",
"e t t 8 # 3 e e e 3 # 8 u u e $ 3 8 e e 4 $ 5 e 5 # 5 7 3 $ e u u e < 3 e e e 3 # 8 u u e $ 3 8 e e 3 $ 5 t t e e e e e ",
"5 8 e 8 # 4 e u e 4 # 8 t t e $ 3 e u t 5 $ 5 e 4 # 8 8 3 $ e t t e 7 e t u e 4 # 8 t t e $ 3 e u t 5 $ 5 e e 5 5 5 5 5 ",
"+ 3 7 5 # 3 q y q 3 # 5 e e 8 # 3 0 y r 5 # 3 8 3 # 7 7 3 # 8 e e e e e e e e 3 # 5 e e 8 # 3 0 y r 5 # 3 8 3 # + + + + ",
"X + < < + , 2 9 2 , + < 3 3 3 + , 2 9 9 1 + # < # + 1 1 , + 3 3 3 3 3 3 3 3 3 # + < 3 3 3 + , 2 9 9 1 + # < # o & * * * ",
"o o o o o > - - - > o o + + o o : = - - * ; o o o ; = = : o o + + + + + + + + o o o + + o o : = - - * ; o o o ; * - - - ",
"* * * * * = - - - = * * * * * * = - - - = = * * * = - - = * * * * * * * * = = = * * * * * * = - - - - = * * * = - - - - ",
"= = = = = = = = = = = = = = = = = = = = = = = = = = = = = = = = = = = = = = = = = = = = = = = = = = = = = = = = = = = = ",
"% % % % % % % % % % % % % % % % % % % % % % % % % % % % % % % % % % % % % % % % % % % % % % % % % % % % % % % % % % % % ",
"X X X X X X X X X X X X X X X X X X X X X X X X X X X X X X X X X X X X X X X X X X X X X X X X X X X X X X X X X X X X ",
"                                                                                                                        ",
"                            . X X X .                   . X X X .                     . X X X X X X X X X X X X X .     ",
"X .                 X X X X X O @ @ O                 . O # # O X X X X X X X X X   . X @ @ @ @ + + + + + + @ @ @ O .   ",
"+ X .               X X X X O # $ # @ .             . O # $ # + X X X X X X X X X   . O # # # # # # # # # # # # # O .   ",
"# + X               X X X X O # $ # @ .   X X X . . O # # # + X X X X X X X X X X     X X X X X X X X X X X X X X X     ",
"+ O X X           X X X X X X + # # @ .   X X X X O # # # + X X X X X X X X X X X     X X X X X X X X X X X X X X X     ",
"X X X X         X X X X X X X X + # @ .   X X X O # # # + X X X X X X X X X X X X     X X X X X X X X X X X X X X X     ",
"X X X X       X X X X X X X X X O # @ .   X X X O + + O X X X X X X X X X X X X X     X X X X X X X X X X X X X X X     ",
"X X X .     X X X X X X X X X X O # @ .   X X X X X X X X X X X X X X X X X X X X     X X X X X X X X X X X X X X X     ",
"            X X X X X X X X X X O # @ .   X X X X X X X X X X X X X X X X X X X X     X X X X X X X X X X X X X X       ",
"            X X X X X X X X X X O + O .   X X X X X X X X X X X X X X X X X X X X     X X X X X X X X X X X X X         ",
"            X X X X X X X X X X X O X     X X X X X X X X X X X X X X X               X X X X X X X X X X X X X         ",
"            X X X X X X X X X X X X X     X X X X X X X X X X X X X X X               X X X X X X X X X X X X X         ",
"            X X X X X X X X X X X X X     X X X X X X X X X X X X X X X X             X X X X X X                       ",
"            X X X X X X X X X X X X       X X X X X X X X X X X X X X X X               X X X X                         ",
"                                                                                                                        ",
"        . X X X X X X .                                   . X X X X X .                                                 ",
"      . @ @ @ @ @ @ O X X X X X X X X X                 . X O @ @ # # O X                                         X X X ",
"      . # # # # # # + O X X X X X X X X X               X X + # # # $ # O X                                     X X X X ",
"      . # @ O X X X X X X X X X X X X X X X X X X X     X X X X O + $ $ # O                                   X X X X X ",
"      . O O X X X X X X X X X X X X X X X X X X X       X X X X X O + # # O X                                 X X X X X ",
"          . X X X X X X X X X X X X X X X X X X         X X X X X X X + # O X X X                             X X X X X ",
"            X X X X X X X X X X X X X X X X X           X X X X X X X O O O X X X                             X X X X X ",
"            X X X X X X X X X X X X X X X X .           X X X X X X X X X X X X X                             X X X X X ",
"                  X X X X X X X X X X X X X             X X X X X X X X X X X X X                                       ",
"                    X X X X X X X X X X X X             . X X X X X X X X X X X X                                       ",
"                      X X X X X X X X X X X               . X X X X X X X X X X                                         ",
"                        X X X X X X X X X X                 . X X X X X X X X                                           ",
"                                                                                                                        ",
"                                                                                                                        "
};
